<svg xmlns="http://www.w3.org/2000/svg" width="179" height="48" fill="none"><circle cx="20.7" cy="24" r="17" stroke="white" stroke-width="6"/><path fill="white" d="M66.884 20.413a5.997 5.997 0 0 1-.756 2.94c-.486.915-1.26 1.652-2.324 2.212-1.046.56-2.37.84-3.976.84h-3.276v7.505h-3.92V14.366h7.196c1.512 0 2.8.26 3.864.784 1.064.522 1.857 1.24 2.38 2.155.541.915.812 1.951.812 3.108Zm-7.224 2.828c1.083 0 1.885-.242 2.408-.727.523-.505.784-1.204.784-2.1 0-1.905-1.064-2.857-3.192-2.857h-3.108v5.684h3.108Zm15.775 10.92c-1.493 0-2.837-.326-4.032-.98a7.352 7.352 0 0 1-2.828-2.827c-.672-1.214-1.008-2.614-1.008-4.2 0-1.587.345-2.987 1.036-4.2a7.294 7.294 0 0 1 2.884-2.8c1.213-.672 2.567-1.009 4.06-1.009 1.493 0 2.847.337 4.06 1.009a7.106 7.106 0 0 1 2.856 2.8c.71 1.213 1.064 2.613 1.064 4.2 0 1.586-.364 2.986-1.092 4.2a7.44 7.44 0 0 1-2.912 2.828c-1.213.653-2.576.98-4.088.98Zm0-3.416c.71 0 1.372-.168 1.988-.504.635-.354 1.139-.877 1.512-1.567.373-.691.56-1.531.56-2.52 0-1.475-.392-2.605-1.176-3.389-.765-.802-1.708-1.204-2.828-1.204-1.12 0-2.063.402-2.828 1.204-.747.784-1.12 1.914-1.12 3.389 0 1.474.364 2.613 1.092 3.416.747.784 1.68 1.175 2.8 1.175ZM89.203 13.19v20.72h-3.92V13.19h3.92Zm17.592 5.208-9.604 22.848H93.02l3.36-7.729-6.216-15.12h4.396l4.004 10.837 4.06-10.837h4.172Zm20.258-.224c1.904 0 3.434.588 4.592 1.764 1.176 1.157 1.764 2.78 1.764 4.872v9.1h-3.92v-8.568c0-1.214-.308-2.138-.924-2.772-.616-.654-1.456-.98-2.52-.98s-1.914.326-2.548.98c-.616.634-.924 1.558-.924 2.771v8.569h-3.92v-8.568c0-1.214-.308-2.138-.924-2.772-.616-.654-1.456-.98-2.52-.98-1.083 0-1.942.326-2.576.98-.616.634-.924 1.558-.924 2.771v8.569h-3.92V18.398h3.92v1.875a5.243 5.243 0 0 1 1.932-1.54 6.16 6.16 0 0 1 2.632-.56c1.213 0 2.296.262 3.248.785a5.31 5.31 0 0 1 2.212 2.184c.504-.896 1.232-1.615 2.184-2.157a6.333 6.333 0 0 1 3.136-.811ZM135 26.098c0-1.569.308-2.96.924-4.172.635-1.214 1.484-2.147 2.548-2.8 1.083-.654 2.287-.98 3.612-.98 1.158 0 2.166.233 3.024.7.878.466 1.578 1.054 2.1 1.764v-2.212h3.948V33.91h-3.948v-2.268c-.504.728-1.204 1.334-2.1 1.82-.877.466-1.894.7-3.052.7a6.665 6.665 0 0 1-3.584-1.008c-1.064-.673-1.913-1.615-2.548-2.829-.616-1.232-.924-2.64-.924-4.227Zm12.208.056c0-.953-.186-1.764-.56-2.436-.373-.691-.877-1.214-1.512-1.569a3.961 3.961 0 0 0-2.044-.56c-.728 0-1.4.178-2.016.533-.616.354-1.12.877-1.512 1.567-.373.672-.56 1.475-.56 2.409 0 .933.187 1.754.56 2.463.392.691.896 1.223 1.512 1.596a3.91 3.91 0 0 0 2.016.56c.728 0 1.41-.177 2.044-.531a4.069 4.069 0 0 0 1.512-1.569c.374-.69.56-1.512.56-2.463Zm11.221-4.537v7.505c0 .522.121.905.364 1.148.261.224.691.335 1.288.335h1.82v3.305h-2.464c-3.304 0-4.956-1.606-4.956-4.816v-7.477h-1.848v-3.22h1.848v-3.835h3.948v3.836h3.472v3.22h-3.472Zm13.907-3.443c1.176 0 2.222.26 3.136.784.915.504 1.624 1.26 2.128 2.268.523.989.784 2.184.784 3.584v9.1h-3.92v-8.568c0-1.232-.308-2.175-.924-2.828-.616-.672-1.456-1.008-2.52-1.008-1.082 0-1.941.335-2.576 1.008-.616.653-.924 1.596-.924 2.828v8.568h-3.92V13.19h3.92v7.14c.504-.672 1.176-1.195 2.016-1.568.84-.393 1.774-.588 2.8-.588Z"/></svg>
