<svg xmlns="http://www.w3.org/2000/svg" width="203" height="48" fill="none"><path fill="white" fill-rule="evenodd" d="M.1 24c13.983 0 22-8.016 22-22 0 13.984 8.016 22 22 22-13.984 0-22 8.016-22 22 0-13.984-8.017-22-22-22Z" clip-rule="evenodd"/><path fill="white" d="m52.79 33.909 7.68-21h4.32l7.68 21h-4.08l-1.68-4.86h-8.19l-1.71 4.86h-4.02Zm6.78-7.86h6.09l-3.06-8.73-3.03 8.73Zm20.602 8.22c-1.52 0-2.86-.33-4.02-.99a7.314 7.314 0 0 1-2.76-2.76c-.66-1.18-.99-2.53-.99-4.05s.33-2.87.99-4.05c.68-1.18 1.6-2.1 2.76-2.76 1.16-.66 2.5-.99 4.02-.99 1.9 0 3.5.5 4.8 1.5 1.3.98 2.13 2.34 2.49 4.08h-4.05c-.2-.72-.6-1.28-1.2-1.68-.58-.42-1.27-.63-2.07-.63-1.06 0-1.96.4-2.7 1.2-.74.8-1.11 1.91-1.11 3.33 0 1.42.37 2.53 1.11 3.33.74.8 1.64 1.2 2.7 1.2.8 0 1.49-.2 2.07-.6.6-.4 1-.97 1.2-1.71h4.05c-.36 1.68-1.19 3.03-2.49 4.05-1.3 1.02-2.9 1.53-4.8 1.53Zm9.198-.36v-14.88h3.39l.33 2.01a5.19 5.19 0 0 1 1.89-1.71c.8-.44 1.72-.66 2.76-.66 2.3 0 3.93.89 4.89 2.67a5.81 5.81 0 0 1 2.16-1.95c.92-.48 1.92-.72 3-.72 1.94 0 3.43.58 4.47 1.74 1.04 1.16 1.56 2.86 1.56 5.1v8.4h-3.84v-8.04c0-1.28-.25-2.26-.75-2.94-.48-.68-1.23-1.02-2.25-1.02-1.04 0-1.88.38-2.52 1.14-.62.76-.93 1.82-.93 3.18v7.68h-3.84v-8.04c0-1.28-.25-2.26-.75-2.94-.5-.68-1.27-1.02-2.31-1.02-1.02 0-1.85.38-2.49 1.14-.62.76-.93 1.82-.93 3.18v7.68h-3.84Zm33.826.36c-1.5 0-2.83-.32-3.99-.96a6.948 6.948 0 0 1-2.73-2.7c-.66-1.16-.99-2.5-.99-4.02 0-1.54.32-2.91.96-4.11.66-1.2 1.56-2.13 2.7-2.79 1.16-.68 2.52-1.02 4.08-1.02 1.46 0 2.75.32 3.87.96 1.12.64 1.99 1.52 2.61 2.64.64 1.1.96 2.33.96 3.69 0 .22-.01.45-.03.69 0 .24-.01.49-.03.75h-11.31c.08 1.16.48 2.07 1.2 2.73.74.66 1.63.99 2.67.99.78 0 1.43-.17 1.95-.51.54-.36.94-.82 1.2-1.38h3.9c-.28.94-.75 1.8-1.41 2.58-.64.76-1.44 1.36-2.4 1.8-.94.44-2.01.66-3.21.66Zm.03-12.48c-.94 0-1.77.27-2.49.81-.72.52-1.18 1.32-1.38 2.4h7.41c-.06-.98-.42-1.76-1.08-2.34-.66-.58-1.48-.87-2.46-.87Zm24.418 12.48c-2.12 0-3.94-.45-5.46-1.35-1.52-.92-2.69-2.19-3.51-3.81-.82-1.64-1.23-3.53-1.23-5.67s.41-4.03 1.23-5.67c.82-1.64 1.99-2.92 3.51-3.84 1.52-.92 3.34-1.38 5.46-1.38 2.52 0 4.58.63 6.18 1.89 1.62 1.24 2.63 2.99 3.03 5.25h-4.23c-.26-1.14-.82-2.03-1.68-2.67-.84-.66-1.96-.99-3.36-.99-1.94 0-3.46.66-4.56 1.98-1.1 1.32-1.65 3.13-1.65 5.43s.55 4.11 1.65 5.43c1.1 1.3 2.62 1.95 4.56 1.95 1.4 0 2.52-.3 3.36-.9.86-.62 1.42-1.47 1.68-2.55h4.23c-.4 2.16-1.41 3.85-3.03 5.07-1.6 1.22-3.66 1.83-6.18 1.83Zm18.159 0c-1.44 0-2.74-.33-3.9-.99a7.447 7.447 0 0 1-2.73-2.73c-.66-1.18-.99-2.54-.99-4.08s.34-2.89 1.02-4.05c.68-1.18 1.59-2.1 2.73-2.76 1.16-.66 2.46-.99 3.9-.99 1.42 0 2.7.33 3.84.99 1.16.66 2.07 1.58 2.73 2.76.68 1.16 1.02 2.51 1.02 4.05s-.34 2.9-1.02 4.08a7.16 7.16 0 0 1-2.73 2.73c-1.16.66-2.45.99-3.87.99Zm0-3.33c1 0 1.87-.37 2.61-1.11.74-.76 1.11-1.88 1.11-3.36s-.37-2.59-1.11-3.33c-.74-.76-1.6-1.14-2.58-1.14-1.02 0-1.9.38-2.64 1.14-.72.74-1.08 1.85-1.08 3.33s.36 2.6 1.08 3.36c.74.74 1.61 1.11 2.61 1.11Zm9.554 2.97v-14.88h3.42l.36 2.79c.54-.96 1.27-1.72 2.19-2.28.94-.58 2.04-.87 3.3-.87v4.05h-1.08c-.84 0-1.59.13-2.25.39-.66.26-1.18.71-1.56 1.35-.36.64-.54 1.53-.54 2.67v6.78h-3.84Zm10.394 6.6v-21.48h3.42l.42 2.13c.48-.66 1.11-1.24 1.89-1.74.8-.5 1.83-.75 3.09-.75 1.4 0 2.65.34 3.75 1.02 1.1.68 1.97 1.61 2.61 2.79.64 1.18.96 2.52.96 4.02 0 1.5-.32 2.84-.96 4.02a7.368 7.368 0 0 1-2.61 2.76c-1.1.66-2.35.99-3.75.99-1.12 0-2.1-.21-2.94-.63a5.3 5.3 0 0 1-2.04-1.77v8.64h-3.84Zm8.01-9.6c1.22 0 2.23-.41 3.03-1.23.8-.82 1.2-1.88 1.2-3.18 0-1.3-.4-2.37-1.2-3.21-.8-.84-1.81-1.26-3.03-1.26-1.24 0-2.26.42-3.06 1.26-.78.82-1.17 1.88-1.17 3.18 0 1.3.39 2.37 1.17 3.21.8.82 1.82 1.23 3.06 1.23Z"/></svg>
