<svg xmlns="http://www.w3.org/2000/svg" width="190" height="48" fill="none"><path fill="white" d="M22.48 4c-3.64 0-6.58 2.904-6.58 6.5 0 3.568 2.94 6.472 6.552 6.5a1.633 1.633 0 0 1-1.596-1.632c0-.885.728-1.632 1.652-1.632h16.464c2.716 0 4.928-2.185 4.928-4.868C43.9 6.185 41.688 4 38.972 4H22.48Z"/><path fill="white" d="M14.48 17c-3.64 0-6.58 2.904-6.58 6.5 0 3.568 2.94 6.472 6.552 6.5a1.633 1.633 0 0 1-1.596-1.632c0-.885.728-1.632 1.652-1.632h16.464c2.716 0 4.928-2.185 4.928-4.868 0-2.683-2.212-4.868-4.928-4.868H14.48ZM8.95 30c-3.9 0-7.05 3.128-7.05 7 0 3.843 3.15 6.97 7.02 7a1.754 1.754 0 0 1-1.71-1.758c0-.953.78-1.757 1.77-1.757h17.64c2.91 0 5.28-2.353 5.28-5.242 0-2.89-2.37-5.243-5.28-5.243H8.95Zm44.93 3.908v-21h13.5v3.6h-9.54v5.01h8.7v3.6h-8.7v5.19h9.72v3.6H53.88Zm15.232 6v-20.88h3.72v1.8h.54c.34-.58.87-1.09 1.59-1.53.72-.46 1.75-.69 3.09-.69 1.2 0 2.31.3 3.33.9 1.02.58 1.84 1.44 2.46 2.58.62 1.14.93 2.52.93 4.14v.48c0 1.62-.31 3-.93 4.14-.62 1.14-1.44 2.01-2.46 2.61-1.02.58-2.13.87-3.33.87-.9 0-1.66-.11-2.28-.33-.6-.2-1.09-.46-1.47-.78a5.63 5.63 0 0 1-.87-1.02h-.54v7.71h-3.78Zm7.8-8.88c1.18 0 2.15-.37 2.91-1.11.78-.76 1.17-1.86 1.17-3.3v-.3c0-1.44-.39-2.53-1.17-3.27-.78-.76-1.75-1.14-2.91-1.14-1.16 0-2.13.38-2.91 1.14-.78.74-1.17 1.83-1.17 3.27v.3c0 1.44.39 2.54 1.17 3.3.78.74 1.75 1.11 2.91 1.11Zm9.831 2.88v-14.88h3.78v14.88h-3.78Zm1.89-16.62c-.68 0-1.26-.22-1.74-.66-.46-.44-.69-1.02-.69-1.74s.23-1.3.69-1.74c.48-.44 1.06-.66 1.74-.66.7 0 1.28.22 1.74.66.46.44.69 1.02.69 1.74s-.23 1.3-.69 1.74c-.46.44-1.04.66-1.74.66Zm11.569 17.04c-1.44 0-2.75-.3-3.93-.9a6.796 6.796 0 0 1-2.76-2.61c-.68-1.14-1.02-2.52-1.02-4.14v-.42c0-1.62.34-3 1.02-4.14.68-1.14 1.6-2.01 2.76-2.61 1.18-.6 2.49-.9 3.93-.9 1.42 0 2.64.25 3.66.75s1.84 1.19 2.46 2.07c.64.86 1.06 1.84 1.26 2.94l-3.66.78a4.31 4.31 0 0 0-.54-1.62 3 3 0 0 0-1.2-1.14c-.5-.28-1.13-.42-1.89-.42s-1.45.17-2.07.51c-.6.32-1.08.81-1.44 1.47-.34.64-.51 1.43-.51 2.37v.3c0 .94.17 1.74.51 2.4.36.64.84 1.13 1.44 1.47.62.32 1.31.48 2.07.48 1.14 0 2-.29 2.58-.87.6-.6.98-1.38 1.14-2.34l3.66.87a8.237 8.237 0 0 1-1.35 2.91c-.62.86-1.44 1.54-2.46 2.04s-2.24.75-3.66.75Zm14.758-.18c-1.16 0-2.18-.26-3.06-.78a5.536 5.536 0 0 1-2.01-2.22c-.48-.94-.72-2.02-.72-3.24v-8.88h3.78v8.58c0 1.12.27 1.96.81 2.52.56.56 1.35.84 2.37.84 1.16 0 2.06-.38 2.7-1.14.64-.78.96-1.86.96-3.24v-7.56h3.78v14.88h-3.72v-1.95h-.54c-.24.5-.69.99-1.35 1.47-.66.48-1.66.72-3 .72Zm11.316-.24v-14.88h3.72v1.68h.54c.22-.6.58-1.04 1.08-1.32.52-.28 1.12-.42 1.8-.42h1.8v3.36h-1.86c-.96 0-1.75.26-2.37.78-.62.5-.93 1.28-.93 2.34v8.46h-3.78Zm10.395 0v-14.88h3.78v14.88h-3.78Zm1.89-16.62c-.68 0-1.26-.22-1.74-.66-.46-.44-.69-1.02-.69-1.74s.23-1.3.69-1.74c.48-.44 1.06-.66 1.74-.66.7 0 1.28.22 1.74.66.46.44.69 1.02.69 1.74s-.23 1.3-.69 1.74c-.46.44-1.04.66-1.74.66Zm11.659 17.04c-1.48 0-2.81-.3-3.99-.9a6.75 6.75 0 0 1-2.79-2.61c-.68-1.14-1.02-2.51-1.02-4.11v-.48c0-1.6.34-2.97 1.02-4.11a6.75 6.75 0 0 1 2.79-2.61c1.18-.6 2.51-.9 3.99-.9 1.48 0 2.81.3 3.99.9a6.75 6.75 0 0 1 2.79 2.61c.68 1.14 1.02 2.51 1.02 4.11v.48c0 1.6-.34 2.97-1.02 4.11a6.75 6.75 0 0 1-2.79 2.61c-1.18.6-2.51.9-3.99.9Zm0-3.36c1.16 0 2.12-.37 2.88-1.11.76-.76 1.14-1.84 1.14-3.24v-.3c0-1.4-.38-2.47-1.14-3.21-.74-.76-1.7-1.14-2.88-1.14-1.16 0-2.12.38-2.88 1.14-.76.74-1.14 1.81-1.14 3.21v.3c0 1.4.38 2.48 1.14 3.24.76.74 1.72 1.11 2.88 1.11Zm15.459 3.18c-1.16 0-2.18-.26-3.06-.78a5.536 5.536 0 0 1-2.01-2.22c-.48-.94-.72-2.02-.72-3.24v-8.88h3.78v8.58c0 1.12.27 1.96.81 2.52.56.56 1.35.84 2.37.84 1.16 0 2.06-.38 2.7-1.14.64-.78.96-1.86.96-3.24v-7.56h3.78v14.88h-3.72v-1.95h-.54c-.24.5-.69.99-1.35 1.47-.66.48-1.66.72-3 .72Zm17.496.18c-1.94 0-3.53-.42-4.77-1.26-1.24-.84-1.99-2.04-2.25-3.6l3.48-.9c.14.7.37 1.25.69 1.65.34.4.75.69 1.23.87.5.16 1.04.24 1.62.24.88 0 1.53-.15 1.95-.45.42-.32.63-.71.63-1.17 0-.46-.2-.81-.6-1.05-.4-.26-1.04-.47-1.92-.63l-.84-.15c-1.04-.2-1.99-.47-2.85-.81-.86-.36-1.55-.85-2.07-1.47-.52-.62-.78-1.42-.78-2.4 0-1.48.54-2.61 1.62-3.39 1.08-.8 2.5-1.2 4.26-1.2 1.66 0 3.04.37 4.14 1.11 1.1.74 1.82 1.71 2.16 2.91l-3.51 1.08c-.16-.76-.49-1.3-.99-1.62-.48-.32-1.08-.48-1.8-.48s-1.27.13-1.65.39c-.38.24-.57.58-.57 1.02 0 .48.2.84.6 1.08.4.22.94.39 1.62.51l.84.15c1.12.2 2.13.47 3.03.81.92.32 1.64.79 2.16 1.41.54.6.81 1.42.81 2.46 0 1.56-.57 2.77-1.71 3.63-1.12.84-2.63 1.26-4.53 1.26Z"/></svg>
