<svg xmlns="http://www.w3.org/2000/svg" width="203" height="48" fill="none"><path fill="white" d="M24.299 25.667c-.424-5.133-4.724-9.167-9.966-9.167-5.523 0-10 4.477-10 10s4.477 10 10 10h15V25.667h-5.034Z"/><circle cx="28.5" cy="24" r="12.5" fill="white"/><path fill="white" d="M53.196 24.2c0-1.997.383-3.742 1.148-5.236.784-1.512 1.895-2.678 3.332-3.5 1.456-.82 3.164-1.232 5.124-1.232 1.531 0 2.903.3 4.116.896a7.563 7.563 0 0 1 2.94 2.52c.747 1.083 1.195 2.334 1.344 3.752H67c-.242-1.12-.756-1.997-1.54-2.632-.765-.653-1.726-.98-2.884-.98-1.568 0-2.809.588-3.724 1.764-.914 1.176-1.372 2.726-1.372 4.648 0 1.904.458 3.454 1.372 4.648.915 1.176 2.156 1.764 3.724 1.764 1.158 0 2.119-.317 2.884-.952.784-.653 1.298-1.54 1.54-2.66h4.2c-.149 1.42-.597 2.67-1.344 3.752a7.56 7.56 0 0 1-2.94 2.52c-1.213.598-2.585.896-4.116.896-1.96 0-3.668-.41-5.124-1.232-1.437-.82-2.548-1.978-3.332-3.472-.765-1.512-1.148-3.266-1.148-5.264Zm19.016-9.8h3.948V34h-3.948V14.4ZM84.82 34.168c-1.512 0-2.847-.298-4.004-.896a6.614 6.614 0 0 1-2.66-2.604c-.616-1.12-.924-2.408-.924-3.864s.308-2.744.924-3.864a6.43 6.43 0 0 1 2.66-2.576c1.157-.616 2.492-.924 4.004-.924 1.512 0 2.837.308 3.976.924a6.219 6.219 0 0 1 2.66 2.576c.634 1.12.952 2.408.952 3.864 0 1.475-.318 2.772-.952 3.892-.616 1.102-1.503 1.96-2.66 2.576-1.139.598-2.464.896-3.976.896Zm0-3.22c1.101 0 1.969-.382 2.604-1.148.653-.765.98-1.764.98-2.996s-.327-2.23-.98-2.996c-.635-.765-1.503-1.148-2.604-1.148-1.083 0-1.951.383-2.604 1.148-.635.766-.952 1.764-.952 2.996s.317 2.231.952 2.996c.653.766 1.521 1.148 2.604 1.148Zm22.193-11.34V34h-3.5l-.364-1.736a5.525 5.525 0 0 1-1.764 1.4c-.672.336-1.494.504-2.464.504-1.68 0-3.052-.513-4.116-1.54-1.064-1.045-1.596-2.78-1.596-5.208v-7.812h3.948v7.336c0 1.307.224 2.296.672 2.968.466.654 1.176.98 2.128.98.989 0 1.754-.364 2.296-1.092.541-.746.812-1.782.812-3.108v-7.084h3.948ZM123.03 14.4V34h-3.444l-.392-1.988c-1.102 1.438-2.595 2.156-4.48 2.156-1.27 0-2.408-.298-3.416-.896-1.008-.616-1.802-1.484-2.38-2.604-.56-1.12-.84-2.417-.84-3.892 0-1.456.28-2.734.84-3.836.578-1.12 1.372-1.978 2.38-2.576 1.026-.616 2.174-.924 3.444-.924 1.866 0 3.313.654 4.34 1.96v-7h3.948Zm-7.392 16.548c1.064 0 1.913-.373 2.548-1.12.634-.765.952-1.764.952-2.996 0-1.25-.318-2.258-.952-3.024-.635-.765-1.484-1.148-2.548-1.148s-1.923.383-2.576 1.148c-.635.766-.952 1.764-.952 2.996s.317 2.231.952 2.996c.653.766 1.512 1.148 2.576 1.148Zm7.904-16.548 4.34-.028 3.612 14.336L135.33 14.4h3.78l3.724 14.308L146.53 14.4h4.256L145.354 34h-4.844l-3.388-13.02L133.818 34h-4.844l-5.432-19.6Zm40.418 16.268V34h-2.016c-1.811 0-2.697-.784-2.66-2.352-.523.822-1.167 1.447-1.932 1.876-.765.43-1.689.644-2.772.644-1.605 0-2.903-.364-3.892-1.092-.971-.746-1.456-1.792-1.456-3.136 0-1.53.56-2.706 1.68-3.528 1.139-.84 2.781-1.26 4.928-1.26h2.856v-.7c0-.653-.243-1.166-.728-1.54-.485-.392-1.139-.588-1.96-.588-.728 0-1.325.16-1.792.476a1.891 1.891 0 0 0-.84 1.288h-3.808c.131-1.474.784-2.613 1.96-3.416 1.176-.82 2.735-1.232 4.676-1.232 2.035 0 3.603.448 4.704 1.344 1.12.896 1.68 2.194 1.68 3.892v5.068c0 .355.075.598.224.728.149.131.383.196.7.196h.448Zm-5.264-2.884h-2.884c-.821 0-1.465.168-1.932.504-.448.318-.672.775-.672 1.372 0 .504.187.906.56 1.204.392.3.915.448 1.568.448 1.027 0 1.839-.289 2.436-.868.597-.597.905-1.39.924-2.38v-.28Zm6.595-4.844h-2.38v-3.332h2.38v-4.032h3.948v4.032h3.276v3.332h-3.276v6.3c0 .504.103.868.308 1.092.224.224.588.336 1.092.336h2.044V34h-3.276c-2.744 0-4.116-1.372-4.116-4.116V22.94Z"/><path fill="white" d="M186.841 28.54c-.261 1.755-1.008 3.136-2.24 4.144-1.213.99-2.79 1.484-4.732 1.484-1.493 0-2.8-.298-3.92-.896a6.476 6.476 0 0 1-2.604-2.604c-.597-1.12-.896-2.408-.896-3.864 0-1.474.299-2.762.896-3.864a6.296 6.296 0 0 1 2.604-2.576c1.139-.616 2.455-.924 3.948-.924 1.923 0 3.491.495 4.704 1.484 1.213.971 1.96 2.324 2.24 4.06h-4.088c-.168-.709-.504-1.269-1.008-1.68-.504-.429-1.129-.644-1.876-.644-1.027 0-1.848.383-2.464 1.148-.616.766-.924 1.764-.924 2.996s.308 2.231.924 2.996c.616.766 1.437 1.148 2.464 1.148.765 0 1.4-.214 1.904-.644.523-.429.859-1.017 1.008-1.764h4.06Zm9.221-9.1c1.699 0 3.089.523 4.172 1.568 1.101 1.046 1.652 2.772 1.652 5.18V34h-3.948v-7.644c0-1.194-.243-2.1-.728-2.716-.485-.634-1.213-.952-2.184-.952-1.008 0-1.801.346-2.38 1.036-.56.691-.84 1.652-.84 2.884V34h-3.948V14.4h3.948v6.972c1.064-1.288 2.483-1.932 4.256-1.932Z"/></svg>
