<?xml version="1.0" encoding="utf-8"?>
<!-- Generator: Adobe Illustrator 21.0.2, SVG Export Plug-In . SVG Version: 6.00 Build 0)  -->
<svg version="1.1" id="Lager_1" xmlns="http://www.w3.org/2000/svg" xmlns:xlink="http://www.w3.org/1999/xlink" x="0px" y="0px"
	 viewBox="0 0 448 77.4" style="enable-background:new 0 0 448 77.4;" xml:space="preserve">
<style type="text/css">
	.st0{fill:#3d3c3c;}
</style>
<g>
	<path class="st0" d="M31.6,0c9.3,0,18.9,5.7,24.1,14.2l-7.9,7c-4.9-6.3-10-8.8-15.7-8.8c-9.9,0-18.3,10-18.3,26.2
		s8.4,26.2,18.3,26.2c5.7,0,10.8-2.7,15.7-8.8l7.9,6.9c-5.2,8.7-14.8,14.4-24.1,14.4C12.7,77.4,0,60,0,38.7S12.7,0,31.6,0z"/>
	<path class="st0" d="M82.8,76.2H70.2V28.6C70.2,10.2,81.5,0,95.2,0c13.8,0,25,10.2,25,28.6v47.5h-12.6v-25H82.8V76.2z M107.7,28.6
		c0-10.9-5.5-16.2-12.4-16.2s-12.4,5.2-12.4,16.2v10h24.9L107.7,28.6L107.7,28.6z"/>
	<path class="st0" d="M191.7,26.2c0,13.6-11.2,24.9-24.9,24.9c-1.2,0-15,0-15,0v25h-12.6v-75h27.6C180.5,1.2,191.7,12.4,191.7,26.2z
		 M179.2,26.2c0-6.9-5.5-12.6-12.4-12.6c-1.4,0-15,0-15,0v25h15C173.7,38.7,179.2,33,179.2,26.2z"/>
	<path class="st0" d="M245.7,28.6v12.6h-24.9v22.5h24.9v12.4h-37.5V28.6H245.7z"/>
	<path class="st0" d="M282.5,63.7h24.9v12.4h-37.5v-75h12.6V63.7z"/>
	<path class="st0" d="M346.8,0c17.8,0,27.6,17.4,27.6,38.7s-9.8,38.7-27.6,38.7c-17.6,0-27.6-17.4-27.6-38.7
		C319.3,17.4,329.2,0,346.8,0z M346.8,64.9c7.6,0,13.7-11.8,13.7-26.2s-6.1-26.2-13.7-26.2c-7.4,0-13.7,11.8-13.7,26.2
		S339.4,64.9,346.8,64.9z"/>
	<path class="st0" d="M436.1,1.2H448v75h-10l-30.9-47.8v47.8h-11.8v-75h9.9L436.1,49V1.2z"/>
	<polygon class="st0" points="208.2,13.6 208.2,1.2 245.7,1.2 245.7,13.6 	"/>
</g>
</svg>
