<svg width="573" height="151" viewBox="0 0 573 151" fill="none" xmlns="http://www.w3.org/2000/svg">
<g clip-path="url(#clip0_2371_110583)">
<path d="M75.0965 31.8669C73.3433 34.186 71.616 36.4709 69.8795 38.7679C58.2067 32.8596 46.2865 32.1268 34.216 37.1989C24.8881 41.1184 17.9292 47.7675 13.4734 56.8631C4.38529 75.4148 10.2842 97.6873 27.1979 109.174C44.2361 120.746 66.9982 118.064 80.8002 102.737C88.3313 94.3737 91.8772 84.4429 91.3695 73.1852C90.8625 61.9448 86.2902 52.5059 78.1756 44.7292C79.9023 42.4455 81.6165 40.1784 83.3982 37.822C90.1195 43.888 94.9758 51.1473 97.6651 59.7563C101.81 73.0261 100.831 85.9824 94.3505 98.2957C80.8882 123.875 49.4491 132.374 25.2623 118.174C0.528914 103.653 -6.66222 71.9735 8.31209 48.4248C23.8193 24.038 54.1162 19.4869 75.0965 31.8669Z" fill="#3d3c3c"/>
<path d="M37.1595 102.139C38.9023 99.8711 40.6123 97.6644 42.2956 95.4379C42.567 95.0788 42.8134 95.1902 43.1223 95.2979C45.6072 96.1647 48.1692 96.561 50.8033 96.5182C60.7282 96.3569 69.4972 89.2202 71.5325 79.6452C73.9852 68.1071 66.8425 56.9689 55.2349 54.2312C43.3705 51.4328 31.2563 59.1866 29.0542 71.0184C27.8181 77.6595 29.4009 83.609 33.7194 88.8394C34.0244 89.2088 34.0389 89.431 33.7401 89.8123C32.0888 91.919 30.4697 94.0504 28.8373 96.1761C20.506 88.6371 16.1805 73.2 24.1855 59.7562C32.4509 45.8748 50.9576 40.9184 65.0871 48.8388C79.7149 57.0385 85.027 74.9327 77.0678 89.3726C68.9801 104.046 51.1704 108.85 37.1595 102.139Z" fill="#3d3c3c"/>
</g>
<path d="M181.793 119.875C174.582 119.875 168.353 118.126 163.105 114.627C157.899 111.086 153.867 106.115 151.009 99.7154C148.15 93.2728 146.721 85.7208 146.721 77.0594C146.721 67.9288 148.235 60.2701 151.265 54.0834C154.294 47.8541 158.454 43.1608 163.745 40.0034C169.078 36.8034 175.094 35.2034 181.793 35.2034C190.795 35.2034 197.963 37.4434 203.297 41.9234C208.63 46.3608 212.171 52.1421 213.921 59.2674L200.929 61.7634C199.393 57.0274 196.961 53.2514 193.633 50.4354C190.305 47.5768 186.358 46.1474 181.793 46.1474C177.782 46.1474 174.113 47.2994 170.785 49.6034C167.457 51.9074 164.79 55.3634 162.785 59.9714C160.779 64.5368 159.777 70.2328 159.777 77.0594C159.777 83.3741 160.609 88.9208 162.273 93.6994C163.937 98.4354 166.39 102.126 169.633 104.771C172.875 107.417 176.929 108.739 181.793 108.739C187.723 108.739 192.395 107.161 195.809 104.003C199.222 100.803 200.929 96.6434 200.929 91.5234H214.049C214.049 97.4968 212.705 102.595 210.017 106.819C207.371 111.001 203.638 114.222 198.817 116.483C193.995 118.745 188.321 119.875 181.793 119.875ZM255.533 119.875C249.943 119.875 244.93 118.659 240.493 116.227C236.098 113.795 232.621 110.169 230.061 105.347C227.501 100.526 226.221 94.5741 226.221 87.4914C226.221 80.2808 227.501 74.2861 230.061 69.5074C232.621 64.6861 236.098 61.0594 240.493 58.6274C244.93 56.1954 249.943 54.9794 255.533 54.9794C261.037 54.9794 265.986 56.1954 270.381 58.6274C274.775 61.0594 278.231 64.6861 280.749 69.5074C283.309 74.2861 284.589 80.2808 284.589 87.4914C284.589 94.5741 283.309 100.526 280.749 105.347C278.231 110.169 274.775 113.795 270.381 116.227C265.986 118.659 261.037 119.875 255.533 119.875ZM255.149 109.251C258.69 109.251 261.741 108.398 264.301 106.691C266.903 104.985 268.887 102.51 270.253 99.2674C271.661 95.9821 272.365 92.0568 272.365 87.4914C272.365 80.4941 270.935 75.0754 268.077 71.2354C265.261 67.3954 261.186 65.4754 255.853 65.4754C252.269 65.4754 249.175 66.3501 246.573 68.0994C244.013 69.8061 242.029 72.3021 240.621 75.5874C239.255 78.8301 238.573 82.7981 238.573 87.4914C238.573 94.3608 240.002 99.7154 242.861 103.555C245.719 107.353 249.815 109.251 255.149 109.251ZM326.021 149.955C319.365 149.955 313.626 149.038 308.805 147.203C304.026 145.369 300.335 142.915 297.733 139.843C295.13 136.771 293.829 133.422 293.829 129.795C293.829 125.187 295.514 121.646 298.885 119.171C302.255 116.739 306.543 115.523 311.749 115.523L319.621 119.235C315.183 119.235 311.749 120.131 309.317 121.923C306.927 123.715 305.733 126.147 305.733 129.219C305.733 132.419 307.482 135.043 310.981 137.091C314.479 139.182 319.493 140.227 326.021 140.227C330.757 140.227 334.917 139.523 338.501 138.115C342.085 136.75 344.858 134.937 346.821 132.675C348.783 130.457 349.765 128.067 349.765 125.507C349.765 123.758 349.125 122.265 347.845 121.027C346.607 119.833 344.709 119.235 342.149 119.235H319.621C315.439 119.235 311.749 118.595 308.549 117.315C305.391 115.993 302.917 114.265 301.125 112.131C299.333 109.998 298.437 107.63 298.437 105.027C298.437 102.467 299.162 100.27 300.613 98.4354C302.063 96.5581 303.983 95.1501 306.373 94.2114C308.762 93.2301 311.386 92.7394 314.245 92.7394L316.997 96.9634C315.759 96.9634 314.522 97.2408 313.285 97.7954C312.047 98.3074 311.023 99.0968 310.213 100.163C309.402 101.23 308.997 102.553 308.997 104.131C308.997 105.966 309.765 107.502 311.301 108.739C312.879 109.934 315.653 110.531 319.621 110.531H342.149C348.293 110.531 353.114 111.747 356.613 114.179C360.111 116.611 361.861 120.153 361.861 124.803C361.861 129.027 360.41 133.059 357.509 136.899C354.607 140.739 350.469 143.875 345.093 146.307C339.759 148.739 333.402 149.955 326.021 149.955ZM327.365 99.7154C322.586 99.7154 318.234 98.7981 314.309 96.9634C310.426 95.0861 307.333 92.4834 305.029 89.1554C302.725 85.7848 301.573 81.8594 301.573 77.3794C301.573 72.8568 302.725 68.9314 305.029 65.6034C307.333 62.2328 310.426 59.6301 314.309 57.7954C318.234 55.9181 322.586 54.9794 327.365 54.9794C332.015 54.9794 336.261 55.9181 340.101 57.7954C343.983 59.6301 347.077 62.2328 349.381 65.6034C351.727 68.9314 352.901 72.8568 352.901 77.3794C352.901 81.8594 351.727 85.7848 349.381 89.1554C347.077 92.4834 343.983 95.0861 340.101 96.9634C336.261 98.7981 332.015 99.7154 327.365 99.7154ZM327.365 91.1394C331.759 91.1394 335.109 89.8381 337.413 87.2354C339.759 84.5901 340.933 81.3048 340.933 77.3794C340.933 73.2834 339.759 69.9768 337.413 67.4594C335.109 64.9421 331.759 63.6834 327.365 63.6834C323.055 63.6834 319.685 64.9421 317.253 67.4594C314.863 69.9768 313.669 73.2834 313.669 77.3794C313.669 81.3048 314.863 84.5901 317.253 87.2354C319.685 89.8381 323.055 91.1394 327.365 91.1394ZM348.293 64.8354L342.597 62.0834C342.597 58.4141 343.365 55.2141 344.901 52.4834C346.437 49.7528 348.57 47.6194 351.301 46.0834C354.031 44.5474 357.167 43.7794 360.709 43.7794L359.941 55.6194C356.143 55.6194 353.242 56.3661 351.237 57.8594C349.274 59.3528 348.293 61.6781 348.293 64.8354ZM419.751 118.211V82.1154C419.751 76.7821 418.471 72.7501 415.911 70.0194C413.393 67.2461 409.98 65.8594 405.671 65.8594C402.257 65.8594 399.271 66.7981 396.711 68.6754C394.193 70.5101 392.231 73.2194 390.823 76.8034C389.457 80.3448 388.775 84.6754 388.775 89.7954H384.423C384.423 82.2434 385.383 75.8861 387.303 70.7234C389.265 65.5608 392.06 61.6568 395.687 59.0114C399.313 56.3234 403.665 54.9794 408.743 54.9794C413.692 54.9794 417.873 56.0888 421.287 58.3074C424.743 60.5261 427.367 63.6834 429.159 67.7794C430.951 71.8328 431.847 76.6114 431.847 82.1154V118.211H419.751ZM376.615 118.211V56.6434H387.175L388.775 69.9554V118.211H376.615ZM445.198 56.6434H458.83L477.39 107.587H474.894L489.806 56.6434H502.222L478.862 130.051C476.728 136.707 473.976 141.678 470.606 144.963C467.278 148.291 463.096 149.955 458.062 149.955C455.246 149.955 452.536 149.593 449.934 148.867C447.374 148.142 444.75 147.075 442.062 145.667V134.723C444.366 136.345 446.584 137.518 448.718 138.243C450.851 138.969 453.07 139.331 455.374 139.331C457.678 139.331 459.64 138.627 461.262 137.219C462.926 135.854 464.312 134.019 465.422 131.715C466.574 129.454 467.555 126.979 468.366 124.291L470.222 118.211L445.198 56.6434ZM506.887 118.211L530.503 87.4914L506.887 56.4514H521.799L538.375 78.2754L554.183 56.4514H569.031L545.415 87.4914L568.967 118.211H554.119L537.479 96.3234L521.799 118.211H506.887Z" fill="#3d3c3c"/>
<defs>
<clipPath id="clip0_2371_110583">
<rect width="100" height="100" fill="white" transform="translate(0.384766 25.2114)"/>
</clipPath>
</defs>
</svg>
