<svg width="128" height="40" viewBox="0 0 128 40" fill="none" xmlns="http://www.w3.org/2000/svg">
<g clip-path="url(#clip0_455_2381)">
<g clip-path="url(#clip1_455_2381)">
<path d="M9.0232 8.48047C11.6803 8.48047 14.4232 10.109 15.9089 12.5376L13.6518 14.5376C12.2518 12.7376 10.7946 12.0233 9.16606 12.0233C6.33749 12.0233 3.93749 14.8805 3.93749 19.509C3.93749 24.1376 6.33749 26.9948 9.16606 26.9948C10.7946 26.9948 12.2518 26.2233 13.6518 24.4805L15.9089 26.4519C14.4232 28.9376 11.6803 30.5662 9.0232 30.5662C3.6232 30.5948 -0.00537109 25.6233 -0.00537109 19.5376C-0.00537109 13.4519 3.6232 8.48047 9.0232 8.48047Z" fill="#869597"/>
<path d="M23.6493 30.2519H20.0493V16.6519C20.0493 11.3948 23.2779 8.48047 27.1922 8.48047C31.135 8.48047 34.335 11.3948 34.335 16.6519V30.2233H30.735V23.0805H23.6493V30.2519ZM30.7636 16.6519C30.7636 13.5376 29.1922 12.0233 27.2207 12.0233C25.2493 12.0233 23.6779 13.509 23.6779 16.6519V19.509H30.7922L30.7636 16.6519Z" fill="#869597"/>
<path d="M54.7681 15.9644C54.7681 19.8501 51.5681 23.0787 47.6538 23.0787C47.3109 23.0787 43.3681 23.0787 43.3681 23.0787V30.2215H39.7681V8.79297H47.6538C51.5681 8.82154 54.7681 12.0215 54.7681 15.9644ZM51.1966 15.9644C51.1966 13.993 49.6252 12.3644 47.6538 12.3644C47.2538 12.3644 43.3681 12.3644 43.3681 12.3644V19.5073H47.6538C49.6252 19.5358 51.1966 17.9073 51.1966 15.9644Z" fill="#869597"/>
<path d="M70.1933 16.6523V20.2523H63.079V26.6809H70.1933V30.2238H59.479V16.6523H70.1933Z" fill="#869597"/>
<path d="M80.7118 26.6787H87.8261V30.2215H77.1118V8.79297H80.7118V26.6787Z" fill="#869597"/>
<path d="M99.0756 8.48047C104.161 8.48047 106.961 13.4519 106.961 19.5376C106.961 25.6233 104.161 30.5948 99.0756 30.5948C94.0471 30.5948 91.1899 25.6233 91.1899 19.5376C91.2185 13.4519 94.0471 8.48047 99.0756 8.48047ZM99.0756 27.0233C101.247 27.0233 102.99 23.6519 102.99 19.5376C102.99 15.4233 101.247 12.0519 99.0756 12.0519C96.9614 12.0519 95.1614 15.4233 95.1614 19.5376C95.1614 23.6519 96.9614 27.0233 99.0756 27.0233Z" fill="#869597"/>
<path d="M124.597 8.82422H127.997V30.2528H125.14L116.311 16.5956V30.2528H112.94V8.82422H115.769L124.597 22.4814V8.82422Z" fill="#869597"/>
<path d="M59.479 12.3671V8.82422H70.1933V12.3671H59.479Z" fill="#869597"/>
</g>
</g>
<defs>
<clipPath id="clip0_455_2381">
<rect width="128" height="40" fill="white" transform="translate(-0.00537109)"/>
</clipPath>
<clipPath id="clip1_455_2381">
<rect width="128" height="22.1143" fill="white" transform="translate(-0.00537109 8.48047)"/>
</clipPath>
</defs>
</svg>
