<svg width="130" height="35" viewBox="0 0 130 35" fill="none" xmlns="http://www.w3.org/2000/svg">
<g clip-path="url(#clip0_455_2393)">
<mask id="mask0_455_2393" style="mask-type:luminance" maskUnits="userSpaceOnUse" x="-1" y="6" width="24" height="24">
<path d="M22.3291 6.35156H-0.380371V29.061H22.3291V6.35156Z" fill="white"/>
</mask>
<g mask="url(#mask0_455_2393)">
<path d="M16.583 7.86254C16.1849 8.38919 15.7926 8.90808 15.3982 9.42972C12.7474 8.08798 10.0404 7.92156 7.29927 9.07341C5.18096 9.9635 3.60063 11.4735 2.58875 13.539C0.524889 17.752 1.8645 22.81 5.7055 25.4185C9.57478 28.0465 14.7439 27.4374 17.8783 23.9567C19.5885 22.0575 20.3938 19.8022 20.2785 17.2457C20.1634 14.6931 19.125 12.5495 17.2822 10.7835C17.6744 10.2649 18.0637 9.75003 18.4683 9.21491C19.9946 10.5925 21.0975 12.241 21.7082 14.1961C22.6495 17.2096 22.4272 20.1519 20.9555 22.9481C17.8983 28.7571 10.7586 30.6871 5.26594 27.4624C-0.350871 24.1648 -1.98394 16.9705 1.41664 11.6227C4.93824 6.08464 11.8185 5.05111 16.583 7.86254Z" fill="#869597"/>
<path d="M7.96704 23.8215C8.36282 23.3064 8.75115 22.8053 9.13342 22.2997C9.19505 22.2181 9.25101 22.2434 9.32115 22.2679C9.88546 22.4647 10.4673 22.5547 11.0655 22.545C13.3194 22.5084 15.3107 20.8877 15.7729 18.7132C16.3299 16.093 14.7079 13.5636 12.0719 12.9419C9.37752 12.3064 6.62645 14.0672 6.12637 16.7541C5.84566 18.2623 6.2051 19.6134 7.18581 20.8012C7.25507 20.8851 7.25837 20.9355 7.19051 21.0221C6.81551 21.5006 6.44782 21.9846 6.07711 22.4673C4.18512 20.7553 3.20283 17.2496 5.02072 14.1966C6.89774 11.0442 11.1005 9.91861 14.3092 11.7173C17.6311 13.5794 18.8375 17.6431 17.03 20.9223C15.1933 24.2545 11.1488 25.3455 7.96704 23.8215Z" fill="#869597"/>
</g>
<path d="M40.8187 27.8495C39.1811 27.8495 37.7665 27.4523 36.5747 26.6577C35.3925 25.8536 34.4768 24.7247 33.8278 23.2714C33.1785 21.8083 32.854 20.0933 32.854 18.1264C32.854 16.0528 33.1978 14.3136 33.8859 12.9086C34.5738 11.494 35.5185 10.4282 36.7201 9.71115C37.9311 8.98444 39.2973 8.62109 40.8187 8.62109C42.863 8.62109 44.4908 9.12979 45.7021 10.1472C46.9132 11.1549 47.7173 12.4678 48.1147 14.0859L45.1643 14.6527C44.8155 13.5772 44.2632 12.7197 43.5074 12.0802C42.7517 11.431 41.8553 11.1064 40.8187 11.1064C39.9078 11.1064 39.0746 11.368 38.3188 11.8913C37.563 12.4145 36.9574 13.1993 36.502 14.2458C36.0465 15.2825 35.8189 16.5761 35.8189 18.1264C35.8189 19.5604 36.0079 20.82 36.3858 21.9052C36.7637 22.9807 37.3207 23.8188 38.0572 24.4195C38.7934 25.0204 39.7141 25.3206 40.8187 25.3206C42.1653 25.3206 43.2263 24.9622 44.0016 24.2451C44.7767 23.5184 45.1643 22.5738 45.1643 21.411H48.1438C48.1438 22.7676 47.8386 23.9253 47.2282 24.8846C46.6273 25.8343 45.7795 26.5658 44.6847 27.0792C43.5897 27.5929 42.3011 27.8495 40.8187 27.8495ZM57.5646 27.8495C56.2951 27.8495 55.1567 27.5734 54.1491 27.0211C53.151 26.4688 52.3614 25.6453 51.78 24.5503C51.1987 23.4555 50.908 22.1038 50.908 20.4954C50.908 18.8579 51.1987 17.4965 51.78 16.4113C52.3614 15.3164 53.151 14.4928 54.1491 13.9405C55.1567 13.3883 56.2951 13.1121 57.5646 13.1121C58.8145 13.1121 59.9384 13.3883 60.9365 13.9405C61.9343 14.4928 62.7192 15.3164 63.291 16.4113C63.8724 17.4965 64.163 18.8579 64.163 20.4954C64.163 22.1038 63.8724 23.4555 63.291 24.5503C62.7192 25.6453 61.9343 26.4688 60.9365 27.0211C59.9384 27.5734 58.8145 27.8495 57.5646 27.8495ZM57.4774 25.4369C58.2815 25.4369 58.9744 25.2432 59.5557 24.8555C60.1466 24.4681 60.5972 23.906 60.9074 23.1697C61.2272 22.4236 61.387 21.5322 61.387 20.4954C61.387 18.9064 61.0623 17.6758 60.4133 16.8038C59.7738 15.9317 58.8483 15.4957 57.6373 15.4957C56.8233 15.4957 56.1207 15.6943 55.5298 16.0916C54.9485 16.4792 54.4979 17.046 54.1782 17.7921C53.8679 18.5285 53.7131 19.4296 53.7131 20.4954C53.7131 22.0554 54.0376 23.2714 54.6868 24.1433C55.3359 25.0059 56.2661 25.4369 57.4774 25.4369ZM73.572 34.6805C72.0605 34.6805 70.7572 34.4723 69.6623 34.0556C68.5771 33.6391 67.7389 33.0818 67.148 32.3841C66.5568 31.6865 66.2614 30.926 66.2614 30.1023C66.2614 29.0559 66.644 28.2517 67.4096 27.6897C68.1749 27.1374 69.1487 26.8612 70.3309 26.8612L72.1186 27.7042C71.1108 27.7042 70.3309 27.9077 69.7786 28.3146C69.2359 28.7216 68.9647 29.2739 68.9647 29.9715C68.9647 30.6982 69.3619 31.2941 70.1565 31.7592C70.9509 32.234 72.0895 32.4713 73.572 32.4713C74.6475 32.4713 75.5922 32.3115 76.4061 31.9917C77.22 31.6817 77.8498 31.27 78.2956 30.7563C78.7411 30.2526 78.9641 29.7099 78.9641 29.1285C78.9641 28.7313 78.8188 28.3923 78.5281 28.1111C78.247 27.84 77.8159 27.7042 77.2346 27.7042H72.1186C71.1689 27.7042 70.3309 27.5588 69.6042 27.2682C68.8871 26.9679 68.3252 26.5755 67.9183 26.0909C67.5113 25.6065 67.3078 25.0688 67.3078 24.4776C67.3078 23.8963 67.4725 23.3973 67.802 22.9807C68.1313 22.5544 68.5673 22.2346 69.1101 22.0215C69.6526 21.7986 70.2485 21.6872 70.8977 21.6872L71.5227 22.6464C71.2416 22.6464 70.9606 22.7094 70.6797 22.8354C70.3986 22.9516 70.166 23.1309 69.9821 23.373C69.7979 23.6154 69.706 23.9158 69.706 24.2742C69.706 24.6909 69.8804 25.0397 70.2292 25.3206C70.5875 25.592 71.2175 25.7276 72.1186 25.7276H77.2346C78.6298 25.7276 79.7247 26.0037 80.5193 26.556C81.3136 27.1083 81.7111 27.9127 81.7111 28.9686C81.7111 29.9279 81.3815 30.8435 80.7227 31.7156C80.0637 32.5876 79.124 33.2998 77.9031 33.8521C76.6918 34.4044 75.2482 34.6805 73.572 34.6805ZM73.8772 23.2714C72.7919 23.2714 71.8036 23.0631 70.9123 22.6464C70.0305 22.2201 69.3281 21.6291 68.8048 20.8733C68.2816 20.1078 68.02 19.2164 68.02 18.199C68.02 17.172 68.2816 16.2805 68.8048 15.5248C69.3281 14.7593 70.0305 14.1683 70.9123 13.7516C71.8036 13.3253 72.7919 13.1121 73.8772 13.1121C74.9332 13.1121 75.8974 13.3253 76.7695 13.7516C77.6511 14.1683 78.3537 14.7593 78.8769 15.5248C79.4097 16.2805 79.6763 17.172 79.6763 18.199C79.6763 19.2164 79.4097 20.1078 78.8769 20.8733C78.3537 21.6291 77.6511 22.2201 76.7695 22.6464C75.8974 23.0631 74.9332 23.2714 73.8772 23.2714ZM73.8772 21.3238C74.8751 21.3238 75.6358 21.0283 76.1591 20.4373C76.6918 19.8365 76.9584 19.0905 76.9584 18.199C76.9584 17.2688 76.6918 16.5179 76.1591 15.9462C75.6358 15.3746 74.8751 15.0887 73.8772 15.0887C72.8984 15.0887 72.1331 15.3746 71.5808 15.9462C71.0381 16.5179 70.7669 17.2688 70.7669 18.199C70.7669 19.0905 71.0381 19.8365 71.5808 20.4373C72.1331 21.0283 72.8984 21.3238 73.8772 21.3238ZM78.6298 15.3504L77.3363 14.7254C77.3363 13.8921 77.5107 13.1654 77.8595 12.5453C78.2084 11.9252 78.6927 11.4407 79.3129 11.0919C79.9329 10.7431 80.6451 10.5687 81.4495 10.5687L81.275 13.2574C80.4125 13.2574 79.7537 13.427 79.2984 13.7661C78.8526 14.1053 78.6298 14.6333 78.6298 15.3504ZM94.8575 27.4716V19.2745C94.8575 18.0634 94.5669 17.1477 93.9855 16.5276C93.4137 15.8978 92.6386 15.5829 91.6601 15.5829C90.8848 15.5829 90.2067 15.7961 89.6253 16.2224C89.0535 16.639 88.6079 17.2543 88.2882 18.0682C87.978 18.8724 87.8231 19.8559 87.8231 21.0186H86.8348C86.8348 19.3036 87.0528 17.8599 87.4888 16.6875C87.9344 15.5151 88.5691 14.6285 89.3927 14.0278C90.2162 13.4173 91.2045 13.1121 92.3577 13.1121C93.4816 13.1121 94.4311 13.364 95.2064 13.8679C95.9912 14.3717 96.5871 15.0887 96.994 16.0189C97.401 16.9394 97.6045 18.0246 97.6045 19.2745V27.4716H94.8575ZM85.0616 27.4716V13.49H87.4597L87.8231 16.5131V27.4716H85.0616ZM100.636 13.49H103.732L107.947 25.059H107.38L110.767 13.49H113.586L108.281 30.1604C107.797 31.672 107.172 32.8009 106.406 33.5469C105.651 34.3026 104.701 34.6805 103.558 34.6805C102.918 34.6805 102.303 34.5983 101.712 34.4334C101.131 34.2688 100.535 34.0265 99.9242 33.7067V31.2214C100.447 31.5898 100.951 31.8561 101.436 32.0208C101.92 32.1857 102.424 32.2679 102.947 32.2679C103.471 32.2679 103.916 32.108 104.284 31.7882C104.662 31.4783 104.977 31.0615 105.229 30.5383C105.491 30.0249 105.714 29.4628 105.898 28.8524L106.319 27.4716L100.636 13.49ZM114.646 27.4716L120.009 20.4954L114.646 13.4464H118.032L121.796 18.4025L125.386 13.4464H128.758L123.395 20.4954L128.744 27.4716H125.372L121.593 22.5011L118.032 27.4716H114.646Z" fill="#869597"/>
</g>
<defs>
<clipPath id="clip0_455_2393">
<rect width="130.125" height="34.2912" fill="white" transform="translate(-0.466309 0.625)"/>
</clipPath>
</defs>
</svg>
