<svg width="49" height="49" viewBox="0 0 49 49" fill="none" xmlns="http://www.w3.org/2000/svg">
<g clip-path="url(#clip0_4213_15768)">
<path fill-rule="evenodd" clip-rule="evenodd" d="M22.1842 0.505243L9.56131 5.7338C8.01979 6.3723 6.79515 7.59694 6.15665 9.13845L0.928094 21.7614C0.289594 23.3028 0.289594 25.0348 0.928094 26.5763L6.15665 39.1992C6.79515 40.7406 8.01979 41.9654 9.56131 42.6039L22.1842 47.8324C23.7257 48.4709 25.4576 48.4709 26.9991 47.8324L39.6221 42.6039C41.1635 41.9654 42.3882 40.7406 43.0267 39.1992L48.2553 26.5763C48.8938 25.0348 48.8938 23.3028 48.2553 21.7614L43.0267 9.13845C42.3882 7.59694 41.1635 6.3723 39.6221 5.7338L26.9991 0.505243C25.4576 -0.133258 23.7257 -0.133258 22.1842 0.505243ZM28.0491 32.5812L33.8857 38.4179C28.2716 42.0879 20.9648 42.0975 15.3418 38.4467L21.1863 32.6024C23.3833 33.4884 25.8564 33.4813 28.0491 32.5812ZM10.3424 14.875L16.1792 20.7117C15.2486 22.9787 15.2727 25.5456 16.2515 27.7971L10.4393 33.6092C6.66334 27.9617 6.63099 20.5527 10.3424 14.875ZM38.7783 33.5578L32.9577 27.7371C33.9037 25.5172 33.9262 22.9976 33.0253 20.7635L38.8695 14.9189C42.5409 20.5737 42.5105 27.9313 38.7783 33.5578ZM34.0321 10.0164L28.2199 15.8286C25.9314 14.8338 23.3172 14.8253 21.0231 15.8029L15.2025 9.9824C20.8924 6.20787 28.3528 6.21922 34.0321 10.0164Z" fill="#4CD7A4"/>
<mask id="mask0_4213_15768" style="mask-type:alpha" maskUnits="userSpaceOnUse" x="0" y="0" width="49" height="49">
<path d="M22.1842 0.505243C23.7257 -0.133258 25.4576 -0.133258 26.9991 0.505243L39.6221 5.7338C41.1635 6.3723 42.3882 7.59694 43.0267 9.13845L48.2553 21.7614C48.8938 23.3028 48.8938 25.0348 48.2553 26.5762L43.0267 39.1992C42.3882 40.7406 41.1635 41.9654 39.6221 42.6039L26.9991 47.8324C25.4576 48.4709 23.7257 48.4709 22.1842 47.8324L9.56131 42.6039C8.01979 41.9654 6.79515 40.7406 6.15665 39.1992L0.928094 26.5762C0.289594 25.0348 0.289594 23.3028 0.928094 21.7614L6.15665 9.13845C6.79515 7.59694 8.01979 6.3723 9.56131 5.7338L22.1842 0.505243ZM28.0491 32.5812C25.8564 33.4813 23.3833 33.4884 21.1863 32.6024L15.3418 38.4467C20.9648 42.0975 28.2716 42.0879 33.8857 38.4179L28.0491 32.5812ZM10.3424 14.875C6.63099 20.5527 6.66334 27.9616 10.4393 33.6092L16.2514 27.7971C15.2727 25.5456 15.2486 22.9787 16.1791 20.7117L10.3424 14.875ZM38.8695 14.9189L33.0253 20.7635C33.9261 22.9976 33.9037 25.5172 32.9577 27.7371L38.7783 33.5578C42.5105 27.9313 42.5409 20.5737 38.8695 14.9189ZM34.032 10.0164C28.3528 6.21922 20.8924 6.20787 15.2025 9.9824L21.0231 15.8029C23.3172 14.8252 25.9314 14.8338 28.2199 15.8286L34.032 10.0164Z" fill="white"/>
</mask>
<g mask="url(#mask0_4213_15768)">
<path fill-rule="evenodd" clip-rule="evenodd" d="M0.214844 48.7038H49.1254V-0.206787H0.214844V48.7038Z" fill="#56F5CA"/>
</g>
</g>
<defs>
<clipPath id="clip0_4213_15768">
<rect width="48.2849" height="48.2849" fill="white" transform="translate(0.449219 0.0263672)"/>
</clipPath>
</defs>
</svg>
