<svg xmlns="http://www.w3.org/2000/svg" xmlns:xlink="http://www.w3.org/1999/xlink" version="1.1" id="Capa_1" x="0px" y="0px" viewBox="0 0 512.096 512.096" style="enable-background:new 0 0 512.096 512.096;" xml:space="preserve" width="300" height="300" xmlns:svgjs="http://svgjs.dev/svgjs"><g width="100%" height="100%" transform="matrix(1,0,0,1,0,0)"><g>
	<path style="stroke-linecap: round; stroke-linejoin: round; stroke-miterlimit: 10;" d="&#10;&#9;&#9;M56.919,124.308c4.378-30.025,30.232-53.082,61.471-53.082c1.716,0,3.417,0.07,5.098,0.206&#10;&#9;&#9;c6.488-20.385,25.573-35.151,48.107-35.151c7.904,0,15.383,1.817,22.044,5.056C207.992,20.875,231.759,7.5,258.651,7.5&#10;&#9;&#9;c26.564,0,50.079,13.052,64.483,33.092" fill="none" fill-opacity="1" stroke="#009dc9" stroke-opacity="1" data-original-stroke-color="#000000ff" stroke-width="15" data-original-stroke-width="15"/>
	<path style="stroke-linecap: round; stroke-linejoin: round; stroke-miterlimit: 10;" d="&#10;&#9;&#9;M394.211,141.166c0,29.994-24.315,54.309-54.309,54.309H118.39c-25.733,0-47.811-15.645-57.242-37.943" fill="none" fill-opacity="1" stroke="#009dc9" stroke-opacity="1" data-original-stroke-color="#000000ff" stroke-width="15" data-original-stroke-width="15"/>
	<path style="stroke-linecap: round; stroke-linejoin: round; stroke-miterlimit: 10;" d="&#10;&#9;&#9;M121.677,90.253c-0.172-1.676-0.26-3.376-0.26-5.097c0-4.897,0.712-9.629,2.038-14.095" fill="none" fill-opacity="1" stroke="#009dc9" stroke-opacity="1" data-original-stroke-color="#000000ff" stroke-width="15" data-original-stroke-width="15"/>
	<path style="stroke-linecap: round; stroke-linejoin: round; stroke-miterlimit: 10;" d="&#10;&#9;&#9;M193.677,41.283c9.583,4.994,17.325,13.036,21.94,22.84" fill="none" fill-opacity="1" stroke="#009dc9" stroke-opacity="1" data-original-stroke-color="#000000ff" stroke-width="15" data-original-stroke-width="15"/>
	
		<line style="stroke-linecap: round; stroke-linejoin: round; stroke-miterlimit: 10;" x1="225.238" y1="199.665" x2="225.238" y2="224.936" fill="none" fill-opacity="1" stroke="#009dc9" stroke-opacity="1" data-original-stroke-color="#000000ff" stroke-width="15" data-original-stroke-width="15"/>
	<g>
		<g>
			<path style="stroke-linecap: round; stroke-linejoin: round; stroke-miterlimit: 10;" d="&#10;&#9;&#9;&#9;&#9;M115.708,380.147H45.865c-3.866,0-7-3.134-7-7v-48.125c0-3.866,3.134-7,7-7h141.311c3.866,0,7,3.134,7,7v48.125&#10;&#9;&#9;&#9;&#9;c0,3.866-3.134,7-7,7h-38.781" fill="none" fill-opacity="1" stroke="#009dc9" stroke-opacity="1" data-original-stroke-color="#000000ff" stroke-width="15" data-original-stroke-width="15"/>
			<g>
				<g>
					
						<line style="stroke-linecap: round; stroke-linejoin: round;" x1="69.927" y1="349.085" x2="70.432" y2="349.085" fill="none" fill-opacity="1" stroke="#009dc9" stroke-opacity="1" data-original-stroke-color="#000000ff" stroke-width="15" data-original-stroke-width="15"/>
					
						<line style="stroke-linecap: round; stroke-linejoin: round; stroke-dasharray: 0.9642, 30.0752;" x1="100.507" y1="349.085" x2="116.509" y2="349.085" fill="none" fill-opacity="1" stroke="#009dc9" stroke-opacity="1" data-original-stroke-color="#000000ff" stroke-width="15" data-original-stroke-width="15"/>
					
						<line style="stroke-linecap: round; stroke-linejoin: round;" x1="131.547" y1="349.085" x2="132.052" y2="349.085" fill="none" fill-opacity="1" stroke="#009dc9" stroke-opacity="1" data-original-stroke-color="#000000ff" stroke-width="15" data-original-stroke-width="15"/>
				</g>
			</g>
		</g>
		<g>
			<path style="stroke-linecap: round; stroke-linejoin: round; stroke-miterlimit: 10;" d="&#10;&#9;&#9;&#9;&#9;M45.865,318.123c-3.866,0-7-3.134-7-7v-48.125c0-3.866,3.134-7,7-7h141.311c3.866,0,7,3.134,7,7v48.125c0,3.866-3.134,7-7,7" fill="none" fill-opacity="1" stroke="#009dc9" stroke-opacity="1" data-original-stroke-color="#000000ff" stroke-width="15" data-original-stroke-width="15"/>
			<g>
				<g>
					
						<line style="stroke-linecap: round; stroke-linejoin: round;" x1="69.927" y1="287.06" x2="70.432" y2="287.06" fill="none" fill-opacity="1" stroke="#009dc9" stroke-opacity="1" data-original-stroke-color="#000000ff" stroke-width="15" data-original-stroke-width="15"/>
					
						<line style="stroke-linecap: round; stroke-linejoin: round; stroke-dasharray: 0.9642, 30.0752;" x1="100.507" y1="287.06" x2="116.509" y2="287.06" fill="none" fill-opacity="1" stroke="#009dc9" stroke-opacity="1" data-original-stroke-color="#000000ff" stroke-width="15" data-original-stroke-width="15"/>
					
						<line style="stroke-linecap: round; stroke-linejoin: round;" x1="131.547" y1="287.06" x2="132.052" y2="287.06" fill="none" fill-opacity="1" stroke="#009dc9" stroke-opacity="1" data-original-stroke-color="#000000ff" stroke-width="15" data-original-stroke-width="15"/>
				</g>
			</g>
		</g>
		<g>
			<path style="stroke-linecap: round; stroke-linejoin: round; stroke-miterlimit: 10;" d="&#10;&#9;&#9;&#9;&#9;M187.176,380.247c3.866,0,7,3.134,7,7v48.125c0,3.866-3.134,7-7,7H45.865c-3.866,0-7-3.134-7-7v-48.125c0-3.866,3.134-7,7-7" fill="none" fill-opacity="1" stroke="#009dc9" stroke-opacity="1" data-original-stroke-color="#000000ff" stroke-width="15" data-original-stroke-width="15"/>
			<g>
				<g>
					
						<line style="stroke-linecap: round; stroke-linejoin: round;" x1="69.927" y1="411.309" x2="70.432" y2="411.309" fill="none" fill-opacity="1" stroke="#009dc9" stroke-opacity="1" data-original-stroke-color="#000000ff" stroke-width="15" data-original-stroke-width="15"/>
					
						<line style="stroke-linecap: round; stroke-linejoin: round; stroke-dasharray: 0.9642, 30.0752;" x1="100.507" y1="411.309" x2="116.509" y2="411.309" fill="none" fill-opacity="1" stroke="#009dc9" stroke-opacity="1" data-original-stroke-color="#000000ff" stroke-width="15" data-original-stroke-width="15"/>
					
						<line style="stroke-linecap: round; stroke-linejoin: round;" x1="131.547" y1="411.309" x2="132.052" y2="411.309" fill="none" fill-opacity="1" stroke="#009dc9" stroke-opacity="1" data-original-stroke-color="#000000ff" stroke-width="15" data-original-stroke-width="15"/>
				</g>
			</g>
		</g>
		<g>
			<path style="stroke-linecap: round; stroke-linejoin: round; stroke-miterlimit: 10;" d="&#10;&#9;&#9;&#9;&#9;M187.176,442.471c3.866,0,7,3.134,7,7v48.125c0,3.866-3.134,7-7,7H45.865c-3.866,0-7-3.134-7-7v-48.125c0-3.866,3.134-7,7-7" fill="none" fill-opacity="1" stroke="#009dc9" stroke-opacity="1" data-original-stroke-color="#000000ff" stroke-width="15" data-original-stroke-width="15"/>
			<g>
				<g>
					
						<line style="stroke-linecap: round; stroke-linejoin: round;" x1="69.927" y1="473.534" x2="70.432" y2="473.534" fill="none" fill-opacity="1" stroke="#009dc9" stroke-opacity="1" data-original-stroke-color="#000000ff" stroke-width="15" data-original-stroke-width="15"/>
					
						<line style="stroke-linecap: round; stroke-linejoin: round; stroke-dasharray: 0.9642, 30.0752;" x1="100.507" y1="473.534" x2="116.509" y2="473.534" fill="none" fill-opacity="1" stroke="#009dc9" stroke-opacity="1" data-original-stroke-color="#000000ff" stroke-width="15" data-original-stroke-width="15"/>
					
						<line style="stroke-linecap: round; stroke-linejoin: round;" x1="131.547" y1="473.534" x2="132.052" y2="473.534" fill="none" fill-opacity="1" stroke="#009dc9" stroke-opacity="1" data-original-stroke-color="#000000ff" stroke-width="15" data-original-stroke-width="15"/>
				</g>
			</g>
		</g>
	</g>
	<g>
		<path style="stroke-linecap: round; stroke-linejoin: round; stroke-miterlimit: 10;" d="&#10;&#9;&#9;&#9;M443.867,360.405c0.419-3.682,0.634-7.426,0.634-11.22c0-4.274-0.273-8.485-0.803-12.615l-20.74-7.376&#10;&#9;&#9;&#9;c-1.856-7.138-4.682-13.886-8.329-20.092l9.451-19.882c-5.159-6.684-11.16-12.685-17.844-17.844l-19.882,9.451&#10;&#9;&#9;&#9;c-6.206-3.647-12.954-6.473-20.092-8.329l-7.376-20.74c-4.13-0.53-8.341-0.803-12.615-0.803s-8.485,0.273-12.615,0.803&#10;&#9;&#9;&#9;l-7.376,20.74c-7.138,1.856-13.885,4.682-20.092,8.329l-19.882-9.451c-6.684,5.159-12.685,11.16-17.844,17.844l9.451,19.882&#10;&#9;&#9;&#9;c-3.647,6.207-6.473,12.954-8.329,20.092l-20.74,7.376c-0.53,4.13-0.803,8.341-0.803,12.615s0.273,8.485,0.803,12.615l20.74,7.375&#10;&#9;&#9;&#9;c1.856,7.139,4.682,13.886,8.329,20.092l-9.451,19.882c5.159,6.684,11.16,12.685,17.844,17.844l19.882-9.451&#10;&#9;&#9;&#9;c1.302,0.765,2.628,1.494,3.977,2.186 M331.967,383.502c-13.427-5.604-22.864-18.858-22.864-34.317&#10;&#9;&#9;&#9;c0-20.528,16.641-37.169,37.169-37.169c15.396,0,28.606,9.361,34.248,22.701 M380.52,334.717c0.919,2.174,1.638,4.453,2.132,6.814&#10;&#9;&#9;&#9;" fill="none" fill-opacity="1" stroke="#009dc9" stroke-opacity="1" data-original-stroke-color="#000000ff" stroke-width="15" data-original-stroke-width="15"/>
		<path style="stroke-linecap: round; stroke-linejoin: round; stroke-miterlimit: 10;" d="&#10;&#9;&#9;&#9;M424.968,479.802l16.502,7.844c5.548-4.282,10.529-9.263,14.811-14.811l-7.844-16.502c3.027-5.152,5.373-10.752,6.913-16.677&#10;&#9;&#9;&#9;l17.215-6.122c0.44-3.428,0.666-6.923,0.666-10.471c0-3.548-0.227-7.043-0.666-10.471l-17.215-6.122&#10;&#9;&#9;&#9;c-1.54-5.925-3.886-11.525-6.913-16.677l7.844-16.502c-4.282-5.548-9.263-10.529-14.811-14.811l-16.502,7.844&#10;&#9;&#9;&#9;c-5.152-3.027-10.752-5.373-16.677-6.913l-6.122-17.215c-3.428-0.44-6.923-0.666-10.471-0.666s-7.042,0.227-10.471,0.666&#10;&#9;&#9;&#9;l-6.122,17.215c-5.925,1.54-11.525,3.886-16.677,6.913l-16.502-7.844c-5.548,4.282-10.529,9.263-14.811,14.811l7.844,16.502&#10;&#9;&#9;&#9;c-3.027,5.152-5.373,10.752-6.913,16.677l-17.215,6.122c-0.44,3.428-0.666,6.923-0.666,10.471c0,3.548,0.227,7.042,0.666,10.471&#10;&#9;&#9;&#9;l17.215,6.122c1.54,5.925,3.886,11.525,6.913,16.677l-7.844,16.502c4.282,5.548,9.263,10.529,14.811,14.811l16.502-7.844&#10;&#9;&#9;&#9;c5.152,3.027,10.752,5.373,16.677,6.913l6.122,17.215c3.428,0.44,6.923,0.666,10.471,0.666s7.042-0.227,10.471-0.666l6.122-17.215&#10;&#9;&#9;&#9;C414.217,485.175,419.817,482.829,424.968,479.802 M391.699,453.915c-17.039,0-30.851-13.813-30.851-30.851&#10;&#9;&#9;&#9;c0-17.039,13.813-30.851,30.851-30.851c17.039,0,30.851,13.813,30.851,30.851C422.55,440.103,408.738,453.915,391.699,453.915z" fill="none" fill-opacity="1" stroke="#009dc9" stroke-opacity="1" data-original-stroke-color="#000000ff" stroke-width="15" data-original-stroke-width="15"/>
	</g>
	
		<polyline style="stroke-linecap: round; stroke-linejoin: round; stroke-miterlimit: 10;" points="&#10;&#9;&#9;116.521,255.998 116.521,224.936 333.956,224.936 333.956,251.759 &#9;" fill="none" fill-opacity="1" stroke="#009dc9" stroke-opacity="1" data-original-stroke-color="#000000ff" stroke-width="15" data-original-stroke-width="15"/>
	<g>
		<path style="stroke-linecap: round; stroke-linejoin: round; stroke-miterlimit: 10;" d="&#10;&#9;&#9;&#9;M435.95,37.356c7.013,10.537,11.1,23.19,11.1,36.797c0,36.727-29.773,66.5-66.5,66.5s-66.5-29.773-66.5-66.5&#10;&#9;&#9;&#9;s29.773-66.5,66.5-66.5c11.254,0,21.854,2.795,31.146,7.73" fill="none" fill-opacity="1" stroke="#009dc9" stroke-opacity="1" data-original-stroke-color="#000000ff" stroke-width="15" data-original-stroke-width="15"/>
		<g>
			<g>
				<path style="stroke-linecap: round; stroke-linejoin: round; stroke-miterlimit: 10;" d="&#10;&#9;&#9;&#9;&#9;&#9;M418.231,70.932c-20.933-20.931-54.871-20.93-75.802,0.004" fill="none" fill-opacity="1" stroke="#009dc9" stroke-opacity="1" data-original-stroke-color="#000000ff" stroke-width="15" data-original-stroke-width="15"/>
				<path style="stroke-linecap: round; stroke-linejoin: round; stroke-miterlimit: 10;" d="&#10;&#9;&#9;&#9;&#9;&#9;M394.425,92.078c-7.785-7.784-20.407-7.784-28.191,0.001" fill="none" fill-opacity="1" stroke="#009dc9" stroke-opacity="1" data-original-stroke-color="#000000ff" stroke-width="15" data-original-stroke-width="15"/>
			</g>
		</g>
	</g>
</g></g></svg>