<svg id="Layer_1" enable-background="new 0 0 50 50" height="300" viewBox="0 0 50 50" width="300" xmlns="http://www.w3.org/2000/svg" version="1.1" xmlns:xlink="http://www.w3.org/1999/xlink" xmlns:svgjs="http://svgjs.dev/svgjs"><g width="100%" height="100%" transform="matrix(1,0,0,1,0,0)"><g style="fill:none;stroke:#000;stroke-width:1.5;stroke-linecap:round;stroke-linejoin:round;stroke-miterlimit:10"><path d="m19.3 30.5h-12.6c-2.8 0-5.1-2.3-5.1-5s2-4.8 4.6-5c-.1-.6-.2-1.1-.2-1.7 0-3.5 2.8-6.3 6.3-6.3.4 0 .7 0 1 .1 0-.1 0-.2 0-.3 0-2.9 2.3-5.2 5.2-5.2 1.7 0 3.2.8 4.1 2 1.4-1.8 3.6-3.1 6-3.1 4 0 7.2 3.2 7.2 7.2 1.1-.5 2.3-.7 3.5-.7 5 0 9 4 9 9s-4 9-9 9h-4.2" fill="none" fill-opacity="1" stroke="#009dc9" stroke-opacity="1" data-original-stroke-color="#000000ff" stroke-width="2" data-original-stroke-width="2"/><path d="m15.7 13.6c-1-.6-2.2-1-3.4-1-3.5 0-6.3 2.8-6.3 6.3 0 1.3.4 2.6 1.1 3.6" fill="none" fill-opacity="1" stroke="#009dc9" stroke-opacity="1" data-original-stroke-color="#000000ff" stroke-width="2" data-original-stroke-width="2"/><path d="m35.4 15.6c.3-.8.4-1.6.4-2.4 0-4-3.2-7.2-7.2-7.2-3.5 0-6.4 2.5-7.1 5.8" fill="none" fill-opacity="1" stroke="#009dc9" stroke-opacity="1" data-original-stroke-color="#000000ff" stroke-width="2" data-original-stroke-width="2"/><path d="m12.3 15.6c-1.8 0-3.3 1.4-3.3 3.2" fill="none" fill-opacity="1" stroke="#009dc9" stroke-opacity="1" data-original-stroke-color="#000000ff" stroke-width="2" data-original-stroke-width="2"/><path d="m19.2 10.2c-.2 0-.4-.1-.6-.1-.9 0-1.6.5-2 1.3" fill="none" fill-opacity="1" stroke="#009dc9" stroke-opacity="1" data-original-stroke-color="#000000ff" stroke-width="2" data-original-stroke-width="2"/><path d="m31.8 10.6c-.7-1-1.9-1.6-3.2-1.6-1.4 0-2.7.7-3.4 1.8" fill="none" fill-opacity="1" stroke="#009dc9" stroke-opacity="1" data-original-stroke-color="#000000ff" stroke-width="2" data-original-stroke-width="2"/><path d="m45.4 21.6c0-3.1-2.3-5.6-5.3-6" fill="none" fill-opacity="1" stroke="#009dc9" stroke-opacity="1" data-original-stroke-color="#000000ff" stroke-width="2" data-original-stroke-width="2"/><path d="m39.4 44v-2.3h-6.2c-1.4 0-2.7-.6-3.6-1.5s-1.5-2.2-1.5-3.6v-4.2c0 1.4.6 2.7 1.5 3.6s2.2 1.5 3.6 1.5h6.2v-2.3l5 4.4z" fill="none" fill-opacity="1" stroke="#009dc9" stroke-opacity="1" data-original-stroke-color="#000000ff" stroke-width="2" data-original-stroke-width="2"/><path d="m24.3 25.9v2.3h6.2c1.4 0 2.7.6 3.6 1.5s1.5 2.2 1.5 3.6v4.2c0-1.4-.6-2.7-1.5-3.6s-2.2-1.5-3.6-1.5h-6.2v2.3l-5-4.4z" fill="none" fill-opacity="1" stroke="#009dc9" stroke-opacity="1" data-original-stroke-color="#000000ff" stroke-width="2" data-original-stroke-width="2"/></g></g></svg>