<svg width="600" height="539" viewBox="0 0 600 539" fill="none" xmlns="http://www.w3.org/2000/svg">
<path d="M52.5928 125.491C87.8335 64.4732 195.156 135.731 254.55 111.249C333.13 78.8802 368.818 -34.2809 445.914 10.235C581.274 88.3907 645.635 278.813 563.76 420.623C481.885 562.41 271.241 566.059 135.88 487.903C0.543822 409.771 -29.2825 267.278 52.5928 125.491Z" fill="#F0F3F9"/>
<path d="M54.8511 405.204C62.1644 386.638 56.8599 371.933 38.9374 361.089C15.271 346.305 15.2474 329.732 38.8668 311.37C53.729 295.331 53.831 280.626 39.1728 267.255C35.4534 261.511 35.4063 254.119 39.1022 248.351C42.7746 242.56 49.4602 239.453 56.2635 240.394C63.0433 241.313 68.646 246.115 70.647 252.683C80.9579 257.462 88.491 266.713 91.1041 277.777C97.0834 303.178 73.2836 310.405 87.3375 331.545C97.107 346.281 114.433 340.49 128.11 359.888C132.418 366.032 134.255 372.953 131.147 379.568C124.085 394.681 91.8103 399.272 104.899 427.921C113.986 447.837 112.126 460.737 105.134 467.705C83.2649 451.415 65.0207 433.1 50.4489 413.185C51.6731 410.595 53.109 407.935 54.8511 405.204Z" fill="#D9E1F2"/>
<path fill-rule="evenodd" clip-rule="evenodd" d="M66.4582 358.381C61.4518 353.391 54.0286 343.786 44.1885 329.567C52.7731 339.282 60.11 347.851 66.1992 355.274C64.1119 329.677 63.5626 303.547 64.5514 276.883C65.2576 294.986 66.2463 312.218 67.541 328.579C69.2988 320.277 71.4096 310.931 73.8735 300.541C71.9667 316.573 70.0599 328.249 68.1296 335.57C69.8716 355.988 72.0923 375.033 74.7916 392.704C77.7107 383.947 81.2497 373.926 85.4086 362.642C81.5793 378.477 78.26 389.91 75.4508 396.941C77.3497 408.79 79.4606 420.011 81.7833 430.605C83.7921 420.419 86.4522 408.367 89.7636 394.446C87.3939 414.456 85.0005 427.686 82.5837 434.136C84.0903 440.79 85.6911 447.193 87.386 453.345C85.1889 451.415 83.031 449.453 80.9123 447.46C73.9128 418.536 69.0947 388.843 66.4582 358.381ZM67.4233 433.83C65.1477 430.707 62.7073 427.254 60.1021 423.472C67.7137 432.072 74.3365 439.778 79.9706 446.589C75.592 442.446 71.4018 438.185 67.4233 433.83Z" fill="#C1CDE8"/>
<path d="M7.60596 188.604C11.0665 187.121 15.2803 187.663 18.27 189.946C17.6815 182.248 22.578 174.456 29.7344 171.631C36.9144 168.806 45.7893 171.161 50.6387 177.163C54.1228 165.369 65.5166 156 77.8284 156.047C90.1168 156.118 101.864 166.499 102.311 178.788C105.677 174.386 112.01 173.844 117.542 174.033C123.05 174.244 128.936 174.951 133.15 178.529C139.105 183.59 139.694 192.465 139.364 200.304C146.168 197.126 154.925 197.338 160.528 202.329C166.154 207.319 166.86 217.442 160.951 222.08C156.008 225.964 148.922 224.999 142.801 223.492C137.646 232.131 129.218 238.982 119.402 241.336C109.609 243.667 98.568 241.124 91.4351 234.015C86.0442 241.618 76.2983 245.879 67.0703 244.679C57.8422 243.478 49.5323 236.863 46.2601 228.153C40.3749 232.202 32.0414 232.414 25.9679 228.624C19.8708 224.857 16.3632 217.324 17.3754 210.238C13.3264 213.11 7.34701 212.804 3.60401 209.532C-2.86974 203.835 -0.0683739 191.877 7.60596 188.604Z" fill="white"/>
<path d="M29.7344 171.631C22.578 174.456 17.6815 182.248 18.27 189.946C15.2803 187.663 11.0665 187.121 7.60596 188.604C-0.0683739 191.876 -2.86974 203.835 3.60401 209.532C7.34701 212.804 13.3264 213.11 17.3754 210.238C16.3632 217.324 19.8708 224.857 25.9679 228.624C32.0414 232.414 40.3749 232.202 46.2601 228.153C49.5323 236.863 57.8422 243.478 67.0703 244.679C76.2983 245.879 86.0442 241.618 91.4351 234.015C98.568 241.124 109.609 243.666 119.402 241.336C129.218 238.982 137.646 232.131 142.801 223.492C148.922 224.998 156.008 225.964 160.951 222.079C166.86 217.442 166.154 207.319 160.528 202.329C154.925 197.338 146.168 197.126 139.364 200.304C139.623 193.948 139.294 186.909 135.974 181.754C136.28 188.863 134.939 195.996 132.067 202.493C130.772 205.436 129.077 208.355 126.393 210.121C124.11 211.604 121.356 212.145 118.672 212.545C113.422 213.275 108.078 213.581 102.758 213.44C99.7215 213.346 96.1903 212.828 94.6366 210.191C100.381 202.07 101.157 190.699 96.567 181.872C92.7769 191.829 83.8078 200.186 73.1909 201.269C62.5739 202.352 51.2272 194.678 50.0502 184.084C48.4965 190.087 49.7912 196.773 53.5107 201.764C48.2611 203.035 42.6348 202.658 37.5971 200.681C32.9124 198.844 28.5809 195.337 27.192 190.487C25.7324 185.497 27.7334 179.965 31.2881 176.175C33.6186 173.656 36.3729 172.173 39.2449 170.713C36.0669 170.172 32.7476 170.454 29.7344 171.631Z" fill="#F6F9FC"/>
<path d="M160.527 202.328C166.153 207.319 166.86 217.442 160.951 222.079C156.007 225.963 148.921 224.998 142.801 223.492C137.645 232.131 129.218 238.982 119.401 241.336C109.608 243.666 98.5675 241.124 91.4346 234.014C86.0437 241.618 76.2978 245.879 67.0698 244.679C57.8417 243.478 49.5318 236.863 46.2596 228.153C40.3744 232.202 32.0409 232.414 25.9674 228.624C19.8703 224.857 16.3627 217.324 17.3749 210.238C13.3259 213.11 7.34652 212.804 3.60352 209.532C8.78251 209.697 14.5029 207.931 19.0699 205.506C18.6932 202.776 19.3995 199.904 20.9532 197.644C20.1528 205.248 22.4833 213.298 27.8506 218.76C33.218 224.198 41.6691 226.67 48.9197 224.245C48.2371 220.737 48.19 217.112 48.802 213.605C51.9094 224.433 60.9021 233.661 71.9427 236.015C82.9834 238.346 95.4601 233.096 100.663 223.092C100.757 226.999 99.6974 230.907 97.6729 234.25C103.511 237.193 110.597 237.145 116.718 234.885C122.838 232.626 128.064 228.247 132.09 223.092C135.644 218.501 138.399 212.992 138.281 207.178C141.271 209.603 143.177 213.322 143.389 217.159C143.436 217.983 143.436 218.878 143.954 219.513C144.284 219.89 144.755 220.102 145.226 220.29C149.745 221.891 155.019 219.584 157.796 215.7C160.574 211.792 161.257 207.06 160.527 202.328Z" fill="#EBF4F8"/>
<path d="M365.567 58.7057C369.028 57.2226 373.265 57.764 376.231 60.0475C375.666 52.3496 380.539 44.5576 387.719 41.7327C394.876 38.9078 403.774 41.2619 408.6 47.2648C412.084 35.4708 423.478 26.1015 435.79 26.1486C448.102 26.2192 459.825 36.6008 460.296 48.9127C463.639 44.487 469.971 43.9455 475.527 44.1339C481.035 44.3457 486.897 45.0519 491.111 48.6302C497.09 53.6915 497.655 62.5899 497.326 70.4055C504.129 67.2275 512.886 67.4393 518.512 72.43C524.115 77.4207 524.821 87.5433 518.913 92.1808C513.969 96.0886 506.883 95.0999 500.786 93.5933C495.607 102.233 487.18 109.083 477.386 111.437C467.593 113.768 456.529 111.225 449.396 104.116C444.006 111.72 434.283 115.981 425.055 114.78C415.827 113.579 407.494 106.964 404.245 98.2544C398.336 102.303 390.026 102.515 383.929 98.7252C377.856 94.9586 374.324 87.4256 375.337 80.3398C371.311 83.2117 365.308 82.9057 361.589 79.6335C355.092 73.9602 357.893 61.9779 365.567 58.7057Z" fill="white"/>
<path d="M387.719 41.7325C380.539 44.5574 375.666 52.3495 376.231 60.0474C373.265 57.7639 369.028 57.2225 365.567 58.7055C357.893 61.9777 355.092 73.96 361.589 79.6334C365.308 82.9056 371.311 83.2116 375.337 80.3396C374.324 87.4254 377.856 94.9585 383.929 98.725C390.026 102.515 398.336 102.303 404.245 98.2542C407.494 106.964 415.827 113.579 425.055 114.78C434.283 115.981 444.006 111.72 449.396 104.116C456.529 111.225 467.593 113.768 477.386 111.437C487.18 109.083 495.607 102.233 500.786 93.5931C506.883 95.0998 513.969 96.0885 518.913 92.1807C524.821 87.5431 524.115 77.4205 518.512 72.4299C512.886 67.4392 504.129 67.2273 497.326 70.4054C497.608 64.0493 497.279 57.0106 493.936 51.8551C494.242 58.9645 492.9 66.1209 490.052 72.5947C488.733 75.5373 487.038 78.4563 484.355 80.2219C482.095 81.7285 479.34 82.2464 476.657 82.6466C471.384 83.3999 466.04 83.706 460.72 83.5412C457.683 83.447 454.152 82.9291 452.621 80.3161C458.342 72.1709 459.119 60.8007 454.552 51.9728C450.738 61.9306 441.769 70.2876 431.152 71.3705C420.559 72.477 409.189 64.7791 408.011 54.1857C406.458 60.1886 407.776 66.8978 411.496 71.8649C406.246 73.1596 400.596 72.7594 395.558 70.782C390.874 68.9458 386.542 65.4382 385.153 60.6123C383.717 55.5981 385.718 50.0896 389.249 46.2759C391.58 43.7571 394.334 42.274 397.206 40.8144C394.028 40.273 390.709 40.5555 387.719 41.7325Z" fill="#F6F9FC"/>
<path d="M518.512 72.43C524.115 77.4207 524.821 87.5433 518.913 92.1808C513.969 96.0886 506.883 95.0999 500.786 93.5933C495.607 102.233 487.18 109.083 477.387 111.437C467.593 113.768 456.529 111.225 449.396 104.116C444.006 111.72 434.283 115.981 425.055 114.78C415.827 113.579 407.494 106.964 404.245 98.2544C398.336 102.303 390.026 102.515 383.929 98.7252C377.856 94.9586 374.324 87.4255 375.337 80.3397C371.311 83.2117 365.308 82.9057 361.589 79.6335C366.744 79.7983 372.465 78.0327 377.032 75.608C376.679 72.8773 377.361 70.0053 378.938 67.7454C378.115 75.3491 380.445 83.4001 385.812 88.8615C391.18 94.323 399.631 96.7713 406.882 94.3466C406.199 90.839 406.175 87.2137 406.787 83.7061C409.871 94.5584 418.887 103.763 429.905 106.117C440.945 108.448 453.445 103.198 458.648 93.1931C458.719 97.1009 457.683 101.009 455.635 104.351C461.473 107.294 468.559 107.271 474.679 104.987C480.823 102.727 486.026 98.3485 490.052 93.1931C493.606 88.6261 496.36 83.094 496.243 77.2794C499.256 79.7041 501.163 83.4236 501.375 87.2843C501.398 88.0847 501.398 89.0028 501.94 89.6149C502.246 89.9915 502.74 90.2269 503.187 90.3917C507.707 91.9925 512.98 89.709 515.758 85.8012C518.536 81.8934 519.219 77.1617 518.512 72.43Z" fill="#EBF4F8"/>
<path fill-rule="evenodd" clip-rule="evenodd" d="M359.071 268.267L360.107 270.056C361.355 272.198 362.579 272.104 363.097 271.939C364.603 271.468 365.969 271.162 367.522 270.739C368.087 270.597 369.053 270.197 369.053 267.655V265.748C369.053 263.912 370.559 262.405 372.395 262.405H377.81C379.646 262.405 381.153 263.912 381.153 265.748V267.655C381.153 270.197 382.118 270.597 382.683 270.739C384.237 271.162 385.602 271.468 387.109 271.939C387.626 272.104 388.851 272.198 390.098 270.056L391.134 268.267C392.052 266.689 394.1 266.148 395.677 267.066L400.386 269.797C401.963 270.715 402.504 272.763 401.586 274.364L400.55 276.129C399.326 278.248 399.844 279.19 400.221 279.543C401.28 280.461 402.245 281.473 403.21 282.485C403.493 282.791 404.411 283.804 406.812 282.415L408.437 281.473C410.014 280.555 412.062 281.096 413.003 282.674L415.734 287.382C416.652 288.959 416.111 291.007 414.51 291.925L412.886 292.867C410.649 294.162 410.72 294.844 411.003 295.786C411.379 297.081 411.803 298.399 412.085 299.741C412.344 300.941 412.227 301.812 415.287 301.812H417.147C418.983 301.812 420.466 303.296 420.466 305.132V310.57C420.466 312.406 418.983 313.912 417.147 313.912H415.287C412.227 313.912 412.344 314.76 412.085 315.961C411.803 317.302 411.379 318.621 411.003 319.915C410.72 320.857 410.649 321.54 412.886 322.834L414.51 323.776C416.111 324.694 416.652 326.742 415.734 328.343L413.003 333.028C412.062 334.605 410.014 335.146 408.437 334.228L406.812 333.287C404.411 331.898 403.493 332.91 403.21 333.216C402.245 334.228 401.28 335.241 400.221 336.182C399.844 336.512 399.326 337.453 400.55 339.572L401.586 341.361C402.504 342.938 401.963 344.986 400.386 345.905L395.677 348.635C394.1 349.553 392.052 349.012 391.134 347.435L390.098 345.646C388.851 343.527 387.626 343.598 387.109 343.762C385.602 344.233 384.237 344.563 382.683 344.963C382.118 345.104 381.153 345.504 381.153 348.047V349.954C381.153 351.79 379.646 353.296 377.81 353.296H372.395C370.559 353.296 369.053 351.79 369.053 349.954V348.047C369.053 345.504 368.087 345.104 367.522 344.963C365.969 344.563 364.603 344.233 363.097 343.762C362.579 343.598 361.355 343.527 360.107 345.646L359.071 347.435C358.153 349.012 356.105 349.553 354.528 348.635L349.82 345.905C348.243 344.986 347.701 342.938 348.619 341.361L349.655 339.572C350.879 337.453 350.361 336.512 349.961 336.182C348.925 335.241 347.96 334.228 346.971 333.216C346.689 332.91 345.794 331.898 343.393 333.287L341.769 334.228C340.168 335.146 338.12 334.605 337.202 333.028L334.471 328.343C333.553 326.742 334.094 324.694 335.695 323.776L337.296 322.834C339.556 321.54 339.485 320.857 339.203 319.915C338.826 318.621 338.402 317.302 338.12 315.961C337.861 314.76 337.979 313.912 334.918 313.912H333.059C331.222 313.912 329.716 312.406 329.716 310.57V305.132C329.716 303.296 331.222 301.812 333.059 301.812H334.918C337.979 301.812 337.861 300.941 338.12 299.741C338.402 298.399 338.826 297.081 339.203 295.786C339.485 294.844 339.556 294.162 337.296 292.867L335.695 291.925C334.094 291.007 333.553 288.959 334.471 287.382L337.202 282.674C338.12 281.096 340.168 280.555 341.769 281.473L343.393 282.415C345.794 283.804 346.689 282.791 346.971 282.485C347.96 281.473 348.925 280.461 349.961 279.543C350.361 279.19 350.879 278.248 349.655 276.129L348.619 274.364C347.701 272.763 348.243 270.715 349.82 269.797L354.528 267.066C356.105 266.148 358.153 266.689 359.071 268.267ZM348.454 307.862C348.454 322.576 360.39 334.511 375.103 334.511C389.816 334.511 401.751 322.576 401.751 307.862C401.751 293.126 389.816 281.191 375.103 281.191C360.39 281.191 348.454 293.126 348.454 307.862ZM352.598 307.862C352.598 307.015 353.304 306.309 354.151 306.309C354.999 306.309 355.681 307.015 355.681 307.862C355.681 313.206 357.847 318.079 361.378 321.587C364.886 325.094 369.735 327.284 375.103 327.284C375.95 327.284 376.633 327.966 376.633 328.814C376.633 329.661 375.95 330.344 375.103 330.344C368.888 330.344 363.262 327.825 359.189 323.753C355.116 319.68 352.598 314.054 352.598 307.862ZM397.302 304.237C397.419 305.061 396.854 305.838 396.031 305.979C395.183 306.12 394.406 305.532 394.288 304.708C393.606 300.635 391.675 296.987 388.898 294.185C386.12 291.384 382.495 289.406 378.445 288.7C377.598 288.582 377.033 287.782 377.174 286.935C377.316 286.111 378.116 285.546 378.963 285.687C383.648 286.511 387.862 288.771 391.087 292.019C394.288 295.268 396.525 299.505 397.302 304.237ZM375.103 300.683C379.058 300.683 382.283 303.884 382.283 307.862C382.283 311.817 379.058 315.019 375.103 315.019C371.148 315.019 367.923 311.817 367.923 307.862C367.923 303.884 371.148 300.683 375.103 300.683Z" fill="#D0D9EE"/>
<path fill-rule="evenodd" clip-rule="evenodd" d="M256.293 298.823L258.058 301.859C260.177 305.485 262.248 305.343 263.143 305.061C265.685 304.237 268.039 303.719 270.676 303.036C271.641 302.778 273.266 302.095 273.266 297.763V294.515C273.266 291.384 275.831 288.841 278.939 288.841H288.19C291.321 288.841 293.864 291.384 293.864 294.515V297.763C293.864 302.095 295.512 302.778 296.477 303.036C299.09 303.719 301.444 304.237 304.01 305.061C304.881 305.343 306.953 305.485 309.071 301.859L310.837 298.823C312.39 296.115 315.898 295.197 318.582 296.775L326.586 301.412C329.269 302.989 330.187 306.473 328.634 309.181L326.868 312.194C324.773 315.796 325.691 317.396 326.327 317.985C328.116 319.586 329.764 321.304 331.412 323.023C331.906 323.541 333.436 325.259 337.509 322.905L340.31 321.281C342.994 319.703 346.478 320.622 348.055 323.329L352.693 331.309C354.27 334.016 353.352 337.5 350.644 339.078L347.89 340.678C344.077 342.891 344.171 344.021 344.665 345.645C345.324 347.858 346.03 350.071 346.525 352.378C346.949 354.426 346.76 355.886 351.939 355.886H355.117C358.248 355.886 360.791 358.428 360.791 361.559V370.787C360.791 373.918 358.248 376.461 355.117 376.461H351.939C346.76 376.461 346.949 377.92 346.525 379.968C346.03 382.275 345.324 384.488 344.665 386.701C344.171 388.325 344.077 389.455 347.89 391.668L350.644 393.269C353.352 394.846 354.27 398.33 352.693 401.037L348.055 409.018C346.478 411.725 342.994 412.643 340.31 411.066L337.509 409.465C333.436 407.087 331.906 408.829 331.412 409.324C329.764 411.042 328.116 412.784 326.327 414.361C325.691 414.95 324.773 416.574 326.868 420.152L328.634 423.189C330.187 425.873 329.269 429.357 326.586 430.934L318.582 435.572C315.898 437.149 312.39 436.231 310.837 433.524L309.071 430.51C306.953 426.862 304.881 427.003 304.01 427.285C301.444 428.109 299.09 428.627 296.477 429.31C295.512 429.569 293.864 430.251 293.864 434.583V437.832C293.864 440.963 291.321 443.505 288.19 443.505H278.939C275.831 443.505 273.266 440.963 273.266 437.832V434.583C273.266 430.251 271.641 429.569 270.676 429.31C268.039 428.627 265.685 428.109 263.143 427.285C262.248 427.003 260.177 426.862 258.058 430.51L256.293 433.524C254.739 436.231 251.255 437.149 248.548 435.572L240.567 430.934C237.86 429.357 236.942 425.873 238.519 423.189L240.261 420.152C242.356 416.574 241.438 414.95 240.803 414.361C239.014 412.784 237.366 411.042 235.718 409.324C235.223 408.829 233.693 407.087 229.621 409.465L226.843 411.066C224.136 412.643 220.652 411.725 219.098 409.018L214.437 401.037C212.86 398.33 213.801 394.846 216.485 393.269L219.239 391.668C223.053 389.455 222.959 388.325 222.488 386.701C221.805 384.488 221.099 382.275 220.628 379.968C220.181 377.92 220.393 376.461 215.19 376.461H212.012C208.905 376.461 206.362 373.918 206.362 370.787V361.559C206.362 358.428 208.905 355.886 212.012 355.886H215.19C220.393 355.886 220.181 354.426 220.628 352.378C221.099 350.071 221.805 347.858 222.488 345.645C222.959 344.021 223.053 342.891 219.239 340.678L216.485 339.078C213.801 337.5 212.86 334.016 214.437 331.309L219.098 323.329C220.652 320.622 224.136 319.703 226.843 321.281L229.621 322.905C233.693 325.259 235.223 323.541 235.718 323.023C237.366 321.304 239.014 319.586 240.803 317.985C241.438 317.396 242.356 315.796 240.261 312.194L238.519 309.181C236.942 306.473 237.86 302.989 240.567 301.412L248.548 296.775C251.255 295.197 254.739 296.115 256.293 298.823ZM238.213 366.173C238.213 391.221 258.529 411.536 283.576 411.536C308.624 411.536 328.916 391.221 328.916 366.173C328.916 341.126 308.624 320.81 283.576 320.81C258.529 320.81 238.213 341.126 238.213 366.173ZM245.299 366.173C245.299 364.737 246.452 363.56 247.912 363.56C249.348 363.56 250.525 364.737 250.525 366.173C250.525 375.307 254.221 383.57 260.2 389.549C266.18 395.529 274.443 399.225 283.576 399.225C285.012 399.225 286.189 400.402 286.189 401.838C286.189 403.274 285.012 404.451 283.576 404.451C273.007 404.451 263.425 400.166 256.504 393.245C249.583 386.324 245.299 376.743 245.299 366.173ZM321.336 360.005C321.571 361.441 320.606 362.76 319.17 362.995C317.758 363.207 316.416 362.242 316.204 360.829C315.074 353.908 311.802 347.694 307.07 342.915C302.339 338.136 296.147 334.793 289.25 333.593C287.814 333.357 286.872 332.015 287.108 330.603C287.343 329.167 288.708 328.225 290.121 328.461C298.125 329.85 305.281 333.71 310.766 339.242C316.228 344.774 320.041 351.978 321.336 360.005ZM283.576 353.955C290.309 353.955 295.771 359.44 295.771 366.173C295.771 372.929 290.309 378.391 283.576 378.391C276.82 378.391 271.359 372.929 271.359 366.173C271.359 359.44 276.82 353.955 283.576 353.955Z" fill="#D0D9EE"/>
<path d="M536.335 458.171C441.536 562.316 258.058 558.432 135.881 487.903C117.119 477.051 100.357 464.974 85.668 451.838C107.655 455.299 128.442 457.841 138.282 454.404C164.883 445.129 193.909 454.828 223.053 454.287C241.344 453.934 253.091 476.509 294.664 460.431C301.326 457.841 353.705 464.503 367.005 457.724C374.468 466.198 379.529 457.465 393.865 457.465C413.475 457.465 422.868 458.453 447.162 458.783C476.376 459.183 506.085 453.227 536.335 458.171Z" fill="#DCE6F2"/>
<path d="M172.958 300.353V135.167H413.287V140.863H178.631V300.353H172.958Z" fill="white"/>
<path d="M275.007 314.76L268.345 311.135L240.237 351.484L248.171 358.287L275.007 314.76Z" fill="#818FC2"/>
<path d="M267.191 312.783L241.037 350.33L243.391 352.355L267.662 313.042L267.191 312.783Z" fill="#9AA4CE"/>
<path d="M247.652 295.833C247.652 295.833 255.562 287.429 256.527 284.722C258.34 279.707 255.28 271.915 255.28 271.915C255.28 271.915 255.892 270.032 257.775 271.751C259.635 273.493 260.929 279.401 260.929 279.401C260.929 279.401 267.78 275.023 274.724 272.433C277.173 271.539 277.926 271.327 278.891 271.774C279.48 272.033 280.798 273.375 278.773 274.317C273.406 276.812 270.205 279.472 270.205 279.472C270.205 279.472 271.499 279.119 272.229 280.908C272.794 282.273 271.664 283.592 271.664 283.592C271.664 283.592 272.723 283.78 273.147 284.722C273.736 286.063 272.841 286.934 272.841 286.934C272.841 286.934 274.089 288.418 273.147 289.618C272.464 290.466 268.721 293.055 265.567 294.585C262.389 296.115 259.305 295.174 259.305 295.174L253.726 300.941L247.652 295.833Z" fill="#F4AE7C"/>
<path d="M182.915 252.612C178.419 263.464 167.872 269.373 159.35 265.818C150.829 262.287 147.556 250.634 152.053 239.829C156.549 229 167.095 223.092 175.617 226.623C184.139 230.154 187.411 241.807 182.915 252.612Z" fill="#0F3970"/>
<path d="M149.44 455.228C149.471 455.338 149.542 455.566 149.652 455.911C151.135 460.243 159.798 482.63 168.249 504.405C185.41 512.08 203.396 518.577 221.875 523.779C218.98 507.16 214.06 486.585 206.385 455.111C204.832 448.731 201.912 432.323 200.429 420.129L149.44 420.859C150.546 424.814 148.239 450.191 149.44 455.228Z" fill="#09378C"/>
<path d="M149.652 455.911C151.135 460.243 159.798 482.63 168.25 504.406C173.923 506.948 179.714 509.349 185.552 511.633C186.353 506.359 186.776 500.686 186.776 494.777C186.776 466.222 176.748 443.034 164.412 443.034C158.763 443.034 153.584 447.907 149.652 455.911Z" fill="#1D3676"/>
<path d="M130.513 420.859H182.138C181.409 432.629 180.184 451.015 178.984 464.669C178.537 469.73 178.089 474.132 177.666 477.333C176.653 485.055 175.641 495.389 174.652 507.207C161.21 501.463 148.239 495.036 135.88 487.903C132.867 486.161 129.925 484.372 127.006 482.583C126.488 473.849 126.252 466.104 126.582 461.232C127.1 453.675 128.371 432.323 130.513 420.859Z" fill="#09378C"/>
<path d="M170.862 287.217C170.862 287.217 213.754 306.944 221.146 304.378C228.537 301.812 252.808 289.336 252.808 289.336L259.988 296.539C259.988 296.539 241.603 315.513 229.62 322.081C217.638 328.649 195.463 330.626 195.463 330.626L170.862 287.217Z" fill="#8D9FCA"/>
<path d="M164.6 283.498L180.607 313.866L184.445 314.148L186.163 318.997L202.194 367.327C202.194 367.327 211.069 305.909 164.6 283.498Z" fill="#818FC2"/>
<path d="M191.295 310.358C191.295 310.358 212.153 387.36 213.871 449.626C213.871 449.626 199.182 454.758 176.112 450.709C152.947 446.613 191.295 310.358 191.295 310.358Z" fill="#8D9FCA"/>
<path d="M178.937 295.809C165.66 300.023 142.66 288.7 142.66 288.7C142.66 288.7 154.925 279.496 154.266 260.38L164.553 268.667L171.545 274.293C171.545 274.293 171.498 277.589 170.744 283.403C170.603 284.463 170.438 285.616 170.25 286.84C170.085 287.805 170.509 288.794 171.357 289.312C176.206 292.302 178.937 295.809 178.937 295.809Z" fill="#F6B788"/>
<path d="M198.452 440.586C198.052 440.916 197.581 441.127 197.04 441.127C192.049 441.057 177.501 443.835 165.189 442.563C154.807 441.575 145.603 438.491 135.739 434.065C134.445 433.477 131.431 431.876 131.502 430.416C131.525 428.792 130.749 405.157 130.96 402.238C131.643 392.045 132.867 374.53 131.667 354.309C131.478 350.566 131.361 346.823 131.337 343.15C131.243 315.749 136.657 291.666 147.58 283.498C147.58 283.498 155.184 287.782 160.457 289.453C165.613 291.125 168.273 290.772 170.956 289.006C170.956 289.006 176.159 291.596 178.395 294.02C183.551 299.647 187.576 307.109 190.236 317.82C192.496 326.931 194.615 340.231 195.368 357.275C195.698 364.996 198.782 440.327 198.452 440.586Z" fill="white"/>
<path d="M116.177 445.247C149.723 466.269 177.101 455.605 177.101 455.605C181.997 417.233 184.963 357.651 184.328 346.352C182.703 296.751 147.58 283.498 147.58 283.498L132.961 328.767L130.796 348.894L126.888 385.288L116.177 445.247Z" fill="#8D9FCA"/>
<path d="M171.545 274.293C171.545 274.293 171.498 277.589 170.744 283.404C162.999 282.085 154.219 269.585 154.219 269.585C158.174 268.455 161.611 268.243 164.553 268.667L171.545 274.293Z" fill="#F3A26A"/>
<path d="M179.408 277.66C179.408 277.66 152.618 282.109 150.099 265.371C147.58 248.634 142.425 237.946 159.445 234.391C176.441 230.837 180.749 236.722 182.939 242.113C185.128 247.504 186.329 276.059 179.408 277.66Z" fill="#F6B788"/>
<path d="M238.189 349.106C238.189 349.106 242.873 345.74 244.71 345.646C257.21 344.986 258.811 350.73 266.061 336.135C266.061 336.135 268.604 329.897 263.731 329.685C258.834 329.449 258.646 333.922 251.819 332.957C243.956 331.827 243.862 331.921 239.625 337.03L233.881 340.325L238.189 349.106Z" fill="#F6B788"/>
<path d="M147.58 283.498L163.588 313.865L171.804 310.899L169.12 318.997L185.175 367.327C185.175 367.327 194.05 305.908 147.58 283.498Z" fill="#818FC2"/>
<path d="M141.884 232.673C141.154 229.848 142.096 226.717 143.909 224.575C145.745 222.409 148.381 221.185 151.065 220.738C153.749 220.29 156.503 220.596 159.163 221.138C161.753 221.656 164.318 222.385 166.932 222.244C170.133 222.056 173.24 220.408 175.359 217.819C177.36 215.347 181.668 215.723 184.258 217.442C186.871 219.16 189.437 222.174 189.954 225.422C190.472 228.506 190.19 233.685 185.34 236.534C179.597 239.876 166.131 240.63 163.706 240.583C161.258 240.512 162.059 242.607 160.458 244.561C166.06 266.76 152.383 272.033 152.995 271.916C152.054 271.939 142.002 259.933 139.601 255.531C137.6 251.647 136.423 247.48 135.481 243.125C135.034 240.983 134.728 238.77 134.987 236.581C135.104 235.757 135.293 234.909 135.74 234.227C136.399 233.191 137.576 232.649 138.73 232.508C139.907 232.39 140.754 232.343 141.884 232.673Z" fill="#0F3970"/>
<path d="M157.868 250.964C155.937 252.071 156.078 255.908 158.15 259.533C160.245 263.158 163.517 265.206 165.448 264.076C167.355 262.97 167.237 259.133 165.142 255.508C163.047 251.882 159.774 249.858 157.868 250.964Z" fill="#F6B788"/>
<path d="M147.863 248.54C151.347 241.713 162.459 237.287 161.352 236.463C160.246 235.663 150.735 238.134 148.993 242.066C147.793 243.737 146.757 247.739 147.863 248.54Z" fill="#0F3970"/>
<path d="M239.955 335.311C239.955 335.311 199.982 345.128 196.804 343.032C194.756 341.667 181.503 323.753 172.369 311.229C167.002 303.884 156.29 281.873 147.368 283.662C126.017 299.741 129.689 321.21 146.521 336.135C161.163 349.13 181.291 358.664 184.916 360.971C198.358 369.516 238.684 349.2 238.684 349.2C239.79 343.833 239.484 340.843 239.955 335.311Z" fill="#8D9FCA"/>
<path d="M173.9 255.625C173.405 255.837 172.393 255.319 171.734 254.213C171.381 253.648 171.192 252.988 171.216 252.447C171.216 252.259 171.263 251.788 171.569 251.623L171.593 251.6C172.087 251.364 173.099 251.882 173.782 252.988C174.111 253.577 174.3 254.236 174.3 254.778C174.276 254.966 174.229 255.413 173.947 255.601L173.9 255.625Z" fill="#0F3970"/>
<path d="M179.196 258.403C179.973 258.121 180.938 258.309 181.668 258.874C182.398 259.415 182.845 260.381 182.845 261.299C182.845 262.217 182.421 263.182 181.692 263.747C180.985 264.312 180.02 264.524 179.243 264.241C180.02 263.982 180.609 263.559 181.009 263.041C181.409 262.523 181.574 261.934 181.574 261.299C181.574 260.687 181.386 260.098 180.985 259.58C180.562 259.062 179.973 258.639 179.196 258.403Z" fill="#F3A26A"/>
<path d="M170.015 244.632C169.168 244.561 168.297 244.679 167.473 244.961C166.602 245.244 165.801 245.715 165.166 246.327C164.648 246.798 164.624 247.598 165.095 248.116C165.33 248.351 165.66 248.516 166.013 248.516C166.154 248.516 166.288 248.493 166.413 248.445C166.586 248.383 166.735 248.289 166.861 248.163C167.261 247.81 167.755 247.504 168.273 247.339C168.791 247.151 169.332 247.08 169.827 247.127C169.999 247.143 170.172 247.119 170.345 247.057C170.816 246.915 171.145 246.468 171.192 245.974C171.239 245.291 170.721 244.679 170.015 244.632Z" fill="#0F3970"/>
<path d="M172.227 252.259C171.427 252.4 171.639 253.624 172.439 253.483C173.24 253.342 173.004 252.118 172.227 252.259Z" fill="white"/>
<path d="M183.056 268.243C183.103 269.302 182.844 270.291 182.373 271.092C181.62 272.41 180.348 273.281 178.889 273.328C177.359 273.375 176.017 272.551 175.193 271.233C174.699 270.479 174.416 269.538 174.393 268.526C174.377 268.494 174.377 268.455 174.393 268.408L183.056 268.149C183.056 268.18 183.056 268.212 183.056 268.243Z" fill="#F19252"/>
<path d="M182.703 268.149C181.761 269.208 180.349 269.914 178.772 269.962C177.194 270.009 175.735 269.397 174.723 268.408L182.703 268.149Z" fill="#F4AA78"/>
<path d="M182.374 271.091C181.621 272.41 180.35 273.281 178.89 273.328C177.36 273.375 176.018 272.551 175.194 271.233C176.654 270.856 178.184 270.691 179.691 270.762C180.601 270.793 181.495 270.903 182.374 271.091Z" fill="#F3A26A"/>
<path d="M182.961 253.695C182.444 253.789 181.573 253.059 181.196 251.835C180.984 251.176 180.96 250.493 181.102 249.975C181.149 249.787 181.314 249.363 181.62 249.245H181.69C182.208 249.128 183.079 249.881 183.456 251.105C183.668 251.764 183.691 252.447 183.55 252.965C183.503 253.153 183.338 253.577 183.032 253.671L182.961 253.695Z" fill="#0F3970"/>
<path d="M181.785 242.089C180.984 241.83 180.09 241.736 179.219 241.83C178.301 241.901 177.43 242.183 176.653 242.607C176.041 242.96 175.829 243.713 176.159 244.325C176.347 244.631 176.629 244.843 176.983 244.938C177.1 244.961 177.241 244.961 177.383 244.961C177.555 244.945 177.72 244.89 177.877 244.796C178.348 244.537 178.889 244.373 179.454 244.325C179.996 244.278 180.514 244.325 181.008 244.49C181.181 244.537 181.345 244.553 181.502 244.537C182.02 244.49 182.444 244.161 182.585 243.69C182.821 243.007 182.444 242.301 181.785 242.089Z" fill="#0F3970"/>
<path d="M182.115 250.023C181.315 249.975 181.244 251.223 182.045 251.27C182.845 251.317 182.939 250.07 182.115 250.023Z" fill="white"/>
<path d="M534.899 319.351H306.176V363.278H534.899V319.351Z" fill="#D4DCEF"/>
<path d="M534.899 319.35H457.496V363.278H534.899V319.35Z" fill="#E9EFF8"/>
<path d="M384.024 334.699C380.352 334.699 377.386 337.665 377.386 341.314C377.386 344.963 380.352 347.929 384.024 347.929C387.673 347.929 390.639 344.963 390.639 341.314C390.639 337.665 387.673 334.699 384.024 334.699ZM445.207 334.699C441.558 334.699 438.592 337.665 438.592 341.314C438.592 344.963 441.558 347.929 445.207 347.929C448.879 347.929 451.822 344.963 451.822 341.314C451.822 337.665 448.879 334.699 445.207 334.699ZM424.821 334.699C421.148 334.699 418.182 337.665 418.182 341.314C418.182 344.963 421.148 347.929 424.821 347.929C428.469 347.929 431.436 344.963 431.436 341.314C431.436 337.665 428.469 334.699 424.821 334.699ZM404.411 334.699C400.762 334.699 397.796 337.665 397.796 341.314C397.796 344.963 400.762 347.929 404.411 347.929C408.083 347.929 411.049 344.963 411.049 341.314C411.049 337.665 408.083 334.699 404.411 334.699Z" fill="white"/>
<path fill-rule="evenodd" clip-rule="evenodd" d="M536.546 317.703V364.926H304.527V317.703H536.546ZM307.823 361.63H533.251V320.998H307.823V361.63Z" fill="#BCC9E7"/>
<path d="M527.06 327.189H465.359V330.156H527.06V327.189ZM527.06 352.025H465.359V354.991H527.06V352.025ZM527.06 343.739H465.359V346.705H527.06V343.739ZM527.06 335.452H465.359V338.418H527.06V335.452Z" fill="white"/>
<path d="M363.261 334.699C359.612 334.699 356.646 337.665 356.646 341.314C356.646 344.963 359.612 347.929 363.261 347.929C366.933 347.929 369.899 344.963 369.899 341.314C369.899 337.665 366.933 334.699 363.261 334.699ZM342.875 334.699C339.202 334.699 336.26 337.665 336.26 341.314C336.26 344.963 339.202 347.929 342.875 347.929C346.523 347.929 349.49 344.963 349.49 341.314C349.49 337.665 346.523 334.699 342.875 334.699ZM322.465 334.699C318.816 334.699 315.85 337.665 315.85 341.314C315.85 344.963 318.816 347.929 322.465 347.929C326.137 347.929 329.103 344.963 329.103 341.314C329.103 337.665 326.137 334.699 322.465 334.699Z" fill="white"/>
<path d="M534.899 368.786H306.176V412.713H534.899V368.786Z" fill="#D4DCEF"/>
<path d="M534.899 368.786H457.496V412.714H534.899V368.786Z" fill="#E9EFF8"/>
<path d="M384.024 384.135C380.352 384.135 377.386 387.101 377.386 390.75C377.386 394.422 380.352 397.389 384.024 397.389C387.673 397.389 390.639 394.422 390.639 390.75C390.639 387.101 387.673 384.135 384.024 384.135ZM445.207 384.135C441.558 384.135 438.592 387.101 438.592 390.75C438.592 394.422 441.558 397.389 445.207 397.389C448.879 397.389 451.822 394.422 451.822 390.75C451.822 387.101 448.879 384.135 445.207 384.135ZM424.821 384.135C421.148 384.135 418.182 387.101 418.182 390.75C418.182 394.422 421.148 397.389 424.821 397.389C428.469 397.389 431.436 394.422 431.436 390.75C431.436 387.101 428.469 384.135 424.821 384.135ZM404.411 384.135C400.762 384.135 397.796 387.101 397.796 390.75C397.796 394.422 400.762 397.389 404.411 397.389C408.083 397.389 411.049 394.422 411.049 390.75C411.049 387.101 408.083 384.135 404.411 384.135Z" fill="white"/>
<path fill-rule="evenodd" clip-rule="evenodd" d="M536.546 367.138V414.361H304.527V367.138H536.546ZM307.823 411.066H533.251V370.434H307.823V411.066Z" fill="#BCC9E7"/>
<path d="M527.06 376.625H465.359V379.592H527.06V376.625ZM527.06 401.461H465.359V404.427H527.06V401.461ZM527.06 393.175H465.359V396.141H527.06V393.175ZM527.06 384.912H465.359V387.878H527.06V384.912Z" fill="white"/>
<path d="M363.261 384.135C359.612 384.135 356.646 387.101 356.646 390.75C356.646 394.422 359.612 397.389 363.261 397.389C366.933 397.389 369.899 394.422 369.899 390.75C369.899 387.101 366.933 384.135 363.261 384.135ZM342.875 384.135C339.202 384.135 336.26 387.101 336.26 390.75C336.26 394.422 339.202 397.389 342.875 397.389C346.523 397.389 349.49 394.422 349.49 390.75C349.49 387.101 346.523 384.135 342.875 384.135ZM322.465 384.135C318.816 384.135 315.85 387.101 315.85 390.75C315.85 394.422 318.816 397.389 322.465 397.389C326.137 397.389 329.103 394.422 329.103 390.75C329.103 387.101 326.137 384.135 322.465 384.135Z" fill="white"/>
<path d="M534.899 418.222H306.176V462.149H534.899V418.222Z" fill="#D4DCEF"/>
<path d="M534.899 418.222H457.496V462.149H534.899V418.222Z" fill="#E9EFF8"/>
<path d="M384.024 433.571C380.352 433.571 377.386 436.537 377.386 440.186C377.386 443.858 380.352 446.825 384.024 446.825C387.673 446.825 390.639 443.858 390.639 440.186C390.639 436.537 387.673 433.571 384.024 433.571ZM445.207 433.571C441.558 433.571 438.592 436.537 438.592 440.186C438.592 443.858 441.558 446.825 445.207 446.825C448.879 446.825 451.822 443.858 451.822 440.186C451.822 436.537 448.879 433.571 445.207 433.571ZM424.821 433.571C421.148 433.571 418.182 436.537 418.182 440.186C418.182 443.858 421.148 446.825 424.821 446.825C428.469 446.825 431.436 443.858 431.436 440.186C431.436 436.537 428.469 433.571 424.821 433.571ZM404.411 433.571C400.762 433.571 397.796 436.537 397.796 440.186C397.796 443.858 400.762 446.825 404.411 446.825C408.083 446.825 411.049 443.858 411.049 440.186C411.049 436.537 408.083 433.571 404.411 433.571Z" fill="white"/>
<path fill-rule="evenodd" clip-rule="evenodd" d="M536.546 416.574V463.797H304.527V416.574H536.546ZM307.823 460.501H533.251V419.87H307.823V460.501Z" fill="#BCC9E7"/>
<path d="M527.06 426.061H465.359V429.027H527.06V426.061ZM527.06 450.92H465.359V453.863H527.06V450.92ZM527.06 442.657H465.359V445.6H527.06V442.657ZM527.06 434.395H465.359V437.361H527.06V434.395Z" fill="white"/>
<path d="M363.261 433.571C359.612 433.571 356.646 436.537 356.646 440.186C356.646 443.858 359.612 446.825 363.261 446.825C366.933 446.825 369.899 443.858 369.899 440.186C369.899 436.537 366.933 433.571 363.261 433.571ZM342.875 433.571C339.202 433.571 336.26 436.537 336.26 440.186C336.26 443.858 339.202 446.825 342.875 446.825C346.523 446.825 349.49 443.858 349.49 440.186C349.49 436.537 346.523 433.571 342.875 433.571ZM322.465 433.571C318.816 433.571 315.85 436.537 315.85 440.186C315.85 443.858 318.816 446.825 322.465 446.825C326.137 446.825 329.103 443.858 329.103 440.186C329.103 436.537 326.137 433.571 322.465 433.571Z" fill="white"/>
<path d="M389.604 262.994C421.054 266.713 530.402 246.397 546.198 278.13C545.044 273.234 536.993 250.282 531.72 250.282C531.469 250.282 531.218 250.289 530.967 250.305C528.424 244.067 522.304 239.665 515.124 239.665C511.993 239.665 509.074 240.512 506.555 241.995C503.471 231.849 494.055 224.457 482.896 224.457C480.613 224.457 478.424 224.763 476.328 225.328C470.938 213.417 458.932 205.13 444.996 205.13C428.47 205.13 414.675 216.806 411.379 232.343C411.097 232.343 410.814 232.32 410.532 232.32C399.938 232.32 391.205 240.253 389.91 250.47C386.897 251.035 384.307 252.777 382.683 255.202C378.657 261.275 384.284 262.382 389.604 262.994Z" fill="#D4DCEF"/>
<path d="M466.113 262.993C434.639 266.713 325.291 246.397 309.495 278.13C310.649 273.234 318.7 250.281 323.973 250.281C324.224 250.281 324.475 250.289 324.726 250.305C327.268 244.067 333.413 239.664 340.569 239.664C343.7 239.664 346.619 240.512 349.138 241.995C352.222 231.849 361.662 224.457 372.797 224.457C375.08 224.457 377.269 224.763 379.365 225.328C384.755 213.416 396.761 205.13 410.697 205.13C427.223 205.13 441.042 216.806 444.337 232.343C444.62 232.343 444.879 232.32 445.161 232.32C455.755 232.32 464.488 240.253 465.783 250.47C468.796 251.035 471.386 252.777 473.01 255.201C477.036 261.275 471.409 262.381 466.089 262.993H466.113Z" fill="#E0E6F4"/>
<path d="M419.549 176.951V223.539H402.223V176.951H389.558L400.222 158.472L410.886 139.992L421.55 158.472L432.214 176.951H419.549Z" fill="#E0E6F4"/>
<path d="M464.629 278.931V232.343H447.326V278.931H434.638L445.302 297.41L455.966 315.89L466.653 297.41L477.317 278.931H464.629Z" fill="#D4DCEF"/>
<path d="M148.451 172.738H209.563V107.506H148.451V172.738Z" fill="#D4DCEF"/>
<path d="M157.56 98.6785L203.771 99.0316L203.229 162.215L157.019 161.862L157.56 98.6785Z" fill="#DEE1EA"/>
<path d="M197.91 112.826H194.449C194.261 112.826 194.073 112.638 194.073 112.45C194.073 112.238 194.261 112.073 194.449 112.073H197.91C198.122 112.073 198.286 112.238 198.286 112.426C198.286 112.638 198.122 112.826 197.91 112.826ZM198.569 150.303H195.108C194.897 150.303 194.732 150.115 194.732 149.927C194.732 149.715 194.897 149.55 195.108 149.55H198.569C198.781 149.55 198.946 149.715 198.946 149.927C198.946 150.115 198.781 150.303 198.569 150.303ZM183.95 154.588H181.714L181.69 154.611H174.369H174.345H172.368C172.156 154.611 171.991 154.423 171.991 154.235C171.991 154.023 172.156 153.858 172.368 153.858H174.345H174.369H181.69L183.95 153.835C184.162 153.835 184.327 154.023 184.327 154.211C184.327 154.423 184.162 154.611 183.95 154.588ZM194.802 154.588L185.48 154.611C185.292 154.588 185.104 154.423 185.104 154.211C185.104 154.023 185.292 153.835 185.48 153.835H194.802C195.014 153.835 195.203 154.023 195.203 154.211C195.203 154.423 195.014 154.588 194.802 154.588ZM198.569 152.446H185.433H181.949H181.926H180.325H180.301H174.369H168.837C168.625 152.446 168.46 152.281 168.46 152.069C168.46 151.857 168.625 151.692 168.837 151.692H174.369H180.301H181.949H185.433H185.457H198.569C198.781 151.692 198.946 151.857 198.946 152.069C198.946 152.281 198.781 152.446 198.569 152.446ZM193.508 150.303H185.457H185.433H181.996H181.973H180.419H180.395H174.369H161.233C161.045 150.303 160.856 150.139 160.856 149.927C160.856 149.715 161.045 149.55 161.257 149.55H174.369H180.395H180.419H181.973H181.996H185.433H185.457H193.508C193.72 149.55 193.884 149.715 193.884 149.927C193.884 150.115 193.72 150.303 193.508 150.303ZM198.663 137.803H195.203C194.991 137.803 194.826 137.638 194.826 137.427C194.826 137.215 194.991 137.05 195.203 137.05H198.663C198.875 137.05 199.04 137.215 199.04 137.427C199.04 137.638 198.875 137.803 198.663 137.803ZM184.044 142.111H181.714H181.69H174.463H172.368C172.156 142.111 171.991 141.946 171.991 141.735C171.991 141.523 172.156 141.358 172.368 141.358H174.463H181.69H181.714H184.044C184.256 141.358 184.421 141.523 184.421 141.735C184.421 141.946 184.256 142.111 184.044 142.111ZM194.92 142.111H185.574C185.386 142.111 185.198 141.946 185.198 141.735C185.198 141.523 185.386 141.358 185.574 141.358H194.92C195.108 141.358 195.273 141.523 195.273 141.735C195.273 141.946 195.108 142.111 194.92 142.111ZM198.663 139.945H185.457H185.433H182.043H180.419H180.395H174.463H174.44H168.837C168.625 139.945 168.46 139.781 168.46 139.569C168.46 139.38 168.625 139.192 168.837 139.192H174.463H180.395H182.02H182.043H185.433H185.457H198.663C198.875 139.192 199.04 139.357 199.04 139.569C199.04 139.781 198.875 139.945 198.663 139.945ZM193.602 137.803H185.457H185.433H181.996H181.973H180.395H174.463H161.233C161.045 137.803 160.856 137.638 160.856 137.427C160.856 137.215 161.045 137.05 161.233 137.05H174.44H174.463H180.395H181.973H181.996H185.433H185.457H193.602C193.814 137.05 193.979 137.215 193.979 137.427C193.979 137.638 193.814 137.803 193.602 137.803ZM198.239 125.303H194.779C194.567 125.303 194.402 125.138 194.402 124.926C194.402 124.714 194.567 124.55 194.779 124.55H198.239C198.428 124.55 198.616 124.714 198.616 124.926C198.616 125.138 198.428 125.303 198.239 125.303ZM183.597 129.611H181.714H181.69H174.039H174.016H172.368C172.156 129.611 171.991 129.446 171.991 129.234C171.991 129.022 172.156 128.858 172.368 128.858H174.016H174.039H181.69H181.714H183.597C183.809 128.858 183.997 129.022 183.997 129.234C183.997 129.446 183.809 129.611 183.597 129.611ZM194.473 129.611H185.151C184.939 129.611 184.774 129.446 184.774 129.234C184.774 129.022 184.939 128.858 185.151 128.858H194.473C194.685 128.858 194.85 129.022 194.85 129.234C194.85 129.446 194.685 129.611 194.473 129.611ZM198.239 127.469H185.457H185.433H181.62H181.596H179.972H174.039H174.016H168.837C168.625 127.469 168.46 127.304 168.46 127.092C168.46 126.88 168.625 126.715 168.837 126.715H174.016H174.039H179.972H179.995H181.62H185.433H185.457H198.239C198.428 126.715 198.616 126.88 198.616 127.092C198.616 127.28 198.428 127.469 198.239 127.469ZM193.178 125.303H185.457H185.433H181.996H181.973H180.395H174.039H174.016H161.233C161.045 125.303 160.856 125.138 160.856 124.926C160.856 124.738 161.045 124.55 161.233 124.55H180.395H180.419H181.973H181.996H185.433H185.457H193.178C193.39 124.55 193.555 124.714 193.555 124.926C193.555 125.138 193.39 125.303 193.178 125.303ZM185.433 112.826H181.973H180.395H173.71H173.686H161.233C161.021 112.826 160.856 112.662 160.856 112.45C160.856 112.238 161.021 112.073 161.233 112.073H173.71H180.395H181.973H185.433H185.457H192.849C193.06 112.073 193.249 112.238 193.249 112.426C193.249 112.638 193.06 112.826 192.849 112.826H185.457H185.433ZM183.291 117.111H181.69H173.733H173.71H172.368C172.156 117.111 171.991 116.946 171.991 116.734C171.991 116.546 172.156 116.357 172.368 116.357H173.71H173.733H181.69H183.291C183.503 116.357 183.668 116.546 183.668 116.734C183.668 116.946 183.503 117.111 183.291 117.111ZM194.167 117.111H184.845C184.633 117.111 184.468 116.946 184.468 116.734C184.468 116.546 184.633 116.357 184.845 116.357H194.167C194.379 116.357 194.543 116.546 194.543 116.734C194.543 116.946 194.379 117.111 194.167 117.111ZM197.91 114.969H185.433H181.313H181.29H179.666H179.642H173.733H173.71H168.837C168.625 114.969 168.46 114.804 168.46 114.592C168.46 114.38 168.625 114.215 168.837 114.215H173.71H173.733H179.642H179.666H181.29H181.313H185.433H185.457H197.91C198.122 114.215 198.286 114.38 198.286 114.592C198.286 114.804 198.122 114.969 197.91 114.969ZM170.814 154.611H161.257C161.045 154.611 160.88 154.423 160.88 154.235C160.88 154.023 161.045 153.858 161.257 153.858H170.814C171.026 153.858 171.214 154.023 171.214 154.235C171.214 154.423 171.026 154.611 170.814 154.611ZM167.189 152.446H161.257C161.045 152.446 160.88 152.281 160.88 152.069C160.88 151.857 161.045 151.692 161.257 151.692H167.189C167.377 151.692 167.566 151.857 167.566 152.069C167.566 152.281 167.377 152.446 167.189 152.446ZM170.814 142.111H161.257C161.045 142.111 160.88 141.946 160.88 141.735C160.88 141.523 161.045 141.358 161.257 141.358H170.814C171.026 141.358 171.191 141.523 171.191 141.735C171.191 141.946 171.026 142.111 170.814 142.111ZM167.189 139.969H161.257C161.045 139.969 160.88 139.781 160.88 139.569C160.88 139.38 161.045 139.192 161.257 139.216L167.189 139.192C167.377 139.192 167.566 139.38 167.566 139.569C167.566 139.781 167.377 139.969 167.189 139.969ZM170.814 129.611H161.257C161.045 129.611 160.88 129.446 160.88 129.234C160.88 129.022 161.045 128.858 161.257 128.858H170.814C171.026 128.858 171.191 129.022 171.191 129.234C171.191 129.446 171.026 129.611 170.814 129.611ZM167.165 127.469H161.257C161.045 127.469 160.88 127.304 160.88 127.092C160.88 126.88 161.045 126.715 161.257 126.715H167.165C167.377 126.715 167.566 126.88 167.566 127.092C167.566 127.304 167.377 127.469 167.165 127.469ZM170.814 117.111H161.257C161.045 117.111 160.88 116.946 160.88 116.758C160.88 116.546 161.045 116.357 161.257 116.381L170.814 116.357C171.026 116.357 171.191 116.546 171.191 116.734C171.191 116.946 171.026 117.111 170.814 117.111ZM167.165 114.969H161.257C161.045 114.969 160.88 114.804 160.88 114.592C160.88 114.38 161.045 114.215 161.257 114.215H167.165C167.377 114.215 167.542 114.38 167.542 114.592C167.542 114.804 167.377 114.969 167.165 114.969Z" fill="#F2F2F3"/>
<path d="M161.562 105.058H199.699V107.129H161.562V105.058Z" fill="#F2F2F3"/>
<path d="M152.076 101.127L198.31 101.48L197.769 164.664L151.534 164.31L152.076 101.127Z" fill="#E9EFF8"/>
<path d="M192.425 115.275H188.988C188.776 115.275 188.612 115.086 188.612 114.898C188.612 114.686 188.776 114.521 188.988 114.521H192.425C192.637 114.521 192.802 114.686 192.802 114.898C192.802 115.086 192.637 115.275 192.425 115.275ZM193.084 152.752H189.648C189.436 152.752 189.271 152.587 189.271 152.375C189.271 152.163 189.436 151.998 189.648 151.998H193.084C193.296 151.998 193.461 152.163 193.461 152.375C193.461 152.563 193.296 152.752 193.084 152.752ZM178.466 157.06H176.229H176.206H168.908H168.884H166.883C166.695 157.06 166.507 156.871 166.507 156.683C166.507 156.471 166.695 156.306 166.883 156.306H168.884H168.908H176.206H178.466C178.677 156.306 178.842 156.471 178.842 156.659C178.842 156.871 178.677 157.06 178.466 157.06ZM189.341 157.036L180.019 157.06C179.807 157.06 179.643 156.871 179.643 156.659C179.643 156.471 179.807 156.306 180.019 156.306L189.341 156.283C189.553 156.283 189.718 156.471 189.718 156.659C189.718 156.871 189.553 157.036 189.341 157.036ZM193.084 154.894H179.972H176.488H176.465H174.84H174.817H168.908H168.884H163.352C163.14 154.894 162.976 154.729 162.976 154.517C162.976 154.305 163.14 154.141 163.352 154.141H168.884H168.908H174.817H174.84H176.465H176.488H179.972H179.996H193.084C193.296 154.141 193.461 154.305 193.461 154.517C193.461 154.729 193.296 154.894 193.084 154.894ZM188.047 152.752H179.996H179.972H176.512H176.488H174.934H174.911H168.908H168.884H155.772C155.56 152.752 155.396 152.587 155.396 152.375C155.396 152.163 155.56 151.998 155.772 151.998H168.884H168.908H174.911H174.934H176.488H176.512H179.972H179.996H188.047C188.259 151.998 188.423 152.163 188.423 152.375C188.423 152.587 188.259 152.752 188.047 152.752ZM193.179 140.251H189.742C189.53 140.251 189.365 140.087 189.365 139.875C189.365 139.663 189.53 139.498 189.742 139.498H193.179C193.391 139.498 193.555 139.663 193.555 139.875C193.555 140.087 193.391 140.251 193.179 140.251ZM178.56 144.559H176.229H176.206H169.002H168.979H166.883C166.672 144.559 166.507 144.395 166.507 144.183C166.507 143.971 166.672 143.806 166.883 143.806H168.979H169.002H176.206H176.229H178.56C178.772 143.806 178.936 143.971 178.936 144.183C178.936 144.395 178.772 144.559 178.56 144.559ZM189.436 144.559H180.113C179.902 144.559 179.737 144.395 179.737 144.183C179.737 143.971 179.902 143.806 180.113 143.806H189.436C189.648 143.806 189.812 143.971 189.812 144.183C189.812 144.395 189.648 144.559 189.436 144.559ZM193.179 142.394H179.996H179.972H176.582H176.559H174.934H169.002H168.979L163.352 142.417C163.14 142.417 162.976 142.229 162.976 142.041C162.976 141.829 163.14 141.64 163.352 141.64H168.979H169.002H174.911H174.934H176.559H176.582H179.972H193.179C193.391 141.64 193.555 141.829 193.555 142.017C193.555 142.229 193.391 142.394 193.179 142.394ZM188.141 140.251H179.972H176.512H176.488H174.911H169.002H168.979H155.772C155.56 140.251 155.396 140.087 155.396 139.875C155.396 139.663 155.56 139.498 155.772 139.498H168.979H169.002H174.911H174.934H176.512H179.972H179.996H188.141C188.353 139.498 188.518 139.663 188.518 139.875C188.518 140.087 188.353 140.251 188.141 140.251ZM192.755 127.751H189.318C189.106 127.751 188.941 127.586 188.941 127.375C188.941 127.163 189.106 126.998 189.318 126.998H192.755C192.967 126.998 193.132 127.163 193.132 127.375C193.132 127.586 192.967 127.751 192.755 127.751ZM178.136 132.059H176.229H176.206H168.555H166.883C166.672 132.059 166.507 131.894 166.507 131.683C166.507 131.471 166.672 131.306 166.883 131.306H168.531H168.555H176.206H176.229H178.136C178.348 131.306 178.513 131.471 178.513 131.683C178.513 131.894 178.348 132.059 178.136 132.059ZM189.012 132.059H179.69C179.478 132.059 179.313 131.894 179.313 131.683C179.313 131.471 179.478 131.306 179.69 131.306H189.012C189.224 131.306 189.389 131.471 189.389 131.683C189.389 131.894 189.224 132.059 189.012 132.059ZM192.755 129.917H179.972H176.159H176.135H174.511H174.487H168.555H163.352C163.14 129.917 162.976 129.752 162.976 129.54C162.976 129.328 163.14 129.164 163.352 129.164H168.555H174.487H174.511H176.135H176.159H179.972H192.755C192.967 129.164 193.132 129.328 193.132 129.54C193.132 129.752 192.967 129.917 192.755 129.917ZM187.717 127.751H179.972H176.512H176.488H174.934H174.911H168.555H155.772C155.56 127.751 155.396 127.586 155.396 127.398C155.396 127.186 155.56 127.021 155.772 127.021L174.911 126.998H174.934H176.488H176.512H179.972H187.717C187.929 126.998 188.094 127.163 188.094 127.375C188.094 127.586 187.929 127.751 187.717 127.751ZM179.972 115.275H176.512H174.911H168.249H168.225H155.772C155.56 115.275 155.396 115.11 155.396 114.898C155.396 114.686 155.56 114.521 155.772 114.521H168.225H168.249H174.911H174.934H176.488H176.512H179.972H179.996H187.388C187.599 114.521 187.764 114.686 187.764 114.898C187.764 115.086 187.599 115.275 187.388 115.275H179.972ZM177.83 119.559H176.229H168.249H168.225H166.883C166.695 119.559 166.507 119.394 166.507 119.182C166.507 118.994 166.695 118.829 166.883 118.829H168.249H176.229L177.83 118.806C178.042 118.806 178.207 118.994 178.207 119.182C178.207 119.394 178.042 119.559 177.83 119.559ZM188.682 119.559H179.36C179.148 119.559 178.983 119.394 178.983 119.182C178.983 118.994 179.148 118.806 179.36 118.806H188.682C188.894 118.806 189.059 118.994 189.059 119.182C189.059 119.394 188.894 119.559 188.682 119.559ZM192.449 117.417H179.972H175.829H175.805H174.181H168.249H163.352C163.164 117.417 162.976 117.252 162.976 117.04C162.976 116.828 163.164 116.663 163.352 116.663H168.249H174.181H174.205H175.805H175.829H179.972H179.996H192.449C192.661 116.663 192.826 116.828 192.826 117.04C192.826 117.252 192.661 117.417 192.449 117.417ZM165.353 157.06H155.772C155.584 157.06 155.396 156.895 155.396 156.683C155.396 156.471 155.584 156.306 155.772 156.306H165.353C165.565 156.306 165.73 156.471 165.73 156.683C165.73 156.871 165.565 157.06 165.353 157.06ZM161.704 154.894H155.772C155.584 154.894 155.396 154.729 155.396 154.517C155.396 154.305 155.584 154.141 155.772 154.141H161.704C161.916 154.141 162.081 154.305 162.081 154.517C162.081 154.729 161.916 154.894 161.704 154.894ZM165.353 144.559H155.772C155.56 144.559 155.396 144.395 155.396 144.183C155.396 143.971 155.56 143.806 155.772 143.806H165.353C165.565 143.806 165.73 143.971 165.73 144.183C165.73 144.395 165.565 144.559 165.353 144.559ZM161.704 142.417H155.772C155.56 142.417 155.396 142.229 155.396 142.041C155.396 141.829 155.56 141.664 155.772 141.664H161.704C161.916 141.64 162.081 141.829 162.081 142.041C162.081 142.229 161.916 142.417 161.704 142.417ZM165.353 132.059H155.772C155.56 132.059 155.396 131.894 155.396 131.683C155.396 131.471 155.56 131.306 155.772 131.306H165.353C165.565 131.306 165.73 131.471 165.73 131.683C165.73 131.894 165.565 132.059 165.353 132.059ZM161.704 129.917H155.772C155.56 129.917 155.396 129.752 155.396 129.54C155.396 129.328 155.56 129.164 155.772 129.164H161.704C161.916 129.164 162.081 129.328 162.081 129.54C162.081 129.752 161.916 129.917 161.704 129.917ZM165.353 119.559L155.772 119.583C155.56 119.583 155.396 119.394 155.396 119.206C155.396 118.994 155.56 118.829 155.772 118.829H165.353C165.565 118.829 165.73 118.994 165.73 119.206C165.73 119.394 165.565 119.559 165.353 119.559ZM161.704 117.417H155.772C155.56 117.417 155.396 117.252 155.396 117.04C155.396 116.828 155.56 116.663 155.772 116.663H161.704C161.916 116.663 162.081 116.828 162.081 117.04C162.081 117.252 161.916 117.417 161.704 117.417Z" fill="white"/>
<path d="M156.078 107.506H194.238V109.578H156.078V107.506Z" fill="white"/>
<path d="M168.226 133.189H209.563V172.738H148.451V152.964C148.451 142.088 157.35 133.189 168.226 133.189Z" fill="#E0E6F4"/>
</svg>
