<svg width="600" height="593" viewBox="0 0 600 593" fill="none" xmlns="http://www.w3.org/2000/svg">
<path d="M273.199 0C343.924 0 335.854 129.043 386.905 168.391C454.471 220.444 570.733 194.655 570.733 284.001C570.733 440.863 437.53 592.362 273.199 592.362C108.869 592.362 0 411.114 0 254.252C0 97.3903 108.869 0 273.199 0Z" fill="#E9EFF8"/>
<path fill-rule="evenodd" clip-rule="evenodd" d="M291.419 24.736C294.852 25.5379 298.286 23.4077 299.088 19.9742C299.89 16.5407 297.76 13.1073 294.326 12.2802C271.194 6.81674 247.41 5.91452 223 9.62367C198.757 13.2994 173.929 21.5113 148.516 34.2595C145.359 35.8384 144.105 39.6728 145.659 42.8306C147.238 45.9633 151.073 47.2415 154.23 45.6626C178.415 33.5327 201.973 25.7134 224.88 22.2298C247.661 18.7963 269.841 19.6233 291.419 24.736ZM258.237 39.6979C258.162 36.1642 255.255 33.3572 251.721 33.4324C227.937 33.9337 204.68 39.0212 181.974 48.6951C159.443 58.3188 137.439 72.5038 116.036 91.1749C113.38 93.5057 113.104 97.5406 115.41 100.197C117.715 102.854 121.75 103.129 124.407 100.824C144.807 83.0047 165.684 69.5465 187.011 60.4491C208.163 51.4018 229.842 46.6651 251.997 46.214C255.505 46.1388 258.312 43.2065 258.237 39.6979Z" fill="white"/>
<path d="M506.4 469.859C451.891 542.263 367.683 592.362 273.2 592.362C185.959 592.362 114.333 541.261 66.3643 469.859H506.4Z" fill="#D0D9EE"/>
<path d="M279.514 548.604C339.738 548.604 388.559 555.045 388.559 562.989C388.559 570.934 339.738 577.4 279.514 577.4C219.266 577.4 170.445 570.934 170.445 562.989C170.445 555.045 219.266 548.604 279.514 548.604Z" fill="#C1CEE9"/>
<path d="M217.462 459.559H243.426V187.162H217.462V459.559Z" fill="#AAB9DE"/>
<path d="M351.241 459.559H377.205V193.854H351.241V459.559Z" fill="#AAB9DE"/>
<path d="M421.04 475.423H184.355V429.961H421.04V475.423Z" fill="#D4DCEF"/>
<path d="M421.039 475.423H340.941V429.961H421.039V475.423Z" fill="#E9EFF8"/>
<path d="M264.903 459.559C261.119 459.559 258.036 456.501 258.036 452.692C258.036 448.908 261.119 445.85 264.903 445.85C268.687 445.85 271.745 448.908 271.745 452.692C271.745 456.501 268.687 459.559 264.903 459.559ZM328.234 459.559C324.425 459.559 321.367 456.501 321.367 452.692C321.367 448.908 324.425 445.85 328.234 445.85C332.019 445.85 335.076 448.908 335.076 452.692C335.076 456.501 332.019 459.559 328.234 459.559ZM307.107 459.559C303.323 459.559 300.265 456.501 300.265 452.692C300.265 448.908 303.323 445.85 307.107 445.85C310.892 445.85 313.974 448.908 313.974 452.692C313.974 456.501 310.892 459.559 307.107 459.559ZM286.005 459.559C282.221 459.559 279.163 456.501 279.163 452.692C279.163 448.908 282.221 445.85 286.005 445.85C289.789 445.85 292.872 448.908 292.872 452.692C292.872 456.501 289.789 459.559 286.005 459.559Z" fill="white"/>
<path fill-rule="evenodd" clip-rule="evenodd" d="M182.651 477.127V428.257H422.744V477.127H182.651ZM186.06 473.719H419.36V431.665H186.06V473.719Z" fill="#BCC9E7"/>
<path d="M412.919 467.328H349.062V464.246H412.919V467.328ZM412.919 441.64H349.062V438.557H412.919V441.64ZM412.919 450.211H349.062V447.154H412.919V450.211ZM412.919 458.782H349.062V455.7H412.919V458.782Z" fill="white"/>
<path d="M243.427 459.559C239.642 459.559 236.585 456.501 236.585 452.692C236.585 448.908 239.642 445.85 243.427 445.85C247.211 445.85 250.293 448.908 250.293 452.692C250.293 456.501 247.211 459.559 243.427 459.559ZM222.324 459.559C218.54 459.559 215.483 456.501 215.483 452.692C215.483 448.908 218.54 445.85 222.324 445.85C226.109 445.85 229.191 448.908 229.191 452.692C229.191 456.501 226.109 459.559 222.324 459.559ZM201.222 459.559C197.438 459.559 194.355 456.501 194.355 452.692C194.355 448.908 197.438 445.85 201.222 445.85C205.007 445.85 208.064 448.908 208.064 452.692C208.064 456.501 205.007 459.559 201.222 459.559Z" fill="white"/>
<path d="M421.04 407.706H184.355V362.244H421.04V407.706Z" fill="#D4DCEF"/>
<path d="M421.039 407.706H340.941V362.244H421.039V407.706Z" fill="#E9EFF8"/>
<path d="M264.903 391.842C261.119 391.842 258.036 388.759 258.036 384.975C258.036 381.191 261.119 378.108 264.903 378.108C268.687 378.108 271.745 381.191 271.745 384.975C271.745 388.759 268.687 391.842 264.903 391.842ZM328.234 391.842C324.425 391.842 321.367 388.759 321.367 384.975C321.367 381.191 324.425 378.108 328.234 378.108C332.019 378.108 335.076 381.191 335.076 384.975C335.076 388.759 332.019 391.842 328.234 391.842ZM307.107 391.842C303.323 391.842 300.265 388.759 300.265 384.975C300.265 381.191 303.323 378.108 307.107 378.108C310.892 378.108 313.974 381.191 313.974 384.975C313.974 388.759 310.892 391.842 307.107 391.842ZM286.005 391.842C282.221 391.842 279.163 388.759 279.163 384.975C279.163 381.191 282.221 378.108 286.005 378.108C289.789 378.108 292.872 381.191 292.872 384.975C292.872 388.759 289.789 391.842 286.005 391.842Z" fill="white"/>
<path fill-rule="evenodd" clip-rule="evenodd" d="M182.651 409.41V360.54H422.744V409.41H182.651ZM186.06 406.002H419.36V363.948H186.06V406.002Z" fill="#BCC9E7"/>
<path d="M412.919 399.586H349.062V396.529H412.919V399.586ZM412.919 373.873H349.062V370.815H412.919V373.873ZM412.919 382.444H349.062V379.361H412.919V382.444ZM412.919 391.015H349.062V387.957H412.919V391.015Z" fill="white"/>
<path d="M243.427 391.842C239.642 391.842 236.585 388.759 236.585 384.975C236.585 381.191 239.642 378.108 243.427 378.108C247.211 378.108 250.293 381.191 250.293 384.975C250.293 388.759 247.211 391.842 243.427 391.842ZM222.324 391.842C218.54 391.842 215.483 388.759 215.483 384.975C215.483 381.191 218.54 378.108 222.324 378.108C226.109 378.108 229.191 381.191 229.191 384.975C229.191 388.759 226.109 391.842 222.324 391.842ZM201.222 391.842C197.438 391.842 194.355 388.759 194.355 384.975C194.355 381.191 197.438 378.108 201.222 378.108C205.007 378.108 208.064 381.191 208.064 384.975C208.064 388.759 205.007 391.842 201.222 391.842Z" fill="white"/>
<path d="M421.04 342.295H184.355V296.833H421.04V342.295Z" fill="#D4DCEF"/>
<path d="M421.039 342.295H340.941V296.833H421.039V342.295Z" fill="#E9EFF8"/>
<path d="M264.903 326.431C261.119 326.431 258.036 323.348 258.036 319.564C258.036 315.779 261.119 312.722 264.903 312.722C268.687 312.722 271.745 315.779 271.745 319.564C271.745 323.348 268.687 326.431 264.903 326.431ZM328.234 326.431C324.425 326.431 321.367 323.348 321.367 319.564C321.367 315.779 324.425 312.722 328.234 312.722C332.019 312.722 335.076 315.779 335.076 319.564C335.076 323.348 332.019 326.431 328.234 326.431ZM307.107 326.431C303.323 326.431 300.265 323.348 300.265 319.564C300.265 315.779 303.323 312.722 307.107 312.722C310.892 312.722 313.974 315.779 313.974 319.564C313.974 323.348 310.892 326.431 307.107 326.431ZM286.005 326.431C282.221 326.431 279.163 323.348 279.163 319.564C279.163 315.779 282.221 312.722 286.005 312.722C289.789 312.722 292.872 315.779 292.872 319.564C292.872 323.348 289.789 326.431 286.005 326.431Z" fill="white"/>
<path fill-rule="evenodd" clip-rule="evenodd" d="M182.651 343.999V295.128H422.744V343.999H182.651ZM186.06 340.591H419.36V298.537H186.06V340.591Z" fill="#BCC9E7"/>
<path d="M412.919 334.2H349.062V331.117H412.919V334.2ZM412.919 308.486H349.062V305.429H412.919V308.486ZM412.919 317.058H349.062V314H412.919V317.058ZM412.919 325.604H349.062V322.546H412.919V325.604Z" fill="white"/>
<path d="M243.427 326.431C239.642 326.431 236.585 323.348 236.585 319.564C236.585 315.779 239.642 312.722 243.427 312.722C247.211 312.722 250.293 315.779 250.293 319.564C250.293 323.348 247.211 326.431 243.427 326.431ZM222.324 326.431C218.54 326.431 215.483 323.348 215.483 319.564C215.483 315.779 218.54 312.722 222.324 312.722C226.109 312.722 229.191 315.779 229.191 319.564C229.191 323.348 226.109 326.431 222.324 326.431ZM201.222 326.431C197.438 326.431 194.355 323.348 194.355 319.564C194.355 315.779 197.438 312.722 201.222 312.722C205.007 312.722 208.064 315.779 208.064 319.564C208.064 323.348 205.007 326.431 201.222 326.431Z" fill="white"/>
<path d="M421.04 273.675H184.355V228.213H421.04V273.675Z" fill="#D4DCEF"/>
<path d="M421.039 273.675H340.941V228.213H421.039V273.675Z" fill="#E9EFF8"/>
<path d="M264.903 257.786C261.119 257.786 258.036 254.729 258.036 250.944C258.036 247.16 261.119 244.077 264.903 244.077C268.687 244.077 271.745 247.16 271.745 250.944C271.745 254.729 268.687 257.786 264.903 257.786ZM328.234 257.786C324.425 257.786 321.367 254.729 321.367 250.944C321.367 247.16 324.425 244.077 328.234 244.077C332.019 244.077 335.076 247.16 335.076 250.944C335.076 254.729 332.019 257.786 328.234 257.786ZM307.107 257.786C303.323 257.786 300.265 254.729 300.265 250.944C300.265 247.16 303.323 244.077 307.107 244.077C310.892 244.077 313.974 247.16 313.974 250.944C313.974 254.729 310.892 257.786 307.107 257.786ZM286.005 257.786C282.221 257.786 279.163 254.729 279.163 250.944C279.163 247.16 282.221 244.077 286.005 244.077C289.789 244.077 292.872 247.16 292.872 250.944C292.872 254.729 289.789 257.786 286.005 257.786Z" fill="white"/>
<path fill-rule="evenodd" clip-rule="evenodd" d="M182.651 275.38V226.509H422.744V275.38H182.651ZM186.06 271.971H419.36V229.917H186.06V271.971Z" fill="#BCC9E7"/>
<path d="M412.919 265.555H349.062V262.498H412.919V265.555ZM412.919 239.842H349.062V236.759H412.919V239.842ZM412.919 248.413H349.062V245.355H412.919V248.413ZM412.919 256.984H349.062V253.927H412.919V256.984Z" fill="white"/>
<path d="M243.427 257.786C239.642 257.786 236.585 254.729 236.585 250.944C236.585 247.16 239.642 244.077 243.427 244.077C247.211 244.077 250.293 247.16 250.293 250.944C250.293 254.729 247.211 257.786 243.427 257.786ZM222.324 257.786C218.54 257.786 215.483 254.729 215.483 250.944C215.483 247.16 218.54 244.077 222.324 244.077C226.109 244.077 229.191 247.16 229.191 250.944C229.191 254.729 226.109 257.786 222.324 257.786ZM201.222 257.786C197.438 257.786 194.355 254.729 194.355 250.944C194.355 247.16 197.438 244.077 201.222 244.077C205.007 244.077 208.064 247.16 208.064 250.944C208.064 254.729 205.007 257.786 201.222 257.786Z" fill="white"/>
<path d="M421.04 205.031H184.355V159.569H421.04V205.031Z" fill="#D4DCEF"/>
<path d="M421.039 205.031H340.941V159.569H421.039V205.031Z" fill="#E9EFF8"/>
<path d="M264.903 189.167C261.119 189.167 258.036 186.084 258.036 182.3C258.036 178.516 261.119 175.458 264.903 175.458C268.687 175.458 271.745 178.516 271.745 182.3C271.745 186.084 268.687 189.167 264.903 189.167ZM328.234 189.167C324.425 189.167 321.367 186.084 321.367 182.3C321.367 178.516 324.425 175.458 328.234 175.458C332.019 175.458 335.076 178.516 335.076 182.3C335.076 186.084 332.019 189.167 328.234 189.167ZM307.107 189.167C303.323 189.167 300.265 186.084 300.265 182.3C300.265 178.516 303.323 175.458 307.107 175.458C310.892 175.458 313.974 178.516 313.974 182.3C313.974 186.084 310.892 189.167 307.107 189.167ZM286.005 189.167C282.221 189.167 279.163 186.084 279.163 182.3C279.163 178.516 282.221 175.458 286.005 175.458C289.789 175.458 292.872 178.516 292.872 182.3C292.872 186.084 289.789 189.167 286.005 189.167Z" fill="white"/>
<path fill-rule="evenodd" clip-rule="evenodd" d="M182.651 206.735V157.865H422.744V206.735H182.651ZM186.06 203.327H419.36V161.273H186.06V203.327Z" fill="#BCC9E7"/>
<path d="M412.919 196.936H349.062V193.853H412.919V196.936ZM412.919 171.223H349.062V168.165H412.919V171.223ZM412.919 179.794H349.062V176.711H412.919V179.794ZM412.919 188.365H349.062V185.307H412.919V188.365Z" fill="white"/>
<path d="M243.427 189.167C239.642 189.167 236.585 186.084 236.585 182.3C236.585 178.516 239.642 175.458 243.427 175.458C247.211 175.458 250.293 178.516 250.293 182.3C250.293 186.084 247.211 189.167 243.427 189.167ZM222.324 189.167C218.54 189.167 215.483 186.084 215.483 182.3C215.483 178.516 218.54 175.458 222.324 175.458C226.109 175.458 229.191 178.516 229.191 182.3C229.191 186.084 226.109 189.167 222.324 189.167ZM201.222 189.167C197.438 189.167 194.355 186.084 194.355 182.3C194.355 178.516 197.438 175.458 201.222 175.458C205.007 175.458 208.064 178.516 208.064 182.3C208.064 186.084 205.007 189.167 201.222 189.167Z" fill="white"/>
<path d="M93.5293 513.191H119.493V240.794H93.5293V513.191Z" fill="#AAB9DE"/>
<path d="M227.285 513.191H253.249V247.486H227.285V513.191Z" fill="#AAB9DE"/>
<path d="M297.107 529.08H60.3975V483.618H297.107V529.08Z" fill="#D4DCEF"/>
<path d="M297.107 529.081H217.01V483.618H297.107V529.081Z" fill="#E9EFF8"/>
<path d="M140.946 513.191C137.162 513.191 134.104 510.134 134.104 506.349C134.104 502.565 137.162 499.482 140.946 499.482C144.731 499.482 147.813 502.565 147.813 506.349C147.813 510.134 144.731 513.191 140.946 513.191ZM204.278 513.191C200.493 513.191 197.411 510.134 197.411 506.349C197.411 502.565 200.493 499.482 204.278 499.482C208.062 499.482 211.145 502.565 211.145 506.349C211.145 510.134 208.062 513.191 204.278 513.191ZM183.176 513.191C179.391 513.191 176.309 510.134 176.309 506.349C176.309 502.565 179.391 499.482 183.176 499.482C186.96 499.482 190.017 502.565 190.017 506.349C190.017 510.134 186.96 513.191 183.176 513.191ZM162.074 513.191C158.264 513.191 155.207 510.134 155.207 506.349C155.207 502.565 158.264 499.482 162.074 499.482C165.858 499.482 168.915 502.565 168.915 506.349C168.915 510.134 165.858 513.191 162.074 513.191Z" fill="white"/>
<path fill-rule="evenodd" clip-rule="evenodd" d="M58.6934 530.785V481.914H298.811V530.785H58.6934ZM62.1018 527.376H295.377V485.322H62.1018V527.376Z" fill="#BCC9E7"/>
<path d="M288.986 520.96H225.129V517.903H288.986V520.96ZM288.986 495.247H225.129V492.164H288.986V495.247ZM288.986 503.818H225.129V500.761H288.986V503.818ZM288.986 512.389H225.129V509.307H288.986V512.389Z" fill="white"/>
<path d="M119.494 513.191C115.71 513.191 112.627 510.134 112.627 506.349C112.627 502.565 115.71 499.482 119.494 499.482C123.278 499.482 126.336 502.565 126.336 506.349C126.336 510.134 123.278 513.191 119.494 513.191ZM98.3919 513.191C94.5825 513.191 91.5249 510.134 91.5249 506.349C91.5249 502.565 94.5825 499.482 98.3919 499.482C102.176 499.482 105.234 502.565 105.234 506.349C105.234 510.134 102.176 513.191 98.3919 513.191ZM77.2647 513.191C73.4804 513.191 70.4229 510.134 70.4229 506.349C70.4229 502.565 73.4804 499.482 77.2647 499.482C81.0491 499.482 84.1317 502.565 84.1317 506.349C84.1317 510.134 81.0491 513.191 77.2647 513.191Z" fill="white"/>
<path d="M297.107 461.338H60.3975V415.876H297.107V461.338Z" fill="#D4DCEF"/>
<path d="M297.107 461.338H217.01V415.876H297.107V461.338Z" fill="#E9EFF8"/>
<path d="M140.946 445.474C137.162 445.474 134.104 442.392 134.104 438.608C134.104 434.823 137.162 431.766 140.946 431.766C144.731 431.766 147.813 434.823 147.813 438.608C147.813 442.392 144.731 445.474 140.946 445.474ZM204.278 445.474C200.493 445.474 197.411 442.392 197.411 438.608C197.411 434.823 200.493 431.766 204.278 431.766C208.062 431.766 211.145 434.823 211.145 438.608C211.145 442.392 208.062 445.474 204.278 445.474ZM183.176 445.474C179.391 445.474 176.309 442.392 176.309 438.608C176.309 434.823 179.391 431.766 183.176 431.766C186.96 431.766 190.017 434.823 190.017 438.608C190.017 442.392 186.96 445.474 183.176 445.474ZM162.074 445.474C158.264 445.474 155.207 442.392 155.207 438.608C155.207 434.823 158.264 431.766 162.074 431.766C165.858 431.766 168.915 434.823 168.915 438.608C168.915 442.392 165.858 445.474 162.074 445.474Z" fill="white"/>
<path fill-rule="evenodd" clip-rule="evenodd" d="M58.6934 463.043V414.172H298.811V463.043H58.6934ZM62.1018 459.634H295.377V417.581H62.1018V459.634Z" fill="#BCC9E7"/>
<path d="M288.986 453.244H225.129V450.161H288.986V453.244ZM288.986 427.53H225.129V424.473H288.986V427.53ZM288.986 436.101H225.129V433.019H288.986V436.101ZM288.986 444.672H225.129V441.615H288.986V444.672Z" fill="white"/>
<path d="M119.494 445.474C115.71 445.474 112.627 442.392 112.627 438.608C112.627 434.823 115.71 431.766 119.494 431.766C123.278 431.766 126.336 434.823 126.336 438.608C126.336 442.392 123.278 445.474 119.494 445.474ZM98.3919 445.474C94.5825 445.474 91.5249 442.392 91.5249 438.608C91.5249 434.823 94.5825 431.766 98.3919 431.766C102.176 431.766 105.234 434.823 105.234 438.608C105.234 442.392 102.176 445.474 98.3919 445.474ZM77.2647 445.474C73.4804 445.474 70.4229 442.392 70.4229 438.608C70.4229 434.823 73.4804 431.766 77.2647 431.766C81.0491 431.766 84.1317 434.823 84.1317 438.608C84.1317 442.392 81.0491 445.474 77.2647 445.474Z" fill="white"/>
<path d="M297.107 395.927H60.3975V350.465H297.107V395.927Z" fill="#D4DCEF"/>
<path d="M297.107 395.927H217.01V350.465H297.107V395.927Z" fill="#E9EFF8"/>
<path d="M140.946 380.063C137.162 380.063 134.104 377.005 134.104 373.196C134.104 369.412 137.162 366.354 140.946 366.354C144.731 366.354 147.813 369.412 147.813 373.196C147.813 377.005 144.731 380.063 140.946 380.063ZM204.278 380.063C200.493 380.063 197.411 377.005 197.411 373.196C197.411 369.412 200.493 366.354 204.278 366.354C208.062 366.354 211.145 369.412 211.145 373.196C211.145 377.005 208.062 380.063 204.278 380.063ZM183.176 380.063C179.391 380.063 176.309 377.005 176.309 373.196C176.309 369.412 179.391 366.354 183.176 366.354C186.96 366.354 190.017 369.412 190.017 373.196C190.017 377.005 186.96 380.063 183.176 380.063ZM162.074 380.063C158.264 380.063 155.207 377.005 155.207 373.196C155.207 369.412 158.264 366.354 162.074 366.354C165.858 366.354 168.915 369.412 168.915 373.196C168.915 377.005 165.858 380.063 162.074 380.063Z" fill="white"/>
<path fill-rule="evenodd" clip-rule="evenodd" d="M58.6934 397.631V348.76H298.811V397.631H58.6934ZM62.1018 394.223H295.377V352.169H62.1018V394.223Z" fill="#BCC9E7"/>
<path d="M288.986 387.832H225.129V384.749H288.986V387.832ZM288.986 362.143H225.129V359.061H288.986V362.143ZM288.986 370.715H225.129V367.657H288.986V370.715ZM288.986 379.286H225.129V376.203H288.986V379.286Z" fill="white"/>
<path d="M119.494 380.063C115.71 380.063 112.627 377.005 112.627 373.196C112.627 369.412 115.71 366.354 119.494 366.354C123.278 366.354 126.336 369.412 126.336 373.196C126.336 377.005 123.278 380.063 119.494 380.063ZM98.3919 380.063C94.5825 380.063 91.5249 377.005 91.5249 373.196C91.5249 369.412 94.5825 366.354 98.3919 366.354C102.176 366.354 105.234 369.412 105.234 373.196C105.234 377.005 102.176 380.063 98.3919 380.063ZM77.2647 380.063C73.4804 380.063 70.4229 377.005 70.4229 373.196C70.4229 369.412 73.4804 366.354 77.2647 366.354C81.0491 366.354 84.1317 369.412 84.1317 373.196C84.1317 377.005 81.0491 380.063 77.2647 380.063Z" fill="white"/>
<path d="M297.107 327.307H60.3975V281.845H297.107V327.307Z" fill="#D4DCEF"/>
<path d="M297.107 327.308H217.01V281.845H297.107V327.308Z" fill="#E9EFF8"/>
<path d="M140.946 311.443C137.162 311.443 134.104 308.361 134.104 304.576C134.104 300.792 137.162 297.709 140.946 297.709C144.731 297.709 147.813 300.792 147.813 304.576C147.813 308.361 144.731 311.443 140.946 311.443ZM204.278 311.443C200.493 311.443 197.411 308.361 197.411 304.576C197.411 300.792 200.493 297.709 204.278 297.709C208.062 297.709 211.145 300.792 211.145 304.576C211.145 308.361 208.062 311.443 204.278 311.443ZM183.176 311.443C179.391 311.443 176.309 308.361 176.309 304.576C176.309 300.792 179.391 297.709 183.176 297.709C186.96 297.709 190.017 300.792 190.017 304.576C190.017 308.361 186.96 311.443 183.176 311.443ZM162.074 311.443C158.264 311.443 155.207 308.361 155.207 304.576C155.207 300.792 158.264 297.709 162.074 297.709C165.858 297.709 168.915 300.792 168.915 304.576C168.915 308.361 165.858 311.443 162.074 311.443Z" fill="white"/>
<path fill-rule="evenodd" clip-rule="evenodd" d="M58.6934 329.012V280.141H298.811V329.012H58.6934ZM62.1018 325.603H295.377V283.55H62.1018V325.603Z" fill="#BCC9E7"/>
<path d="M288.986 319.188H225.129V316.13H288.986V319.188ZM288.986 293.474H225.129V290.417H288.986V293.474ZM288.986 302.045H225.129V298.963H288.986V302.045ZM288.986 310.616H225.129V307.559H288.986V310.616Z" fill="white"/>
<path d="M119.494 311.443C115.71 311.443 112.627 308.361 112.627 304.576C112.627 300.792 115.71 297.709 119.494 297.709C123.278 297.709 126.336 300.792 126.336 304.576C126.336 308.361 123.278 311.443 119.494 311.443ZM98.3919 311.443C94.5825 311.443 91.5249 308.361 91.5249 304.576C91.5249 300.792 94.5825 297.709 98.3919 297.709C102.176 297.709 105.234 300.792 105.234 304.576C105.234 308.361 102.176 311.443 98.3919 311.443ZM77.2647 311.443C73.4804 311.443 70.4229 308.361 70.4229 304.576C70.4229 300.792 73.4804 297.709 77.2647 297.709C81.0491 297.709 84.1317 300.792 84.1317 304.576C84.1317 308.361 81.0491 311.443 77.2647 311.443Z" fill="white"/>
<path d="M297.107 258.663H60.3975V213.201H297.107V258.663Z" fill="#D4DCEF"/>
<path d="M297.107 258.663H217.01V213.201H297.107V258.663Z" fill="#E9EFF8"/>
<path d="M140.946 242.799C137.162 242.799 134.104 239.717 134.104 235.932C134.104 232.148 137.162 229.09 140.946 229.09C144.731 229.09 147.813 232.148 147.813 235.932C147.813 239.717 144.731 242.799 140.946 242.799ZM204.278 242.799C200.493 242.799 197.411 239.717 197.411 235.932C197.411 232.148 200.493 229.09 204.278 229.09C208.062 229.09 211.145 232.148 211.145 235.932C211.145 239.717 208.062 242.799 204.278 242.799ZM183.176 242.799C179.391 242.799 176.309 239.717 176.309 235.932C176.309 232.148 179.391 229.09 183.176 229.09C186.96 229.09 190.017 232.148 190.017 235.932C190.017 239.717 186.96 242.799 183.176 242.799ZM162.074 242.799C158.264 242.799 155.207 239.717 155.207 235.932C155.207 232.148 158.264 229.09 162.074 229.09C165.858 229.09 168.915 232.148 168.915 235.932C168.915 239.717 165.858 242.799 162.074 242.799Z" fill="white"/>
<path fill-rule="evenodd" clip-rule="evenodd" d="M58.6934 260.367V211.497H298.811V260.367H58.6934ZM62.1018 256.959H295.377V214.905H62.1018V256.959Z" fill="#BCC9E7"/>
<path d="M288.986 250.568H225.129V247.486H288.986V250.568ZM288.986 224.88H225.129V221.797H288.986V224.88ZM288.986 233.451H225.129V230.394H288.986V233.451ZM288.986 242.022H225.129V238.94H288.986V242.022Z" fill="white"/>
<path d="M119.494 242.799C115.71 242.799 112.627 239.717 112.627 235.932C112.627 232.148 115.71 229.09 119.494 229.09C123.278 229.09 126.336 232.148 126.336 235.932C126.336 239.717 123.278 242.799 119.494 242.799ZM98.3919 242.799C94.5825 242.799 91.5249 239.717 91.5249 235.932C91.5249 232.148 94.5825 229.09 98.3919 229.09C102.176 229.09 105.234 232.148 105.234 235.932C105.234 239.717 102.176 242.799 98.3919 242.799ZM77.2647 242.799C73.4804 242.799 70.4229 239.717 70.4229 235.932C70.4229 232.148 73.4804 229.09 77.2647 229.09C81.0491 229.09 84.1317 232.148 84.1317 235.932C84.1317 239.717 81.0491 242.799 77.2647 242.799Z" fill="white"/>
<path d="M93.6561 132.928C99.8965 132.928 105.811 134.407 111.024 137.038C116.713 109.169 141.349 88.2178 170.897 88.2178C200.42 88.2178 225.055 109.169 230.744 137.038C235.957 134.407 241.872 132.928 248.112 132.928C269.49 132.928 286.833 150.271 286.833 171.649C286.833 178.14 285.229 184.255 282.422 189.643H59.3715C56.5395 184.255 54.9355 178.14 54.9355 171.649C54.9355 150.271 72.2783 132.928 93.6561 132.928Z" fill="white"/>
<path d="M155.259 100.247C170.898 94.1073 189.343 97.8415 201.272 111.024C213.252 124.257 215.132 143.078 207.388 158.04C218.114 129.194 194.03 97.0646 161.825 107.49L165.66 111.726L143.956 112.478L151.775 96.3879L155.259 100.247Z" fill="#AAB9DE"/>
<path d="M159.945 105.435C175.985 100.498 190.22 106.062 199.317 116.488C190.546 107.165 177.088 102.528 161.825 107.49L159.945 105.435Z" fill="#8D9FCA"/>
<path d="M186.51 177.588C170.897 183.728 152.426 179.994 140.497 166.812C128.517 153.604 126.638 134.758 134.407 119.796C123.655 148.642 147.74 180.796 179.969 170.37L176.11 166.11L197.813 165.358L189.994 181.448L186.51 177.588Z" fill="#AAB9DE"/>
<path d="M181.824 172.425C165.785 177.338 151.55 171.774 142.452 161.348C151.224 170.671 164.682 175.308 179.97 170.37L181.824 172.425Z" fill="#8D9FCA"/>
<path d="M248.113 132.928C269.491 132.928 286.834 150.271 286.834 171.649C286.834 178.14 285.23 184.255 282.423 189.643H286.282C289.114 183.854 290.718 177.288 290.718 170.295C290.718 147.289 273.375 128.643 251.998 128.643C245.732 128.643 239.843 130.246 234.63 133.053C228.941 103.104 204.305 80.5488 174.757 80.5488C152.928 80.5488 133.756 92.8793 122.954 111.4C134.157 97.2651 151.449 88.2178 170.897 88.2178C200.42 88.2178 225.056 109.169 230.745 137.038C235.958 134.407 241.873 132.928 248.113 132.928Z" fill="#D0D9EE"/>
<path d="M580.808 118.492C574.241 215.457 550.884 322.922 444.02 350.715L441.389 351.417L438.732 350.715C331.868 322.922 308.511 215.457 301.945 118.492L301.293 109.144L310.516 107.415C355.076 99.0694 395.926 82.3532 436.978 63.5067L441.389 61.5017L445.775 63.5067C486.826 82.3532 527.677 99.0694 572.237 107.415L581.459 109.144L580.808 118.492Z" fill="#D9E1F2"/>
<path d="M570.308 117.415C526.274 109.169 486.977 93.6812 441.39 72.7295C395.777 93.6812 356.48 109.169 312.446 117.415C321.443 249.867 360.715 319.188 441.39 340.189C522.039 319.188 561.31 249.867 570.308 117.415Z" fill="#BBC5E4"/>
<path d="M549.832 132.727C512.114 123.906 476.802 109.846 441.39 93.8564C405.977 109.846 370.64 123.906 332.922 132.727C338.235 191.648 352.595 264.477 400.99 300.516C413.22 309.614 426.854 315.955 441.39 320.24C455.9 315.955 469.534 309.614 481.764 300.516C530.159 264.477 544.519 191.648 549.832 132.727Z" fill="#D9E1F2"/>
<path d="M549.831 132.727C512.113 123.906 476.801 109.846 441.389 93.8564V320.24C455.899 315.955 469.533 309.614 481.763 300.516C530.158 264.477 544.518 191.648 549.831 132.727Z" fill="#CBD4EB"/>
<path fill-rule="evenodd" clip-rule="evenodd" d="M477.979 182.751V182.926C483.819 183.929 488.33 189.067 488.33 195.207V252.799C488.33 259.666 482.716 265.255 475.874 265.255H406.879C400.037 265.255 394.448 259.666 394.448 252.799V195.207C394.448 189.067 398.934 183.929 404.799 182.926V163.253C404.799 153.178 408.909 144.03 415.525 137.389C422.167 130.773 431.314 126.663 441.389 126.663C451.439 126.663 460.586 130.773 467.228 137.389C473.844 144.03 477.979 153.178 477.979 163.253C477.979 169.752 477.979 176.252 477.979 182.751ZM416.553 182.751H466.225C466.225 176.252 466.225 169.752 466.225 163.253C466.225 156.436 463.418 150.221 458.907 145.71C454.421 141.198 448.206 138.417 441.389 138.417C434.547 138.417 428.357 141.198 423.846 145.71C419.335 150.221 416.553 156.436 416.553 163.253V182.751Z" fill="#AAB9DE"/>
<path d="M441.389 200.47C448.707 200.47 454.647 206.409 454.647 213.753C454.647 219.692 450.712 224.73 445.324 226.409V242.448C445.324 244.629 443.545 246.383 441.389 246.383C439.209 246.383 437.429 244.629 437.429 242.448V226.409C432.041 224.73 428.106 219.692 428.106 213.753C428.106 206.409 434.046 200.47 441.389 200.47Z" fill="white"/>
<path d="M370.464 239.917C370.464 239.917 364.925 243.626 362.369 243.375C359.813 243.1 359.462 235.932 359.462 235.932L362.244 231.947L370.464 239.917Z" fill="#F6BD94"/>
<path d="M361.517 235.03C361.517 235.03 361.617 228.639 361.667 227.662C361.717 226.684 363.496 224.379 365.978 222.449C368.384 220.544 371.466 217.562 371.992 217.637C372.544 217.712 373.045 217.512 374.048 218.464C375.075 219.417 375.426 220.77 375.426 220.77C375.426 220.77 377.23 221.371 377.531 223.076C377.531 223.076 379.185 223.702 379.21 225.682C379.21 225.682 380.839 226.334 380.714 227.787C380.714 227.787 379.085 229.993 378.734 230.97C378.358 231.973 374.649 236.308 370.464 239.917C370.464 239.917 365.351 241.997 361.517 235.03Z" fill="#F6BD94"/>
<path d="M368.284 228.965C368.284 228.965 369.487 231.947 369.412 232.95C369.312 233.952 376.304 232.449 376.304 232.449C376.304 232.449 371.943 227.587 368.284 228.965Z" fill="#ED7D5B"/>
<path d="M371.341 218.214C371.341 218.214 366.203 224.304 367.08 225.256C367.957 226.208 368.86 226.033 368.86 226.033L367.882 229.491C367.882 229.491 368.534 232.173 371.241 230.669C371.241 230.669 371.591 233.226 374.022 231.471C374.022 231.471 375 233.025 376.303 232.449C377.581 231.897 380.714 227.787 380.714 227.787C380.714 227.787 381.115 226.584 379.31 225.632C379.31 225.632 379.411 223.652 377.631 222.95C377.631 222.95 377.055 220.77 375.125 220.018C375.125 220.018 374.273 217.712 371.917 217.612C371.917 217.612 371.566 217.963 371.341 218.214Z" fill="#F6BD94"/>
<path d="M361.793 227.461C361.793 227.461 366.855 225.331 370.113 225.406C370.865 225.406 371.567 225.557 371.818 226.258C372.093 226.935 371.442 228.213 369.286 229.241C367.156 230.268 364.851 232.574 364.851 232.574C364.851 232.574 362.344 232.975 361.793 227.461Z" fill="#F6BD94"/>
<path d="M375.126 220.018C375.126 220.018 368.785 225.933 368.559 226.76C368.309 227.612 366.153 225.306 366.404 224.604C366.655 223.878 371.091 218.188 371.667 217.737C372.243 217.286 375.075 217.788 375.126 220.018Z" fill="#F6BD94"/>
<path d="M370.414 218.665C370.414 218.665 380.865 209.116 382.043 210.244C383.196 211.347 381.742 214.479 373.397 221.522C365.327 228.339 370.414 218.665 370.414 218.665Z" fill="#F6BD94"/>
<path d="M188.741 372.294C188.741 372.294 188.466 376.855 188.842 381.391C189.192 385.927 190.12 387.556 189.042 389.862C188.215 391.616 185.834 392.519 185.433 391.817C185.057 391.115 186.411 383.922 183.453 383.271C180.496 382.644 182.326 392.318 180.722 391.265C179.118 390.213 173.178 384.975 174.431 381.491C175.684 377.983 178.967 376.003 180.02 370.589C180.947 365.702 182.927 364.023 182.927 364.023L188.741 372.294Z" fill="#F6BD94"/>
<path d="M260.744 223.802C258.789 231.647 252.198 236.759 246.033 235.23C239.842 233.702 236.434 226.108 238.364 218.263C240.318 210.419 246.885 205.281 253.075 206.835C259.24 208.364 262.674 215.958 260.744 223.802Z" fill="#0F3D86"/>
<path d="M177.914 372.143C177.914 372.143 185.809 378.309 189.016 377.331C192.224 376.329 208.038 332.27 209.943 325.704C211.848 319.163 223.802 303.223 223.802 303.223L223.827 303.248V303.273V303.298C224.354 304.602 231.546 322.596 232.774 331.518C234.053 340.766 238.514 357.632 238.514 357.632L241.396 357.708L289.665 358.81L294.001 358.911C294.001 358.911 296.031 355.427 294.802 348.259C294.051 343.698 292.472 335.152 291.77 327.157V327.032L291.72 326.706V326.606C291.344 322.195 288.236 318.762 288.687 315.504C289.941 306.406 287.484 298.687 287.409 298.336L285.655 280.918C286.231 281.871 319.012 284.251 321.694 284.878C324.426 285.53 365.778 245.431 368.234 242.549C370.815 239.491 360.665 232.549 360.665 232.549L320.967 262.423C315.453 261.821 287.71 261.27 284.151 260.067C278.638 258.187 267.761 256.483 262.849 254.904C259.967 253.977 258.037 253.35 258.037 253.35C258.037 253.35 238.363 253.776 236.86 254.052C236.383 254.127 234.153 255.205 231.246 256.734C224.93 260.017 215.432 265.355 213.577 267.059C210.845 269.54 195.959 315.529 194.58 318.812C193.177 322.12 177.914 372.143 177.914 372.143Z" fill="#8D9FCA"/>
<path d="M237.511 261.22C241.621 262.849 248.137 268.287 256.007 266.658C256.007 266.658 257.886 259.966 257.385 255.255C257.318 254.67 257.26 254.11 257.21 253.576C256.633 248.263 256.483 245.255 256.483 245.255C256.483 245.255 256.474 245.255 256.458 245.255C255.881 245.105 236.784 239.767 236.884 240.393C238.163 249.641 237.987 255.23 235.682 258.237C235.431 258.563 233.877 259.791 237.511 261.22Z" fill="#F6BD94"/>
<path d="M239.115 243.576C241.246 246.633 248.012 252.297 257.21 253.576C256.634 248.262 256.483 245.255 256.483 245.255C256.483 245.255 256.475 245.255 256.458 245.255C255.932 245.18 238.464 242.699 239.115 243.576Z" fill="#F4AE80"/>
<path d="M258.789 246.433C258.789 246.433 240.319 251.496 236.008 239.015C231.697 226.559 226.234 219.091 238.765 213.953C251.296 208.815 255.406 212.725 257.862 216.534C260.318 220.344 263.852 244.253 258.789 246.433Z" fill="#F6BD94"/>
<path d="M349.487 544.042C349.487 544.042 357.055 550.283 363.847 550.809C370.639 551.335 378.458 553.215 379.135 557.35C379.812 561.486 358.359 566.448 350.189 563.39C338.034 558.854 337.181 560.909 335.477 557.977C333.748 555.045 335.227 546.298 335.001 545.321C334.7 544.093 349.487 544.042 349.487 544.042Z" fill="#142D4D"/>
<path d="M348.235 540.684L349.488 544.043C349.387 544.118 334.977 548.103 335.002 545.321C335.027 543.065 335.177 540.584 335.177 540.584L348.235 540.684Z" fill="#F6BD94"/>
<path d="M211.071 547.526C211.071 547.526 215.357 556.122 221.246 559.28C227.136 562.438 230.143 567.701 229.116 571.686C228.088 575.671 210.77 575.595 204.029 565.145C199.417 557.977 194.806 555.621 194.43 552.338C194.054 549.03 197.387 543.892 197.588 542.915C197.788 541.737 211.071 547.526 211.071 547.526Z" fill="#142D4D"/>
<path d="M212.024 544.118L211.071 547.526C210.921 547.551 196.611 545.471 197.588 542.915C198.34 540.885 199.994 538.629 199.994 538.629L212.024 544.118Z" fill="#F6BD94"/>
<path d="M296.532 366.58C296.532 366.58 336.932 422.142 344.826 435.8C352.119 448.482 349.187 462.717 350.014 473.092C350.941 484.947 350.54 536.298 351.643 539.682C352.746 543.04 333.348 543.391 333.348 543.391C333.348 543.391 327.784 462.491 320.742 451.564C316.055 444.271 273.951 396.604 271.821 400.112C269.666 403.596 247.912 454.472 245.381 464.271C243.025 473.443 214.103 545.271 214.103 545.271C214.103 545.271 203.577 545.646 195.783 539.957C195.783 539.957 220.394 461.739 221.822 448.732C222.524 442.141 231.346 395.275 238.388 364.9C242.123 348.836 296.532 366.58 296.532 366.58Z" fill="#0F3D86"/>
<path d="M294.001 358.885C294.001 358.885 295.429 360.239 296.532 366.579C296.532 366.579 244.127 366.63 238.388 364.9C238.388 364.9 237.361 357.908 238.489 357.632C239.767 357.357 294.001 358.885 294.001 358.885Z" fill="#314D9A"/>
<path d="M250.444 357.507C250.444 357.507 250.168 364.75 250.293 366.605L247.837 366.404C247.837 366.404 247.612 358.81 247.862 357.507H250.444Z" fill="#6D7EB2"/>
<path d="M289.59 358.585C289.59 358.585 291.244 364.926 291.57 367.382L288.988 367.332C288.988 367.332 287.51 359.337 287.134 358.51L289.59 358.585Z" fill="#6D7EB2"/>
<path d="M267.385 357.758C267.385 357.758 275.079 357.783 277.685 358.109L278.362 366.68L268.262 366.78L267.385 357.758Z" fill="#6D7EB2"/>
<path d="M261.07 269.214C261.07 269.214 257.16 272.848 251.947 270.843C251.947 270.843 252.95 263.375 254.027 262.974C255.13 262.598 261.446 267.811 261.07 269.214Z" fill="#6D7EB2"/>
<path d="M230.87 256.884L236.76 252.272C236.76 252.272 237.336 255.731 254.102 262.974L251.12 276.056L230.87 256.884Z" fill="#9AA8D0"/>
<path d="M257.01 251.671C257.01 251.671 257.21 255.455 254.103 262.974L264.127 273.274L262.598 254.829L257.01 251.671Z" fill="#9AA8D0"/>
<path d="M255.155 269.59C255.423 268.371 256.124 268.245 257.26 269.214C269.591 285.254 275.255 307.409 274.252 335.678C273.4 338.134 270.318 340.164 268.563 341.192C266.032 338.711 264.879 335.553 264.528 334.2C271.12 299.289 260.819 278.763 255.155 269.59Z" fill="#6D7EB2"/>
<path d="M225.506 215.757C224.654 213.552 225.106 210.971 226.359 209.066C227.637 207.161 229.617 205.908 231.747 205.307C233.852 204.705 236.083 204.68 238.288 204.855C240.393 205.031 242.523 205.407 244.604 205.031C247.16 204.555 249.491 202.976 250.944 200.695C252.323 198.515 255.806 198.415 258.062 199.542C260.292 200.67 262.648 202.851 263.375 205.382C264.077 207.838 264.327 211.998 260.718 214.755C256.433 217.988 241.897 218.715 239.942 218.89C237.987 219.091 235.932 219.842 234.83 221.572C232.424 225.356 237.386 240.894 236.985 241.17C236.233 241.27 227.662 236.985 225.832 234.303C223.852 231.371 222.524 228.138 221.371 224.755C220.795 223.075 220.344 221.321 220.344 219.542C220.344 218.865 220.444 218.163 220.72 217.587C221.171 216.685 222.048 216.133 222.975 215.933C223.903 215.707 224.579 215.607 225.506 215.757Z" fill="#0F3D86"/>
<path d="M231.622 225.08C234.554 224.078 235.005 230.318 235.155 233.451C235.406 239.566 226.96 226.659 231.622 225.08Z" fill="#F6BD94"/>
<path d="M245.707 230.945C245.306 231.02 244.679 230.444 244.429 229.516C244.278 229.04 244.278 228.514 244.404 228.138C244.429 227.988 244.554 227.687 244.805 227.612H244.83C245.231 227.537 245.857 228.113 246.133 229.04C246.258 229.516 246.283 230.018 246.158 230.419C246.108 230.544 245.982 230.87 245.732 230.945H245.707Z" fill="#0F3D86"/>
<path d="M257.561 228.364C257.235 228.439 256.584 227.938 256.333 226.985C256.208 226.509 256.183 226.033 256.308 225.657C256.383 225.381 256.534 225.206 256.684 225.156L256.734 225.131C257.06 225.081 257.686 225.582 257.962 226.534C258.087 227.01 258.112 227.486 257.987 227.862C257.912 228.138 257.762 228.313 257.611 228.364H257.561Z" fill="#0F3D86"/>
<path d="M251.796 231.271C252.072 230.87 252.598 230.669 253.099 230.694C253.625 230.719 254.127 231.045 254.427 231.471C254.728 231.897 254.828 232.499 254.653 232.975C254.503 233.476 254.127 233.877 253.65 233.977C253.951 233.626 254.077 233.251 254.102 232.875C254.127 232.499 254.026 232.173 253.826 231.872C253.625 231.571 253.35 231.371 252.999 231.246C252.648 231.145 252.247 231.12 251.796 231.271Z" fill="#00303F"/>
<path d="M245.054 222.274C244.453 222.048 243.801 221.973 243.15 222.023C242.473 222.048 241.796 222.248 241.22 222.549C240.769 222.775 240.593 223.351 240.819 223.802C240.944 224.053 241.17 224.228 241.42 224.278C241.521 224.312 241.621 224.32 241.721 224.304C241.855 224.304 241.98 224.27 242.097 224.203C242.448 224.028 242.849 223.903 243.275 223.877C243.676 223.852 244.077 223.903 244.428 224.028C244.561 224.078 244.687 224.103 244.804 224.103C245.18 224.078 245.505 223.827 245.631 223.476C245.806 222.975 245.556 222.449 245.054 222.274Z" fill="#0F3D86"/>
<path d="M256.283 218.99C256.065 218.957 255.84 218.949 255.606 218.965C254.603 219.041 253.651 219.416 252.924 220.068C252.523 220.394 252.498 220.995 252.824 221.396C252.974 221.572 253.175 221.672 253.4 221.697C253.467 221.714 253.534 221.722 253.601 221.722C253.801 221.697 254.002 221.622 254.152 221.472C254.578 221.121 255.155 220.87 255.731 220.845C255.865 220.845 255.99 220.845 256.107 220.845C256.157 220.862 256.207 220.862 256.258 220.845C256.709 220.82 257.085 220.469 257.135 219.993C257.185 219.492 256.809 219.041 256.283 218.99Z" fill="#0F3D86"/>
<path d="M245.156 228.188C244.554 228.138 244.454 229.065 245.055 229.115C245.657 229.19 245.757 228.238 245.156 228.188Z" fill="white"/>
<path d="M257.185 225.582C256.583 225.531 256.508 226.459 257.11 226.509C257.711 226.559 257.786 225.632 257.185 225.582Z" fill="white"/>
<path d="M259.616 235.005C259.992 236.609 259.866 238.188 259.39 239.591C258.638 241.797 256.934 243.526 254.679 244.027C252.348 244.553 250.042 243.651 248.388 241.872C247.436 240.844 246.709 239.491 246.358 237.962C246.358 237.887 246.358 237.837 246.333 237.787L259.591 234.854C259.591 234.905 259.616 234.955 259.616 235.005Z" fill="#EC9E6F"/>
<path d="M259.04 234.955C257.912 236.86 255.957 238.338 253.526 238.864C251.095 239.416 248.714 238.915 246.885 237.662L259.04 234.955Z" fill="#F6B78B"/>
<path d="M259.39 239.591C258.638 241.797 256.934 243.526 254.678 244.027C252.347 244.553 250.042 243.651 248.388 241.872C250.543 240.869 252.849 240.193 255.179 239.842C256.583 239.641 257.986 239.541 259.39 239.591Z" fill="#F4AE80"/>
<path d="M245.381 234.729C245.656 236.233 244.203 237.762 242.148 238.113C240.068 238.464 238.188 237.511 237.937 236.007C237.687 234.479 239.14 232.975 241.195 232.624C243.25 232.273 245.13 233.201 245.381 234.729Z" fill="#F6BD94"/>
<path d="M260.894 230.394C261.07 231.396 260.092 232.424 258.714 232.674C257.311 232.9 256.032 232.273 255.857 231.246C255.707 230.218 256.684 229.216 258.062 228.965C259.466 228.714 260.719 229.366 260.894 230.394Z" fill="#F6BD94"/>
<path d="M367.883 3.33325L444.346 34.6856L423.345 61.5018L367.883 3.33325Z" fill="#D0D9EE"/>
<path d="M455.122 22.0295L370.213 3.50879L475.924 11.2278L455.122 22.0295Z" fill="#D0D9EE"/>
<path d="M455.123 22.0294L453.143 57.2413L444.346 34.6856L367.883 3.33325L370.214 3.50868L455.123 22.0294Z" fill="#AAB9DE"/>
<path d="M453.143 57.2412L435.023 46.5649L444.346 34.6855L453.143 57.2412Z" fill="#8D9FCA"/>
<path d="M472.792 54.6348C470.311 54.334 470.862 50.7001 473.168 51.0008L476.852 51.3768C479.283 51.7026 478.782 55.3365 476.426 55.0358L472.792 54.6348ZM598.176 200.42C599.78 200.42 600.607 202.399 599.479 203.502C599.229 203.828 598.677 204.079 598.176 204.079H595.795C593.414 204.079 593.364 200.394 595.82 200.394L598.176 200.42ZM584.944 200.094C587.099 200.094 587.4 203.753 584.743 203.753L581.034 203.527C578.402 203.201 579.129 199.593 581.31 199.868L584.944 200.094ZM570.533 198.715C572.789 199.016 572.488 202.675 569.982 202.349L570.533 198.715ZM556.498 195.633C558.704 196.46 557.827 199.743 555.371 199.116C554.168 198.74 552.99 198.314 551.812 197.838C549.556 196.886 550.885 193.603 553.165 194.43C554.268 194.881 555.396 195.257 556.498 195.633ZM544.068 189.367C545.972 190.971 543.566 193.728 541.762 192.224C540.734 191.372 539.782 190.495 538.88 189.493C537.251 187.538 540.158 185.307 541.637 187.062C542.389 187.914 543.191 188.64 544.068 189.367ZM537.201 178.24C537.527 180.871 533.867 181.072 533.592 178.866C533.366 177.563 533.216 176.285 533.166 174.957C533.166 172.425 536.825 172.576 536.825 174.882C536.875 176.009 537 177.112 537.201 178.24ZM538.203 164.531C537.627 166.761 534.043 166.01 534.669 163.554C534.97 162.376 535.346 161.123 535.747 159.945C536.649 157.539 540.008 158.992 539.206 161.123C538.83 162.25 538.504 163.403 538.203 164.531ZM543.241 151.098C542.338 153.228 538.93 151.9 539.907 149.569C540.434 148.441 540.96 147.313 541.511 146.211C542.865 143.855 545.872 145.985 544.794 147.84C544.268 148.917 543.742 150.02 543.241 151.098ZM549.782 138.091C548.529 140.321 545.421 138.341 546.549 136.361L548.278 133.128C549.556 130.923 552.639 132.878 551.511 134.858C550.935 135.91 550.358 137.013 549.782 138.091ZM556.624 125.059C555.295 127.389 552.263 125.309 553.341 123.43L554.945 120.146C556.198 117.966 559.18 119.57 558.253 121.75L556.624 125.059ZM562.588 111.35C561.761 113.555 558.478 112.678 559.105 110.222C559.481 109.094 559.807 107.966 560.107 106.814C560.684 104.483 564.242 105.36 563.666 107.716C563.34 108.944 562.989 110.147 562.588 111.35ZM564.418 96.1372C564.719 98.5181 561.085 98.9943 560.784 96.5883C560.659 95.4605 560.433 94.3077 560.157 93.205C559.556 90.8241 563.14 89.9971 563.716 92.3027C564.017 93.5558 564.268 94.834 564.418 96.1372ZM558.779 81.7768C560.207 83.7817 557.2 85.8618 555.822 83.9321C555.145 82.9797 554.418 82.1026 553.641 81.2254C551.987 79.2205 554.944 77.0401 556.373 78.7693C557.225 79.6966 558.052 80.7492 558.779 81.7768ZM547.702 71.326C549.606 72.6793 547.877 75.6366 545.672 74.3585C544.669 73.6818 543.667 73.0552 542.639 72.4538C540.609 71.3009 542.363 68.0679 544.519 69.296C545.596 69.9476 546.674 70.5992 547.702 71.326ZM534.444 64.2836C536.699 65.236 535.221 68.5942 533.04 67.667C531.938 67.1908 530.81 66.7397 529.682 66.3136C527.452 65.4866 528.705 62.028 530.985 62.9052C532.163 63.3313 533.316 63.7824 534.444 64.2836ZM520.409 59.3965C522.59 59.9479 521.888 63.5317 519.382 62.9052L515.898 61.9528C513.618 61.3764 514.42 57.7926 516.825 58.3941L520.409 59.3965ZM506.024 55.8879C508.555 56.5144 507.452 60.0231 505.297 59.4717L501.713 58.77C499.382 58.1936 499.934 54.8603 502.415 55.1611L506.024 55.8879ZM491.488 53.3065C493.769 53.6073 493.443 57.2663 490.937 56.9405L487.328 56.4142C484.997 56.1385 485.373 52.4795 487.829 52.7802L491.488 53.3065Z" fill="#8D9FCA"/>
</svg>
