<svg width="600" height="528" viewBox="0 0 600 528" fill="none" xmlns="http://www.w3.org/2000/svg">
<path d="M298.13 0.0117798C227.266 0.0117798 235.352 125.157 184.189 163.294C116.5 213.781 0 188.788 0 275.442C0 427.551 151.109 482.684 315.744 482.684C480.408 482.684 620.902 398.293 571.885 246.567C522.838 94.8701 462.795 0.0117798 298.13 0.0117798Z" fill="#F1F5FB"/>
<mask id="mask0_1555_2720" style="mask-type:luminance" maskUnits="userSpaceOnUse" x="0" y="0" width="582" height="483">
<path d="M298.133 0C227.272 0 235.361 125.142 184.2 163.291C116.491 213.784 0.00292969 188.782 0.00292969 275.433C0.00292969 427.551 151.094 482.669 315.752 482.669C480.405 482.669 620.902 398.296 571.873 246.579C522.847 94.8613 462.789 0 298.133 0Z" fill="white"/>
</mask>
<g mask="url(#mask0_1555_2720)">
<path d="M535.57 73.9342V552.049H536.511V73.9342H535.57Z" fill="white"/>
<path d="M25.4346 85.0785H547.714V84.1082H25.4346V85.0785Z" fill="white"/>
<path d="M490.199 73.9342V552.049H491.17V73.9342H490.199Z" fill="white"/>
<path d="M25.4346 126.627H547.714V125.627H25.4346V126.627Z" fill="white"/>
<path d="M444.828 73.9342V552.049H445.798V73.9342H444.828Z" fill="white"/>
<path d="M25.4346 168.146H547.714V167.175H25.4346V168.146Z" fill="white"/>
<path d="M399.487 73.9342V552.049H400.458V73.9342H399.487Z" fill="white"/>
<path d="M25.4346 209.665H547.714V208.694H25.4346V209.665Z" fill="white"/>
<path d="M354.116 73.9342V552.049H355.087V73.9342H354.116Z" fill="white"/>
<path d="M25.4346 251.183H547.714V250.213H25.4346V251.183Z" fill="white"/>
<path d="M308.774 73.9342V552.049H309.745V73.9342H308.774Z" fill="white"/>
<path d="M25.4346 292.702H547.714V291.732H25.4346V292.702Z" fill="white"/>
<path d="M263.404 73.9342V552.049H264.375V73.9342H263.404Z" fill="white"/>
<path d="M25.4346 334.251H547.714V333.28H25.4346V334.251Z" fill="white"/>
<path d="M218.033 73.9342V552.049H219.033V73.9342H218.033Z" fill="white"/>
<path d="M25.4346 375.77H547.714V374.799H25.4346V375.77Z" fill="white"/>
<path d="M172.691 73.9342V552.049H173.662V73.9342H172.691Z" fill="white"/>
<path d="M25.4346 417.288H547.714V416.318H25.4346V417.288Z" fill="white"/>
<path d="M127.32 73.9342V552.049H128.291V73.9342H127.32Z" fill="white"/>
<path d="M25.4346 458.808H547.714V457.837H25.4346V458.808Z" fill="white"/>
<path d="M81.9795 73.9342V552.049H82.9498V73.9342H81.9795Z" fill="white"/>
<path d="M36.6084 73.9342V552.049H37.5787V73.9342H36.6084Z" fill="white"/>
</g>
<path d="M290.897 509.001C142.17 509.001 21.6123 513.176 21.6123 518.322C21.6123 523.468 142.17 527.643 290.897 527.643C439.595 527.643 560.153 523.468 560.153 518.322C560.153 513.176 439.595 509.001 290.897 509.001Z" fill="#E8EFFA"/>
<path d="M384.168 500.826H418.983L398.958 403.204H448.387L468.411 500.826H503.109C507.99 500.826 513.459 504.796 515.282 509.677H378.64C376.817 504.796 379.287 500.826 384.168 500.826Z" fill="#A4D0FC"/>
<path d="M277.342 463.542L280.488 440.842L300.13 298.995C301.042 292.261 307.275 286.792 314.009 286.792H588.998H591.998C597.29 288.145 600.701 293.085 599.878 298.995L577.09 463.542C576.413 468.482 572.561 472.481 568.533 472.481H283.076L283.134 472.128C279.283 472.128 276.666 468.276 277.342 463.542Z" fill="#87BEF5"/>
<path d="M412.749 506.737H462.178L440.919 403.204H391.52L412.749 506.737Z" fill="#87BEF5"/>
<path d="M271.696 440.842L291.338 298.995C292.279 292.261 298.484 286.792 305.217 286.792H580.236C586.969 286.792 591.674 292.261 590.733 298.995L571.091 440.842H271.696Z" fill="#A4D0FC"/>
<path d="M571.091 440.842L567.945 463.542C567.298 468.276 563.652 472.128 559.8 472.128H274.343C270.491 472.128 267.903 468.276 268.55 463.542L271.697 440.842H571.091Z" fill="#A4D0FC"/>
<path d="M279.548 434.667L298.278 299.377C298.778 295.819 302.16 292.967 305.835 292.967H577.914C581.589 292.967 584.177 295.819 583.677 299.377L564.946 434.667H279.548Z" fill="#EFF9FC"/>
<path d="M316.097 303.847H563.799L562.623 313.256H314.921L316.097 303.847Z" fill="#A4D0FC"/>
<path fill-rule="evenodd" clip-rule="evenodd" d="M309.981 344.337L314.244 340.808L315.156 340.073L315.832 340.837L319.037 344.542L317.214 346.16L315.715 344.454L305.541 426.404H443.712L442.124 424.64L443.947 422.993L447.181 426.669L447.887 427.433L447.034 428.256L443.006 432.079L441.536 430.521L443.418 428.697H302.953L303.1 427.551L313.45 344.278L311.333 346.042L309.981 344.337ZM444.447 427.257L444.359 427.786L444.653 427.492L444.447 427.257Z" fill="#A4D0FC"/>
<path d="M312.01 374.358H450.18L450.004 375.917H311.804L312.01 374.358Z" fill="#FEFEFE"/>
<path d="M336.827 352.452C342.444 352.452 346.443 357.039 345.766 362.655L342.502 388.884C342.091 387.884 341.797 387.032 341.326 386.032L344.178 362.655C345.119 355.04 336.327 351.129 330.241 356.539V356.569C328.477 358.127 327.242 360.274 326.947 362.655L325.271 375.946C324.742 375.946 324.183 376.064 323.684 376.211L325.36 362.655C325.712 359.833 327.183 357.304 329.27 355.451C331.329 353.599 334.034 352.452 336.827 352.452Z" fill="#A4D0FC"/>
<path d="M363.85 368.389L361.939 383.856C361.586 386.649 360.116 389.207 358.057 391.06C350.853 397.441 340.415 392.942 341.532 383.856L344.855 357.245C344.972 357.598 344.825 359.127 344.855 359.627C344.894 360.156 345.021 360.666 345.237 361.156C345.208 361.832 345.384 362.685 345.678 363.302L343.12 383.856C342.179 391.53 351 395.324 357.058 389.943C358.822 388.384 360.057 386.238 360.351 383.856L361.939 371.212C362.291 370.8 362.586 370.33 362.791 369.83C363.115 369.448 363.585 368.801 363.85 368.389Z" fill="#A4D0FC"/>
<path d="M373.23 362.185C378.846 362.185 382.875 366.772 382.169 372.388L380.581 385.12C380.072 385.022 379.552 385.003 379.023 385.062L380.611 372.388C381.552 364.773 372.76 360.862 366.644 366.302C364.909 367.86 363.644 370.006 363.35 372.388L362.233 381.415C361.527 381.827 360.969 382.327 360.469 382.974L361.792 372.388C362.115 369.595 363.586 367.037 365.673 365.184C367.761 363.332 370.437 362.185 373.23 362.185Z" fill="#A4D0FC"/>
<path d="M381.933 374.27L380.081 389.325C379.11 397 387.961 400.793 394.018 395.412C395.783 393.853 397.018 391.707 397.312 389.325L399.693 370.006C400.223 370.153 400.723 370.183 401.252 370.183L398.87 389.325C398.547 392.119 397.076 394.677 394.989 396.529C387.814 402.91 377.376 398.411 378.493 389.325L380.434 373.8C380.933 374.064 381.375 374.152 381.933 374.27Z" fill="#A4D0FC"/>
<path d="M412.102 352.452C417.689 352.452 421.718 357.039 421.012 362.655L418.277 384.591C417.719 384.709 417.16 384.944 416.631 385.209L419.453 362.655C420.394 355.04 411.602 351.129 405.486 356.539V356.569C403.722 358.127 402.487 360.274 402.193 362.655L399.017 388.267C398.282 388.766 397.665 389.443 397.194 390.207L400.635 362.655C400.987 359.833 402.428 357.304 404.516 355.451C406.604 353.599 409.279 352.452 412.102 352.452Z" fill="#A4D0FC"/>
<path d="M438.39 374.3L436.302 391.119C435.949 393.912 434.479 396.47 432.391 398.294C425.216 404.674 414.778 400.205 415.895 391.119L419.688 360.656C419.894 361.421 420.453 362.45 420.982 363.038L417.483 391.119C416.513 398.793 425.363 402.587 431.421 397.206C433.185 395.618 434.42 393.471 434.714 391.119L436.802 374.3H438.39Z" fill="#A4D0FC"/>
<path d="M435.508 400.087C429.892 400.087 425.864 395.5 426.57 389.884L429.833 363.626C430.245 364.625 430.539 365.508 431.01 366.507L428.157 389.884C427.187 397.499 435.979 401.41 442.095 395.97C443.859 394.412 445.094 392.266 445.388 389.884L447.035 376.593C447.594 376.564 448.123 376.475 448.652 376.299L446.947 389.884C446.623 392.677 445.153 395.235 443.065 397.088C440.978 398.94 438.302 400.087 435.508 400.087Z" fill="#FEFEFE"/>
<path d="M408.456 384.15L410.397 368.683C410.75 365.86 412.19 363.332 414.278 361.479C421.453 355.098 431.921 359.597 430.774 368.683L427.481 395.294C427.334 394.912 427.51 393.412 427.451 392.883C427.422 392.383 427.304 391.854 427.098 391.383C427.098 390.678 426.922 389.854 426.657 389.207L429.216 368.683C430.156 360.979 421.335 357.186 415.248 362.597C413.514 364.155 412.279 366.302 411.955 368.683L410.397 381.298C410.044 381.729 409.75 382.19 409.515 382.68C409.191 383.091 408.75 383.709 408.456 384.15Z" fill="#FEFEFE"/>
<path d="M399.076 390.325C393.489 390.325 389.46 385.738 390.166 380.122L391.725 367.419C392.234 367.497 392.764 367.507 393.312 367.448L391.725 380.122C390.784 387.737 399.576 391.648 405.662 386.238V386.208C407.427 384.65 408.662 382.503 408.956 380.122L410.073 371.124C410.779 370.683 411.367 370.212 411.867 369.565L410.543 380.122C410.191 382.944 408.72 385.503 406.662 387.326C404.574 389.178 401.869 390.325 399.076 390.325Z" fill="#FEFEFE"/>
<path d="M390.372 378.269L392.254 363.214C393.225 355.51 384.374 351.717 378.317 357.127C376.552 358.686 375.317 360.832 375.023 363.214L372.612 382.503C372.112 382.386 371.612 382.327 371.054 382.356L373.435 363.214C373.788 360.391 375.259 357.863 377.346 356.01C384.521 349.629 394.959 354.128 393.842 363.214L391.901 378.71C391.402 378.475 390.96 378.357 390.372 378.269Z" fill="#FEFEFE"/>
<path d="M360.233 400.087C354.646 400.087 350.618 395.5 351.323 389.884L354.029 367.919C354.617 367.801 355.175 367.595 355.705 367.301L352.882 389.884C351.941 397.5 360.733 401.41 366.849 395.971C368.584 394.412 369.819 392.266 370.113 389.884L373.318 364.243C374.053 363.743 374.67 363.097 375.141 362.332L371.701 389.884C371.348 392.677 369.878 395.235 367.819 397.088C365.732 398.94 363.026 400.087 360.233 400.087Z" fill="#FEFEFE"/>
<path d="M333.945 378.24L336.033 361.42C336.386 358.627 337.856 356.069 339.914 354.216C347.089 347.836 357.557 352.335 356.44 361.42L352.646 391.883C352.441 391.089 351.882 390.09 351.353 389.502L354.852 361.42C355.793 353.746 346.971 349.953 340.885 355.334C339.15 356.892 337.915 359.039 337.621 361.42L335.533 378.24H333.945Z" fill="#FEFEFE"/>
<path d="M376.875 322.577H368.26C367.76 322.577 367.378 322.136 367.437 321.636C367.495 321.107 367.966 320.695 368.495 320.695H377.111C377.611 320.695 377.993 321.107 377.934 321.636C377.875 322.136 377.405 322.577 376.875 322.577ZM339.061 333.31H315.185C314.656 333.31 314.303 332.869 314.362 332.369C314.421 331.84 314.891 331.428 315.42 331.428H339.297C339.826 331.428 340.179 331.84 340.12 332.369C340.061 332.869 339.591 333.31 339.061 333.31ZM366.172 333.31H342.913C342.414 333.31 342.031 332.869 342.09 332.369C342.178 331.84 342.619 331.428 343.149 331.428H366.408C366.937 331.428 367.29 331.84 367.231 332.369C367.172 332.869 366.702 333.31 366.172 333.31ZM330.652 327.929H315.861C315.332 327.929 314.979 327.517 315.038 326.988C315.097 326.488 315.567 326.047 316.097 326.047H330.887C331.387 326.047 331.769 326.488 331.681 326.988C331.622 327.517 331.152 327.929 330.652 327.929ZM376.199 327.929H334.768C334.269 327.929 333.886 327.517 333.945 326.988C334.004 326.488 334.504 326.047 335.004 326.047H376.434C376.964 326.047 377.316 326.488 377.258 326.988C377.199 327.517 376.728 327.929 376.199 327.929ZM364.29 322.577H316.538C316.008 322.577 315.626 322.136 315.714 321.636C315.773 321.107 316.244 320.695 316.773 320.695H364.526C365.026 320.695 365.408 321.107 365.349 321.636C365.261 322.136 364.79 322.577 364.29 322.577Z" fill="#A4D0FC"/>
<path d="M549.068 381.092H543.128L547.568 345.336H553.508L549.068 381.092Z" fill="#A4D0FC"/>
<path d="M540.276 381.092H534.365L538.158 350.511H544.098L540.276 381.092Z" fill="#A4D0FC"/>
<path d="M531.513 381.092H525.573L528.749 355.687H534.689L531.513 381.092Z" fill="#A4D0FC"/>
<path d="M522.75 381.092H516.811L519.486 359.686H525.397L522.75 381.092Z" fill="#A4D0FC"/>
<path d="M513.959 381.092H508.049L509.931 365.978H515.841L513.959 381.092Z" fill="#A4D0FC"/>
<path d="M505.196 381.092H499.257L500.521 371.153H506.431L505.196 381.092Z" fill="#A4D0FC"/>
<path d="M545.833 345.366H503.726L503.638 345.865H545.774C545.921 345.865 546.039 345.748 546.068 345.601C546.068 345.454 545.98 345.366 545.833 345.366Z" fill="#99C5F2"/>
<path d="M537.1 350.776C537.071 350.894 536.953 351.041 536.806 351.041H503.021L503.079 350.511H536.865C537.012 350.511 537.13 350.629 537.1 350.776Z" fill="#99C5F2"/>
<path d="M526.69 355.922C526.661 356.069 526.543 356.186 526.396 356.186H502.373L502.432 355.687H526.455C526.602 355.687 526.69 355.775 526.69 355.922Z" fill="#99C5F2"/>
<path d="M517.752 359.95C517.752 360.097 517.605 360.215 517.458 360.215H501.874L501.933 359.686H517.517C517.664 359.686 517.782 359.803 517.752 359.95Z" fill="#99C5F2"/>
<path d="M507.548 366.243C507.548 366.39 507.401 366.507 507.283 366.507H501.079L501.138 365.978H507.342C507.489 365.978 507.577 366.096 507.548 366.243Z" fill="#99C5F2"/>
<path d="M495.493 376.711L494.522 375.946L505.814 362.45L512.841 365.067L529.278 350.835L532.866 353.716L548.421 341.719L549.156 342.719L532.719 355.363L529.19 352.511L512.988 366.537L506.108 364.008L495.493 376.711Z" fill="#61A0E0"/>
<path d="M548.568 345.13L548.421 342.337L546.01 341.161L551.685 340.073L548.568 345.13Z" fill="#61A0E0"/>
<path d="M486.524 394.677C493.581 394.677 498.61 400.381 497.727 407.438C496.845 414.495 490.406 420.229 483.349 420.229C476.292 420.229 471.293 414.495 472.175 407.438C473.028 400.381 479.467 394.677 486.524 394.677Z" fill="#A4D0FC"/>
<path d="M483.76 417.053C484.084 417.053 484.319 417.347 484.29 417.671C484.231 418.024 483.937 418.288 483.584 418.288C480.585 418.288 478.027 417.083 476.321 415.113C474.586 413.143 473.733 410.437 474.086 407.438C474.469 404.439 476.027 401.734 478.232 399.764C480.438 397.823 483.29 396.588 486.289 396.588C489.288 396.588 491.847 397.823 493.552 399.764C495.287 401.734 496.169 404.439 495.787 407.438C495.757 407.791 495.434 408.056 495.11 408.056C494.758 408.056 494.522 407.791 494.552 407.438C494.905 404.792 494.111 402.381 492.582 400.646C491.053 398.911 488.788 397.823 486.142 397.823C483.466 397.823 480.938 398.911 478.997 400.646C477.027 402.381 475.645 404.792 475.321 407.438C474.998 410.114 475.762 412.496 477.291 414.23C478.82 415.995 481.085 417.053 483.76 417.053Z" fill="white"/>
<path d="M513.636 394.677C520.693 394.677 525.721 400.381 524.839 407.438C523.957 414.495 517.517 420.229 510.46 420.229C503.403 420.229 498.404 414.495 499.286 407.438C500.169 400.381 506.579 394.677 513.636 394.677Z" fill="#A4D0FC"/>
<path d="M521.016 409.967C521.104 409.673 521.398 409.467 521.692 409.467C522.015 409.467 522.28 409.761 522.221 410.085C522.221 410.163 522.202 410.232 522.162 410.29C521.045 413.172 518.869 415.466 516.311 416.848C513.753 418.23 510.783 418.7 507.99 417.935C507.97 417.935 507.941 417.926 507.901 417.906C505.137 417.142 503.079 415.26 501.991 412.878C500.903 410.467 500.786 407.556 501.903 404.674C501.922 404.655 501.932 404.625 501.932 404.586C502.579 402.998 503.55 401.557 504.755 400.322C505.99 399.087 507.431 398.117 509.048 397.47C509.401 397.323 509.724 397.47 509.813 397.794C509.93 398.088 509.724 398.44 509.401 398.587C507.96 399.176 506.666 400.028 505.578 401.146C504.49 402.204 503.638 403.527 503.079 404.939C502.079 407.526 502.168 410.114 503.138 412.26C504.079 414.378 505.931 416.024 508.401 416.73C510.901 417.406 513.547 416.995 515.84 415.76C518.105 414.554 520.016 412.525 521.016 409.967Z" fill="white"/>
<path d="M540.775 394.677C547.832 394.677 552.831 400.381 551.949 407.438C551.067 414.495 544.656 420.229 537.599 420.229C530.542 420.229 525.514 414.495 526.396 407.438C527.278 400.381 533.718 394.677 540.775 394.677Z" fill="#A4D0FC"/>
<path d="M545.156 399.176C544.951 398.94 544.98 398.558 545.245 398.293C545.509 398.088 545.862 398.058 546.068 398.235C548.391 399.822 549.744 402.263 550.038 404.968C550.332 407.644 549.596 410.584 547.685 413.143V413.172C545.774 415.701 543.128 417.377 540.334 417.994C537.57 418.641 534.688 418.23 532.336 416.671L532.307 416.642C529.954 415.083 528.602 412.613 528.308 409.938C528.014 407.232 528.749 404.292 530.66 401.734C530.68 401.695 530.709 401.655 530.748 401.616C531.013 401.381 531.425 401.381 531.63 401.616C531.807 401.851 531.807 402.175 531.601 402.41C529.925 404.674 529.278 407.262 529.543 409.644C529.807 412.025 531.013 414.201 533.071 415.583C533.091 415.603 533.11 415.622 533.13 415.642C535.218 417.024 537.776 417.377 540.216 416.789C542.657 416.23 545.009 414.789 546.685 412.555C546.705 412.515 546.725 412.486 546.744 412.466C548.42 410.202 549.067 407.615 548.803 405.233C548.538 402.851 547.362 400.675 545.274 399.293C545.235 399.254 545.196 399.215 545.156 399.176Z" fill="white"/>
<path d="M476.292 424.11H489.465C490.171 424.11 490.671 424.698 490.583 425.404L490.495 426.316C490.406 427.051 489.73 427.639 489.024 427.639H475.851C475.116 427.639 474.616 427.051 474.704 426.316L474.822 425.404C474.91 424.698 475.557 424.11 476.292 424.11Z" fill="#A4D0FC"/>
<path d="M503.402 424.11H516.575C517.281 424.11 517.81 424.698 517.722 425.404L517.604 426.316C517.516 427.051 516.84 427.639 516.134 427.639H502.961C502.255 427.639 501.726 427.051 501.814 426.316L501.932 425.404C502.02 424.698 502.696 424.11 503.402 424.11Z" fill="#A4D0FC"/>
<path d="M530.513 424.11H543.687C544.392 424.11 544.922 424.698 544.833 425.404L544.716 426.316C544.628 427.051 543.951 427.639 543.246 427.639H530.072C529.367 427.639 528.837 427.051 528.926 426.316L529.043 425.404C529.131 424.698 529.808 424.11 530.513 424.11Z" fill="#A4D0FC"/>
<path d="M175.661 382.503H317.331V513.235H175.661V382.503Z" fill="#71AFED"/>
<path d="M167.928 373.947H325.094C326.476 373.947 327.594 375.093 327.594 376.475V403.351C327.594 404.733 326.476 405.85 325.094 405.85H167.928C166.546 405.85 165.429 404.733 165.429 403.351V376.475C165.429 375.093 166.546 373.947 167.928 373.947Z" fill="#BBDBFA"/>
<path d="M327.594 376.475V403.351H165.429V376.475H327.594Z" fill="#87BEF5"/>
<path d="M167.928 411.878H325.094C326.476 411.878 327.594 412.996 327.594 414.378V441.253C327.594 442.635 326.476 443.782 325.094 443.782H167.928C166.546 443.782 165.429 442.635 165.429 441.253V414.378C165.429 412.996 166.546 411.878 167.928 411.878Z" fill="#BBDBFA"/>
<path d="M327.594 414.378V441.253H165.429V414.378H327.594Z" fill="#87BEF5"/>
<path d="M167.928 449.81H325.094C326.476 449.81 327.594 450.927 327.594 452.309V479.185C327.594 480.567 326.476 481.684 325.094 481.684H167.928C166.546 481.684 165.429 480.567 165.429 479.185V452.309C165.429 450.927 166.546 449.81 167.928 449.81Z" fill="#BBDBFA"/>
<path d="M327.594 452.309V479.185H165.429V452.309H327.594Z" fill="#87BEF5"/>
<path d="M167.928 487.741H325.094C326.476 487.741 327.594 488.859 327.594 490.241V517.116C327.594 518.498 326.476 519.616 325.094 519.616H167.928C166.546 519.616 165.429 518.498 165.429 517.116V490.241C165.429 488.859 166.546 487.741 167.928 487.741Z" fill="#BBDBFA"/>
<path d="M327.594 490.241V517.116H165.429V490.241H327.594Z" fill="#87BEF5"/>
<path d="M266.58 379.651C269.05 379.651 271.049 381.65 271.049 384.12C271.049 386.59 269.05 388.59 266.58 388.59C264.11 388.59 262.11 386.59 262.11 384.12C262.11 381.65 264.11 379.651 266.58 379.651ZM266.58 392.648C269.05 392.648 271.049 394.647 271.049 397.117C271.049 399.587 269.05 401.587 266.58 401.587C264.11 401.587 262.11 399.587 262.11 397.117C262.11 394.647 264.11 392.648 266.58 392.648ZM313.068 392.648C315.538 392.648 317.538 394.647 317.538 397.117C317.538 399.587 315.538 401.587 313.068 401.587C310.628 401.587 308.628 399.587 308.628 397.117C308.628 394.647 310.628 392.648 313.068 392.648ZM297.572 392.648C300.042 392.648 302.041 394.647 302.041 397.117C302.041 399.587 300.042 401.587 297.572 401.587C295.102 401.587 293.103 399.587 293.103 397.117C293.103 394.647 295.102 392.648 297.572 392.648ZM282.076 392.648C284.546 392.648 286.545 394.647 286.545 397.117C286.545 399.587 284.546 401.587 282.076 401.587C279.606 401.587 277.606 399.587 277.606 397.117C277.606 394.647 279.606 392.648 282.076 392.648ZM313.068 379.651C315.538 379.651 317.538 381.65 317.538 384.12C317.538 386.59 315.538 388.59 313.068 388.59C310.628 388.59 308.628 386.59 308.628 384.12C308.628 381.65 310.628 379.651 313.068 379.651ZM297.572 379.651C300.042 379.651 302.041 381.65 302.041 384.12C302.041 386.59 300.042 388.59 297.572 388.59C295.102 388.59 293.103 386.59 293.103 384.12C293.103 381.65 295.102 379.651 297.572 379.651ZM282.076 379.651C284.546 379.651 286.545 381.65 286.545 384.12C286.545 386.59 284.546 388.59 282.076 388.59C279.606 388.59 277.606 386.59 277.606 384.12C277.606 381.65 279.606 379.651 282.076 379.651Z" fill="white"/>
<path d="M266.58 417.289C269.05 417.289 271.049 419.288 271.049 421.758C271.049 424.199 269.05 426.198 266.58 426.198C264.11 426.198 262.11 424.199 262.11 421.758C262.11 419.288 264.11 417.289 266.58 417.289ZM266.58 430.256C269.05 430.256 271.049 432.255 271.049 434.725C271.049 437.195 269.05 439.195 266.58 439.195C264.11 439.195 262.11 437.195 262.11 434.725C262.11 432.255 264.11 430.256 266.58 430.256ZM313.068 430.256C315.538 430.256 317.538 432.255 317.538 434.725C317.538 437.195 315.538 439.195 313.068 439.195C310.628 439.195 308.628 437.195 308.628 434.725C308.628 432.255 310.628 430.256 313.068 430.256ZM297.572 430.256C300.042 430.256 302.041 432.255 302.041 434.725C302.041 437.195 300.042 439.195 297.572 439.195C295.102 439.195 293.103 437.195 293.103 434.725C293.103 432.255 295.102 430.256 297.572 430.256ZM282.076 430.256C284.546 430.256 286.545 432.255 286.545 434.725C286.545 437.195 284.546 439.195 282.076 439.195C279.606 439.195 277.606 437.195 277.606 434.725C277.606 432.255 279.606 430.256 282.076 430.256ZM313.068 417.289C315.538 417.289 317.538 419.288 317.538 421.758C317.538 424.199 315.538 426.198 313.068 426.198C310.628 426.198 308.628 424.199 308.628 421.758C308.628 419.288 310.628 417.289 313.068 417.289ZM297.572 417.289C300.042 417.289 302.041 419.288 302.041 421.758C302.041 424.199 300.042 426.198 297.572 426.198C295.102 426.198 293.103 424.199 293.103 421.758C293.103 419.288 295.102 417.289 297.572 417.289ZM282.076 417.289C284.546 417.289 286.545 419.288 286.545 421.758C286.545 424.199 284.546 426.198 282.076 426.198C279.606 426.198 277.606 424.199 277.606 421.758C277.606 419.288 279.606 417.289 282.076 417.289Z" fill="white"/>
<path d="M266.58 454.897C269.05 454.897 271.049 456.896 271.049 459.366C271.049 461.836 269.05 463.836 266.58 463.836C264.11 463.836 262.11 461.836 262.11 459.366C262.11 456.896 264.11 454.897 266.58 454.897ZM266.58 467.893C269.05 467.893 271.049 469.893 271.049 472.363C271.049 474.803 269.05 476.803 266.58 476.803C264.11 476.803 262.11 474.803 262.11 472.363C262.11 469.893 264.11 467.893 266.58 467.893ZM313.068 467.893C315.538 467.893 317.538 469.893 317.538 472.363C317.538 474.803 315.538 476.803 313.068 476.803C310.628 476.803 308.628 474.803 308.628 472.363C308.628 469.893 310.628 467.893 313.068 467.893ZM297.572 467.893C300.042 467.893 302.041 469.893 302.041 472.363C302.041 474.803 300.042 476.803 297.572 476.803C295.102 476.803 293.103 474.803 293.103 472.363C293.103 469.893 295.102 467.893 297.572 467.893ZM282.076 467.893C284.546 467.893 286.545 469.893 286.545 472.363C286.545 474.803 284.546 476.803 282.076 476.803C279.606 476.803 277.606 474.803 277.606 472.363C277.606 469.893 279.606 467.893 282.076 467.893ZM313.068 454.897C315.538 454.897 317.538 456.896 317.538 459.366C317.538 461.836 315.538 463.836 313.068 463.836C310.628 463.836 308.628 461.836 308.628 459.366C308.628 456.896 310.628 454.897 313.068 454.897ZM297.572 454.897C300.042 454.897 302.041 456.896 302.041 459.366C302.041 461.836 300.042 463.836 297.572 463.836C295.102 463.836 293.103 461.836 293.103 459.366C293.103 456.896 295.102 454.897 297.572 454.897ZM282.076 454.897C284.546 454.897 286.545 456.896 286.545 459.366C286.545 461.836 284.546 463.836 282.076 463.836C279.606 463.836 277.606 461.836 277.606 459.366C277.606 456.896 279.606 454.897 282.076 454.897Z" fill="white"/>
<path d="M266.58 492.505C269.05 492.505 271.049 494.534 271.049 496.974C271.049 499.444 269.05 501.444 266.58 501.444C264.11 501.444 262.11 499.444 262.11 496.974C262.11 494.534 264.11 492.505 266.58 492.505ZM266.58 505.501C269.05 505.501 271.049 507.501 271.049 509.971C271.049 512.441 269.05 514.44 266.58 514.44C264.11 514.44 262.11 512.441 262.11 509.971C262.11 507.501 264.11 505.501 266.58 505.501ZM313.068 505.501C315.538 505.501 317.538 507.501 317.538 509.971C317.538 512.441 315.538 514.44 313.068 514.44C310.628 514.44 308.628 512.441 308.628 509.971C308.628 507.501 310.628 505.501 313.068 505.501ZM297.572 505.501C300.042 505.501 302.041 507.501 302.041 509.971C302.041 512.441 300.042 514.44 297.572 514.44C295.102 514.44 293.103 512.441 293.103 509.971C293.103 507.501 295.102 505.501 297.572 505.501ZM282.076 505.501C284.546 505.501 286.545 507.501 286.545 509.971C286.545 512.441 284.546 514.44 282.076 514.44C279.606 514.44 277.606 512.441 277.606 509.971C277.606 507.501 279.606 505.501 282.076 505.501ZM313.068 492.505C315.538 492.505 317.538 494.534 317.538 496.974C317.538 499.444 315.538 501.444 313.068 501.444C310.628 501.444 308.628 499.444 308.628 496.974C308.628 494.534 310.628 492.505 313.068 492.505ZM297.572 492.505C300.042 492.505 302.041 494.534 302.041 496.974C302.041 499.444 300.042 501.444 297.572 501.444C295.102 501.444 293.103 499.444 293.103 496.974C293.103 494.534 295.102 492.505 297.572 492.505ZM282.076 492.505C284.546 492.505 286.545 494.534 286.545 496.974C286.545 499.444 284.546 501.444 282.076 501.444C279.606 501.444 277.606 499.444 277.606 496.974C277.606 494.534 279.606 492.505 282.076 492.505Z" fill="white"/>
<path d="M186.159 353.981C186.159 353.981 194.775 355.069 195.568 355.687C196.392 356.304 198.362 360.391 198.156 361.656C197.95 362.92 195.157 364.89 194.216 364.89C193.275 364.89 192.922 362.802 192.04 362.332C191.158 361.861 190.334 361.744 189.658 361.567C188.364 361.215 185.924 360.097 185.924 360.097L186.159 353.981Z" fill="#FFB27D"/>
<path d="M147.081 312.815C147.081 312.815 158.401 343.484 163.282 345.865C168.164 348.218 186.159 353.981 186.159 353.981V361.038C186.159 361.038 167.84 361.332 158.784 358.686C149.668 356.01 137.848 346.13 137.848 346.13L147.081 312.815Z" fill="#F06A30"/>
<path d="M123.41 283.793L134.496 304.817L137.142 305.023L138.348 308.375L149.433 341.867C149.433 341.867 155.608 299.318 123.41 283.793Z" fill="#F06A30"/>
<path d="M141.905 302.406C141.905 302.406 154.166 347.6 155.343 390.707C155.343 390.707 145.169 394.265 129.202 391.442C113.147 388.619 141.905 302.406 141.905 302.406Z" fill="#F57A44"/>
<path d="M86.0075 517.175H74.9809C73.5989 516.411 72.3639 514.705 71.9816 512.117C71.4524 508.56 67.4534 506.648 66.6006 503.737C65.7479 500.826 70.1586 496.739 70.1586 496.739L70.8937 495.798L71.6582 494.798L78.9799 496.533C78.9799 496.533 79.1563 498.268 79.2445 500.473C79.3327 502.091 79.3915 503.943 79.3033 505.56C79.0681 509.442 80.3619 513.588 83.8022 514.352C86.3604 514.911 86.2427 516.411 86.0075 517.175Z" fill="#284191"/>
<path d="M149.991 517.175H124.762C123.556 515.705 123.998 510.236 124.174 508.442C124.233 508.089 124.262 507.883 124.262 507.883C124.262 507.883 132.878 501.003 134.054 506.266C134.073 506.423 134.113 506.589 134.171 506.766C135.671 511.676 142.346 513.911 146.198 514.558C148.697 514.97 149.638 516.264 149.991 517.175Z" fill="#284191"/>
<path d="M145.17 376.475C145.17 376.475 143.876 392.795 142.317 412.378C140.23 439.018 137.73 471.716 137.495 477.92C137.054 488.682 135.319 505.884 135.319 505.884C135.319 505.884 131.261 509.971 123.058 508.236C123.058 508.236 115.795 483.683 113.707 457.69C113.668 457.259 113.638 456.828 113.619 456.396C111.678 429.932 108.649 374.211 108.649 374.211L145.17 376.475Z" fill="#4567C6"/>
<path d="M145.17 376.475C145.17 376.475 143.876 392.795 142.317 412.378L113.707 457.69C113.668 457.259 113.638 456.828 113.619 456.396C111.678 429.932 108.649 374.211 108.649 374.211L145.17 376.475Z" fill="#3B5BB3"/>
<path d="M139.2 378.416C139.2 378.416 115.647 437.46 100.151 465.218C84.6839 492.975 79.8322 500.709 79.8322 500.709C79.8322 500.709 70.9521 497.18 70.1582 494.739C70.1582 494.739 76.0685 441.165 86.4482 428.109C92.2997 420.729 99.1803 398.587 99.5037 390.825C99.8272 383.091 101.621 367.772 101.621 367.772L139.2 378.416Z" fill="#4567C6"/>
<path d="M133.349 292.32C124.145 295.231 108.208 287.38 108.208 287.38C108.208 287.38 116.706 281.029 116.265 267.768L123.381 273.501L128.203 277.412C128.203 277.412 128.174 279.706 127.644 283.734C127.546 284.459 127.438 285.253 127.321 286.116C127.203 286.792 127.497 287.468 128.085 287.821C131.437 289.88 133.349 292.32 133.349 292.32Z" fill="#FFB27D"/>
<path d="M146.198 377.828C145.904 378.063 145.581 378.21 145.228 378.21C141.758 378.151 131.672 380.092 123.145 379.21C115.97 378.504 109.59 376.387 102.768 373.329C101.856 372.917 99.7686 371.8 99.8274 370.771C99.8568 369.654 99.945 368.066 100.092 366.037C100.562 358.98 101.415 346.836 100.592 332.839C100.455 330.232 100.376 327.654 100.357 325.106C100.298 306.14 104.062 289.439 111.619 283.793C111.619 283.793 116.882 286.763 120.528 287.91C124.115 289.056 125.968 288.821 127.82 287.586C127.82 287.586 131.408 289.409 132.966 291.085C136.524 294.967 139.317 300.142 141.17 307.552C142.728 313.874 144.199 323.077 144.698 334.898C144.934 340.22 146.433 377.652 146.198 377.828Z" fill="white"/>
<path d="M93.7998 386.62C117.029 401.204 135.995 393.824 135.995 393.824C139.406 367.213 137.524 335.133 137.083 327.311C135.936 292.967 111.619 283.793 111.619 283.793L101.474 315.138L99.9747 329.105L97.2695 354.275L93.7998 386.62Z" fill="#F57A44"/>
<path d="M85.1842 367.389C85.1842 367.389 83.3905 369.771 83.3317 370.712C82.8613 377.122 85.7723 378.004 78.186 381.562C78.186 381.562 74.9515 382.797 74.8927 380.298C74.8339 377.769 77.1568 377.74 76.7158 374.211C76.2453 370.153 76.3041 370.124 78.9505 368.007L80.7148 365.096L85.1842 367.389Z" fill="#FFB27D"/>
<path d="M82.3615 370.212C82.3615 370.212 84.0964 372.006 84.1846 372.741C84.5374 375.123 85.3313 376.152 84.9491 376.417C84.0964 376.946 83.0084 375.182 82.4791 373.594C81.9499 372.006 82.3615 370.212 82.3615 370.212Z" fill="#FFB27D"/>
<path d="M97.2695 354.275C102.386 341.249 116.588 319.284 116.588 319.284L99.9747 329.105L97.2695 354.275Z" fill="#F06A30"/>
<path d="M80.656 369.213C83.5082 369.771 86.6251 369.536 86.6251 369.536C86.6251 369.536 95.0935 343.337 96.1815 340.926C96.8872 339.397 107.708 328.37 115.294 320.784C119.734 316.285 121.205 309.639 118.999 303.729L111.619 283.793C111.619 283.793 105.885 287.145 99.8276 297.613C92.3295 310.551 84.0963 331.369 82.6261 334.751C78.2449 344.866 76.7158 367.536 76.7158 367.536C76.7158 367.536 78.4213 368.771 80.656 369.213Z" fill="#F57A44"/>
<path d="M111.619 283.793L122.705 304.817L128.38 302.759L126.557 308.375L137.671 341.867C137.671 341.867 143.817 299.318 111.619 283.793Z" fill="#F06A30"/>
<path d="M112.648 266.444C115.216 265.249 116.99 265.503 117.97 267.209C117.304 271.247 115.402 274.237 112.266 276.177C113.305 274.413 113.432 271.169 112.648 266.444Z" fill="#284191"/>
<path d="M128.468 274.589C128.468 274.589 128.438 276.883 127.938 280.911C122.557 280 116.5 271.326 116.5 271.326C119.205 270.532 121.616 270.414 123.645 270.679L128.468 274.589Z" fill="#F08261"/>
<path d="M133.319 279C133.319 279 115.382 280 113.618 268.414C111.883 256.829 108.325 249.419 120.087 246.949C131.878 244.509 134.848 248.567 136.377 252.301C137.906 256.035 138.112 277.912 133.319 279Z" fill="#FFB27D"/>
<path d="M115.647 272.943C115.059 273.501 115.53 266.974 115.206 264.357C114.912 261.74 114.912 258.299 117.029 258.946C119.176 259.593 119.293 261.299 120.146 260.299C121.028 259.299 121.058 255.094 127.409 254.8C133.76 254.506 137.553 255.829 140.494 254.536C143.434 253.242 146.434 248.39 146.434 248.39C146.434 248.39 142.758 250.36 141.494 250.889C141.494 250.889 143.728 245.185 138.024 240.568C132.202 235.864 125.703 238.393 119.676 241.068C117.794 241.892 115.882 244.097 114.412 245.332C112.442 247.008 109.59 247.39 108.649 249.272C108.09 250.36 107.884 252.036 107.943 254.006C108.09 260.475 111.295 270.061 115.647 272.943Z" fill="#284191"/>
<path d="M124.527 246.802C130.82 249.978 135.701 250.243 141.053 246.302C138.583 241.627 137.671 236.717 124.527 236.54C129.565 238.971 129.565 242.392 124.527 246.802Z" fill="#284191"/>
<path d="M109.472 258.917C112.04 257.721 113.814 257.976 114.794 259.681C114.108 263.72 112.197 266.709 109.061 268.65C110.119 266.885 110.256 263.641 109.472 258.917Z" fill="#284191"/>
<path d="M117.147 246.449C115.971 247.645 114.922 247.88 114 247.155C113.53 244.764 113.971 242.695 115.324 240.951C115.108 242.147 115.716 243.979 117.147 246.449Z" fill="#284191"/>
<path d="M114.147 249.537C115.814 249.282 116.598 248.566 116.5 247.39C114.833 245.626 112.903 244.793 110.707 244.891C111.805 245.401 112.952 246.949 114.147 249.537Z" fill="#284191"/>
<path d="M97.6812 353.275L97.8576 388.972C96.5246 388.266 95.172 387.482 93.7998 386.62L97.2695 354.275C97.4067 353.942 97.544 353.609 97.6812 353.275Z" fill="#F06A30"/>
<path d="M125.763 259.917C125.204 259.858 124.734 260.358 124.675 261.063C124.616 261.769 124.998 262.416 125.557 262.475C126.086 262.563 126.586 262.034 126.645 261.328C126.704 260.622 126.292 260.005 125.763 259.917Z" fill="#BBDBFA"/>
<path d="M125.557 262.475C124.998 262.416 124.616 261.769 124.675 261.063C124.734 260.358 125.204 259.858 125.763 259.917C125.998 259.946 126.175 260.093 126.351 260.27L126.263 260.24C126.086 260.24 125.939 260.387 125.91 260.622C125.88 260.858 126.028 261.063 126.204 261.063C126.38 261.093 126.527 260.946 126.557 260.711V260.652C126.635 260.867 126.665 261.093 126.645 261.328C126.586 262.034 126.086 262.563 125.557 262.475Z" fill="#125AA3"/>
<path d="M127.468 259.093C127.507 259.113 127.536 259.133 127.556 259.152C127.526 259.035 127.379 258.888 127.321 258.77C127.379 258.829 127.409 258.829 127.468 258.917C127.526 258.976 127.556 259.064 127.585 259.123C127.585 259.035 127.556 258.976 127.556 258.917C127.615 258.976 127.615 259.093 127.644 259.152C127.615 258.887 127.615 258.917 127.526 258.682C127.644 258.74 127.703 258.976 127.732 259.123C127.762 259.064 127.762 258.976 127.762 258.917C127.791 259.005 127.791 259.035 127.791 259.123L127.879 259.035C127.85 259.093 127.85 259.093 127.82 259.152C127.968 259.064 128.173 258.74 128.173 258.564C128.144 258.623 128.085 258.77 128.056 258.799C128.056 258.682 128.115 258.535 128.085 258.417C128.056 258.505 128.056 258.623 128.026 258.711C127.997 258.799 127.968 258.917 127.909 259.005C127.968 258.77 128.026 258.623 127.968 258.388L127.938 258.446C127.938 258.535 127.967 258.652 127.938 258.77C127.909 258.564 127.909 258.388 127.762 258.241C127.791 258.329 127.82 258.388 127.85 258.476C127.791 258.388 127.732 258.211 127.615 258.211C127.673 258.27 127.732 258.329 127.791 258.417C127.85 258.505 127.909 258.652 127.879 258.74C127.791 258.388 127.585 258.211 127.35 258.152C127.409 258.182 127.615 258.329 127.644 258.417V258.446C127.615 258.535 127.615 258.358 127.615 258.446C127.673 258.476 127.732 258.564 127.762 258.623C127.781 258.662 127.801 258.701 127.82 258.74C127.82 258.77 127.82 258.799 127.82 258.829C127.82 258.858 127.82 258.858 127.82 258.858V258.887C127.762 258.652 127.673 258.535 127.526 258.388C127.409 258.299 127.174 258.182 127.056 258.152L127.174 258.211C127.438 258.358 127.703 258.505 127.791 258.858C127.762 258.829 127.791 258.858 127.762 258.829C127.762 258.799 127.762 258.799 127.732 258.799C127.673 258.711 127.615 258.593 127.556 258.505C127.468 258.417 127.35 258.329 127.262 258.299C127.144 258.211 126.762 258.064 126.556 258.094C126.615 258.094 126.997 258.211 127.056 258.211C127.174 258.27 127.35 258.358 127.468 258.505C127.409 258.476 127.35 258.446 127.291 258.417C126.938 258.27 126.38 258.035 126.027 258.064C126.233 258.094 126.527 258.182 126.703 258.299L126.586 258.27C126.615 258.27 126.644 258.299 126.674 258.329C126.703 258.329 126.762 258.358 126.791 258.388C126.968 258.476 127.232 258.652 127.35 258.858C127.291 258.829 127.232 258.77 127.174 258.711C127.115 258.682 127.056 258.623 126.997 258.593C126.88 258.505 126.762 258.417 126.615 258.358C126.35 258.211 126.115 258.123 125.792 258.035C125.85 258.064 125.88 258.064 125.909 258.123C125.674 258.094 125.262 257.917 124.645 257.888C124.792 257.917 124.998 257.947 125.145 257.976L125.292 258.035C125.203 258.035 124.939 257.976 124.821 257.947C124.292 257.858 123.969 257.77 123.41 257.77C123.028 257.77 122.704 257.77 122.322 257.947C122.087 258.045 121.871 258.172 121.675 258.329C121.587 258.388 121.557 258.417 121.499 258.476C121.646 258.388 121.969 258.064 122.292 258.005C121.793 258.299 121.41 258.564 121.057 258.946C121.146 258.888 121.293 258.77 121.381 258.682C121.499 258.593 121.616 258.505 121.763 258.417C121.969 258.27 122.322 258.064 122.616 258.005C122.557 258.064 122.381 258.152 122.292 258.182C121.675 258.535 121.057 258.946 120.528 259.417C120.469 259.446 120.322 259.593 120.293 259.623C120.352 259.593 120.587 259.417 120.646 259.358C121.057 259.093 121.44 258.829 121.91 258.711C121.793 258.799 120.91 259.152 120.616 259.417L121.381 259.035C121.616 258.917 121.998 258.77 122.263 258.711C121.969 258.77 120.852 259.299 120.616 259.476C120.734 259.446 120.91 259.358 121.028 259.299C121.185 259.221 121.342 259.152 121.499 259.093C121.822 258.976 122.145 258.887 122.498 258.829C122.939 258.77 123.38 258.799 123.821 258.829C123.939 258.858 124.116 258.887 124.233 258.887C124.145 258.829 123.939 258.829 123.851 258.799C123.596 258.76 123.341 258.74 123.086 258.74C122.998 258.74 122.792 258.77 122.704 258.77C122.998 258.682 123.233 258.711 123.498 258.682C123.469 258.682 123.498 258.682 123.469 258.682C123.439 258.652 123.469 258.652 123.439 258.652C123.616 258.652 123.91 258.711 124.057 258.74C124.263 258.77 124.615 258.917 124.615 258.917C124.586 258.888 124.557 258.858 124.498 258.829L124.939 258.946L124.41 258.74C124.527 258.74 124.645 258.799 124.762 258.829C124.88 258.858 125.145 258.946 125.262 258.976C125.409 259.035 125.674 259.064 125.821 259.064C125.762 259.035 125.586 259.005 125.498 258.976L125.233 258.858C125.174 258.829 125.115 258.829 125.086 258.799C124.939 258.74 124.792 258.682 124.645 258.623C124.41 258.535 123.674 258.299 123.41 258.388C123.763 258.27 124.468 258.505 124.704 258.593L125.292 258.829C125.351 258.858 125.38 258.858 125.439 258.887C125.586 258.946 125.733 259.005 125.88 259.064L125.85 259.035C125.85 259.015 125.85 259.005 125.85 259.005C125.909 259.035 126.056 259.093 126.115 259.093C125.997 258.976 125.645 258.858 125.527 258.682C125.645 258.74 125.792 258.829 125.88 258.917C125.939 258.946 125.968 258.946 125.997 258.976C125.909 258.799 125.733 258.652 125.586 258.564L125.409 258.446C125.556 258.476 125.703 258.593 125.821 258.682C125.919 258.799 126.017 258.907 126.115 259.005C126.115 259.035 126.115 259.035 126.144 259.035C126.144 259.064 126.144 259.035 126.174 259.064L126.027 258.829C126.056 258.887 126.233 259.064 126.233 259.123C126.233 259.005 126.144 258.917 126.086 258.799L126.174 258.887C126.056 258.652 125.733 258.476 125.527 258.329C125.733 258.358 126.086 258.652 126.203 258.829C126.262 258.917 126.321 259.035 126.38 259.093L126.321 258.917L126.409 259.035C126.35 258.799 126.233 258.682 126.115 258.535C126.174 258.564 126.203 258.593 126.262 258.652C126.301 258.691 126.34 258.731 126.38 258.77C126.458 258.888 126.517 259.015 126.556 259.152C126.556 259.093 126.527 259.005 126.527 258.917C126.556 258.946 126.527 258.917 126.556 258.946C126.615 258.976 126.644 259.064 126.703 259.123L126.674 259.005L126.762 259.123C126.733 259.005 126.703 258.946 126.674 258.829C126.733 258.887 126.791 258.976 126.821 259.093C126.821 259.035 126.821 258.976 126.791 258.917L126.909 259.035C126.929 259.074 126.948 259.113 126.968 259.152C126.938 259.035 126.88 258.946 126.85 258.858C126.968 258.946 126.997 259.035 127.085 259.182C127.056 259.035 126.968 258.829 126.88 258.74C126.997 258.77 127.085 259.093 127.144 259.152V259.005C127.144 259.035 127.144 259.005 127.144 259.035L127.232 259.182V259.005C127.262 259.035 127.262 259.093 127.321 259.182C127.291 259.182 127.321 259.035 127.291 258.946C127.321 258.946 127.291 258.946 127.321 258.976C127.379 259.035 127.409 259.093 127.438 259.152L127.379 259.005C127.409 259.005 127.409 259.005 127.409 259.035L127.468 259.093Z" fill="#125AA3"/>
<path d="M134.496 259.652C135.025 259.711 135.378 260.328 135.319 261.034C135.26 261.74 134.819 262.269 134.32 262.181C133.82 262.122 133.437 261.475 133.496 260.799C133.555 260.064 133.996 259.564 134.496 259.652Z" fill="#BBDBFA"/>
<path d="M134.32 262.181C134.819 262.269 135.26 261.74 135.319 261.034C135.378 260.328 135.025 259.711 134.496 259.623C134.29 259.623 134.084 259.681 133.937 259.828H133.996C134.173 259.858 134.29 260.064 134.261 260.269C134.231 260.505 134.084 260.681 133.937 260.652C133.761 260.622 133.643 260.416 133.673 260.211V260.152C133.584 260.328 133.526 260.534 133.496 260.769C133.437 261.475 133.82 262.122 134.32 262.181Z" fill="#125AA3"/>
<path d="M132.379 259.24C132.359 259.26 132.339 259.28 132.32 259.299C132.349 259.182 132.437 259.035 132.496 258.946C132.437 258.976 132.437 259.005 132.379 259.064C132.349 259.152 132.32 259.211 132.29 259.299C132.29 259.211 132.32 259.152 132.32 259.064C132.29 259.123 132.261 259.24 132.261 259.299C132.261 259.064 132.29 259.064 132.349 258.829C132.261 258.887 132.202 259.123 132.202 259.27C132.173 259.211 132.173 259.123 132.173 259.064C132.143 259.152 132.143 259.182 132.143 259.27L132.085 259.182C132.114 259.24 132.114 259.27 132.114 259.299C132.026 259.211 131.879 258.887 131.908 258.711C131.908 258.77 131.938 258.917 131.967 258.976C131.967 258.829 131.938 258.711 131.967 258.564C131.967 258.652 131.967 258.77 131.996 258.858C131.996 258.976 132.026 259.093 132.055 259.152C132.026 258.946 131.996 258.77 132.055 258.535V258.593C132.055 258.711 132.055 258.829 132.055 258.917C132.085 258.74 132.085 258.564 132.202 258.417C132.173 258.476 132.143 258.535 132.114 258.623C132.173 258.535 132.202 258.388 132.29 258.358C132.261 258.446 132.232 258.476 132.173 258.593C132.143 258.682 132.085 258.799 132.085 258.917C132.173 258.564 132.32 258.358 132.496 258.299C132.437 258.329 132.29 258.476 132.29 258.564V258.593C132.29 258.682 132.29 258.505 132.29 258.623C132.261 258.652 132.202 258.711 132.173 258.77C132.173 258.809 132.163 258.858 132.143 258.917V258.976C132.143 259.005 132.143 259.005 132.143 259.034C132.202 258.799 132.261 258.682 132.349 258.535C132.437 258.476 132.614 258.329 132.702 258.299L132.614 258.358C132.408 258.505 132.232 258.682 132.173 259.005C132.173 259.005 132.173 259.005 132.173 258.976C132.192 258.976 132.202 258.966 132.202 258.946C132.232 258.858 132.29 258.77 132.349 258.682C132.408 258.593 132.467 258.505 132.555 258.446C132.614 258.388 132.908 258.241 133.055 258.241C132.996 258.241 132.731 258.358 132.702 258.388C132.614 258.446 132.467 258.535 132.408 258.652C132.437 258.623 132.496 258.593 132.526 258.564C132.761 258.417 133.202 258.182 133.437 258.211C133.29 258.27 133.055 258.358 132.937 258.446L133.025 258.417C133.006 258.437 132.986 258.456 132.967 258.476C132.947 258.495 132.918 258.515 132.878 258.535C132.761 258.652 132.555 258.829 132.467 259.034C132.496 258.976 132.555 258.917 132.584 258.887C132.643 258.829 132.673 258.799 132.731 258.74C132.82 258.652 132.908 258.564 132.996 258.505C133.202 258.388 133.378 258.27 133.584 258.211C133.555 258.211 133.525 258.241 133.496 258.27C133.672 258.27 133.966 258.064 134.437 258.035C134.319 258.094 134.172 258.123 134.055 258.152L133.966 258.211C134.025 258.211 134.202 258.152 134.29 258.123C134.672 258.005 134.907 257.947 135.319 257.947C135.584 257.947 135.819 257.947 136.084 258.123C136.26 258.211 136.407 258.329 136.554 258.505C136.613 258.564 136.613 258.593 136.672 258.652C136.554 258.593 136.319 258.241 136.084 258.182C136.466 258.476 136.73 258.74 136.966 259.123C136.907 259.064 136.819 258.946 136.73 258.858C136.672 258.77 136.583 258.682 136.495 258.593C136.319 258.446 136.084 258.241 135.878 258.182C135.907 258.241 136.054 258.329 136.113 258.358C136.554 258.711 136.966 259.123 137.348 259.593C137.377 259.623 137.466 259.77 137.524 259.799C137.466 259.77 137.319 259.593 137.26 259.564C136.966 259.27 136.701 259.034 136.348 258.887C136.436 258.976 137.083 259.329 137.26 259.593L136.73 259.211C136.583 259.093 136.289 258.917 136.113 258.887C136.319 258.946 137.113 259.476 137.289 259.652C137.201 259.623 137.083 259.534 136.966 259.476C136.868 259.397 136.76 259.329 136.642 259.27C136.436 259.152 136.201 259.064 135.937 259.005C135.613 258.946 135.319 258.976 134.996 259.005C134.907 259.005 134.79 259.034 134.702 259.034C134.76 259.005 134.907 258.976 134.966 258.976C135.143 258.936 135.329 258.917 135.525 258.917C135.584 258.917 135.731 258.946 135.789 258.917C135.584 258.858 135.407 258.887 135.231 258.858C135.231 258.858 135.231 258.858 135.26 258.829C135.143 258.799 134.937 258.858 134.819 258.917C134.702 258.946 134.437 259.093 134.407 259.093C134.466 259.064 134.466 259.034 134.496 259.005L134.202 259.093L134.584 258.917C134.496 258.917 134.407 258.976 134.319 259.005C134.231 259.034 134.055 259.093 133.966 259.152C133.849 259.182 133.672 259.24 133.555 259.24C133.614 259.211 133.731 259.152 133.79 259.123L133.996 259.034C134.025 259.005 134.055 259.005 134.113 258.976C134.202 258.887 134.29 258.858 134.407 258.799C134.584 258.682 135.113 258.476 135.29 258.564C135.054 258.446 134.555 258.652 134.378 258.77L133.937 259.005C133.898 259.025 133.868 259.044 133.849 259.064C133.731 259.123 133.643 259.182 133.525 259.211V259.182C133.496 259.211 133.378 259.27 133.349 259.27C133.437 259.123 133.702 259.034 133.79 258.858C133.702 258.887 133.584 259.005 133.525 259.064C133.496 259.093 133.467 259.123 133.437 259.152C133.496 258.976 133.643 258.829 133.761 258.711L133.878 258.623C133.761 258.623 133.643 258.77 133.555 258.858C133.496 258.956 133.427 259.064 133.349 259.182C133.349 259.182 133.349 259.182 133.349 259.211C133.32 259.211 133.32 259.211 133.32 259.211L133.408 259.005C133.408 259.034 133.261 259.211 133.261 259.27C133.29 259.152 133.32 259.064 133.378 258.976L133.32 259.034C133.408 258.799 133.643 258.652 133.79 258.505C133.643 258.535 133.378 258.799 133.29 258.976C133.231 259.064 133.202 259.182 133.173 259.24L133.202 259.064C133.202 259.064 133.202 259.074 133.202 259.093L133.143 259.182C133.202 258.976 133.261 258.858 133.378 258.711C133.32 258.711 133.29 258.77 133.261 258.799C133.222 258.838 133.192 258.887 133.173 258.946C133.114 259.044 133.065 259.162 133.025 259.299C133.025 259.24 133.055 259.152 133.055 259.093C133.025 259.093 133.055 259.093 133.025 259.093C132.996 259.152 132.967 259.24 132.937 259.299L132.967 259.152L132.878 259.299C132.908 259.182 132.937 259.093 132.967 259.005C132.908 259.034 132.878 259.152 132.849 259.24C132.849 259.182 132.849 259.123 132.878 259.064L132.79 259.182C132.761 259.211 132.761 259.27 132.731 259.299C132.761 259.182 132.79 259.123 132.849 259.034C132.761 259.093 132.731 259.211 132.673 259.329C132.673 259.182 132.761 258.976 132.82 258.917C132.731 258.917 132.673 259.24 132.614 259.299V259.182L132.555 259.329V259.152C132.526 259.211 132.526 259.27 132.496 259.329C132.496 259.329 132.496 259.182 132.526 259.093C132.496 259.123 132.526 259.093 132.496 259.123C132.437 259.182 132.437 259.24 132.408 259.299L132.437 259.152C132.437 259.182 132.437 259.182 132.437 259.182L132.379 259.24Z" fill="#125AA3"/>
<path d="M125.057 271.12C129.703 274.315 132.418 274.521 133.202 271.737C129.81 272.09 127.095 271.884 125.057 271.12Z" fill="white"/>
<path d="M268.109 325.9H207.683C206.478 325.9 205.272 326.9 204.949 328.076L194.187 369.036C193.893 370.212 194.598 371.183 195.804 371.183H256.23C257.406 371.183 258.641 370.212 258.964 369.036L269.697 328.076C270.02 326.9 269.285 325.9 268.109 325.9Z" fill="#FBBFA8"/>
<path d="M196.363 354.893L203.655 327.105C203.978 325.9 205.184 324.93 206.389 324.93H210.565H266.815C268.021 324.93 270.138 326.459 269.785 327.635C269.844 326.664 269.138 325.9 268.109 325.9H207.683C206.478 325.9 205.272 326.9 204.949 328.076L194.187 369.036C194.01 369.742 194.187 370.359 194.628 370.771C193.628 370.124 192.687 368.889 192.893 368.036L196.363 354.893Z" fill="#F57A44"/>
<path d="M195.804 371.183H256.23C256.446 371.183 256.661 371.153 256.877 371.094C255.671 374.211 252.407 373.741 251.143 373.741H179.485C175.603 373.564 175.721 370.859 175.662 368.213H192.864C192.805 369.065 193.687 370.183 194.628 370.771C194.922 371.036 195.304 371.183 195.804 371.183Z" fill="#F57A44"/>
<path d="M204.243 342.749C237.529 359.568 237.47 341.984 260.523 351.011L256.024 368.124H197.568L204.243 342.749Z" fill="#F57A44"/>
<path fill-rule="evenodd" clip-rule="evenodd" d="M443.917 226.454C441.976 220.985 439.535 215.751 436.595 210.811H519.486C523.279 210.811 526.572 207.989 527.131 204.254C527.513 201.784 527.601 199.255 527.425 196.697C526.249 181.495 514.457 169.057 499.373 167.087C497.903 166.911 496.442 166.822 494.992 166.822C487.611 166.822 480.525 169.263 474.732 173.909C473.321 175.056 471.586 175.644 469.851 175.644C468.381 175.644 466.881 175.232 465.587 174.379C462.765 172.556 461.412 169.116 462.265 165.852C464.294 157.942 465.205 149.68 464.941 141.27C463.529 95.3994 425.01 57.3208 379.109 56.3798C378.482 56.3798 377.855 56.3798 377.227 56.3798C335.238 56.3798 299.218 85.9312 291.161 127.274C290.455 130.979 287.191 133.596 283.457 133.596C283.241 133.596 283.036 133.586 282.84 133.566C281.369 133.449 280.017 133.39 278.694 133.39C258.111 133.39 239.527 146.357 232.47 165.676C231.706 167.763 230.088 169.41 228.03 170.233C227.089 170.616 226.119 170.821 225.119 170.821C223.943 170.821 222.767 170.557 221.708 170.028C217.268 167.881 212.534 166.822 207.565 166.822C207.016 166.822 206.467 166.832 205.918 166.852C195.303 167.381 185.835 173.35 180.277 181.936V159.677C187.423 154.737 195.95 151.679 205.124 151.209C205.967 151.17 206.8 151.15 207.623 151.15C212.181 151.15 216.65 151.767 220.944 153.002C231.705 132.037 253.376 118.276 277.282 117.747C289.162 72.4052 330.122 40.7073 377.463 40.7073C378.129 40.7073 378.786 40.7171 379.433 40.7367C434.448 41.8541 478.878 85.8136 480.584 140.77C480.731 145.034 480.613 149.268 480.231 153.444C484.936 151.914 489.905 151.15 494.962 151.15C497.08 151.15 499.226 151.268 501.373 151.562C523.808 154.443 541.304 172.939 543.038 195.521C543.333 199.255 543.186 202.96 542.627 206.607C540.921 217.927 530.983 226.454 519.486 226.454H443.917ZM180.307 226.307V210.253C181.189 210.606 182.13 210.811 183.1 210.811H187.129C187.452 213.281 188.011 215.869 188.893 218.633H280.458C279.262 221.181 278.194 223.788 277.253 226.454H183.1C182.159 226.454 181.228 226.405 180.307 226.307Z" fill="#FBBFA8"/>
<path d="M212.005 180.378C213.387 180.672 214.71 181.172 216.004 181.76L236.763 191.816L236.822 191.699L237.352 191.934L245.291 170.322C250.495 156.09 264.168 146.563 279.282 146.563C280.223 146.563 281.223 146.622 282.311 146.71L300.982 148.268L304.57 129.891C306.658 119.217 311.098 109.161 317.449 100.428C314.067 130.626 318.713 154.473 330.563 172.645L330.975 172.498C334.562 178.065 338.816 183.103 343.736 187.611C354.998 197.991 369.642 205.695 387.431 210.929H465.97V210.811H519.486C523.279 210.811 526.572 207.989 527.131 204.254C527.513 201.784 527.602 199.255 527.425 196.697C526.249 181.495 514.458 169.057 499.373 167.087C497.903 166.911 496.443 166.822 494.992 166.822C487.612 166.822 480.525 169.263 474.733 173.909C473.321 175.056 471.586 175.644 469.852 175.644C468.528 175.644 467.176 175.291 465.97 174.615V174.379C463.294 172.527 462.03 169.175 462.853 165.97C464.882 158.119 465.794 149.886 465.529 141.535L464.941 141.505V141.27C464.382 123.245 458.09 106.455 447.887 92.606L448.181 92.3413C435.566 75.4044 417.041 63.0252 395.958 58.4381C390.489 57.2031 384.873 56.4974 379.11 56.3798C378.463 56.3798 377.845 56.3798 377.228 56.3798C335.239 56.3798 299.218 85.9312 291.161 127.274C290.456 130.979 287.192 133.596 283.457 133.596C283.252 133.596 283.046 133.596 282.84 133.566C281.37 133.449 280.017 133.39 278.694 133.39C258.111 133.39 239.527 146.357 232.47 165.676C231.706 167.763 230.089 169.41 228.03 170.233C227.089 170.616 226.09 170.821 225.119 170.821C224.649 170.821 224.188 170.782 223.737 170.704C223.237 170.557 222.767 170.38 222.296 170.145C219.738 168.91 217.063 168.028 214.328 167.499C212.132 167.048 209.888 166.822 207.594 166.822C207.026 166.822 206.467 166.832 205.918 166.852C195.303 167.381 185.835 173.35 180.278 181.936V183.024C177.484 187.67 175.808 193.022 175.691 198.667C175.632 200.579 175.749 202.461 176.014 204.313C176.396 206.871 178.072 209.018 180.278 210.135V210.253C180.748 210.449 181.248 210.596 181.777 210.694C182.395 210.841 183.042 210.929 183.689 210.929H187.688C185.159 191.052 199.126 180.407 207.094 180.025C207.477 179.996 207.8 179.996 208.153 179.996C209.447 179.996 210.741 180.113 212.005 180.378Z" fill="#FFE2DC"/>
<path d="M322.859 95.8993C322.565 89.9597 306.246 115.012 304.158 130.332L300.63 148.592L282.075 147.033C280.987 146.975 280.017 146.916 279.076 146.916C264.051 146.916 250.495 156.355 245.32 170.469L237.44 191.963L216.798 181.995C214.21 180.731 211.417 180.084 208.447 180.084C208.094 180.084 207.771 180.084 207.388 180.113C204.183 180.26 200.008 182.083 196.332 185.524C189.687 190.287 183.806 199.403 185.6 212.605H396.37C377.581 207.371 362.114 199.667 350.235 189.287C311.833 155.708 323.83 94.1939 322.859 95.8993Z" fill="#FBBFA8"/>
<path fill-rule="evenodd" clip-rule="evenodd" d="M159.959 206.489C159.548 203.754 159.371 200.961 159.43 198.197C160.018 173.086 180.072 152.444 205.124 151.209C205.967 151.17 206.81 151.15 207.653 151.15C212.211 151.15 216.651 151.767 220.944 153.002C231.735 132.037 253.406 118.276 277.282 117.747C289.162 72.4052 330.063 40.7073 377.434 40.7073C378.11 40.7073 378.786 40.7073 379.433 40.7367C413.924 41.4424 444.27 58.9674 462.53 85.5195C456.855 86.2252 451.709 88.6364 447.622 92.2237C431.832 71.0526 406.809 56.9679 379.11 56.3798C378.482 56.3798 377.845 56.3798 377.198 56.3798C335.327 56.3798 299.218 85.9312 291.191 127.274C290.456 130.979 287.221 133.596 283.487 133.596C283.281 133.596 283.046 133.596 282.84 133.566C281.37 133.449 280.017 133.39 278.723 133.39C258.14 133.39 239.557 146.357 232.47 165.676C231.706 167.763 230.089 169.41 228.06 170.233C227.089 170.616 226.119 170.821 225.119 170.821C223.943 170.821 222.767 170.557 221.708 170.028C217.268 167.881 212.564 166.793 207.624 166.793C207.055 166.813 206.487 166.832 205.918 166.852C189.305 167.675 175.485 181.907 175.102 198.55C175.044 200.432 175.161 202.343 175.426 204.166C176.014 207.959 179.307 210.811 183.1 210.811C276.812 210.811 371.67 210.37 465.411 210.811V226.454H183.1C171.603 226.454 161.635 217.868 159.959 206.489ZM465.411 174.232C462.706 172.38 461.442 169.028 462.265 165.852C464.294 158.001 465.206 149.768 464.941 141.388C465.098 141.388 465.255 141.398 465.411 141.417V174.232Z" fill="#FBBFA8"/>
<path fill-rule="evenodd" clip-rule="evenodd" d="M52.4281 92.8118V182.172C52.4281 187.964 57.1622 192.728 62.9549 192.728H77.0984C82.891 192.728 87.6545 187.964 87.6545 182.172V92.8118H112.883L70.0413 49.9697L27.1992 92.8118H52.4281ZM95.6819 149.886L138.524 192.728L181.366 149.886H156.137V60.4965C156.137 54.7038 151.374 49.9697 145.581 49.9697H131.438C125.645 49.9697 120.911 54.7038 120.911 60.4965V149.886H95.6819Z" fill="#FBBFA8"/>
</svg>
