<svg version="1.1" id="svg3486" xml:space="preserve" width="300" height="300" viewBox="0 0 682.66669 682.66669" xmlns="http://www.w3.org/2000/svg" xmlns:svg="http://www.w3.org/2000/svg" xmlns:xlink="http://www.w3.org/1999/xlink" xmlns:svgjs="http://svgjs.dev/svgjs"><g width="100%" height="100%" transform="matrix(1,0,0,1,0,0)"><defs id="defs3490"><clipPath clipPathUnits="userSpaceOnUse" id="clipPath3500"><path d="M 0,512 H 512 V 0 H 0 Z" id="path3498" fill="#009dc9" fill-opacity="1" data-original-color="#000000ff" stroke="none" stroke-opacity="1"/></clipPath></defs><g id="g3492" transform="matrix(1.3333333,0,0,-1.3333333,0,682.66667)"><g id="g3494"><g id="g3496" clip-path="url(#clipPath3500)"><g id="g3502" transform="translate(276.7344,239.6016)"><path d="M 0,0 C 52.27,-6.747 99.721,-39.315 101.877,-98.162 69.051,-109.5 32.117,-115.764 -5.301,-116.983" style="stroke-linecap: round; stroke-linejoin: round; stroke-miterlimit: 10; stroke-dasharray: none;" id="path3504" fill="none" fill-opacity="1" stroke="#009dc9" stroke-opacity="1" data-original-stroke-color="#000000ff" stroke-width="20" data-original-stroke-width="20"/></g><g id="g3506" transform="translate(170.3535,131.4346)"><path d="M 0,0 V 29.677" style="stroke-linecap: round; stroke-linejoin: round; stroke-miterlimit: 10; stroke-dasharray: none;" id="path3508" fill="none" fill-opacity="1" stroke="#009dc9" stroke-opacity="1" data-original-stroke-color="#000000ff" stroke-width="20" data-original-stroke-width="20"/></g><g id="g3510" transform="translate(339.8613,131.377)"><path d="M 0,0 V 29.679" style="stroke-linecap: round; stroke-linejoin: round; stroke-miterlimit: 10; stroke-dasharray: none;" id="path3512" fill="none" fill-opacity="1" stroke="#009dc9" stroke-opacity="1" data-original-stroke-color="#000000ff" stroke-width="20" data-original-stroke-width="20"/></g><g id="g3514" transform="translate(235.5479,239.5732)"><path d="m 0,0 c -52.24,-6.774 -99.749,-39.458 -101.903,-98.274 32.824,-11.339 69.759,-17.603 107.148,-18.823" style="stroke-linecap: round; stroke-linejoin: round; stroke-miterlimit: 10; stroke-dasharray: none;" id="path3516" fill="none" fill-opacity="1" stroke="#009dc9" stroke-opacity="1" data-original-stroke-color="#000000ff" stroke-width="20" data-original-stroke-width="20"/></g><g id="g3518" transform="translate(42.2012,223.8125)"><path d="M 0,0 C 17.717,0 32.201,14.457 32.201,32.201 32.201,49.918 17.717,64.402 0,64.402 -17.745,64.402 -32.201,49.918 -32.201,32.201 -32.201,14.457 -17.745,0 0,0 Z" style="stroke-linecap: round; stroke-linejoin: round; stroke-miterlimit: 10; stroke-dasharray: none;" id="path3520" fill="none" fill-opacity="1" stroke="#009dc9" stroke-opacity="1" data-original-stroke-color="#000000ff" stroke-width="20" data-original-stroke-width="20"/></g><g id="g3522" transform="translate(469.7988,223.8125)"><path d="M 0,0 C 17.717,0 32.201,14.457 32.201,32.201 32.201,49.918 17.717,64.402 0,64.402 -17.744,64.402 -32.201,49.918 -32.201,32.201 -32.201,14.457 -17.744,0 0,0 Z" style="stroke-linecap: round; stroke-linejoin: round; stroke-miterlimit: 10; stroke-dasharray: none;" id="path3524" fill="none" fill-opacity="1" stroke="#009dc9" stroke-opacity="1" data-original-stroke-color="#000000ff" stroke-width="20" data-original-stroke-width="20"/></g><g id="g3526" transform="translate(223.7852,42.2012)"><path d="M 0,0 C 0,17.802 14.427,32.201 32.2,32.201 50.002,32.201 64.401,17.802 64.401,0 64.401,-17.772 50.002,-32.201 32.2,-32.201 14.427,-32.201 0,-17.772 0,0 Z" style="stroke-linecap: round; stroke-linejoin: round; stroke-miterlimit: 10; stroke-dasharray: none;" id="path3528" fill="none" fill-opacity="1" stroke="#009dc9" stroke-opacity="1" data-original-stroke-color="#000000ff" stroke-width="20" data-original-stroke-width="20"/></g><g id="g3530" transform="translate(223.7852,469.7988)"><path d="M 0,0 C 0,17.801 14.427,32.201 32.2,32.201 50.002,32.201 64.401,17.801 64.401,0 64.401,-17.773 50.002,-32.201 32.2,-32.201 14.427,-32.201 0,-17.773 0,0 Z" style="stroke-linecap: round; stroke-linejoin: round; stroke-miterlimit: 10; stroke-dasharray: none;" id="path3532" fill="none" fill-opacity="1" stroke="#009dc9" stroke-opacity="1" data-original-stroke-color="#000000ff" stroke-width="20" data-original-stroke-width="20"/></g><g id="g3534" transform="translate(82.3965,131.207)"><path d="m 0,0 c -19.361,26.9 -32.627,58.478 -37.786,92.691 16.639,1.219 29.792,15.137 29.792,32.116 0,16.979 -13.153,30.869 -29.792,32.116 13.918,92.35 86.908,165.37 179.26,179.26 1.248,-16.639 15.135,-29.792 32.115,-29.792 16.979,0 30.898,13.153 32.116,29.792 92.379,-13.89 165.371,-86.91 179.288,-179.26 -16.667,-1.247 -29.792,-15.137 -29.792,-32.116 0,-16.979 13.125,-30.897 29.792,-32.116 -13.917,-92.379 -86.909,-165.37 -179.288,-179.288 -1.218,16.667 -15.137,29.792 -32.116,29.792 -16.98,0 -30.867,-13.125 -32.115,-29.792 -30.019,4.535 -57.997,15.308 -82.572,30.954" style="stroke-linecap: round; stroke-linejoin: round; stroke-miterlimit: 10; stroke-dasharray: none;" id="path3536" fill="none" fill-opacity="1" stroke="#009dc9" stroke-opacity="1" data-original-stroke-color="#000000ff" stroke-width="20" data-original-stroke-width="20"/></g><g id="g3538" transform="translate(235.5479,239.5732)"><path d="M 0,0 6.009,-41.045 H 20.58 35.149 l 6.038,41.073" style="stroke-linecap: round; stroke-linejoin: round; stroke-miterlimit: 10; stroke-dasharray: none;" id="path3540" fill="none" fill-opacity="1" stroke="#009dc9" stroke-opacity="1" data-original-stroke-color="#000000ff" stroke-width="20" data-original-stroke-width="20"/></g><g id="g3542" transform="translate(256.1279,122.2773)"><path d="m 0,0 c 5.102,-0.027 10.204,0.029 15.306,0.171 l 7.825,18.481 -8.562,57.599 m -29.14,0 -8.561,-57.599 7.797,-18.481 C -10.232,0.029 -5.103,-0.027 0,0" style="stroke-linecap: round; stroke-linejoin: round; stroke-miterlimit: 10; stroke-dasharray: none;" id="path3544" fill="none" fill-opacity="1" stroke="#009dc9" stroke-opacity="1" data-original-stroke-color="#000000ff" stroke-width="20" data-original-stroke-width="20"/></g><g id="g3546" transform="translate(323.4492,323.165)"><path d="M 0,0 C 1.587,103.746 -135.21,94.138 -135.21,15.449 V 0 c 0,0 24.916,-3.175 24.661,21.798 C -97.793,8.986 -80.219,0 -53.631,0 Z" style="stroke-linecap: round; stroke-linejoin: round; stroke-miterlimit: 10; stroke-dasharray: none;" id="path3548" fill="none" fill-opacity="1" stroke="#009dc9" stroke-opacity="1" data-original-stroke-color="#000000ff" stroke-width="20" data-original-stroke-width="20"/></g><g id="g3550" transform="translate(323.4492,323.165)"><path d="m 0,0 v -25.568 c 0,-20.069 -11.99,-38.039 -28.8,-49.265 -11.451,-7.625 -25.143,-12.16 -38.805,-12.075 -33.987,0.226 -67.605,27.751 -67.605,61.34 V 0" style="stroke-linecap: round; stroke-linejoin: round; stroke-miterlimit: 10; stroke-dasharray: none;" id="path3552" fill="none" fill-opacity="1" stroke="#009dc9" stroke-opacity="1" data-original-stroke-color="#000000ff" stroke-width="20" data-original-stroke-width="20"/></g><g id="g3554" transform="translate(109.5508,100.2539)"><path d="M 0,0 0.142,-0.142" style="stroke-linecap: round; stroke-linejoin: round; stroke-miterlimit: 10; stroke-dasharray: none;" id="path3556" fill="none" fill-opacity="1" stroke="#009dc9" stroke-opacity="1" data-original-stroke-color="#000000ff" stroke-width="20" data-original-stroke-width="20"/></g></g></g></g></g></svg>