<svg id="Layer_1" height="300" viewBox="0 0 512 512" width="300" xmlns="http://www.w3.org/2000/svg" data-name="Layer 1" version="1.1" xmlns:xlink="http://www.w3.org/1999/xlink" xmlns:svgjs="http://svgjs.dev/svgjs"><g width="100%" height="100%" transform="matrix(1,0,0,1,0,0)"><path d="m128.349 289.18c0-3.313 2.687-6 6-6h.666c3.314 0 6 2.687 6 6s-2.686 6-6 6h-.666c-3.313 0-6-2.687-6-6zm165.296-4.337h76.272c3.313 0 6-2.687 6-6s-2.687-6-6-6h-76.272c-3.313 0-6 2.687-6 6s2.687 6 6 6zm-113.739 10.337h.666c3.314 0 6-2.687 6-6s-2.686-6-6-6h-.666c-3.313 0-6 2.687-6 6s2.687 6 6 6zm-45.558-20.673h.666c3.314 0 6-2.687 6-6s-2.686-6-6-6h-.666c-3.313 0-6 2.687-6 6s2.687 6 6 6zm22.779 20.673h.666c3.314 0 6-2.687 6-6s-2.686-6-6-6h-.666c-3.313 0-6 2.687-6 6s2.687 6 6 6zm22.779-20.673h.666c3.314 0 6-2.687 6-6s-2.686-6-6-6h-.666c-3.313 0-6 2.687-6 6s2.687 6 6 6zm-22.779 0h.666c3.314 0 6-2.687 6-6s-2.686-6-6-6h-.666c-3.313 0-6 2.687-6 6s2.687 6 6 6zm-22.779 188.74h.666c3.314 0 6-2.687 6-6s-2.686-6-6-6h-.666c-3.313 0-6 2.687-6 6s2.687 6 6 6zm159.296 10.336h76.272c3.313 0 6-2.687 6-6s-2.687-6-6-6h-76.272c-3.313 0-6 2.687-6 6s2.687 6 6 6zm-159.296 10.337h.666c3.314 0 6-2.687 6-6s-2.686-6-6-6h-.666c-3.313 0-6 2.687-6 6s2.687 6 6 6zm45.558-20.673h.666c3.314 0 6-2.687 6-6s-2.686-6-6-6h-.666c-3.313 0-6 2.687-6 6s2.687 6 6 6zm-22.779 0h.666c3.314 0 6-2.687 6-6s-2.686-6-6-6h-.666c-3.313 0-6 2.687-6 6s2.687 6 6 6zm22.779 20.673h.666c3.314 0 6-2.687 6-6s-2.686-6-6-6h-.666c-3.313 0-6 2.687-6 6s2.687 6 6 6zm-22.779 0h.666c3.314 0 6-2.687 6-6s-2.686-6-6-6h-.666c-3.313 0-6 2.687-6 6s2.687 6 6 6zm3.867-115.043h.666c3.314 0 6-2.687 6-6s-2.686-6-6-6h-.666c-3.313 0-6 2.687-6 6s2.687 6 6 6zm0 20.673h.666c3.314 0 6-2.687 6-6s-2.686-6-6-6h-.666c-3.313 0-6 2.687-6 6s2.687 6 6 6zm-22.779-20.673h.667c3.314 0 6-2.687 6-6s-2.686-6-6-6h-.667c-3.313 0-6 2.687-6 6s2.687 6 6 6zm0 20.673h.667c3.314 0 6-2.687 6-6s-2.686-6-6-6h-.667c-3.313 0-6 2.687-6 6s2.687 6 6 6zm159.296-10.337h76.273c3.313 0 6-2.687 6-6s-2.687-6-6-6h-76.273c-3.313 0-6 2.687-6 6s2.687 6 6 6zm-113.738 10.337h.666c3.314 0 6-2.687 6-6s-2.686-6-6-6h-.666c-3.313 0-6 2.687-6 6s2.687 6 6 6zm0-20.673h.666c3.314 0 6-2.687 6-6s-2.686-6-6-6h-.666c-3.313 0-6 2.687-6 6s2.687 6 6 6zm322.239-25.604c-1.608 3.271-4.874 5.305-8.521 5.305h-9.735v85.138c0 7.164-5.829 12.992-12.993 12.992h-24.906c-7.164 0-12.992-5.828-12.992-12.992v-85.138h-9.735c-3.647 0-6.912-2.033-8.521-5.306-1.61-3.27-1.228-7.099 1-9.987l35.179-45.652c1.811-2.352 4.553-3.7 7.522-3.7s5.712 1.35 7.523 3.702l35.178 45.651c2.227 2.888 2.61 6.715 1 9.987zm-13.612-6.695-30.09-39.047-30.089 39.047h10.645c3.313 0 6 2.687 6 6v91.138c0 .538.455.992.992.992h24.906c.538 0 .993-.454.993-.992v-91.138c0-3.313 2.687-6 6-6h10.644zm-126.683-113.193v16.5h26.957c8.119 0 14.725 6.605 14.725 14.725v48.465c0 8.119-6.605 14.725-14.725 14.725h-26.957v16.456h26.957c8.119 0 14.725 6.605 14.725 14.725v48.465c0 8.119-6.605 14.725-14.725 14.725h-26.957v16.456h26.957c8.119 0 14.725 6.605 14.725 14.725v48.465c0 8.119-6.605 14.725-14.725 14.725h-273.348c-8.119 0-14.725-6.605-14.725-14.725v-48.465c0-8.119 6.605-14.725 14.725-14.725h26.957v-16.456h-26.957c-8.119 0-14.725-6.605-14.725-14.725v-48.465c0-8.119 6.605-14.725 14.725-14.725h26.957v-16.456h-26.957c-8.119 0-14.725-6.605-14.725-14.725v-48.465c0-8.119 6.605-14.725 14.725-14.725h26.957v-16.519c-28.665-1.223-51.646-24.985-51.646-53.845 0-27.116 20.281-49.744 46.471-53.395-1.25-11.609 1.444-23.695 7.734-34.049 7.363-12.121 18.971-20.815 31.847-23.856 13.429-3.17 27.969-.688 39.925 6.477 3.501-15.91 12.017-30.205 24.584-40.993 15.211-13.058 34.6-19.469 54.598-18.055 19.997 1.414 38.292 10.491 51.514 25.558 11.873 13.53 18.425 30.488 18.773 48.297 36.902 3.111 65.978 34.14 65.978 71.833 0 39.165-31.399 71.113-70.343 72.047zm-217.502-11.956h215.755c33.134 0 60.09-26.957 60.09-60.091s-26.956-60.089-60.09-60.089c-1.653 0-3.233-.682-4.367-1.886s-1.721-2.822-1.622-4.472c2.07-34.645-24.412-64.823-59.032-67.271-34.621-2.441-65.084 23.703-67.91 58.294-.186 2.278-1.65 4.253-3.776 5.092-2.126.84-4.544.398-6.237-1.138-7.837-7.114-18.197-11.014-28.5-11.014-3.054 0-6.103.342-9.079 1.045-9.769 2.307-18.644 9.016-24.35 18.408-5.902 9.715-7.765 21.32-5.112 31.838.45 1.786.056 3.68-1.07 5.137s-2.859 2.316-4.7 2.331c-22.926.181-41.578 18.979-41.578 41.907s18.652 41.727 41.578 41.907zm244.459 229.196h-273.348c-1.477 0-2.725 1.248-2.725 2.725v48.465c0 1.477 1.248 2.725 2.725 2.725h273.348c1.477 0 2.725-1.248 2.725-2.725v-48.465c0-1.477-1.248-2.725-2.725-2.725zm-38.957-28.456h-195.434v16.456h195.435v-16.456zm38.957-65.914h-273.348c-1.477 0-2.725 1.248-2.725 2.725v48.465c0 1.477 1.248 2.725 2.725 2.725h273.348c1.477 0 2.725-1.248 2.725-2.725v-48.465c0-1.477-1.248-2.725-2.725-2.725zm-38.957-28.456h-195.434v16.456h195.435v-16.456zm38.957-65.914h-273.348c-1.477 0-2.725 1.248-2.725 2.725v48.465c0 1.477 1.248 2.725 2.725 2.725h273.348c1.477 0 2.725-1.248 2.725-2.725v-48.465c0-1.477-1.248-2.725-2.725-2.725zm-38.957-12v-16.456h-195.434v16.456h195.435zm-68.264-198.196c11.766-2.249 23.13.04 32.001 6.445 8.846 6.387 14.539 16.132 16.03 27.439.398 3.019 2.976 5.216 5.941 5.216.261 0 .526-.017.792-.052 3.285-.434 5.597-3.448 5.164-6.733-1.899-14.404-9.518-27.379-20.902-35.599-11.576-8.358-26.235-11.379-41.279-8.502-3.255.622-5.389 3.765-4.767 7.02s3.767 5.388 7.02 4.767zm-192.063 345.678c1.61 3.274 1.227 7.102-1 9.989l-35.179 45.652c-1.812 2.352-4.553 3.7-7.521 3.7s-5.71-1.349-7.522-3.7l-35.181-45.653c-2.226-2.887-2.609-6.714-1-9.987 1.612-3.273 4.876-5.305 8.521-5.305h9.735v-85.138c0-7.164 5.828-12.992 12.992-12.992h24.906c7.164 0 12.992 5.828 12.992 12.992v85.138h9.735c3.646 0 6.911 2.032 8.521 5.304zm-13.612 6.696h-10.645c-3.313 0-6-2.687-6-6v-91.138c0-.538-.455-.992-.992-.992h-24.906c-.538 0-.992.454-.992.992v91.138c0 3.313-2.686 6-6 6h-10.645l30.09 39.047 30.089-39.047z" fill="#009dc9" fill-opacity="1" data-original-color="#000000ff" stroke="none" stroke-opacity="1"/></g></svg>