<svg version="1.1" id="svg336" xml:space="preserve" width="300" height="300" viewBox="0 0 682.66669 682.66669" xmlns="http://www.w3.org/2000/svg" xmlns:svg="http://www.w3.org/2000/svg" xmlns:xlink="http://www.w3.org/1999/xlink" xmlns:svgjs="http://svgjs.dev/svgjs"><g width="100%" height="100%" transform="matrix(1,0,0,1,0,0)"><defs id="defs340"><clipPath clipPathUnits="userSpaceOnUse" id="clipPath350"><path d="M 0,512 H 512 V 0 H 0 Z" id="path348" fill="#009dc9" fill-opacity="1" data-original-color="#000000ff" stroke="none" stroke-opacity="1"/></clipPath></defs><g id="g342" transform="matrix(1.3333333,0,0,-1.3333333,0,682.66667)"><g id="g344"><g id="g346" clip-path="url(#clipPath350)"><g id="g352" transform="translate(113.8291,205.7681)"><path d="m 0,0 h -36.146 c -37.38,0 -67.683,30.261 -67.683,67.59 0,27.718 16.707,51.538 40.612,61.967 -0.656,3.779 -1,7.666 -1,11.633 0,37.329 30.303,67.59 67.683,67.59 14.98,0 28.823,-4.861 40.035,-13.088 11.346,57.313 61.958,100.531 122.68,100.531 68.569,0 124.248,-55.111 125.048,-123.397 3.314,0.384 6.685,0.581 10.102,0.581 47.95,0 86.822,-38.819 86.822,-86.703 0,-22.062 -8.251,-42.199 -21.84,-57.502" style="stroke-linecap: round; stroke-linejoin: round; stroke-miterlimit: 10; stroke-dasharray: none;" id="path354" fill="none" fill-opacity="1" stroke="#009dc9" stroke-opacity="1" data-original-stroke-color="#000000ff" stroke-width="20" data-original-stroke-width="20"/></g><g id="g356" transform="translate(159.2168,205.7681)"><path d="M 0,0 V 0" style="stroke-linecap: round; stroke-linejoin: round; stroke-miterlimit: 10; stroke-dasharray: none;" id="path358" fill="none" fill-opacity="1" stroke="#009dc9" stroke-opacity="1" data-original-stroke-color="#000000ff" stroke-width="20" data-original-stroke-width="20"/></g><g id="g360" transform="translate(197.75,86.751)"><path d="m 0,0 c 0,4.799 -0.439,9.497 -1.285,14.053 l -9.571,2.475 c -1.592,6.385 -4.125,12.579 -7.596,18.369 l 5.239,8.185 c -5.452,8.033 -12.39,14.977 -20.414,20.435 l -8.178,-5.245 c -5.784,3.474 -11.972,6.01 -18.351,7.603 l -2.473,9.581 c -4.552,0.847 -9.245,1.286 -14.039,1.286 -4.793,0 -9.487,-0.439 -14.039,-1.286 l -2.473,-9.581 c -6.378,-1.593 -12.566,-4.129 -18.351,-7.603 l -8.177,5.245 c -8.024,-5.458 -14.962,-12.402 -20.414,-20.435 l 5.239,-8.185 c -3.471,-5.79 -6.005,-11.984 -7.596,-18.369 l -9.571,-2.475 c -0.846,-4.556 -1.285,-9.254 -1.285,-14.053 0,-4.798 0.439,-9.497 1.285,-14.052 l 9.571,-2.475 c 1.591,-6.386 4.125,-12.579 7.596,-18.37 l -5.239,-8.185 c 5.452,-8.033 12.39,-14.977 20.414,-20.434 l 8.177,5.244 c 5.785,-3.474 11.973,-6.01 18.351,-7.603 l 2.473,-9.581 c 4.552,-0.846 9.246,-1.286 14.039,-1.286 4.794,0 9.487,0.44 14.039,1.286 l 2.473,9.581 c 6.379,1.593 12.567,4.129 18.351,7.603 l 8.178,-5.244 c 8.024,5.457 14.962,12.401 20.414,20.434 l -5.239,8.185 c 3.471,5.791 6.004,11.984 7.596,18.37 l 9.571,2.475 C -0.439,-9.497 0,-4.798 0,0 Z" style="stroke-linecap: round; stroke-linejoin: round; stroke-miterlimit: 10; stroke-dasharray: none;" id="path362" fill="none" fill-opacity="1" stroke="#009dc9" stroke-opacity="1" data-original-stroke-color="#000000ff" stroke-width="20" data-original-stroke-width="20"/></g><g id="g364" transform="translate(502,195.7627)"><path d="m 0,0 c 0,9.208 -0.843,18.224 -2.466,26.966 l -18.366,4.75 c -3.055,12.253 -7.917,24.139 -14.576,35.251 l 10.054,15.706 c -10.463,15.415 -23.776,28.74 -39.175,39.213 l -15.692,-10.064 c -11.1,6.666 -22.975,11.533 -35.216,14.591 l -4.745,18.384 c -8.734,1.625 -17.742,2.468 -26.94,2.468 -9.199,0 -18.206,-0.843 -26.94,-2.468 l -4.746,-18.384 c -12.241,-3.058 -24.116,-7.925 -35.216,-14.591 l -15.692,10.064 c -15.399,-10.473 -28.712,-23.798 -39.175,-39.213 l 10.055,-15.706 c -6.659,-11.112 -11.522,-22.998 -14.576,-35.251 l -18.367,-4.75 c -1.623,-8.742 -2.466,-17.758 -2.466,-26.966 0,-9.208 0.843,-18.224 2.466,-26.967 l 18.367,-4.75 c 3.054,-12.252 7.917,-24.139 14.576,-35.25 l -10.055,-15.707 c 10.463,-15.414 23.776,-28.74 39.175,-39.213 l 15.692,10.064 c 11.1,-6.665 22.975,-11.533 35.216,-14.59 l 4.746,-18.385 c 8.734,-1.624 17.741,-2.468 26.94,-2.468 9.198,0 18.206,0.844 26.94,2.468 l 4.745,18.385 c 12.241,3.057 24.116,7.925 35.216,14.59 l 15.692,-10.064 c 15.399,10.473 28.712,23.799 39.175,39.213 l -10.054,15.707 c 6.659,11.111 11.521,22.998 14.576,35.25 l 18.366,4.75 C -0.843,-18.224 0,-9.208 0,0 Z" style="stroke-linecap: round; stroke-linejoin: round; stroke-miterlimit: 10; stroke-dasharray: none;" id="path366" fill="none" fill-opacity="1" stroke="#009dc9" stroke-opacity="1" data-original-stroke-color="#000000ff" stroke-width="20" data-original-stroke-width="20"/></g><g id="g368" transform="translate(442.4619,195.7627)"><path d="m 0,0 c 0,-48.372 -39.213,-87.585 -87.584,-87.585 -48.372,0 -87.585,39.213 -87.585,87.585 0,48.372 39.213,87.584 87.585,87.584 C -39.213,87.584 0,48.372 0,0 Z" style="stroke-linecap: round; stroke-linejoin: round; stroke-miterlimit: 10; stroke-dasharray: none;" id="path370" fill="none" fill-opacity="1" stroke="#009dc9" stroke-opacity="1" data-original-stroke-color="#000000ff" stroke-width="20" data-original-stroke-width="20"/></g><g id="g372" transform="translate(363.8896,219.5283)"><path d="M 0,0 -18.024,-47.532" style="stroke-linecap: round; stroke-linejoin: round; stroke-miterlimit: 10; stroke-dasharray: none;" id="path374" fill="none" fill-opacity="1" stroke="#009dc9" stroke-opacity="1" data-original-stroke-color="#000000ff" stroke-width="20" data-original-stroke-width="20"/></g><g id="g376" transform="translate(392.5527,218.7305)"><path d="M 0,0 13.57,-22.508 0,-45.936" style="stroke-linecap: round; stroke-linejoin: round; stroke-miterlimit: 10; stroke-dasharray: none;" id="path378" fill="none" fill-opacity="1" stroke="#009dc9" stroke-opacity="1" data-original-stroke-color="#000000ff" stroke-width="20" data-original-stroke-width="20"/></g><g id="g380" transform="translate(317.2021,218.7305)"><path d="M 0,0 -13.57,-22.508 0,-45.936" style="stroke-linecap: round; stroke-linejoin: round; stroke-miterlimit: 10; stroke-dasharray: none;" id="path382" fill="none" fill-opacity="1" stroke="#009dc9" stroke-opacity="1" data-original-stroke-color="#000000ff" stroke-width="20" data-original-stroke-width="20"/></g></g></g></g></g></svg>