<svg width="145" height="194" viewBox="0 0 145 194" fill="none" xmlns="http://www.w3.org/2000/svg">
<path opacity="0.2" d="M1.42915 37.7675L19.4855 26.9337C19.8022 26.7437 20.1978 26.7437 20.5145 26.9337L38.5708 37.7675C39.2182 38.1559 39.2182 39.0941 38.5708 39.4825L20.5145 50.3163C20.1978 50.5063 19.8022 50.5063 19.4855 50.3163L1.42915 39.4825C0.781816 39.0941 0.781816 38.1559 1.42915 37.7675Z" fill="#36D9FA"/>
<path opacity="0.2" d="M1.90038 31.2991L19.4876 20.9272C19.8034 20.741 20.1957 20.7424 20.5101 20.9311L38.5708 31.7675C39.2182 32.1559 39.2182 33.0941 38.5708 33.4825L20.5319 44.3058C20.2061 44.5013 19.7976 44.4953 19.4778 44.2902L1.86871 33.0024C1.2413 32.6002 1.25845 31.6777 1.90038 31.2991Z" fill="#36D9FA"/>
<path opacity="0.2" d="M1.90038 26.2991L19.4876 15.9272C19.8034 15.741 20.1957 15.7424 20.5101 15.9311L38.5708 26.7675C39.2182 27.1559 39.2182 28.0941 38.5708 28.4825L20.5319 39.3058C20.2061 39.5013 19.7976 39.4953 19.4778 39.2902L1.86871 28.0024C1.2413 27.6002 1.25845 26.6777 1.90038 26.2991Z" fill="#36D9FA"/>
<path d="M1.90038 20.7991L19.4876 10.4272C19.8034 10.241 20.1957 10.2424 20.5101 10.4311L38.5708 21.2675C39.2182 21.6559 39.2182 22.5941 38.5708 22.9825L20.5319 33.8058C20.2061 34.0013 19.7976 33.9953 19.4778 33.7902L1.86871 22.5024C1.2413 22.1002 1.25845 21.1777 1.90038 20.7991Z" fill="#36D9FA"/>
<ellipse opacity="0.4" cx="20.5" cy="22.125" rx="8" ry="3.5" fill="#FCFCFC"/>
<ellipse opacity="0.4" cx="20.5" cy="22.125" rx="6" ry="2.5" fill="#FCFCFC"/>
<path opacity="0.2" d="M0.5 108.625V38.625L20 50.625V121.125L0.5 108.625Z" fill="url(#paint0_linear_511_3392)"/>
<path opacity="0.2" d="M39.5 108.625V38.625L20 50.625V121.125L39.5 108.625Z" fill="url(#paint1_linear_511_3392)"/>
<path opacity="0.2" d="M35.4292 72.7675L53.4855 61.9337C53.8022 61.7437 54.1978 61.7437 54.5145 61.9337L72.5708 72.7675C73.2182 73.1559 73.2182 74.0941 72.5708 74.4825L54.5145 85.3163C54.1978 85.5063 53.8022 85.5063 53.4855 85.3163L35.4292 74.4825C34.7818 74.0941 34.7818 73.1559 35.4292 72.7675Z" fill="#36D9FA"/>
<path opacity="0.2" d="M35.9004 66.2991L53.4876 55.9272C53.8034 55.741 54.1957 55.7424 54.5101 55.9311L72.5708 66.7675C73.2182 67.1559 73.2182 68.0941 72.5708 68.4825L54.5319 79.3058C54.2061 79.5013 53.7976 79.4953 53.4778 79.2902L35.8687 68.0024C35.2413 67.6002 35.2585 66.6777 35.9004 66.2991Z" fill="#36D9FA"/>
<path opacity="0.2" d="M35.9004 61.2991L53.4876 50.9272C53.8034 50.741 54.1957 50.7424 54.5101 50.9311L72.5708 61.7675C73.2182 62.1559 73.2182 63.0941 72.5708 63.4825L54.5319 74.3058C54.2061 74.5013 53.7976 74.4953 53.4778 74.2902L35.8687 63.0024C35.2413 62.6002 35.2585 61.6777 35.9004 61.2991Z" fill="#36D9FA"/>
<path d="M35.9004 55.7991L53.4876 45.4272C53.8034 45.241 54.1957 45.2424 54.5101 45.4311L72.5708 56.2675C73.2182 56.6559 73.2182 57.5941 72.5708 57.9825L54.5319 68.8058C54.2061 69.0013 53.7976 68.9953 53.4778 68.7902L35.8687 57.5024C35.2413 57.1002 35.2585 56.1777 35.9004 55.7991Z" fill="#36D9FA"/>
<ellipse opacity="0.4" cx="54.5" cy="57.125" rx="8" ry="3.5" fill="#FCFCFC"/>
<ellipse opacity="0.4" cx="54.5" cy="57.125" rx="6" ry="2.5" fill="#FCFCFC"/>
<path opacity="0.2" d="M34.5 143.625V73.625L54 85.625V156.125L34.5 143.625Z" fill="url(#paint2_linear_511_3392)"/>
<path opacity="0.2" d="M73.5 143.625V73.625L54 85.625V156.125L73.5 143.625Z" fill="url(#paint3_linear_511_3392)"/>
<path opacity="0.2" d="M72.4292 109.768L90.4855 98.9337C90.8022 98.7437 91.1978 98.7437 91.5145 98.9337L109.571 109.768C110.218 110.156 110.218 111.094 109.571 111.482L91.5145 122.316C91.1978 122.506 90.8022 122.506 90.4855 122.316L72.4292 111.482C71.7818 111.094 71.7818 110.156 72.4292 109.768Z" fill="#36D9FA"/>
<path opacity="0.2" d="M72.9004 103.299L90.4876 92.9272C90.8034 92.741 91.1957 92.7424 91.5101 92.9311L109.571 103.768C110.218 104.156 110.218 105.094 109.571 105.482L91.5319 116.306C91.2061 116.501 90.7976 116.495 90.4778 116.29L72.8687 105.002C72.2413 104.6 72.2585 103.678 72.9004 103.299Z" fill="#36D9FA"/>
<path opacity="0.2" d="M72.9004 98.2991L90.4876 87.9272C90.8034 87.741 91.1957 87.7424 91.5101 87.9311L109.571 98.7675C110.218 99.1559 110.218 100.094 109.571 100.482L91.5319 111.306C91.2061 111.501 90.7976 111.495 90.4778 111.29L72.8687 100.002C72.2413 99.6002 72.2585 98.6777 72.9004 98.2991Z" fill="#36D9FA"/>
<path d="M72.9004 92.7991L90.4876 82.4272C90.8034 82.241 91.1957 82.2424 91.5101 82.4311L109.571 93.2675C110.218 93.6559 110.218 94.5941 109.571 94.9825L91.5319 105.806C91.2061 106.001 90.7976 105.995 90.4778 105.79L72.8687 94.5024C72.2413 94.1002 72.2585 93.1777 72.9004 92.7991Z" fill="#36D9FA"/>
<ellipse opacity="0.4" cx="91.5" cy="94.125" rx="8" ry="3.5" fill="#FCFCFC"/>
<ellipse opacity="0.4" cx="91.5" cy="94.125" rx="6" ry="2.5" fill="#FCFCFC"/>
<path opacity="0.2" d="M71.5 180.625V110.625L91 122.625V193.125L71.5 180.625Z" fill="url(#paint4_linear_511_3392)"/>
<path opacity="0.2" d="M110.5 180.625V110.625L91 122.625V193.125L110.5 180.625Z" fill="url(#paint5_linear_511_3392)"/>
<path d="M20.5 11.6233C23.6667 4.28992 35.5 -3.8771 44 4.62258C56 16.6226 55 43.623 55 56.6231" stroke="url(#paint6_linear_511_3392)"/>
<circle cx="55" cy="57.125" r="2.5" fill="#0B4C6F" stroke="white"/>
<path d="M56 44.7483C59.1667 37.4149 71 29.2479 79.5 37.7476C91.5 49.7476 90.5 76.748 90.5 89.7481" stroke="url(#paint7_linear_511_3392)"/>
<circle cx="90.5" cy="90.25" r="2.5" fill="#0B4C6F" stroke="white"/>
<path opacity="0.2" d="M73.603 44.3565L106.294 25.0773C106.881 24.7312 107.61 24.7339 108.194 25.0845L141.765 45.2271C142.969 45.9491 142.969 47.6929 141.765 48.4149L108.235 68.5331C107.629 68.8965 106.87 68.8853 106.276 68.5041L73.5441 47.5225C72.3779 46.7749 72.4098 45.0602 73.603 44.3565Z" fill="#36D9FA"/>
<path opacity="0.2" d="M73.603 35.0635L106.294 15.7843C106.881 15.4382 107.61 15.441 108.194 15.7915L141.765 35.9341C142.969 36.6561 142.969 38.4 141.765 39.1219L108.235 59.2402C107.629 59.6036 106.87 59.5923 106.276 59.2112L73.5441 38.2295C72.3779 37.4819 72.4098 35.7672 73.603 35.0635Z" fill="#36D9FA"/>
<path d="M73.603 24.8409L106.294 5.56169C106.881 5.21554 107.61 5.2183 108.194 5.56889L141.765 25.7115C142.969 26.4334 142.969 28.1773 141.765 28.8993L108.235 49.0175C107.629 49.3809 106.87 49.3697 106.276 48.9885L73.5441 28.0068C72.3779 27.2593 72.4098 25.5446 73.603 24.8409Z" fill="#36D9FA"/>
<ellipse opacity="0.4" cx="108.175" cy="27.3065" rx="14.8703" ry="6.50574" fill="#FCFCFC"/>
<ellipse opacity="0.4" cx="108.176" cy="27.3071" rx="11.1527" ry="4.64695" fill="#FCFCFC"/>
<defs>
<linearGradient id="paint0_linear_511_3392" x1="1.5" y1="39.125" x2="16" y2="121.625" gradientUnits="userSpaceOnUse">
<stop stop-color="#36D9FA"/>
<stop offset="0.75" stop-color="#36D9FA" stop-opacity="0"/>
</linearGradient>
<linearGradient id="paint1_linear_511_3392" x1="22" y1="55.625" x2="42" y2="109.625" gradientUnits="userSpaceOnUse">
<stop stop-color="#36D9FA"/>
<stop offset="0.9" stop-color="#36D9FA" stop-opacity="0"/>
</linearGradient>
<linearGradient id="paint2_linear_511_3392" x1="35.5" y1="74.125" x2="50" y2="156.625" gradientUnits="userSpaceOnUse">
<stop stop-color="#36D9FA"/>
<stop offset="0.65" stop-color="#36D9FA" stop-opacity="0"/>
</linearGradient>
<linearGradient id="paint3_linear_511_3392" x1="56" y1="90.625" x2="76" y2="144.625" gradientUnits="userSpaceOnUse">
<stop stop-color="#36D9FA"/>
<stop offset="0.7" stop-color="#36D9FA" stop-opacity="0"/>
</linearGradient>
<linearGradient id="paint4_linear_511_3392" x1="72.5" y1="111.125" x2="87" y2="193.625" gradientUnits="userSpaceOnUse">
<stop stop-color="#36D9FA"/>
<stop offset="0.524905" stop-color="#36D9FA" stop-opacity="0"/>
</linearGradient>
<linearGradient id="paint5_linear_511_3392" x1="93" y1="127.625" x2="113" y2="181.625" gradientUnits="userSpaceOnUse">
<stop stop-color="#36D9FA"/>
<stop offset="0.5" stop-color="#36D9FA" stop-opacity="0"/>
</linearGradient>
<linearGradient id="paint6_linear_511_3392" x1="17.5" y1="11.877" x2="55.5" y2="55.377" gradientUnits="userSpaceOnUse">
<stop stop-color="#B9F9FE" stop-opacity="0"/>
<stop offset="1" stop-color="#B9F9FE"/>
</linearGradient>
<linearGradient id="paint7_linear_511_3392" x1="53" y1="45.002" x2="91" y2="88.502" gradientUnits="userSpaceOnUse">
<stop stop-color="#B9F9FE" stop-opacity="0"/>
<stop offset="1" stop-color="#B9F9FE"/>
</linearGradient>
</defs>
</svg>
