<svg version="1.1" id="Layer_1" xmlns="http://www.w3.org/2000/svg" xmlns:xlink="http://www.w3.org/1999/xlink" x="0px" y="0px" viewBox="0 0 511.909 511.909" style="enable-background:new 0 0 511.909 511.909;" xml:space="preserve" width="300" height="300" xmlns:svgjs="http://svgjs.dev/svgjs"><g width="100%" height="100%" transform="matrix(1,0,0,1,0,0)"><g>
	<g>
		<g>
			<path style="stroke-miterlimit: 10;" d="M252.955,432.84L252.955,432.84&#10;&#9;&#9;&#9;&#9;c-19.448,0-35.213-15.765-35.213-35.213v-4.787h70.426v4.787C288.167,417.074,272.402,432.84,252.955,432.84z" fill="none" fill-opacity="1" stroke="#009dc9" stroke-opacity="1" data-original-stroke-color="#000000ff" stroke-width="15" data-original-stroke-width="15"/>
			<path style="stroke-miterlimit: 10;" d="M346.295,246.18&#10;&#9;&#9;&#9;&#9;c0-51.993-42.51-94.057-94.669-93.331c-51.211,0.713-92.599,43.224-92.004,94.436c0.272,23.401,9.154,44.731,23.628,60.971&#10;&#9;&#9;&#9;&#9;c12.383,13.895,19.349,31.782,19.349,50.394v34.189h100.714v-34.819c0-18.422,7.087-36.008,19.345-49.76&#10;&#9;&#9;&#9;&#9;C337.36,291.765,346.295,270.016,346.295,246.18z" fill="none" fill-opacity="1" stroke="#009dc9" stroke-opacity="1" data-original-stroke-color="#000000ff" stroke-width="15" data-original-stroke-width="15"/>
			
				<line style="stroke-miterlimit: 10;" x1="202.598" y1="358.651" x2="303.311" y2="358.651" fill="none" fill-opacity="1" stroke="#009dc9" stroke-opacity="1" data-original-stroke-color="#000000ff" stroke-width="15" data-original-stroke-width="15"/>
			<polygon style="stroke-miterlimit: 10;" points="252.954,193.134 267.901,223.418 &#10;&#9;&#9;&#9;&#9;301.322,228.275 277.138,251.848 282.847,285.134 252.954,269.418 223.062,285.134 228.771,251.848 204.587,228.275 &#10;&#9;&#9;&#9;&#9;238.008,223.418 &#9;&#9;&#9;" fill="none" fill-opacity="1" stroke="#009dc9" stroke-opacity="1" data-original-stroke-color="#000000ff" stroke-width="15" data-original-stroke-width="15"/>
		</g>
		<path style="stroke-miterlimit: 10;" d="M102.594,111.114&#10;&#9;&#9;&#9;c-4.9,4.91-10.08,10.09-16.49,16.5l-48.63-2.49c-14.24,34.38-14.28,34.47-28.52,68.85l36.14,32.63v58.7l-36.14,32.63&#10;&#9;&#9;&#9;c14.24,34.38,14.28,34.47,28.52,68.85l48.63-2.49c16.57,16.57,24.94,24.94,41.51,41.51l-2.49,48.63&#10;&#9;&#9;&#9;c34.38,14.24,34.47,14.28,68.85,28.52l32.63-36.14h58.7l32.63,36.14c34.38-14.24,34.47-14.28,68.85-28.52l-2.49-48.63&#10;&#9;&#9;&#9;c6.41-6.41,11.59-11.59,16.5-16.5" fill="none" fill-opacity="1" stroke="#009dc9" stroke-opacity="1" data-original-stroke-color="#000000ff" stroke-width="15" data-original-stroke-width="15"/>
		<path style="stroke-miterlimit: 10;" d="M113.215,100.514c4.3-4.3,8.9-8.9,14.4-14.41&#10;&#9;&#9;&#9;l-2.49-48.63c34.38-14.24,34.47-14.28,68.85-28.52l32.63,36.14h58.7l32.63-36.14c34.38,14.24,34.47,14.28,68.85,28.52l-2.49,48.63&#10;&#9;&#9;&#9;c16.57,16.57,24.94,24.94,41.51,41.51l48.63-2.49c14.24,34.38,14.28,34.47,28.52,68.85l-36.14,32.63v58.7l36.14,32.63&#10;&#9;&#9;&#9;c-14.24,34.38-14.28,34.47-28.52,68.85l-48.63-2.49c-5.51,5.51-10.11,10.11-14.41,14.41" fill="none" fill-opacity="1" stroke="#009dc9" stroke-opacity="1" data-original-stroke-color="#000000ff" stroke-width="15" data-original-stroke-width="15"/>
		
			<line style="stroke-miterlimit: 10;" x1="255.954" y1="80.188" x2="255.954" y2="120.188" fill="none" fill-opacity="1" stroke="#009dc9" stroke-opacity="1" data-original-stroke-color="#000000ff" stroke-width="15" data-original-stroke-width="15"/>
		
			<line style="stroke-miterlimit: 10;" x1="169.601" y1="101.719" x2="189.601" y2="136.36" fill="none" fill-opacity="1" stroke="#009dc9" stroke-opacity="1" data-original-stroke-color="#000000ff" stroke-width="15" data-original-stroke-width="15"/>
		
			<line style="stroke-miterlimit: 10;" x1="105.582" y1="163.542" x2="140.223" y2="183.542" fill="none" fill-opacity="1" stroke="#009dc9" stroke-opacity="1" data-original-stroke-color="#000000ff" stroke-width="15" data-original-stroke-width="15"/>
		
			<line style="stroke-miterlimit: 10;" x1="81.052" y1="249.091" x2="121.052" y2="249.091" fill="none" fill-opacity="1" stroke="#009dc9" stroke-opacity="1" data-original-stroke-color="#000000ff" stroke-width="15" data-original-stroke-width="15"/>
		
			<line style="stroke-miterlimit: 10;" x1="341.504" y1="104.719" x2="321.504" y2="139.36" fill="none" fill-opacity="1" stroke="#009dc9" stroke-opacity="1" data-original-stroke-color="#000000ff" stroke-width="15" data-original-stroke-width="15"/>
		
			<line style="stroke-miterlimit: 10;" x1="403.327" y1="168.738" x2="368.686" y2="188.738" fill="none" fill-opacity="1" stroke="#009dc9" stroke-opacity="1" data-original-stroke-color="#000000ff" stroke-width="15" data-original-stroke-width="15"/>
		
			<line style="stroke-miterlimit: 10;" x1="424.857" y1="255.091" x2="384.857" y2="255.091" fill="none" fill-opacity="1" stroke="#009dc9" stroke-opacity="1" data-original-stroke-color="#000000ff" stroke-width="15" data-original-stroke-width="15"/>
	</g>
	<g>
		
			<line style="stroke-miterlimit: 10;" x1="233.454" y1="318.444" x2="248.454" y2="318.444" fill="none" fill-opacity="1" stroke="#009dc9" stroke-opacity="1" data-original-stroke-color="#000000ff" stroke-width="15" data-original-stroke-width="15"/>
		
			<line style="stroke-miterlimit: 10;" x1="263.454" y1="318.444" x2="278.454" y2="318.444" fill="none" fill-opacity="1" stroke="#009dc9" stroke-opacity="1" data-original-stroke-color="#000000ff" stroke-width="15" data-original-stroke-width="15"/>
	</g>
</g><g>
</g><g>
</g><g>
</g><g>
</g><g>
</g><g>
</g><g>
</g><g>
</g><g>
</g><g>
</g><g>
</g><g>
</g><g>
</g><g>
</g><g>
</g></g></svg>