<svg xmlns="http://www.w3.org/2000/svg" viewBox="0 0 64 64" width="300" height="300" version="1.1" xmlns:xlink="http://www.w3.org/1999/xlink" xmlns:svgjs="http://svgjs.dev/svgjs"><g width="100%" height="100%" transform="matrix(1,0,0,1,0,0)"><g data-name="Layer 9" id="Layer_9"><path d="M50,20a12.73,12.73,0,0,0-2.12.18,16,16,0,0,0-31.76,0A12.73,12.73,0,0,0,14,20a13,13,0,0,0,0,26h5.05A13,13,0,0,0,45,46h5a13,13,0,0,0,0-26ZM32,56A11,11,0,1,1,43,45,11,11,0,0,1,32,56ZM31,21a1,1,0,1,1,1,1A1,1,0,0,1,31,21ZM50,44H45a13,13,0,0,0-8-11V29h3.18a3,3,0,1,0,0-2H36a1,1,0,0,0-1,1v4.36a13.22,13.22,0,0,0-2-.31V23.82a3,3,0,1,0-2,0v8.23a13.22,13.22,0,0,0-2,.31V28a1,1,0,0,0-1-1H23.82a3,3,0,1,0,0,2H27v4a13,13,0,0,0-7.95,11H14a11,11,0,0,1,0-22,10.85,10.85,0,0,1,2.78.37A1,1,0,0,0,18,21.44a14,14,0,0,1,27.94,0,1,1,0,0,0,.4.76,1,1,0,0,0,.85.17A10.85,10.85,0,0,1,50,22a11,11,0,0,1,0,22ZM42,28a1,1,0,1,1,1,1A1,1,0,0,1,42,28ZM22,28a1,1,0,1,1-1-1A1,1,0,0,1,22,28Z" fill="#009dc9" fill-opacity="1" data-original-color="#000000ff" stroke="none" stroke-opacity="1"/><path d="M50,24v2a7,7,0,0,1,7,7h2A9,9,0,0,0,50,24Z" fill="#009dc9" fill-opacity="1" data-original-color="#000000ff" stroke="none" stroke-opacity="1"/><path d="M32,40a2,2,0,0,1,2,2h2a4,4,0,0,0-3-3.86V36H31v2.14A4,4,0,0,0,32,46a2,2,0,1,1-2,2H28a4,4,0,0,0,3,3.86V54h2V51.86A4,4,0,0,0,32,44a2,2,0,0,1,0-4Z" fill="#009dc9" fill-opacity="1" data-original-color="#000000ff" stroke="none" stroke-opacity="1"/></g></g></svg>