<svg width="600" height="578" viewBox="0 0 600 578" fill="none" xmlns="http://www.w3.org/2000/svg">
<path d="M292.54 33.1724C365.618 33.1724 357.288 162.263 410.021 201.588C479.878 253.682 600 227.882 600 317.241C600 474.134 444.18 530.988 274.372 530.988C104.535 530.988 -40.3436 443.98 10.2129 287.493C60.7694 131.006 122.703 33.1724 292.54 33.1724Z" fill="#F1F5FB"/>
<path d="M299.999 558.124C453.38 558.124 577.711 562.448 577.711 567.759C577.711 573.07 453.38 577.366 299.999 577.366C146.617 577.366 22.2861 573.07 22.2861 567.759C22.2861 562.448 146.617 558.124 299.999 558.124Z" fill="#E8EFFA"/>
<path d="M325.827 234.295H524.774V539.288H325.827V234.295Z" fill="#F57A44"/>
<path d="M576.23 470.506H274.4V544.048H576.23V470.506Z" fill="#FC9774"/>
<path d="M565.782 475.266H284.849C282.004 475.266 279.683 477.762 279.683 480.78V533.774C279.683 536.822 282.004 539.288 284.849 539.288H565.782C568.627 539.288 570.948 536.822 570.948 533.774V480.78C570.948 477.762 568.627 475.266 565.782 475.266Z" fill="#FBBFA8"/>
<path d="M324.493 485.801H315.902V528.347H324.493V485.801ZM444.47 485.801H435.909V528.347H444.47V485.801ZM414.461 485.801H405.9V528.347H414.461V485.801ZM384.482 485.801H375.891V528.347H384.482V485.801ZM354.473 485.801H345.911V528.347H354.473V485.801Z" fill="white"/>
<path d="M309.488 485.801H300.897V528.347H309.488V485.801ZM459.474 485.801H450.913V528.347H459.474V485.801ZM429.465 485.801H420.904V528.347H429.465V485.801ZM399.486 485.801H390.895V528.347H399.486V485.801ZM369.477 485.801H360.886V528.347H369.477V485.801ZM339.468 485.801H330.906V528.347H339.468V485.801Z" fill="#FFE2DC"/>
<path d="M274.4 391.769H576.201V465.311H274.4V391.769Z" fill="#FC9774"/>
<path d="M284.848 396.529H565.753C568.597 396.529 570.948 399.025 570.948 402.072V455.037C570.948 458.085 568.597 460.552 565.753 460.552H284.848C282.004 460.552 279.653 458.085 279.653 455.037V402.072C279.653 399.025 282.004 396.529 284.848 396.529Z" fill="#FBBFA8"/>
<path d="M526.138 407.064H534.7V449.61H526.138V407.064ZM406.161 407.064H414.723V449.61H406.161V407.064ZM436.141 407.064H444.702V449.61H436.141V407.064ZM466.15 407.064H474.711V449.61H466.15V407.064ZM496.13 407.064H504.72V449.61H496.13V407.064Z" fill="white"/>
<path d="M541.142 407.064H549.704V449.61H541.142V407.064ZM391.156 407.064H399.718V449.61H391.156V407.064ZM421.136 407.064H429.727V449.61H421.136V407.064ZM451.145 407.064H459.706V449.61H451.145V407.064ZM481.154 407.064H489.715V449.61H481.154V407.064ZM511.134 407.064H519.724V449.61H511.134V407.064Z" fill="#FFE2DC"/>
<path d="M576.23 313.032H274.4V386.574H576.23V313.032Z" fill="#FC9774"/>
<path d="M565.782 317.792H284.849C282.004 317.792 279.683 320.288 279.683 323.335V376.3C279.683 379.348 282.004 381.814 284.849 381.814H565.782C568.627 381.814 570.948 379.348 570.948 376.3V323.335C570.948 320.288 568.627 317.792 565.782 317.792Z" fill="#FBBFA8"/>
<path d="M324.493 328.327H315.902V370.873H324.493V328.327ZM444.47 328.327H435.909V370.902H444.47V328.327ZM414.461 328.327H405.9V370.873H414.461V328.327ZM384.482 328.327H375.891V370.873H384.482V328.327ZM354.473 328.327H345.911V370.873H354.473V328.327Z" fill="white"/>
<path d="M309.488 328.327H300.897V370.873H309.488V328.327ZM459.474 328.327H450.913V370.902H459.474V328.327ZM429.465 328.327H420.904V370.873H429.465V328.327ZM399.486 328.327H390.895V370.873H399.486V328.327ZM369.477 328.327H360.886V370.873H369.477V328.327ZM339.468 328.327H330.906V370.873H339.468V328.327Z" fill="#FFE2DC"/>
<path d="M274.4 234.295H576.201V307.866H274.4V234.295Z" fill="#FC9774"/>
<path d="M284.848 239.055H565.753C568.597 239.055 570.948 241.551 570.948 244.598V297.563C570.948 300.611 568.597 303.077 565.753 303.077H284.848C282.004 303.077 279.653 300.611 279.653 297.563V244.598C279.653 241.551 282.004 239.055 284.848 239.055Z" fill="#FBBFA8"/>
<path d="M526.138 249.59H534.7V292.136H526.138V249.59ZM406.161 249.59H414.723V292.136H406.161V249.59ZM436.141 249.59H444.702V292.165H436.141V249.59ZM466.15 249.59H474.711V292.136H466.15V249.59ZM496.13 249.59H504.72V292.136H496.13V249.59Z" fill="white"/>
<path d="M541.142 249.59H549.704V292.136H541.142V249.59ZM391.156 249.59H399.718V292.136H391.156V249.59ZM421.136 249.59H429.727V292.165H421.136V249.59ZM451.145 249.59H459.706V292.136H451.145V249.59ZM481.154 249.59H489.715V292.136H481.154V249.59ZM511.134 249.59H519.724V292.136H511.134V249.59Z" fill="#FFE2DC"/>
<path d="M477.99 507.074C477.99 503.94 480.544 501.415 483.679 501.415C486.813 501.415 489.338 503.94 489.338 507.074C489.338 510.238 486.813 512.763 483.679 512.763C480.544 512.763 477.99 510.238 477.99 507.074Z" fill="white"/>
<path fill-rule="evenodd" clip-rule="evenodd" d="M524.338 507.074C524.338 503.94 526.863 501.415 529.998 501.415C533.132 501.415 535.686 503.94 535.686 507.074C535.686 510.237 533.132 512.762 529.998 512.762C526.863 512.762 524.338 510.237 524.338 507.074ZM483.649 491.576C492.211 491.576 499.147 498.541 499.147 507.074C499.147 515.635 492.211 522.572 483.649 522.572C475.088 522.572 468.181 515.635 468.181 507.074C468.181 498.541 475.088 491.576 483.649 491.576ZM483.649 514.852C487.945 514.852 491.427 511.369 491.427 507.074C491.427 502.779 487.945 499.325 483.649 499.325C479.354 499.325 475.901 502.779 475.901 507.074C475.901 511.369 479.354 514.852 483.649 514.852ZM508.057 507.074C508.057 503.94 510.611 501.415 513.745 501.415C516.88 501.415 519.405 503.94 519.405 507.074C519.405 510.237 516.88 512.762 513.745 512.762C510.611 512.762 508.057 510.237 508.057 507.074Z" fill="white"/>
<path d="M540.185 507.074C540.185 503.94 542.738 501.415 545.873 501.415C549.007 501.415 551.532 503.94 551.532 507.074C551.532 510.238 549.007 512.763 545.873 512.763C542.738 512.763 540.185 510.238 540.185 507.074Z" fill="white"/>
<path d="M477.99 349.629C477.99 346.466 480.544 343.941 483.679 343.941C486.813 343.941 489.338 346.466 489.338 349.629C489.338 352.735 486.813 355.289 483.679 355.289C480.544 355.289 477.99 352.735 477.99 349.629Z" fill="white"/>
<path fill-rule="evenodd" clip-rule="evenodd" d="M524.338 349.629C524.338 346.466 526.863 343.941 529.998 343.941C533.132 343.941 535.686 346.466 535.686 349.629C535.686 352.735 533.132 355.288 529.998 355.288C526.863 355.288 524.338 352.735 524.338 349.629ZM483.649 334.131C492.211 334.131 499.147 341.068 499.147 349.6C499.147 358.162 492.211 365.098 483.649 365.098C475.088 365.098 468.181 358.162 468.181 349.6C468.181 341.068 475.088 334.131 483.649 334.131ZM483.649 357.378C487.945 357.378 491.427 353.895 491.427 349.629C491.427 345.305 487.945 341.851 483.649 341.851C479.354 341.851 475.901 345.305 475.901 349.629C475.901 353.895 479.354 357.378 483.649 357.378ZM508.057 349.629C508.057 346.466 510.611 343.941 513.745 343.941C516.88 343.941 519.405 346.466 519.405 349.629C519.405 352.735 516.88 355.288 513.745 355.288C510.611 355.288 508.057 352.735 508.057 349.629Z" fill="white"/>
<path d="M540.185 349.629C540.185 346.466 542.738 343.941 545.873 343.941C549.007 343.941 551.532 346.466 551.532 349.629C551.532 352.735 549.007 355.289 545.873 355.289C542.738 355.289 540.185 352.735 540.185 349.629Z" fill="white"/>
<path d="M365.473 270.892C365.473 267.729 362.919 265.204 359.784 265.204C356.65 265.204 354.125 267.729 354.125 270.892C354.125 274.027 356.65 276.552 359.784 276.552C362.919 276.552 365.473 274.027 365.473 270.892Z" fill="white"/>
<path fill-rule="evenodd" clip-rule="evenodd" d="M313.436 276.552C310.301 276.552 307.776 274.027 307.776 270.892C307.776 267.758 310.301 265.204 313.436 265.204C316.57 265.204 319.124 267.758 319.124 270.892C319.124 274.027 316.57 276.552 313.436 276.552ZM375.282 270.863C375.282 279.425 368.345 286.361 359.784 286.361C351.251 286.361 344.315 279.425 344.315 270.863C344.315 262.331 351.251 255.395 359.784 255.395C368.345 255.395 375.282 262.331 375.282 270.863ZM367.562 270.892C367.562 266.597 364.079 263.114 359.784 263.114C355.518 263.114 352.035 266.597 352.035 270.892C352.035 275.159 355.518 278.641 359.784 278.641C364.079 278.641 367.562 275.159 367.562 270.892ZM329.717 276.552C326.583 276.552 324.058 274.027 324.058 270.892C324.058 267.758 326.583 265.204 329.717 265.204C332.851 265.204 335.376 267.758 335.376 270.892C335.376 274.027 332.851 276.552 329.717 276.552Z" fill="white"/>
<path d="M303.249 270.892C303.249 267.729 300.724 265.204 297.59 265.204C294.455 265.204 291.901 267.729 291.901 270.892C291.901 274.027 294.455 276.552 297.59 276.552C300.724 276.552 303.249 274.027 303.249 270.892Z" fill="white"/>
<path d="M365.473 428.946C365.473 425.812 362.919 423.287 359.784 423.287C356.65 423.287 354.125 425.812 354.125 428.946C354.125 432.109 356.65 434.634 359.784 434.634C362.919 434.634 365.473 432.109 365.473 428.946Z" fill="white"/>
<path fill-rule="evenodd" clip-rule="evenodd" d="M313.436 434.634C310.301 434.634 307.776 432.08 307.776 428.946C307.776 425.812 310.301 423.287 313.436 423.287C316.57 423.287 319.124 425.812 319.124 428.946C319.124 432.08 316.57 434.634 313.436 434.634ZM375.282 428.946C375.282 437.508 368.345 444.444 359.784 444.444C351.251 444.444 344.315 437.508 344.315 428.946C344.315 420.414 351.251 413.448 359.784 413.448C368.345 413.448 375.282 420.414 375.282 428.946ZM367.562 428.946C367.562 424.651 364.079 421.197 359.784 421.197C355.518 421.197 352.035 424.651 352.035 428.946C352.035 433.241 355.518 436.724 359.784 436.724C364.079 436.724 367.562 433.241 367.562 428.946ZM329.717 434.634C326.583 434.634 324.058 432.08 324.058 428.946C324.058 425.812 326.583 423.287 329.717 423.287C332.851 423.287 335.376 425.812 335.376 428.946C335.376 432.08 332.851 434.634 329.717 434.634Z" fill="white"/>
<path d="M303.249 428.946C303.249 425.812 300.724 423.287 297.59 423.287C294.455 423.287 291.901 425.812 291.901 428.946C291.901 432.109 294.455 434.634 297.59 434.634C300.724 434.634 303.249 432.109 303.249 428.946Z" fill="white"/>
<path d="M230.926 549.359H267.523L246.453 446.679H298.431L319.473 549.359H355.982C361.119 549.359 366.866 553.51 368.781 558.646H225.122C223.177 553.51 225.76 549.359 230.926 549.359Z" fill="#A4D0FC"/>
<path d="M118.581 510.151L121.89 486.265L142.553 337.121C143.511 330.039 150.07 324.293 157.152 324.293H446.299H449.433C455.005 325.715 458.575 330.91 457.733 337.121L433.761 510.151C433.065 515.316 429.031 519.525 424.764 519.525H124.618L124.676 519.147C120.613 519.147 117.885 515.113 118.581 510.151Z" fill="#87BEF5"/>
<path d="M260.964 555.541H312.914L290.596 446.679H238.617L260.964 555.541Z" fill="#87BEF5"/>
<path d="M112.661 486.265L133.296 337.121C134.283 330.039 140.813 324.293 147.894 324.293H437.07C444.152 324.293 449.085 330.039 448.099 337.121L427.464 486.265H112.661Z" fill="#A4D0FC"/>
<path d="M427.464 486.265L424.155 510.15C423.488 515.113 419.628 519.147 415.565 519.147H115.447C111.384 519.147 108.656 515.113 109.353 510.15L112.661 486.265H427.464Z" fill="#A4D0FC"/>
<path d="M120.933 479.793L140.61 337.527C141.132 333.783 144.673 330.765 148.533 330.765H434.632C438.492 330.765 441.191 333.783 440.698 337.527L420.992 479.793H120.933Z" fill="#EFF9FC"/>
<path d="M174.362 406.455C174.362 406.455 176.655 403.668 177.902 403.262C179.121 402.885 181.501 401.027 181.82 401.811C182.14 402.566 180.224 403.726 180.311 404.597C180.427 405.468 182.488 404.22 182.459 405.149C182.401 406.077 183.881 410.779 181.588 410.518C179.296 410.256 174.594 409.038 173.433 409.647C172.243 410.227 174.362 406.455 174.362 406.455Z" fill="#FFB27D"/>
<path d="M112.69 392.93C116.056 397.458 120.032 401.056 124.096 403.872C137.01 412.839 150.999 414.174 150.999 414.174C154.366 413.101 164.668 411.998 170.763 411.011C173.433 410.576 175.261 410.169 175.407 409.821L175.232 404.51C175.232 404.51 152.885 403.32 149.171 401.608C143.337 396.587 138.171 390.057 134.834 384.949C131.99 380.654 128.797 377.461 123.573 375.575C115.998 372.876 102.213 378.825 112.69 392.93Z" fill="#F57A44"/>
<path d="M122.935 400.534L124.095 403.871C137.01 412.839 150.999 414.174 150.999 414.174C153.698 414.174 164.668 411.997 170.763 411.011C170.531 411.04 154.162 412.317 150.564 411.939C146.936 411.562 129.987 396.877 129.987 396.877L122.935 400.534Z" fill="#F06A30"/>
<path d="M137.562 568.717H112.835C111.065 567.498 113.3 555.773 113.3 555.773C113.3 555.773 120.062 553.19 121.223 558.414C122.384 563.609 129.813 565.264 133.731 565.902C136.43 566.337 137.272 567.817 137.562 568.717Z" fill="#284191"/>
<path d="M100.907 568.717H76.1804C74.4101 567.498 76.6738 555.773 76.6738 555.773C76.6738 555.773 83.407 553.19 84.5678 558.414C85.7287 563.609 93.1584 565.264 97.0764 565.902C99.7754 566.337 100.617 567.817 100.907 568.717Z" fill="#284191"/>
<path d="M130.887 448.943C130.887 448.943 129.784 462.786 128.478 479.445C126.708 502.082 121.919 558.182 121.919 558.182C121.919 558.182 118.785 560.881 111.848 559.401C111.848 559.401 105.928 540.043 104.158 517.957C104.119 517.59 104.09 517.222 104.071 516.855C102.416 494.391 99.8623 447.027 99.8623 447.027L130.887 448.943Z" fill="#4567C6"/>
<path d="M131.264 444.154C131.264 444.154 129.784 462.787 128.478 479.445L104.158 517.958C104.119 517.59 104.09 517.222 104.071 516.855C102.416 494.392 99.8623 447.027 99.8623 447.027L131.264 444.154Z" fill="#3B5BB3"/>
<path d="M124.182 444.154C124.182 444.154 106.537 488.094 100.907 504.723C96.8725 516.593 85.5539 558.211 85.5539 558.211C85.5539 558.211 80.6201 559.691 76.47 556.818C76.47 556.818 72.2618 514.301 80.7652 502.315C85.2927 495.959 81.8971 436.202 100.21 435.68C118.552 435.186 124.182 444.154 124.182 444.154Z" fill="#4567C6"/>
<path d="M116.289 379.406C113.619 380.799 110.978 380.915 108.715 380.421C106.625 379.986 104.826 379.057 103.549 378.245C102.243 377.403 101.459 376.678 101.459 376.678C101.459 376.678 101.575 376.532 101.72 376.3C102.504 374.936 104.913 370.032 103.839 362.167C103.839 362.05 104.622 362.225 105.783 362.486C109.295 363.327 116.318 365.301 116.638 365.417H116.667C116.667 365.417 116.754 367.042 117.044 370.032C117.063 370.283 117.083 370.554 117.102 370.844C117.141 371.192 117.179 371.56 117.218 371.947C117.566 375.023 116.289 379.406 116.289 379.406Z" fill="#FFB27D"/>
<path d="M117.044 370.032C111.82 371.222 104.013 363.502 104.013 363.502C104.574 363.076 105.164 362.738 105.783 362.486C109.295 363.328 116.318 365.301 116.637 365.418H116.666C116.666 365.418 116.753 367.043 117.044 370.032Z" fill="#F08261"/>
<path d="M118.64 365.94C118.64 365.94 116.405 366.752 113.59 367.13C109.44 367.681 103.983 367.362 102.271 362.341C99.3979 353.896 95.7121 348.846 104.187 345.392C108.743 343.564 111.645 343.448 113.619 344.173C115.331 344.754 116.347 345.972 117.101 347.191C118.756 349.774 122.064 364.46 118.64 365.94Z" fill="#FFB27D"/>
<path d="M109.962 348.846C107.844 349.774 107.466 353.315 107.437 354.447C107.408 355.579 107.263 356.507 104.39 355.84C103.926 355.753 103.577 355.782 103.345 355.898C102.155 356.624 103.665 360.048 104.129 360.774C104.129 360.774 104.796 363.241 103.345 364.43C103.142 364.547 100.269 365.824 93.3617 355.201C92.2588 353.547 91.214 349.6 92.8973 346.001C90.1983 336.424 118.524 332.854 122.181 339.384C128.769 351.254 107.147 348.004 109.962 348.846Z" fill="#284191"/>
<path d="M133.644 436.753C133.267 441.803 132.222 445.402 129.871 445.402C129.871 445.402 119.511 449.03 107.118 449.146C104.709 449.175 101.256 448.681 98.4115 448.217C95.5093 447.724 93.2166 447.23 93.2166 447.23C90.7207 446.65 87.9636 445.112 88.3409 442.268C88.544 440.671 88.6891 438.553 88.8052 436.144C89.0664 429.556 89.0374 420.472 89.0664 411.794C89.0954 406.454 89.1244 401.288 89.3276 396.906C89.3276 396.906 86.8607 379.754 89.5888 376.939C92.7812 373.63 102.097 372.615 102.707 372.731C102.881 372.702 103.055 372.673 103.229 372.644C103.229 372.644 111.181 377.113 117.102 373.804C117.102 373.804 117.15 373.814 117.247 373.833C118.698 374.037 125.895 375.72 128.362 378.332C129.233 379.232 132.629 384.775 132.745 390.869C132.861 399.344 132.542 409.008 132.542 409.008C132.629 410.372 132.774 412.172 132.919 414.174C133.093 416.351 133.296 418.789 133.47 421.343C133.528 422.62 133.615 423.926 133.673 425.232C133.848 429.266 133.906 433.358 133.644 436.753Z" fill="#F57A44"/>
<path d="M102.735 372.76C102.735 372.76 111.529 381.844 117.827 379.986C117.827 379.986 118.668 378.738 115.853 378.361C113.009 377.955 109.933 378.129 102.735 372.76Z" fill="#F06A30"/>
<path d="M97.163 404.684C97.163 404.684 97.1631 429.237 88.8047 436.144C89.0659 429.556 89.0369 420.472 89.0659 411.794L97.163 404.684Z" fill="#F06A30"/>
<path d="M116.028 343.68C118.659 344.512 119.762 345.866 119.336 347.743C116.202 350.181 112.874 351.061 109.353 350.384C111.268 349.804 113.493 347.569 116.028 343.68Z" fill="#284191"/>
<path d="M93.9704 348.033C94.5508 346.814 94.4348 345.963 93.6222 345.479C91.6873 345.789 90.2459 346.679 89.2979 348.149C90.1492 347.665 91.7067 347.627 93.9704 348.033Z" fill="#284191"/>
<path d="M96.9019 347.656C96.573 349.455 95.7797 350.297 94.5221 350.181C92.626 348.304 91.7553 346.176 91.9101 343.796C92.4518 345.015 94.1158 346.301 96.9019 347.656Z" fill="#284191"/>
<path d="M115.157 353.17C115.911 352.647 116.55 352.125 117.362 351.603C118.523 350.819 119.075 351.603 120.003 351.457C119.771 351.399 119.8 351.341 119.51 351.196C118.059 350.384 117.072 350.906 115.853 351.864C115.157 352.386 114.982 352.241 115.157 353.17Z" fill="#125AA3"/>
<path d="M117.392 352.328C117.827 352.241 118.292 352.502 118.379 352.937C118.495 353.373 118.234 353.837 117.798 353.953C117.334 354.04 116.899 353.779 116.783 353.344C116.666 352.908 116.957 352.444 117.392 352.328Z" fill="white"/>
<path d="M117.798 353.953C118.234 353.837 118.495 353.373 118.379 352.937C118.292 352.502 117.827 352.241 117.392 352.328C117.218 352.386 117.044 352.502 116.928 352.618H116.986C117.131 352.56 117.276 352.647 117.334 352.792C117.363 352.937 117.276 353.083 117.131 353.141C116.986 353.17 116.841 353.083 116.812 352.937L116.783 352.908C116.753 353.024 116.753 353.199 116.783 353.344C116.899 353.779 117.334 354.04 117.798 353.953Z" fill="#125AA3"/>
<path d="M111.703 354.04C110.774 353.924 109.961 353.75 109.004 353.663C107.611 353.518 107.494 354.476 106.595 354.766C106.769 354.621 106.711 354.563 106.885 354.302C107.843 352.909 108.917 352.909 110.455 353.199C111.325 353.344 111.412 353.141 111.703 354.04Z" fill="#125AA3"/>
<path d="M109.324 354.33C108.888 354.446 108.598 354.882 108.714 355.317C108.83 355.781 109.266 356.043 109.73 355.927C110.165 355.84 110.426 355.375 110.31 354.94C110.223 354.505 109.759 354.214 109.324 354.33Z" fill="white"/>
<path d="M109.73 355.927C109.266 356.043 108.83 355.782 108.714 355.317C108.598 354.882 108.888 354.447 109.324 354.33C109.498 354.272 109.701 354.301 109.846 354.389H109.788C109.643 354.418 109.556 354.563 109.585 354.708C109.643 354.853 109.788 354.94 109.933 354.911C110.078 354.882 110.165 354.737 110.107 354.592V354.563C110.223 354.65 110.281 354.795 110.31 354.94C110.426 355.375 110.165 355.84 109.73 355.927Z" fill="#125AA3"/>
<path d="M118.117 360.919C116.782 362.699 115.195 362.96 113.357 361.703C115.447 361.557 117.014 361.209 118.117 360.919Z" fill="white"/>
<path d="M178.019 230.987H181.124V457.33H178.019V230.987Z" fill="#FC9774"/>
<path fill-rule="evenodd" clip-rule="evenodd" d="M178.019 230.522H181.124C181.386 230.522 181.589 230.726 181.589 231.016V457.33C181.589 457.591 181.386 457.795 181.124 457.795H178.019C177.758 457.795 177.555 457.591 177.555 457.33V231.016C177.555 230.726 177.758 230.522 178.019 230.522ZM180.631 231.48H178.512V456.837H180.631V231.48Z" fill="#F57A44"/>
<path d="M182.343 404.133C182.14 403.959 181.966 403.727 181.763 403.843C180.196 404.684 178.629 405.555 178.658 406.252C178.687 407.587 180.08 410.576 182.372 410.199L182.43 409.676C182.518 408.196 183.156 404.917 182.343 404.133Z" fill="#FFB27D"/>
<path d="M108.714 459.478L81.7812 447.289L92.7516 423.055L119.684 435.244L108.714 459.478Z" fill="#05B2C5"/>
<path d="M107.001 487.484L24.2881 449.755L60.5077 390.173L143.25 427.902L107.001 487.484Z" fill="#87BEF5"/>
<path d="M103.374 485.829L28.2354 451.583L56.0095 390.666L131.119 424.941L103.374 485.829Z" fill="white"/>
<path d="M80.4458 407.18L83.4351 400.621L53.02 386.749L50.0307 393.308L48.0282 397.69L24.2881 449.756L107.001 487.484L132.773 431.036L80.4458 407.18Z" fill="#BBDBFA"/>
<path d="M91.8517 467.43C86.918 465.195 82.2744 462.322 78.1243 458.781C69.853 451.787 63.6422 442.238 61.2334 431.674C75.4832 434.983 90.3716 435.157 104.215 429.875C108.365 428.279 112.544 426.189 116.55 423.635L132.773 431.036L113.618 473.002C106.102 472.392 98.7009 470.535 91.8517 467.43Z" fill="#A4D0FC"/>
<path d="M80.708 406.628C80.708 406.609 80.708 406.599 80.708 406.599L82.4493 402.739L80.708 406.628Z" fill="#DCDDDD"/>
<path d="M80.708 406.599C80.7661 406.406 80.8338 406.212 80.9111 406.019C81.6367 404.133 82.4783 402.333 83.378 400.592L83.4361 400.621L82.4493 402.739L80.708 406.599Z" fill="white"/>
<path d="M36.623 422.736L53.0205 386.749L50.0313 393.308L48.0287 397.69L36.623 422.736Z" fill="#0B9C9C"/>
<path d="M40.8022 424.738C39.3898 424.1 37.9968 423.432 36.623 422.736L48.0287 397.69L50.0313 393.308L53.0205 386.749L66.9802 393.104C66.777 393.482 66.5739 393.888 66.3707 394.265C61.7562 403.465 59.6956 413.942 60.218 424.216C60.3341 426.741 60.6824 429.237 61.2338 431.675C58.3316 431.007 55.4294 430.195 52.5562 429.266C48.5511 427.96 44.6332 426.48 40.8022 424.738Z" fill="#A4D0FC"/>
<path d="M107.001 487.484L24.2881 449.755L26.9871 443.835L36.6225 422.736C37.9962 423.432 39.3893 424.1 40.8017 424.738C44.6326 426.48 48.5506 427.96 52.5556 429.266C55.4288 430.195 58.331 431.007 61.2332 431.675C63.642 442.239 69.8528 451.787 78.1241 458.781C82.2742 462.322 86.9178 465.195 91.8515 467.43C98.7007 470.535 106.101 472.393 113.618 473.002L107.001 487.484Z" fill="#87BEF5"/>
<path d="M71.4208 450.655C71.4208 450.655 67.1546 457.359 66.9224 459.913C66.7483 461.655 67.1546 468.504 68.0252 468.533C69.2442 468.562 70.4631 464.296 70.9274 463.193C71.4208 462.09 71.9722 461.219 72.4366 461.219C72.93 461.219 71.4208 465.486 72.4366 465.021C73.4814 464.528 75.2227 460.581 75.3678 459.623C75.5419 458.665 74.4391 455.647 74.9615 454.428C75.5129 453.238 71.4208 450.655 71.4208 450.655Z" fill="#FFB27D"/>
<path d="M90.4007 375.981C90.4007 375.981 84.6253 378.71 79.8076 398.851C76.1799 414.058 69.1855 452.832 69.1855 452.832L75.077 455.241C75.077 455.241 96.6695 405.7 99.7748 398.706C102.851 391.74 90.4007 375.981 90.4007 375.981Z" fill="#F57A44"/>
<path d="M291.088 413.623L253.592 413.594L253.621 379.841L291.088 379.87V413.623Z" fill="#05B2C5"/>
<path d="M303.771 446.882L188.438 446.505L199.176 358.684L314.51 359.061L303.771 446.882Z" fill="#87BEF5"/>
<path d="M298.664 446.853L193.952 446.534L194.213 361.644L298.954 361.963L298.664 446.853Z" fill="white"/>
<path d="M231.1 367.942L231.129 358.771L188.728 358.655L188.67 367.797V373.92L188.438 446.505L303.771 446.882L304.033 368.174L231.1 367.942Z" fill="#BBDBFA"/>
<path d="M275.765 431.616C268.887 431.616 262.009 430.688 255.363 428.801C242.158 425.028 229.998 417.25 221.697 406.28C239.865 402.681 257.191 395.077 270.425 381.727C274.372 377.751 278.116 373.137 281.425 368.087L304.033 368.174L303.83 426.654C294.833 429.904 285.285 431.616 275.765 431.616Z" fill="#A4D0FC"/>
<path d="M231.1 367.158C231.071 366.868 231.042 366.607 231.042 366.346C230.897 363.792 230.897 361.296 231.042 358.771H231.129L231.1 361.76V367.158Z" fill="white"/>
<path d="M188.554 408.805L188.728 358.655L188.67 367.797V373.92L188.554 408.805Z" fill="#0B9C9C"/>
<path d="M194.445 408.95C192.491 408.95 190.527 408.902 188.554 408.805L188.67 373.92V367.797L188.728 358.655L208.173 358.713C208.153 359.255 208.124 359.806 208.086 360.367C207.563 373.427 210.64 386.574 216.589 398.183C218.069 401.056 219.781 403.755 221.697 406.28C217.953 407.035 214.18 407.615 210.407 408.021C205.096 408.602 199.785 408.95 194.445 408.95Z" fill="#A4D0FC"/>
<path d="M303.771 446.882L188.438 446.505L188.467 438.205L188.554 408.805C190.527 408.902 192.491 408.95 194.445 408.95C199.785 408.95 205.096 408.602 210.407 408.022C214.18 407.615 217.953 407.035 221.697 406.28C229.997 417.251 242.157 425.029 255.362 428.801C262.009 430.688 268.887 431.617 275.765 431.617C285.284 431.617 294.833 429.904 303.829 426.654L303.771 446.882Z" fill="#87BEF5"/>
<path d="M346.724 439.801L390.489 439.685C391.099 439.685 391.563 439.917 391.563 440.236C391.534 440.526 391.041 440.788 390.431 440.788L346.695 440.904C346.086 440.904 345.592 440.672 345.621 440.352C345.621 440.062 346.144 439.801 346.724 439.801ZM332.416 343.68L421.949 343.418C422.617 343.418 423.139 343.941 423.11 344.608L423.023 346.234C422.994 346.93 422.414 347.453 421.746 347.453L332.213 347.714C331.546 347.743 331.023 347.191 331.052 346.524L331.139 344.899C331.168 344.231 331.749 343.68 332.416 343.68ZM331.226 389.854L374.266 389.738C374.876 389.738 375.34 389.97 375.34 390.289C375.311 390.579 374.817 390.841 374.208 390.841L331.168 390.957C330.559 390.957 330.065 390.695 330.094 390.405C330.094 390.115 330.617 389.854 331.226 389.854ZM331.458 384.746L393.246 384.543C393.856 384.543 394.349 384.804 394.32 385.094C394.32 385.413 393.798 385.646 393.188 385.646L331.429 385.849C330.82 385.849 330.327 385.588 330.356 385.297C330.356 384.978 330.878 384.746 331.458 384.746ZM329.688 438.147L339.004 438.118C340.455 438.118 341.587 439.278 341.529 440.73L341.036 450.249C340.978 451.7 339.73 452.89 338.279 452.89L328.963 452.919C327.511 452.919 326.38 451.758 326.467 450.307L326.931 440.788C327.018 439.336 328.266 438.147 329.688 438.147ZM330.646 419.427L339.962 419.398C341.413 419.398 342.545 420.588 342.458 422.039L341.993 431.559C341.906 433.01 340.658 434.2 339.207 434.2L329.891 434.229C328.44 434.229 327.308 433.039 327.395 431.588L327.86 422.068C327.947 420.617 329.195 419.427 330.646 419.427ZM331.575 400.969L340.891 400.94C342.342 400.911 343.445 402.101 343.387 403.552L342.922 413.071C342.835 414.523 341.587 415.713 340.136 415.713L330.82 415.742C329.369 415.742 328.237 414.581 328.324 413.13L328.788 403.61C328.875 402.159 330.123 400.969 331.575 400.969ZM333.432 363.676L342.748 363.647C344.199 363.647 345.331 364.837 345.244 366.288L344.78 375.807C344.693 377.229 343.474 378.419 342.022 378.448L332.677 378.477C331.255 378.477 330.123 377.287 330.181 375.836L330.675 366.317C330.733 364.866 331.981 363.676 333.432 363.676ZM378.387 370.409L420.15 370.293C420.759 370.293 421.195 370.525 421.195 370.815C421.166 371.106 420.701 371.338 420.121 371.338L378.329 371.454C377.749 371.454 377.284 371.222 377.313 370.931C377.313 370.641 377.807 370.409 378.387 370.409ZM361.322 375.401L419.918 375.227C420.498 375.227 420.963 375.459 420.963 375.749C420.934 376.039 420.44 376.271 419.86 376.271L361.264 376.446C360.684 376.446 360.219 376.213 360.248 375.923C360.248 375.633 360.742 375.401 361.322 375.401ZM349.916 375.43L357.81 375.401C358.391 375.401 358.855 375.633 358.826 375.923C358.826 376.213 358.333 376.446 357.752 376.446L349.887 376.475C349.307 376.475 348.814 376.242 348.843 375.952C348.843 375.662 349.336 375.43 349.916 375.43ZM350.178 370.496L373.628 370.409C374.208 370.409 374.672 370.67 374.672 370.931C374.643 371.222 374.15 371.483 373.57 371.483L350.12 371.541C349.539 371.541 349.075 371.309 349.104 371.018C349.104 370.728 349.597 370.496 350.178 370.496ZM350.41 365.562L420.411 365.359C420.992 365.33 421.456 365.591 421.456 365.882C421.427 366.172 420.934 366.404 420.353 366.404L350.352 366.607C349.8 366.607 349.336 366.375 349.336 366.085C349.365 365.794 349.829 365.562 350.41 365.562ZM382.276 356.449L394.756 356.42C395.365 356.42 395.858 356.682 395.829 356.972C395.829 357.262 395.307 357.523 394.698 357.523L382.218 357.552C381.638 357.552 381.144 357.32 381.144 357.001C381.173 356.711 381.696 356.449 382.276 356.449ZM332.881 356.594L375.92 356.478C376.53 356.478 377.023 356.711 376.994 357.03C376.994 357.32 376.472 357.581 375.862 357.581L332.822 357.697C332.213 357.697 331.749 357.465 331.749 357.146C331.778 356.856 332.271 356.594 332.881 356.594ZM333.142 351.487L394.93 351.312C395.51 351.312 396.004 351.545 396.004 351.835C395.975 352.154 395.481 352.386 394.872 352.386L333.084 352.589C332.474 352.589 332.01 352.328 332.01 352.038C332.039 351.719 332.532 351.487 333.142 351.487ZM375.601 426.16L417.364 426.044C417.944 426.044 418.409 426.277 418.409 426.567C418.38 426.857 417.886 427.089 417.306 427.089L375.543 427.234C374.963 427.234 374.498 427.002 374.527 426.712C374.527 426.422 375.021 426.16 375.601 426.16ZM358.536 431.152L417.132 430.978C417.712 430.978 418.176 431.21 418.147 431.501C418.147 431.791 417.654 432.052 417.074 432.052L358.478 432.226C357.898 432.226 357.433 431.965 357.433 431.675C357.462 431.384 357.956 431.152 358.536 431.152ZM347.13 431.181L354.995 431.152C355.576 431.152 356.04 431.413 356.04 431.704C356.011 431.965 355.547 432.226 354.966 432.226L347.072 432.255C346.492 432.255 346.028 432.023 346.057 431.704C346.057 431.443 346.55 431.181 347.13 431.181ZM347.392 426.248L370.841 426.19C371.422 426.19 371.886 426.422 371.857 426.712C371.857 427.002 371.364 427.234 370.783 427.234L347.334 427.321C346.753 427.321 346.289 427.089 346.289 426.77C346.318 426.509 346.782 426.248 347.392 426.248ZM347.624 421.314L417.625 421.111C418.205 421.111 418.67 421.343 418.641 421.633C418.641 421.923 418.147 422.155 417.567 422.155L347.566 422.388C346.985 422.388 346.521 422.155 346.55 421.836C346.55 421.546 347.043 421.314 347.624 421.314ZM379.722 407.731L392.202 407.673C392.782 407.673 393.276 407.935 393.276 408.225C393.246 408.515 392.753 408.776 392.144 408.776L379.664 408.805C379.055 408.805 378.561 408.573 378.59 408.254C378.59 407.964 379.113 407.731 379.722 407.731ZM362.947 412.897L391.882 412.81C392.463 412.81 392.956 413.042 392.927 413.362C392.927 413.652 392.405 413.884 391.824 413.884L362.889 413.971C362.28 413.971 361.787 413.739 361.816 413.449C361.816 413.13 362.338 412.897 362.947 412.897ZM348.088 412.926L356.94 412.897C357.549 412.897 358.014 413.159 358.014 413.449C357.985 413.739 357.491 414 356.882 414L348.03 414.029C347.421 414.029 346.956 413.797 346.956 413.478C346.985 413.188 347.479 412.926 348.088 412.926ZM348.349 407.819L373.366 407.731C373.976 407.731 374.44 407.993 374.44 408.283C374.411 408.573 373.918 408.834 373.308 408.834L348.291 408.921C347.682 408.921 347.188 408.66 347.217 408.37C347.217 408.051 347.74 407.819 348.349 407.819ZM348.61 402.682L392.347 402.566C392.956 402.566 393.45 402.798 393.421 403.117C393.392 403.407 392.898 403.668 392.289 403.668L348.552 403.784C347.943 403.784 347.45 403.552 347.479 403.233C347.479 402.943 348.001 402.682 348.61 402.682ZM377.865 444.851L390.344 444.793C390.925 444.793 391.418 445.054 391.389 445.344C391.389 445.634 390.896 445.895 390.286 445.895L377.807 445.925C377.197 445.954 376.704 445.692 376.733 445.402C376.733 445.083 377.255 444.851 377.865 444.851ZM361.061 450.017L390.025 449.93C390.605 449.93 391.099 450.162 391.07 450.481C391.07 450.771 390.547 451.032 389.967 451.032L361.032 451.119C360.423 451.119 359.929 450.858 359.958 450.568C359.958 450.249 360.481 450.017 361.061 450.017ZM346.231 450.046L355.082 450.017C355.692 450.017 356.156 450.278 356.127 450.568C356.127 450.887 355.634 451.119 355.024 451.119L346.173 451.149C345.563 451.149 345.099 450.916 345.099 450.597C345.128 450.307 345.621 450.046 346.231 450.046ZM346.492 444.938L371.509 444.851C372.118 444.851 372.583 445.112 372.583 445.402C372.554 445.692 372.06 445.954 371.451 445.954L346.434 446.041C345.824 446.041 345.331 445.779 345.36 445.489C345.36 445.17 345.882 444.938 346.492 444.938Z" fill="#8BBAE9"/>
<path d="M126.912 237.488H233.249C235.106 237.488 236.586 238.997 236.586 240.825V295.01C236.586 296.838 235.106 298.347 233.249 298.347H126.912C125.083 298.347 123.574 296.838 123.574 295.01V240.825C123.574 238.997 125.083 237.488 126.912 237.488Z" fill="#FFE2DC"/>
<path fill-rule="evenodd" clip-rule="evenodd" d="M126.912 236.849H233.249C234.351 236.849 235.338 237.285 236.064 238.01L236.093 238.039C236.789 238.736 237.225 239.723 237.225 240.825V295.01C237.225 296.112 236.789 297.099 236.064 297.825C235.338 298.55 234.351 298.986 233.249 298.986H126.912C125.809 298.986 124.822 298.55 124.096 297.825C123.371 297.099 122.936 296.112 122.936 295.01V240.825C122.936 239.723 123.371 238.736 124.096 238.01C124.822 237.285 125.809 236.849 126.912 236.849ZM233.249 238.126H126.912C126.157 238.126 125.489 238.446 124.996 238.91C124.532 239.403 124.213 240.071 124.213 240.825V295.01C124.213 295.764 124.532 296.432 124.996 296.925C125.489 297.418 126.157 297.709 126.912 297.709H233.249C234.003 297.709 234.671 297.389 235.164 296.925C235.657 296.432 235.948 295.764 235.948 295.01V240.825C235.948 240.071 235.657 239.403 235.164 238.91C234.671 238.446 234.003 238.126 233.249 238.126Z" fill="#F57A44"/>
<path d="M153.235 267.874C154.541 267.874 155.818 268.106 156.979 268.483C156.834 267.874 156.776 267.265 156.776 266.626C156.776 261.141 161.564 256.671 167.427 256.671C168.471 256.671 169.487 256.817 170.445 257.078C171.925 250.054 178.426 244.743 186.233 244.743C195.143 244.743 202.34 251.651 202.34 260.154C202.34 261.605 202.137 263.027 201.731 264.362C207.564 264.769 212.121 268.832 212.121 274.114C212.121 279.396 207.1 283.604 203.994 284.475C203.53 284.591 202.892 284.591 202.137 284.475H185.362V268.396H191.341L181.212 258.268L171.083 268.396H177.033V284.475H153.235C147.75 284.475 143.28 280.76 143.28 276.174C143.28 271.589 147.75 267.874 153.235 267.874Z" fill="#F57A44"/>
<path d="M409.499 57.6088C407.719 56.7768 406.491 56.9509 405.813 58.1311C406.278 60.9173 407.593 62.9875 409.76 64.3419C409.045 63.123 408.958 60.8786 409.499 57.6088Z" fill="#284191"/>
<path d="M357.173 76.7343C357.173 76.7343 352.297 73.2226 351.601 73.1645C350.904 73.0775 347.973 74.2383 347.48 74.9639C346.986 75.7185 347.48 78.0403 347.944 78.4756C348.437 78.9109 349.598 78.0112 350.266 78.1854C350.933 78.3595 351.427 78.7078 351.833 78.9399C352.674 79.3462 354.445 79.9267 354.445 79.9267L357.173 76.7343Z" fill="#FFB27D"/>
<path d="M396.41 74.2385C396.41 74.2385 376.21 84.4543 372.641 83.3805C369.042 82.2776 357.172 76.7344 357.172 76.7344L353.863 80.3042C353.863 80.3042 363.034 89.0688 368.897 92.0001C374.759 94.9313 385.41 95.4827 385.41 95.4827L396.41 74.2385Z" fill="#4F8ECC"/>
<path d="M401.866 67.6506L394.175 82.2197L392.347 82.3648L391.534 84.6866L383.844 107.875C383.844 107.875 379.577 78.4178 401.866 67.6506Z" fill="#4F8ECC"/>
<path d="M389.067 80.5364C389.067 80.5364 380.564 111.822 379.751 141.686C379.751 141.686 386.774 144.153 397.861 142.208C408.976 140.264 389.067 80.5364 389.067 80.5364Z" fill="#61A0E0"/>
<path d="M394.988 73.5709C401.344 75.5734 412.372 70.1463 412.372 70.1463C412.431 70.1173 411.299 69.5659 410.022 67.6504C408.513 65.3867 406.829 61.3816 406.829 56.564L401.896 60.54L398.529 63.239C398.529 63.239 398.558 64.8353 398.906 67.6214C398.984 68.1244 399.071 68.6662 399.167 69.2466C399.225 69.74 399.022 70.2043 398.616 70.4365C396.294 71.8876 394.988 73.5709 394.988 73.5709Z" fill="#FFB27D"/>
<path d="M385.817 135.127C385.991 135.301 388.661 135.156 388.922 135.156C391.302 135.127 396.12 134.343 402.04 133.734C407.003 133.241 411.414 131.76 416.145 129.642C416.783 129.381 418.234 128.597 418.205 127.901C418.176 127.117 418.089 126.014 418.002 124.592C417.654 119.716 417.074 111.329 417.654 101.636C417.751 99.8168 417.809 98.0271 417.828 96.2664C417.857 83.1194 415.245 71.5686 410.021 67.6506C410.021 67.6506 406.364 69.7112 403.839 70.5238C401.373 71.3074 400.096 71.1333 398.819 70.2916C398.819 70.2916 396.323 71.5396 395.249 72.7005C392.782 75.3995 390.838 78.9692 389.561 84.1061C388.487 88.4885 387.471 94.8734 387.123 103.029C386.949 106.743 385.643 135.011 385.817 135.127Z" fill="#BBDBFA"/>
<path d="M398.529 63.2392C398.529 63.2392 398.558 64.8354 398.907 67.6215C402.621 66.983 406.83 60.9754 406.83 60.9754C404.943 60.424 403.289 60.337 401.896 60.5401L398.529 63.2392Z" fill="#F08261"/>
<path d="M395.191 66.2864C395.191 66.2864 407.612 66.983 408.831 58.9729C410.021 50.9337 412.488 45.7968 404.333 44.1135C396.178 42.4012 394.117 45.2164 393.072 47.7993C392.027 50.3823 391.853 65.5319 395.191 66.2864Z" fill="#FFB27D"/>
<path d="M407.439 62.1074C407.816 62.4847 407.497 57.9863 407.729 56.1579C407.932 54.3295 407.932 51.9497 406.452 52.414C404.972 52.8494 404.914 54.0393 404.304 53.3427C403.695 52.6462 403.666 49.744 399.283 49.5408C394.872 49.3377 392.26 50.2664 390.2 49.3667C388.168 48.467 386.107 45.1005 386.107 45.1005C386.107 45.1005 388.632 46.4645 389.532 46.8128C389.532 46.8128 387.994 42.8948 391.941 39.6733C395.946 36.4229 400.473 38.1642 404.624 40.0216C405.93 40.602 407.236 42.1112 408.28 42.9819C409.644 44.1427 411.618 44.4039 412.256 45.7099C412.634 46.4645 412.808 47.6254 412.75 48.9894C412.634 53.4588 410.428 60.1049 407.439 62.1074Z" fill="#284191"/>
<path d="M366.169 227.069C366.169 227.069 362.512 230.523 358.913 231.161C355.343 231.8 351.28 233.164 351.193 235.195C351.077 237.227 362.86 238.417 367.01 236.472C373.192 233.599 373.772 234.528 374.527 233.019C375.253 231.509 373.918 227.359 373.976 226.866C374.034 226.286 366.169 227.069 366.169 227.069Z" fill="#284191"/>
<path d="M366.604 225.385L366.169 227.069C366.227 227.127 374.15 228.23 373.976 226.866C373.802 225.792 373.57 224.602 373.57 224.602L366.604 225.385Z" fill="#FFB27D"/>
<path d="M440.204 220.916C440.204 220.916 438.434 225.299 435.503 227.156C432.571 229.013 431.294 231.742 432.078 233.599C432.891 235.456 442.12 234.441 445.051 229.013C447.053 225.299 449.375 223.877 449.375 222.28C449.346 220.655 447.257 218.362 447.082 217.898C446.908 217.347 440.204 220.916 440.204 220.916Z" fill="#284191"/>
<path d="M439.449 219.32L440.204 220.916C440.262 220.916 447.779 219.088 447.082 217.898C446.56 216.969 445.544 215.982 445.544 215.982L439.449 219.32Z" fill="#FFB27D"/>
<path d="M383.263 138.319C383.263 138.319 365.211 167.458 361.874 174.51C358.768 181.069 361.235 187.773 361.438 192.823C361.67 198.627 365.124 223.412 364.747 225.095C364.369 226.779 374.73 225.85 374.73 225.85C374.73 225.85 372.612 186.438 375.688 180.779C377.749 176.977 397.193 151.553 398.558 153.121C399.922 154.688 414.694 178.022 416.667 182.607C418.496 186.902 438.434 219.988 438.434 219.988C438.434 219.988 444.064 219.552 447.866 216.36C447.866 216.36 429.843 179.966 428.276 173.784C427.464 170.621 419.831 148.477 414.171 134.198C411.153 126.653 383.263 138.319 383.263 138.319Z" fill="#4567C6"/>
<path d="M384.569 134.43C384.569 134.43 383.843 135.156 383.466 138.348C383.466 138.348 412.314 136.839 415.419 135.823C415.419 135.823 415.709 132.312 415.071 132.196C414.374 132.108 384.569 134.43 384.569 134.43Z" fill="#4F8ECC"/>
<path d="M407.264 131.325C407.264 131.325 407.873 134.808 407.931 135.707L409.208 135.475C409.208 135.475 408.86 131.789 408.657 131.18L407.264 131.325Z" fill="#5D676C"/>
<path d="M387.007 134.14C387.007 134.14 386.31 137.361 386.252 138.58L387.645 138.493C387.645 138.493 388.167 134.459 388.342 134.053L387.007 134.14Z" fill="#61A0E0"/>
<path d="M398.267 132.399C398.267 132.399 394.146 132.863 392.782 133.153L392.956 137.333L398.354 136.81L398.267 132.399Z" fill="#5B629E"/>
<path d="M417.771 139.248C401.664 149.348 393.131 143.834 393.131 143.834C390.78 125.434 392.086 103.232 392.406 97.8046C393.189 74.0065 410.022 67.6506 410.022 67.6506L411.705 69.1598L413.098 70.9591C421.137 83.932 417.829 123.025 417.771 139.248Z" fill="#61A0E0"/>
<path d="M410.022 67.6506L402.36 82.2197L398.413 80.7976L399.69 84.6866L391.999 107.875C391.999 107.875 387.733 78.4178 410.022 67.6506Z" fill="#4F8ECC"/>
<path d="M401.257 43.9976C396.904 46.2033 393.537 46.3774 389.822 43.6494C391.535 40.4279 392.173 37.0033 401.257 36.8872C397.794 38.5705 397.794 40.9406 401.257 43.9976Z" fill="#284191"/>
<path d="M411.704 52.3849C409.924 51.5529 408.696 51.727 408.019 52.9073C408.483 55.7127 409.799 57.783 411.966 59.118C411.25 57.8991 411.163 55.6547 411.704 52.3849Z" fill="#284191"/>
<path d="M406.394 43.7653C407.206 44.5972 407.922 44.752 408.541 44.2296C408.87 42.585 408.57 41.163 407.642 39.9634C407.796 40.776 407.38 42.0433 406.394 43.7653Z" fill="#284191"/>
<path d="M408.454 45.9129C407.312 45.7194 406.77 45.2163 406.828 44.4037C407.989 43.1848 409.324 42.6044 410.833 42.6624C410.079 43.03 409.286 44.1135 408.454 45.9129Z" fill="#284191"/>
<path d="M399.515 52.4719C399.893 52.4138 400.241 52.7621 400.27 53.2555C400.299 53.7489 400.038 54.1842 399.66 54.2423C399.283 54.2713 398.935 53.923 398.906 53.4296C398.848 52.9653 399.138 52.5299 399.515 52.4719Z" fill="#BBDBFA"/>
<path d="M399.66 54.2423C400.038 54.1842 400.299 53.7489 400.27 53.2555C400.241 52.7621 399.892 52.4138 399.515 52.4719C399.341 52.4719 399.225 52.588 399.109 52.7041H399.167C399.283 52.6751 399.399 52.7911 399.399 52.9363C399.428 53.1104 399.312 53.2555 399.196 53.2555C399.08 53.2845 398.964 53.1684 398.964 53.0233V52.9653C398.906 53.1201 398.886 53.2749 398.906 53.4296C398.935 53.923 399.283 54.2713 399.66 54.2423Z" fill="#125AA3"/>
<path d="M398.326 51.8914C398.306 51.8914 398.287 51.9011 398.268 51.9204C398.297 51.8624 398.384 51.7463 398.413 51.6882C398.384 51.7173 398.355 51.7173 398.326 51.7753C398.287 51.814 398.258 51.8624 398.238 51.9204C398.238 51.8624 398.268 51.8043 398.268 51.7463C398.238 51.8043 398.209 51.8914 398.209 51.9204C398.209 51.7463 398.209 51.7753 398.297 51.6012C398.209 51.6592 398.151 51.8043 398.151 51.8914C398.122 51.8624 398.122 51.8043 398.122 51.7753C398.093 51.8333 398.093 51.8624 398.093 51.9204L398.035 51.8624C398.064 51.8914 398.064 51.8914 398.064 51.9204C397.977 51.8624 397.832 51.6302 397.861 51.5141C397.861 51.5721 397.89 51.6592 397.919 51.6882C397.919 51.6012 397.89 51.5141 397.89 51.427C397.919 51.4851 397.919 51.5721 397.948 51.6302C397.948 51.6882 397.977 51.7753 398.006 51.8333C397.977 51.6882 397.948 51.5431 397.977 51.398V51.427C398.006 51.5141 397.977 51.6012 398.006 51.6592C398.035 51.5431 398.006 51.398 398.122 51.3109C398.093 51.369 398.064 51.398 398.064 51.456C398.122 51.398 398.122 51.2819 398.238 51.2819C398.18 51.34 398.151 51.369 398.093 51.427C398.064 51.4851 398.006 51.5721 398.035 51.6592C398.093 51.398 398.238 51.2819 398.413 51.2239C398.355 51.2529 398.209 51.369 398.209 51.427C398.209 51.4851 398.209 51.369 398.209 51.456C398.18 51.4851 398.151 51.5141 398.122 51.5721C398.103 51.5915 398.093 51.6205 398.093 51.6592C398.093 51.6592 398.064 51.6882 398.064 51.7173C398.064 51.7173 398.064 51.7172 398.064 51.7463H398.093C398.122 51.5721 398.18 51.4851 398.297 51.398C398.355 51.34 398.529 51.2529 398.616 51.2239C398.616 51.2432 398.616 51.2529 398.616 51.2529L398.529 51.2819C398.355 51.369 398.151 51.4851 398.122 51.7173C398.122 51.7173 398.122 51.7173 398.122 51.6882C398.18 51.6302 398.209 51.5431 398.268 51.4851C398.326 51.427 398.413 51.369 398.471 51.34C398.558 51.2819 398.819 51.1949 398.964 51.1949C398.906 51.1949 398.674 51.2819 398.616 51.2819C398.529 51.34 398.413 51.398 398.326 51.4851C398.384 51.4561 398.413 51.427 398.442 51.427C398.674 51.3109 399.08 51.1658 399.341 51.1658C399.196 51.1948 398.964 51.2819 398.848 51.34L398.935 51.3109C398.916 51.3303 398.896 51.3496 398.877 51.369C398.848 51.369 398.819 51.369 398.79 51.398C398.674 51.4561 398.471 51.6012 398.413 51.7173C398.451 51.6979 398.49 51.6689 398.529 51.6302C398.567 51.5915 398.606 51.5625 398.645 51.5431C398.732 51.4851 398.819 51.427 398.906 51.369C399.08 51.2819 399.283 51.2239 399.486 51.1658C399.457 51.1658 399.428 51.1949 399.399 51.2239C399.574 51.1949 399.864 51.0788 400.27 51.0497C400.183 51.0788 400.038 51.0788 399.922 51.1368L399.835 51.1658C399.893 51.1658 400.067 51.1078 400.154 51.1078C400.502 51.0207 400.734 50.9917 401.141 50.9917C401.402 50.9917 401.634 50.9917 401.895 51.0788C402.04 51.1658 402.215 51.2529 402.36 51.369C402.389 51.398 402.418 51.427 402.447 51.456C402.36 51.427 402.127 51.1949 401.895 51.1368C402.244 51.34 402.534 51.5141 402.766 51.8043C402.708 51.7463 402.621 51.6592 402.534 51.6012C402.456 51.5431 402.369 51.4851 402.273 51.427C402.127 51.34 401.895 51.1949 401.692 51.1368C401.721 51.1658 401.866 51.2239 401.924 51.2819C402.331 51.5141 402.766 51.8043 403.143 52.0945C403.172 52.1526 403.259 52.2397 403.288 52.2687C403.259 52.2397 403.114 52.1236 403.056 52.0945C402.766 51.8914 402.505 51.7173 402.156 51.6302C402.244 51.6882 402.882 51.9494 403.056 52.1236L402.534 51.8624C402.389 51.7753 402.098 51.6592 401.924 51.6302C402.127 51.6592 402.911 52.0365 403.056 52.1526C402.998 52.1236 402.853 52.0655 402.766 52.0365C402.669 51.9784 402.563 51.9301 402.447 51.8914C402.244 51.8333 402.011 51.7463 401.779 51.7173C401.46 51.6882 401.17 51.6882 400.85 51.7173C400.763 51.7173 400.647 51.7463 400.56 51.7463C400.618 51.7172 400.763 51.6882 400.821 51.6882C400.996 51.6689 401.17 51.6592 401.344 51.6592C401.431 51.6592 401.576 51.6592 401.634 51.6592C401.431 51.6012 401.257 51.6302 401.054 51.6012C401.083 51.6012 401.083 51.6012 401.083 51.6012C401.112 51.6012 401.112 51.6012 401.112 51.6012C400.996 51.5721 400.792 51.6302 400.676 51.6302C400.56 51.6592 400.299 51.7753 400.299 51.7753C400.328 51.7463 400.357 51.7463 400.386 51.7173L400.067 51.7753L400.444 51.6302C400.357 51.6592 400.27 51.6882 400.212 51.7173C400.096 51.7463 399.922 51.7753 399.835 51.8043C399.748 51.8624 399.573 51.8624 399.457 51.8624C399.515 51.8624 399.632 51.8333 399.69 51.8043L399.893 51.7173C399.912 51.7173 399.941 51.7076 399.98 51.6882C400.067 51.6302 400.183 51.6012 400.27 51.5721C400.444 51.4851 400.938 51.34 401.141 51.398C400.909 51.3109 400.415 51.4851 400.241 51.5431L399.835 51.7173C399.806 51.7173 399.777 51.7463 399.719 51.7463C399.622 51.785 399.525 51.8237 399.428 51.8624V51.8333C399.399 51.8624 399.312 51.8914 399.254 51.8914C399.341 51.8043 399.603 51.7172 399.661 51.6012C399.603 51.6302 399.486 51.7173 399.428 51.7753C399.39 51.7753 399.361 51.785 399.341 51.8043C399.399 51.6882 399.545 51.6012 399.632 51.5141L399.748 51.456C399.661 51.456 399.544 51.5431 399.457 51.6302C399.38 51.6882 399.312 51.756 399.254 51.8333C399.254 51.8624 399.254 51.8333 399.254 51.8624C399.225 51.8624 399.254 51.8624 399.225 51.8624L399.312 51.7173C399.312 51.7463 399.167 51.8624 399.167 51.9204C399.196 51.8333 399.254 51.7753 399.283 51.6882L399.225 51.7463C399.312 51.5721 399.544 51.456 399.661 51.369C399.544 51.398 399.283 51.5721 399.196 51.7173C399.138 51.7753 399.109 51.8333 399.08 51.8914L399.138 51.7753C399.119 51.7753 399.109 51.7753 399.109 51.7753L399.051 51.8624C399.109 51.6882 399.167 51.6012 399.283 51.5141C399.225 51.5141 399.196 51.5431 399.167 51.5721C399.148 51.6108 399.119 51.6495 399.08 51.6882C399.022 51.7463 398.983 51.8237 398.964 51.9204C398.935 51.8914 398.964 51.8333 398.993 51.7753C398.964 51.7753 398.993 51.7753 398.964 51.7753C398.906 51.8043 398.877 51.8914 398.877 51.9204V51.8333L398.819 51.9204C398.819 51.8333 398.848 51.7753 398.877 51.7173C398.819 51.7463 398.79 51.8043 398.79 51.8914C398.761 51.8624 398.79 51.8043 398.79 51.7753L398.732 51.8333C398.713 51.872 398.693 51.9011 398.674 51.9204C398.674 51.8333 398.732 51.8043 398.761 51.7463C398.674 51.7753 398.645 51.8624 398.587 51.9494C398.616 51.8624 398.674 51.7172 398.732 51.6592C398.645 51.6592 398.587 51.8914 398.558 51.9204V51.8333C398.558 51.8333 398.558 51.8333 398.529 51.8624L398.5 51.9494V51.8333C398.471 51.8624 398.471 51.8914 398.442 51.9494C398.442 51.9494 398.442 51.8333 398.442 51.7753C398.442 51.8043 398.442 51.7753 398.442 51.8043C398.384 51.8333 398.384 51.8914 398.355 51.9204L398.384 51.8333C398.355 51.8333 398.384 51.8333 398.355 51.8333L398.326 51.8914Z" fill="#125AA3"/>
<path d="M393.45 52.2689C393.102 52.3269 392.841 52.7622 392.899 53.2556C392.928 53.7199 393.247 54.0972 393.595 54.0392C393.944 53.9811 394.176 53.5458 394.147 53.0524C394.118 52.5881 393.798 52.2108 393.45 52.2689Z" fill="#BBDBFA"/>
<path d="M393.595 54.0391C393.247 54.0972 392.928 53.7199 392.899 53.2555C392.841 52.7621 393.102 52.3268 393.45 52.2688C393.595 52.2398 393.74 52.2978 393.856 52.3849H393.798C393.682 52.4139 393.624 52.559 393.624 52.7041C393.624 52.8782 393.74 52.9943 393.856 52.9653C393.973 52.9653 394.06 52.8202 394.031 52.6461V52.617C394.089 52.7525 394.127 52.8976 394.147 53.0524C394.176 53.5457 393.944 53.9811 393.595 54.0391Z" fill="#125AA3"/>
<path d="M394.93 51.9786C394.949 51.9979 394.959 52.0173 394.959 52.0366C394.959 51.9495 394.872 51.8625 394.843 51.7754C394.872 51.8044 394.901 51.8334 394.93 51.8915C394.949 51.9302 394.969 51.9786 394.988 52.0366C394.988 51.9786 394.959 51.9205 394.959 51.8625C394.988 51.9205 394.988 51.9786 395.017 52.0366C394.988 51.8625 394.988 51.8625 394.93 51.7174C394.988 51.7464 395.046 51.9205 395.046 52.0076C395.075 51.9786 395.075 51.9205 395.075 51.8625C395.075 51.9205 395.075 51.9495 395.075 52.0076L395.104 51.9495C395.104 52.0076 395.104 52.0076 395.104 52.0366C395.162 51.9786 395.278 51.7464 395.249 51.6303C395.249 51.6883 395.22 51.7754 395.191 51.8044C395.22 51.7174 395.22 51.6303 395.22 51.5142C395.191 51.5723 395.22 51.6593 395.191 51.7464C395.191 51.8044 395.162 51.8915 395.133 51.9205C395.162 51.7754 395.191 51.6593 395.162 51.5142V51.5432C395.162 51.6303 395.162 51.6883 395.133 51.7754C395.133 51.6303 395.133 51.5142 395.046 51.4271C395.075 51.4852 395.104 51.5142 395.104 51.5723C395.075 51.5142 395.046 51.3981 394.988 51.3981C395.017 51.4272 395.046 51.4562 395.075 51.5432C395.104 51.6013 395.133 51.6883 395.133 51.7754C395.075 51.5142 394.959 51.3981 394.843 51.3401C394.872 51.3691 394.988 51.4852 394.988 51.5432C394.988 51.6013 394.988 51.4852 394.988 51.5432C395.017 51.5723 395.046 51.6303 395.075 51.6884C395.075 51.7077 395.075 51.7367 395.075 51.7754C395.104 51.7754 395.104 51.8044 395.104 51.8044C395.104 51.8335 395.104 51.8335 395.104 51.8335V51.8625C395.046 51.6883 395.017 51.6013 394.93 51.5142C394.872 51.4562 394.785 51.3691 394.698 51.3401L394.756 51.3981C394.901 51.4852 395.017 51.6013 395.075 51.8335C395.075 51.8335 395.075 51.8335 395.075 51.8044C395.056 51.8044 395.046 51.8044 395.046 51.8044C395.027 51.727 394.998 51.6593 394.959 51.6013C394.901 51.5432 394.843 51.4852 394.814 51.4271C394.756 51.3981 394.553 51.282 394.466 51.3111C394.495 51.3111 394.669 51.3981 394.698 51.3981C394.785 51.4272 394.843 51.4852 394.901 51.6013C394.872 51.5722 394.843 51.5432 394.814 51.5432C394.669 51.4272 394.35 51.282 394.175 51.282C394.292 51.3111 394.466 51.3691 394.524 51.4562L394.466 51.4271C394.485 51.4465 394.504 51.4562 394.524 51.4562C394.553 51.4852 394.553 51.4852 394.582 51.5142C394.669 51.5723 394.814 51.6884 394.843 51.8335C394.824 51.8141 394.804 51.7851 394.785 51.7464C394.746 51.7077 394.717 51.6787 394.698 51.6593C394.64 51.6013 394.553 51.5432 394.495 51.4852C394.35 51.3981 394.234 51.3111 394.088 51.282C394.117 51.282 394.117 51.3111 394.146 51.3401C394.03 51.3111 393.827 51.195 393.508 51.1659C393.566 51.195 393.682 51.224 393.769 51.253L393.827 51.282C393.798 51.282 393.653 51.224 393.595 51.224C393.334 51.1369 393.189 51.1079 392.899 51.1079C392.695 51.1079 392.55 51.1079 392.347 51.224C392.231 51.282 392.115 51.3691 392.028 51.4852C391.999 51.5142 391.97 51.5432 391.97 51.6013C392.028 51.5432 392.202 51.3111 392.347 51.253C392.115 51.4562 391.912 51.6303 391.738 51.9205C391.796 51.8625 391.854 51.7754 391.912 51.7174C391.97 51.6593 392.028 51.6013 392.086 51.5432C392.202 51.4562 392.376 51.3111 392.492 51.253C392.463 51.282 392.376 51.3691 392.347 51.3981C392.038 51.6303 391.747 51.9108 391.476 52.2398C391.447 52.2688 391.389 52.3558 391.36 52.3849C391.389 52.3558 391.505 52.2398 391.534 52.2107C391.738 52.0076 391.941 51.8334 392.173 51.7464C392.115 51.8044 391.68 52.0656 391.534 52.2398L391.912 51.9786C392.028 51.8915 392.202 51.7754 392.347 51.7464C392.202 51.8044 391.651 52.1527 391.534 52.2978C391.593 52.2688 391.68 52.1817 391.738 52.1527C391.825 52.0947 391.883 52.0656 391.97 52.0076C392.115 51.9495 392.289 51.8625 392.463 51.8335C392.666 51.8044 392.899 51.8044 393.102 51.8335C393.16 51.8335 393.247 51.8625 393.305 51.8625C393.276 51.8335 393.16 51.8335 393.131 51.8044C392.995 51.7851 392.869 51.7754 392.753 51.7754C392.695 51.7754 392.608 51.7754 392.55 51.7754C392.695 51.7174 392.811 51.7464 392.957 51.7174C392.928 51.7174 392.957 51.7174 392.928 51.7174C393.015 51.6883 393.16 51.7464 393.247 51.7464C393.334 51.8044 393.508 51.8915 393.508 51.8915C393.489 51.8721 393.469 51.8528 393.45 51.8335L393.682 51.8915L393.392 51.7754C393.45 51.7754 393.537 51.8044 393.566 51.8335C393.653 51.8625 393.769 51.8915 393.827 51.9205C393.885 51.9495 394.03 51.9786 394.117 51.9786C394.088 51.9786 394.001 51.9205 393.943 51.9205L393.798 51.8335C393.769 51.8335 393.769 51.8335 393.74 51.8044C393.663 51.7657 393.595 51.727 393.537 51.6884C393.392 51.6013 393.044 51.4562 392.899 51.5142C393.073 51.4271 393.421 51.6013 393.537 51.6593L393.827 51.8335C393.856 51.8335 393.885 51.8625 393.914 51.8625C393.972 51.8915 394.059 51.9496 394.117 51.9786V51.9495C394.146 51.9786 394.234 52.0076 394.263 52.0076C394.175 51.9205 394.001 51.8335 393.943 51.7174C394.001 51.7464 394.088 51.8335 394.146 51.8625C394.166 51.8818 394.185 51.9012 394.204 51.9205C394.146 51.8044 394.059 51.7174 393.972 51.6303L393.885 51.5723C393.972 51.5723 394.059 51.6593 394.117 51.7174C394.156 51.7948 394.205 51.8721 394.263 51.9495C394.263 51.9495 394.263 51.9496 394.263 51.9786L394.204 51.8335C394.234 51.8625 394.321 51.9786 394.321 52.0076C394.292 51.9495 394.263 51.8625 394.234 51.8044L394.292 51.8625C394.205 51.6883 394.059 51.5723 393.943 51.4852C394.059 51.4852 394.234 51.6883 394.292 51.8044C394.321 51.8625 394.35 51.9495 394.379 52.0076L394.35 51.8625C394.35 51.8818 394.35 51.8915 394.35 51.8915L394.408 51.9495C394.35 51.8044 394.292 51.7174 394.234 51.6303C394.263 51.6303 394.292 51.6593 394.321 51.6884C394.34 51.727 394.359 51.7561 394.379 51.7754C394.417 51.8528 394.446 51.9399 394.466 52.0366C394.466 52.0076 394.466 51.9205 394.437 51.8915C394.466 51.8915 394.437 51.8915 394.466 51.8915C394.495 51.9205 394.524 51.9786 394.524 52.0366V51.9495L394.582 52.0366C394.553 51.9495 394.553 51.8915 394.524 51.8335C394.553 51.8625 394.582 51.9205 394.611 51.9786C394.611 51.9496 394.582 51.9205 394.582 51.8915L394.64 51.9495C394.659 51.9882 394.669 52.0173 394.669 52.0366C394.669 51.9495 394.64 51.9205 394.611 51.8335C394.669 51.8915 394.698 51.9786 394.727 52.0366C394.727 51.9495 394.669 51.8044 394.64 51.7464C394.698 51.7754 394.727 52.0076 394.756 52.0366V51.9495L394.814 52.0656L394.785 51.9205C394.814 51.9786 394.814 52.0076 394.843 52.0656C394.843 52.0366 394.843 51.9495 394.843 51.8915C394.843 51.8915 394.843 51.8915 394.843 51.9205C394.872 51.9495 394.872 52.0076 394.901 52.0366L394.872 51.9495C394.901 51.9495 394.872 51.9495 394.901 51.9495L394.93 51.9786Z" fill="#125AA3"/>
<path d="M399.98 60.2209C396.768 62.4266 394.891 62.5717 394.35 60.6563C396.691 60.8885 398.567 60.7433 399.98 60.2209Z" fill="white"/>
<path fill-rule="evenodd" clip-rule="evenodd" d="M138.548 124.04C130.887 124.04 124.241 118.352 123.08 110.777C122.731 108.369 122.644 105.873 122.819 103.377C123.979 88.2852 135.675 75.9508 150.651 74.0064C152.082 73.8322 153.514 73.7452 154.946 73.7452C158.313 73.7452 161.621 74.2676 164.755 75.2833C164.504 72.4779 164.427 69.653 164.523 66.8089C165.655 30.1249 195.345 0.754575 232.087 0C232.532 0 232.967 0 233.393 0C265.027 0 292.395 21.1571 300.318 51.4272C316.28 51.7754 330.733 60.9754 337.93 74.9931C340.803 74.1515 343.793 73.7452 346.84 73.7452C347.382 73.7452 347.933 73.7548 348.494 73.7742C354.647 74.0934 360.335 76.125 365.095 79.4335V94.2928C361.38 88.5755 355.053 84.5994 347.972 84.2221C347.604 84.2028 347.237 84.1931 346.869 84.1931C343.561 84.1931 340.397 84.9187 337.437 86.3407C336.711 86.689 335.928 86.8631 335.144 86.8631C334.477 86.8631 333.809 86.7471 333.2 86.4859C331.836 85.9344 330.762 84.8316 330.239 83.4385C325.509 70.5527 313.116 61.8751 299.36 61.8751C298.489 61.8751 297.59 61.9332 296.603 61.9912C296.467 62.0106 296.322 62.0202 296.168 62.0202C293.701 62.0202 291.524 60.2789 291.031 57.783C285.661 30.183 261.602 10.448 233.567 10.448C233.141 10.448 232.716 10.448 232.29 10.448C201.643 11.0864 175.929 36.5098 174.971 67.1571C174.797 72.7584 175.407 78.2726 176.771 83.5546C177.322 85.7313 176.451 88.0531 174.536 89.272C173.694 89.8234 172.707 90.1136 171.721 90.1136C170.56 90.1136 169.37 89.7073 168.441 88.9527C164.581 85.8474 159.851 84.1931 154.917 84.1931C153.95 84.1931 152.972 84.2608 151.986 84.3963C141.915 85.7023 134.021 94.0026 133.266 104.16C133.121 105.873 133.179 107.556 133.441 109.21C133.818 111.706 136.024 113.593 138.548 113.593H193.923C191.949 116.872 190.324 120.384 189.018 124.04H138.548ZM363.209 124.04H300.347C299.708 122.26 298.992 120.519 298.199 118.816H359.378C359.958 116.988 360.335 115.247 360.539 113.593H363.209C363.866 113.593 364.495 113.467 365.095 113.215V123.924C364.476 124.002 363.847 124.04 363.209 124.04Z" fill="#87BEF5"/>
<path d="M343.909 93.248C342.98 93.4609 342.09 93.7801 341.239 94.2058L327.366 100.91L327.337 100.823L326.96 100.997L321.678 86.5439C318.195 77.0537 309.053 70.6979 298.953 70.6979C298.344 70.6979 297.676 70.7269 296.951 70.7849L284.471 71.8297L282.092 59.5534C280.698 52.414 277.738 45.6808 273.472 39.8764C275.736 60.0468 272.63 75.9799 264.736 88.1111L264.446 87.995C262.047 91.7099 259.212 95.0764 255.943 98.0947C248.426 105.031 238.616 110.168 226.746 113.68H174.274V113.593H138.548C136.023 113.593 133.818 111.706 133.44 109.21C133.179 107.556 133.121 105.873 133.266 104.16C134.021 94.0026 141.915 85.7023 151.985 84.3963C152.972 84.2802 153.949 84.2222 154.917 84.2222C159.85 84.2222 164.581 85.8474 168.441 88.9528C169.37 89.7073 170.56 90.1137 171.72 90.1137C172.591 90.1137 173.491 89.8815 174.274 89.4171V89.243C176.074 88.0241 176.944 85.7894 176.364 83.6417C175.029 78.3887 174.42 72.9036 174.594 67.3313L174.971 67.3023V67.1572C175.348 55.113 179.556 43.8815 186.377 34.6524L186.174 34.4783C194.619 23.1597 206.982 14.8884 221.058 11.812C224.686 10.9994 228.459 10.5351 232.29 10.448C232.715 10.448 233.141 10.448 233.567 10.448C261.602 10.448 285.661 30.183 291.03 57.783C291.524 60.279 293.7 62.0203 296.196 62.0203C296.332 62.0203 296.467 62.0106 296.603 61.9913C297.589 61.9332 298.489 61.8752 299.36 61.8752C313.116 61.8752 325.509 70.5528 330.239 83.4386C330.762 84.8316 331.835 85.9345 333.199 86.4859C333.809 86.7471 334.476 86.8632 335.144 86.8632C335.453 86.8632 335.763 86.8438 336.073 86.8051C336.402 86.7084 336.721 86.5826 337.03 86.4278C338.743 85.6152 340.513 85.0058 342.341 84.6575C343.812 84.3673 345.321 84.2222 346.869 84.2222C347.236 84.2028 347.604 84.2028 347.972 84.2222C355.053 84.5995 361.38 88.5755 365.095 94.2928V95.0184C366.952 98.1238 368.084 101.722 368.171 105.495C368.2 106.743 368.113 108.02 367.939 109.239C367.678 110.952 366.575 112.403 365.095 113.128V113.215C364.766 113.351 364.437 113.447 364.108 113.505C363.682 113.622 363.257 113.68 362.831 113.68H360.132C361.844 100.387 352.528 93.2771 347.188 93.0159C346.927 93.0159 346.695 93.0159 346.492 93.0159C345.602 93.0159 344.741 93.0933 343.909 93.248Z" fill="#BBDBFA"/>
<path d="M269.874 36.858C270.077 32.882 280.96 49.5987 282.353 59.8435L284.733 72.0328L297.097 70.988C297.822 70.959 298.49 70.9009 299.099 70.9009C309.141 70.9009 318.196 77.2277 321.649 86.6599L326.902 100.997L340.688 94.3217C342.429 93.5091 344.287 93.0738 346.289 93.0738C346.521 93.0738 346.753 93.0738 346.986 93.1028C349.133 93.1899 351.919 94.4088 354.386 96.7016C358.798 99.865 362.716 105.96 361.526 114.782H220.769C233.306 111.3 243.667 106.134 251.59 99.1975C277.246 76.7924 269.235 35.6971 269.874 36.858Z" fill="#87BEF5"/>
<path fill-rule="evenodd" clip-rule="evenodd" d="M363.209 124.04H174.682V113.593C237.282 113.302 300.609 113.593 363.209 113.593C365.763 113.593 367.94 111.677 368.317 109.152C368.491 107.933 368.578 106.656 368.549 105.408C368.288 94.2928 359.059 84.7736 347.973 84.2221C347.586 84.2028 347.208 84.1931 346.841 84.1931C343.532 84.1931 340.369 84.9187 337.438 86.3407C336.712 86.689 335.928 86.8631 335.145 86.8631C334.477 86.8631 333.81 86.7471 333.2 86.4859C331.836 85.9344 330.762 84.8316 330.24 83.4385C325.509 70.5527 313.088 61.8751 299.361 61.8751C298.49 61.8751 297.59 61.9332 296.604 61.9912C296.449 62.0106 296.304 62.0202 296.168 62.0202C293.672 62.0202 291.525 60.2789 291.031 57.783C285.662 30.183 261.545 10.448 233.567 10.448C233.142 10.448 232.716 10.448 232.291 10.448C213.803 10.8543 197.116 20.2574 186.552 34.3912C183.824 31.9824 180.399 30.3861 176.597 29.8928C188.786 12.1893 209.044 0.464354 232.087 0C232.523 0 232.987 0 233.422 0C265.056 0 292.366 21.1571 300.318 51.4272C316.251 51.7754 330.733 60.9754 337.931 74.9931C340.804 74.1515 343.764 73.7452 346.812 73.7452C347.373 73.7452 347.934 73.7548 348.495 73.7742C365.241 74.6158 378.62 88.4013 379.026 105.147C379.055 107.034 378.939 108.891 378.678 110.69C377.546 118.294 370.9 124.04 363.209 124.04ZM174.682 67.2442C174.778 67.2442 174.875 67.2442 174.972 67.2442C174.798 72.8165 175.407 78.3016 176.771 83.5546C177.323 85.6732 176.481 87.937 174.682 89.1849V67.2442Z" fill="#8BBAE9"/>
<path fill-rule="evenodd" clip-rule="evenodd" d="M199.582 40.8631C201.933 39.354 204.545 38.2802 207.215 37.6997V34.2171C207.215 33.0852 208.114 32.1855 209.246 32.1855H215.08C216.182 32.1855 217.111 33.0852 217.111 34.2171V37.6997C219.781 38.2802 222.364 39.354 224.744 40.8631L227.211 38.3962C227.994 37.6126 229.3 37.6126 230.084 38.3962L231.1 39.412L233.189 41.5016L234.205 42.5174C235.018 43.301 235.018 44.607 234.205 45.3906L231.738 47.8574C233.276 50.2373 234.321 52.8202 234.902 55.5193H238.413C239.516 55.5193 240.445 56.419 240.445 57.5508V63.3843C240.445 64.4871 239.516 65.4158 238.413 65.4158H234.902C234.321 68.0858 233.276 70.6688 231.738 73.0486L234.205 75.5155C235.018 76.2991 235.018 77.6051 234.205 78.3887L230.084 82.5098C229.3 83.2934 227.994 83.2934 227.211 82.5098L224.744 80.0429C222.364 81.5811 219.781 82.6259 217.111 83.2064V86.689C217.111 87.8209 216.182 88.7496 215.08 88.7206H209.246C208.114 88.7206 207.215 87.8209 207.215 86.689V83.2064C204.545 82.6259 201.933 81.5811 199.582 80.0429L197.086 82.5098C196.302 83.2934 194.996 83.2934 194.213 82.5098L193.197 81.494L191.107 79.4045L190.092 78.3887C189.308 77.6051 189.308 76.2991 190.092 75.5155L192.558 73.0486C191.049 70.6688 189.975 68.0858 189.395 65.4158H185.912C184.781 65.4158 183.881 64.4871 183.881 63.3843V57.5508C183.881 56.419 184.781 55.5193 185.912 55.5193H189.395C189.975 52.8492 191.049 50.2373 192.558 47.8574L190.092 45.3906C189.308 44.607 189.308 43.301 190.092 42.5174L191.107 41.5016L193.197 39.412L194.213 38.3962C194.996 37.6126 196.302 37.6126 197.086 38.3962L199.582 40.8631ZM252.083 30.7925C253.186 30.8795 253.998 31.8953 253.882 32.9981L253.679 34.9426C254.927 35.5231 256.059 36.3357 256.988 37.3224L258.758 36.5098C259.774 36.0745 260.964 36.5098 261.428 37.5256L262.705 40.3407C263.14 41.3565 262.676 42.5464 261.689 43.0108L259.89 43.7944C259.948 44.4715 259.938 45.1584 259.861 45.8549C259.803 46.5514 259.677 47.219 259.483 47.8574L261.08 48.9893C261.95 49.6568 262.182 50.9048 261.515 51.8044L259.716 54.3004C259.077 55.2 257.8 55.4032 256.9 54.7647L255.304 53.6328C254.201 54.3874 252.953 54.9679 251.618 55.2871L251.415 57.2316C251.299 58.3344 250.312 59.147 249.21 59.031L246.133 58.7117C245.03 58.5956 244.218 57.6089 244.334 56.506L244.537 54.5615C243.289 53.9811 242.157 53.1685 241.229 52.1817L239.458 52.9944C238.442 53.4297 237.252 52.9944 236.788 51.9786L235.511 49.1634C235.076 48.1477 235.511 46.9578 236.527 46.4934L238.326 45.7098C238.268 45.0326 238.268 44.3458 238.326 43.6492C238.404 42.9527 238.539 42.2852 238.733 41.6467L237.136 40.5149C236.237 39.8474 236.034 38.5994 236.701 37.6997L238.5 35.2038C239.139 34.3041 240.416 34.101 241.316 34.7395L242.883 35.8713C244.015 35.1167 245.263 34.5363 246.598 34.2171L246.801 32.2726C246.917 31.1697 247.904 30.3571 249.006 30.4732L252.083 30.7925ZM244.16 44.7521C244.16 47.5092 246.365 49.7148 249.123 49.7148C251.851 49.7148 254.085 47.5092 254.085 44.7521C254.085 42.024 251.851 39.7893 249.123 39.7893C246.365 39.7893 244.16 42.024 244.16 44.7521ZM248.745 61.4688C249.848 61.3237 250.864 62.0783 251.009 63.1811L251.27 65.1256C252.634 65.4158 253.882 65.9382 255.014 66.6638L256.581 65.4739C257.452 64.8064 258.729 64.9515 259.396 65.8511L261.283 68.289C261.979 69.1597 261.805 70.4366 260.935 71.1041L259.367 72.2941C259.58 72.9325 259.735 73.6 259.832 74.2966C259.928 74.9931 259.957 75.6703 259.919 76.3281L261.718 77.0827C262.763 77.489 263.256 78.6789 262.821 79.6947L261.66 82.5679C261.225 83.5836 260.064 84.077 259.019 83.6417L257.22 82.9161C256.32 83.9319 255.217 84.7736 253.998 85.383L254.259 87.3275C254.405 88.4303 253.621 89.4461 252.518 89.5912L249.471 90.0266C248.368 90.1717 247.352 89.3881 247.207 88.2852L246.946 86.3407C245.582 86.0795 244.334 85.5281 243.173 84.8026L241.635 85.9925C240.764 86.66 239.487 86.5149 238.82 85.6442L236.933 83.2064C236.237 82.3067 236.411 81.0297 237.282 80.3622L238.849 79.1723C238.636 78.5338 238.481 77.8663 238.384 77.1698C238.288 76.4926 238.259 75.8154 238.297 75.1382L236.498 74.3836C235.453 73.9773 234.96 72.7874 235.395 71.7716L236.556 68.9275C236.991 67.8827 238.152 67.3893 239.197 67.8246L240.996 68.5502C241.896 67.5344 242.999 66.6928 244.218 66.0833L243.957 64.1388C243.811 63.036 244.595 62.0202 245.698 61.8751L248.745 61.4688ZM244.131 75.7477C244.131 78.4758 246.365 80.7105 249.093 80.7105C251.851 80.7105 254.056 78.4758 254.056 75.7477C254.056 72.9906 251.851 70.7849 249.093 70.7849C246.365 70.7849 244.131 72.9906 244.131 75.7477ZM212.177 43.6202C207.534 43.6202 203.326 45.5066 200.278 48.554C197.231 51.6013 195.345 55.8095 195.345 60.453C195.345 65.0966 197.231 69.3048 200.278 72.3521C203.326 75.3994 207.534 77.2858 212.177 77.2858C216.821 77.2858 221.029 75.3994 224.076 72.3521C227.124 69.3048 229.01 65.0966 229.01 60.453C229.01 55.8095 227.124 51.6013 224.076 48.554C221.029 45.5066 216.821 43.6202 212.177 43.6202ZM224.396 60.453C224.396 63.8196 223.032 66.8959 220.826 69.1016C218.62 71.3073 215.544 72.6713 212.177 72.6713C208.811 72.6713 205.734 71.3073 203.529 69.1016C201.323 66.8959 199.959 63.8196 199.959 60.453C199.959 57.0865 201.323 54.0101 203.529 51.8044C205.734 49.5988 208.811 48.2347 212.177 48.2347C215.544 48.2347 218.62 49.5988 220.826 51.8044C223.032 54.0101 224.396 57.0865 224.396 60.453Z" fill="#EFF9FC"/>
<path d="M357.84 114.666C360.858 114.666 360.713 115.16 361.119 115.16C361.583 115.16 366.72 111.793 366.72 111.793L367.649 111.213V117.278C366.343 117.946 365.414 118.41 365.095 118.584C365.095 118.584 363.238 120.616 362.048 121.835C360.858 123.054 359.146 123.75 358.768 124.04C358.71 124.069 357.346 124.998 355.344 125.724C353.66 126.333 354.995 124.998 354.995 124.998C354.995 124.998 357.956 123.315 357.782 123.112C357.665 122.967 356.098 123.982 354.212 124.679C353.718 124.853 353.254 125.027 352.79 125.172C351.629 125.608 351.077 125.056 352.209 124.418C352.616 124.215 353.312 123.866 353.805 123.663C354.386 123.489 354.821 123.141 355.286 122.88C356.156 122.444 356.795 122.096 356.766 122.067C356.737 122.038 356.824 121.835 356.301 122.009C355.692 122.212 354.444 122.938 353.515 123.199C352.993 123.315 351.89 123.663 351.89 123.663C351.89 123.663 350.12 123.924 350.062 123.808C349.8 123.315 350.99 122.821 351.745 122.734C352.18 122.415 353.341 122.096 353.341 122.096C353.341 122.096 355.547 120.906 355.402 120.587C355.315 120.471 353.893 121.051 352.383 121.399C350.99 121.719 349.51 121.835 349.423 121.574C349.249 121.167 350.758 120.645 350.758 120.645C350.758 120.645 351.832 120.326 352.18 120.18C352.587 120.035 353.805 119.484 353.805 119.484C353.805 119.484 357.869 117.394 357.694 117.133C357.52 116.872 356.737 116.35 356.447 116.408C356.156 116.437 355.663 116.814 355.344 116.843C355.053 116.901 354.647 116.698 354.56 116.35C354.473 116.001 355.837 115.247 355.837 115.247C355.837 115.247 356.94 114.666 357.84 114.666Z" fill="#FFB27D"/>
<path d="M363.209 116.64C362.338 114.811 361.932 112.693 361.932 112.693C361.932 112.693 377.981 102.361 379.374 101.2C380.303 100.475 393.392 91.884 397.135 85.4701C401.169 77.5761 410.776 71.3074 413.939 76.2121C413.939 76.2121 417.915 83.5837 407.728 91.1004C400.415 98.414 393.769 104.305 385.933 109.21C378.039 113.738 365.037 118.962 365.037 118.962C365.037 118.962 363.905 118.062 363.209 116.64Z" fill="#4F8ECC"/>
<path fill-rule="evenodd" clip-rule="evenodd" d="M210.147 145.865L250.458 130.251L259.832 172.478L245.205 164.642L219.376 212.877C217.286 216.766 212.817 218.507 209.479 216.708L201.266 212.326C197.899 210.526 196.854 205.854 198.973 201.936L224.774 153.701L210.147 145.865ZM250.313 201.384L276.143 153.15C278.232 149.232 282.702 147.519 286.068 149.319L294.253 153.701C297.619 155.5 298.664 160.173 296.574 164.091L270.745 212.297L285.372 220.133L245.06 235.747L235.686 193.548L250.313 201.384Z" fill="#BBDBFA"/>
</svg>
