<svg width="600" height="431" viewBox="0 0 600 431" fill="none" xmlns="http://www.w3.org/2000/svg">
<path d="M308.127 0C235.02 0 204.227 52.3016 151.457 92.9759C81.5864 146.79 11.7373 111.759 0.557206 293.6C-9.38777 455.425 114.829 311.105 289.962 369.093C465.096 427.059 643.467 450.399 590.526 262.828C537.607 75.2581 478.001 0 308.127 0Z" fill="#E9EFF8"/>
<path d="M494.974 430.296C552.131 430.296 598.747 426.612 598.747 422.097C598.747 417.604 552.131 413.92 494.974 413.92C437.838 413.92 391.223 417.604 391.223 422.097C391.223 426.612 437.838 430.296 494.974 430.296Z" fill="#D0D9EE"/>
<path d="M93.4268 42.2714L259.595 21.3167C272.564 19.6769 284.511 28.9617 286.151 41.9307L314.963 270.324C316.582 283.293 307.318 295.261 294.349 296.88L128.181 317.835C115.212 319.474 103.265 310.211 101.626 297.242L72.8128 68.8268C71.173 55.8579 80.4578 43.9112 93.4268 42.2714Z" fill="#CBD4EB"/>
<path d="M94.2786 48.9368L260.426 27.982C269.732 26.8108 278.314 33.455 279.485 42.7611L308.298 271.176C309.469 280.482 302.804 289.043 293.498 290.214L127.35 311.169C118.044 312.34 109.462 305.696 108.291 296.39L79.4783 67.9962C78.307 58.6901 84.9725 50.108 94.2786 48.9368Z" fill="#D9E0F1"/>
<path d="M82.6934 62.2465L245.902 28.4932L294.029 261.061L130.821 294.814L82.6934 62.2465Z" fill="white"/>
<path d="M94.1719 75.258L240.557 44.9758L244.454 63.8649L98.0689 94.147L94.1719 75.258Z" fill="#CBD4EB"/>
<path d="M105.842 108.671L124.433 104.816L128.287 123.407L109.696 127.262L105.842 108.671ZM137.061 259.613L155.652 255.78L159.506 274.371L140.915 278.204L137.061 259.613ZM130.821 229.437L149.412 225.583L153.245 244.174L134.655 248.028L130.821 229.437ZM124.582 199.24L143.173 195.407L147.027 213.998L128.436 217.831L124.582 199.24ZM118.321 169.065L136.912 165.21L140.766 183.801L122.175 187.655L118.321 169.065ZM112.081 138.868L130.672 135.034L134.527 153.625L115.915 157.459L112.081 138.868Z" fill="#CBD4EB"/>
<path fill-rule="evenodd" clip-rule="evenodd" d="M139.191 102.474L240.131 81.5828C241.835 81.2421 243.517 82.3495 243.858 84.0531C244.22 85.7567 243.113 87.4391 241.409 87.8011L140.469 108.671C138.765 109.033 137.083 107.925 136.742 106.222H136.721C136.38 104.518 137.487 102.836 139.191 102.474ZM170.41 253.437L271.351 232.546C273.054 232.184 274.737 233.292 275.099 234.995C275.439 236.699 274.332 238.403 272.628 238.743L171.709 259.634C170.006 259.975 168.302 258.867 167.961 257.164C167.599 255.46 168.707 253.778 170.41 253.437ZM233.317 251.925C235.021 251.584 236.703 252.67 237.065 254.395C237.427 256.099 236.32 257.781 234.616 258.122L173.988 270.665C172.284 271.027 170.602 269.92 170.24 268.216C169.899 266.513 171.006 264.83 172.71 264.468L233.317 251.925ZM164.149 223.24L265.09 202.349C266.793 202.009 268.476 203.116 268.838 204.82C269.178 206.523 268.071 208.206 266.367 208.546L165.448 229.437C163.723 229.778 162.041 228.671 161.7 226.988C161.338 225.285 162.446 223.581 164.149 223.24ZM227.056 221.728C228.76 221.387 230.442 222.495 230.804 224.198C231.166 225.902 230.059 227.584 228.355 227.925L167.727 240.468C166.023 240.83 164.341 239.723 163.979 238.019C163.638 236.316 164.746 234.633 166.449 234.271L227.056 221.728ZM157.888 193.043L258.829 172.174C260.533 171.812 262.215 172.919 262.577 174.623C262.918 176.326 261.81 178.009 260.107 178.371L159.166 199.24C157.463 199.602 155.78 198.495 155.439 196.791C155.077 195.088 156.185 193.405 157.888 193.043ZM220.795 191.553C222.499 191.191 224.181 192.298 224.543 194.002C224.905 195.705 223.798 197.387 222.094 197.75L161.466 210.293C159.762 210.633 158.08 209.526 157.718 207.822C157.377 206.119 158.485 204.436 160.188 204.096L220.795 191.553ZM151.628 162.846L252.568 141.977C254.272 141.615 255.954 142.722 256.316 144.426C256.657 146.129 255.549 147.812 253.846 148.174L152.905 169.043C151.202 169.405 149.519 168.298 149.179 166.594C148.817 164.891 149.924 163.208 151.628 162.846ZM214.534 161.356C216.238 160.994 217.92 162.101 218.282 163.805C218.623 165.508 217.537 167.191 215.812 167.553L155.205 180.096C153.502 180.436 151.819 179.329 151.457 177.625C151.095 175.922 152.203 174.239 153.906 173.899L214.534 161.356ZM145.388 132.671L246.328 111.78C248.032 111.418 249.714 112.525 250.076 114.229C250.417 115.954 249.31 117.615 247.606 117.977L146.666 138.868C144.962 139.208 143.28 138.101 142.939 136.397C142.577 134.694 143.684 133.011 145.388 132.671ZM208.295 131.159C209.998 130.797 211.681 131.904 212.043 133.608V133.629C212.383 135.333 211.276 136.994 209.573 137.356L148.966 149.899C147.262 150.261 145.58 149.153 145.218 147.45C144.856 145.746 145.963 144.064 147.667 143.702L208.295 131.159ZM202.055 100.962C203.759 100.621 205.441 101.728 205.803 103.432C206.144 105.136 205.037 106.818 203.333 107.159L142.705 119.702C141.001 120.064 139.319 118.956 138.978 117.253C138.616 115.549 139.723 113.867 141.427 113.505L202.055 100.962Z" fill="#CBD4EB"/>
<path fill-rule="evenodd" clip-rule="evenodd" d="M133.93 26.5979L163.148 22.9138L162.36 16.7594C161.529 10.1152 166.278 4.02474 172.901 3.17292C179.524 2.3424 185.636 7.09128 186.466 13.7142L187.254 19.8686L216.472 16.1844C220.475 15.6733 224.159 18.5482 224.67 22.5518L226.417 36.4151C226.928 40.4187 224.074 44.1241 220.049 44.6139L137.508 55.0273C133.505 55.5384 129.82 52.6848 129.309 48.66L127.563 34.7967C127.052 30.7931 129.906 27.0877 133.93 26.5979ZM173.817 10.3708C170.857 10.7541 168.77 13.4373 169.153 16.3761C169.515 19.3362 172.198 21.4018 175.158 21.0398C178.097 20.6778 180.184 17.9733 179.822 15.0345C179.439 12.0957 176.756 10.0088 173.817 10.3708Z" fill="#CBD4EB"/>
<path d="M108.845 112.568C108.163 111.844 108.206 110.694 108.93 110.012C109.654 109.331 110.804 109.373 111.486 110.097L117.065 116.039L123.986 100.6C124.412 99.7051 125.477 99.2792 126.392 99.7051C127.287 100.11 127.691 101.174 127.287 102.09L119.28 119.914C119.195 120.149 119.045 120.383 118.833 120.575C118.108 121.256 116.959 121.214 116.277 120.489L108.845 112.568ZM115.106 142.743C114.424 142.019 114.446 140.869 115.17 140.188C115.915 139.506 117.044 139.549 117.725 140.273L123.305 146.214L130.247 130.775C130.651 129.881 131.716 129.476 132.632 129.881C133.526 130.285 133.931 131.35 133.526 132.266L125.519 150.09C125.434 150.324 125.285 150.559 125.072 150.75C124.348 151.432 123.219 151.389 122.538 150.665L115.106 142.743ZM140.085 263.51C139.404 262.764 139.425 261.636 140.171 260.954C140.895 260.273 142.045 260.315 142.726 261.039L148.284 266.96L155.226 251.542C155.631 250.626 156.696 250.221 157.612 250.626C158.506 251.031 158.932 252.095 158.506 253.011L150.52 270.835C150.414 271.091 150.265 271.304 150.073 271.496C149.328 272.177 148.199 272.134 147.517 271.41L140.085 263.51ZM133.825 233.313C133.143 232.589 133.186 231.46 133.91 230.757C134.634 230.076 135.784 230.118 136.465 230.842L142.045 236.784L148.966 221.345C149.37 220.45 150.456 220.046 151.351 220.45C152.266 220.855 152.671 221.92 152.266 222.835L144.259 240.66C144.174 240.894 144.025 241.128 143.812 241.32C143.088 242.001 141.938 241.959 141.257 241.235L133.825 233.313ZM127.585 203.116C126.903 202.392 126.946 201.242 127.67 200.56C128.394 199.879 129.544 199.921 130.226 200.646L135.805 206.587L142.726 191.148C143.131 190.232 144.195 189.827 145.111 190.253C146.027 190.658 146.431 191.723 146.027 192.638L138.02 210.463C137.913 210.697 137.764 210.91 137.573 211.102C136.848 211.783 135.699 211.762 135.017 211.016L127.585 203.116ZM121.345 172.94C120.664 172.195 120.685 171.066 121.431 170.385C122.155 169.703 123.305 169.746 123.986 170.47L129.544 176.39L136.486 160.972C136.891 160.056 137.956 159.652 138.872 160.056C139.766 160.461 140.192 161.526 139.766 162.441L131.78 180.266C131.674 180.521 131.525 180.734 131.333 180.926C130.588 181.607 129.459 181.565 128.777 180.841L121.345 172.94Z" fill="#ACB8DB"/>
<path d="M222.029 63.1836L475.786 96.7239C485.22 97.9804 492.673 106.371 492.673 115.932V284.337C492.673 294.878 483.644 302.694 473.209 301.331L219.453 267.769C210.019 266.534 202.565 258.122 202.565 248.582V80.1774C202.565 69.6361 211.595 61.8207 222.029 63.1836Z" fill="#BCC9E7"/>
<path d="M220.752 72.9156L474.487 106.456C479.087 107.073 482.856 111.333 482.856 115.932V284.337C482.856 288.937 479.087 292.216 474.487 291.599L220.752 258.058C216.131 257.441 212.383 253.182 212.383 248.582V80.1773C212.383 75.5775 216.131 72.298 220.752 72.9156Z" fill="white"/>
<path d="M64.7621 363.62L316.027 405.849C325.397 407.425 331.935 405.231 336.684 402.569L487.264 318.324C491.544 315.939 490.224 311.638 485.113 310.956L213.234 274.562C210.253 274.158 205.333 273.732 200.712 276.415L62.2918 357.082C59.6938 358.594 60.2687 362.853 64.7621 363.62Z" fill="#D0D9EE"/>
<path d="M141.831 330.037L348.631 360.276C356.148 361.384 361.302 359.68 365.135 357.657L434.26 321.199C437.731 319.347 436.624 315.833 432.535 315.3L215.3 286.211C212.915 285.891 209.018 285.593 205.291 287.701L139.85 324.798C137.742 325.991 138.232 329.504 141.831 330.037Z" fill="#BCC9E7"/>
<path d="M316.027 405.849L64.7624 363.62C61.5467 363.066 60.3329 360.745 60.8653 358.892C59.6514 359.531 60.9079 370.775 65.4012 371.542L316.666 413.771C326.036 415.347 332.595 413.174 337.323 410.491L485.667 326.246C488.542 324.628 489.905 319.027 489.756 315.407C489.543 316.472 488.734 317.515 487.264 318.324L336.684 402.569C331.935 405.231 325.397 407.425 316.027 405.849Z" fill="#BCC9E7"/>
<path fill-rule="evenodd" clip-rule="evenodd" d="M461.306 124.621C461.519 123.003 460.39 121.491 458.772 121.256L431.854 117.487C430.214 117.253 428.724 118.403 428.49 120.021C428.255 121.64 429.405 123.13 431.024 123.365L457.941 127.134C459.581 127.368 461.072 126.24 461.306 124.621ZM342.499 142.19C342.711 140.571 341.583 139.059 339.964 138.825L265.26 128.348C263.641 128.135 262.129 129.263 261.917 130.882C261.682 132.5 262.811 134.012 264.429 134.225L339.134 144.724C340.774 144.937 342.264 143.808 342.499 142.19ZM427.318 154.073C427.531 152.454 426.403 150.964 424.784 150.729L352.018 140.529C350.399 140.295 348.887 141.423 348.674 143.042C348.44 144.681 349.569 146.172 351.187 146.406L423.954 156.607C425.572 156.841 427.084 155.712 427.318 154.073ZM316.39 121.405C316.625 119.787 315.496 118.275 313.877 118.062L267.624 111.567C265.984 111.333 264.493 112.483 264.259 114.101C264.046 115.72 265.175 117.21 266.793 117.444L313.047 123.94C314.665 124.174 316.177 123.024 316.39 121.405ZM455.599 143.936C457.217 144.17 458.708 143.02 458.942 141.402C459.176 139.783 458.048 138.293 456.408 138.058L326.804 119.872C325.185 119.638 323.673 120.767 323.46 122.406C323.226 124.025 324.355 125.515 325.973 125.75L455.599 143.936ZM418.566 121.618C420.184 121.853 421.696 120.724 421.931 119.106C422.144 117.466 421.015 115.975 419.396 115.741L269.987 94.7861C268.369 94.5519 266.857 95.6805 266.644 97.3203C266.41 98.9387 267.539 100.429 269.157 100.664L418.566 121.618Z" fill="#CBD4EB"/>
<path fill-rule="evenodd" clip-rule="evenodd" d="M461.306 185.654C461.519 184.014 460.39 182.523 458.772 182.289L431.854 178.52C430.214 178.286 428.724 179.414 428.49 181.054C428.255 182.672 429.405 184.163 431.024 184.397L457.941 188.167C459.581 188.401 461.072 187.272 461.306 185.654ZM342.499 203.201C342.711 201.583 341.583 200.092 339.964 199.858L265.26 189.38C263.641 189.146 262.129 190.275 261.917 191.915C261.682 193.533 262.811 195.024 264.429 195.258L339.134 205.735C340.774 205.97 342.264 204.841 342.499 203.201ZM427.318 215.105C427.531 213.487 426.403 211.996 424.784 211.762L352.018 201.561C350.399 201.327 348.887 202.456 348.674 204.074C348.44 205.693 349.569 207.205 351.187 207.439L423.954 217.64C425.572 217.874 427.084 216.724 427.318 215.105ZM316.39 182.438C316.625 180.82 315.496 179.308 313.877 179.095L267.624 172.6C265.984 172.365 264.493 173.494 264.259 175.113C264.046 176.752 265.175 178.243 266.793 178.477L313.047 184.972C314.665 185.185 316.177 184.057 316.39 182.438ZM455.599 204.969C457.217 205.182 458.708 204.053 458.942 202.435C459.176 200.816 458.048 199.304 456.408 199.091L326.804 180.905C325.185 180.671 323.673 181.799 323.46 183.418C323.226 185.058 324.355 186.548 325.973 186.782L455.599 204.969ZM418.566 182.651C420.184 182.885 421.696 181.757 421.931 180.117C422.144 178.499 421.015 177.008 419.396 176.774L269.987 155.819C268.369 155.585 266.857 156.713 266.644 158.332C266.41 159.971 267.539 161.462 269.157 161.696L418.566 182.651Z" fill="#CBD4EB"/>
<path fill-rule="evenodd" clip-rule="evenodd" d="M461.306 246.665C461.519 245.047 460.39 243.556 458.772 243.322L431.854 239.552C430.214 239.318 428.724 240.447 428.49 242.065C428.255 243.705 429.405 245.196 431.024 245.43L457.941 249.199C459.581 249.434 461.072 248.305 461.306 246.665ZM342.499 264.234C342.711 262.615 341.583 261.125 339.964 260.891L265.26 250.413C263.641 250.179 262.129 251.308 261.917 252.926C261.682 254.566 262.811 256.056 264.429 256.291L339.134 266.768C340.774 267.002 342.264 265.874 342.499 264.234ZM427.318 276.138C427.531 274.52 426.403 273.008 424.784 272.795L352.018 262.573C350.399 262.36 348.887 263.489 348.674 265.107C348.44 266.725 349.569 268.237 351.187 268.45L423.954 278.672C425.572 278.885 427.084 277.757 427.318 276.138ZM316.39 243.471C316.625 241.831 315.496 240.34 313.877 240.106L267.624 233.632C265.984 233.398 264.493 234.527 264.259 236.145C264.046 237.764 265.175 239.276 266.793 239.51L313.047 245.984C314.665 246.218 316.177 245.089 316.39 243.471ZM455.599 265.98C457.217 266.214 458.708 265.086 458.942 263.467C459.176 261.849 458.048 260.337 456.408 260.103L326.804 241.938C325.185 241.703 323.673 242.832 323.46 244.45C323.226 246.069 324.355 247.581 325.973 247.794L455.599 265.98ZM418.566 243.684C420.184 243.897 421.696 242.768 421.931 241.15C422.144 239.531 421.015 238.019 419.396 237.806L269.987 216.83C268.369 216.617 266.857 217.746 266.644 219.364C266.41 220.983 267.539 222.495 269.157 222.708L418.566 243.684Z" fill="#CBD4EB"/>
<path d="M251.865 123.62L234.701 121.661C232.529 121.427 230.931 119.446 231.187 117.253L233.125 100.089C233.38 97.8951 235.361 96.3192 237.554 96.5748L254.719 98.5127C256.912 98.7682 258.488 100.727 258.232 102.921L256.294 120.085C256.039 122.278 254.058 123.854 251.865 123.62Z" fill="#CBD4EB"/>
<path d="M249.629 185.015L232.507 182.822C230.314 182.545 228.759 180.543 229.036 178.349L231.229 161.228C231.506 159.034 233.508 157.48 235.701 157.757L252.823 159.95C255.016 160.227 256.571 162.25 256.294 164.422L254.101 181.565C253.824 183.737 251.822 185.292 249.629 185.015Z" fill="#CBD4EB"/>
<path d="M248.245 246.772L231.017 245.345C228.824 245.153 227.205 243.215 227.376 241.022L228.824 223.815C228.994 221.622 230.932 219.982 233.125 220.152L250.332 221.6C252.547 221.792 254.165 223.709 253.995 225.923L252.547 243.13C252.376 245.324 250.439 246.963 248.245 246.772Z" fill="#CBD4EB"/>
<path d="M232.72 102.644C232.06 101.324 232.593 99.6839 233.934 99.0238C235.276 98.3636 236.894 98.896 237.554 100.238L243.027 111.098L259.51 91.9324C260.49 90.8037 262.193 90.6759 263.322 91.6555C264.429 92.6138 264.578 94.3175 263.599 95.4461L244.561 117.593C244.326 117.892 244.007 118.147 243.645 118.339C242.303 119.02 240.685 118.467 240.025 117.146L232.72 102.644Z" fill="#99A9D4"/>
<path d="M232.38 162.932C231.698 161.611 232.252 159.972 233.572 159.311C234.914 158.651 236.532 159.184 237.192 160.525L242.665 171.386L259.148 152.22C260.128 151.091 261.831 150.964 262.96 151.943C264.089 152.901 264.216 154.605 263.237 155.734L244.199 177.881C243.964 178.179 243.645 178.435 243.283 178.626C241.941 179.286 240.323 178.754 239.663 177.434L232.38 162.932Z" fill="#99A9D4"/>
<path d="M227.971 224.965C227.289 223.645 227.843 222.026 229.185 221.345C230.505 220.685 232.123 221.217 232.805 222.559L238.257 233.419L254.761 214.253C255.719 213.125 257.422 212.997 258.551 213.977C259.68 214.956 259.808 216.66 258.849 217.788L239.79 239.914C239.556 240.234 239.236 240.489 238.874 240.66C237.554 241.341 235.914 240.809 235.254 239.467L227.971 224.965Z" fill="#99A9D4"/>
<path d="M524.404 48.5324C521.337 93.6361 510.477 143.638 460.773 156.564L459.538 156.884L458.303 156.564C408.578 143.638 397.717 93.6361 394.672 48.5324L394.374 44.1881L398.654 43.3789C419.375 39.4818 438.392 31.709 457.494 22.9565L459.538 22.0195L461.582 22.9565C480.663 31.709 499.68 39.4818 520.422 43.3789L524.702 44.1881L524.404 48.5324Z" fill="#E9EFF8"/>
<path d="M519.506 48.0212C499.02 44.188 480.748 36.9901 459.538 27.2368C438.307 36.9901 420.035 44.188 399.549 48.0212C403.744 109.65 422.016 141.892 459.538 151.666C497.061 141.892 515.332 109.65 519.506 48.0212Z" fill="#AAB9DE"/>
<path d="M509.987 55.1553C492.439 51.0453 475.999 44.5076 459.538 37.0754C443.055 44.5076 426.615 51.0453 409.089 55.1553C411.538 82.5625 418.225 116.444 440.734 133.203C446.42 137.441 452.766 140.401 459.538 142.381C466.288 140.401 472.635 137.441 478.32 133.203C500.83 116.444 507.516 82.5625 509.987 55.1553Z" fill="#D0D9EE"/>
<path d="M509.987 55.1553C492.44 51.0453 475.999 44.5076 459.538 37.0754V142.381C466.289 140.38 472.635 137.441 478.321 133.203C500.83 116.444 507.517 82.5625 509.987 55.1553Z" fill="#BCC9E7"/>
<path fill-rule="evenodd" clip-rule="evenodd" d="M476.554 78.4312V78.5164C479.279 78.9636 481.366 81.37 481.366 84.2023V111.013C481.366 114.186 478.768 116.806 475.574 116.806H443.482C440.309 116.806 437.689 114.186 437.689 111.013V84.2023C437.689 81.37 439.798 78.9636 442.502 78.5164V69.3381C442.502 64.6744 444.419 60.4153 447.507 57.3274C450.594 54.2396 454.854 52.323 459.539 52.323C464.224 52.323 468.483 54.2396 471.549 57.3274C474.637 60.4153 476.554 64.6744 476.554 69.3381C476.554 72.362 476.554 75.3931 476.554 78.4312ZM447.975 78.4312H471.081C471.081 75.3931 471.081 72.362 471.081 69.3381C471.081 66.165 469.782 63.2902 467.695 61.1819C465.586 59.095 462.712 57.7959 459.539 57.7959C456.366 57.7959 453.469 59.095 451.382 61.1819C449.274 63.2902 447.975 66.165 447.975 69.3381V78.4312Z" fill="white"/>
<path d="M459.538 86.6724C462.945 86.6724 465.714 89.4408 465.714 92.848C465.714 95.6165 463.882 97.9589 461.369 98.7256V106.2C461.369 107.201 460.539 108.032 459.538 108.032C458.516 108.032 457.707 107.201 457.707 106.2V98.7256C455.194 97.9589 453.362 95.6165 453.362 92.848C453.362 89.4408 456.131 86.6724 459.538 86.6724Z" fill="#BCC9E7"/>
<path d="M352.955 110.417L359.961 118.445L370.311 115.911C372.227 115.443 374.144 116.529 374.762 118.36L378.382 128.284L388.923 129.668C390.84 129.902 392.245 131.563 392.203 133.459L391.968 144.106L401.338 149.196C403.021 150.133 403.723 152.177 402.999 153.923L398.953 163.783L405.832 171.918C407.067 173.387 406.982 175.538 405.683 176.901L398.357 184.631L401.828 194.704C402.488 196.6 401.53 198.686 399.677 199.411L390.265 203.861L389.86 214.53C389.796 216.532 388.156 218.087 386.197 218.129L375.762 218.896L371.546 228.67C370.779 230.438 368.82 231.311 367.01 230.779L356.81 227.648L349.356 235.229C348.014 236.614 345.821 236.741 344.352 235.57L335.983 228.969L326.293 233.355C324.483 234.186 322.353 233.441 321.416 231.716L316.093 222.686L305.445 223.283C303.443 223.389 301.718 221.899 301.505 219.939L299.802 209.632L289.665 206.332C287.834 205.735 286.769 203.861 287.152 202.009L289.324 191.574L281.062 184.844C279.571 183.631 279.251 181.48 280.295 179.904L286.087 170.96L280.806 161.696C279.826 159.95 280.38 157.735 282.062 156.671L290.517 150.58L288.941 140.039C288.643 138.058 289.942 136.206 291.858 135.801L301.995 133.139L304.359 122.768C304.785 120.809 306.659 119.553 308.597 119.872L319.01 121.065L324.952 112.206C326.016 110.608 328.125 110.097 329.807 110.971L339.262 115.932L347.993 109.821C349.569 108.713 351.699 109.011 352.955 110.417Z" fill="#BCC9E7"/>
<path d="M348.505 126.133C373.889 129.221 391.969 152.305 388.881 177.689C385.793 203.073 362.687 221.153 337.303 218.065C311.919 214.956 293.86 191.872 296.948 166.488C300.036 141.104 323.12 123.024 348.505 126.133Z" fill="white"/>
<path d="M347.887 131.18C370.503 133.927 386.581 154.477 383.834 177.072C381.087 199.687 360.515 215.765 337.921 213.018C315.326 210.271 299.227 189.7 301.995 167.105C304.742 144.511 325.292 128.411 347.887 131.18Z" fill="#D0D9EE"/>
<path d="M375.124 220.323L389.796 278.14L367.67 264.383L353.913 285.934L345.949 236.294C347.141 236.528 348.44 236.166 349.356 235.229L356.809 227.648L367.01 230.779C368.82 231.311 370.779 230.438 371.546 228.67L375.124 220.323ZM324.547 233.675L304.87 279.95L296.714 255.737L271.926 263.765L300.036 211.166L301.484 219.918C301.697 221.898 303.422 223.368 305.424 223.261L316.071 222.686L321.416 231.716C322.055 232.908 323.248 233.611 324.547 233.675Z" fill="#AAB9DE"/>
<path d="M305.615 180.926C303.954 179.563 303.719 177.093 305.082 175.432C306.445 173.771 308.915 173.515 310.576 174.9L330.956 191.723L369.139 148.046C370.544 146.406 373.015 146.236 374.655 147.663C376.273 149.068 376.443 151.539 375.017 153.178L334.406 199.645C333.022 201.306 330.573 201.54 328.912 200.177L305.615 180.926Z" fill="white"/>
<path d="M479.917 149.899C482.834 156.969 489.734 160.845 495.313 158.523C500.871 156.223 503.001 148.621 500.062 141.53C497.145 134.46 490.245 130.605 484.666 132.905C479.108 135.226 476.978 142.829 479.917 149.899Z" fill="#0F3970"/>
<path d="M453.447 412.216L454.044 398.821L465.5 400.269L464.201 414.26L455.343 417.732L453.447 412.216Z" fill="#F6B788"/>
<path d="M467.183 420.202C466.97 418.967 466.395 417.838 465.969 416.667C465.82 416.283 464.713 412.812 464.5 412.812L464.223 412.834L455.47 413.387L453.596 410.299L453.341 409.874C451.786 410.512 450.253 411.13 448.698 411.769C445.618 413.018 442.537 414.267 439.456 415.517C437.171 416.454 434.885 417.384 432.599 418.307C432.045 418.541 431.577 419.031 431.407 419.606C431.236 420.223 431.747 421.48 432.642 421.756C434.345 422.289 436.645 422.608 438.413 422.821C441.927 423.247 445.121 423.332 448.656 423.652C452.17 423.95 455.449 424.056 458.92 424.141C460.283 424.163 461.667 424.205 463.115 424.227C463.186 424.227 463.257 424.227 463.328 424.227C464.265 424.248 465.671 424.227 466.438 423.63C467.438 422.842 467.375 421.33 467.183 420.202Z" fill="#1A3065"/>
<path d="M527.768 408.255L521.869 396.223L532.623 391.985L538.181 404.912L532.091 412.195L527.768 408.255Z" fill="#F6B788"/>
<path d="M543.654 408.702C542.888 407.701 541.823 406.999 540.886 406.168C540.588 405.913 537.947 403.4 537.756 403.506L537.521 403.655L530.11 408.319L527.001 406.509L526.554 406.253C525.504 407.545 524.446 408.844 523.381 410.15C521.28 412.72 519.179 415.29 517.078 417.859C515.516 419.776 513.954 421.685 512.393 423.588C512.009 424.056 511.839 424.717 511.967 425.313C512.116 425.909 513.159 426.782 514.075 426.591C515.821 426.25 518.015 425.419 519.654 424.78C522.934 423.46 525.787 422.012 529.024 420.585C532.261 419.18 535.2 417.689 538.288 416.113C539.502 415.496 540.737 414.835 542.015 414.175C542.071 414.147 542.135 414.118 542.206 414.09C543.037 413.643 544.251 412.94 544.634 412.046C545.145 410.896 544.357 409.597 543.654 408.702Z" fill="#1A3065"/>
<path d="M501.766 282.292C501.752 282.363 501.709 282.505 501.638 282.718C500.19 286.914 488.541 316.898 482.195 333.167C479.768 339.407 478.107 343.623 478.107 343.623L469.184 405.189L449.613 403.996C449.613 403.996 451.317 348.926 453.489 333.231C455.15 321.242 458.557 306.825 464.563 282.207C465.585 278.033 467.48 267.322 468.46 259.336L501.766 259.826C501.063 262.424 502.554 278.992 501.766 282.292Z" fill="#09378C"/>
<path d="M501.638 282.718C500.19 286.914 488.542 316.898 482.196 333.167C479.236 326.992 477.383 318.048 477.383 308.124C477.383 289.448 483.921 274.307 491.992 274.307C495.697 274.307 499.062 277.501 501.638 282.718Z" fill="#1D3676"/>
<path d="M514.139 259.826H480.407C480.897 267.514 481.685 279.524 482.473 288.447C482.771 291.748 483.069 294.644 483.325 296.71C484.24 303.716 485.156 313.938 486.029 325.48C486.668 333.679 485.667 344.262 490.672 351.588C497.422 361.49 522.061 403.506 522.061 403.506L538.48 395.776L513.117 336.128C513.117 336.128 517.525 298.115 516.716 286.211C516.375 281.27 515.545 267.322 514.139 259.826Z" fill="#09378C"/>
<path d="M536.542 389.025L539.842 396.82L521.614 405.04L517.567 397.565L536.542 389.025Z" fill="#1A3065"/>
<path d="M470.952 398.672L470.164 407.446L449.422 406.126L448.933 396.798L470.952 398.672Z" fill="#1A3065"/>
<path d="M432.684 236.294C432.684 236.294 424.549 237.317 423.782 237.892C423.016 238.467 421.163 242.342 421.355 243.535C421.546 244.727 424.166 246.58 425.06 246.58C425.976 246.58 426.295 244.6 427.126 244.152C427.956 243.705 428.744 243.599 429.383 243.428C430.597 243.109 432.897 242.044 432.897 242.044L432.684 236.294Z" fill="#F6B788"/>
<path d="M469.546 197.473C469.546 197.473 458.856 226.392 454.256 228.628C449.656 230.864 432.684 236.294 432.684 236.294V242.938C432.684 242.938 449.933 243.215 458.515 240.724C467.076 238.211 478.235 228.883 478.235 228.883L469.546 197.473Z" fill="#8D9FCA"/>
<path d="M491.864 170.087L481.408 189.934L478.916 190.105L477.787 193.278L467.31 224.859C467.31 224.859 461.496 184.717 491.864 170.087Z" fill="#8B90A5"/>
<path d="M474.423 187.634C474.423 187.634 460.794 237.934 459.687 278.63C459.687 278.63 469.269 281.973 484.347 279.311C499.488 276.649 474.423 187.634 474.423 187.634Z" fill="#8D9FCA"/>
<path d="M482.494 178.137C491.183 180.862 506.196 173.473 506.196 173.473C506.196 173.473 498.189 167.467 498.615 154.967L491.907 160.376L487.35 164.06C487.35 164.06 487.371 166.232 487.861 170.023C487.946 170.719 488.052 171.464 488.18 172.259C488.286 172.898 488.01 173.537 487.456 173.877C484.283 175.837 482.494 178.137 482.494 178.137Z" fill="#F6B788"/>
<path d="M469.759 272.71C470.014 272.944 470.334 273.072 470.675 273.072C473.933 273.029 483.431 274.839 491.48 274.009C498.273 273.349 504.279 271.347 510.731 268.451C511.583 268.067 513.542 267.024 513.5 266.066C513.478 265.022 513.99 249.562 513.862 247.645C513.393 241.001 512.605 229.544 513.372 216.341C513.514 213.885 513.592 211.457 513.606 209.058C513.67 191.148 510.114 175.411 502.98 170.087C502.98 170.087 498.018 172.877 494.568 173.963C491.203 175.049 489.457 174.836 487.711 173.665C487.711 173.665 484.304 175.368 482.856 176.944C479.491 180.628 476.85 185.505 475.125 192.511C473.635 198.452 472.25 207.141 471.782 218.279C471.569 223.326 469.546 272.539 469.759 272.71Z" fill="white"/>
<path d="M523.509 275.755C501.596 289.491 483.708 282.527 483.708 282.527C480.492 257.462 478.554 218.513 478.98 211.145C480.045 178.733 502.98 170.087 502.98 170.087L512.542 199.645L513.969 212.806L516.524 236.571L523.509 275.755Z" fill="#8D9FCA"/>
<path d="M487.35 164.06C487.35 164.06 487.371 166.232 487.861 170.023C492.908 169.15 498.658 160.994 498.658 160.994C496.081 160.248 493.823 160.099 491.907 160.376L487.35 164.06Z" fill="#F4AA74"/>
<path d="M482.196 166.254C482.196 166.254 499.701 169.171 501.34 158.246C502.98 147.301 506.366 140.316 495.25 137.995C484.134 135.673 481.323 139.528 479.896 143.042C478.448 146.555 477.681 165.231 482.196 166.254Z" fill="#F6B788"/>
<path d="M527.938 248.944C527.938 248.944 529.599 251.18 529.663 252.074C530.132 258.122 527.363 258.953 534.519 262.317C534.519 262.317 537.564 263.489 537.628 261.104C537.67 258.74 535.498 258.697 535.903 255.375C536.35 251.542 536.308 251.499 533.795 249.519L532.134 246.75L527.938 248.944Z" fill="#F6B788"/>
<path d="M530.579 251.606C530.579 251.606 528.961 253.288 528.855 253.991C528.535 256.227 527.768 257.206 528.152 257.441C528.94 257.952 529.983 256.291 530.473 254.8C530.963 253.309 530.579 251.606 530.579 251.606Z" fill="#F6B788"/>
<path d="M516.524 236.571C511.711 224.284 498.295 203.563 498.295 203.563L513.968 212.805L516.524 236.571Z" fill="#8B90A5"/>
<path d="M532.197 250.648C529.493 251.18 526.575 250.967 526.575 250.967C526.575 250.967 518.568 226.243 517.546 223.986C516.864 222.516 506.664 212.124 499.53 204.969C495.313 200.752 493.95 194.47 496.016 188.891L502.98 170.087C502.98 170.087 508.41 173.26 514.117 183.12C521.187 195.322 528.96 214.956 530.344 218.151C534.476 227.691 535.903 249.072 535.903 249.072C535.903 249.072 534.305 250.243 532.197 250.648Z" fill="#8D9FCA"/>
<path d="M502.98 170.087L492.524 189.934L487.158 187.975L488.904 193.278L478.427 224.859C478.427 224.859 472.634 184.717 502.98 170.087Z" fill="#8B90A5"/>
<path d="M506.707 136.866C507.197 135.034 506.579 132.969 505.387 131.563C504.194 130.158 502.469 129.349 500.723 129.072C498.956 128.774 497.167 128.965 495.421 129.327C493.738 129.668 492.056 130.158 490.352 130.051C488.244 129.924 486.221 128.859 484.837 127.155C483.538 125.558 480.727 125.792 479.023 126.921C477.319 128.028 475.658 130.009 475.296 132.117C474.956 134.161 475.147 137.526 478.32 139.4C482.068 141.572 493.823 140.806 495.421 140.763C497.018 140.72 498.721 141.146 499.765 142.424C501.852 144.958 502.256 148.791 502.406 152.199C501.618 154.392 499.85 162.591 499.445 162.506C500.063 162.527 506.643 154.669 508.198 151.815C509.518 149.26 510.285 146.534 510.881 143.702C511.179 142.296 511.392 140.848 511.222 139.421C511.158 138.889 511.03 138.335 510.732 137.888C510.285 137.207 509.54 136.845 508.773 136.759C508.006 136.696 507.453 136.653 506.707 136.866Z" fill="#0F3970"/>
<path d="M504.215 147.982C505.472 148.706 505.387 151.219 504.002 153.583C502.639 155.946 500.51 157.288 499.253 156.564C497.997 155.84 498.082 153.327 499.445 150.942C500.829 148.578 502.959 147.258 504.215 147.982Z" fill="#F6B788"/>
<path d="M502.81 147.237C500.532 142.786 493.27 139.89 493.994 139.336C494.718 138.825 500.936 140.443 502.065 142.999C502.853 144.085 503.534 146.704 502.81 147.237Z" fill="#0F3970"/>
<path d="M489.287 147.279C489.798 148.003 491.864 148.046 492.886 148.429C493.397 148.621 494.696 149.558 495.186 149.515C496.719 149.345 492.375 146.044 489.628 146.406C489.287 146.449 489.095 146.96 489.287 147.279Z" fill="#0F3970"/>
<path d="M484.836 145.32C482.515 143.851 477.17 145.086 478.49 145.852C478.916 146.108 480.492 145.789 481.045 145.831C482.131 145.895 484.006 146.704 484.793 146.236C485.113 146.044 485.177 145.533 484.836 145.32Z" fill="#0F3970"/>
<path d="M490.735 152.859C491.502 153.029 492.78 150.282 490.948 149.856C489.947 149.622 489.5 152.561 490.735 152.859Z" fill="#0F3970"/>
<path d="M480.427 150.665C479.661 150.474 479.746 147.45 481.599 147.876C482.578 148.11 481.663 150.942 480.427 150.665Z" fill="#0F3970"/>
<path d="M483.537 156.628C483.686 156.33 483.153 156.181 482.834 156.01C481.641 155.435 481.45 156.032 483.281 150.921C483.622 149.92 483.941 149.409 483.579 149.281C483.238 149.196 483.217 149.622 482.812 150.75C480.832 156.33 480.981 155.606 483.217 156.734C483.345 156.798 483.473 156.756 483.537 156.628Z" fill="#ED7D5B"/>
<path d="M487.924 160.376C488.243 159.844 487.605 159.95 482.345 159.12C480.833 158.885 485.007 165.04 487.924 160.376Z" fill="white"/>
<path d="M138.531 146.768C135.23 141.913 142.385 140.656 142.321 135.333C142.279 131.67 144.578 127.858 143.876 124.195C142.47 116.72 145.388 114.463 145.409 113.888C145.579 108.224 148.987 108.074 152.351 106.179C158.335 102.772 163.553 106.924 165.235 107.031C173.902 107.606 169.111 111.333 172.987 114.676C176.181 117.444 174.669 119.531 174.328 121.192C174.179 121.938 173.498 125.004 175.712 126.58C178.949 128.859 175.627 134.949 177.523 135.524C184.891 137.76 181.931 138.676 181.718 143.808C181.654 145.469 180.078 146.704 179.035 147.918C166.385 143.957 157.675 159.716 138.531 146.768Z" fill="#0F3970"/>
<path d="M149.817 139.932C150.179 139.059 151.18 138.527 151.521 138.25C155.184 140.23 159.081 141.466 163.148 141.487C162.999 143.808 162.659 146.257 162.19 148.876C155.461 143.638 151.336 140.656 149.817 139.932Z" fill="white"/>
<path d="M166.045 139.634C167.038 141.735 167.706 143.695 168.046 145.512C166.982 143.574 165.789 142.403 163.148 141.487C164 140.593 163.915 139.443 164.256 138.527C165.207 139.109 165.803 139.478 166.045 139.634Z" fill="white"/>
<path d="M168.919 139.656C179.099 165.529 170.516 163.528 148.476 140.23C147.184 140.529 145.998 140.905 144.919 141.359C147.787 144 148.859 148.422 148.135 154.626C147.709 159.439 147.233 164.11 146.708 168.639C147.965 171.471 148.603 174.367 148.71 177.498C148.816 180.223 148.497 183.12 147.837 186.314C146.793 191.318 144.898 197.004 142.321 203.797C157.753 209.05 170.964 209.107 181.952 203.968C175.585 189.977 176.437 185.632 177.161 176.262C177.885 161.036 187.148 165.828 171.73 140.23C170.687 139.911 169.75 139.741 168.919 139.656Z" fill="#99A9D4"/>
<path d="M163.148 141.487C162.999 143.808 162.658 146.257 162.19 148.876C155.46 143.638 151.336 140.656 149.817 139.932C149.363 140.017 148.916 140.117 148.476 140.23C170.516 163.528 179.098 165.529 168.919 139.655C167.854 139.57 166.939 139.613 166.044 139.634C167.038 141.735 167.705 143.694 168.046 145.512C166.981 143.574 165.789 142.403 163.148 141.487Z" fill="#AAB9DE"/>
<path d="M157.377 177.732C153.189 177.746 149.278 177.59 145.644 177.263C146.595 170.08 147.425 162.534 148.135 154.626C148.859 148.422 147.787 144 144.92 141.359C141.115 142.963 138.694 145.469 137.658 148.876C135.401 156.159 135.677 183.226 138.126 185.675C141.221 187.024 147.759 186.747 157.739 184.844C157.044 182.814 156.923 180.443 157.377 177.732Z" fill="#AAB9DE"/>
<path d="M159.911 178.754C159.343 178.811 158.442 178.868 157.207 178.924C157.022 180.699 157.1 182.325 157.441 183.801C158.506 183.602 159.861 183.318 161.508 182.949C164.433 183.702 167.947 183.666 172.05 182.843C174.903 181.735 175.776 179.719 174.669 176.795C170.197 177.32 167.521 177.15 166.641 176.284C168.202 175.489 168.756 174.573 168.302 173.537C163.901 175.141 161.104 176.88 159.911 178.754Z" fill="#F4AE7C"/>
<path d="M175.074 170.662L206.357 165.913L199.585 179.435L168.26 184.355L168.75 183.333C169.814 183.233 170.915 183.07 172.05 182.843C174.904 181.735 175.777 179.719 174.67 176.795C173.648 176.908 172.725 176.994 171.901 177.05L175.074 170.662Z" fill="#D0D9EE"/>
<path d="M174.648 174.197L173.285 176.944C173.725 176.901 174.187 176.852 174.669 176.795C175.635 179.336 175.102 181.189 173.072 182.353L198.797 178.328L201.417 173.068C197.825 174.317 194.169 175.112 190.449 175.453C189.683 176.326 188.49 176.965 187.532 176.965C186.637 176.965 186.19 176.412 186.361 175.624C182.513 175.624 178.609 175.148 174.648 174.197Z" fill="#D0D9EE"/>
<path d="M164.788 183.439L168.259 184.355L168.749 183.333C167.344 183.489 166.023 183.524 164.788 183.439Z" fill="#8D9FCA"/>
<path d="M168.259 184.355L164.788 183.439C163.624 183.382 162.53 183.219 161.508 182.949C160.401 183.205 159.428 183.418 158.591 183.588L167.258 186.42L175.798 184.972L199.648 180.905L199.585 179.436L176.692 183.013L168.259 184.355Z" fill="#8D9FCA"/>
<path d="M182.698 169.512C181.491 168.362 180.469 167.02 179.631 165.487C179.12 166.871 178.524 168.341 178.034 170.215L182.698 169.512Z" fill="#AAB9DE"/>
<path d="M171.73 140.23C175.351 146.236 177.608 150.58 178.928 153.881C180.249 143.616 178.375 141.295 171.73 140.23Z" fill="#AAB9DE"/>
<path d="M144.771 204.585C141.122 212.11 140.093 228.451 141.683 253.608C161.701 256.305 176.118 256.028 184.934 252.777C184.224 229.806 182.606 213.813 180.079 204.798C170.07 208.859 158.3 208.788 144.771 204.585Z" fill="#0F3970"/>
<path d="M151.521 138.25C155.184 140.231 159.081 141.466 163.148 141.487C163.894 140.699 163.915 139.719 164.149 138.868C164.163 138.811 164.178 138.761 164.192 138.719C163.574 137.867 163.148 137.228 163.532 135.737C163.532 135.723 163.539 135.702 163.553 135.673C167.961 134.183 170.687 126.772 168.898 122.406C168.998 120.944 169.139 119.432 169.324 117.87C162.786 119.766 158.676 119.659 153.906 116.294C153.054 118.467 152.65 119.702 153.14 122.023C153.246 122.811 153.651 124.493 152.586 124.664C152.096 121.895 151.095 120.383 149.242 121.022C147.581 123.684 148.561 127.027 152.543 127.73C153.722 130.144 154.226 131.798 154.055 132.692C154.183 134.204 152.863 136.227 151.883 137.718C151.755 137.902 151.635 138.08 151.521 138.25Z" fill="#F4AE7C"/>
<path d="M163.574 135.588C160.891 135.886 159.677 135.865 157.207 134.885C158.655 136.44 160.912 137.377 163.51 137.526C163.361 136.887 163.383 136.248 163.574 135.588Z" fill="#ED7D5B"/>
<path d="M181.931 276.01C182.442 268.926 182.748 261.409 182.847 253.458C178.446 254.736 172.881 255.396 166.151 255.439C167.77 262.254 170.219 269.686 171.497 277.054C164.725 295.411 174.052 310.594 172.732 322.605C174.563 325.565 177.63 332.209 182.251 334.658C183.805 334.253 182.655 332.848 183.166 332.06C180.781 329.576 179.284 325.693 178.673 320.411C178.134 307.833 179.22 293.033 181.931 276.01Z" fill="#F4AE7C"/>
<path d="M156.739 273.391C158.123 267.577 160.657 261.721 162.51 255.418C157.569 255.29 152.082 254.871 146.048 254.161C146.133 260.124 146.204 266.342 146.261 272.816C136.785 289.597 143.131 309.189 140.597 317.622C142.449 322.008 142.939 327.503 147.049 330.718C148.561 330.612 147.773 329.121 148.348 328.44C147.056 325.529 146.354 321.852 146.24 317.409C147.688 304.759 151.188 290.087 156.739 273.391Z" fill="#F4AE7C"/>
<path d="M184.656 331.485C181.398 331.677 184.38 334.104 182.25 334.658C177.629 332.209 175.074 325.544 173.221 322.605C172.263 321.05 171.56 323.031 171.07 325.245C170.303 328.738 171.262 327.524 171.709 330.314C171.815 331.016 170.9 334.786 170.772 336.873C170.708 337.703 171.155 338.023 171.24 338.15C172.092 336.745 172.816 332.358 173.583 329.675C178.119 333.572 177.118 337.874 179.822 339.343C186.275 340.024 189.767 340.195 194.665 340.301C195.751 336.276 187.212 337.639 184.656 331.485Z" fill="#142D4D"/>
<path d="M149.924 328.12C146.772 327.716 149.179 330.569 147.049 330.718C143.088 327.609 141.853 320.795 140.618 317.685C139.979 316.046 138.935 317.792 138.084 319.815C136.721 323.052 137.871 322.03 137.764 324.798C137.743 325.48 136.188 328.908 135.656 330.889C135.464 331.655 135.826 332.039 135.89 332.188C136.955 330.974 138.446 326.906 139.681 324.479C143.301 328.993 141.555 332.933 143.876 334.786C149.903 336.553 153.203 337.299 157.867 338.236C159.635 334.573 151.244 334.424 149.924 328.12Z" fill="#142D4D"/>
<path d="M189.534 173.515C190.279 173.515 190.534 174.112 190.108 174.857C189.683 175.624 188.724 176.22 187.958 176.22C187.212 176.22 186.957 175.624 187.383 174.857C187.83 174.112 188.788 173.515 189.534 173.515Z" fill="#D0D9EE"/>
<path d="M159.805 124.6C159.188 124.664 158.442 122.342 159.912 122.151C160.7 122.065 160.785 124.472 159.805 124.6Z" fill="#0F3970"/>
<path d="M167.451 123.79C168.047 123.727 168.26 121.278 166.79 121.469C166.002 121.554 166.45 123.918 167.451 123.79Z" fill="#0F3970"/>
<path d="M160.188 119.979C161.168 119.893 161.232 120.703 160.529 121.022C160.337 121.107 156.462 122.364 156.611 122.108C156.887 121.555 158.314 120.149 160.188 119.979Z" fill="#0F3970"/>
<path d="M165.597 119.212C164.618 119.34 164.703 120.149 165.427 120.298C165.789 120.383 169.729 120.852 169.452 120.553C168.983 120.042 167.386 119.02 165.597 119.212Z" fill="#0F3970"/>
<path d="M165.661 127.986C163.468 128.603 163.745 127.602 164.362 127.709C166.385 128.114 164.447 126.942 164.788 123.386C164.831 123.024 165.235 123.067 165.235 123.365C165.257 123.599 165.171 124.366 165.214 124.6C165.47 127.432 166.364 127.773 165.661 127.986Z" fill="#ED7D5B"/>
<path d="M166.215 129.583C163.361 135.035 160.295 130.137 161.147 130.009C165.448 129.263 166.556 128.923 166.215 129.583Z" fill="white"/>
</svg>
