<svg width="600" height="510" viewBox="0 0 600 510" fill="none" xmlns="http://www.w3.org/2000/svg">
<path fill-rule="evenodd" clip-rule="evenodd" d="M532.118 176.642L533.031 178.247C534.164 180.167 535.265 180.104 535.706 179.947C537.059 179.506 538.318 179.254 539.702 178.877C540.206 178.751 541.087 178.373 541.087 176.107V174.376C541.087 172.74 542.409 171.387 544.077 171.387H548.955C550.591 171.387 551.944 172.74 551.944 174.376V176.107C551.944 178.373 552.794 178.751 553.329 178.877C554.714 179.254 555.941 179.506 557.294 179.947C557.766 180.104 558.836 180.167 559.969 178.247L560.882 176.642C561.732 175.226 563.557 174.754 564.973 175.572L569.19 178.027C570.638 178.845 571.11 180.702 570.292 182.118L569.347 183.723C568.246 185.611 568.749 186.461 569.064 186.776C570.008 187.594 570.889 188.507 571.771 189.419C572.022 189.702 572.841 190.615 574.981 189.356L576.46 188.507C577.876 187.688 579.701 188.16 580.551 189.577L583.005 193.794C583.824 195.241 583.32 197.066 581.904 197.885L580.456 198.734C578.442 199.93 578.505 200.528 578.757 201.378C579.103 202.542 579.481 203.707 579.733 204.934C579.953 206.004 579.858 206.759 582.596 206.759H584.264C585.901 206.759 587.254 208.112 587.254 209.749V214.658C587.254 216.295 585.901 217.648 584.264 217.648H582.596C579.858 217.648 579.953 218.403 579.733 219.473C579.481 220.701 579.103 221.865 578.757 223.029C578.505 223.879 578.442 224.508 580.456 225.673L581.904 226.523C583.32 227.341 583.824 229.166 583.005 230.614L580.551 234.831C579.701 236.247 577.876 236.719 576.46 235.901L574.981 235.051C572.841 233.792 572.022 234.705 571.771 234.988C570.889 235.901 570.008 236.813 569.064 237.632C568.749 237.946 568.246 238.796 569.347 240.684L570.292 242.289C571.11 243.705 570.638 245.562 569.19 246.38L564.973 248.835C563.557 249.653 561.732 249.181 560.882 247.765L559.969 246.16C558.836 244.24 557.766 244.303 557.294 244.461C555.941 244.901 554.714 245.153 553.329 245.531C552.794 245.656 551.944 246.034 551.944 248.3V250.031C551.944 251.667 550.591 253.02 548.955 253.02H544.077C542.409 253.02 541.087 251.667 541.087 250.031V248.3C541.087 246.034 540.206 245.656 539.702 245.531C538.318 245.153 537.059 244.901 535.706 244.461C535.265 244.303 534.164 244.24 533.031 246.16L532.118 247.765C531.3 249.181 529.443 249.653 528.027 248.835L523.81 246.38C522.394 245.562 521.89 243.705 522.709 242.289L523.653 240.684C524.754 238.796 524.282 237.946 523.936 237.632C522.992 236.813 522.111 235.901 521.261 234.988C521.009 234.705 520.191 233.792 518.019 235.051L516.572 235.901C515.124 236.719 513.299 236.247 512.481 234.831L510.026 230.614C509.176 229.166 509.68 227.341 511.096 226.523L512.544 225.673C514.558 224.508 514.526 223.879 514.275 223.029C513.897 221.865 513.551 220.701 513.267 219.473C513.047 218.403 513.142 217.648 510.435 217.648H508.736C507.099 217.648 505.746 216.295 505.746 214.658V209.749C505.746 208.112 507.099 206.759 508.736 206.759H510.435C513.142 206.759 513.047 206.004 513.267 204.934C513.551 203.707 513.897 202.542 514.275 201.378C514.526 200.528 514.558 199.93 512.544 198.734L511.096 197.885C509.68 197.066 509.176 195.241 510.026 193.794L512.481 189.577C513.299 188.16 515.124 187.688 516.572 188.507L518.019 189.356C520.191 190.615 521.009 189.702 521.261 189.419C522.111 188.507 522.992 187.594 523.936 186.776C524.282 186.461 524.754 185.611 523.653 183.723L522.709 182.118C521.89 180.702 522.394 178.845 523.81 178.027L528.027 175.572C529.443 174.754 531.3 175.226 532.118 176.642ZM522.583 212.204C522.583 225.421 533.283 236.152 546.5 236.152C559.718 236.152 570.449 225.421 570.449 212.204C570.449 198.986 559.718 188.255 546.5 188.255C533.283 188.255 522.583 198.986 522.583 212.204ZM526.296 212.204C526.296 211.448 526.926 210.819 527.681 210.819C528.436 210.819 529.066 211.448 529.066 212.204C529.066 217.019 531.017 221.393 534.164 224.54C537.342 227.687 541.685 229.638 546.5 229.638C547.255 229.638 547.885 230.268 547.885 231.023C547.885 231.778 547.255 232.407 546.5 232.407C540.93 232.407 535.863 230.142 532.213 226.491C528.562 222.841 526.296 217.774 526.296 212.204ZM566.452 208.962C566.547 209.686 566.043 210.41 565.288 210.536C564.564 210.63 563.84 210.127 563.714 209.371C563.148 205.721 561.417 202.448 558.899 199.93C556.413 197.413 553.14 195.65 549.49 195.021C548.734 194.895 548.231 194.171 548.388 193.416C548.514 192.661 549.206 192.157 549.962 192.314C554.179 193.038 557.955 195.084 560.85 197.979C563.746 200.906 565.76 204.714 566.452 208.962ZM546.5 205.752C550.056 205.752 552.951 208.647 552.951 212.204C552.951 215.76 550.056 218.655 546.5 218.655C542.944 218.655 540.049 215.76 540.049 212.204C540.049 208.647 542.944 205.752 546.5 205.752Z" fill="#A4D0FC"/>
<path d="M292.536 1.95117C365.61 1.95117 357.27 131.042 410.046 170.38C479.878 222.432 600 196.657 600 286.033C600 442.912 444.191 499.747 274.378 499.747C104.564 499.747 -40.356 412.732 10.2166 256.262C60.7892 99.7921 122.723 1.95117 292.536 1.95117Z" fill="#EAEFF8"/>
<path fill-rule="evenodd" clip-rule="evenodd" d="M356.924 5.94787L357.994 7.74168C359.221 9.91312 360.48 9.81871 361.015 9.66136C362.526 9.15783 363.91 8.87461 365.484 8.46549C366.05 8.30814 367.026 7.89903 367.026 5.31847V3.36731C367.026 1.51057 368.568 0 370.425 0H375.932C377.789 0 379.299 1.51057 379.299 3.36731V5.31847C379.299 7.89903 380.275 8.30814 380.841 8.46549C382.415 8.87461 383.831 9.15783 385.342 9.66136C385.877 9.81871 387.104 9.91312 388.363 7.74168L389.401 5.94787C390.345 4.34289 392.422 3.77643 394.027 4.72053L398.779 7.48991C400.384 8.43402 400.951 10.5111 400.007 12.116L398.968 13.9098C397.709 16.0498 398.276 16.9939 398.653 17.3401C399.692 18.3157 400.699 19.3227 401.675 20.3612C401.958 20.6445 402.87 21.683 405.294 20.2668L406.962 19.3227C408.567 18.3786 410.644 18.9451 411.588 20.5501L414.357 25.3021C415.301 26.907 414.735 28.9841 413.13 29.9282L411.493 30.8723C409.227 32.194 409.259 32.8549 409.574 33.8305C409.951 35.1522 410.392 36.474 410.675 37.8272C410.927 39.0545 410.801 39.9357 413.885 39.9357H415.805C417.661 39.9357 419.172 41.4463 419.172 43.303V48.8103C419.172 50.6671 417.661 52.1776 415.805 52.1776H413.885C410.801 52.1776 410.927 53.0588 410.675 54.2861C410.392 55.6394 409.951 56.9611 409.574 58.2828C409.259 59.2584 409.227 59.9193 411.493 61.241L413.13 62.2166C414.735 63.1293 415.301 65.2063 414.357 66.8113L411.588 71.5948C410.644 73.1997 408.567 73.7347 406.962 72.8221L405.294 71.8465C402.87 70.4304 401.958 71.4689 401.675 71.7836C400.699 72.7906 399.692 73.8291 398.653 74.7732C398.276 75.1194 397.709 76.095 398.968 78.2035L400.007 80.0288C400.951 81.6338 400.384 83.7108 398.779 84.6234L394.027 87.3928C392.422 88.3369 390.345 87.8019 389.401 86.1969L388.363 84.3717C387.104 82.2317 385.877 82.2946 385.342 82.4834C383.831 82.9555 382.415 83.2702 380.841 83.6793C380.275 83.8367 379.299 84.2458 379.299 86.8263V88.746C379.299 90.6028 377.789 92.1133 375.932 92.1133H370.425C368.568 92.1133 367.026 90.6028 367.026 88.746V86.8263C367.026 84.2458 366.05 83.8367 365.484 83.6793C363.91 83.2702 362.526 82.9555 361.015 82.4834C360.48 82.2946 359.221 82.2317 357.994 84.3717L356.924 86.1969C356.011 87.8019 353.934 88.3369 352.329 87.3928L347.546 84.6234C345.941 83.7108 345.406 81.6338 346.318 80.0288L347.388 78.2035C348.616 76.095 348.081 75.1194 347.703 74.7732C346.633 73.8291 345.658 72.7906 344.682 71.7836C344.367 71.4689 343.455 70.4304 341.031 71.8465L339.364 72.8221C337.759 73.7347 335.682 73.1997 334.769 71.5948L332 66.8113C331.055 65.2063 331.59 63.1293 333.227 62.2166L334.863 61.241C337.129 59.9193 337.066 59.2584 336.783 58.2828C336.374 56.9611 335.965 55.6394 335.682 54.2861C335.398 53.0588 335.524 52.1776 332.44 52.1776H330.552C328.695 52.1776 327.185 50.6671 327.185 48.8103V43.303C327.185 41.4463 328.695 39.9357 330.552 39.9357H332.44C335.524 39.9357 335.398 39.0545 335.682 37.8272C335.965 36.474 336.374 35.1522 336.783 33.8305C337.066 32.8549 337.129 32.194 334.863 30.8723L333.227 29.9282C331.59 28.9841 331.055 26.907 332 25.3021L334.769 20.5501C335.682 18.9451 337.759 18.3786 339.364 19.3227L341.031 20.2668C343.455 21.683 344.367 20.6445 344.682 20.3612C345.658 19.3227 346.633 18.3157 347.703 17.3401C348.081 16.9939 348.616 16.0498 347.388 13.9098L346.318 12.116C345.406 10.5111 345.941 8.43402 347.546 7.48991L352.329 4.72053C353.934 3.77643 356.011 4.34289 356.924 5.94787ZM346.161 46.0724C346.161 60.9893 358.246 73.0739 373.163 73.0739C388.079 73.0739 400.195 60.9893 400.195 46.0724C400.195 31.1555 388.079 19.0395 373.163 19.0395C358.246 19.0395 346.161 31.1555 346.161 46.0724ZM350.378 46.0724C350.378 45.1912 351.07 44.4989 351.92 44.4989C352.77 44.4989 353.494 45.1912 353.494 46.0724C353.494 51.4853 355.697 56.4261 359.253 59.9822C362.809 63.5384 367.75 65.7413 373.163 65.7413C374.044 65.7413 374.736 66.4336 374.736 67.3148C374.736 68.1645 374.044 68.8568 373.163 68.8568C366.869 68.8568 361.172 66.3078 357.05 62.1852C352.927 58.0626 350.378 52.3665 350.378 46.0724ZM395.664 42.3904C395.821 43.2401 395.223 44.0268 394.373 44.1527C393.524 44.3101 392.737 43.7121 392.611 42.8624C391.95 38.7398 389.999 35.0578 387.167 32.2255C384.366 29.3617 380.684 27.3791 376.561 26.6553C375.712 26.5294 375.145 25.7112 375.271 24.8615C375.428 24.0118 376.215 23.4453 377.065 23.6027C381.848 24.4209 386.097 26.7182 389.37 30.0226C392.643 33.327 394.908 37.6069 395.664 42.3904ZM373.163 38.8028C377.191 38.8028 380.432 42.0442 380.432 46.0724C380.432 50.0691 377.191 53.342 373.163 53.342C369.166 53.342 365.893 50.0691 365.893 46.0724C365.893 42.0442 369.166 38.8028 373.163 38.8028Z" fill="#A4D0FC"/>
<path fill-rule="evenodd" clip-rule="evenodd" d="M435.663 235.932L436.67 237.663C437.897 239.772 439.093 239.677 439.596 239.52C441.075 239.048 442.429 238.733 443.939 238.355C444.474 238.198 445.418 237.821 445.418 235.334V233.446C445.418 231.652 446.897 230.205 448.691 230.205H453.978C455.772 230.205 457.251 231.652 457.251 233.446V235.334C457.251 237.821 458.195 238.198 458.762 238.355C460.272 238.733 461.594 239.048 463.073 239.52C463.577 239.677 464.772 239.772 466 237.663L467.007 235.932C467.888 234.39 469.902 233.855 471.444 234.768L476.039 237.411C477.581 238.324 478.116 240.338 477.203 241.88L476.196 243.611C475 245.688 475.535 246.601 475.913 246.947C476.92 247.86 477.864 248.835 478.808 249.842C479.091 250.125 479.973 251.132 482.333 249.748L483.906 248.835C485.48 247.922 487.463 248.457 488.375 249.999L491.05 254.594C491.931 256.136 491.428 258.15 489.854 259.063L488.281 259.976C486.078 261.234 486.141 261.895 486.424 262.839C486.802 264.098 487.211 265.388 487.494 266.679C487.746 267.875 487.62 268.724 490.61 268.724H492.435C494.229 268.724 495.676 270.172 495.676 271.966V277.284C495.676 279.078 494.229 280.526 492.435 280.526H490.61C487.62 280.526 487.746 281.375 487.494 282.54C487.211 283.861 486.802 285.152 486.424 286.411C486.141 287.355 486.078 287.984 488.281 289.274L489.854 290.187C491.428 291.1 491.931 293.082 491.05 294.656L488.375 299.219C487.463 300.792 485.48 301.296 483.906 300.415L482.333 299.471C479.973 298.117 479.091 299.124 478.808 299.408C477.864 300.383 476.92 301.39 475.913 302.303C475.535 302.649 475 303.562 476.196 305.607L477.203 307.37C478.116 308.912 477.581 310.926 476.039 311.807L471.444 314.482C469.902 315.395 467.888 314.86 467.007 313.318L466 311.587C464.772 309.478 463.577 309.573 463.073 309.73C461.594 310.202 460.272 310.485 458.762 310.894C458.195 311.02 457.251 311.429 457.251 313.915V315.772C457.251 317.566 455.772 319.045 453.978 319.045H448.691C446.897 319.045 445.418 317.566 445.418 315.772V313.915C445.418 311.429 444.474 311.02 443.939 310.894C442.429 310.485 441.075 310.202 439.596 309.73C439.093 309.573 437.897 309.478 436.67 311.587L435.663 313.318C434.781 314.86 432.767 315.395 431.225 314.482L426.631 311.807C425.089 310.926 424.554 308.912 425.466 307.37L426.473 305.607C427.669 303.562 427.134 302.649 426.756 302.303C425.749 301.39 424.805 300.383 423.861 299.408C423.578 299.124 422.697 298.117 420.337 299.471L418.763 300.415C417.19 301.296 415.207 300.792 414.294 299.219L411.619 294.656C410.738 293.082 411.273 291.1 412.815 290.187L414.389 289.274C416.592 287.984 416.529 287.355 416.245 286.411C415.868 285.152 415.459 283.861 415.175 282.54C414.924 281.375 415.05 280.526 412.06 280.526H410.235C408.441 280.526 406.993 279.078 406.993 277.284V271.966C406.993 270.172 408.441 268.724 410.235 268.724H412.06C415.05 268.724 414.924 267.875 415.175 266.679C415.459 265.388 415.868 264.098 416.245 262.839C416.529 261.895 416.592 261.234 414.389 259.976L412.815 259.063C411.273 258.15 410.738 256.136 411.619 254.594L414.294 249.999C415.207 248.457 417.19 247.922 418.763 248.835L420.337 249.748C422.697 251.132 423.578 250.125 423.861 249.842C424.805 248.835 425.749 247.86 426.756 246.947C427.134 246.601 427.669 245.688 426.473 243.611L425.466 241.88C424.554 240.338 425.089 238.324 426.631 237.411L431.225 234.768C432.767 233.855 434.781 234.39 435.663 235.932ZM425.277 274.609C425.277 289.023 436.953 300.667 451.335 300.667C465.717 300.667 477.392 289.023 477.392 274.609C477.392 260.227 465.717 248.552 451.335 248.552C436.953 248.552 425.277 260.227 425.277 274.609Z" fill="white"/>
<path d="M112.086 440.079C113.659 461.605 116.806 464.563 137.325 466.231C127.852 466.986 122.062 468.056 118.443 471.078C112.82 468.707 107.344 466.2 102.015 463.556C109.253 460.598 111.016 454.493 112.086 440.079ZM65.1952 408.42C66.0449 420.064 67.7757 421.638 78.8533 422.551C67.7757 423.432 66.0449 425.037 65.1952 436.681C64.3455 425.037 62.6461 423.432 51.5371 422.551C62.6461 421.638 64.3455 420.064 65.1952 408.42Z" fill="white"/>
<path d="M97.2942 267.623C94.871 266.49 81.622 266.742 68.373 269.448C69.8207 267.308 70.9431 264.518 71.7404 261.077C95.343 257.521 93.0142 251.699 92.1645 249.024C87.3811 236.373 84.5173 228.348 87.9475 224.54C89.7099 225.39 93.3919 227.309 94.8395 232.88C96.3501 231.967 98.2383 230.803 98.49 229.103C99.0565 224.036 98.8677 213.462 104.658 212.581C105.812 217.218 106.83 222.148 107.711 227.372C111.047 230.016 111.393 240.684 109.379 253.178C111.288 260.038 107.239 264.14 97.2312 265.483L97.2942 267.623Z" fill="#FFB27D"/>
<path d="M92.1659 249.024C93.0156 251.699 88.6727 257.489 71.2697 262.839C68.6576 262.43 66.5491 259.85 64.1889 258.748C57.0136 255.444 51.4434 249.811 50.3105 246.852C36.5265 223.785 49.3349 212.739 56.3213 208.553C57.8633 184.667 93.7079 203.203 110.135 190.584C117.625 199.553 109.978 212.015 104.66 212.581C98.869 213.462 99.0579 224.036 98.4914 229.103C98.2396 230.803 96.3514 231.967 94.8408 232.88C93.8338 228.914 91.8512 227.152 90.0574 225.988C88.5153 224.949 88.1062 224.414 87.288 226.176C85.2739 230.362 87.8859 237.632 92.1659 249.024Z" fill="#284191"/>
<path d="M56.636 214.249C59.1537 211.48 59.5313 209.13 57.769 207.2C52.3771 206.487 47.8454 207.735 44.1738 210.945C46.7963 210.294 50.9504 211.396 56.636 214.249Z" fill="#284191"/>
<path d="M61.2305 209.466C59.9927 211.941 58.4716 212.823 56.6673 212.109C54.7371 208.606 54.391 205.154 55.6288 201.756C55.9015 203.749 57.7688 206.319 61.2305 209.466Z" fill="#284191"/>
<path d="M65.1016 199.427C66.0037 205.847 69.8955 209.046 76.777 209.025C87.8126 203.088 93.4982 195.934 93.8339 187.562C90.3721 191.612 80.7947 195.566 65.1016 199.427Z" fill="#284191"/>
<path d="M60.0029 254.248C61.1778 247.555 66.255 244.209 75.2345 244.209C95.344 231.495 93.1411 249.37 92.0081 260.164C87.4764 255.916 80.4586 258.276 60.0029 254.248Z" fill="#284191"/>
<path d="M88.0734 257.647C86.458 254.395 83.1011 253.346 78.003 254.5C64.3763 250.409 68.2787 259.252 70.7333 264.665C72.6845 261.958 77.0274 262.273 88.0734 257.647Z" fill="#284191"/>
<path d="M24.5352 361.121H351.259C354.249 361.121 356.703 363.576 356.703 366.565V367.667C356.703 370.656 354.249 373.111 351.259 373.111H24.5352C21.5455 373.111 19.0908 370.656 19.0908 367.667V366.565C19.0908 363.576 21.5455 361.121 24.5352 361.121Z" fill="#FC9774"/>
<path d="M293.386 232.124L165.522 254.185L169.708 337.455L295.872 338.431L293.386 232.124Z" fill="#A4D0FC"/>
<path d="M288.76 238.135L170.872 257.332L173.862 333.742L291.309 333.553L288.76 238.135Z" fill="#EFF9FC"/>
<path d="M295.809 338.431C295.83 338.431 295.851 338.431 295.872 338.431L293.386 232.124L297.32 234.359L298.169 337.581L295.872 338.431H295.809Z" fill="#61A0E0"/>
<path d="M237.525 354.701L220.783 354.449L228.242 339.501L228.147 337.896L244.291 338.022L244.417 339.721L237.525 354.701Z" fill="#99C5F2"/>
<path d="M220.783 354.449L237.526 354.701L237.809 358.761L221.004 358.32L220.752 354.481L220.783 354.449Z" fill="#98B0DA"/>
<path d="M237.525 354.701L244.417 339.721L244.291 338.022H245.456L245.519 339.816L238.06 354.795L238.312 358.666L237.809 358.761V358.572L237.525 354.701Z" fill="#61A0E0"/>
<path d="M247.125 358.288L238.061 355.078V354.795L239.855 351.208L246.747 350.767L262.419 356.117L247.125 358.288ZM196.71 357.313L195.23 354.732L221.697 352.561L220.784 354.449L220.753 354.481L220.784 355.141L196.741 357.376L196.71 357.313Z" fill="#AEC8F2"/>
<path d="M264.023 360.334L248.477 362.663L238.249 358.666H238.312L238.061 355.079L247.124 358.289L262.419 356.117L262.513 356.369L264.023 360.334Z" fill="#4F8ECC"/>
<path d="M220.973 357.974L192.933 360.68L196.709 357.313L196.741 357.376L220.784 355.142L220.973 357.974Z" fill="#678BC6"/>
<path d="M196.741 357.376L192.933 360.68L191.674 358.163L195.261 354.732L196.741 357.376Z" fill="#678BC6"/>
<path d="M187.079 335.473C186.796 335.504 186.607 335.725 186.638 336.008C186.638 336.26 186.89 336.48 187.142 336.448C187.393 336.417 187.614 336.197 187.582 335.913C187.551 335.662 187.331 335.441 187.079 335.473Z" fill="#E6E6E6"/>
<path d="M183.146 335.41C182.894 335.441 182.674 335.661 182.705 335.945C182.737 336.196 182.957 336.417 183.209 336.385C183.492 336.385 183.681 336.133 183.649 335.882C183.649 335.598 183.398 335.41 183.146 335.41Z" fill="#E6E6E6"/>
<path d="M179.243 335.347C178.96 335.378 178.771 335.63 178.802 335.882C178.802 336.165 179.054 336.354 179.306 336.322C179.558 336.322 179.778 336.07 179.746 335.819C179.715 335.536 179.495 335.347 179.243 335.347Z" fill="#E6E6E6"/>
<path d="M174.931 334.812C174.365 334.843 173.956 335.347 173.987 335.882C174.05 336.448 174.522 336.889 175.089 336.826C175.624 336.794 176.033 336.291 176.001 335.756C175.97 335.189 175.466 334.749 174.931 334.812Z" fill="#E6E6E6"/>
<path d="M288.885 243.265L170.966 260.353L170.872 257.332L288.76 238.135L288.885 243.265Z" fill="#D6E5FC"/>
<path d="M284.983 240.212C284.322 240.244 283.85 240.81 283.881 241.471C283.944 242.101 284.511 242.604 285.172 242.541C285.801 242.51 286.273 241.943 286.242 241.282C286.179 240.621 285.612 240.149 284.983 240.212Z" fill="white"/>
<path d="M280.389 240.968C279.728 240.999 279.256 241.565 279.288 242.226C279.351 242.856 279.917 243.359 280.546 243.296C281.207 243.265 281.679 242.698 281.648 242.038C281.585 241.377 281.018 240.905 280.389 240.968Z" fill="white"/>
<path d="M275.793 241.723C275.132 241.754 274.66 242.321 274.692 242.982C274.755 243.611 275.321 244.115 275.951 244.052C276.612 244.02 277.084 243.454 277.052 242.793C276.989 242.132 276.423 241.66 275.793 241.723Z" fill="white"/>
<path d="M146.767 430.135C146.767 446.342 142.015 459.465 136.161 459.465C130.308 459.465 125.556 446.342 125.556 430.135C125.556 413.959 130.308 400.836 136.161 400.836C142.015 400.836 146.767 413.959 146.767 430.135Z" fill="#C5D2EC"/>
<path d="M120.268 281.092C96.0355 276.225 76.01 275.301 60.191 278.323C48.4631 279.393 41.9173 285.645 40.5535 297.079C33.5042 337.455 35.4868 378.996 47.7602 426.201C57.1069 435.139 67.5865 443.289 79.1046 450.622C82.0942 450.496 85.2413 450.244 88.6086 449.804C126.908 446.531 138.457 443.447 149.661 429.631C170.809 403.606 149.094 367.446 124.17 329.619C112.306 319.391 100.945 288.991 120.268 281.092Z" fill="#61A0E0"/>
<path d="M60.1914 278.323C73.9124 275.847 90.728 276.277 110.638 279.613C108.372 275.857 106.379 272.448 104.659 269.385C88.3887 264.507 64.2825 265.231 61.2614 269.889C60.569 273.759 60.2858 276.309 60.1914 278.323Z" fill="#4F8ECC"/>
<path d="M230.319 422.739C210.996 419.152 189.596 409.333 156.836 415.879C155.703 417.987 151.266 427.649 149.661 429.631C138.457 443.447 126.908 446.531 88.6085 449.804L88.105 449.867L87.6644 449.93H87.6329L87.1294 449.993L86.7203 450.024H86.6259L86.1538 450.087L85.8076 450.119L84.9265 450.213H84.8635L84.7062 450.244L84.2341 450.276L83.9824 450.307L83.29 450.37H83.0698L82.818 450.402L82.3459 450.433L82.1886 450.465H81.8739L81.4333 450.496L81.3074 450.528H80.9612L80.5207 450.559H80.4262L80.0801 450.591L79.608 450.622H79.5765H79.1674H79.1045C93.8326 460.032 110.229 468.12 127.883 474.854C146.954 474.414 170.525 471.204 199.415 465.098C202.971 478.221 205.929 483.603 210.619 495.499C224.088 497.324 237.872 498.583 251.907 499.244C251.089 485.46 250.428 471.487 247.376 456.601C244.638 443.258 241.396 425.005 230.319 422.739Z" fill="#4567C6"/>
<path d="M135.846 473.407C135.762 474.896 135.709 476.344 135.688 477.749C147.395 481.872 159.637 485.428 172.32 488.418C173.138 481.683 173.83 475.578 174.208 469.913C163.099 471.392 145.224 473.029 135.846 473.407Z" fill="#3B5BB3"/>
<path d="M180.44 338.525C150.228 301.485 129.867 283.515 120.269 281.092C97.0437 288.645 114.604 326.976 126.468 337.172C137.42 349.886 151.078 357.691 171.974 367.95C181.856 371.978 206.371 367.478 245.583 362.285C248.206 356.285 247.44 351.69 243.286 348.501C208.511 344.032 187.867 339.532 180.44 338.525Z" fill="#4F8ECC"/>
<path d="M246.054 361.058C248.572 361.792 250.974 362.065 253.261 361.876C260.468 359.358 262.891 353.442 266.762 352.057C269.51 352.246 272.311 352.666 275.164 353.316C280.242 352.729 276.559 350.012 264.118 345.165C256.628 345.333 250.02 346.739 244.292 349.382C247.313 352.278 247.901 356.169 246.054 361.058Z" fill="#FFB27D"/>
<path d="M78.3188 341.546L83.48 385.384C84.6444 395.077 77.6265 403.039 67.9022 403.039H55.8176L59.7829 436.775C61.1466 437.887 62.5313 438.978 63.937 440.048L60.0347 406.91H69.0037C80.4274 406.91 88.6726 397.437 87.3508 386.14L82.1582 342.333C80.8679 331.255 70.7345 323.325 59.5941 323.325H37.2817C37.2188 323.891 37.2817 323.325 37.2188 323.891H58.5556C68.2799 323.891 77.1544 331.822 78.3188 341.546Z" fill="#61A0E0"/>
<path d="M190.415 466.798C189.188 461.416 184.31 457.357 178.551 457.357H90.3398C91.3469 457.923 92.3539 458.479 93.361 459.025H177.449C182.296 459.025 186.324 462.738 186.796 467.459C187.992 467.249 189.198 467.029 190.415 466.798Z" fill="#284191"/>
<path d="M42.3791 420.851L40.2706 403.039H28.186C27.9762 403.039 27.7559 403.029 27.5252 403.008C17.1715 388.626 9.46125 372.702 4.89807 355.267L3.26161 341.546C2.12868 331.822 9.14654 323.892 18.8394 323.892H58.5548C68.2791 323.892 77.1537 331.822 78.3181 341.546L83.4792 385.384C84.6436 395.077 77.6258 403.039 67.9015 403.039H55.8169L59.7821 436.775C53.5825 431.771 47.7605 426.453 42.3791 420.851ZM93.3609 459.025H177.449C182.61 459.025 186.827 463.242 186.827 468.403C186.827 473.564 182.61 477.781 177.449 477.781H135.814C120.74 472.463 106.515 466.2 93.3609 459.025Z" fill="#FC9774"/>
<path d="M255.591 361.121C257.479 357.785 260.091 355.645 263.679 353.19C269.123 349.351 280.232 357.281 281.994 361.121H255.591Z" fill="#4F8ECC"/>
<path d="M81.4658 61.0522H274.787V173.81H81.4658V61.0522Z" fill="#EFF9FC"/>
<path fill-rule="evenodd" clip-rule="evenodd" d="M275.636 60.2025V174.66H80.6152V60.2025H275.636ZM273.968 61.8704H82.3146V172.992H273.968V61.8704Z" fill="#61A0E0"/>
<path d="M99.435 69.1086H257.353C258.076 69.1086 258.674 69.5492 258.674 70.1157C258.674 70.6507 258.076 71.1227 257.353 71.1227H99.435C98.7112 71.1227 98.1133 70.6507 98.1133 70.1157C98.1133 69.5492 98.7112 69.1086 99.435 69.1086Z" fill="#61A0E0"/>
<path d="M99.435 77.1649H257.353C258.076 77.1649 258.674 77.637 258.674 78.172C258.674 78.7384 258.076 79.179 257.353 79.179H99.435C98.7112 79.179 98.1133 78.7384 98.1133 78.172C98.1133 77.637 98.7112 77.1649 99.435 77.1649Z" fill="#61A0E0"/>
<path d="M99.435 85.2528H257.353C258.076 85.2528 258.674 85.6934 258.674 86.2598C258.674 86.8263 258.076 87.2669 257.353 87.2669H99.435C98.7112 87.2669 98.1133 86.8263 98.1133 86.2598C98.1133 85.6934 98.7112 85.2528 99.435 85.2528Z" fill="#61A0E0"/>
<path d="M99.435 93.3406H257.353C258.076 93.3406 258.674 93.7812 258.674 94.3162C258.674 94.8826 258.076 95.3547 257.353 95.3547H99.435C98.7112 95.3547 98.1133 94.8826 98.1133 94.3162C98.1133 93.7812 98.7112 93.3406 99.435 93.3406Z" fill="#61A0E0"/>
<path d="M97.0742 107.754H259.177V139.98H97.0742V107.754Z" fill="#A4D0FC"/>
<path d="M97.0742 161.128H259.177V147.029H97.0742V161.128Z" fill="#A4D0FC"/>
<path d="M312.143 82.2947H540.963V215.76H312.143V82.2947Z" fill="#EFF9FC"/>
<path fill-rule="evenodd" clip-rule="evenodd" d="M541.937 81.2876V216.767H311.135V81.2876H541.937ZM539.955 83.2702H313.117V214.784H539.955V83.2702Z" fill="#61A0E0"/>
<path d="M330.614 139.067H522.488V177.209H330.614V139.067Z" fill="#A4D0FC"/>
<path d="M330.614 200.749H522.488V184.069H330.614V200.749Z" fill="#A4D0FC"/>
<path d="M149.347 225.956H252.412V286.064H149.347V225.956Z" fill="#EFF9FC"/>
<path fill-rule="evenodd" clip-rule="evenodd" d="M252.851 225.516V286.536H148.905V225.516H252.851ZM251.939 226.397H149.786V285.624H251.939V226.397Z" fill="#61A0E0"/>
<path d="M158.913 230.268H243.096C243.505 230.268 243.82 230.488 243.82 230.803C243.82 231.086 243.505 231.338 243.096 231.338H158.913C158.535 231.338 158.221 231.086 158.221 230.803C158.221 230.488 158.535 230.268 158.913 230.268Z" fill="#61A0E0"/>
<path d="M158.913 234.548H243.096C243.505 234.548 243.82 234.799 243.82 235.083C243.82 235.397 243.505 235.649 243.096 235.649H158.913C158.535 235.649 158.221 235.397 158.221 235.083C158.221 234.799 158.535 234.548 158.913 234.548Z" fill="#61A0E0"/>
<path d="M158.913 238.859H243.096C243.505 238.859 243.82 239.111 243.82 239.394C243.82 239.709 243.505 239.929 243.096 239.929H158.913C158.535 239.929 158.221 239.709 158.221 239.394C158.221 239.111 158.535 238.859 158.913 238.859Z" fill="#61A0E0"/>
<path d="M158.913 243.17H243.096C243.505 243.17 243.82 243.422 243.82 243.705C243.82 243.989 243.505 244.24 243.096 244.24H158.913C158.535 244.24 158.221 243.989 158.221 243.705C158.221 243.422 158.535 243.17 158.913 243.17Z" fill="#61A0E0"/>
<path d="M157.654 250.849H244.072V268.032H157.654V250.849Z" fill="#A4D0FC"/>
<path d="M157.654 279.298H197.464V271.808H157.654V279.298Z" fill="#A4D0FC"/>
<path d="M204.041 279.298H243.851V271.808H204.041V279.298Z" fill="#A4D0FC"/>
<path d="M330.614 94.0645H390.282V132.206H330.614V94.0645Z" fill="#A4D0FC"/>
<path d="M395.853 94.0645H455.52V132.206H395.853V94.0645Z" fill="#A4D0FC"/>
<path d="M461.09 94.0645H520.757V132.206H461.09V94.0645Z" fill="#A4D0FC"/>
<path d="M320.167 296.229H548.987V429.694H320.167V296.229Z" fill="#EFF9FC"/>
<path fill-rule="evenodd" clip-rule="evenodd" d="M549.962 295.222V430.701H319.159V295.222H549.962ZM547.979 297.205H321.142V428.719H547.979V297.205Z" fill="#61A0E0"/>
<path d="M338.64 307.81H530.514V345.952H338.64V307.81Z" fill="#A4D0FC"/>
<path d="M338.64 418.113H530.514V401.434H338.64V418.113Z" fill="#A4D0FC"/>
<path d="M339.49 354.606H399.158V392.748H339.49V354.606Z" fill="#A4D0FC"/>
<path d="M404.728 354.606H464.395V392.748H404.728V354.606Z" fill="#A4D0FC"/>
<path d="M469.966 354.606H529.665V392.748H469.966V354.606Z" fill="#A4D0FC"/>
<path d="M311.639 322.821C298.893 335.787 278.941 340.256 261.286 332.451C243.568 324.647 233.404 306.803 234.505 288.55C236.582 321.877 274.661 343.088 301.977 318.542L296.281 316.024L317.461 305.702L316.831 325.087L311.639 322.821Z" fill="#61A0E0"/>
<path d="M304.714 319.769C290.993 331.728 274.44 332.483 260.813 326.189C273.622 331.539 289.011 330.185 301.977 318.542L304.714 319.769Z" fill="#4F8ECC"/>
<path d="M368.16 201.441C381.314 213.997 386.066 233.887 378.545 251.636C370.96 269.479 353.274 279.896 335.021 279.078C368.317 276.497 388.961 238.135 364.037 211.165L361.614 216.893L350.977 195.871L370.363 196.248L368.16 201.441Z" fill="#61A0E0"/>
<path d="M365.202 208.396C377.349 221.928 378.356 238.513 372.251 252.202C377.443 239.331 375.87 223.974 364.037 211.165L365.202 208.396Z" fill="#4F8ECC"/>
<path d="M245.992 146.683C258.359 133.339 278.154 128.336 296.029 135.605C313.967 142.906 324.636 160.435 324.069 178.719C321.017 145.455 282.371 125.346 255.779 150.679L261.538 153.008L240.642 163.96L240.736 144.574L245.992 146.683Z" fill="#61A0E0"/>
<path d="M252.979 149.546C266.353 137.179 282.875 135.951 296.691 141.868C283.725 136.864 268.399 138.658 255.779 150.679L252.979 149.546Z" fill="#4F8ECC"/>
<path d="M192.996 269.668C179.463 257.458 174.176 237.726 181.194 219.788C188.212 201.724 205.615 190.804 223.899 191.087C190.667 194.643 171.124 233.572 196.866 259.818L199.101 253.996L210.336 274.735L190.95 274.924L192.996 269.668Z" fill="#61A0E0"/>
<path d="M195.766 262.619C183.209 249.433 181.73 232.911 187.426 219.033C182.643 232.061 184.657 247.356 196.867 259.818L195.766 262.619Z" fill="#4F8ECC"/>
<path fill-rule="evenodd" clip-rule="evenodd" d="M278.847 433.188L279.791 434.793C280.892 436.712 281.994 436.649 282.466 436.492C283.787 436.051 285.046 435.8 286.431 435.422C286.935 435.296 287.816 434.919 287.816 432.653V430.922C287.816 429.285 289.137 427.932 290.805 427.932H295.683C297.32 427.932 298.673 429.285 298.673 430.922V432.653C298.673 434.919 299.523 435.296 300.058 435.422C301.442 435.8 302.67 436.051 304.023 436.492C304.495 436.649 305.596 436.712 306.698 434.793L307.642 433.188C308.46 431.771 310.285 431.299 311.702 432.118L315.95 434.572C317.366 435.391 317.838 437.247 317.02 438.663L316.076 440.268C314.974 442.157 315.478 443.006 315.793 443.321C316.737 444.171 317.618 445.052 318.499 445.965C318.751 446.248 319.569 447.16 321.709 445.902L323.188 445.052C324.604 444.234 326.43 444.706 327.279 446.153L329.734 450.37C330.552 451.787 330.08 453.612 328.633 454.462L327.185 455.28C325.171 456.476 325.234 457.074 325.486 457.923C325.832 459.088 326.209 460.252 326.461 461.479C326.681 462.549 326.587 463.305 329.325 463.305H330.993C332.661 463.305 333.982 464.658 333.982 466.326V471.204C333.982 472.84 332.661 474.193 330.993 474.193H329.325C326.587 474.193 326.681 474.949 326.461 476.05C326.209 477.246 325.832 478.41 325.486 479.575C325.234 480.456 325.171 481.054 327.185 482.218L328.633 483.068C330.08 483.886 330.552 485.711 329.734 487.159L327.279 491.376C326.43 492.792 324.604 493.264 323.188 492.446L321.709 491.596C319.569 490.338 318.751 491.25 318.499 491.533C317.618 492.446 316.737 493.359 315.793 494.177C315.478 494.492 314.974 495.341 316.076 497.23L317.02 498.835C317.838 500.251 317.366 502.107 315.95 502.926L311.702 505.38C310.285 506.199 308.46 505.727 307.642 504.31L306.698 502.705C305.596 500.786 304.495 500.849 304.023 501.006C302.67 501.447 301.442 501.698 300.058 502.076C299.523 502.202 298.673 502.58 298.673 504.845V506.576C298.673 508.213 297.32 509.566 295.683 509.566H290.805C289.137 509.566 287.816 508.213 287.816 506.576V504.845C287.816 502.58 286.935 502.202 286.431 502.076C285.046 501.698 283.787 501.447 282.466 501.006C281.994 500.849 280.892 500.786 279.791 502.705L278.847 504.31C278.028 505.727 276.172 506.199 274.756 505.38L270.539 502.926C269.122 502.107 268.619 500.251 269.469 498.835L270.381 497.23C271.483 495.341 271.011 494.492 270.664 494.177C269.72 493.359 268.871 492.446 267.989 491.533C267.738 491.25 266.919 490.338 264.779 491.596L263.3 492.446C261.884 493.264 260.027 492.792 259.209 491.376L256.755 487.159C255.936 485.711 256.408 483.886 257.825 483.068L259.304 482.218C261.286 481.054 261.255 480.456 261.003 479.575C260.657 478.41 260.279 477.246 260.027 476.05C259.776 474.949 259.902 474.193 257.164 474.193H255.464C253.828 474.193 252.475 472.84 252.475 471.204V466.326C252.475 464.658 253.828 463.305 255.464 463.305H257.164C259.902 463.305 259.776 462.549 260.027 461.479C260.279 460.252 260.657 459.088 261.003 457.923C261.255 457.074 261.286 456.476 259.304 455.28L257.825 454.462C256.408 453.612 255.936 451.787 256.755 450.37L259.209 446.153C260.027 444.706 261.884 444.234 263.3 445.052L264.779 445.902C266.919 447.16 267.738 446.248 267.989 445.965C268.871 445.052 269.72 444.171 270.664 443.321C271.011 443.006 271.483 442.157 270.381 440.268L269.469 438.663C268.619 437.247 269.122 435.391 270.539 434.572L274.756 432.118C276.172 431.299 278.028 431.771 278.847 433.188ZM269.311 468.749C269.311 481.966 280.011 492.698 293.229 492.698C306.446 492.698 317.177 481.966 317.177 468.749C317.177 455.531 306.446 444.8 293.229 444.8C280.011 444.8 269.311 455.531 269.311 468.749ZM273.025 468.749C273.025 467.994 273.654 467.364 274.409 467.364C275.165 467.364 275.794 467.994 275.794 468.749C275.794 473.564 277.745 477.938 280.892 481.085C284.071 484.232 288.414 486.184 293.229 486.184C293.984 486.184 294.613 486.813 294.613 487.568C294.613 488.323 293.984 488.953 293.229 488.953C287.658 488.953 282.592 486.687 278.941 483.036C275.291 479.386 273.025 474.319 273.025 468.749ZM313.181 465.508C313.275 466.231 312.772 466.955 312.016 467.081C311.292 467.176 310.569 466.672 310.474 465.917C309.876 462.266 308.145 458.993 305.628 456.476C303.142 453.958 299.869 452.196 296.218 451.566C295.494 451.44 294.991 450.717 295.117 449.961C295.243 449.237 295.935 448.734 296.69 448.86C300.907 449.584 304.684 451.629 307.579 454.524C310.474 457.451 312.488 461.259 313.181 465.508ZM293.229 462.298C296.785 462.298 299.68 465.193 299.68 468.749C299.68 472.305 296.785 475.2 293.229 475.2C289.672 475.2 286.809 472.305 286.809 468.749C286.809 465.193 289.672 462.298 293.229 462.298Z" fill="#A4D0FC"/>
</svg>
