<svg width="601" height="429" viewBox="0 0 601 429" fill="none" xmlns="http://www.w3.org/2000/svg">
<path d="M416.899 396.738C489.27 396.738 547.946 402.619 547.946 409.834C547.946 417.049 489.27 422.931 416.899 422.931C344.555 422.931 285.879 417.049 285.879 409.834C285.879 402.619 344.555 396.738 416.899 396.738Z" fill="#C4D1EB"/>
<path d="M295.326 21.3495C367.779 21.3495 398.301 73.191 450.605 113.488C519.845 166.827 589.058 132.085 600.14 312.305C610.024 472.703 486.927 329.676 313.35 387.126C139.774 444.577 -36.9884 467.72 15.4522 281.837C67.9199 95.9261 126.977 21.3495 295.326 21.3495Z" fill="#E0E8F5"/>
<path d="M320.758 223.569C323.045 220.983 330.832 207.886 330.832 207.886L353.921 216.109C353.921 216.109 335.788 237.401 332.112 241.485C323.944 245.46 292.468 255.725 289.419 257.032C288.085 257.577 285.825 258.693 284.572 259.946C281.795 262.668 280.815 264.084 278.201 266.807C275.233 269.884 265.404 261.007 266.33 257.795C266.956 255.589 272.456 253.275 276.867 251.342C278.855 250.47 318.716 225.884 320.758 223.569Z" fill="#F9AF79"/>
<path d="M371.155 177.881C375.729 182.51 377.472 188.31 367.616 203.666C357.786 218.995 348.012 229.097 348.012 229.097C348.012 229.097 330.94 223.433 324.841 212.352C324.841 212.352 355.363 162.062 371.155 177.881Z" fill="#466FB5"/>
<path d="M357.678 391.891L345.888 385.384C345.888 385.384 341.722 375.473 336.358 362.267C341.423 361.042 346.596 360.171 351.797 359.218C354.9 372.559 357.16 378.604 357.678 391.891Z" fill="#F9AF79"/>
<path d="M403.067 265.609C403.067 265.609 310.629 266.399 307.715 277.671C300.963 303.973 342.785 380.428 342.785 380.428L357.733 375.99L341.396 299.072C341.396 299.072 382.51 300.079 386.458 297.983C390.406 295.914 403.067 265.609 403.067 265.609Z" fill="#0E2952"/>
<path d="M421.636 257.005C392.883 253.756 382.99 266.626 391.957 295.614C422.053 289.225 431.946 276.355 421.636 257.005Z" fill="#20386F"/>
<path d="M355.282 164.186C355.282 164.186 356.589 158.74 358.25 155.772C359.883 152.777 361.109 145.29 357.978 137.966C354.846 130.614 348.121 129.307 344.69 129.334C341.232 129.362 329.252 132.847 325.822 135.978C322.364 139.082 328.817 153.758 328.817 153.758L338.564 163.669L355.282 164.186Z" fill="#20386F"/>
<path d="M430.021 384.131L416.653 385.792C416.653 385.792 407.477 380.21 395.388 372.696C398.737 368.72 402.412 364.963 406.088 361.151C416.407 370.109 421.799 373.703 430.021 384.131Z" fill="#F9AF79"/>
<path d="M417.035 382.988C417.035 382.988 422.371 384.05 424.059 383.587C425.72 383.097 427.735 380.837 429.532 381.871C431.356 382.906 434.814 392.354 434.406 394.505C433.97 396.765 432.527 399.324 430.812 399.787C429.124 400.25 401.978 402.918 397.131 402.101C392.312 401.285 390.324 396.438 395.225 393.879C400.126 391.319 414.339 381.49 417.035 382.988Z" fill="#0E2952"/>
<path d="M346.597 383.587C346.597 383.587 351.961 384.649 353.622 384.158C355.283 383.696 357.298 381.436 359.095 382.443C360.919 383.478 364.377 392.926 363.968 395.077C363.533 397.364 362.09 399.896 360.374 400.359C358.686 400.849 331.54 403.49 326.694 402.673C321.874 401.884 319.887 397.01 324.788 394.451C329.689 391.891 343.901 382.089 346.597 383.587Z" fill="#0E2952"/>
<path d="M397.295 254.663C397.295 254.663 320.404 305.96 324.162 316.96C332.902 342.663 409.766 383.75 409.766 383.75L419.867 371.824L364.023 316.416C364.023 316.416 398.983 294.743 401.134 290.849C403.313 286.928 397.295 254.663 397.295 254.663Z" fill="#20386F"/>
<path d="M344.419 183.354C344.228 183.681 341.397 202.55 346.27 214.094C355.201 235.196 376.602 267.651 380.958 267.706C415.919 268.168 425.612 257.55 425.612 257.55C425.612 257.55 393.81 194.844 382.129 181.911C377.255 176.547 371.973 172.273 364.567 173.226C362.879 173.416 348.884 175.295 344.419 183.354Z" fill="#6D96CE"/>
<path d="M342.268 170.339L344.582 183.872C344.582 183.872 345.317 187.629 347.55 188.555C351.416 190.161 359.53 174.206 359.53 174.206L352.315 153.921L342.268 170.339Z" fill="#F9AF79"/>
<path d="M354.493 160.02C353.975 169.25 347.441 175.485 343.466 177.282L342.268 170.339L352.315 153.921L354.493 160.02Z" fill="#F27458"/>
<path d="M339.899 134.971C333.092 134.263 327.347 140.035 327.919 146.76C328.164 149.674 328.627 153.322 329.444 157.216C331.486 166.609 338.429 174.56 342.677 173.579C346.924 172.599 357.216 163.777 354.548 150.436C352.887 142.186 347.06 135.706 339.899 134.971Z" fill="#F9AF79"/>
<path d="M351.661 152.206C352.151 154.275 353.893 155.609 355.581 155.228C357.269 154.847 358.25 152.859 357.76 150.763C357.297 148.72 355.527 147.359 353.839 147.768C352.151 148.149 351.198 150.136 351.661 152.206Z" fill="#F9AF79"/>
<path d="M353.838 147.768C353.838 147.768 353.512 143.139 351.878 139.028C350.272 134.943 345.071 130.015 340.551 130.369C336.004 130.723 326.502 135.216 324.405 132.874C322.336 130.505 322.418 130.778 321.846 130.505C320.566 129.825 315.747 135.542 318.061 142.622C320.376 149.674 326.611 147.631 327.89 147.468C329.17 147.332 338.972 139.409 342.43 138.674C345.888 137.884 353.838 147.768 353.838 147.768Z" fill="#20386F"/>
<path d="M342.594 164.268C340.062 165.193 338.565 165.438 335.869 165.711C334.807 165.82 339.49 172.735 342.894 164.622C342.976 164.431 342.785 164.186 342.594 164.268Z" fill="#EB795B"/>
<path d="M340.252 149.483C339.054 150 339.463 150.981 340.443 150.872C351.062 149.919 343.247 148.176 340.252 149.483Z" fill="#20386F"/>
<path d="M333.828 150.708C335.162 150.735 335.107 151.797 334.154 152.07C323.944 155.092 330.588 150.599 333.828 150.708Z" fill="#20386F"/>
<path d="M337.231 161.981H337.177C336.006 161.844 335.38 161.736 335.135 161.327C334.89 160.946 335.053 160.483 335.325 159.666C335.652 158.741 336.142 157.325 336.442 155.038C336.469 154.874 336.632 154.765 336.796 154.793C336.959 154.82 337.068 154.956 337.041 155.119C336.714 157.461 336.251 158.904 335.924 159.857C335.734 160.401 335.57 160.891 335.652 161C335.761 161.191 336.578 161.3 337.259 161.382C337.422 161.409 337.531 161.545 337.504 161.736C337.504 161.872 337.367 161.981 337.231 161.981Z" fill="#EB795B"/>
<path d="M332.872 157.924C332.137 158.087 330.912 155.419 332.682 155.01C333.635 154.792 334.07 157.624 332.872 157.924Z" fill="#20386F"/>
<path d="M342.811 155.773C342.076 155.936 340.878 153.268 342.648 152.859C343.601 152.641 344.009 155.473 342.811 155.773Z" fill="#20386F"/>
<path d="M342.486 164.431C343.684 165.084 337.857 167.181 336.523 166.609C336.359 166.555 335.842 166.146 335.897 165.928C335.978 165.738 336.741 165.792 336.931 165.765C338.864 165.602 340.607 165.193 342.486 164.431Z" fill="white"/>
<path d="M185.979 176.03H103.969C104.568 173.552 106.8 171.701 109.469 171.701C109.596 171.701 109.723 171.701 109.85 171.701C111.157 168.543 114.261 166.31 117.909 166.31C119.489 166.31 120.986 166.718 122.266 167.481C123.845 162.307 128.61 158.55 134.3 158.55C135.444 158.55 136.56 158.713 137.622 159.013C140.372 152.941 146.444 148.748 153.55 148.748C161.937 148.748 168.961 154.656 170.622 162.58C170.767 162.562 170.913 162.552 171.058 162.552C176.422 162.552 180.86 166.582 181.54 171.783C183.719 172.191 185.461 173.879 185.979 176.03Z" fill="white"/>
<path d="M308.204 83.7555H226.194C226.793 81.2506 229.026 79.3991 231.694 79.3991C231.821 79.3991 231.948 79.4082 232.076 79.4263C233.382 76.2407 236.486 74.008 240.135 74.008C241.714 74.008 243.212 74.4437 244.491 75.1788C246.043 70.0328 250.835 66.2754 256.499 66.2754C257.67 66.2754 258.786 66.4387 259.848 66.711C262.571 60.6665 268.67 56.4462 275.749 56.4462C284.162 56.4462 291.16 62.3818 292.848 70.2778C292.993 70.2778 293.138 70.2778 293.283 70.2778C298.647 70.2778 303.085 74.3075 303.739 79.508C305.944 79.9164 307.687 81.5773 308.204 83.7555Z" fill="white"/>
<path d="M586.174 292.701H504.191C504.763 290.196 506.996 288.344 509.691 288.344C509.818 288.344 509.946 288.353 510.073 288.372C511.352 285.186 514.484 282.953 518.105 282.953C519.711 282.953 521.182 283.389 522.461 284.124C524.04 278.978 528.832 275.221 534.496 275.221C535.639 275.221 536.756 275.384 537.818 275.683C540.568 269.612 546.667 265.391 553.746 265.391C562.132 265.391 569.157 271.327 570.845 279.223C570.972 279.223 571.108 279.223 571.253 279.223C576.644 279.223 581.082 283.253 581.736 288.453C583.941 288.862 585.684 290.523 586.174 292.701Z" fill="white"/>
<path d="M409.465 37.795L398.22 29.7084L156.411 364.527L167.656 372.614L409.465 37.795Z" fill="white"/>
<path d="M421.445 4.95837C437.346 14.6787 442.356 35.4534 432.636 51.3544C422.916 67.2553 402.141 72.2652 386.24 62.5449C370.366 52.8247 365.356 32.0499 375.049 16.149C384.77 0.247985 405.544 -4.76191 421.445 4.95837Z" fill="#C4D1EB"/>
<path d="M407.968 6.29253C413.168 9.45094 414.802 16.2579 411.643 21.4311C408.458 26.6316 401.678 28.2653 396.477 25.1069C391.277 21.9212 389.643 15.1415 392.829 9.94104C395.987 4.74055 402.794 3.10689 407.968 6.29253Z" fill="#E0E8F5"/>
<path d="M383.081 103.414C383.081 103.414 379.514 94.1019 378.507 92.8222C377.5 91.5153 372.299 88.1118 371.891 88.3296C371.455 88.5202 371.292 88.9559 371.782 89.7999C372.299 90.6712 374.45 93.1217 374.014 93.1762C373.579 93.2306 366.799 86.4782 365.193 87.4584C363.559 88.4113 363.532 94.6465 365.764 98.3767C367.997 102.08 376.928 106.354 377.391 106.899C381.312 111.745 383.081 103.414 383.081 103.414Z" fill="#F9AF79"/>
<path d="M379.106 101.943C382.155 99.8741 382.781 99.9558 382.781 99.9558C382.781 99.9558 407.94 124.978 410.418 127.238C412.868 129.471 455.044 150.463 455.044 150.463L455.861 184.716C455.861 184.716 403.829 147.005 397.702 141.178C387.574 131.594 375.729 105.864 375.729 105.864C375.729 105.864 376.71 103.577 379.106 101.943Z" fill="#466FB5"/>
<path d="M507.322 374.465C507.322 374.465 514.51 382.225 516.307 383.205C518.104 384.158 515.49 395.431 510.616 396.166C507.866 396.601 506.341 393.96 506.341 393.96L507.131 390.693L496.839 381.49L507.322 374.465Z" fill="#F9AF79"/>
<path d="M404.264 378.577C404.264 378.577 403.365 388.95 403.883 390.884C404.4 392.817 394.135 398.426 390.214 395.376C388.036 393.661 388.962 390.802 388.962 390.802L391.93 389.223L391.794 375.663L404.264 378.577Z" fill="#F9AF79"/>
<path d="M403.829 390.366C403.829 390.366 398.71 391.101 396.314 391.047C393.183 390.992 389.561 390.475 389.561 390.475C389.561 390.475 383.299 392.436 381.311 393.307C376.873 395.24 371.945 397.364 370.638 399.46C370.23 400.114 371.237 402.02 372.789 402.782C379.324 405.804 402.032 406.431 406.197 404.96C410.989 403.299 403.829 390.366 403.829 390.366Z" fill="#0E2952"/>
<path d="M452.648 258.584C454.282 257.795 455.779 257.087 457.222 256.433C462.314 262.26 468.086 268.822 473.995 275.574L461.116 302.557C462.559 300.951 420.492 326.517 420.492 326.517C420.492 326.517 410.935 360.688 407.341 382.389C399.99 383.26 398.465 383.015 390.542 381.3C388.772 355.733 392.747 316.198 395.824 311.27C397.621 308.438 433.344 268.06 452.648 258.584Z" fill="#20386F"/>
<path d="M495.287 272.879C493.844 294.988 485.593 326.463 485.92 329.567C487.173 333.651 508.601 371.47 512.603 376.97C509.418 381.163 504.735 385.084 499.425 386.337C498.363 386.582 462.178 341.465 460.163 337.844C457.903 333.733 454.118 311.379 454.037 283.688L453.002 256.243C461.933 247.475 476.472 241.621 481.482 242.602C490.141 244.262 495.668 267.27 495.287 272.879Z" fill="#1D417F"/>
<path d="M515.901 382.906C515.901 382.906 513.042 387.099 511.408 388.787C509.285 391.02 506.48 393.28 506.48 393.28C506.48 393.28 503.812 399.188 503.131 401.23C501.661 405.75 499.973 411.195 500.653 413.564C500.899 414.327 502.804 415.77 504.384 414.871C510.483 411.413 526.765 395.213 528.426 391.21C530.359 386.554 515.901 382.906 515.901 382.906Z" fill="#0E2952"/>
<path d="M368.35 117.627C368.35 117.627 366.254 107.253 365.41 105.728C364.593 104.203 359.774 99.738 359.284 99.8469C358.821 99.983 358.576 100.419 358.93 101.399C359.311 102.379 361.135 105.347 360.672 105.32C360.182 105.292 354.301 97.0424 352.449 97.7776C350.571 98.4855 349.427 104.993 351.115 109.295C352.776 113.57 361.38 119.587 361.788 120.268C365.001 126.04 368.35 117.627 368.35 117.627Z" fill="#F9AF79"/>
<path d="M466.616 145.889C466.616 145.889 456.951 157.352 444.644 152.56C444.644 152.56 442.003 146.161 441.948 141.451C441.948 140.87 441.948 140.307 441.948 139.763C441.866 134.453 441.703 131.458 441.703 131.458C442.275 131.213 460.517 123.726 460.49 124.352C460.191 138.728 466.616 145.889 466.616 145.889Z" fill="#F9AF79"/>
<path d="M458.666 127.782C456.896 131.05 450.879 137.421 441.948 139.763C441.866 134.453 441.703 131.458 441.703 131.458C442.22 131.322 459.183 126.83 458.666 127.782Z" fill="#ED7D57"/>
<path d="M437.864 130.914C437.864 130.914 458.393 135.733 461.198 122.909C464.002 110.085 468.549 102.052 455.562 98.4311C442.574 94.8098 438.953 99.139 436.965 103.196C435.005 107.253 432.609 129.335 437.864 130.914Z" fill="#F9AF79"/>
<path d="M460.49 126.394C460.789 126.584 465.2 127.946 473.559 111.282C474.866 108.669 475.765 103.005 472.715 97.9954C464.22 84.1092 449.19 93.3667 433.616 84.1637C428.035 105.565 444.943 103.713 448.183 104.721C451.45 105.755 452.594 110.874 452.839 112.508C453.057 114.141 453.438 115.503 457.522 114.06C461.606 112.589 459.374 119.832 458.72 121.221C458.72 121.221 458.148 124.896 460.49 126.394Z" fill="#20386F"/>
<path d="M426.808 193.265C426.917 200.072 427.325 207.696 427.843 215.456C427.879 215.928 427.915 216.39 427.952 216.844C428.278 221.664 428.66 226.483 429.068 231.166C429.249 233.054 429.431 234.914 429.613 236.748L429.64 236.993C429.667 237.673 429.749 238.436 429.83 239.116C431.546 256.706 433.37 270.619 433.697 270.837C434.105 271.109 434.568 271.218 435.058 271.163C439.687 270.592 453.437 271.654 464.736 269.176C474.239 267.188 482.434 263.376 491.12 258.258C492.263 257.55 494.905 255.753 494.687 254.418C494.469 252.921 494.088 250.797 493.598 248.102C491.882 238.735 488.914 222.617 487.934 203.775C487.735 200.253 487.444 196.786 487.063 193.374C486.11 184.498 484.558 176.057 482.461 168.57C478.595 154.656 472.932 143.983 465.798 139.817C464.872 139.3 459.863 142.485 455.261 145.426C450.986 148.176 446.521 148.911 442.164 148.53L438.353 152.777C433.697 158.169 428.768 165.357 427.407 175.54C427.316 176.302 427.235 177.11 427.162 177.963C426.781 182.102 426.699 187.357 426.808 193.265Z" fill="#6D96CE"/>
<path d="M426.808 193.265C426.917 200.072 427.325 207.696 427.843 215.456C427.879 215.928 427.915 216.39 427.952 216.844C454.308 200.344 458.365 170.149 458.365 170.149C445.405 170.693 435.085 173.688 427.162 177.963C426.781 182.102 426.699 187.357 426.808 193.265Z" fill="#466FB5"/>
<path d="M363.315 116.156C366.255 113.57 367.998 114.768 367.998 114.768C367.998 114.768 398.03 141.805 400.943 143.82C403.857 145.835 445.324 150.3 445.324 150.3C445.324 150.3 461.988 151.416 465.337 160.265C468.277 167.971 465.31 174.179 461.307 178.589C456.542 183.844 449.027 185.614 442.411 183.082C427.517 177.446 397.921 166.01 392.53 162.089C380.495 153.377 360.129 120.785 360.129 120.785C360.129 120.785 361.027 118.226 363.315 116.156Z" fill="#6D96CE"/>
<path d="M446.93 114.604C447.855 114.713 448.972 111.201 446.766 110.929C445.595 110.792 445.459 114.414 446.93 114.604Z" fill="#20386F"/>
<path d="M437.074 113.815C436.176 113.706 435.876 110.03 438.082 110.302C439.252 110.439 438.572 114.005 437.074 113.815Z" fill="#20386F"/>
<path d="M446.358 107.661C444.888 107.552 444.806 108.75 445.841 109.213C446.14 109.349 451.94 111.255 451.722 110.847C451.286 110.03 449.162 107.906 446.358 107.661Z" fill="#20386F"/>
<path d="M439.852 106.926C441.322 107.117 441.186 108.315 440.097 108.56C439.579 108.669 433.644 109.404 434.079 108.941C434.76 108.179 437.156 106.627 439.852 106.926Z" fill="#20386F"/>
<path d="M436.474 118.552C438.761 121.085 439.224 119.587 438.353 119.26C435.412 118.144 438.843 118.198 441.239 113.406C441.484 112.916 440.912 112.644 440.64 113.025C440.476 113.297 439.932 114.332 439.741 114.604C437.155 118.008 435.739 117.736 436.474 118.552Z" fill="#ED7D57"/>
<path d="M437.32 122.065C441.594 130.26 446.196 122.909 444.916 122.691C438.463 121.602 436.802 121.085 437.32 122.065Z" fill="white"/>
<path d="M319.779 207.832C322.747 206.144 334.373 196.26 334.373 196.26L353.569 211.535C353.569 211.535 329.499 225.802 324.707 228.498C315.668 229.587 282.586 229.097 279.291 229.342C277.821 229.451 275.316 229.75 273.737 230.54C270.225 232.228 268.836 233.235 265.487 234.951C261.702 236.911 255.277 225.312 257.183 222.589C258.489 220.683 264.452 220.275 269.244 219.894C271.395 219.73 317.083 209.357 319.779 207.832Z" fill="#F9AF79"/>
<path d="M380.194 181.094C383.026 186.948 382.781 193.02 368.486 204.32C354.219 215.646 341.694 222.045 341.694 222.045C341.694 222.045 327.373 211.154 325.194 198.683C325.194 198.683 370.365 161 380.194 181.094Z" fill="#466FB5"/>
<path d="M174.898 214.503C271.121 214.503 349.128 292.51 349.128 388.733H0.695312C0.695312 292.51 78.7027 214.503 174.898 214.503Z" fill="#B0C2E4"/>
<path fill-rule="evenodd" clip-rule="evenodd" d="M178.489 237.183L178.516 237.265L178.543 237.374L178.571 237.456V237.537L178.598 237.646L178.625 237.728V237.81V237.837V237.918L178.652 238V238.109V273.314C178.652 275.357 176.964 277.045 174.895 277.045C172.853 277.045 171.165 275.384 171.165 273.314V238.109V238L171.192 237.918V237.837V237.81V237.728L171.219 237.646V237.537L171.246 237.456C171.519 236.149 172.472 235.087 173.724 234.678L173.806 234.651L173.887 234.597H173.969L174.078 234.569C174.187 234.533 174.305 234.506 174.432 234.488H174.514H174.622L174.704 234.461H174.813H174.895L175.848 234.597C177.127 234.923 178.135 235.904 178.489 237.183ZM174.895 234.461H175.004H175.085L175.194 234.488H175.276H175.385C175.439 234.506 175.503 234.515 175.575 234.515L175.657 234.542L174.895 234.461ZM213.286 283.253C211.353 282.572 210.345 280.394 211.053 278.488L222.87 246.005C223.578 244.072 225.729 243.065 227.662 243.772C229.595 244.48 230.603 246.631 229.895 248.565L218.078 281.02C217.37 282.953 215.219 283.96 213.286 283.253ZM247.048 302.748C245.469 301.441 245.251 299.072 246.585 297.493L268.803 271C270.11 269.448 272.479 269.23 274.058 270.564C275.637 271.871 275.828 274.24 274.521 275.819L252.303 302.285C250.969 303.864 248.6 304.082 247.048 302.748ZM272.098 332.616C271.063 330.819 271.689 328.532 273.459 327.498L303.382 310.235C305.152 309.201 307.466 309.827 308.501 311.597C309.509 313.366 308.91 315.681 307.113 316.688L277.189 333.978C275.419 335.012 273.105 334.386 272.098 332.616ZM285.412 369.238C285.058 367.223 286.447 365.262 288.462 364.908L322.496 358.918C324.511 358.564 326.471 359.926 326.825 361.941C327.179 363.955 325.818 365.916 323.776 366.27L289.741 372.26C287.726 372.614 285.793 371.252 285.412 369.238ZM22.9642 361.941C23.3181 359.926 25.2785 358.564 27.2934 358.918L61.8726 365.017C63.8874 365.371 65.276 367.304 64.9221 369.347C64.5409 371.361 62.6077 372.723 60.5929 372.369L26.0137 366.27C23.9716 365.916 22.6102 363.955 22.9642 361.941ZM41.2884 311.597C42.3231 309.827 44.6374 309.201 46.4072 310.235L76.8206 327.797C78.5904 328.805 79.2166 331.119 78.182 332.889C77.1473 334.658 74.8602 335.285 73.0631 334.25L42.677 316.688C40.88 315.681 40.281 313.366 41.2884 311.597ZM75.7315 270.564C77.3107 269.23 79.6795 269.448 80.9864 271L103.558 297.901C104.892 299.48 104.675 301.849 103.095 303.183C101.543 304.49 99.1745 304.3 97.8404 302.72L75.2686 275.819C73.9617 274.24 74.1523 271.871 75.7315 270.564ZM122.127 243.772C124.061 243.065 126.212 244.072 126.92 246.005L138.927 279.005C139.635 280.911 138.627 283.089 136.694 283.77C134.761 284.478 132.61 283.47 131.902 281.537L119.895 248.565C119.187 246.631 120.194 244.48 122.127 243.772Z" fill="white"/>
<path d="M167.872 372.314C170.023 371.388 172.419 370.871 174.897 370.871C184.78 370.871 192.758 378.876 192.758 388.732H230.822C230.822 364.554 215.466 343.943 193.983 336.156C189.327 334.468 184.345 333.378 179.199 332.97C177.783 332.861 176.349 332.807 174.897 332.807C144.02 332.807 118.998 357.856 118.998 388.732H157.035C157.035 381.517 161.31 375.309 167.463 372.477C167.609 372.423 167.745 372.369 167.872 372.314Z" fill="#8FA3CF"/>
</svg>
