<svg version="1.2" xmlns="http://www.w3.org/2000/svg" viewBox="0 0 4000 2000" width="4000" height="2000">
	<title>56e1ece1-0616-463d-8f0a-cefd9004ec68</title>
	<style>
		.s0 { fill: #ffffff } 
		.s1 { fill: #99b4ff } 
		.s2 { fill: #ccdcff } 
		.s3 { fill: #6b92ff } 
		.s4 { fill: #80a2ff } 
	</style>
	<g id="_Artboards_">
	</g>
	<g id="Layer 1">
		<g id="&lt;Group&gt;">
			<g id="&lt;Group&gt;">
				<g id="&lt;Group&gt;">
					<path id="&lt;Path&gt;" class="s0" d="m943.4 248.8h-235.7v235.5h235.7l78.5 39.3v-235.5z"/>
					<path id="&lt;Compound Path&gt;" fill-rule="evenodd" class="s1" d="m1021.9 524.6q-0.2 0-0.4-0.2l-78.3-39.1h-235.5c-0.5 0-1-0.4-1-1v-235.5c0-0.5 0.5-1 1-1h235.7q0.3 0 0.5 0.1l78.5 39.3c0.3 0.2 0.5 0.5 0.5 0.9v235.5c0 0.3-0.2 0.6-0.5 0.8q-0.2 0.2-0.5 0.2zm-313.2-41.3h234.7q0.3 0 0.5 0.1l77 38.5v-233.2l-77.7-38.9h-234.5z"/>
				</g>
				<g id="&lt;Group&gt;">
					<path id="&lt;Path&gt;" class="s2" d="m786.2 523.6l-78.5-39.3v-235.5l78.5 39.3z"/>
					<path id="&lt;Compound Path&gt;" fill-rule="evenodd" class="s1" d="m786.2 524.6q-0.2 0-0.4-0.2l-78.5-39.2c-0.4-0.2-0.6-0.5-0.6-0.9v-235.5c0-0.3 0.2-0.6 0.5-0.8 0.3-0.2 0.7-0.2 1-0.1l78.5 39.3c0.3 0.2 0.5 0.5 0.5 0.9v235.5c0 0.3-0.2 0.6-0.5 0.8q-0.2 0.2-0.5 0.2zm-77.5-40.9l76.5 38.2v-233.2l-76.5-38.2z"/>
				</g>
				<g id="&lt;Group&gt;">
					<path id="&lt;Path&gt;" class="s0" d="m1021.9 288.1h-235.7v235.5h235.7z"/>
					<path id="&lt;Compound Path&gt;" fill-rule="evenodd" class="s1" d="m1021.9 524.6h-235.7c-0.5 0-1-0.5-1-1v-235.5c0-0.6 0.5-1 1-1h235.7c0.6 0 1 0.4 1 1v235.5c0 0.5-0.4 1-1 1zm-234.7-2h233.7v-233.5h-233.7z"/>
				</g>
				<g id="&lt;Group&gt;">
					<path id="&lt;Compound Path&gt;" fill-rule="evenodd" class="s3" d="m824.8 414.4v-17.2l19.9-2.8c1.6-8.2 4.8-15.8 9.3-22.5l-12.1-16.1 12.2-12.1 16 12c6.7-4.5 14.3-7.7 22.5-9.3l2.9-19.9h17.2l2.8 19.9c8.2 1.6 15.8 4.8 22.5 9.3l16.1-12 12.1 12.1-12 16.1c4.5 6.7 7.7 14.3 9.2 22.5l20 2.8v17.2l-20 2.8c-1.5 8.3-4.7 15.9-9.2 22.5l12 16.1-12.1 12.2-16.1-12.1c-6.7 4.5-14.3 7.7-22.5 9.3l-2.8 19.9h-17.2l-2.9-19.9c-8.2-1.6-15.8-4.8-22.5-9.3l-16 12.1-12.2-12.2 12.1-16.1c-4.5-6.6-7.7-14.2-9.3-22.5zm79.3 13.6c12.2 0 22.1-9.9 22.1-22.1 0-12.2-9.9-22.1-22.1-22.1-12.2 0-22.1 9.9-22.1 22.1 0 12.2 9.9 22.1 22.1 22.1z"/>
					<path id="&lt;Compound Path&gt;" fill-rule="evenodd" class="s3" d="m912.7 486.1h-17.2c-0.5 0-0.9-0.3-1-0.8l-2.7-19.3c-7.8-1.5-15.1-4.5-21.6-8.9l-15.5 11.7c-0.4 0.3-1 0.2-1.3-0.1l-12.2-12.2c-0.3-0.3-0.4-0.9-0.1-1.3l11.7-15.5c-4.4-6.5-7.4-13.8-9-21.6l-19.2-2.7c-0.5-0.1-0.8-0.5-0.8-1v-17.2c0-0.5 0.3-0.9 0.8-1l19.2-2.7c1.6-7.8 4.6-15 9-21.6l-11.7-15.5c-0.3-0.4-0.2-0.9 0.1-1.3l12.2-12.1c0.3-0.4 0.9-0.4 1.3-0.1l15.5 11.6c6.5-4.3 13.8-7.3 21.6-8.9l2.7-19.2c0.1-0.5 0.5-0.9 1-0.9h17.2c0.5 0 0.9 0.4 0.9 0.9l2.8 19.2c7.8 1.6 15 4.6 21.6 8.9l15.5-11.6c0.4-0.3 0.9-0.3 1.3 0.1l12.1 12.1c0.4 0.4 0.4 0.9 0.1 1.3l-11.6 15.5c4.3 6.6 7.3 13.8 8.9 21.6l19.2 2.7c0.5 0.1 0.9 0.5 0.9 1v17.2c0 0.5-0.4 0.9-0.9 1l-19.2 2.7c-1.6 7.8-4.6 15.1-8.9 21.6l11.6 15.5c0.3 0.4 0.3 1-0.1 1.3l-12.1 12.2c-0.4 0.3-0.9 0.4-1.3 0.1l-15.5-11.7c-6.6 4.4-13.8 7.4-21.6 8.9l-2.8 19.3c0 0.5-0.4 0.8-0.9 0.8zm-16.4-2h15.5l2.7-19c0.1-0.5 0.4-0.8 0.8-0.9 8-1.5 15.5-4.6 22.1-9.1 0.4-0.3 0.9-0.3 1.2 0l15.4 11.5 10.9-10.9-11.5-15.4c-0.3-0.3-0.3-0.8-0.1-1.1 4.6-6.7 7.6-14.1 9.2-22.1 0-0.5 0.4-0.8 0.8-0.8l19.1-2.8v-15.4l-19.1-2.7c-0.4-0.1-0.8-0.4-0.8-0.8-1.6-8-4.6-15.5-9.2-22.1-0.2-0.4-0.2-0.9 0.1-1.2l11.5-15.4-10.9-10.9-15.4 11.5c-0.3 0.3-0.8 0.3-1.2 0.1-6.6-4.6-14.1-7.6-22.1-9.2-0.4-0.1-0.7-0.4-0.8-0.8l-2.7-19.1h-15.5l-2.7 19.1c0 0.4-0.4 0.7-0.8 0.8-8 1.6-15.4 4.6-22.1 9.2-0.4 0.2-0.8 0.2-1.2-0.1l-15.3-11.5-11 10.9 11.6 15.4c0.2 0.3 0.3 0.8 0 1.2-4.5 6.6-7.6 14.1-9.1 22.1-0.1 0.4-0.5 0.7-0.9 0.8l-19 2.7v15.4l19 2.8c0.4 0 0.8 0.3 0.9 0.8 1.5 8 4.6 15.4 9.1 22.1 0.3 0.3 0.2 0.8 0 1.1l-11.6 15.4 11 10.9 15.3-11.5c0.4-0.3 0.8-0.3 1.2 0 6.7 4.5 14.1 7.6 22.1 9.1 0.4 0.1 0.8 0.4 0.8 0.9zm7.8-55.2c-12.8 0-23.1-10.4-23.1-23.1 0-12.8 10.3-23.1 23.1-23.1 12.7 0 23 10.3 23 23.1 0 12.7-10.3 23.1-23 23.1zm0-44.2c-11.7 0-21.1 9.4-21.1 21.1 0 11.6 9.4 21.1 21.1 21.1 11.6 0 21-9.5 21-21.1 0-11.7-9.4-21.1-21-21.1z"/>
				</g>
			</g>
			<g id="&lt;Group&gt;">
				<g id="&lt;Group&gt;">
					<path id="&lt;Path&gt;" class="s2" d="m1579 467.2h107.8v-107.7h-107.8l-35.9-17.9v107.7z"/>
					<path id="&lt;Compound Path&gt;" fill-rule="evenodd" class="s1" d="m1686.8 468.2h-107.8q-0.3 0-0.5-0.1l-35.9-17.9c-0.3-0.2-0.5-0.5-0.5-0.9v-107.7c0-0.4 0.1-0.7 0.4-0.9 0.3-0.2 0.7-0.2 1 0l35.7 17.8h107.6c0.5 0 1 0.5 1 1v107.7c0 0.6-0.5 1-1 1zm-107.6-2h106.6v-105.7h-106.8q-0.3 0-0.5-0.1l-34.4-17.2v105.5z"/>
				</g>
				<g id="&lt;Group&gt;">
					<path id="&lt;Path&gt;" class="s0" d="m1650.9 341.6l35.9 17.9v107.7l-35.9-17.9z"/>
					<path id="&lt;Compound Path&gt;" fill-rule="evenodd" class="s1" d="m1686.8 468.2q-0.2 0-0.5-0.1l-35.9-17.9c-0.3-0.2-0.5-0.5-0.5-0.9v-107.7c0-0.4 0.2-0.7 0.5-0.9 0.3-0.2 0.6-0.2 0.9 0l35.9 17.9c0.4 0.2 0.6 0.5 0.6 0.9v107.7c0 0.4-0.2 0.7-0.5 0.9q-0.2 0.1-0.5 0.1zm-34.9-19.5l33.9 16.9v-105.5l-33.9-16.9z"/>
				</g>
				<g id="&lt;Group&gt;">
					<path id="&lt;Path&gt;" class="s0" d="m1543.1 449.3h107.8v-107.7h-107.8z"/>
					<path id="&lt;Compound Path&gt;" fill-rule="evenodd" class="s1" d="m1650.9 450.3h-107.8c-0.6 0-1-0.5-1-1v-107.7c0-0.6 0.4-1 1-1h107.8c0.5 0 1 0.4 1 1v107.7c0 0.5-0.5 1-1 1zm-106.8-2h105.8v-105.7h-105.8z"/>
				</g>
				<g id="&lt;Group&gt;">
					<g id="&lt;Group&gt;">
						<g id="&lt;Group&gt;">
							<path id="&lt;Path&gt;" class="s3" d="m1594.3 357.9h-44.7v-4h44.7z"/>
						</g>
						<g id="&lt;Group&gt;">
							<path id="&lt;Path&gt;" class="s1" d="m1626 357.9h-25.1v-4h25.1z"/>
						</g>
						<g id="&lt;Group&gt;">
							<path id="&lt;Path&gt;" class="s1" d="m1644.4 357.9h-11.9v-4h11.9z"/>
						</g>
					</g>
					<g id="&lt;Group&gt;">
						<g id="&lt;Group&gt;">
							<path id="&lt;Path&gt;" class="s1" d="m1581.2 371.1h-25.1v-4h25.1z"/>
						</g>
						<g id="&lt;Group&gt;">
							<path id="&lt;Path&gt;" class="s1" d="m1620.7 371.1h-32.9v-4h32.9z"/>
						</g>
						<g id="&lt;Group&gt;">
							<path id="&lt;Path&gt;" class="s1" d="m1644.4 371.1h-17.1v-4h17.1z"/>
						</g>
					</g>
					<g id="&lt;Group&gt;">
						<g id="&lt;Group&gt;">
							<path id="&lt;Path&gt;" class="s3" d="m1602.3 384.2h-51.4v-4h51.4z"/>
						</g>
						<g id="&lt;Group&gt;">
							<path id="&lt;Path&gt;" class="s1" d="m1620.7 384.2h-11.9v-4h11.9z"/>
						</g>
						<g id="&lt;Group&gt;">
							<path id="&lt;Path&gt;" class="s1" d="m1632.5 384.2h-5.2v-4h5.2z"/>
						</g>
					</g>
					<g id="&lt;Group&gt;">
						<g id="&lt;Group&gt;">
							<path id="&lt;Path&gt;" class="s3" d="m1575.9 397.4h-18.4v-4h18.4z"/>
						</g>
						<g id="&lt;Group&gt;">
							<path id="&lt;Path&gt;" class="s1" d="m1620.7 397.4h-38.2v-4h38.2z"/>
						</g>
					</g>
					<g id="&lt;Group&gt;">
						<g id="&lt;Group&gt;">
							<path id="&lt;Path&gt;" class="s1" d="m1594.3 410.6h-36.8v-4h36.8z"/>
						</g>
						<g id="&lt;Group&gt;">
							<path id="&lt;Path&gt;" class="s1" d="m1612.8 410.6h-11.9v-4h11.9z"/>
						</g>
						<g id="&lt;Group&gt;">
							<path id="&lt;Path&gt;" class="s1" d="m1644.4 410.6h-25v-4h25z"/>
						</g>
					</g>
					<g id="&lt;Group&gt;">
						<g id="&lt;Group&gt;">
							<path id="&lt;Path&gt;" class="s3" d="m1562.7 423.8h-11.8v-4h11.8z"/>
						</g>
						<g id="&lt;Group&gt;">
							<path id="&lt;Path&gt;" class="s1" d="m1620.7 423.8h-51.4v-4h51.4z"/>
						</g>
						<g id="&lt;Group&gt;">
							<path id="&lt;Path&gt;" class="s1" d="m1639.1 423.8h-11.8v-4h11.8z"/>
						</g>
					</g>
					<g id="&lt;Group&gt;">
						<g id="&lt;Group&gt;">
							<path id="&lt;Path&gt;" class="s3" d="m1569.3 436.9h-18.4v-4h18.4z"/>
						</g>
						<g id="&lt;Group&gt;">
							<path id="&lt;Path&gt;" class="s1" d="m1620.7 436.9h-44.8v-4h44.8z"/>
						</g>
					</g>
				</g>
			</g>
			<g id="&lt;Group&gt;">
				<g id="&lt;Group&gt;">
					<path id="&lt;Path&gt;" class="s2" d="m530.2 1050.6h-107.8v-107.7h107.8l35.9-17.9v107.7z"/>
					<path id="&lt;Compound Path&gt;" fill-rule="evenodd" class="s1" d="m530.2 1051.6h-107.8c-0.6 0-1-0.4-1-1v-107.7c0-0.5 0.4-1 1-1h107.5l35.7-17.8c0.4-0.2 0.7-0.2 1 0 0.3 0.2 0.5 0.5 0.5 0.9v107.7c0 0.4-0.2 0.7-0.6 0.9l-35.9 17.9q-0.2 0.1-0.4 0.1zm-106.8-2h106.5l35.2-17.5v-105.5l-34.5 17.2q-0.2 0.1-0.4 0.1h-106.8z"/>
				</g>
				<g id="&lt;Group&gt;">
					<path id="&lt;Path&gt;" class="s0" d="m458.3 925l-35.9 17.9v107.7l35.9-17.9z"/>
					<path id="&lt;Compound Path&gt;" fill-rule="evenodd" class="s1" d="m422.4 1051.6q-0.3 0-0.6-0.1c-0.3-0.2-0.4-0.5-0.4-0.9v-107.7c0-0.4 0.2-0.7 0.5-0.9l35.9-17.9c0.3-0.2 0.7-0.2 1 0 0.3 0.2 0.5 0.5 0.5 0.9v107.7c0 0.4-0.2 0.7-0.6 0.9l-35.9 17.9q-0.2 0.1-0.4 0.1zm1-108.1v105.5l33.9-16.9v-105.5z"/>
				</g>
				<g id="&lt;Group&gt;">
					<path id="&lt;Path&gt;" class="s0" d="m566.1 1032.7h-107.8v-107.7h107.8z"/>
					<path id="&lt;Compound Path&gt;" fill-rule="evenodd" class="s1" d="m566.1 1033.7h-107.8c-0.6 0-1-0.5-1-1v-107.7c0-0.6 0.4-1 1-1h107.8c0.5 0 1 0.4 1 1v107.7c0 0.5-0.5 1-1 1zm-106.8-2h105.8v-105.7h-105.8z"/>
				</g>
				<g id="&lt;Group&gt;">
					<path id="&lt;Path&gt;" class="s3" d="m480.6 999c0.8-1.3 15.6-6 19.7-8.8q0.1-0.1 0.2-0.1c-6.4-5.4-10.7-14.5-10.7-22.6 0-12.4 10-22.4 22.4-22.4 12.3 0 22.4 10 22.4 22.4 0 8.1-4.3 17.2-10.7 22.6q0.1 0 0.1 0.1c4.2 2.8 19 7.5 19.7 8.8 2.5 4.3 4.4 8.8 5.7 13.5h-74.4c1.3-4.7 3.1-9.2 5.6-13.5z"/>
					<path id="&lt;Compound Path&gt;" fill-rule="evenodd" class="s3" d="m549.4 1013.5h-74.4c-0.4 0-0.7-0.1-0.8-0.4-0.2-0.2-0.3-0.5-0.2-0.8 1.3-4.9 3.3-9.5 5.8-13.8 0.5-0.8 2.1-1.6 8.6-4.1 3.8-1.5 8-3.2 10.4-4.5-6-5.6-10-14.4-10-22.4 0-12.9 10.5-23.4 23.4-23.4 12.9 0 23.4 10.5 23.4 23.4 0 8-4 16.8-10.1 22.4 2.4 1.3 6.7 3 10.5 4.5 6.4 2.5 8.1 3.3 8.6 4.1 2.5 4.3 4.4 8.9 5.8 13.8 0.1 0.3 0 0.6-0.2 0.8-0.2 0.3-0.5 0.4-0.8 0.4zm-73.1-2h71.8c-1.3-4.2-3-8.2-5.2-11.9-0.6-0.6-4.5-2.1-7.7-3.3-4.4-1.8-9.5-3.8-11.7-5.3l-0.2-0.1c-0.3-0.2-0.4-0.5-0.4-0.8 0-0.3 0.1-0.6 0.3-0.8 6.2-5.2 10.4-13.9 10.4-21.8 0-11.8-9.6-21.4-21.4-21.4-11.8 0-21.4 9.6-21.4 21.4 0 7.9 4.1 16.6 10.3 21.8 0.3 0.2 0.4 0.5 0.4 0.8 0 0.3-0.2 0.6-0.4 0.8h-0.1c-2.3 1.6-7.4 3.6-11.9 5.4-3.1 1.2-7 2.7-7.7 3.3-2.1 3.7-3.9 7.7-5.1 11.9z"/>
				</g>
			</g>
			<g id="&lt;Group&gt;">
				<g id="&lt;Group&gt;">
					<path id="&lt;Path&gt;" class="s2" d="m1889.9 919.7c24 24.1 38.9 57.3 38.9 94 0 73.5-59.5 133-133 133-36.7 0-70-14.9-94-38.9l-69.9-69.9 188.1-188z"/>
					<path id="&lt;Compound Path&gt;" fill-rule="evenodd" class="s1" d="m1795.8 1147.7c-35.8 0-69.4-13.9-94.7-39.2l-69.9-69.9c-0.4-0.3-0.4-1 0-1.4l188.1-188.1c0.4-0.3 1-0.3 1.4 0l69.9 69.9c25.3 25.3 39.2 58.9 39.2 94.7 0 73.9-60.1 134-134 134zm-162.4-109.8l69.1 69.2c24.9 24.9 58.1 38.6 93.3 38.6 72.8 0 132-59.2 132-132 0-35.2-13.7-68.4-38.6-93.3l-69.2-69.1z"/>
				</g>
				<g id="&lt;Group&gt;">
					<path id="&lt;Path&gt;" class="s0" d="m1593 943.9c0 73.4 59.5 133 133 133 73.4 0 133-59.6 133-133 0-73.5-59.6-133-133-133-73.5 0-133 59.5-133 133z"/>
					<path id="&lt;Compound Path&gt;" fill-rule="evenodd" class="s1" d="m1726 1077.9c-73.9 0-134-60.1-134-134 0-73.9 60.1-134 134-134 73.9 0 134 60.1 134 134 0 73.9-60.1 134-134 134zm0-266c-72.8 0-132 59.2-132 132 0 72.8 59.2 132 132 132 72.8 0 132-59.2 132-132 0-72.8-59.2-132-132-132z"/>
				</g>
				<g id="&lt;Group&gt;">
					<g id="&lt;Group&gt;">
						<path id="&lt;Path&gt;" class="s1" d="m1812.8 919.8h-173.7c-0.5 0-1-0.5-1-1 0-0.6 0.5-1 1-1h173.7c0.6 0 1 0.4 1 1 0 0.5-0.4 1-1 1z"/>
					</g>
					<g id="&lt;Group&gt;">
						<path id="&lt;Path&gt;" class="s1" d="m1812.8 932.3h-173.7c-0.5 0-1-0.4-1-1 0-0.5 0.5-1 1-1h173.7c0.6 0 1 0.5 1 1 0 0.6-0.4 1-1 1z"/>
					</g>
					<g id="&lt;Group&gt;">
						<path id="&lt;Path&gt;" class="s1" d="m1812.8 944.9h-173.7c-0.5 0-1-0.5-1-1 0-0.6 0.5-1 1-1h173.7c0.6 0 1 0.4 1 1 0 0.5-0.4 1-1 1z"/>
					</g>
					<g id="&lt;Group&gt;">
						<path id="&lt;Path&gt;" class="s1" d="m1812.8 957.5h-173.7c-0.5 0-1-0.5-1-1 0-0.6 0.5-1 1-1h173.7c0.6 0 1 0.4 1 1 0 0.5-0.4 1-1 1z"/>
					</g>
					<g id="&lt;Group&gt;">
						<path id="&lt;Path&gt;" class="s1" d="m1812.8 970h-173.7c-0.5 0-1-0.4-1-1 0-0.5 0.5-1 1-1h173.7c0.6 0 1 0.5 1 1 0 0.6-0.4 1-1 1z"/>
					</g>
					<g id="&lt;Group&gt;">
						<path id="&lt;Path&gt;" class="s1" d="m1700.8 1031.8c-0.5 0-1-0.5-1-1v-173.8c0-0.5 0.5-1 1-1 0.6 0 1 0.5 1 1v173.8c0 0.5-0.4 1-1 1z"/>
					</g>
					<g id="&lt;Group&gt;">
						<path id="&lt;Path&gt;" class="s1" d="m1713.4 1031.8c-0.5 0-1-0.5-1-1v-173.8c0-0.5 0.5-1 1-1 0.6 0 1 0.5 1 1v173.8c0 0.5-0.4 1-1 1z"/>
					</g>
					<g id="&lt;Group&gt;">
						<path id="&lt;Path&gt;" class="s1" d="m1726 1031.8c-0.6 0-1-0.5-1-1v-173.8c0-0.5 0.4-1 1-1 0.5 0 1 0.5 1 1v173.8c0 0.5-0.5 1-1 1z"/>
					</g>
					<g id="&lt;Group&gt;">
						<path id="&lt;Path&gt;" class="s1" d="m1738.5 1031.8c-0.5 0-1-0.5-1-1v-173.8c0-0.5 0.5-1 1-1 0.6 0 1 0.5 1 1v173.8c0 0.5-0.4 1-1 1z"/>
					</g>
					<g id="&lt;Group&gt;">
						<path id="&lt;Path&gt;" class="s1" d="m1751.1 1031.8c-0.5 0-1-0.5-1-1v-173.8c0-0.5 0.5-1 1-1 0.6 0 1 0.5 1 1v173.8c0 0.5-0.4 1-1 1z"/>
					</g>
					<g id="&lt;Group&gt;">
						<path id="&lt;Path&gt;" class="s3" d="m1670.2 979.4c0 11.2 9.1 20.3 20.2 20.3h71.1c11.2 0 20.3-9.1 20.3-20.3v-71c0-11.2-9.1-20.3-20.3-20.3h-71.1c-11.1 0-20.2 9.1-20.2 20.3z"/>
						<path id="&lt;Compound Path&gt;" fill-rule="evenodd" class="s3" d="m1761.5 1000.7h-71.1c-11.7 0-21.2-9.5-21.2-21.3v-71c0-11.8 9.5-21.3 21.2-21.3h71.1c11.7 0 21.3 9.5 21.3 21.3v71c0 11.8-9.6 21.3-21.3 21.3zm-71.1-111.6c-10.6 0-19.2 8.6-19.2 19.3v71c0 10.7 8.6 19.3 19.2 19.3h71.1c10.6 0 19.3-8.6 19.3-19.3v-71c0-10.7-8.7-19.3-19.3-19.3z"/>
					</g>
					<path id="&lt;Path&gt;" class="s0" d="m1706.7 956.2c0 3.8 3.1 7 7 7h24.6c3.8 0 7-3.2 7-7v-24.6c0-3.8-3.2-7-7-7h-24.6c-3.9 0-7 3.2-7 7z"/>
				</g>
			</g>
			<g id="&lt;Group&gt;">
				<g id="&lt;Group&gt;">
					<path id="&lt;Path&gt;" class="s3" d="m899.1 793.2l-58-58h-61.8v-2h62.7l58.5 58.6z"/>
				</g>
				<g id="&lt;Group&gt;">
					<path id="&lt;Path&gt;" class="s3" d="m885.2 807l-57.9-57.9h-61.9v-2h62.7l58.6 58.5z"/>
				</g>
				<g id="&lt;Group&gt;">
					<path id="&lt;Path&gt;" class="s3" d="m871.4 820.9l-58-58h-61.8v-2h62.7l58.5 58.6z"/>
				</g>
				<g id="&lt;Group&gt;">
					<path id="&lt;Path&gt;" class="s3" d="m1347.5 675.7h-33.8l-75.7-75.8h-62.9l-12.8-12.8h-62.2l-33.1 33.1-1.4-1.4 33.6-33.7h63.9l12.8 12.8h62.9l75.8 75.8h32.9z"/>
				</g>
				<g id="&lt;Group&gt;">
					<path id="&lt;Path&gt;" class="s3" d="m1333.7 661.8h-33.8l-75.8-75.7h-62.8l-12.9-12.8h-62.2l-33.1 33.1-1.4-1.5 33.7-33.6h63.9l12.8 12.8h62.9l75.7 75.7h33z"/>
				</g>
				<g id="&lt;Group&gt;">
					<path id="&lt;Path&gt;" class="s3" d="m1319.8 648h-33.8l-75.7-75.8h-62.9l-12.8-12.8h-62.2l-33.1 33.1-1.4-1.4 33.6-33.7h63.9l12.8 12.8h62.9l75.8 75.8h32.9z"/>
				</g>
				<g id="&lt;Group&gt;">
					<path id="&lt;Path&gt;" class="s3" d="m1362.8 796.1l-35.5-35.5 1.4-1.4 34.1 34.1 36.4-36.4h89.6l42.3-42.3 1.4 1.4-42.9 42.9h-89.6z"/>
				</g>
				<g id="&lt;Group&gt;">
					<path id="&lt;Path&gt;" class="s3" d="m1376.7 810l-35.6-35.6 1.5-1.4 34.1 34.1 36.3-36.3h89.6l42.4-42.3 1.4 1.4-42.9 42.9h-89.6z"/>
				</g>
				<g id="&lt;Group&gt;">
					<path id="&lt;Path&gt;" class="s3" d="m1390.5 823.8l-35.5-35.5 1.4-1.4 34.1 34.1 36.4-36.4h89.6l42.3-42.3 1.4 1.4-42.9 42.9h-89.6z"/>
				</g>
				<g id="&lt;Group&gt;">
					<path id="&lt;Path&gt;" class="s3" d="m619.9 909.3l-36.5-36.4h-75.7l-43-42.9 1.5-1.5 42.3 42.4h75.8l37 37z"/>
				</g>
				<g id="&lt;Group&gt;">
					<path id="&lt;Path&gt;" class="s3" d="m633.7 895.5l-36.4-36.5h-75.8l-42.9-42.9 1.4-1.4 42.4 42.3h75.7l37.1 37.1z"/>
				</g>
				<g id="&lt;Group&gt;">
					<path id="&lt;Path&gt;" class="s3" d="m647.6 881.6l-36.5-36.4h-75.7l-42.9-42.9 1.4-1.5 42.3 42.4h75.8l37 37z"/>
				</g>
				<path id="&lt;Compound Path&gt;" fill-rule="evenodd" class="s3" d="m348.5 701.9h-113l-45.4-45.5h113zm339-73.1l-61.4-61.4 61.4-61.5 61.5 61.5zm-332.3 139l-38.1-38.2h76.3zm1690.7-151.5l-86.7 86.7-209.7 0.3-123.6-123.6-64 64h-32.6l-89.2 89.2h-85.2l-54.8 54.8-53.6-53.5-18.7 18.7 53.5 53.6-12.2 12.2-177.5-177.4-17.9 17.8h-186.2l-28.2-28.1h-56.2l-164.7 164.6h-123.6l-93.7-93.7h-45l-45.4-45.4h173.7l51.9 52 18.8-18.8-33.2-33.2h21.7l51.9 52 18.7-18.8-33.2-33.2h86.4l87.7-87.7h173.7l32.5 32.5 32.4-32.5h1.7l50.8 50.8h117.9l83.7 83.7h173.9l147-147h89.2l61.6 61.7h158.1l17.9 17.9h56.8l19.7-19.6zm-604.3 59.3l-89.4-89.4h27.1l32.5 32.4 32.4-32.4h86.9zm-81.7 0v-54l53.9 54zm-938.9 54l72 72-72 72-72-72zm669.6-60.7l123.8 123.9-33.8 33.8-123.8-123.9zm561.7-21.2l67.7 67.6-94.2 94.2-18.2-18.2 23.2-23.2-32.5-32.4-23.1 23.1-43.5-43.5 94.1-94.1v77.8h26.5zm101-43.6l-47.8-47.8h134.4l47.8 47.8zm-1192.2 145.2l-32.5-32.5-32.5 32.5 32.5 32.4zm100.4 48.8l53.9-54v54zm63.8-63.8h54l-54 54zm334.7-61.3l-27.6 27.6h-174.8l27.7-27.6z"/>
				<g id="&lt;Group&gt;">
					<path id="&lt;Path&gt;" class="s3" d="m687.6 631.2h-63.9l-62.9-62.9h-90.9l-33.6 33.5h-80v-2h79.2l33.5-33.5h92.6l62.9 62.9h63.1z"/>
				</g>
				<g id="&lt;Group&gt;">
					<path id="&lt;Path&gt;" class="s3" d="m673.7 617.3h-63.9l-62.9-62.9h-90.9l-33.5 33.6h-80.1v-2h79.3l33.5-33.6h92.5l62.9 62.9h63.1z"/>
				</g>
				<g id="&lt;Group&gt;">
					<path id="&lt;Path&gt;" class="s3" d="m659.9 603.5h-63.9l-62.9-62.9h-90.9l-33.6 33.5h-80v-2h79.2l33.5-33.5h92.6l62.9 62.9h63.1z"/>
				</g>
				<g id="&lt;Group&gt;">
					<path id="&lt;Path&gt;" class="s4" d="m1319.8 651.9c-2.7 0-4.9-2.2-4.9-4.9 0-2.7 2.2-4.9 4.9-4.9 2.7 0 4.9 2.2 4.9 4.9 0 2.7-2.2 4.9-4.9 4.9z"/>
					<path id="&lt;Path&gt;" class="s4" d="m1333.7 665.7c-2.8 0-5-2.2-5-4.9 0-2.7 2.2-4.9 5-4.9 2.7 0 4.9 2.2 4.9 4.9 0 2.7-2.2 4.9-4.9 4.9z"/>
					<path id="&lt;Path&gt;" class="s4" d="m1347.5 679.6c-2.7 0-4.9-2.2-4.9-4.9 0-2.7 2.2-4.9 4.9-4.9 2.7 0 4.9 2.2 4.9 4.9 0 2.7-2.2 4.9-4.9 4.9z"/>
				</g>
				<path id="&lt;Path&gt;" class="s4" d="m328.6 578.1c-2.7 0-4.9-2.2-4.9-5 0-2.7 2.2-4.9 4.9-4.9 2.7 0 4.9 2.2 4.9 4.9 0 2.8-2.2 5-4.9 5z"/>
				<path id="&lt;Path&gt;" class="s4" d="m342.4 591.9c-2.7 0-4.9-2.2-4.9-4.9 0-2.7 2.2-4.9 4.9-4.9 2.7 0 4.9 2.2 4.9 4.9 0 2.7-2.2 4.9-4.9 4.9z"/>
				<path id="&lt;Path&gt;" class="s4" d="m356.3 605.8c-2.7 0-4.9-2.2-4.9-5 0-2.7 2.2-4.9 4.9-4.9 2.7 0 4.9 2.2 4.9 4.9 0 2.8-2.2 5-4.9 5z"/>
				<path id="&lt;Path&gt;" class="s4" d="m620.6 903.7c-2.7 0-4.9 2.2-4.9 4.9 0 2.8 2.2 4.9 4.9 4.9 2.7 0 4.9-2.1 4.9-4.9 0-2.7-2.2-4.9-4.9-4.9z"/>
				<path id="&lt;Path&gt;" class="s4" d="m634.4 889.9c-2.7 0-4.9 2.2-4.9 4.9 0 2.7 2.2 4.9 4.9 4.9 2.8 0 5-2.2 5-4.9 0-2.7-2.2-4.9-5-4.9z"/>
				<path id="&lt;Path&gt;" class="s4" d="m648.3 876c-2.7 0-4.9 2.2-4.9 4.9 0 2.8 2.2 4.9 4.9 4.9 2.7 0 4.9-2.1 4.9-4.9 0-2.7-2.2-4.9-4.9-4.9z"/>
				<path id="&lt;Path&gt;" class="s4" d="m872.1 825.1c-2.7 0-4.9-2.2-4.9-4.9 0-2.7 2.2-4.9 4.9-4.9 2.7 0 4.9 2.2 4.9 4.9 0 2.7-2.2 4.9-4.9 4.9z"/>
				<path id="&lt;Path&gt;" class="s4" d="m885.9 811.2c-2.7 0-4.9-2.2-4.9-4.9 0-2.7 2.2-4.9 4.9-4.9 2.8 0 5 2.2 5 4.9 0 2.7-2.2 4.9-5 4.9z"/>
				<path id="&lt;Path&gt;" class="s4" d="m899.8 797.4c-2.7 0-4.9-2.2-4.9-4.9 0-2.7 2.2-4.9 4.9-4.9 2.7 0 4.9 2.2 4.9 4.9 0 2.7-2.2 4.9-4.9 4.9z"/>
			</g>
			<g id="&lt;Group&gt;">
				<g id="&lt;Group&gt;">
					<path id="&lt;Path&gt;" class="s2" d="m291.5 1682.5l-9.3 13.2q-1 1.4-1.4 3l-2.2 8.2c-1.2 4.3-5.7 7.8-11 8.4l-5.1-54.5 26.7-2.6z"/>
					<path id="&lt;Compound Path&gt;" fill-rule="evenodd" class="s3" d="m267.6 1716.3q-0.3 0-0.6-0.2c-0.2-0.2-0.4-0.4-0.4-0.7l-5.1-54.5c0-0.6 0.4-1 0.9-1.1l26.7-2.6q0.4-0.1 0.8 0.2 0.3 0.3 0.3 0.7l2.3 24.3q0 0.4-0.2 0.7l-9.3 13.1q-0.9 1.3-1.2 2.7l-2.2 8.3c-1.3 4.7-6.2 8.4-11.9 9.1q0 0-0.1 0zm-4-54.6l4.9 52.5c4.4-0.9 8.2-4 9.1-7.6l2.2-8.2q0.5-1.7 1.6-3.3l9.1-12.8-2.2-23.1z"/>
				</g>
				<g id="&lt;Group&gt;">
					<path id="&lt;Path&gt;" class="s3" d="m596.5 1821.9h-327.3v-2h327.3z"/>
				</g>
				<g id="&lt;Group&gt;">
					<path id="&lt;Path&gt;" class="s2" d="m532.3 1794.5l11.2 10.3q1.2 1.2 2.7 1.7l7.7 2.9c4.1 1.5 6.6 6.3 6.1 11.5h-61.5l3.1-26.4z"/>
					<path id="&lt;Compound Path&gt;" fill-rule="evenodd" class="s3" d="m560 1821.9h-61.5c-0.2 0-0.5-0.1-0.7-0.3-0.2-0.2-0.3-0.5-0.3-0.8l3.1-26.4c0.1-0.5 0.5-0.9 1-0.9h30.7q0.4 0 0.7 0.3l11.1 10.3q1.1 1 2.4 1.5l7.8 2.9c4.5 1.7 7.3 6.8 6.7 12.5 0 0.5-0.5 0.9-1 0.9zm-60.3-2h59.4c0.1-4.3-2.1-8.3-5.5-9.5l-7.8-3q-1.6-0.6-3-1.8l-10.9-10.1h-29.4z"/>
				</g>
				<g id="&lt;Group&gt;">
					<path id="&lt;Path&gt;" class="s3" d="m586.5 1345.6h-82c-2.5 62.5-3.5 137.3-3.3 209.4-8.1 100.4-8.7 189.1-4.6 241.1h44.8l27.1-240.5c8.2-76.7 15.3-139.6 18-210z"/>
					<path id="&lt;Compound Path&gt;" fill-rule="evenodd" class="s3" d="m541.4 1797.1h-44.8c-0.6 0-1-0.4-1-0.9-4.6-57.8-2.8-150.3 4.6-241.3-0.2-76.1 1-150.5 3.3-209.4 0.1-0.5 0.5-0.9 1-0.9 0 0 82 0 82 0 0.3 0 0.6 0.1 0.8 0.3 0.1 0.2 0.2 0.5 0.2 0.8-2.5 64.8-8.8 123.7-16.1 191.9l-1.9 18.1-27.1 240.5c-0.1 0.5-0.5 0.9-1 0.9zm-43.9-2h43l27-239.6 1.9-18.1c7.3-67.8 13.6-126.4 16.1-190.8h-80c-2.4 58.6-3.5 132.6-3.3 208.4-7.3 90.5-9.1 182.3-4.7 240.1z"/>
				</g>
				<g id="&lt;Group&gt;">
					<path id="&lt;Path&gt;" class="s3" d="m534.9 1446.6l-39.2 115.5c-7.8 23-24.7 42.6-46.6 54.1l-154.1 80.7-18.2-40.2c41.1-29.5 88.8-62 142.6-97.3 19.2-82.2 39.3-161.5 54.6-213.8h95.1z"/>
					<path id="&lt;Path&gt;" class="s3" d="m295 1697.9q-0.2 0-0.4-0.1c-0.2-0.1-0.4-0.2-0.5-0.5l-18.2-40.2c-0.2-0.4 0-0.9 0.4-1.2 39.2-28.2 85.7-60 142.2-97.1 19.8-85 39.7-162.8 54.5-213.4 0.2-0.5 0.6-0.8 1-0.8h95.1c0.6 0 1 0.5 1 1 0 0.6-0.4 1-1 1h-94.4c-14.8 50.7-34.6 128.3-54.3 213q-0.1 0.4-0.4 0.6c-56.4 37-102.8 68.7-141.9 96.9l17.4 38.4 153.1-80.2c21.6-11.3 38.5-30.8 46.1-53.5l39.3-115.6c0.1-0.5 0.7-0.8 1.2-0.6 0.5 0.2 0.8 0.8 0.6 1.3l-39.2 115.6c-7.8 23.1-25 43-47 54.6l-154.2 80.7q-0.2 0.1-0.4 0.1z"/>
				</g>
				<g id="&lt;Group&gt;">
					<path id="&lt;Path&gt;" class="s2" d="m643.4 1250.3c-11.1-27.2-30.4-42.9-51.1-50.3-11 29.8-3.4 65.8-3.4 65.8l38.9 57.1c5.1 7.3 14.4 10.4 22.9 7.7 11.2-3.5 17.2-15.8 13-26.8z"/>
					<path id="&lt;Compound Path&gt;" fill-rule="evenodd" class="s3" d="m644.5 1332.6c-6.9 0-13.4-3.3-17.5-9.2l-39-57.1q-0.1-0.1-0.1-0.3c-0.1-0.4-7.5-36.7 3.4-66.4 0.2-0.5 0.8-0.8 1.3-0.6 16.5 6 38.9 19.6 51.7 50.9 0.1 0 20.3 53.6 20.3 53.6 2.2 5.5 1.9 11.6-0.7 16.9-2.6 5.4-7.2 9.4-12.9 11.2-2.1 0.6-4.3 1-6.5 1zm-54.7-67.2l38.8 56.9c4.9 7 13.7 9.9 21.8 7.4 5.2-1.7 9.3-5.2 11.7-10.1 2.3-4.9 2.6-10.4 0.7-15.4l-20.3-53.6c-12.3-30-33.6-43.4-49.6-49.3-9.9 27.9-3.7 61.2-3.1 64.1z"/>
				</g>
				<g id="&lt;Group&gt;">
					<path id="&lt;Path&gt;" class="s2" d="m592.3 1200c-35.4-13.6-87.6-15.7-126.2 0-1.3 33.3 7.9 145.6 7.9 145.6h112.5l2.8-94.3z"/>
					<path id="&lt;Path&gt;" class="s3" d="m586.5 1346.6h-112.5c-0.5 0-1-0.4-1-0.9-0.1-1.1-9.2-112.8-7.9-145.8 0-0.4 0.2-0.7 0.6-0.9 36.4-14.7 88.6-14.7 126.9 0 0.5 0.2 0.8 0.8 0.6 1.3-0.2 0.5-0.8 0.8-1.3 0.6-37.7-14.5-88.9-14.6-124.9-0.2-1 32 7.1 133.2 7.9 143.9h110.7l2.7-93.3c0-0.5 0.4-1 1-1 0.6 0 1 0.5 1 1.1l-2.8 94.3c0 0.5-0.4 0.9-1 0.9z"/>
				</g>
				<g id="&lt;Group&gt;">
					<g id="&lt;Group&gt;">
						<g id="&lt;Group&gt;">
							<path id="&lt;Path&gt;" class="s0" d="m515.2 1189.4l0.1-63.2c1.3-4.9 5.5-8.6 10.6-9.1l17.2-1.9c6.1-0.7 11.8 3.1 13.4 9 4.6 17.1 6.5 32.4 6.4 43.1-0.1 5.7-5.3 11.3-14.9 10.8l4.7 34z"/>
							<path id="&lt;Compound Path&gt;" fill-rule="evenodd" class="s3" d="m552.7 1213.1q-0.3 0-0.5-0.2l-37.5-22.6c-0.3-0.2-0.5-0.6-0.5-0.9l0.1-63.2q0-0.1 0-0.2c1.5-5.4 6-9.3 11.5-9.9l17.2-1.9c6.6-0.8 12.7 3.3 14.4 9.7 4.3 15.6 6.6 31.4 6.5 43.4-0.1 3-1.3 5.8-3.6 7.9-2.7 2.5-6.6 3.9-11.1 4l4.5 32.7c0 0.4-0.1 0.8-0.5 1q-0.2 0.2-0.5 0.2zm-36.5-24.3l35.2 21.3-4.4-31.8c0-0.3 0.1-0.6 0.3-0.8 0.2-0.3 0.5-0.4 0.8-0.4 4.5 0.2 8.3-1 10.8-3.3 1.9-1.8 2.9-4.1 3-6.5 0.1-11.8-2.2-27.4-6.4-42.9-1.4-5.3-6.7-8.9-12.3-8.2l-17.2 1.9c-4.6 0.5-8.5 3.7-9.7 8.3z"/>
						</g>
						<g id="&lt;Group&gt;">
							<path id="&lt;Path&gt;" class="s3" d="m523.8 1098.9c-9.7 1.8-24.2 9.7-19.9 21.6-2.9 5.5-2.5 13.3 1.5 22.2l9.8 32.9c0 0 8.2-19.6 6.9-21.7-2.2-3.4-2.4-7.1-0.5-8.3 1.9-1.2 5.2 0.5 7.3 3.9 4.9-6.2 2.9-14.3 4.5-20.1l-8.9-3.1c8.2-1.5 22.7-2.1 32.1-1.7 1.8-2.7 2.2-5.9 1.5-9.6-1.8-8.4-8.8-14.6-17.3-15.9-5.7-0.8-11.4-1.3-17-0.2z"/>
							<path id="&lt;Compound Path&gt;" fill-rule="evenodd" class="s3" d="m515.2 1176.6q0 0-0.1 0c-0.4 0-0.7-0.3-0.9-0.7l-9.7-32.8c-4-9-4.6-16.8-1.6-22.7-1.2-3.6-0.9-7.1 1-10.4 3.6-6.4 12.5-10.7 19.7-12.1 5.9-1.2 11.8-0.6 17.3 0.2 9.1 1.4 16.4 8.1 18.2 16.7 0.8 4 0.2 7.5-1.7 10.4-0.2 0.3-0.5 0.5-0.9 0.4-7.5-0.3-19.4 0-27.8 1.1l5 1.8c0.5 0.1 0.8 0.7 0.7 1.2-0.6 1.9-0.7 4.1-0.8 6.4-0.2 4.5-0.5 9.7-3.9 14-0.2 0.3-0.5 0.4-0.8 0.4-0.4 0-0.7-0.2-0.8-0.4-2-3.1-4.7-4.4-5.9-3.7-1.3 0.8-1.3 3.8 0.7 7 1.4 2.2-3.6 15.1-6.8 22.6-0.1 0.4-0.5 0.6-0.9 0.6zm15.5-77.4c-2.3 0-4.5 0.2-6.7 0.7-6.5 1.2-15.1 5.3-18.4 11.1-1.6 2.9-1.9 5.9-0.7 9.1 0.1 0.3 0.1 0.6-0.1 0.8-2.8 5.3-2.3 12.9 1.5 21.4q0.1 0.1 0.1 0.2l8.9 30.1c3.3-8.2 6.3-16.8 5.9-18.2-2.4-3.9-2.5-8.2-0.1-9.7 2.1-1.3 5.4 0 7.8 3.1 2.3-3.6 2.5-7.8 2.7-11.8 0.1-2.1 0.2-4.1 0.6-6l-8-2.8c-0.4-0.1-0.7-0.5-0.7-1 0.1-0.4 0.4-0.8 0.9-0.9 8.4-1.5 22.5-2.1 31.7-1.7 1.3-2.3 1.7-5.1 1-8.3-1.6-7.9-8.2-14-16.5-15.2-3.2-0.5-6.5-0.9-9.9-0.9z"/>
						</g>
						<g id="&lt;Group&gt;">
							<g id="&lt;Group&gt;">
								<path id="&lt;Path&gt;" class="s0" d="m551.6 1147.2l5.2 10.4c0.6 1.1-0.1 2.5-1.3 2.8l-2.2 0.4z"/>
								<path id="&lt;Path&gt;" class="s1" d="m553.3 1161.8c-0.4 0-0.8-0.3-0.9-0.8-0.1-0.5 0.2-1.1 0.7-1.2l2.2-0.4c0.3-0.1 0.5-0.3 0.6-0.5 0.2-0.3 0.2-0.6 0-0.8l-5.2-10.4c-0.3-0.5-0.1-1.1 0.4-1.4 0.5-0.2 1.1 0 1.4 0.5l5.2 10.4c0.4 0.8 0.4 1.7 0 2.5-0.4 0.9-1.1 1.5-2 1.6l-2.2 0.5q-0.1 0-0.2 0z"/>
							</g>
							<path id="&lt;Compound Path&gt;" class="s3" d="m541.8 1143.3c-0.9 0.1-1.5 0.9-1.4 1.8l0.4 2.5c0.2 0.9 1 1.5 1.9 1.3 0.9-0.1 1.5-0.9 1.3-1.8l-0.3-2.5c-0.2-0.9-1-1.5-1.9-1.3zm14.7-2.4c-0.9 0.2-1.5 1-1.4 1.9l0.4 2.5c0.2 0.8 1 1.5 1.9 1.3 0.9-0.1 1.5-1 1.3-1.8l-0.4-2.5c-0.1-0.9-0.9-1.5-1.8-1.4z"/>
							<g id="&lt;Group&gt;">
								<path id="&lt;Path&gt;" class="s0" d="m534.9 1142.1l8.3-4.2z"/>
								<path id="&lt;Path&gt;" class="s1" d="m534.9 1143.1c-0.4 0-0.7-0.2-0.9-0.5-0.2-0.5 0-1.1 0.5-1.4l8.3-4.2c0.5-0.2 1.1 0 1.3 0.4 0.3 0.5 0.1 1.1-0.4 1.4l-8.3 4.2q-0.3 0.1-0.5 0.1z"/>
							</g>
							<g id="&lt;Group&gt;">
								<path id="&lt;Path&gt;" class="s0" d="m553.5 1136.3l4.4 0.7z"/>
								<path id="&lt;Path&gt;" class="s1" d="m557.9 1138q-0.1 0-0.2-0.1l-4.4-0.6c-0.5-0.1-0.9-0.6-0.8-1.2 0.1-0.5 0.6-0.9 1.1-0.8l4.4 0.7c0.6 0.1 0.9 0.6 0.9 1.1-0.1 0.5-0.5 0.9-1 0.9z"/>
							</g>
							<g id="&lt;Group&gt;">
								<path id="&lt;Path&gt;" class="s0" d="m556.9 1164.1c1.4 2.6 0.4 4.9-2.4 5.3-2.8 0.5-6.4-1.1-8.4-3.6z"/>
								<path id="&lt;Compound Path&gt;" fill-rule="evenodd" class="s1" d="m553.5 1170.5c-2.9 0-6.1-1.6-8.1-4.1-0.3-0.3-0.3-0.6-0.2-1 0.1-0.3 0.4-0.5 0.8-0.6l10.8-1.7c0.4-0.1 0.8 0.1 1 0.5 0.9 1.6 1 3.2 0.3 4.5-0.6 1.3-1.8 2.1-3.4 2.3q-0.6 0.1-1.2 0.1zm-5.3-4c1.9 1.4 4.3 2.3 6.2 2 0.9-0.2 1.6-0.6 1.9-1.3 0.3-0.5 0.3-1.2 0-2z"/>
							</g>
						</g>
						<g id="&lt;Group&gt;">
							<path id="&lt;Path&gt;" class="s0" d="m548 1178.1c-5.7-0.5-11.2-2.4-16.3-6.7z"/>
							<path id="&lt;Path&gt;" class="s3" d="m548 1179.1q0 0-0.1 0c-6.5-0.6-12-2.9-16.8-7-0.5-0.3-0.5-0.9-0.2-1.4 0.4-0.4 1-0.4 1.5-0.1 4.5 3.8 9.6 5.9 15.7 6.5 0.6 0.1 1 0.6 0.9 1.1 0 0.5-0.5 0.9-1 0.9z"/>
						</g>
					</g>
				</g>
				<g id="&lt;Group&gt;">
					<path id="&lt;Compound Path&gt;" fill-rule="evenodd" class="s3" d="m425.3 1454.1c0.9 16.7-5 33.8-17.8 46.6-24.6 24.5-64.9 23.8-88.6-2.2-21.2-23.3-21.1-59.4 0.2-82.6 12.9-14 30.6-20.5 48-19.7 6.8 0.3 13.4-2.1 18.2-6.9l289-289.1c5.1-5 7.5-12.1 6.9-19.2-1.8-20 4.9-40.6 20.2-55.9 17.3-17.3 41.4-23.6 63.7-19l-50.2 50.1 17.1 37.4 37.4 17 50.1-50.1c4.6 22.3-1.7 46.4-19 63.7-16.8 16.7-39.8 23.2-61.5 19.5-7.6-1.3-15.4 1.2-20.8 6.6l-285.9 285.9c-4.7 4.7-7.3 11.2-7 17.9zm-24.1 13.2l-9.9-37.1-37-9.9-27.1 27.1 9.9 37.1 37 9.9z"/>
					<path id="&lt;Compound Path&gt;" fill-rule="evenodd" class="s3" d="m364.2 1519.6q-0.7 0-1.5 0c-17.1-0.4-33-7.7-44.6-20.4-21.5-23.6-21.4-60.5 0.3-84 12.5-13.6 30.3-20.9 48.7-20 6.6 0.3 13-2.1 17.5-6.6l289-289.1c4.8-4.8 7.2-11.5 6.6-18.4-1.9-21.1 5.6-41.7 20.5-56.7 16.9-16.9 41.1-24.1 64.6-19.3 0.3 0.1 0.6 0.3 0.7 0.7 0.1 0.3 0.1 0.7-0.2 1l-49.7 49.6 16.6 36.4 36.5 16.6 49.6-49.6c0.3-0.3 0.7-0.4 1-0.3 0.4 0.2 0.6 0.4 0.7 0.8 4.8 23.5-2.4 47.7-19.3 64.6-16.3 16.3-39.6 23.7-62.4 19.8-7.2-1.3-14.7 1.1-19.9 6.3l-285.9 285.9c-4.6 4.6-7 10.8-6.7 17.1 1 17.7-5.6 34.9-18.1 47.4-11.8 11.7-27.4 18.2-44 18.2zm0-122.5c-16.9 0-32.9 7-44.4 19.5-20.9 22.7-21 58.4-0.2 81.3 11.2 12.3 26.6 19.3 43.2 19.7 16.6 0.4 32.2-5.9 44-17.7 12-12 18.4-28.7 17.5-45.7-0.3-6.9 2.3-13.7 7.3-18.7l285.9-285.9c5.7-5.7 13.8-8.3 21.7-6.9 22.1 3.8 44.7-3.4 60.6-19.2 16-16 23.1-38.7 19.1-61l-48.8 48.8c-0.3 0.3-0.7 0.4-1.1 0.2l-37.4-17q-0.4-0.2-0.5-0.5l-17.1-37.4c-0.1-0.4-0.1-0.8 0.2-1.1l48.8-48.8c-22.2-4-44.9 3.1-60.9 19.1-14.5 14.6-21.8 34.6-19.9 55.1 0.7 7.5-1.9 14.8-7.2 20.1l-289 289c-4.9 4.9-11.8 7.5-19 7.2q-1.4-0.1-2.8-0.1zm9.9 98.3q-0.1 0-0.2 0l-37.1-10c-0.3-0.1-0.6-0.3-0.7-0.7l-9.9-37c-0.1-0.4 0-0.7 0.3-1l27.1-27.1c0.2-0.2 0.6-0.3 0.9-0.3l37.1 10c0.3 0.1 0.6 0.3 0.7 0.7l9.9 37c0.1 0.4 0 0.7-0.3 1l-27.1 27.1q-0.3 0.3-0.7 0.3zm-36.2-11.8l35.9 9.7 26.3-26.3-9.6-35.9-35.9-9.7-26.3 26.3z"/>
				</g>
				<g id="&lt;Group&gt;">
					<g id="&lt;Group&gt;">
						<g id="&lt;Group&gt;">
							<path id="&lt;Path&gt;" class="s0" d="m488.1 1384.5c1.1 3 4.3 4.6 7.3 3.6l-3.4-10c-2.8-5.6-8.8-13.7-15.5-16l-24.5-27.7-21.1 17.8 22.7 20.3 12.1 23c0.7 1.4 2.4 2 3.8 1.3 1.4-0.7 2-2.4 1.3-3.9l1.2 2.4c0.7 1.4 2.4 2 3.8 1.3 1.4-0.8 2-2.5 1.3-3.9l1.1 2.3c0.7 1.4 2.5 2 3.9 1.3 1.4-0.7 2-2.4 1.3-3.8l1.1 2.3c0.7 1.4 2.5 2 3.9 1.3 1.4-0.7 2-2.4 1.3-3.8l-5.7-11.6 3.2 1.1z"/>
							<path id="&lt;Compound Path&gt;" fill-rule="evenodd" class="s1" d="m468.2 1398.1c-1.4 0-2.8-0.8-3.4-2.2l-12-22.8-22.5-20.1c-0.2-0.2-0.4-0.5-0.4-0.8 0-0.3 0.2-0.6 0.4-0.7l21-17.9c0.4-0.3 1.1-0.3 1.4 0.1l24.4 27.5c7.4 2.7 13.4 11.6 15.8 16.5q0 0 0.1 0.1l3.4 10q0.1 0.4-0.1 0.8-0.2 0.3-0.6 0.5c-3.1 1-6.5-0.4-8.1-3.2l3 5.9c0.9 1.9 0.1 4.2-1.8 5.2-0.9 0.5-2 0.5-2.9 0.2-0.8-0.3-1.4-0.7-1.9-1.3q-0.5 0.8-1.5 1.3c-0.9 0.5-1.9 0.6-2.9 0.2-0.8-0.2-1.4-0.7-1.8-1.3q-0.6 0.9-1.6 1.3c-1.6 0.9-3.6 0.4-4.7-1.1-0.4 0.6-0.9 1.1-1.5 1.4q-0.9 0.4-1.8 0.4zm-35.7-45.9l21.8 19.5q0.1 0.1 0.2 0.3l12.1 23c0.4 1 1.5 1.3 2.5 0.9 0.4-0.2 0.7-0.6 0.9-1.1 0.2-0.5 0.1-1-0.1-1.4-0.2-0.5 0-1.1 0.5-1.4 0.5-0.2 1.1 0 1.3 0.5 0 0 1.2 2.3 1.2 2.3 0.4 0.9 1.5 1.3 2.5 0.9 0.4-0.3 0.7-0.6 0.9-1.1 0.2-0.5 0.1-1-0.1-1.4-0.2-0.5 0-1.1 0.5-1.4 0.4-0.2 1 0 1.3 0.5 0 0 1.1 2.3 1.1 2.3 0.3 0.4 0.6 0.8 1.1 0.9 0.5 0.2 1 0.1 1.4-0.1 0.5-0.2 0.8-0.6 1-1 0.1-0.5 0.1-1-0.1-1.5-0.3-0.5-0.1-1.1 0.4-1.3 0.5-0.3 1.1-0.1 1.4 0.4l1.1 2.4c0.3 0.4 0.6 0.7 1.1 0.9 0.5 0.2 1 0.1 1.4-0.1 1-0.5 1.3-1.6 0.9-2.5l-5.7-11.6c-0.2-0.3-0.2-0.8 0.1-1.1 0.3-0.3 0.7-0.4 1.1-0.3l3.2 1.1c0.3 0.1 0.5 0.4 0.6 0.6l1 2.8c0.7 2.2 2.8 3.4 5 3.2l-3-8.9c-3-6-8.9-13.4-14.9-15.5q-0.3 0-0.4-0.2l-23.9-27zm53.4 30.2l1.5 3q-0.1-0.3-0.2-0.6l-0.8-2.3z"/>
						</g>
						<g id="&lt;Group&gt;">
							<path id="&lt;Path&gt;" class="s0" d="m485.1 1392.4l-16 0.6z"/>
							<path id="&lt;Path&gt;" class="s1" d="m469.1 1394c-0.6 0-1-0.4-1-1 0-0.5 0.4-1 0.9-1l16.1-0.6c0.5 0 1 0.4 1 1 0 0.5-0.4 1-0.9 1l-16.1 0.6q0 0 0 0z"/>
						</g>
						<g id="&lt;Group&gt;">
							<path id="&lt;Path&gt;" class="s0" d="m484 1380.7l-2.1-4.1z"/>
							<path id="&lt;Path&gt;" class="s1" d="m484 1381.7c-0.4 0-0.8-0.2-0.9-0.6l-2.1-4c-0.2-0.5 0-1.1 0.5-1.4 0.5-0.2 1.1 0 1.3 0.5l2 4.1c0.3 0.5 0.1 1.1-0.4 1.3q-0.2 0.1-0.4 0.1z"/>
						</g>
					</g>
					<g id="&lt;Group&gt;">
						<path id="&lt;Path&gt;" class="s2" d="m466.1 1200c-18.1 7.6-31.8 19-40 35.7l-27.9 56.2c-7.8 15.9-4 35.1 9.5 46.7l48.5 41.8 18.4-23.8-32.5-38.2 34.5-52.8z"/>
						<path id="&lt;Path&gt;" class="s3" d="m456.2 1381.4q-0.4 0-0.7-0.2l-48.5-41.8c-13.8-11.9-17.7-31.6-9.7-47.9l27.9-56.3c8-16.2 21.2-28.1 40.5-36.2 0.5-0.2 1.1 0.1 1.3 0.6 0.2 0.5 0 1.1-0.5 1.3-18.8 7.9-31.7 19.4-39.5 35.2l-27.9 56.3c-7.6 15.5-3.9 34.2 9.2 45.5l47.7 41.1 17.3-22.3-32-37.7c-0.2-0.3-0.3-0.8 0-1.2l34.5-52.7c0.3-0.5 0.9-0.6 1.4-0.3 0.4 0.3 0.6 0.9 0.3 1.4l-34.2 52.1 32.1 37.7c0.3 0.3 0.3 0.9 0 1.2l-18.4 23.9c-0.2 0.2-0.4 0.3-0.7 0.3q-0.1 0-0.1 0z"/>
					</g>
				</g>
				<g id="&lt;Group&gt;">
					<g id="&lt;Group&gt;">
						<path id="&lt;Path&gt;" class="s0" d="m651.7 1210.4l-8.3-24.6c-0.6-1.5 0.2-3.1 1.7-3.7 1.5-0.5 3.1 0.2 3.7 1.7l-0.9-2.4c-0.6-1.5 0.2-3.1 1.7-3.7 1.5-0.5 3.1 0.3 3.7 1.7l-0.9-2.4c-0.6-1.5 0.2-3.1 1.7-3.7 1.5-0.5 3.1 0.3 3.7 1.7l-0.9-2.4c-0.6-1.5 0.2-3.1 1.7-3.7 1.5-0.5 3.1 0.3 3.7 1.8l4.4 12.1 1.4-3.1-1.3-2.6c-1.5-2.8-0.4-6.3 2.4-7.7l4.9 9.3c2.1 5.9 0.9 25.3-2 31.7z"/>
						<path id="&lt;Compound Path&gt;" fill-rule="evenodd" class="s3" d="m672.1 1211.4h-20.4c-0.4 0-0.8-0.3-0.9-0.7l-8.4-24.6c-0.7-2 0.3-4.2 2.3-4.9q1-0.4 2-0.2c-0.2-1.8 0.8-3.6 2.5-4.2 0.7-0.3 1.4-0.3 2-0.2-0.1-0.7 0-1.5 0.4-2.2 0.4-0.9 1.2-1.7 2.1-2q1-0.4 2-0.2c-0.1-0.7 0-1.5 0.4-2.2 0.4-0.9 1.2-1.6 2.2-2 0.9-0.4 2-0.3 2.9 0.1 0.9 0.5 1.7 1.2 2 2.2l2.3 6.2c-1-3 0.3-6.5 3.3-8 0.5-0.3 1.1-0.1 1.3 0.4l4.9 9.4q0 0 0 0.1c2.3 6.1 1 25.8-2 32.4-0.2 0.4-0.6 0.6-0.9 0.6zm-19.7-2h19c2.6-6.7 3.8-24.7 1.8-30.3l-4.3-8.3c-1.7 1.4-2.3 3.8-1.2 5.8l1.3 2.6c0.2 0.3 0.2 0.6 0 0.9l-1.4 3.1c-0.2 0.4-0.6 0.6-1 0.6-0.4 0-0.7-0.3-0.9-0.7l-4.4-12.1c-0.3-1-1.4-1.5-2.4-1.1-0.4 0.1-0.8 0.5-1 0.9-0.2 0.5-0.3 1-0.1 1.5l0.9 2.4c0.2 0.5-0.1 1.1-0.6 1.3-0.5 0.2-1.1-0.1-1.3-0.6-0.1-0.5-0.5-0.9-0.9-1.1-0.5-0.2-1-0.2-1.5 0-0.4 0.1-0.8 0.5-1 0.9-0.2 0.5-0.3 1-0.1 1.5l0.9 2.4c0.2 0.5-0.1 1.1-0.6 1.3-0.5 0.2-1.1-0.1-1.3-0.6-0.3-1-1.4-1.5-2.4-1.1-0.9 0.3-1.4 1.4-1.1 2.4l0.9 2.4c0.2 0.5-0.1 1.1-0.6 1.3-0.5 0.2-1.1-0.1-1.3-0.6-0.2-0.5-0.5-0.9-1-1.1-0.4-0.2-0.9-0.2-1.4 0-0.9 0.3-1.5 1.4-1.1 2.4zm13.2-32.5l1.2 3.2 0.2-0.4-1.1-2.2q-0.2-0.3-0.3-0.6z"/>
					</g>
					<g id="&lt;Group&gt;">
						<path id="&lt;Path&gt;" class="s0" d="m659 1173.8l-11.5 11.2z"/>
						<path id="&lt;Path&gt;" class="s1" d="m647.5 1186c-0.2 0-0.5-0.1-0.7-0.3-0.4-0.4-0.4-1 0-1.4l11.5-11.2c0.4-0.4 1-0.4 1.4 0 0.4 0.4 0.4 1.1 0 1.5l-11.5 11.2q-0.3 0.2-0.7 0.2z"/>
					</g>
					<g id="&lt;Group&gt;">
						<path id="&lt;Path&gt;" class="s0" d="m666.7 1182.8l1.5 4.2z"/>
						<path id="&lt;Path&gt;" class="s1" d="m668.2 1188c-0.4 0-0.8-0.2-0.9-0.6l-1.6-4.3c-0.2-0.5 0.1-1.1 0.6-1.3 0.6-0.2 1.1 0.1 1.3 0.6l1.6 4.3c0.2 0.5-0.1 1.1-0.6 1.3q-0.2 0-0.4 0z"/>
					</g>
					<g id="&lt;Group&gt;">
						<path id="&lt;Path&gt;" class="s2" d="m631.1 1278.1l18.6-70.7h23.4l-1.3 90.9c-0.2 9.5-4.1 18.3-10.6 24.7z"/>
						<path id="&lt;Path&gt;" class="s3" d="m661.2 1324c-0.2 0-0.5-0.1-0.7-0.3-0.4-0.4-0.4-1 0-1.4 6.5-6.4 10.1-14.9 10.3-24l1.2-89.9h-21.6l-18.3 70c-0.2 0.5-0.7 0.8-1.3 0.7-0.5-0.2-0.8-0.7-0.7-1.2l18.6-70.7c0.1-0.5 0.5-0.8 1-0.8h23.4c0.2 0 0.5 0.1 0.7 0.3q0.3 0.3 0.3 0.7l-1.3 91c-0.2 9.6-4 18.6-10.9 25.3q-0.3 0.3-0.7 0.3z"/>
					</g>
				</g>
			</g>
			<g id="&lt;Group&gt;">
				<g id="&lt;Group&gt;">
					<path id="&lt;Path&gt;" class="s1" d="m1240.4 352h-92.5l-62.9-62.9h-63.1v-2h63.9l62.9 62.9h90.9l33.5-33.6h80.1v2h-79.2z"/>
				</g>
				<g id="&lt;Group&gt;">
					<path id="&lt;Path&gt;" class="s1" d="m1254.3 365.8h-92.6l-62.9-62.9h-76.9v-2h77.8l62.9 62.9h90.9l33.5-33.5h80v2h-79.2z"/>
				</g>
				<g id="&lt;Group&gt;">
					<path id="&lt;Path&gt;" class="s1" d="m1268.1 379.7h-92.5l-62.9-62.9h-90.8v-2h91.6l62.9 62.9h90.9l33.5-33.6h80.1v2h-79.2z"/>
				</g>
				<path id="&lt;Path&gt;" class="s4" d="m1380.9 340.2c2.7 0 4.9 2.2 4.9 4.9 0 2.7-2.2 4.9-4.9 4.9-2.7 0-4.9-2.2-4.9-4.9 0-2.7 2.2-4.9 4.9-4.9z"/>
				<path id="&lt;Path&gt;" class="s4" d="m1367 326.4c2.8 0 4.9 2.2 4.9 4.9 0 2.7-2.1 4.9-4.9 4.9-2.7 0-4.9-2.2-4.9-4.9 0-2.7 2.2-4.9 4.9-4.9z"/>
				<path id="&lt;Path&gt;" class="s4" d="m1353.2 312.5c2.7 0 4.9 2.2 4.9 4.9 0 2.7-2.2 4.9-4.9 4.9-2.7 0-4.9-2.2-4.9-4.9 0-2.7 2.2-4.9 4.9-4.9z"/>
			</g>
			<g id="&lt;Group&gt;">
				<g id="&lt;Group&gt;">
					<path id="&lt;Path&gt;" class="s1" d="m1777.2 468.2h-90.4v-2h89.5l58-57.9 1.4 1.4z"/>
				</g>
				<g id="&lt;Group&gt;">
					<path id="&lt;Path&gt;" class="s1" d="m1763.3 454.4h-76.5v-2h75.7l57.9-58 1.5 1.4z"/>
				</g>
				<g id="&lt;Group&gt;">
					<path id="&lt;Path&gt;" class="s1" d="m1749.5 440.5h-62.7v-2h61.8l58-57.9 1.4 1.4z"/>
				</g>
				<path id="&lt;Path&gt;" class="s4" d="m1807.3 376.4c-2.7 0-4.9 2.2-4.9 4.9 0 2.7 2.2 4.9 4.9 4.9 2.7 0 4.9-2.2 4.9-4.9 0-2.7-2.2-4.9-4.9-4.9z"/>
				<path id="&lt;Path&gt;" class="s4" d="m1821.2 390.2c-2.8 0-5 2.2-5 4.9 0 2.7 2.2 4.9 5 4.9 2.7 0 4.9-2.2 4.9-4.9 0-2.7-2.2-4.9-4.9-4.9z"/>
				<path id="&lt;Path&gt;" class="s4" d="m1835 404.1c-2.7 0-4.9 2.2-4.9 4.9 0 2.7 2.2 4.9 4.9 4.9 2.7 0 4.9-2.2 4.9-4.9 0-2.7-2.2-4.9-4.9-4.9z"/>
			</g>
			<g id="&lt;Group&gt;">
				<path id="&lt;Compound Path&gt;" fill-rule="evenodd" class="s3" d="m2167.2 670.2l-81 81h-132.3l81.1-81zm1145.9 76.2h-93.6v-104.3h94.3l56.6 56.6h207.2l44.5-44.5h119.9l67.9 67.9h-388.7l-25.1 25.1h-82.3zm-125.1 0h-114.1l-83.8 83.8h-66.2v-70.7l-49.7 49.7h-223.8v-94.6l-49.8-49.8-86.4 86.4h-396.7l25.9-25.9h58.2l-29.1-29.1 26-26.1h163.5l34.2-34.1h201.4l125 125h148.1l118.9-118.9h57.8l-46.9 46.8 14.1 14.2 61-61h27.9l-46.9 46.8 14.1 14.2 61-61h56.3zm-966.4-21.2l29.3-29.2h-58.6zm78.6 0l-29.3-29.3-29.3 29.3zm49.3-29.3h-58.5l29.2 29.3zm1047.3 81.6l81 81h-305l-26.2-26.3 28.9-28.8h-57.8l-25.9-25.9zm-172 55.1l-29.3-29.2-29.3 29.2zm49.3-29.2h-58.5l29.2 29.2z"/>
				<g id="&lt;Group&gt;">
					<g id="&lt;Group&gt;">
						<path id="&lt;Path&gt;" class="s3" d="m3621.5 778.6h-224.7v-2h224.7z"/>
					</g>
					<g id="&lt;Group&gt;">
						<path id="&lt;Path&gt;" class="s3" d="m3621.5 794.3h-224.7v-2h224.7z"/>
					</g>
					<g id="&lt;Group&gt;">
						<path id="&lt;Path&gt;" class="s3" d="m3621.5 810h-224.7v-2h224.7z"/>
					</g>
					<g id="&lt;Group&gt;">
						<g id="&lt;Group&gt;">
							<path id="&lt;Compound Path&gt;" class="s3" d="m3621.5 783.2c3 0 5.5-2.5 5.5-5.6 0-3-2.5-5.5-5.5-5.5-3.1 0-5.6 2.5-5.6 5.5 0 3.1 2.5 5.6 5.6 5.6zm0 4.6c-3.1 0-5.6 2.5-5.6 5.5 0 3.1 2.5 5.6 5.6 5.6 3 0 5.5-2.5 5.5-5.6 0-3-2.5-5.5-5.5-5.5zm0 15.7c-3.1 0-5.6 2.5-5.6 5.5 0 3.1 2.5 5.6 5.6 5.6 3 0 5.5-2.5 5.5-5.6 0-3-2.5-5.5-5.5-5.5z"/>
						</g>
					</g>
					<g id="&lt;Group&gt;">
						<g id="&lt;Group&gt;">
							<path id="&lt;Compound Path&gt;" class="s3" d="m2340.8 821.3c3.1 0 5.6-2.5 5.6-5.6 0-3-2.5-5.5-5.6-5.5-3 0-5.5 2.5-5.5 5.5 0 3.1 2.5 5.6 5.5 5.6zm0 4.6c-3 0-5.5 2.5-5.5 5.6 0 3 2.5 5.5 5.5 5.5 3.1 0 5.6-2.5 5.6-5.5 0-3.1-2.5-5.6-5.6-5.6zm0 15.7c-3 0-5.5 2.5-5.5 5.6 0 3 2.5 5.5 5.5 5.5 3.1 0 5.6-2.5 5.6-5.5 0-3.1-2.5-5.6-5.6-5.6z"/>
						</g>
					</g>
					<g id="&lt;Group&gt;">
						<path id="&lt;Path&gt;" class="s3" d="m2738.4 771.7l-1.4-1.4 58.7-58.7h69.4l66.9-67v-67.5h2v68.4l-68.1 68.1h-69.4z"/>
					</g>
					<g id="&lt;Group&gt;">
						<path id="&lt;Path&gt;" class="s3" d="m2712.7 756l-1.4-1.4 58.7-58.7h69.4l66.9-67v-51.8h2v52.7l-68.1 68.1h-69.4z"/>
					</g>
					<g id="&lt;Group&gt;">
						<path id="&lt;Path&gt;" class="s3" d="m2687 740.3l-1.4-1.4 58.7-58.7h69.3l67-67v-36.1h2v37l-68.1 68.1h-69.4z"/>
					</g>
					<g id="&lt;Group&gt;">
						<path id="&lt;Path&gt;" class="s3" d="m2485.2 816.7h-144.4v-2h143.5l63.7-63.6h55.8l25.7 25.7h21v2h-21.8l-25.7-25.7h-54.2z"/>
					</g>
					<g id="&lt;Group&gt;">
						<path id="&lt;Path&gt;" class="s3" d="m2485.2 832.5h-144.4v-2h143.5l63.7-63.7h55.8l25.7 25.7h21v2h-21.8l-25.7-25.7h-54.2z"/>
					</g>
					<g id="&lt;Group&gt;">
						<path id="&lt;Path&gt;" class="s3" d="m2485.2 848.2h-144.4v-2h143.5l63.7-63.7h55.8l25.7 25.7h21v2h-21.8l-25.7-25.7h-54.2z"/>
					</g>
					<path id="&lt;Path&gt;" class="s3" d="m2881.6 582.7c-3 0-5.5-2.5-5.5-5.6 0-3.1 2.5-5.5 5.5-5.5 3.1 0 5.6 2.4 5.6 5.5 0 3.1-2.5 5.6-5.6 5.6z"/>
					<path id="&lt;Path&gt;" class="s3" d="m2907.3 582.7c-3 0-5.5-2.5-5.5-5.6 0-3.1 2.5-5.5 5.5-5.5 3.1 0 5.6 2.4 5.6 5.5 0 3.1-2.5 5.6-5.6 5.6z"/>
					<path id="&lt;Path&gt;" class="s3" d="m2933 582.7c-3 0-5.5-2.5-5.5-5.6 0-3.1 2.5-5.5 5.5-5.5 3.1 0 5.6 2.4 5.6 5.5 0 3.1-2.5 5.6-5.6 5.6z"/>
					<g id="&lt;Group&gt;">
						<path id="&lt;Path&gt;" class="s3" d="m2395.6 636.7l-87.4-87.3h-96.5l-84.5-84.6 1.4-1.4 84 84h96.4l88 87.9z"/>
					</g>
					<path id="&lt;Path&gt;" class="s3" d="m2127.9 469.7c-3.1 0-5.6-2.5-5.6-5.6 0-3.1 2.5-5.5 5.6-5.5 3 0 5.5 2.4 5.5 5.5 0 3.1-2.5 5.6-5.5 5.6z"/>
					<path id="&lt;Path&gt;" class="s3" d="m2107.9 489.7c-3.1 0-5.6-2.5-5.6-5.6 0-3.1 2.5-5.5 5.6-5.5 3 0 5.5 2.4 5.5 5.5 0 3.1-2.5 5.6-5.5 5.6z"/>
					<path id="&lt;Path&gt;" class="s3" d="m2087.9 509.7c-3.1 0-5.6-2.5-5.6-5.6 0-3.1 2.5-5.5 5.6-5.5 3 0 5.5 2.4 5.5 5.5 0 3.1-2.5 5.6-5.5 5.6z"/>
					<g id="&lt;Group&gt;">
						<path id="&lt;Path&gt;" class="s3" d="m2375.6 656.7l-87.4-87.3h-96.5l-84.5-84.6 1.4-1.4 84 84h96.4l88 87.9z"/>
					</g>
					<g id="&lt;Group&gt;">
						<path id="&lt;Path&gt;" class="s3" d="m2355.6 676.7l-87.4-87.3h-96.5l-84.5-84.6 1.4-1.4 84 84h96.4l88 87.9z"/>
					</g>
					<g id="&lt;Group&gt;">
						<path id="&lt;Path&gt;" class="s3" d="m2967.3 945h-144l-156.9-156.9 1.5-1.4 156.3 156.3h143.1z"/>
					</g>
					<g id="&lt;Group&gt;">
						<path id="&lt;Path&gt;" class="s3" d="m2987.3 925h-144l-136.9-136.9 1.5-1.4 136.3 136.3h143.1z"/>
					</g>
					<g id="&lt;Group&gt;">
						<path id="&lt;Path&gt;" class="s3" d="m3007.3 905h-144l-116.9-116.9 1.5-1.4 116.3 116.3h143.1z"/>
					</g>
					<path id="&lt;Path&gt;" class="s3" d="m3007.3 909.6c-3.1 0-5.6-2.5-5.6-5.6 0-3 2.5-5.5 5.6-5.5 3.1 0 5.6 2.5 5.6 5.5 0 3.1-2.5 5.6-5.6 5.6z"/>
					<path id="&lt;Path&gt;" class="s3" d="m2987.3 929.6c-3.1 0-5.6-2.5-5.6-5.6 0-3 2.5-5.5 5.6-5.5 3.1 0 5.6 2.5 5.6 5.5 0 3.1-2.5 5.6-5.6 5.6z"/>
					<path id="&lt;Path&gt;" class="s3" d="m2967.3 949.6c-3.1 0-5.6-2.5-5.6-5.6 0-3 2.5-5.5 5.6-5.5 3.1 0 5.6 2.5 5.6 5.5 0 3.1-2.5 5.6-5.6 5.6z"/>
				</g>
			</g>
			<g id="&lt;Group&gt;">
				<g id="&lt;Group&gt;">
					<path id="&lt;Path&gt;" class="s0" d="m2441.7 393.3l-37.6 65.1 37.6 65.2h75.3l37.6-65.2-37.6-65.1z"/>
					<path id="&lt;Compound Path&gt;" fill-rule="evenodd" class="s1" d="m2517 524.6h-75.3c-0.3 0-0.6-0.2-0.8-0.5l-37.6-65.2c-0.2-0.3-0.2-0.7 0-1l37.6-65.1c0.2-0.3 0.5-0.5 0.8-0.5h75.3c0.3 0 0.7 0.2 0.8 0.5l37.7 65.1c0.1 0.3 0.1 0.7 0 1l-37.7 65.2c-0.1 0.3-0.5 0.5-0.8 0.5zm-74.7-2h74.1l37-64.2-37-64.1h-74.1l-37 64.1z"/>
				</g>
				<path id="&lt;Path&gt;" class="s3" d="m2594.3 481.3l-37.6 65.2 37.6 65.2h75.2l37.6-65.2-37.6-65.2z"/>
				<g id="&lt;Group&gt;">
					<path id="&lt;Path&gt;" class="s0" d="m3094.3 481.3l-37.6 65.2 37.6 65.2h75.2l37.7-65.2-37.7-65.2z"/>
					<path id="&lt;Compound Path&gt;" fill-rule="evenodd" class="s1" d="m3169.5 612.7h-75.2c-0.3 0-0.7-0.2-0.8-0.5l-37.7-65.2c-0.1-0.3-0.1-0.7 0-1l37.7-65.1c0.1-0.4 0.5-0.5 0.8-0.5h75.2c0.4 0 0.7 0.1 0.9 0.5l37.6 65.1c0.2 0.3 0.2 0.7 0 1l-37.6 65.2c-0.2 0.3-0.5 0.5-0.9 0.5zm-74.6-2h74.1l37-64.2-37-64.1h-74.1l-37 64.1z"/>
				</g>
				<path id="&lt;Path&gt;" class="s3" d="m3094.3 305.2l-37.6 65.1 37.6 65.2h75.2l37.7-65.2-37.7-65.1z"/>
				<g id="&lt;Group&gt;">
					<path id="&lt;Path&gt;" class="s2" d="m3322.1 393.3h-75.2l-37.6 65.1 37.6 65.2h75.2l37.6-65.2z"/>
					<path id="&lt;Compound Path&gt;" fill-rule="evenodd" class="s1" d="m3322.1 524.6h-75.2c-0.4 0-0.7-0.2-0.9-0.5l-37.6-65.2c-0.2-0.3-0.2-0.7 0-1l37.6-65.1c0.2-0.3 0.5-0.5 0.9-0.5h75.2c0.4 0 0.7 0.2 0.9 0.5l37.6 65.1c0.2 0.3 0.2 0.7 0 1l-37.6 65.2c-0.2 0.3-0.5 0.5-0.9 0.5zm-74.6-2h74l37.1-64.2-37.1-64.1h-74l-37.1 64.1z"/>
				</g>
				<g id="&lt;Group&gt;">
					<g id="&lt;Group&gt;">
						<path id="&lt;Path&gt;" class="s3" d="m2522.9 464.9h-54.2v-2h54.2z"/>
					</g>
					<g id="&lt;Group&gt;">
						<path id="&lt;Path&gt;" class="s3" d="m2522.9 447.7h-54.2v-2h54.2z"/>
					</g>
					<g id="&lt;Group&gt;">
						<path id="&lt;Path&gt;" class="s3" d="m2500 481.1h-31.3v-2h31.3z"/>
					</g>
					<g id="&lt;Group&gt;">
						<path id="&lt;Compound Path&gt;" fill-rule="evenodd" class="s3" d="m2445.8 457.7c-6.1 0-11-5-11-11 0-6 4.9-10.9 11-10.9 6 0 10.9 4.9 10.9 10.9 0 6-4.9 11-10.9 11zm0-19.9c-5 0-9 4-9 8.9 0 4.9 4 9 9 9 4.9 0 8.9-4.1 8.9-9 0-4.9-4-8.9-8.9-8.9z"/>
					</g>
				</g>
				<g id="&lt;Group&gt;">
					<g id="&lt;Group&gt;">
						<path id="&lt;Path&gt;" class="s0" d="m2675.4 553h-54.1v-2h54.1z"/>
					</g>
					<g id="&lt;Group&gt;">
						<path id="&lt;Path&gt;" class="s0" d="m2675.4 535.8h-54.1v-2h54.1z"/>
					</g>
					<g id="&lt;Group&gt;">
						<path id="&lt;Path&gt;" class="s0" d="m2652.5 569.1h-31.2v-2h31.2z"/>
					</g>
					<g id="&lt;Group&gt;">
						<path id="&lt;Compound Path&gt;" fill-rule="evenodd" class="s0" d="m2598.3 545.7c-6 0-10.9-4.9-10.9-10.9 0-6 4.9-10.9 10.9-10.9 6.1 0 11 4.9 11 10.9 0 6-4.9 10.9-11 10.9zm0-19.8c-4.9 0-8.9 4-8.9 8.9 0 4.9 4 8.9 8.9 8.9 5 0 9-4 9-8.9 0-4.9-4-8.9-9-8.9z"/>
					</g>
				</g>
				<g id="&lt;Group&gt;">
					<g id="&lt;Group&gt;">
						<path id="&lt;Path&gt;" class="s0" d="m3175.5 376.8h-54.2v-2h54.2z"/>
					</g>
					<g id="&lt;Group&gt;">
						<path id="&lt;Path&gt;" class="s0" d="m3175.5 359.6h-54.2v-2h54.2z"/>
					</g>
					<g id="&lt;Group&gt;">
						<path id="&lt;Path&gt;" class="s0" d="m3152.5 393h-31.2v-2h31.2z"/>
					</g>
					<g id="&lt;Group&gt;">
						<path id="&lt;Compound Path&gt;" fill-rule="evenodd" class="s0" d="m3098.3 369.6c-6 0-10.9-4.9-10.9-11 0-6 4.9-10.9 10.9-10.9 6.1 0 11 4.9 11 10.9 0 6.1-4.9 11-11 11zm0-19.9c-4.9 0-8.9 4-8.9 8.9 0 5 4 9 8.9 9 5 0 9-4 9-9 0-4.9-4-8.9-9-8.9z"/>
					</g>
				</g>
				<g id="&lt;Group&gt;">
					<g id="&lt;Group&gt;">
						<path id="&lt;Path&gt;" class="s0" d="m3328 464.9h-54.2v-2h54.2z"/>
					</g>
					<g id="&lt;Group&gt;">
						<path id="&lt;Path&gt;" class="s0" d="m3328 447.7h-54.2v-2h54.2z"/>
					</g>
					<g id="&lt;Group&gt;">
						<path id="&lt;Path&gt;" class="s0" d="m3305.1 481.1h-31.3v-2h31.3z"/>
					</g>
					<g id="&lt;Group&gt;">
						<path id="&lt;Compound Path&gt;" fill-rule="evenodd" class="s0" d="m3250.9 457.7c-6 0-10.9-5-10.9-11 0-6 4.9-10.9 10.9-10.9 6 0 10.9 4.9 10.9 10.9 0 6-4.9 11-10.9 11zm0-19.9c-4.9 0-8.9 4-8.9 8.9 0 4.9 4 9 8.9 9 4.9 0 8.9-4.1 8.9-9 0-4.9-4-8.9-8.9-8.9z"/>
					</g>
				</g>
				<g id="&lt;Group&gt;">
					<g id="&lt;Group&gt;">
						<path id="&lt;Path&gt;" class="s3" d="m3175.5 553h-54.2v-2h54.2z"/>
					</g>
					<g id="&lt;Group&gt;">
						<path id="&lt;Path&gt;" class="s3" d="m3175.5 535.8h-54.2v-2h54.2z"/>
					</g>
					<g id="&lt;Group&gt;">
						<path id="&lt;Path&gt;" class="s3" d="m3152.5 569.1h-31.2v-2h31.2z"/>
					</g>
					<g id="&lt;Group&gt;">
						<path id="&lt;Compound Path&gt;" fill-rule="evenodd" class="s3" d="m3098.3 545.7c-6 0-10.9-4.9-10.9-10.9 0-6 4.9-10.9 10.9-10.9 6.1 0 11 4.9 11 10.9 0 6-4.9 10.9-11 10.9zm0-19.8c-4.9 0-8.9 4-8.9 8.9 0 4.9 4 8.9 8.9 8.9 5 0 9-4 9-8.9 0-4.9-4-8.9-9-8.9z"/>
					</g>
				</g>
			</g>
			<g id="&lt;Group&gt;">
				<g id="&lt;Group&gt;">
					<path id="&lt;Path&gt;" class="s0" d="m887.6 1064l-37.6 65.2 37.6 65.1h75.2l37.6-65.1-37.6-65.2z"/>
					<path id="&lt;Compound Path&gt;" fill-rule="evenodd" class="s1" d="m962.8 1195.3h-75.2c-0.4 0-0.7-0.2-0.9-0.5l-37.6-65.1c-0.2-0.3-0.2-0.7 0-1l37.6-65.2c0.2-0.3 0.5-0.5 0.9-0.5h75.2c0.4 0 0.7 0.2 0.9 0.5l37.6 65.2c0.2 0.3 0.2 0.7 0 1l-37.6 65.1c-0.2 0.3-0.5 0.5-0.9 0.5zm-74.7-2h74.1l37.1-64.1-37.1-64.2h-74.1l-37 64.2z"/>
				</g>
				<path id="&lt;Path&gt;" class="s3" d="m887.6 887.9l-37.6 65.1 37.6 65.2h75.2l37.6-65.2-37.6-65.1z"/>
				<g id="&lt;Group&gt;">
					<path id="&lt;Path&gt;" class="s2" d="m1115.4 975.9h-75.3l-37.6 65.2 37.6 65.1h75.3l37.6-65.1z"/>
					<path id="&lt;Compound Path&gt;" fill-rule="evenodd" class="s1" d="m1115.4 1107.2h-75.3c-0.3 0-0.7-0.1-0.8-0.5l-37.7-65.1c-0.1-0.3-0.1-0.7 0-1l37.7-65.2c0.1-0.3 0.5-0.5 0.8-0.5h75.3c0.3 0 0.6 0.2 0.8 0.5l37.6 65.2c0.2 0.3 0.2 0.7 0 1l-37.6 65.1c-0.2 0.4-0.5 0.5-0.8 0.5zm-74.7-2h74.1l37-64.1-37-64.2h-74.1l-37 64.2z"/>
				</g>
				<g id="&lt;Group&gt;">
					<g id="&lt;Group&gt;">
						<path id="&lt;Path&gt;" class="s0" d="m968.7 959.5h-54.2v-2h54.2z"/>
					</g>
					<g id="&lt;Group&gt;">
						<path id="&lt;Path&gt;" class="s0" d="m968.7 942.3h-54.2v-2h54.2z"/>
					</g>
					<g id="&lt;Group&gt;">
						<path id="&lt;Path&gt;" class="s0" d="m945.8 975.7h-31.3v-2h31.3z"/>
					</g>
					<g id="&lt;Group&gt;">
						<path id="&lt;Compound Path&gt;" fill-rule="evenodd" class="s0" d="m891.6 952.2c-6 0-10.9-4.9-10.9-10.9 0-6 4.9-10.9 10.9-10.9 6 0 10.9 4.9 10.9 10.9 0 6-4.9 10.9-10.9 10.9zm0-19.8c-4.9 0-8.9 4-8.9 8.9 0 4.9 4 8.9 8.9 8.9 4.9 0 8.9-4 8.9-8.9 0-4.9-4-8.9-8.9-8.9z"/>
					</g>
				</g>
				<g id="&lt;Group&gt;">
					<g id="&lt;Group&gt;">
						<path id="&lt;Path&gt;" class="s0" d="m1121.3 1047.6h-54.2v-2h54.2z"/>
					</g>
					<g id="&lt;Group&gt;">
						<path id="&lt;Path&gt;" class="s0" d="m1121.3 1030.4h-54.2v-2h54.2z"/>
					</g>
					<g id="&lt;Group&gt;">
						<path id="&lt;Path&gt;" class="s0" d="m1098.3 1063.7h-31.2v-2h31.2z"/>
					</g>
					<g id="&lt;Group&gt;">
						<path id="&lt;Compound Path&gt;" fill-rule="evenodd" class="s0" d="m1044.2 1040.3c-6.1 0-11-4.9-11-10.9 0-6 4.9-10.9 11-10.9 6 0 10.9 4.9 10.9 10.9 0 6-4.9 10.9-10.9 10.9zm0-19.8c-5 0-9 4-9 8.9 0 4.9 4 8.9 9 8.9 4.9 0 8.9-4 8.9-8.9 0-4.9-4-8.9-8.9-8.9z"/>
					</g>
				</g>
				<g id="&lt;Group&gt;">
					<g id="&lt;Group&gt;">
						<path id="&lt;Path&gt;" class="s3" d="m968.7 1135.7h-54.2v-2h54.2z"/>
					</g>
					<g id="&lt;Group&gt;">
						<path id="&lt;Path&gt;" class="s3" d="m968.7 1118.5h-54.2v-2h54.2z"/>
					</g>
					<g id="&lt;Group&gt;">
						<path id="&lt;Path&gt;" class="s3" d="m945.8 1151.8h-31.3v-2h31.3z"/>
					</g>
					<g id="&lt;Group&gt;">
						<path id="&lt;Compound Path&gt;" fill-rule="evenodd" class="s3" d="m891.6 1128.4c-6 0-10.9-4.9-10.9-10.9 0-6.1 4.9-11 10.9-11 6 0 10.9 4.9 10.9 11 0 6-4.9 10.9-10.9 10.9zm0-19.9c-4.9 0-8.9 4-8.9 9 0 4.9 4 8.9 8.9 8.9 4.9 0 8.9-4 8.9-8.9 0-5-4-9-8.9-9z"/>
					</g>
				</g>
			</g>
			<g id="&lt;Group&gt;">
				<g id="&lt;Group&gt;">
					<g id="&lt;Group&gt;">
						<path id="&lt;Path&gt;" class="s0" d="m3523 1068l-1.6-15.9c-0.5-5.9-3.9-11-9-13.9l-13.3-7.3 3.5 38.8z"/>
						<path id="&lt;Compound Path&gt;" fill-rule="evenodd" class="s3" d="m3502.6 1070.7c-0.5 0-0.9-0.4-1-1l-3.5-38.7c0-0.4 0.1-0.8 0.5-1 0.3-0.2 0.7-0.2 1 0l13.2 7.4c5.4 3 9 8.4 9.6 14.6l1.6 15.9q0.1 0.4-0.2 0.7-0.3 0.3-0.7 0.4l-20.4 1.6q0 0.1-0.1 0.1zm-2.3-38l3.2 35.9 18.4-1.5-1.5-14.9c-0.5-5.5-3.7-10.4-8.5-13.1z"/>
					</g>
					<g id="&lt;Group&gt;">
						<path id="&lt;Path&gt;" class="s2" d="m3496.6 1225l18.9-63.1-12.9-92.2 20.6-3.3 27 73.3c5.3 16.3 5.5 33.9 0.6 50.4l-20.4 78.3z"/>
						<path id="&lt;Compound Path&gt;" fill-rule="evenodd" class="s3" d="m3530.4 1269.4c-0.3 0-0.6-0.2-0.8-0.4l-33.8-43.4c-0.2-0.3-0.3-0.6-0.2-0.9l18.9-62.9-12.9-92c-0.1-0.5 0.3-1 0.9-1.1l20.5-3.3c0.5-0.1 1 0.2 1.1 0.7l27.1 73.2c5.4 16.7 5.6 34.3 0.6 51l-20.5 78.3c-0.1 0.4-0.3 0.7-0.7 0.8q-0.1 0-0.2 0zm-32.7-44.6l32.2 41.4 19.9-76.4c4.9-16.4 4.8-33.6-0.5-49.8l-26.8-72.5-18.8 3 12.8 91.3q0.1 0.2 0 0.4z"/>
					</g>
				</g>
				<g id="&lt;Group&gt;">
					<g id="&lt;Group&gt;">
						<path id="&lt;Path&gt;" class="s0" d="m3448.1 1164.5c2.2-2.2 5.4-7 5.9-9.5q0.8-4.1 2.3-8.6c4.2-13 18.3-20.5 31.3-16.4 13.3 4.2 20.6 18.4 16.2 31.6l-6.7 15.5c-2.7 12.2 4 38.6 4 38.6h-36.4c0 0 0.8-22.2-4.2-26.7-13.1-2.9-11.1-10.6-7.6-20.1-2.8-0.6-4.3-1.9-4.8-4.4z"/>
						<path id="&lt;Compound Path&gt;" fill-rule="evenodd" class="s3" d="m3501.1 1216.7h-36.4c-0.3 0-0.6-0.1-0.7-0.3-0.2-0.2-0.3-0.4-0.3-0.7 0.2-6 0-22-3.6-25.7-5-1.2-8.2-3.1-9.7-5.9-2.2-4-0.8-8.9 1.2-14.5-2.5-0.9-3.9-2.4-4.5-4.8-0.1-0.4 0-0.7 0.3-1 2.1-2.1 5.2-6.8 5.6-9 0.6-2.8 1.4-5.8 2.3-8.7 4.4-13.4 19.3-21.3 32.6-17.1 6.7 2.1 12.1 6.7 15.3 12.9 3.2 6.2 3.8 13.3 1.6 20l-6.7 15.5c-2.6 11.9 3.9 37.8 4 38.1 0.1 0.3 0 0.6-0.2 0.9-0.2 0.2-0.5 0.3-0.8 0.3zm-35.4-2h34.2c-1.3-5.4-6.1-26.9-3.8-37.8q0.1-0.1 0.1-0.2l6.7-15.5c2-6.1 1.5-12.6-1.5-18.4-2.9-5.7-7.9-9.9-14.1-11.9-12.3-3.8-26.1 3.4-30.1 15.8-0.9 2.9-1.6 5.7-2.2 8.5-0.5 2.6-3.4 7.1-5.8 9.6 0.5 1.7 1.7 2.6 3.9 3.1 0.3 0.1 0.5 0.3 0.7 0.5 0.1 0.3 0.1 0.6 0 0.8-2 5.6-3.5 10.5-1.7 13.9 1.3 2.3 4.1 4 8.7 5q0.2 0 0.4 0.2c4.7 4.2 4.6 21.6 4.5 26.4z"/>
					</g>
					<path id="&lt;Path&gt;" class="s3" d="m3458 1161.1c-0.9-0.2-1.4-1-1.2-1.9l0.6-2.8c0.2-0.9 1.1-1.4 1.9-1.2 0.9 0.2 1.4 1 1.2 1.9l-0.6 2.8c-0.2 0.9-1 1.4-1.9 1.2z"/>
					<g id="&lt;Group&gt;">
						<path id="&lt;Path&gt;" class="s0" d="m3463.3 1153.6l-4.7-3.1z"/>
						<path id="&lt;Path&gt;" class="s1" d="m3463.3 1154.6q-0.3 0-0.6-0.2l-4.6-3.1c-0.5-0.3-0.6-0.9-0.3-1.4 0.3-0.5 0.9-0.6 1.4-0.3l4.6 3.1c0.5 0.3 0.6 1 0.3 1.4-0.2 0.3-0.5 0.5-0.8 0.5z"/>
					</g>
					<g id="&lt;Group&gt;">
						<path id="&lt;Path&gt;" class="s0" d="m3454 1176.6c1.7 0.3 3.5 0.4 5.2 0.2z"/>
						<path id="&lt;Path&gt;" class="s1" d="m3457.6 1177.9q-1.8 0-3.8-0.3c-0.5-0.1-0.9-0.7-0.8-1.2 0.1-0.5 0.6-0.9 1.2-0.8q2.5 0.5 4.9 0.3c0.5-0.1 1 0.3 1.1 0.9 0 0.5-0.4 1-1 1q-0.8 0.1-1.6 0.1z"/>
					</g>
					<g id="&lt;Group&gt;">
						<path id="&lt;Path&gt;" class="s3" d="m3470.9 1151c0.6-4.1-1.5-8-5.1-9.8-14.8-7.4-28.8-18.4-16.9-35.1 3.4 17.3 55 2.8 65.5 33.6 6.4 18.6-1.9 34.3-15 51.5-3.9 5.2-10.5 7.6-16.8 6.1-6.2-1.3-11.1-6.1-12.6-12.3-1.9-8.3-1.4-19.5 0.9-34z"/>
						<path id="&lt;Compound Path&gt;" fill-rule="evenodd" class="s3" d="m3486.2 1198.8q-1.9 0-3.9-0.5c-6.5-1.5-11.7-6.6-13.3-13.1-1.8-8-1.6-19 0.9-34.4 0.5-3.6-1.3-7.1-4.6-8.7-12.6-6.3-19.6-12.9-21.4-20.2-1.3-5.2 0.1-10.7 4.2-16.4 0.2-0.3 0.6-0.5 1-0.4 0.4 0.1 0.7 0.4 0.8 0.8 1.3 6.7 11.5 8.3 23.3 10 16 2.4 36 5.4 42.2 23.5 6.3 18.6-1.5 34.4-15.2 52.4-3.3 4.4-8.5 7-14 7zm-14.3-47.7c-2.4 15.2-2.7 25.9-0.9 33.7 1.3 5.7 6 10.3 11.8 11.6 5.9 1.3 12.2-1 15.9-5.8 13.2-17.5 20.8-32.8 14.8-50.6-5.8-16.9-24.3-19.7-40.6-22.1-11.4-1.7-21.4-3.2-24.3-9.6-2.8 4.6-3.8 9-2.7 13.1 1.6 6.7 8.3 12.9 20.3 18.9 4.1 2 6.4 6.4 5.7 10.8z"/>
					</g>
				</g>
				<g id="&lt;Group&gt;">
					<path id="&lt;Path&gt;" class="s2" d="m3436.3 1197.8c4.7 36.7 11.7 85.8 19.9 120.3h87.4c-12.8-31.6-7.1-73.2-24.1-123.6-19.5 21.2-51.6 18.6-83.2 3.3z"/>
					<path id="&lt;Compound Path&gt;" fill-rule="evenodd" class="s3" d="m3543.6 1319.1h-87.4c-0.5 0-0.9-0.3-1-0.8-6.4-27.3-12.9-66.7-19.9-120.4 0-0.4 0.1-0.7 0.4-1 0.3-0.2 0.7-0.2 1 0 34.9 16.9 64.8 15.8 82.1-3.1 0.2-0.2 0.6-0.4 0.9-0.3 0.3 0.1 0.6 0.3 0.7 0.7 9 26.5 11.7 50.7 14 72.1 2.2 19.6 4.1 36.5 10.2 51.4 0.1 0.3 0.1 0.7-0.1 1-0.2 0.2-0.5 0.4-0.9 0.4zm-86.6-2h85.2c-5.8-14.8-7.6-31.4-9.7-50.6-2.3-20.8-5-44.4-13.4-70.1-17.8 18.1-47.3 19.2-81.6 3 6.8 52.3 13.2 90.8 19.5 117.7z"/>
				</g>
				<g id="&lt;Group&gt;">
					<path id="&lt;Path&gt;" class="s2" d="m3625.4 1509.8c-27-77.2-50.5-139-81.8-191.7h-84.9c15.6 63.3 76.1 192.7 115.8 237.7 46.2 36.4 185.8 145.6 185.8 145.6l15.4-13.2c-59.4-78-101-139.1-150.3-178.4z"/>
					<path id="&lt;Compound Path&gt;" fill-rule="evenodd" class="s3" d="m3760.3 1702.4q-0.4 0-0.7-0.2c-1.3-1.1-140.1-109.6-185.7-145.7q-0.1 0-0.2-0.1c-40.2-45.5-100.4-174.8-116-238.1-0.1-0.3 0-0.6 0.2-0.8 0.2-0.3 0.5-0.4 0.8-0.4h84.9c0.4 0 0.7 0.2 0.9 0.5 30 50.5 52.7 108.5 81.7 191.6 40.7 32.5 75.9 79.4 120.5 138.9 9.5 12.7 19.4 25.8 29.8 39.5 0.3 0.4 0.2 1-0.2 1.3l-15.4 13.3q-0.3 0.2-0.6 0.2zm-185.1-147.4c44.1 34.8 174.6 137 185 145.2l14.1-12.2c-10.2-13.4-19.9-26.3-29.2-38.7-44.6-59.5-79.8-106.4-120.4-138.7q-0.2-0.2-0.3-0.5c-28.9-82.8-51.5-140.7-81.3-191h-83.1c16 63.5 75.4 190.8 115.2 235.9z"/>
				</g>
				<g id="&lt;Group&gt;">
					<path id="&lt;Path&gt;" class="s2" d="m3543.6 1318.1h-84.7l-14 233.9 44.4 232.5h21.5c14-97.7 13.3-166.4 2.6-228.5 0 0 50.4-161.8 30.2-237.9z"/>
					<path id="&lt;Compound Path&gt;" fill-rule="evenodd" class="s3" d="m3510.8 1785.5h-21.5c-0.5 0-0.9-0.4-1-0.8l-44.4-232.5q0-0.1 0-0.2l14-234c0-0.5 0.4-0.9 1-0.9h84.7c0.5 0 0.9 0.3 1 0.7 19.7 74.2-28.1 231.2-30.2 238.2 11.4 65.9 10.6 136.4-2.6 228.6-0.1 0.5-0.5 0.9-1 0.9zm-20.7-2h19.9c13-91.7 13.7-161.9 2.4-227.4q-0.1-0.2 0-0.4c0.5-1.6 49.8-161.4 30.5-236.6h-83.1l-13.9 232.8z"/>
				</g>
				<g id="&lt;Group&gt;">
					<path id="&lt;Path&gt;" class="s3" d="m3592.3 1275.2c-43.8-15.4-27.3-81-59.3-109.2-2.8-2.4-6-4.2-9.5-5.3-21-7.2-42.5 9-42.8 31.2-0.2 20.3 6.4 39.5 21.1 54.9 23.5 24.6 63.4 38.5 90.5 28.4z"/>
					<path id="&lt;Compound Path&gt;" fill-rule="evenodd" class="s3" d="m3572.5 1279.5c-24.1 0-52.4-12-71.4-32-14.2-14.8-21.6-34.1-21.4-55.6 0.2-11.1 5.6-21.4 14.6-27.8 8.7-6.2 19.5-7.8 29.6-4.4 3.7 1.3 7 3.2 9.7 5.6 14.4 12.7 19.2 32.8 23.8 52.3 5.9 24.8 11.4 48.3 35.2 56.7 0.4 0.1 0.7 0.5 0.7 0.9 0 0.4-0.3 0.8-0.7 1-6.1 2.2-12.9 3.3-20.1 3.3zm-59.2-119.5c-6.3 0-12.5 1.9-17.9 5.7-8.4 6-13.6 15.8-13.7 26.2-0.2 21 7 39.8 20.8 54.2 23.5 24.6 61 37 86.9 29.1-22.7-9.6-28.4-33.7-33.9-57.1-4.6-19.2-9.3-39.1-23.2-51.3-2.5-2.3-5.6-4-9.1-5.2-3.2-1.1-6.6-1.6-9.9-1.6z"/>
				</g>
				<g id="&lt;Group&gt;">
					<path id="&lt;Path&gt;" class="s3" d="m3513.2 1782.9h-24.9c-11.6 12.3-13.7 27.4-29.2 32.9-2.7 1-3.9 4-3.2 7.6l1.1 5.5h30.3q0 0 0.1 0c5 0 8.8-2.2 10.7-5.8 2.7-5.2 6.1-9.2 11-10.5l6.2 16.3h6.5c0 0-3.4-25.3-4.1-28.8-0.8-4.8-4.5-17.2-4.5-17.2z"/>
					<path id="&lt;Compound Path&gt;" fill-rule="evenodd" class="s3" d="m3457 1829.9c-0.5 0-0.9-0.3-1-0.8l-1.1-5.6c-0.8-4.1 0.7-7.5 3.8-8.6 9.6-3.4 13.8-10.4 18.7-18.5 2.9-4.7 5.9-9.6 10.2-14.1 0.2-0.2 0.4-0.4 0.7-0.4h24.9c0.5 0 0.9 0.3 1 0.8 0.1 0.5 3.6 12.5 4.5 17.2 0.7 3.5 4 27.8 4.1 28.9 0 0.2 0 0.5-0.2 0.8-0.2 0.2-0.5 0.3-0.8 0.3h-6.5c-0.4 0-0.8-0.3-0.9-0.7l-5.9-15.4c-3.7 1.3-6.7 4.4-9.5 9.7-2.1 4.1-6.4 6.4-11.6 6.4zm31.7-46c-4 4.4-6.8 9.1-9.6 13.6-4.9 8-9.5 15.6-19.7 19.3-2.1 0.7-3.1 3.2-2.6 6.4l1 4.7h29.5c4.6 0 8.1-1.9 9.9-5.3 3.3-6.3 7-9.8 11.7-11 0.5-0.1 1 0.1 1.1 0.6l6 15.7h4.7c-0.7-5-3.4-24.6-4-27.6-0.7-4-3.5-13.7-4.2-16.4z"/>
				</g>
				<g id="&lt;Group&gt;">
					<path id="&lt;Path&gt;" class="s3" d="m3777.1 1685l-17.8 15.4c-1.2 18.2 6 33-1.9 47.6-1.4 2.5-0.5 5.9 2 8.7l4 4.3 21.7-18.6q0 0 0.1-0.1c3.6-3.1 5-7.4 4.3-11.8-1.1-6.4-1-12.1 1.8-16.3l13.8 10.9 4.7-4c0 0-17.1-20.6-19.6-23.4-3.3-3.7-13.1-12.7-13.1-12.7z"/>
					<path id="&lt;Compound Path&gt;" fill-rule="evenodd" class="s3" d="m3763.4 1762c-0.2 0-0.5-0.1-0.7-0.3l-4-4.3c-2.9-3.2-3.7-7.1-2.2-9.9 4.9-8.9 3.9-17.9 2.7-28.2-0.7-6-1.4-12.2-0.9-19q0-0.4 0.3-0.7l17.9-15.3c0.3-0.4 0.9-0.4 1.3 0 0.4 0.4 9.8 9 13.2 12.7 2.5 2.8 18.9 22.7 19.6 23.5 0.3 0.4 0.3 1-0.1 1.4l-4.7 4c-0.4 0.3-0.9 0.3-1.3 0l-12.9-10.2c-1.9 3.5-2.2 8.2-1.1 14.6 0.8 4.9-0.9 9.5-4.7 12.8 0 0-0.1 0.1-0.1 0.1l-21.6 18.6q-0.3 0.2-0.7 0.2zm-3.2-61.1c-0.3 6.4 0.4 12.4 1 18.2 1.1 10.2 2.2 19.9-3 29.4-1.1 2-0.3 5 2 7.6l3.3 3.6 20.9-18c3.4-3 4.8-6.8 4.1-11-1.3-7.6-0.7-13 2-17 0.1-0.2 0.4-0.4 0.6-0.4 0.3-0.1 0.6 0 0.8 0.2l13.2 10.3 3.3-2.8c-3.1-3.7-16.7-20.2-18.9-22.6-2.8-3.1-10.2-10-12.4-12z"/>
				</g>
				<g id="&lt;Group&gt;">
					<path id="&lt;Path&gt;" class="s3" d="m3543.6 1318.1c0 0-50.6 0-50.6 0h-36.8c-11.1 64.7-21.6 131.8-14.3 201.5 88.1 3.8 149.8-3.1 186.7-20.1-20-80.7-41.7-132.3-85-181.4z"/>
					<path id="&lt;Compound Path&gt;" fill-rule="evenodd" class="s3" d="m3486.2 1521.6q-21 0-44.3-1c-0.5 0-0.9-0.4-1-0.9-7.1-67.7 2.3-131.5 14.3-201.8 0.1-0.5 0.5-0.8 1-0.8h86.9c0.5 0 1.2 0 1.4 0.5 40.7 46.2 63.7 95.5 85.1 181.7 0.1 0.4-0.1 0.9-0.5 1.1-30.7 14.1-78.6 21.2-142.9 21.2zm-43.4-3c85.6 3.7 147.7-3 184.7-19.7-21.2-85.2-44.1-134-84.3-179.8-5 0-50.2 0-50.2 0h-36c-11.8 69.5-21.1 132.6-14.2 199.5z"/>
				</g>
				<g id="&lt;Group&gt;">
					<g id="&lt;Group&gt;">
						<path id="&lt;Path&gt;" class="s0" d="m3467.1 935.5h-133.5v133.4h133.5l44.4 22.2v-133.4z"/>
						<path id="&lt;Compound Path&gt;" fill-rule="evenodd" class="s1" d="m3511.5 1092.1q-0.2 0-0.4-0.1l-44.3-22.1h-133.2c-0.6 0-1-0.5-1-1v-133.4c0-0.6 0.4-1 1-1h133.5q0.2 0 0.4 0.1l44.5 22.2c0.3 0.2 0.5 0.5 0.5 0.9v133.4c0 0.3-0.1 0.7-0.4 0.8q-0.3 0.2-0.6 0.2zm-176.9-24.2h132.5q0.2 0 0.4 0.1l43 21.5v-131.2l-43.7-21.8h-132.2z"/>
					</g>
					<g id="&lt;Group&gt;">
						<path id="&lt;Path&gt;" class="s2" d="m3378 1091.1l-44.4-22.2v-133.4l44.4 22.2z"/>
						<path id="&lt;Compound Path&gt;" fill-rule="evenodd" class="s1" d="m3378 1092.1q-0.2 0-0.4-0.1l-44.5-22.2c-0.3-0.2-0.5-0.6-0.5-0.9v-133.4c0-0.4 0.2-0.7 0.4-0.9 0.3-0.1 0.7-0.2 1 0l44.5 22.2c0.3 0.2 0.5 0.5 0.5 0.9v133.4c0 0.3-0.1 0.7-0.4 0.8q-0.3 0.2-0.6 0.2zm-43.4-23.9l42.4 21.3v-131.2l-42.4-21.2z"/>
					</g>
					<g id="&lt;Group&gt;">
						<path id="&lt;Path&gt;" class="s3" d="m3511.5 957.7h-133.5v133.4h133.5z"/>
						<path id="&lt;Compound Path&gt;" fill-rule="evenodd" class="s3" d="m3511.5 1092.1h-133.5c-0.5 0-1-0.5-1-1v-133.4c0-0.5 0.5-1 1-1h133.5c0.6 0 1 0.5 1 1v133.4c0 0.5-0.4 1-1 1zm-132.5-2h131.5v-131.4h-131.5z"/>
					</g>
					<g id="&lt;Group&gt;">
						<g id="&lt;Group&gt;">
							<path id="&lt;Path&gt;" class="s0" d="m3497.4 983.5h-49.7v-6h49.7z"/>
						</g>
						<g id="&lt;Group&gt;">
							<path id="&lt;Path&gt;" class="s1" d="m3440.4 983.5h-27.8v-6h27.8z"/>
						</g>
						<g id="&lt;Group&gt;">
							<path id="&lt;Path&gt;" class="s1" d="m3405.3 983.5h-13.2v-6h13.2z"/>
						</g>
						<g id="&lt;Group&gt;">
							<path id="&lt;Path&gt;" class="s2" d="m3490.1 998.2h-27.8v-6h27.8z"/>
						</g>
						<g id="&lt;Group&gt;">
							<path id="&lt;Path&gt;" class="s1" d="m3455 998.2h-36.5v-6h36.5z"/>
						</g>
						<g id="&lt;Group&gt;">
							<path id="&lt;Path&gt;" class="s1" d="m3411.1 998.2h-19v-6h19z"/>
						</g>
						<g id="&lt;Group&gt;">
							<path id="&lt;Path&gt;" class="s0" d="m3496 1012.8h-57.1v-6h57.1z"/>
						</g>
						<g id="&lt;Group&gt;">
							<path id="&lt;Path&gt;" class="s2" d="m3431.6 1012.8h-13.1v-6h13.1z"/>
						</g>
						<g id="&lt;Group&gt;">
							<path id="&lt;Path&gt;" class="s1" d="m3411.1 1012.8h-9.4v-6h9.4z"/>
						</g>
						<g id="&lt;Group&gt;">
							<path id="&lt;Path&gt;" class="s0" d="m3488.7 1027.4h-20.5v-6h20.5z"/>
						</g>
						<g id="&lt;Group&gt;">
							<path id="&lt;Path&gt;" class="s2" d="m3460.9 1027.4h-42.4v-6h42.4z"/>
						</g>
						<g id="&lt;Group&gt;">
							<path id="&lt;Path&gt;" class="s2" d="m3488.7 1042h-41v-6h41z"/>
						</g>
						<g id="&lt;Group&gt;">
							<path id="&lt;Path&gt;" class="s1" d="m3440.4 1042h-13.2v-6h13.2z"/>
						</g>
						<g id="&lt;Group&gt;">
							<path id="&lt;Path&gt;" class="s1" d="m3419.9 1042h-27.8v-6h27.8z"/>
						</g>
						<g id="&lt;Group&gt;">
							<path id="&lt;Path&gt;" class="s0" d="m3496 1056.7h-13.2v-6h13.2z"/>
						</g>
						<g id="&lt;Group&gt;">
							<path id="&lt;Path&gt;" class="s2" d="m3475.5 1056.7h-57v-6h57z"/>
						</g>
						<g id="&lt;Group&gt;">
							<path id="&lt;Path&gt;" class="s1" d="m3411.1 1056.7h-13.1v-6h13.1z"/>
						</g>
						<g id="&lt;Group&gt;">
							<path id="&lt;Path&gt;" class="s0" d="m3496 1071.3h-20.5v-6h20.5z"/>
						</g>
						<g id="&lt;Group&gt;">
							<path id="&lt;Path&gt;" class="s2" d="m3468.2 1071.3h-49.7v-6h49.7z"/>
						</g>
					</g>
				</g>
				<g id="&lt;Group&gt;">
					<path id="&lt;Path&gt;" class="s0" d="m3359.8 1077.1l-0.7-16c-0.3-5.8 2.3-11.4 6.9-15l12-9.2 2.3 38.8z"/>
					<path id="&lt;Compound Path&gt;" fill-rule="evenodd" class="s3" d="m3359.8 1078.1q-0.4 0-0.6-0.3-0.3-0.2-0.4-0.7l-0.7-15.9c-0.3-6.2 2.4-12.1 7.3-15.9l12-9.2c0.3-0.2 0.7-0.3 1-0.1 0.4 0.1 0.6 0.5 0.6 0.8l2.3 38.9c0 0.5-0.4 1-1 1l-20.4 1.4q0 0-0.1 0zm17.3-39.3l-10.5 8.1c-4.4 3.4-6.8 8.7-6.5 14.2l0.7 14.9 18.4-1.2z"/>
				</g>
				<g id="&lt;Group&gt;">
					<path id="&lt;Path&gt;" class="s2" d="m3437.3 1198.2l-33.4-35.7-23.9-90-20.2 5 3.5 78c1.4 17.1 8.1 33.4 19 46.6l64 60.6z"/>
					<path id="&lt;Path&gt;" class="s3" d="m3446.3 1263.7q-0.4 0-0.7-0.3l-64-60.6q0 0-0.1 0c-11.1-13.5-17.7-29.8-19.2-47.2l-3.5-78.1c0-0.5 0.3-0.9 0.7-1l20.3-5c0.5-0.1 1 0.2 1.2 0.7l23.8 89.8 33.2 35.6c0.4 0.4 0.4 1 0 1.4-0.4 0.4-1 0.3-1.4-0.1l-33.4-35.7q-0.2-0.2-0.3-0.5l-23.6-89-18.5 4.5 3.5 77.2c1.4 17 7.9 32.9 18.7 46l64 60.6c0.4 0.4 0.4 1 0.1 1.4-0.2 0.2-0.5 0.3-0.8 0.3z"/>
				</g>
				<g id="&lt;Group&gt;">
					<path id="&lt;Path&gt;" class="s3" d="m3778.2 1829.9h-341.3v-2h341.3z"/>
				</g>
			</g>
			<g id="&lt;Group&gt;">
				<g id="&lt;Group&gt;">
					<g id="&lt;Group&gt;">
						<path id="&lt;Path&gt;" class="s0" d="m2696.7 1061.9c0 33.6-27.2 60.8-60.8 60.8-33.6 0-60.9-27.2-60.9-60.8 0-33.6 27.3-60.9 60.9-60.9 33.6 0 60.8 27.3 60.8 60.9z"/>
						<path id="&lt;Compound Path&gt;" fill-rule="evenodd" class="s1" d="m2635.9 1123.7c-34.1 0-61.9-27.7-61.9-61.8 0-34.1 27.8-61.9 61.9-61.9 34.1 0 61.8 27.8 61.8 61.9 0 34.1-27.7 61.8-61.8 61.8zm0-121.7c-33 0-59.9 26.9-59.9 59.9 0 33 26.9 59.8 59.9 59.8 33 0 59.8-26.8 59.8-59.8 0-33-26.8-59.9-59.8-59.9z"/>
					</g>
					<path id="&lt;Path&gt;" class="s3" d="m2653 1067.6l-15.2-7-6.9-15.2 20.4-20.3c-9.1-1.9-18.9 0.7-25.9 7.7-6.2 6.2-8.9 14.6-8.2 22.7 0.3 2.9-0.7 5.8-2.8 7.8l-30.4 30.4c4.8 7.8 11.3 14.4 18.9 19.3l29.3-29.3c2.2-2.2 5.4-3.2 8.5-2.7 8.8 1.5 18.2-1.1 25-7.9 7-7.1 9.6-16.8 7.7-25.9z"/>
				</g>
				<g id="&lt;Group&gt;">
					<path id="&lt;Path&gt;" class="s3" d="m2894.8 1135h-81.3l-72.2-72.1h-44.6v-2h45.4l72.2 72.1h80.5z"/>
				</g>
				<path id="&lt;Path&gt;" class="s3" d="m2894.8 1139.6c-3 0-5.5-2.5-5.5-5.6 0-3 2.5-5.5 5.5-5.5 3.1 0 5.6 2.5 5.6 5.5 0 3.1-2.5 5.6-5.6 5.6z"/>
			</g>
			<g id="&lt;Group&gt;">
				<g id="&lt;Group&gt;">
					<g id="&lt;Group&gt;">
						<path id="&lt;Path&gt;" class="s2" d="m2312.1 909.3v-13.2l-15.3-2.2c-1.3-6.3-3.7-12.2-7.2-17.3l9.3-12.4-9.4-9.4-12.4 9.3c-5.1-3.5-11-5.9-17.3-7.2l-2.2-15.3h-13.2l-2.2 15.3c-6.4 1.3-12.2 3.7-17.4 7.2l-12.4-9.3-9.3 9.4 9.3 12.4c-3.5 5.1-6 11-7.2 17.3l-15.4 2.2v13.2l15.4 2.2c1.2 6.4 3.7 12.2 7.2 17.4l-9.3 12.4 9.3 9.3 12.4-9.3c5.2 3.5 11 6 17.4 7.2l2.2 15.4h13.2l2.2-15.4c6.3-1.2 12.2-3.7 17.3-7.2l12.4 9.3 9.4-9.3-9.3-12.4c3.5-5.2 5.9-11 7.2-17.4z"/>
						<path id="&lt;Compound Path&gt;" fill-rule="evenodd" class="s1" d="m2257.6 964.9h-13.2c-0.5 0-1-0.4-1-0.9l-2.1-14.7c-5.9-1.2-11.4-3.5-16.4-6.7l-11.9 8.8c-0.4 0.3-0.9 0.3-1.3-0.1l-9.3-9.3c-0.4-0.4-0.4-0.9-0.1-1.3l8.8-11.9c-3.2-5-5.5-10.5-6.7-16.4l-14.7-2.1c-0.5 0-0.9-0.5-0.9-1v-13.2c0-0.5 0.4-0.9 0.9-1l14.7-2.1c1.2-5.9 3.5-11.4 6.7-16.4l-8.8-11.8c-0.3-0.4-0.3-1 0.1-1.3l9.3-9.4c0.4-0.3 0.9-0.4 1.3-0.1l11.9 8.9c5-3.3 10.5-5.6 16.4-6.8l2.1-14.6c0-0.5 0.5-0.9 1-0.9h13.2c0.5 0 0.9 0.4 1 0.9l2.1 14.6c5.9 1.2 11.4 3.5 16.4 6.8l11.8-8.9c0.4-0.3 1-0.2 1.3 0.1l9.4 9.4c0.3 0.3 0.4 0.9 0.1 1.3l-8.9 11.8c3.3 5 5.6 10.5 6.8 16.4l14.6 2.1c0.5 0.1 0.9 0.5 0.9 1v13.2c0 0.5-0.4 1-0.9 1l-14.6 2.1c-1.2 5.9-3.5 11.4-6.8 16.4l8.9 11.9c0.3 0.4 0.2 0.9-0.1 1.3l-9.4 9.3c-0.3 0.4-0.9 0.4-1.3 0.1l-11.8-8.8c-5 3.2-10.5 5.5-16.4 6.7l-2.1 14.7c-0.1 0.5-0.5 0.9-1 0.9zm-12.4-2h11.5l2.1-14.5c0.1-0.5 0.4-0.8 0.8-0.9 6.1-1.2 11.8-3.5 17-7 0.3-0.2 0.8-0.2 1.1 0l11.7 8.8 8.2-8.1-8.8-11.7c-0.3-0.4-0.3-0.8 0-1.2 3.4-5.1 5.8-10.8 7-17 0.1-0.4 0.4-0.7 0.8-0.8l14.5-2v-11.5l-14.5-2.1c-0.4-0.1-0.7-0.4-0.8-0.8-1.2-6.1-3.6-11.8-7-17-0.3-0.3-0.3-0.8 0-1.1l8.8-11.7-8.2-8.2-11.7 8.8c-0.3 0.3-0.8 0.3-1.1 0-5.2-3.4-10.9-5.8-17-7-0.4-0.1-0.7-0.4-0.8-0.8l-2.1-14.5h-11.5l-2 14.5c-0.1 0.4-0.4 0.7-0.8 0.8-6.2 1.2-11.9 3.6-17 7-0.4 0.3-0.8 0.3-1.2 0l-11.7-8.8-8.1 8.2 8.8 11.7c0.2 0.3 0.2 0.8 0 1.1-3.5 5.2-5.8 10.9-7 17-0.1 0.4-0.4 0.7-0.9 0.8l-14.5 2.1v11.5l14.5 2c0.5 0.1 0.8 0.4 0.9 0.8 1.2 6.2 3.5 11.9 7 17 0.2 0.4 0.2 0.8 0 1.2l-8.8 11.7 8.1 8.1 11.7-8.8c0.4-0.2 0.8-0.2 1.2 0 5.1 3.5 10.8 5.8 17 7 0.4 0.1 0.7 0.4 0.8 0.9z"/>
					</g>
					<g id="&lt;Group&gt;">
						<path id="&lt;Path&gt;" class="s0" d="m2251 920.5c-9.9 0-17.8-7.9-17.8-17.8 0-9.8 7.9-17.8 17.8-17.8 9.8 0 17.8 8 17.8 17.8 0 9.9-8 17.8-17.8 17.8z"/>
						<path id="&lt;Compound Path&gt;" fill-rule="evenodd" class="s1" d="m2251 921.5c-10.4 0-18.8-8.4-18.8-18.8 0-10.3 8.4-18.8 18.8-18.8 10.3 0 18.8 8.5 18.8 18.8 0 10.4-8.5 18.8-18.8 18.8zm0-35.6c-9.3 0-16.8 7.6-16.8 16.8 0 9.3 7.5 16.8 16.8 16.8 9.2 0 16.8-7.5 16.8-16.8 0-9.2-7.6-16.8-16.8-16.8z"/>
					</g>
				</g>
				<g id="&lt;Group&gt;">
					<path id="&lt;Path&gt;" class="s3" d="m2189.8 903.7h-45.3l-72.2-72.1h-80.6v-2h81.4l72.2 72.1h44.5z"/>
				</g>
				<path id="&lt;Path&gt;" class="s3" d="m1991.7 825c3.1 0 5.6 2.5 5.6 5.6 0 3-2.5 5.5-5.6 5.5-3 0-5.5-2.5-5.5-5.5 0-3.1 2.5-5.6 5.5-5.6z"/>
			</g>
		</g>
	</g>
</svg>