<svg width="600" height="438" viewBox="0 0 600 438" fill="none" xmlns="http://www.w3.org/2000/svg">
<path d="M296.303 0C225.998 0 196.388 51.899 145.619 92.2413C78.4449 145.647 11.294 110.883 0.537578 291.34C-9.04196 451.933 110.408 308.711 278.815 366.235C447.222 423.783 618.759 446.943 567.849 260.813C516.962 74.6827 459.649 0 296.303 0Z" fill="#F0F3F8"/>
<path d="M305.317 391.066C453.647 391.066 573.897 397.021 573.897 404.365C573.897 411.708 453.647 417.663 305.317 417.663C156.988 417.663 36.7373 411.708 36.7373 404.365C36.7373 397.021 156.988 391.066 305.317 391.066Z" fill="#F0F3F8"/>
<path d="M310.802 405.636C470.524 405.636 600 412.673 600 421.382C600 430.067 470.524 437.105 310.802 437.105C151.104 437.105 21.627 430.067 21.627 421.382C21.627 412.673 151.104 405.636 310.802 405.636Z" fill="#F0F3F8"/>
<path d="M351.896 362.422H316.709H315.956H280.768C280.768 362.422 271.73 397.61 268.223 401.14H315.956H316.709H364.465C360.958 397.61 351.896 362.422 351.896 362.422Z" fill="#CCD5E9"/>
<path d="M376.916 402.505C376.916 404.506 376.116 406.13 375.151 406.13H257.537C256.548 406.13 255.771 404.506 255.771 402.505C255.771 400.504 256.548 398.88 257.537 398.88H375.151C376.116 398.88 376.916 400.504 376.916 402.505Z" fill="#DCE2F0"/>
<path d="M144.136 341.498V361.951C144.136 367.459 151.315 371.954 159.741 371.954H472.9C481.326 371.954 488.552 367.459 488.552 361.951V341.498H144.136Z" fill="#DCE2F0"/>
<path d="M488.552 169.231C488.552 159.298 481.326 151.743 472.9 151.743H159.741C151.315 151.743 144.136 159.298 144.136 169.231V341.497H488.552V169.231Z" fill="#DCE2F0"/>
<path d="M474.171 179.022C474.171 170.36 467.816 163.817 460.072 163.817H172.545C164.801 163.817 158.493 170.36 158.493 179.022V328.835H474.171V179.022Z" fill="#F6F8FB"/>
<path d="M325.112 358.962C325.112 363.434 321.487 367.082 316.991 367.082C312.519 367.082 308.871 363.434 308.871 358.962C308.871 354.49 312.519 350.842 316.991 350.842C321.487 350.842 325.112 354.49 325.112 358.962Z" fill="#F6F8FB"/>
<path d="M171.721 322.644H164.448V302.238H171.721V322.644Z" fill="#DCE2F0"/>
<path d="M182.289 322.645H174.992V295.577H182.289V322.645Z" fill="#DCE2F0"/>
<path d="M192.833 322.644H185.561V269.663H192.833V322.644Z" fill="#DCE2F0"/>
<path d="M203.919 322.644H196.646V262.131H203.919V322.644Z" fill="#DCE2F0"/>
<path d="M362.205 173.891C374.115 173.891 383.765 183.541 383.765 195.451C383.765 207.361 374.115 216.987 362.205 216.987C350.296 216.987 340.646 207.361 340.646 195.451C340.646 183.541 350.296 173.891 362.205 173.891Z" fill="#CCD5E9"/>
<path fill-rule="evenodd" clip-rule="evenodd" d="M362.206 173.091C368.372 173.091 373.974 175.586 377.999 179.634C382.047 183.682 384.566 189.261 384.566 195.451C384.566 201.618 382.047 207.196 377.999 211.244C373.974 215.293 368.372 217.787 362.206 217.787C356.039 217.787 350.437 215.293 346.412 211.244C342.364 207.196 339.869 201.618 339.869 195.451C339.869 189.261 342.364 183.682 346.412 179.634C350.437 175.586 356.039 173.091 362.206 173.091ZM376.893 180.764C373.127 177.021 367.949 174.691 362.206 174.691C356.486 174.691 351.285 177.021 347.519 180.764C343.776 184.53 341.446 189.708 341.446 195.451C341.446 201.17 343.776 206.372 347.519 210.114C351.285 213.88 356.486 216.211 362.206 216.211C367.949 216.211 373.127 213.88 376.893 210.114C380.635 206.372 382.965 201.17 382.965 195.451C382.965 189.708 380.635 184.53 376.893 180.764Z" fill="#B6C4DF"/>
<path d="M362.204 183.941C365.17 183.941 367.594 186.366 367.594 189.331C367.594 192.297 365.17 194.721 362.204 194.721C359.239 194.721 356.814 192.297 356.814 189.331C356.814 186.366 359.239 183.941 362.204 183.941Z" fill="white"/>
<path d="M356.815 196.181H367.595C370.56 196.181 372.985 198.605 372.985 201.571V206.937H351.425V201.571C351.425 198.605 353.849 196.181 356.815 196.181Z" fill="white"/>
<path d="M402.219 177.775L443.502 177.61C444.208 177.61 444.773 178.175 444.773 178.881C444.773 179.563 444.208 180.152 443.502 180.152L402.219 180.317C401.512 180.317 400.948 179.752 400.948 179.046C400.948 178.339 401.512 177.775 402.219 177.775ZM402.313 202.465L443.596 202.324C444.303 202.3 444.867 202.865 444.867 203.571C444.867 204.277 444.303 204.842 443.62 204.842L402.313 205.007C401.63 205.007 401.042 204.442 401.042 203.759C401.042 203.053 401.607 202.465 402.313 202.465ZM402.336 206.984L427.121 206.89C427.827 206.89 428.392 207.455 428.392 208.161C428.392 208.843 427.827 209.432 427.144 209.432L402.336 209.526C401.63 209.526 401.065 208.961 401.065 208.255C401.065 207.572 401.63 206.984 402.336 206.984ZM402.266 190.131L443.549 189.967C444.255 189.967 444.82 190.532 444.82 191.214C444.82 191.92 444.255 192.485 443.573 192.485L402.266 192.65C401.559 192.673 400.995 192.085 400.995 191.402C400.995 190.696 401.559 190.131 402.266 190.131ZM402.266 194.651L427.074 194.533C427.78 194.533 428.345 195.098 428.345 195.804C428.345 196.51 427.78 197.075 427.097 197.075L402.289 197.169C401.583 197.169 401.018 196.604 401.018 195.922C401.018 195.215 401.583 194.651 402.266 194.651ZM388.732 202.253L396.334 202.229L396.358 209.832L388.755 209.855L388.732 202.253ZM388.685 189.896L396.287 189.873L396.311 197.475L388.708 197.522L388.685 189.896ZM388.638 177.539L396.24 177.516L396.287 185.118L388.661 185.142L388.638 177.539ZM402.242 182.294L427.05 182.176C427.756 182.176 428.321 182.741 428.321 183.447C428.321 184.153 427.756 184.718 427.074 184.718L402.266 184.812C401.559 184.812 400.995 184.247 400.995 183.565C400.995 182.858 401.559 182.294 402.242 182.294Z" fill="#CCD5E9"/>
<path d="M389.485 179.328C389.273 178.975 389.391 178.528 389.721 178.316C390.074 178.128 390.521 178.222 390.733 178.575L392.451 181.329L396.382 175.821C396.617 175.515 397.088 175.421 397.394 175.656C397.723 175.892 397.794 176.339 397.559 176.668L393.016 183.023C392.953 183.117 392.875 183.196 392.781 183.259C392.427 183.47 392.004 183.353 391.792 183.023L389.485 179.328Z" fill="#B6C4DF"/>
<path d="M362.205 222.848C374.115 222.848 383.765 232.474 383.765 244.384C383.765 256.294 374.115 265.944 362.205 265.944C350.296 265.944 340.646 256.294 340.646 244.384C340.646 232.474 350.296 222.848 362.205 222.848Z" fill="#CCD5E9"/>
<path fill-rule="evenodd" clip-rule="evenodd" d="M362.206 222.047C368.372 222.047 373.974 224.542 377.999 228.591C382.047 232.639 384.566 238.217 384.566 244.384C384.566 250.551 382.047 256.152 377.999 260.201C373.974 264.226 368.372 266.744 362.206 266.744C356.039 266.744 350.437 264.226 346.412 260.201C342.364 256.152 339.869 250.551 339.869 244.384C339.869 238.217 342.364 232.639 346.412 228.591C350.437 224.542 356.039 222.047 362.206 222.047ZM376.893 229.72C373.127 225.954 367.949 223.624 362.206 223.624C356.486 223.624 351.285 225.954 347.519 229.72C343.776 233.463 341.446 238.664 341.446 244.384C341.446 250.127 343.776 255.305 347.519 259.071C351.285 262.813 356.486 265.143 362.206 265.143C367.949 265.143 373.127 262.813 376.893 259.071C380.635 255.305 382.965 250.127 382.965 244.384C382.965 238.664 380.635 233.463 376.893 229.72Z" fill="#B6C4DF"/>
<path d="M362.204 232.874C365.17 232.874 367.594 235.299 367.594 238.264C367.594 241.253 365.17 243.654 362.204 243.654C359.239 243.654 356.814 241.253 356.814 238.264C356.814 235.299 359.239 232.874 362.204 232.874Z" fill="white"/>
<path d="M356.815 245.114H367.595C370.56 245.114 372.985 247.538 372.985 250.503V255.893H351.425V250.503C351.425 247.538 353.849 245.114 356.815 245.114Z" fill="white"/>
<path d="M402.219 226.708L443.502 226.543C444.208 226.543 444.773 227.108 444.773 227.814C444.773 228.52 444.208 229.085 443.502 229.085L402.219 229.25C401.512 229.25 400.948 228.685 400.948 227.979C400.948 227.296 401.512 226.731 402.219 226.708ZM402.313 251.422L443.596 251.257C444.303 251.257 444.867 251.822 444.867 252.528C444.867 253.21 444.303 253.799 443.62 253.799L402.313 253.964C401.63 253.964 401.042 253.399 401.042 252.693C401.042 251.987 401.607 251.422 402.313 251.422ZM402.336 255.941L427.121 255.847C427.827 255.847 428.392 256.411 428.392 257.094C428.392 257.8 427.827 258.365 427.144 258.365L402.336 258.483C401.63 258.483 401.065 257.894 401.065 257.212C401.065 256.506 401.63 255.941 402.336 255.941ZM402.266 239.065L443.549 238.9C444.255 238.9 444.82 239.465 444.82 240.171C444.82 240.877 444.255 241.442 443.573 241.442L402.266 241.607C401.559 241.607 400.995 241.042 400.995 240.336C400.995 239.653 401.559 239.065 402.266 239.065ZM402.266 243.584L427.074 243.49C427.78 243.49 428.345 244.055 428.345 244.737V244.761C428.345 245.443 427.78 246.032 427.097 246.032L402.289 246.126C401.583 246.126 401.018 245.561 401.018 244.855C401.018 244.149 401.583 243.584 402.266 243.584ZM388.732 251.186L396.334 251.163L396.358 258.765L388.755 258.812L388.732 251.186ZM388.685 238.829L396.287 238.806L396.311 246.408L388.708 246.432L388.685 238.829ZM388.638 226.473L396.24 226.449L396.287 234.051L388.661 234.098L388.638 226.473ZM402.242 231.203L427.05 231.109C427.756 231.109 428.321 231.674 428.321 232.38C428.321 233.063 427.756 233.628 427.074 233.651L402.266 233.745C401.559 233.745 400.995 233.181 400.995 232.474C400.995 231.792 401.559 231.203 402.242 231.203Z" fill="#CCD5E9"/>
<path d="M389.485 228.261C389.273 227.932 389.391 227.484 389.721 227.273C390.074 227.061 390.521 227.155 390.733 227.508L392.451 230.285L396.382 224.778C396.617 224.448 397.088 224.378 397.394 224.613C397.723 224.848 397.794 225.296 397.559 225.625L393.016 231.98C392.945 232.074 392.875 232.145 392.781 232.192C392.427 232.404 392.004 232.31 391.792 231.956L389.485 228.261Z" fill="#B6C4DF"/>
<path d="M362.205 271.781C374.115 271.781 383.765 281.431 383.765 293.341C383.765 305.227 374.115 314.877 362.205 314.877C350.296 314.877 340.646 305.227 340.646 293.341C340.646 281.431 350.296 271.781 362.205 271.781Z" fill="#CCD5E9"/>
<path fill-rule="evenodd" clip-rule="evenodd" d="M362.206 270.981C368.372 270.981 373.974 273.476 377.999 277.524C382.047 281.573 384.566 287.151 384.566 293.341C384.566 299.508 382.047 305.086 377.999 309.134C373.974 313.183 368.372 315.678 362.206 315.678C356.039 315.678 350.437 313.183 346.412 309.134C342.364 305.086 339.869 299.508 339.869 293.341C339.869 287.151 342.364 281.573 346.412 277.524C350.437 273.499 356.039 270.981 362.206 270.981ZM376.893 278.654C373.127 274.888 367.949 272.581 362.206 272.581C356.486 272.581 351.285 274.888 347.519 278.654C343.776 282.42 341.446 287.598 341.446 293.341C341.446 299.061 343.776 304.262 347.519 308.005C351.285 311.77 356.486 314.101 362.206 314.101C367.949 314.101 373.127 311.77 376.893 308.005C380.635 304.262 382.965 299.061 382.965 293.341C382.965 287.598 380.635 282.42 376.893 278.654Z" fill="#B6C4DF"/>
<path d="M362.204 281.832C365.17 281.832 367.594 284.256 367.594 287.222C367.594 290.187 365.17 292.611 362.204 292.611C359.239 292.611 356.814 290.187 356.814 287.222C356.814 284.256 359.239 281.832 362.204 281.832Z" fill="white"/>
<path d="M356.815 294.071H367.595C370.56 294.071 372.985 296.472 372.985 299.437V304.827H351.425V299.437C351.425 296.472 353.849 294.071 356.815 294.071Z" fill="white"/>
<path d="M402.219 275.665L443.502 275.5C444.208 275.5 444.773 276.065 444.773 276.771C444.773 277.453 444.208 278.042 443.502 278.042L402.219 278.207C401.512 278.207 400.948 277.642 400.948 276.936C400.948 276.23 401.512 275.665 402.219 275.665ZM402.313 300.355L443.596 300.214C444.303 300.19 444.867 300.779 444.867 301.461C444.867 302.167 444.303 302.732 443.62 302.732L402.313 302.897C401.63 302.897 401.042 302.332 401.042 301.626C401.042 300.943 401.607 300.378 402.313 300.355ZM402.336 304.874L427.121 304.78C427.827 304.78 428.392 305.345 428.392 306.051C428.392 306.733 427.827 307.322 427.144 307.322L402.336 307.416C401.63 307.416 401.065 306.851 401.065 306.145C401.065 305.462 401.63 304.874 402.336 304.874ZM402.266 288.022L443.549 287.857C444.255 287.857 444.82 288.422 444.82 289.104C444.82 289.81 444.255 290.375 443.573 290.375L402.266 290.54C401.559 290.564 400.995 289.975 400.995 289.293C400.995 288.586 401.559 288.022 402.266 288.022ZM402.266 292.541L427.074 292.423C427.78 292.423 428.345 292.988 428.345 293.694C428.345 294.4 427.78 294.965 427.097 294.965L402.289 295.059C401.583 295.059 401.018 294.494 401.018 293.812C401.018 293.106 401.583 292.541 402.266 292.541ZM388.732 300.143L396.334 300.12L396.358 307.722L388.755 307.745L388.732 300.143ZM388.685 287.786L396.287 287.763L396.311 295.365L388.708 295.412L388.685 287.786ZM388.638 275.429L396.24 275.406L396.287 283.008L388.661 283.032L388.638 275.429ZM402.242 280.16L427.05 280.066C427.756 280.066 428.321 280.631 428.321 281.337C428.321 282.043 427.756 282.608 427.074 282.608L402.266 282.702C401.559 282.702 400.995 282.137 400.995 281.455C400.995 280.749 401.559 280.184 402.242 280.16Z" fill="#CCD5E9"/>
<path d="M389.485 277.218C389.273 276.865 389.391 276.418 389.721 276.206C390.074 275.994 390.521 276.112 390.733 276.441L392.451 279.219L396.382 273.711C396.617 273.382 397.088 273.311 397.394 273.546C397.723 273.782 397.794 274.229 397.559 274.558L393.016 280.913C392.953 281.008 392.875 281.086 392.781 281.149C392.427 281.361 392.004 281.243 391.792 280.913L389.485 277.218Z" fill="#B6C4DF"/>
<path d="M234.259 174.785C246.169 174.785 255.819 184.436 255.819 196.345C255.819 208.231 246.169 217.882 234.259 217.882C222.349 217.882 212.699 208.231 212.699 196.345C212.699 184.436 222.349 174.785 234.259 174.785Z" fill="#CCD5E9"/>
<path fill-rule="evenodd" clip-rule="evenodd" d="M234.259 173.985C240.426 173.985 246.028 176.48 250.076 180.528C254.101 184.577 256.619 190.155 256.619 196.345C256.619 202.512 254.101 208.09 250.076 212.138C246.028 216.187 240.426 218.682 234.259 218.682C228.093 218.682 222.514 216.187 218.466 212.138C214.418 208.09 211.923 202.512 211.923 196.345C211.923 190.155 214.418 184.577 218.466 180.528C222.514 176.48 228.093 173.985 234.259 173.985ZM248.946 181.658C245.181 177.892 240.002 175.586 234.259 175.586C228.54 175.586 223.338 177.892 219.596 181.658C215.83 185.424 213.5 190.602 213.5 196.345C213.5 202.065 215.83 207.266 219.596 211.009C223.338 214.775 228.54 217.081 234.259 217.081C240.002 217.081 245.181 214.775 248.946 211.009C252.689 207.266 255.019 202.065 255.019 196.345C255.019 190.602 252.689 185.424 248.946 181.658Z" fill="#B6C4DF"/>
<path d="M234.259 184.835C237.225 184.835 239.649 187.236 239.649 190.225C239.649 193.191 237.225 195.615 234.259 195.615C231.293 195.615 228.869 193.191 228.869 190.225C228.869 187.236 231.293 184.835 234.259 184.835Z" fill="white"/>
<path d="M228.869 197.051H239.649C242.615 197.051 245.039 199.476 245.039 202.441V207.831H223.479V202.441C223.479 199.476 225.904 197.051 228.869 197.051Z" fill="white"/>
<path d="M274.272 178.669L315.556 178.504C316.262 178.504 316.827 179.069 316.827 179.775C316.827 180.458 316.262 181.023 315.58 181.046L274.272 181.211C273.59 181.211 273.001 180.622 273.001 179.94C273.001 179.234 273.566 178.669 274.272 178.669ZM274.366 203.359L315.65 203.194C316.356 203.194 316.921 203.759 316.921 204.465C316.921 205.172 316.356 205.736 315.674 205.736L274.366 205.901C273.684 205.901 273.095 205.336 273.095 204.63C273.095 203.948 273.66 203.359 274.366 203.359ZM274.39 207.878L299.174 207.784C299.88 207.784 300.445 208.349 300.445 209.055C300.469 209.738 299.88 210.326 299.198 210.326L274.39 210.42C273.684 210.42 273.119 209.855 273.119 209.149C273.119 208.467 273.684 207.878 274.39 207.878ZM274.319 191.026L315.603 190.861C316.309 190.861 316.874 191.426 316.874 192.109C316.898 192.815 316.309 193.38 315.627 193.38L274.319 193.544C273.637 193.544 273.048 192.979 273.048 192.297C273.048 191.591 273.613 191.026 274.319 191.026ZM274.343 195.545L299.127 195.427C299.833 195.427 300.398 195.992 300.398 196.698C300.398 197.404 299.833 197.969 299.151 197.969L274.343 198.063C273.637 198.063 273.072 197.498 273.072 196.816C273.072 196.11 273.637 195.545 274.343 195.545ZM260.786 203.147L268.388 203.124L268.412 210.726L260.809 210.75L260.786 203.147ZM260.738 190.79L268.341 190.767L268.364 198.369L260.762 198.416L260.738 190.79ZM260.691 178.434L268.317 178.386L268.341 186.012L260.738 186.036L260.691 178.434ZM274.296 183.188L299.08 183.07C299.786 183.07 300.351 183.635 300.351 184.341C300.375 185.047 299.786 185.612 299.104 185.612L274.296 185.706C273.59 185.706 273.025 185.142 273.025 184.435C273.025 183.753 273.59 183.188 274.296 183.188Z" fill="#CCD5E9"/>
<path d="M261.538 180.222C261.35 179.869 261.444 179.422 261.797 179.21C262.127 178.999 262.574 179.116 262.786 179.446L264.504 182.223L268.458 176.715C268.67 176.386 269.141 176.315 269.447 176.551C269.776 176.786 269.847 177.233 269.612 177.563L265.069 183.918C265.006 184.012 264.928 184.09 264.834 184.153C264.504 184.365 264.057 184.247 263.845 183.918L261.538 180.222Z" fill="#B6C4DF"/>
<path d="M234.259 223.719C246.169 223.719 255.819 233.369 255.819 245.279C255.819 257.188 246.169 266.838 234.259 266.838C222.349 266.838 212.699 257.188 212.699 245.279C212.699 233.369 222.349 223.719 234.259 223.719Z" fill="#CCD5E9"/>
<path fill-rule="evenodd" clip-rule="evenodd" d="M234.259 222.942C240.426 222.942 246.028 225.437 250.076 229.485C254.101 233.51 256.619 239.112 256.619 245.278C256.619 251.445 254.101 257.047 250.076 261.072C246.028 265.12 240.426 267.639 234.259 267.639C228.093 267.639 222.514 265.12 218.466 261.072C214.418 257.047 211.923 251.445 211.923 245.278C211.923 239.112 214.418 233.51 218.466 229.485C222.514 225.437 228.093 222.942 234.259 222.942ZM248.946 230.591C245.181 226.849 240.002 224.519 234.259 224.519C228.54 224.519 223.338 226.849 219.596 230.591C215.83 234.357 213.5 239.559 213.5 245.278C213.5 251.021 215.83 256.2 219.596 259.965C223.338 263.708 228.54 266.038 234.259 266.038C240.002 266.038 245.181 263.708 248.946 259.965C252.689 256.2 255.019 251.021 255.019 245.278C255.019 239.559 252.689 234.357 248.946 230.591Z" fill="#B6C4DF"/>
<path d="M234.259 233.769C237.225 233.769 239.649 236.193 239.649 239.159C239.649 242.148 237.225 244.549 234.259 244.549C231.293 244.549 228.869 242.148 228.869 239.159C228.869 236.193 231.293 233.769 234.259 233.769Z" fill="white"/>
<path d="M228.869 246.008H239.649C242.615 246.008 245.039 248.432 245.039 251.398V256.788H223.479V251.398C223.479 248.432 225.904 246.008 228.869 246.008Z" fill="white"/>
<path d="M274.272 227.602L315.556 227.437C316.262 227.437 316.827 228.002 316.827 228.708C316.827 229.415 316.262 229.979 315.58 229.979L274.272 230.144C273.59 230.144 273.001 229.579 273.001 228.873C273.001 228.191 273.566 227.602 274.272 227.602ZM274.366 252.316L315.65 252.151C316.356 252.151 316.921 252.716 316.921 253.422C316.921 254.105 316.356 254.67 315.674 254.693L274.366 254.858C273.684 254.858 273.095 254.293 273.095 253.587C273.095 252.881 273.66 252.316 274.366 252.316ZM274.39 256.835L299.174 256.717C299.88 256.717 300.445 257.306 300.445 257.988C300.469 258.694 299.88 259.259 299.198 259.259L274.39 259.354C273.684 259.354 273.119 258.789 273.119 258.106C273.119 257.4 273.684 256.835 274.39 256.835ZM274.319 239.959L315.603 239.794C316.309 239.794 316.874 240.359 316.874 241.065C316.898 241.748 316.309 242.336 315.627 242.336L274.319 242.501C273.637 242.501 273.048 241.936 273.048 241.23C273.048 240.547 273.613 239.959 274.319 239.959ZM274.343 244.478L299.127 244.384C299.833 244.384 300.398 244.949 300.398 245.631V245.655C300.398 246.338 299.833 246.902 299.151 246.926L274.343 247.02C273.637 247.02 273.072 246.455 273.072 245.749C273.072 245.043 273.637 244.478 274.343 244.478ZM260.786 252.081L268.388 252.057L268.412 259.659L260.809 259.707L260.786 252.081ZM260.738 239.724L268.341 239.7L268.364 247.303L260.762 247.326L260.738 239.724ZM260.691 227.367L268.317 227.343L268.341 234.946L260.738 234.969L260.691 227.367ZM274.296 232.121L299.08 232.027C299.786 232.027 300.351 232.592 300.351 233.275C300.375 233.981 299.786 234.546 299.104 234.569L274.296 234.663C273.59 234.663 273.025 234.098 273.025 233.392C273.025 232.686 273.59 232.121 274.296 232.121Z" fill="#CCD5E9"/>
<path d="M261.538 229.156C261.35 228.826 261.444 228.379 261.797 228.167C262.127 227.955 262.574 228.049 262.786 228.403L264.504 231.18L268.458 225.672C268.67 225.343 269.141 225.272 269.447 225.507C269.776 225.743 269.847 226.19 269.612 226.496L265.069 232.875C264.998 232.945 264.928 233.039 264.834 233.086C264.504 233.298 264.057 233.204 263.845 232.851L261.538 229.156Z" fill="#B6C4DF"/>
<path d="M234.259 272.675C246.169 272.675 255.819 282.325 255.819 294.235C255.819 306.121 246.169 315.771 234.259 315.771C222.349 315.771 212.699 306.121 212.699 294.235C212.699 282.325 222.349 272.675 234.259 272.675Z" fill="#CCD5E9"/>
<path fill-rule="evenodd" clip-rule="evenodd" d="M234.259 271.875C240.426 271.875 246.028 274.37 250.076 278.418C254.101 282.467 256.619 288.045 256.619 294.235C256.619 300.402 254.101 305.98 250.076 310.028C246.028 314.077 240.426 316.572 234.259 316.572C228.093 316.572 222.514 314.077 218.466 310.028C214.418 305.98 211.923 300.402 211.923 294.235C211.923 288.045 214.418 282.467 218.466 278.418C222.514 274.37 228.093 271.875 234.259 271.875ZM248.946 279.548C245.181 275.782 240.002 273.475 234.259 273.475C228.54 273.475 223.338 275.782 219.596 279.548C215.83 283.314 213.5 288.492 213.5 294.235C213.5 299.955 215.83 305.156 219.596 308.899C223.338 312.665 228.54 314.971 234.259 314.971C240.002 314.971 245.181 312.665 248.946 308.899C252.689 305.156 255.019 299.955 255.019 294.235C255.019 288.492 252.689 283.314 248.946 279.548Z" fill="#B6C4DF"/>
<path d="M234.259 282.726C237.225 282.726 239.649 285.126 239.649 288.116C239.649 291.081 237.225 293.505 234.259 293.505C231.293 293.505 228.869 291.081 228.869 288.116C228.869 285.126 231.293 282.726 234.259 282.726Z" fill="white"/>
<path d="M228.869 294.941H239.649C242.615 294.941 245.039 297.366 245.039 300.331V305.721H223.479V300.331C223.479 297.366 225.904 294.941 228.869 294.941Z" fill="white"/>
<path d="M274.272 276.559L315.556 276.394C316.262 276.394 316.827 276.959 316.827 277.641C316.827 278.348 316.262 278.912 315.58 278.936L274.272 279.101C273.59 279.101 273.001 278.512 273.001 277.83C273.001 277.124 273.566 276.559 274.272 276.559ZM274.366 301.249L315.65 301.084C316.356 301.084 316.921 301.649 316.921 302.355C316.921 303.061 316.356 303.626 315.674 303.626L274.366 303.791C273.684 303.791 273.095 303.226 273.095 302.52C273.095 301.837 273.66 301.249 274.366 301.249ZM274.39 305.768L299.174 305.674C299.88 305.674 300.445 306.239 300.445 306.945C300.469 307.627 299.88 308.216 299.198 308.216L274.39 308.31C273.684 308.31 273.119 307.745 273.119 307.039C273.119 306.356 273.684 305.768 274.39 305.768ZM274.319 288.916L315.603 288.751C316.309 288.751 316.874 289.316 316.874 289.998C316.898 290.704 316.309 291.269 315.627 291.269L274.319 291.434C273.637 291.434 273.048 290.869 273.048 290.163C273.048 289.48 273.613 288.916 274.319 288.916ZM274.343 293.411L299.127 293.317C299.833 293.317 300.398 293.882 300.398 294.588C300.398 295.294 299.833 295.859 299.151 295.859L274.343 295.953C273.637 295.953 273.072 295.388 273.072 294.682C273.072 294 273.637 293.435 274.343 293.411ZM260.786 301.037L268.388 300.99L268.412 308.616L260.809 308.64L260.786 301.037ZM260.738 288.68L268.341 288.657L268.364 296.259L260.762 296.283L260.738 288.68ZM260.691 276.347L268.317 276.3L268.341 283.926L260.738 283.949L260.691 276.347ZM274.296 281.078L299.08 280.984C299.786 280.984 300.351 281.549 300.351 282.255C300.375 282.937 299.786 283.526 299.104 283.526L274.296 283.62C273.59 283.62 273.025 283.055 273.025 282.349C273.025 281.666 273.59 281.101 274.296 281.078Z" fill="#CCD5E9"/>
<path d="M261.538 278.112C261.35 277.759 261.444 277.312 261.797 277.1C262.127 276.888 262.574 277.006 262.786 277.335L264.504 280.113L268.458 274.605C268.67 274.276 269.141 274.205 269.447 274.44C269.776 274.676 269.847 275.123 269.612 275.452L265.069 281.807C265.006 281.902 264.928 281.98 264.834 282.043C264.504 282.255 264.057 282.137 263.845 281.807L261.538 278.112Z" fill="#B6C4DF"/>
<path d="M58.6972 100.103H292.796C295.832 100.103 298.327 102.574 298.327 105.634V148.471C298.327 151.507 295.832 154.002 292.796 154.002H58.6972C55.6609 154.002 53.166 151.507 53.166 148.471V105.634C53.166 102.574 55.6609 100.103 58.6972 100.103Z" fill="white"/>
<path fill-rule="evenodd" clip-rule="evenodd" d="M58.6976 99.5142H292.796C294.467 99.5142 295.997 100.197 297.103 101.303C298.21 102.409 298.916 103.939 298.916 105.634V148.471C298.916 150.142 298.21 151.672 297.103 152.778C295.997 153.885 294.467 154.567 292.796 154.567H58.6976C57.0265 154.567 55.4966 153.885 54.3904 152.778C53.2841 151.672 52.6016 150.142 52.6016 148.471V105.634C52.6016 103.939 53.2841 102.409 54.3904 101.303C55.4966 100.197 57.0265 99.5142 58.6976 99.5142ZM292.796 100.691H58.6976C57.3325 100.691 56.1086 101.256 55.2142 102.127C54.3198 103.021 53.7549 104.269 53.7549 105.634V148.471C53.7549 149.836 54.3198 151.06 55.2142 151.954C56.1086 152.849 57.3325 153.414 58.6976 153.414H292.796C294.161 153.414 295.385 152.849 296.28 151.954C297.174 151.06 297.739 149.836 297.739 148.471V105.634C297.739 104.269 297.174 103.021 296.28 102.127C295.385 101.256 294.161 100.691 292.796 100.691Z" fill="#B6C4DF"/>
<path d="M58.6972 100.103H122.741C125.777 100.103 128.272 102.574 128.272 105.634V148.471C128.272 151.507 125.777 154.002 122.741 154.002H58.6972C55.6609 154.002 53.166 151.507 53.166 148.471V105.634C53.166 102.574 55.6609 100.103 58.6972 100.103Z" fill="#B6C4DF"/>
<path d="M83.9285 129.5L81.6689 132.772L82.987 133.666L85.223 130.395L83.9285 129.5Z" fill="white"/>
<path fill-rule="evenodd" clip-rule="evenodd" d="M103.746 126.017C99.9333 131.572 92.7546 133.36 86.8703 130.583L86.8232 130.654C86.5879 131.007 86.0936 131.101 85.7641 130.865L83.5045 129.312C83.1515 129.077 83.0573 128.606 83.3162 128.253L83.3633 128.159C78.6559 123.687 77.7615 116.32 81.551 110.788C85.7641 104.669 94.1432 103.115 100.263 107.305C106.382 111.518 107.959 119.897 103.746 126.017ZM83.1044 111.848C79.4797 117.12 80.8213 124.346 86.0936 127.947C91.3659 131.572 98.5682 130.23 102.193 124.958C105.818 119.685 104.476 112.483 99.2037 108.858C93.9314 105.234 86.7056 106.575 83.1044 111.848Z" fill="white"/>
<path d="M84.0226 132.136L82.7281 131.242C82.5398 131.101 82.2573 131.148 82.1161 131.36L80.0684 134.349L75.6434 140.798L74.396 142.587L69.971 149.036C69.8298 149.224 69.9004 149.507 70.0887 149.648L71.3833 150.542C71.5951 150.684 71.8775 150.637 71.9952 150.425L74.0665 147.436L78.4914 140.986L79.7153 139.198L84.1403 132.748C84.2815 132.537 84.2344 132.278 84.0226 132.136Z" fill="white"/>
<path opacity="0.4" d="M83.105 111.848C79.4803 117.12 80.8219 124.346 86.0941 127.947C91.3664 131.571 98.5687 130.23 102.193 124.958C105.818 119.685 104.477 112.483 99.2042 108.858C93.932 105.257 86.7061 106.575 83.105 111.848Z" fill="#B6C4DF"/>
<path d="M149.362 119.097C153.763 119.097 157.317 122.651 157.317 127.052C157.317 131.43 153.763 135.008 149.362 135.008C144.96 135.008 141.406 131.43 141.406 127.052C141.406 122.651 144.96 119.097 149.362 119.097ZM279.662 119.097C284.064 119.097 287.618 122.651 287.618 127.052C287.618 131.43 284.064 135.008 279.662 135.008C275.261 135.008 271.707 131.43 271.707 127.052C271.707 122.651 275.261 119.097 279.662 119.097ZM253.607 119.097C257.985 119.097 261.539 122.651 261.539 127.052C261.539 131.43 257.985 135.008 253.607 135.008C249.205 135.008 245.651 131.43 245.651 127.052C245.651 122.651 249.205 119.097 253.607 119.097ZM227.528 119.097C231.929 119.097 235.483 122.651 235.483 127.052C235.483 131.43 231.929 135.008 227.528 135.008C223.15 135.008 219.596 131.43 219.596 127.052C219.596 122.651 223.15 119.097 227.528 119.097ZM201.473 119.097C205.874 119.097 209.428 122.651 209.428 127.052C209.428 131.43 205.874 135.008 201.473 135.008C197.095 135.008 193.517 131.43 193.517 127.052C193.517 122.651 197.095 119.097 201.473 119.097ZM175.417 119.097C179.819 119.097 183.373 122.651 183.373 127.052C183.373 131.43 179.819 135.008 175.417 135.008C171.039 135.008 167.462 131.43 167.462 127.052C167.462 122.651 171.039 119.097 175.417 119.097Z" fill="#DCE2F0"/>
<path d="M328.502 75.0356H428.699C434.041 75.0356 438.396 79.4135 438.396 84.7329V91.6998C438.396 97.0191 434.041 101.397 428.699 101.397H328.502C323.182 101.397 318.828 97.0427 318.828 91.6998V84.7329C318.828 79.39 323.182 75.0356 328.502 75.0356Z" fill="#F6F8FB"/>
<path fill-rule="evenodd" clip-rule="evenodd" d="M328.501 74H428.698C431.664 74 434.347 75.2004 436.301 77.154C438.231 79.084 439.455 81.7907 439.455 84.7329V91.6998C439.455 94.6419 438.231 97.3487 436.301 99.2787C434.347 101.232 431.664 102.433 428.698 102.433H328.501C325.559 102.433 322.876 101.232 320.923 99.2787C318.992 97.3487 317.769 94.6419 317.769 91.6998V84.7329C317.769 81.7907 318.992 79.084 320.923 77.154C322.876 75.2004 325.559 74 328.501 74ZM428.698 76.0948H328.501C326.124 76.0948 323.959 77.0598 322.405 78.6368C320.828 80.1902 319.863 82.3556 319.863 84.7329V91.6998C319.863 94.077 320.828 96.2424 322.405 97.8194C323.959 99.3728 326.124 100.338 328.501 100.338H428.698C431.075 100.338 433.241 99.3728 434.818 97.8194C436.371 96.2424 437.36 94.077 437.36 91.6998V84.7329C437.36 82.3556 436.371 80.1902 434.818 78.6368C433.241 77.0598 431.075 76.0948 428.698 76.0948Z" fill="#CCD5E9"/>
<path d="M337.61 81.3906C341.023 81.3906 343.8 84.1915 343.8 87.6044C343.8 91.0408 341.023 93.8181 337.61 93.8181C334.174 93.8181 331.396 91.0408 331.396 87.6044C331.396 84.1915 334.174 81.3906 337.61 81.3906ZM385.131 81.3906C388.568 81.3906 391.345 84.1915 391.345 87.6044C391.345 91.0408 388.568 93.8181 385.131 93.8181C381.718 93.8181 378.941 91.0408 378.941 87.6044C378.941 84.1915 381.718 81.3906 385.131 81.3906ZM361.383 81.3906C364.795 81.3906 367.573 84.1915 367.573 87.6044C367.573 91.0408 364.795 93.8181 361.383 93.8181C357.946 93.8181 355.169 91.0408 355.169 87.6044C355.169 84.1915 357.946 81.3906 361.383 81.3906Z" fill="#CCD5E9"/>
<path d="M289.572 31.9631H351.003C354.275 31.9631 356.935 34.6228 356.935 37.8944V72.4231C356.935 75.6712 354.275 78.3544 351.003 78.3544H289.572C286.3 78.3544 283.641 75.6712 283.641 72.4231V37.8944C283.641 34.6228 286.3 31.9631 289.572 31.9631Z" fill="#E5EAF4"/>
<path d="M341.518 61.7374L320.287 42.0605L299.057 61.7374L284.394 75.3182C285.429 77.1306 287.359 78.3545 289.572 78.3545H351.003C353.216 78.3545 355.146 77.1306 356.158 75.3182L341.518 61.7374Z" fill="#7789A4"/>
<path d="M341.518 61.7374L320.287 42.0605L299.057 61.7374L284.394 75.3182C285.429 77.1306 287.359 78.3545 289.572 78.3545H351.003C353.216 78.3545 355.146 77.1306 356.158 75.3182L341.518 61.7374Z" fill="#DCE2F0"/>
<path d="M341.518 50.2749L320.287 71.7877L299.057 50.2749L284.394 35.4466C285.429 33.4695 287.359 32.1279 289.572 32.1279H351.003C353.216 32.1279 355.146 33.4695 356.158 35.4466L341.518 50.2749Z" fill="#C1CDE5"/>
<path d="M341.518 48.745L320.287 68.4219L299.057 48.745L284.394 35.1642C285.429 33.3518 287.359 32.1279 289.572 32.1279H351.003C353.216 32.1279 355.146 33.3518 356.158 35.1642L341.518 48.745Z" fill="#CCD5E9"/>
<path d="M189.256 48.5098L119.634 70.7051L136.227 95.8426L189.256 48.5098Z" fill="#DCE2F0"/>
<path d="M111.019 58.819L187.185 48.4863L93.4609 47.8037L111.019 58.819Z" fill="#DCE2F0"/>
<path d="M111.02 58.819L110.267 89.982L119.634 70.7052L189.257 48.5099L187.185 48.4863L111.02 58.819Z" fill="#CCD5E9"/>
<path d="M110.267 89.9818L126.978 81.8381L119.634 70.7051L110.267 89.9818Z" fill="#C1CDE5"/>
<path d="M439.996 141.787H511.854C515.667 141.787 518.798 144.917 518.798 148.73V189.119C518.798 192.932 515.667 196.063 511.854 196.063H439.996C436.16 196.063 433.053 192.932 433.053 189.119V148.73C433.053 144.917 436.16 141.787 439.996 141.787Z" fill="#E5EAF4"/>
<path d="M500.745 176.621L475.914 153.602L451.082 176.621L433.947 192.532C435.148 194.627 437.407 196.063 439.996 196.063H511.855C514.444 196.063 516.703 194.627 517.904 192.532L500.745 176.621Z" fill="#7789A4"/>
<path d="M500.745 176.621L475.914 153.602L451.082 176.621L433.947 192.532C435.148 194.627 437.407 196.063 439.996 196.063H511.855C514.444 196.063 516.703 194.627 517.904 192.532L500.745 176.621Z" fill="#DCE2F0"/>
<path d="M500.745 163.229L475.914 188.39L451.082 163.229L433.947 145.858C435.148 143.575 437.407 141.998 439.996 141.998H511.855C514.444 141.998 516.703 143.575 517.904 145.858L500.745 163.229Z" fill="#C1CDE5"/>
<path d="M500.745 161.44L475.914 184.459L451.082 161.44L433.947 145.529C435.148 143.434 437.407 141.998 439.996 141.998H511.855C514.444 141.998 516.703 143.434 517.904 145.529L500.745 161.44Z" fill="#F6F8FB"/>
<path d="M62.8396 170.808H183.867C187.279 170.808 190.08 173.585 190.08 177.021V237.841C190.08 241.254 187.279 244.031 183.867 244.031H62.8396C59.4268 244.031 56.6494 241.254 56.6494 237.841V177.021C56.6494 173.585 59.4268 170.808 62.8396 170.808Z" fill="white"/>
<path d="M68.7002 201.453L82.7518 201.406L82.7988 215.457L68.7473 215.504L68.7002 201.453Z" fill="#DCE2F0"/>
<path d="M68.7949 224.26L82.8465 224.213L82.8935 238.264L68.842 238.311L68.7949 224.26Z" fill="#DCE2F0"/>
<path d="M68.6064 178.645L82.658 178.598L82.7286 192.65L68.6771 192.697L68.6064 178.645Z" fill="#DCE2F0"/>
<path d="M93.7433 187.401L139.546 187.213C140.817 187.213 141.876 188.272 141.876 189.543C141.9 190.838 140.841 191.897 139.546 191.897L93.7433 192.085C92.4723 192.085 91.4132 191.049 91.3896 189.755C91.3896 188.46 92.4488 187.401 93.7433 187.401Z" fill="#DCE2F0"/>
<path d="M93.8145 210.208L139.617 210.02C140.912 210.02 141.971 211.079 141.971 212.35V212.374C141.971 213.645 140.936 214.704 139.641 214.704L93.8381 214.892C92.5435 214.892 91.4844 213.857 91.4844 212.562C91.4844 211.267 92.5435 210.208 93.8145 210.208Z" fill="#DCE2F0"/>
<path d="M93.7911 201.876L170.051 201.57C171.345 201.57 172.381 202.606 172.404 203.9C172.404 205.195 171.369 206.254 170.074 206.254L93.8146 206.56C92.5201 206.56 91.4609 205.501 91.4609 204.206C91.4609 202.935 92.4966 201.876 93.7911 201.876Z" fill="#DCE2F0"/>
<path d="M93.9083 233.016L139.711 232.827C141.006 232.827 142.065 233.887 142.065 235.181C142.065 236.452 141.029 237.511 139.735 237.535L93.9318 237.7C92.6373 237.7 91.5781 236.664 91.5781 235.369C91.5781 234.075 92.6138 233.016 93.9083 233.016Z" fill="#DCE2F0"/>
<path d="M93.8852 224.684L170.145 224.378C171.416 224.378 172.475 225.413 172.499 226.708C172.499 228.002 171.439 229.062 170.145 229.062L93.9088 229.368C92.6142 229.368 91.5551 228.308 91.5551 227.037C91.5315 225.743 92.5907 224.684 93.8852 224.684Z" fill="#DCE2F0"/>
<path d="M93.6964 179.069L169.956 178.763C171.251 178.763 172.31 179.799 172.31 181.093C172.31 182.388 171.274 183.447 169.98 183.447L93.7199 183.753C92.4254 183.753 91.3662 182.694 91.3662 181.423V181.399C91.3662 180.128 92.4018 179.069 93.6964 179.069Z" fill="#DCE2F0"/>
<path d="M70.395 227.555C70.0185 226.92 70.2068 226.096 70.8423 225.696C71.4542 225.319 72.278 225.508 72.6781 226.143L75.8321 231.274L83.1285 221.083C83.5757 220.494 84.3995 220.353 84.9879 220.777C85.5999 221.224 85.7411 222.048 85.3175 222.66L76.8912 234.405C76.7814 234.561 76.6402 234.695 76.4676 234.805C75.8321 235.205 75.0083 234.993 74.6082 234.381L70.395 227.555Z" fill="#B6C4DF"/>
<path d="M70.3013 204.724C69.9247 204.112 70.113 203.289 70.7485 202.888C71.3605 202.512 72.2078 202.7 72.5844 203.336L75.7619 208.443L83.0348 198.275C83.482 197.687 84.3058 197.546 84.9177 197.969C85.5062 198.416 85.6474 199.24 85.2237 199.829L76.7975 211.597C76.6877 211.754 76.5464 211.887 76.3738 211.997C75.7383 212.374 74.9145 212.186 74.5379 211.55L70.3013 204.724Z" fill="#B6C4DF"/>
<path d="M70.2066 181.917C69.83 181.305 70.0183 180.481 70.6538 180.081C71.2893 179.705 72.1131 179.893 72.4897 180.528L75.6671 185.636L82.9636 175.468C83.3873 174.879 84.211 174.738 84.823 175.162C85.4114 175.586 85.5527 176.433 85.129 177.021L76.7028 188.766C76.5929 188.939 76.4517 189.08 76.2791 189.19C75.6671 189.567 74.8198 189.378 74.4432 188.743L70.2066 181.917Z" fill="#B6C4DF"/>
<path fill-rule="evenodd" clip-rule="evenodd" d="M295.643 221.459C290.206 221.318 284.416 219.176 280.156 215.81C276.625 213.033 274.884 210.538 272.695 206.701C272.083 205.477 271.636 204.371 271.188 203.006C265.492 185.659 278.65 168.124 296.161 168.007C302.916 167.96 308.847 170.007 314.049 174.456C315.485 175.68 314.449 176.174 313.484 177.045C309.012 181.093 311.978 178.386 305.388 175.515C298.35 172.455 290.277 173.091 283.992 177.822C280.533 180.434 277.543 184.459 276.414 188.672C274.931 194.203 275.237 198.958 277.755 204.136C279.403 207.549 281.403 209.644 284.346 211.856C289.382 215.645 296.302 216.705 302.375 214.986C307.012 213.692 309.365 211.738 312.378 208.702C315.532 205.171 317.085 201.217 317.627 196.51C317.744 195.333 317.674 194.25 317.65 193.073C317.627 192.65 318.709 191.261 319.816 190.084C320.781 189.072 321.746 188.225 322.052 188.201C322.546 188.39 322.617 188.272 322.687 188.719C322.828 189.755 323.064 190.531 323.158 191.591C323.276 192.697 323.346 193.638 323.346 194.839C323.37 209.479 310.26 221.836 295.643 221.459ZM299.174 204.677C296.82 206.137 283.498 190.649 282.062 189.402C280.933 187.166 284.769 183.494 286.864 183.729C287.617 183.965 296.067 192.203 298.279 194.58C299.268 194.203 310.636 183.212 319.816 176.033C325.347 171.749 330.078 168.807 331.302 170.36C332.031 171.278 326.5 177.445 319.816 184.318C310.801 193.591 299.715 204.136 299.174 204.677Z" fill="#B6C4DF"/>
<path d="M312.073 264.014C314.544 261.707 321.37 259.189 325.465 257.941C329.718 257.376 334.37 257.133 339.423 257.212C347.974 257.133 357.154 257.227 366.961 257.494C366.051 253.352 365.964 247.208 366.702 239.065C368.24 238.343 370.138 238.155 372.398 238.5C375.622 255.588 374.822 263.496 372.257 267.403C364.984 269.38 357.993 270.439 352.65 270.981C351.113 280.772 349.951 290.218 349.167 299.319C350.783 308.891 351.552 315.411 351.474 318.878C336.52 321.091 324.508 321.154 315.438 319.067C315.697 316.313 316.827 312.476 317.533 309.511C316.545 297.224 314.968 289.245 314.12 283.573C308.707 294.479 303.929 300.143 299.786 300.567C296.272 299.845 292.474 291.27 288.395 274.841C289.571 273.162 291.141 272.479 293.102 272.793C297.59 279.399 300.171 284.193 300.846 287.174C304.07 276.536 307.295 270.157 312.073 264.014Z" fill="#679BEC"/>
<path d="M337.516 255.658C336.598 255.211 331.585 255.305 326.595 256.341C327.128 255.525 327.552 254.466 327.866 253.163C336.763 251.822 335.892 249.633 335.562 248.621C333.773 243.843 332.691 240.806 333.985 239.371C334.644 239.7 336.033 240.43 336.598 242.525C337.139 242.172 337.869 241.724 337.963 241.089C338.175 239.182 338.104 235.205 340.293 234.852C340.733 236.609 341.117 238.468 341.447 240.43C342.694 241.442 342.835 245.467 342.058 250.174C342.796 252.779 341.274 254.332 337.492 254.834L337.516 255.658Z" fill="#FFB27D"/>
<path d="M335.562 248.621C335.892 249.633 336.762 251.822 327.866 253.163C323.864 252.551 320.334 249.28 319.769 247.797C314.567 239.088 319.416 234.922 322.028 233.345C322.617 224.331 336.151 231.321 342.364 226.543C345.189 229.932 342.294 234.64 340.293 234.852C338.104 235.205 338.175 239.182 337.963 241.089C337.869 241.724 337.139 242.172 336.598 242.525C336.033 240.43 334.644 239.7 333.985 239.371C332.691 240.806 333.773 243.843 335.562 248.621Z" fill="#22407A"/>
<path d="M326.595 256.341C326.101 256.812 325.606 257.353 325.159 258.036L325.465 257.941C329.608 257.392 334.127 257.149 339.022 257.212C338.528 256.576 337.987 256.035 337.516 255.658C336.598 255.211 331.585 255.305 326.595 256.341Z" fill="#3B7FE7"/>
<path d="M371.997 238.429C371.856 235.063 371.903 232.521 371.15 230.356C369.667 229.038 370.067 227.955 368.42 227.555C366.584 223.695 366.796 223.107 366.772 221.671C364.63 221.977 364.936 224.919 366.937 230.38C367.298 233.659 366.482 234.624 364.489 233.275C363.665 231.039 362.394 230.497 361.5 230.662C361.594 230.944 362.23 232.239 363.124 234.451C364.348 236.287 365.572 237.77 366.443 238.1C366.772 238.312 366.984 238.57 367.149 238.876C368.514 238.343 370.13 238.194 371.997 238.429Z" fill="#FFB27D"/>
<path d="M292.49 272.723C292.349 270.675 293.125 269.074 293.031 264.602C291.729 264.697 291.156 265.999 291.313 268.509C289.791 266.972 289.116 265.403 289.289 263.802C289.257 262.908 289.25 262.202 289.265 261.684C287.131 261.025 285.923 263.182 285.641 268.156C286.017 269.639 286.982 270.557 287.5 271.734C287.9 272.511 288.277 273.335 288.653 274.488C289.673 273.233 290.952 272.644 292.49 272.723Z" fill="#FCB88D"/>
<path d="M316.639 319.326C314.85 331.447 314.003 350.559 314.121 369.012C312.403 377.768 312.497 391.772 314.38 420.134C317.769 420.809 320.695 420.942 323.159 420.534C327.537 394.055 329.231 380.263 328.196 370.001C329.514 362.61 331.373 349.1 333.703 338.555C336.034 349.1 337.893 362.61 339.211 370.001C338.175 380.263 339.87 394.055 344.248 420.534C346.727 420.942 349.646 420.809 353.004 420.134C354.91 391.772 355.004 377.768 353.286 369.012C353.404 350.394 352.557 331.118 350.721 318.996C336.755 321.005 325.395 321.114 316.639 319.326Z" fill="#0E397C"/>
<path d="M345.731 425.642C344.884 426.301 344.695 429.314 345.354 431.621C348.108 432.845 350.791 432.515 353.404 431.268C354.746 430.75 356.323 429.879 356.299 428.914C356.252 427.102 356.205 427.078 352.486 425.148C352.549 425.525 352.612 425.862 352.674 426.16C352.51 426.584 352.18 426.913 351.568 426.513C350.885 426.066 351.121 424.63 349.191 424.607C347.59 424.583 347.567 426.09 346.79 426.607C345.943 427.196 345.754 426.301 345.731 425.642Z" fill="#163560"/>
<path d="M321.77 425.642C322.617 426.277 322.806 429.314 322.123 431.62C319.369 432.844 316.686 432.515 314.073 431.244C313.673 431.055 312.073 430.538 311.955 430.114C311.508 428.561 311.884 426.489 314.991 425.148C314.944 425.509 314.882 425.846 314.803 426.16C314.968 426.583 315.297 426.913 315.933 426.513C316.592 426.066 316.38 424.63 318.31 424.583C319.887 424.559 319.911 426.089 320.687 426.607C321.558 427.195 321.723 426.301 321.77 425.642Z" fill="#163560"/>
<path d="M345.66 420.723C345.943 422.967 346.021 424.889 345.896 426.49C346.037 426.796 346.319 426.937 346.79 426.607C347.567 426.089 347.59 424.583 349.191 424.607C351.121 424.63 350.885 426.066 351.568 426.513C352.18 426.913 352.509 426.584 352.674 426.16C352.376 424.779 352.196 422.826 352.133 420.299C349.732 420.723 347.574 420.864 345.66 420.723Z" fill="#FFB27D"/>
<path d="M321.84 420.699C321.542 422.959 321.464 424.889 321.605 426.49C321.44 426.796 321.181 426.937 320.687 426.607C319.91 426.089 319.887 424.56 318.31 424.583C316.38 424.63 316.592 426.066 315.932 426.513C315.297 426.913 314.967 426.584 314.803 426.16C315.117 424.779 315.297 422.826 315.344 420.299C317.745 420.723 319.91 420.856 321.84 420.699Z" fill="#FFB27D"/>
<path d="M352.65 270.981C348.837 283.142 346.279 292.541 344.977 299.178C340.113 302.552 336.7 305.039 334.739 306.639C341.627 302.748 345.864 300.332 347.448 299.39C349.065 303.423 350.406 309.919 351.473 318.879C351.552 315.411 350.783 308.891 349.167 299.319C349.951 290.219 351.112 280.772 352.65 270.981ZM298.845 294.706C299.347 291.097 300.014 288.587 300.845 287.174C300.657 286.358 300.328 285.401 299.857 284.303C298.79 288.602 298.452 292.07 298.845 294.706ZM366.961 257.494C368.875 258.185 370.342 258.977 371.362 259.872C369.605 258.287 368.035 256.922 366.655 255.776C366.749 256.388 366.851 256.961 366.961 257.494ZM313.391 278.889C313.453 279.862 313.697 281.424 314.12 283.573C314.968 289.246 316.544 297.225 317.533 309.511C316.827 312.477 315.697 316.313 315.438 319.067C315.627 319.114 315.823 319.153 316.027 319.185C316.435 317.176 317.36 314.391 318.804 310.829C319.369 311.221 321.024 311.825 323.77 312.641C322.562 311.574 321.362 310.547 320.169 309.558C318.082 297.586 315.823 287.363 313.391 278.889Z" fill="#3B7FE7"/>
<path d="M189.657 416.98C189.657 416.98 190.175 425.477 191.823 425.595C192.034 425.595 200.155 425.595 200.155 425.595L210.511 425.548C210.511 425.548 210.44 423.053 207.404 422.512C204.368 421.994 199.307 419.875 197.472 415.874C195.541 411.661 189.657 416.98 189.657 416.98Z" fill="#163560"/>
<path d="M189.045 417.569C189.045 417.569 192.199 418.628 194.647 418.628C197.401 418.628 199.896 417.875 199.896 417.875C199.896 417.875 200.484 412.132 203.732 399.516C205.45 392.902 207.898 384.382 211.382 373.814C220.985 344.581 223.88 327.493 224.162 325.869C224.186 325.775 224.186 325.751 224.186 325.751L224.139 325.728L194.623 312.759C194.623 312.759 198.272 353.03 193.611 368.518C192.976 370.66 192.411 373.178 191.917 375.908C188.974 392.714 189.045 417.569 189.045 417.569Z" fill="#0E397C"/>
<path d="M191.917 375.908L203.733 399.516C205.451 392.902 207.899 384.382 211.382 373.814C220.985 344.581 223.88 327.493 224.163 325.869C224.163 325.822 224.163 325.775 224.139 325.728L194.624 312.759C194.624 312.759 198.272 353.03 193.612 368.518C192.976 370.66 192.411 373.178 191.917 375.908Z" fill="#0C326D"/>
<path d="M212.7 416.98C212.7 416.98 213.242 425.477 214.889 425.595C215.101 425.595 223.198 425.595 223.198 425.595L233.577 425.548C233.577 425.548 233.507 423.053 230.471 422.512C227.434 421.994 222.374 419.875 220.538 415.874C218.608 411.661 212.7 416.98 212.7 416.98Z" fill="#163560"/>
<path d="M229.458 313.724C229.458 313.724 229.834 339.803 225.315 371.86C220.796 403.918 222.326 417.522 222.326 417.522C222.326 417.522 219.243 418.511 217.972 418.628C214.794 418.887 211.523 417.875 211.523 417.875C211.523 417.875 205.05 385.818 206.909 369.766C208.769 353.737 198.06 314.736 198.06 314.736L229.458 313.724Z" fill="#0E397C"/>
<path d="M205.591 251.822C205.591 251.822 190.622 267.097 189.892 273.123C189.139 279.148 197.236 288.563 197.236 288.563L205.591 251.822Z" fill="#3B7FE7"/>
<path d="M208.51 252.646L214.276 256.412L222.608 254.858C222.491 254.199 221.949 251.398 221.432 248.88C221.4 248.723 221.377 248.574 221.361 248.433C220.914 246.291 220.561 244.455 220.561 244.455L212.77 241.018L209.875 239.724C209.875 239.771 210.087 242.125 210.134 242.454C210.675 248.527 208.51 252.646 208.51 252.646Z" fill="#FFB27D"/>
<path d="M220.467 250.739C220.326 250.668 211.052 247.279 209.969 247.632C208.91 247.985 206.839 250.857 206.839 250.857L223.809 254.175C223.809 254.175 222.538 251.586 220.467 250.739Z" fill="#3B7FE7"/>
<path d="M193.894 316.925C195.565 324.574 223.409 325.469 230.588 318.549C231.412 317.749 231.435 314.077 231.129 309.134C230.517 299.46 228.587 284.891 228.517 277.453C228.493 273.876 227.999 270.204 227.34 266.862C225.951 259.754 223.809 254.175 223.809 254.175C223.809 254.175 210.205 249.774 207.663 250.527C195.4 254.128 192.223 309.299 193.894 316.925Z" fill="#679BEC"/>
<path d="M231.13 309.134C230.518 299.461 228.588 284.891 228.517 277.454C228.493 273.876 227.999 270.204 227.34 266.862L219.149 265.426C219.149 265.426 211.17 298.096 231.13 309.134Z" fill="#3B7FE7"/>
<path d="M210.722 242.572C212.417 245.467 218.772 247.962 221.431 248.88C221.4 248.723 221.377 248.574 221.361 248.432C220.914 246.291 220.561 244.455 220.561 244.455L212.77 241.018C211.052 240.995 209.992 241.371 210.722 242.572Z" fill="#F08261"/>
<path d="M223.479 243.984C223.479 243.984 210.958 247.891 208.628 240.03C206.321 232.192 203.143 227.414 211.052 224.59C218.96 221.765 221.408 224.307 222.82 226.731C224.209 229.156 226.68 242.76 223.479 243.984Z" fill="#FFB27D"/>
<path d="M222.326 225.978C222.326 225.978 221.526 235.087 219.619 234.711C217.736 234.31 216.041 234.004 216.3 236.758C216.583 239.512 216.3 243.396 210.487 243.866C204.673 244.361 199.212 228.661 200.813 225.837C205.426 217.623 228.987 215.975 222.326 225.978Z" fill="#22407A"/>
<path d="M227.434 294.424C227.434 294.424 228.516 296.801 229.481 297.295C230.729 297.931 231.576 298.896 231.67 299.319C232 300.684 231.859 303.226 230.8 304.592C230.07 305.51 230.847 301.414 226.987 300.496C225.739 300.19 223.95 299.249 223.927 297.507C223.927 295.436 224.162 293.882 224.162 293.882L227.434 294.424Z" fill="#FFB27D"/>
<path d="M224.186 298.59C224.186 298.59 226.116 303.015 226.633 302.85C227.975 302.403 226.492 300.873 226.61 299.602C226.68 298.778 224.186 298.59 224.186 298.59Z" fill="#FFB27D"/>
<path d="M217.548 252.222C217.548 252.222 225.527 253.705 231.882 263.072C238.26 272.44 242.426 279.407 241.25 282.796C240.096 286.162 232.235 297.86 230.399 297.86C228.563 297.86 223.667 296.636 223.503 293.623C223.503 293.623 228.775 281.949 227.998 279.854C227.174 277.595 218.866 272.44 217.571 275.782C215.43 281.337 217.548 252.222 217.548 252.222Z" fill="#679BEC"/>
<path d="M451.364 194.627C478.737 194.627 500.909 216.822 500.909 244.196C500.909 271.546 478.737 293.741 451.364 293.741C423.99 293.741 401.818 271.546 401.818 244.196C401.818 216.822 423.99 194.627 451.364 194.627Z" fill="white"/>
<path d="M527.082 291.458L520.892 286.256C520.892 286.256 515.361 290.187 508.818 294.071C506.558 290.987 502.227 280.49 501.992 279.996C501.78 279.478 504.816 272.558 503.969 272.487C503.098 272.417 502.415 276.183 501.474 275.9C500.533 275.641 497.284 267.45 496.79 267.968C495.872 268.957 498.602 273.099 498.108 273.476C497.614 273.852 495.66 268.815 494.672 269.145C493.66 269.498 496.931 273.688 496.672 274.158C496.414 274.606 493.048 270.722 492.577 271.758C492.318 272.322 495.66 275.147 495.072 275.571C494.507 275.994 491.588 274.3 491.353 274.982C491.094 275.665 494.013 276.018 494.978 277.548C495.943 279.078 497.449 279.548 498.273 282.585C499.097 285.597 502.251 301.861 505.734 302.803C508.794 303.627 527.082 291.458 527.082 291.458Z" fill="#FFB27D"/>
<path d="M567.684 273.641C568.884 267.639 566.131 261.707 560.858 259.471C560.882 256.059 559.564 252.646 557.304 250.316C552.809 245.702 544.5 243.207 541.205 249.068C536.851 251.587 533.414 257.047 534.732 262.037C530.496 266.509 532.096 274.606 538.263 278.442C538.169 283.456 540.758 288.445 545.041 290.587C546.077 291.105 547.678 291.835 547.889 292.047C547.607 291.788 551.067 301.626 561.753 297.13C572.674 292.541 574.792 279.619 567.684 273.641Z" fill="#22407A"/>
<path d="M552.126 404.647L549.114 417.333L544.594 417.31L544.43 404.647H552.126Z" fill="#FFB27D"/>
<path d="M514.137 405.189L505.57 417.334L502.228 413.05L507.382 403.518L514.137 405.189Z" fill="#FFB27D"/>
<path d="M540.263 276.7C540.216 276.724 543.888 278.607 546.618 277.877C549.207 277.171 550.902 273.805 550.878 273.805C549.772 273.57 549.466 272.063 549.49 265.591L548.995 265.709L540.663 267.356C540.663 267.356 540.852 269.969 540.852 272.44C540.852 274.511 540.734 276.488 540.263 276.7Z" fill="#FFB27D"/>
<path d="M553.632 250.645C553.632 250.645 550.455 245.537 544.57 248.597C544.57 248.597 547.63 248.691 553.632 250.645Z" fill="#3B7FE7"/>
<path d="M540.663 267.356C540.663 267.356 540.851 269.969 540.851 272.44C545.512 272.299 547.983 268.062 548.995 265.708L540.663 267.356Z" fill="#F08261"/>
<path d="M550.713 265.991C550.713 265.991 553.867 262.696 555.091 259.566C555.962 257.353 556.527 248.55 547.653 248.032C547.653 248.032 545.111 247.773 542.452 248.903C540.31 249.774 537.085 251.963 538.592 260.036L538.851 262.719L550.713 265.991Z" fill="#22407A"/>
<path d="M503.027 410.272C503.027 410.272 505.24 410.649 507.052 410.79C507.452 410.814 507.852 410.837 508.182 410.837C509.053 410.837 510.63 410.508 511.689 410.249H511.76C512.23 410.131 512.583 410.037 512.725 410.013L512.772 409.99C512.772 409.99 523.81 397.704 530.024 377.98C530.165 377.525 530.314 377.062 530.471 376.591C533.861 366.705 540.898 354.301 544.594 343.074C545.174 341.286 545.708 339.599 546.194 338.014C546.335 337.496 546.477 336.994 546.618 336.508C549.348 327.022 550.148 320.785 550.878 314.147L528.612 319.82C528.612 319.82 519.268 360.327 503.027 410.272Z" fill="#0E397C"/>
<path d="M539.204 268.674C539.204 268.674 549.984 271.028 551.349 264.296C552.714 257.541 555.021 253.328 548.195 251.539C541.37 249.75 539.51 252.034 538.498 254.175C537.51 256.317 536.427 267.874 539.204 268.674Z" fill="#FFB27D"/>
<path d="M543.299 250.386C543.299 250.386 544.664 258.883 548.971 260.954C553.279 263.049 555.515 262.225 555.515 262.225C555.515 262.225 552.572 258.742 552.831 253.775C552.831 253.775 546.288 247.067 543.299 250.386Z" fill="#22407A"/>
<path d="M543.912 251.163C543.912 251.163 541.346 252.481 540.452 254.081C539.581 255.682 538.616 259.189 537.604 258.859C537.604 258.859 536.474 253.022 539.581 250.504C542.899 247.82 543.912 251.163 543.912 251.163Z" fill="#22407A"/>
<path d="M549.254 416.627C549.254 416.627 548.901 419.146 549.819 421.829C549.819 421.829 550.572 425.195 547.254 425.265C543.935 425.313 543.135 425.007 543.511 422.935C543.864 420.888 544.594 417.31 544.594 417.31L549.254 416.627Z" fill="#F7B87C"/>
<path d="M549.82 421.829C549.82 421.829 550.455 425.007 550.079 426.701C550.079 426.701 549.066 427.454 546.666 427.454C544.383 427.454 543.182 426.701 543.182 426.701C543.182 426.701 543.112 423.218 543.724 421.735C543.724 421.735 546.077 425.265 549.82 421.829Z" fill="#0C326D"/>
<path d="M494.225 423.288C494.225 423.288 500.344 416.486 502.227 413.05L506.77 415.38L496.602 424.912L494.225 424.606V423.288Z" fill="#F7B87C"/>
<path d="M490.341 427.266C490.341 427.266 496.908 427.266 498.037 427.125C499.167 427.007 500.085 425.383 501.285 422.935C501.803 421.947 502.91 421.405 504.063 421.099V426.748H505.805L507.452 420.746C508.535 418.746 507.523 416.933 506.77 415.38C505.875 415.38 503.498 415.968 498.979 421.052C497.496 422.723 495.848 423.335 494.224 423.288L494.154 423.312C490.411 425.006 490.341 427.266 490.341 427.266Z" fill="#0C326D"/>
<path d="M507.053 410.79C507.453 410.814 507.853 410.837 508.183 410.837C509.053 410.837 510.63 410.508 511.69 410.249H511.76L512.725 410.014L512.772 409.99C512.772 409.99 523.811 397.704 530.025 377.98C530.166 377.525 530.315 377.062 530.472 376.591C533.861 366.706 540.899 354.302 544.594 343.075C545.175 341.286 545.708 339.599 546.195 338.014C546.336 337.496 546.477 336.994 546.618 336.508L542.688 333.519C542.688 333.519 530.872 352.654 527.2 370.683C524.164 385.606 511.101 404.977 507.053 410.79Z" fill="#0C326D"/>
<path d="M542.287 372.355C542.217 381.11 542.664 401.258 543.794 409.613C543.794 409.613 544.877 410.555 547.56 410.579C550.314 410.579 551.538 409.566 551.538 409.566C554.409 395.068 556.433 383.064 557.916 372.731C559.14 364.258 560.223 356.961 561.046 350.724C561.776 345.169 562.317 340.415 562.6 336.319C562.631 335.755 562.655 335.205 562.671 334.672C562.702 333.966 562.725 333.283 562.741 332.624C562.757 331.965 562.765 331.322 562.765 330.694L562.671 330.671L557.139 330.129L539.651 328.435C539.934 343.781 542.311 367.271 542.287 372.355Z" fill="#0E397C"/>
<path d="M547.56 410.578C549.89 410.696 551.537 409.566 551.537 409.566C554.409 395.067 556.433 383.064 557.916 372.731C559.14 364.258 560.222 356.961 561.046 350.724C561.776 345.169 562.317 340.415 562.6 336.319C562.623 334.295 562.647 332.365 562.67 330.67C562.694 328.976 562.717 327.54 562.764 326.528L557.139 330.129L551.208 333.918C551.208 333.918 559.61 341.568 557.539 356.02C555.491 370.471 550.431 408.531 547.56 410.578Z" fill="#0C326D"/>
<path d="M542.97 273.523C542.97 273.523 534.003 272.087 530.99 275.1C526.165 278.113 509.03 292.306 508.63 293.412C508.748 294.33 510.16 302.168 511.407 300.873C538.122 294.212 540.805 278.395 542.97 273.523Z" fill="#699DEE"/>
<path d="M525.459 295.553C537.675 288.751 548.502 284.35 539.11 278.795C539.11 278.795 528.778 284.42 527.436 287.763C526.942 288.986 525.789 292.846 525.459 295.553Z" fill="#3B7FE7"/>
<path d="M525.529 332.365C532.237 334.107 563.541 337.543 563.8 329.705C563.871 327.799 563.8 325.492 563.659 322.974C563.188 315.254 561.917 305.674 561.305 300.426C561.023 298.001 561.941 287.198 561.235 281.314C561.141 280.443 560.999 279.666 560.811 279.054C559.446 274.606 553.373 273.405 550.267 273.287L540.852 272.981C540.852 272.981 531.155 283.832 529.789 287.174C528.448 290.493 528.001 301.908 526.941 307.44C525.906 312.971 522.281 331.518 525.529 332.365Z" fill="#679BEC"/>
<path d="M552.573 309.746C552.573 309.746 555.515 328.317 563.659 329.541C563.377 320.573 562.671 309.511 562.317 303.415C562.176 300.637 562.694 288.116 562.294 281.313C562.176 281.361 562.082 281.478 561.988 281.525C553.044 285.056 551.773 305.862 552.573 309.746Z" fill="#3B7FE7"/>
<path d="M543.982 265.167C542.17 265.167 541.181 265.12 539.44 264.955C538.757 264.908 540.169 266.838 544.076 265.261C544.17 265.238 544.1 265.167 543.982 265.167Z" fill="#F08261"/>
<path d="M544.405 256.341C543.535 256.411 543.582 257.118 544.217 257.282C551.09 259.001 546.547 256.2 544.405 256.341Z" fill="#22407A"/>
<path d="M540.616 255.776C541.44 256.082 541.205 256.717 540.522 256.694C533.461 256.364 538.616 254.976 540.616 255.776Z" fill="#22407A"/>
<path d="M540.875 263.473L540.828 263.449C540.051 263.284 539.651 263.19 539.51 262.908C539.392 262.625 539.51 262.343 539.745 261.801C540.028 261.213 540.428 260.319 540.781 258.836C540.805 258.718 540.899 258.671 541.016 258.695C541.111 258.695 541.181 258.812 541.158 258.93C540.805 260.436 540.404 261.354 540.122 261.966C539.957 262.319 539.84 262.625 539.887 262.719C539.934 262.837 540.475 262.978 540.922 263.072C541.016 263.096 541.087 263.19 541.063 263.308C541.04 263.402 540.946 263.473 540.875 263.473Z" fill="#F08261"/>
<path d="M538.451 260.06C537.957 260.013 537.769 258.083 538.969 258.224C539.604 258.295 539.275 260.154 538.451 260.06Z" fill="#22407A"/>
<path d="M544.641 260.836C544.146 260.789 543.958 258.859 545.158 259.001C545.794 259.071 545.441 260.931 544.641 260.836Z" fill="#22407A"/>
<path d="M425.403 271.922C386.826 234.687 438.631 176.362 480.597 209.785C498.979 224.425 497.567 251.492 484.057 268.439C469.417 286.821 442.373 285.409 425.403 271.922C419.566 267.262 412.293 276.3 418.153 280.961C441.69 299.696 472.359 297.201 493.119 275.688C513.949 254.081 507.782 219.976 487.846 200.723C466.239 179.893 432.134 186.06 412.881 206.019C392.051 227.602 398.218 261.707 418.153 280.961C423.543 286.162 430.746 277.077 425.403 271.922Z" fill="#C1CDE5"/>
<path d="M486.552 284.868C483.139 281.878 483.633 275.759 487.611 271.216C491.612 266.674 497.614 265.379 501.003 268.368C504.416 271.357 503.922 277.454 499.944 282.02C495.943 286.562 489.941 287.833 486.552 284.868Z" fill="#ABBBDB"/>
<path d="M507.218 302.991C503.828 300.026 504.299 293.906 508.3 289.363C512.302 284.797 518.28 283.526 521.693 286.515C525.082 289.481 524.612 295.601 520.61 300.143C516.633 304.709 510.631 305.98 507.218 302.991Z" fill="#ABBBDB"/>
<path d="M547.419 338.249C544.03 335.284 544.5 329.164 548.502 324.598C552.503 320.055 558.481 318.784 561.894 321.773C565.283 324.739 564.813 330.859 560.811 335.401C556.834 339.967 550.832 341.238 547.419 338.249Z" fill="#ABBBDB"/>
<path d="M556.009 338.908C553.467 336.672 553.114 332.906 555.233 330.506C557.327 328.105 561.117 327.964 563.635 330.176C566.177 332.412 566.53 336.178 564.412 338.555C562.317 340.98 558.528 341.121 556.009 338.908Z" fill="#ABBBDB"/>
<path fill-rule="evenodd" clip-rule="evenodd" d="M520.186 288.21C533.477 299.869 546.775 311.527 560.081 323.186C561.258 324.245 561.376 326.104 560.34 327.281C557.798 330.184 555.249 333.095 552.691 336.013C551.655 337.19 549.796 337.308 548.619 336.272C535.297 324.598 522.022 312.947 508.724 301.273C508.112 300.755 507.853 300.143 507.782 299.531L507.735 299.296L507.759 299.037C507.759 298.425 507.924 297.789 508.441 297.201C510.983 294.282 513.533 291.372 516.091 288.469C517.127 287.292 518.986 287.151 520.186 288.21ZM548.337 332.177C549.608 330.718 550.879 329.282 552.15 327.823C540.318 317.435 528.479 307.047 516.632 296.66C515.361 298.103 514.082 299.555 512.796 301.014C524.643 311.402 536.49 321.789 548.337 332.177Z" fill="#ABBBDB"/>
<path d="M486.104 275.9L492.083 269.098L517.456 291.34L511.477 298.166L486.104 275.9Z" fill="#ABBBDB"/>
<path d="M540.381 320.032C540.287 320.055 539.816 319.985 539.439 319.985C538.922 320.008 538.474 320.079 538.474 320.079C538.474 320.079 538.262 319.914 537.862 319.726C537.698 319.655 537.439 319.632 537.25 319.538C537.062 319.444 536.921 319.302 536.733 319.208C536.285 319.02 535.862 318.973 535.72 319.208C535.603 319.42 538.168 320.973 538.168 320.973C540.546 320.997 543.017 322.221 548.548 318.62C551.679 317.231 567.848 310.288 568.154 308.64C569.402 306.333 565.095 299.978 563.165 294.565C561.705 295.224 558.551 296.613 556.81 297.366C558.41 300.779 559.893 304.874 559.681 305.439C559.634 305.58 559.869 306.263 549.537 313.018C549.286 313.191 549.027 313.363 548.76 313.536C548.022 314.022 547.246 314.532 546.43 315.066L543.464 314.76C543.464 314.76 538.804 315.089 538.663 315.607C538.616 315.842 538.992 315.984 539.463 316.054H539.486C539.549 316.054 539.62 316.062 539.698 316.078C540.216 316.125 540.757 316.148 540.899 316.195C541.04 316.242 541.346 316.36 541.605 316.525C538.686 317.725 538.898 317.302 537.933 317.231C537.698 317.207 537.439 317.278 537.227 317.278C536.827 317.231 536.521 316.996 536.215 316.972C535.768 316.949 535.415 317.16 535.32 317.255C535.226 317.349 535.415 317.49 535.791 317.678C538.027 318.643 539.91 318.267 540.498 318.408C540.899 318.502 540.169 318.667 539.016 318.549C538.733 318.502 538.357 318.62 537.98 318.526C537.721 318.478 537.509 318.314 537.25 318.243C537.039 318.196 536.803 318.196 536.615 318.149C536.356 318.125 536.003 317.914 535.815 317.89C535.061 317.819 534.685 317.937 534.614 318.008C534.449 318.173 537.815 319.467 537.815 319.467C537.815 319.467 540.169 319.797 540.687 319.797C540.687 319.797 540.993 319.938 540.381 320.032Z" fill="#FFB27D"/>
<path d="M547.183 280.042C547.183 280.042 555.891 274.417 559.186 276.724C565.188 280.913 569.778 304.78 569.001 308.004C568.672 309.369 563.211 310.876 559.681 305.439C557.868 302.614 547.983 285.785 547.183 280.042Z" fill="#699DEE"/>
<path d="M416.765 235.934C418.624 232.592 420.954 229.462 423.896 226.708C438.748 212.633 462.191 213.268 476.243 228.12C484.48 236.805 487.681 248.432 485.916 259.401C493.33 245.679 491.494 228.261 480.244 216.352C466.169 201.5 442.749 200.864 427.874 214.963C421.731 220.777 417.989 228.191 416.765 235.934Z" fill="#F6F8FB"/>
<path fill-rule="evenodd" clip-rule="evenodd" d="M410.057 132.489C393.463 132.489 379.953 118.979 379.953 102.386C379.953 85.7921 393.463 72.3054 410.057 72.3054C426.65 72.3054 440.161 85.7921 440.161 102.386C440.161 118.979 426.65 132.489 410.057 132.489ZM410.057 81.3907C398.477 81.3907 389.062 90.8055 389.062 102.386C389.062 113.966 398.477 123.381 410.057 123.381C421.637 123.381 431.052 113.966 431.052 102.386C431.052 90.8055 421.637 81.3907 410.057 81.3907Z" fill="#C1CDE5"/>
<path d="M384.52 102.386C384.52 88.2871 395.958 76.8481 410.057 76.8481C424.156 76.8481 435.595 88.2871 435.595 102.386C435.595 116.508 424.156 127.923 410.057 127.923C395.958 127.923 384.52 116.508 384.52 102.386Z" fill="white"/>
<path d="M410.598 103.798L409.516 100.973L418.742 97.49L421.637 97.8901L419.801 100.338L410.598 103.798Z" fill="#C1CDE5"/>
<path d="M410.904 102.362L409.163 102.409L409.068 88.6166L409.869 84.9919L410.834 88.546L410.904 102.362Z" fill="#C1CDE5"/>
<path d="M406.903 102.386C406.903 100.644 408.316 99.2317 410.057 99.2317C411.799 99.2317 413.211 100.644 413.211 102.386C413.211 104.127 411.799 105.54 410.057 105.54C408.316 105.54 406.903 104.127 406.903 102.386Z" fill="#C1CDE5"/>
<path d="M410.834 83.8621H409.28V79.6255H410.834V83.8621Z" fill="#C1CDE5"/>
<path d="M419.989 86.7335L418.647 85.9568L420.766 82.3086L422.107 83.0853L419.989 86.7335Z" fill="#C1CDE5"/>
<path d="M426.486 93.7947L425.709 92.453L429.381 90.3347L430.157 91.6999L426.486 93.7947Z" fill="#C1CDE5"/>
<path d="M428.605 103.162L428.581 101.609H432.818V103.162H428.605Z" fill="#C1CDE5"/>
<path d="M425.709 112.318L426.486 110.977L430.157 113.095L429.381 114.436L425.709 112.318Z" fill="#C1CDE5"/>
<path d="M418.647 118.838L419.989 118.061L422.107 121.71L420.766 122.486L418.647 118.838Z" fill="#C1CDE5"/>
<path d="M409.28 120.933H410.834V125.146H409.28V120.933Z" fill="#C1CDE5"/>
<path d="M400.124 118.061L401.466 118.838L399.347 122.486L398.006 121.71L400.124 118.061Z" fill="#C1CDE5"/>
<path d="M393.629 110.977L394.406 112.318L390.734 114.436L389.957 113.095L393.629 110.977Z" fill="#C1CDE5"/>
<path d="M391.534 101.609V103.162H387.297V101.609H391.534Z" fill="#C1CDE5"/>
<path d="M394.406 92.453L393.629 93.7947L389.957 91.6763L390.734 90.3347L394.406 92.453Z" fill="#C1CDE5"/>
<path d="M401.466 85.9569L400.124 86.7336L398.006 83.0619L399.347 82.2852L401.466 85.9569Z" fill="#C1CDE5"/>
</svg>
