<svg id="Layer_5" enable-background="new 0 0 64 64" height="300" viewBox="0 0 64 64" width="300" xmlns="http://www.w3.org/2000/svg" version="1.1" xmlns:xlink="http://www.w3.org/1999/xlink" xmlns:svgjs="http://svgjs.dev/svgjs"><g width="100%" height="100%" transform="matrix(1,0,0,1,0,0)"><g><path d="m27 15v2c5.514 0 10 4.486 10 10h2c0-6.617-5.383-12-12-12z" fill="#009dc9" fill-opacity="1" data-original-color="#000000ff" stroke="none" stroke-opacity="1"/><path d="m25.181 17.165-.362-1.967c-.746.138-1.48.346-2.183.621l.729 1.862c.583-.228 1.195-.402 1.816-.516z" fill="#009dc9" fill-opacity="1" data-original-color="#000000ff" stroke="none" stroke-opacity="1"/><path d="m7 34c0-1.654 1.346-3 3-3v-2c-2.757 0-5 2.243-5 5s2.243 5 5 5h3v-2h-3c-1.654 0-3-1.346-3-3z" fill="#009dc9" fill-opacity="1" data-original-color="#000000ff" stroke="none" stroke-opacity="1"/><path d="m15 37h2v2h-2z" fill="#009dc9" fill-opacity="1" data-original-color="#000000ff" stroke="none" stroke-opacity="1"/><path d="m19 37h2v2h-2z" fill="#009dc9" fill-opacity="1" data-original-color="#000000ff" stroke="none" stroke-opacity="1"/><path d="m54 25c-.66 0-1.306.097-1.944.238-1.199-2.239-3.432-3.839-6.056-4.168v-4.07c0-.551.449-1 1-1h7v3.618l9.236-4.618-9.236-4.618v3.618h-7c-1.654 0-3 1.346-3 3v4.067c-.676.085-1.336.26-1.966.511-.503-1.389-1.187-2.689-2.034-3.87v-9.708c0-.551.449-1 1-1h8v3.618l9.236-4.618-9.236-4.618v3.618h-8c-1.654 0-3 1.346-3 3v7.411c-2.87-2.726-6.738-4.411-11-4.411-1.747 0-3.424.292-5 .809v-3.809c0-1.654-1.346-3-3-3h-8v-3.618l-9.236 4.618 9.236 4.618v-3.618h8c.551 0 1 .449 1 1v4.62c-4.77 2.32-8.211 6.934-8.87 12.459-.371-.047-.747-.079-1.13-.079-4.962 0-9 4.038-9 9 0 4.539 3.381 8.294 7.755 8.904.596 2.368 1.523 4.62 2.802 6.694l-1.289 2.469 6.695 6.695 2.469-1.29c2.176 1.342 4.526 2.317 7.001 2.905l.833 2.652h9.469l.833-2.652c2.475-.588 4.825-1.563 7.001-2.905l2.469 1.29 6.695-6.695-1.289-2.469c1.278-2.074 2.206-4.326 2.802-6.694 4.373-.61 7.754-4.365 7.754-8.904 0-4.962-4.038-9-9-9zm2-11.382 2.764 1.382-2.764 1.382zm-5-9 2.764 1.382-2.764 1.382zm-42 2.764-2.764-1.382 2.764-1.382zm42.28 44.309-4.619 4.618-2.196-1.147-.49.319c-2.272 1.479-4.761 2.511-7.396 3.068l-.572.121-.74 2.359h-6.531l-.74-2.359-.572-.121c-2.636-.558-5.125-1.59-7.396-3.068l-.49-.319-2.196 1.147-4.619-4.618 1.147-2.196-.319-.49c-1.208-1.857-2.1-3.876-2.698-6.004h4.183c2.529 7.221 9.247 12.028 16.964 12.028s14.435-4.807 16.966-12.029h4.183c-.598 2.128-1.49 4.148-2.698 6.004l-.319.49zm-29.673-8.691c2.142 3.732 6.067 6.029 10.393 6.029s8.251-2.297 10.393-6.029h4.451c-2.417 6.051-8.221 10.029-14.844 10.029s-12.427-3.978-14.844-10.029zm2.4 0h15.986c-1.869 2.513-4.795 4.029-7.993 4.029s-6.124-1.516-7.993-4.029zm29.993-2h-44c-3.86 0-7-3.14-7-7s3.14-7 7-7 7 3.14 7 7h2c0-3.875-2.467-7.177-5.91-8.442.725-7.098 6.685-12.558 13.91-12.558 7.72 0 14 6.28 14 14h2c0-1.202-.144-2.37-.397-3.497.752-.328 1.567-.503 2.397-.503 3.309 0 6 2.691 6 6h2c0-.65-.086-1.278-.233-1.883.405-.072.816-.117 1.233-.117 3.86 0 7 3.14 7 7s-3.14 7-7 7z" fill="#009dc9" fill-opacity="1" data-original-color="#000000ff" stroke="none" stroke-opacity="1"/><path d="m26 31c-1.654 0-3 1.346-3 3s1.346 3 3 3 3-1.346 3-3-1.346-3-3-3zm0 4c-.551 0-1-.449-1-1s.449-1 1-1 1 .449 1 1-.449 1-1 1z" fill="#009dc9" fill-opacity="1" data-original-color="#000000ff" stroke="none" stroke-opacity="1"/><path d="m34 31c-1.654 0-3 1.346-3 3s1.346 3 3 3 3-1.346 3-3-1.346-3-3-3zm0 4c-.551 0-1-.449-1-1s.449-1 1-1 1 .449 1 1-.449 1-1 1z" fill="#009dc9" fill-opacity="1" data-original-color="#000000ff" stroke="none" stroke-opacity="1"/><path d="m42 31c-1.654 0-3 1.346-3 3s1.346 3 3 3 3-1.346 3-3-1.346-3-3-3zm0 4c-.551 0-1-.449-1-1s.449-1 1-1 1 .449 1 1-.449 1-1 1z" fill="#009dc9" fill-opacity="1" data-original-color="#000000ff" stroke="none" stroke-opacity="1"/></g></g></svg>