<svg id="Layer_1" viewBox="0 0 512 512" xmlns="http://www.w3.org/2000/svg" data-name="Layer 1" width="300" height="300" version="1.1" xmlns:xlink="http://www.w3.org/1999/xlink" xmlns:svgjs="http://svgjs.dev/svgjs"><g width="100%" height="100%" transform="matrix(1,0,0,1,0,0)"><path d="m502.004 438.934h-13.223c2.835-4.258 4.492-9.365 4.492-14.854v-234.34c0-14.817-12.055-26.873-26.872-26.873h-26.889c.002-.228.017-.452.017-.68 0-25.794-14.356-49.53-36.918-61.625.025-.599.039-1.194.039-1.786 0-22.258-18.108-40.366-40.366-40.366-2.901 0-5.76.305-8.543.907-20.579-34.25-57.602-55.332-97.755-55.332-53.429 0-99.317 36.864-111.123 88.409-.877-.036-1.743-.054-2.604-.054-38.497 0-69.817 31.333-69.817 69.847 0 .228.015.452.017.68h-26.889c-14.817 0-26.873 12.056-26.873 26.873v234.34c0 5.488 1.657 10.595 4.493 14.854h-13.194c-3.319 0-6.01 2.69-6.01 6.01v28.517c0 19.054 15.488 34.555 34.525 34.555h434.948c19.054 0 34.555-15.501 34.555-34.555v-28.517c0-3.319-2.69-6.01-6.01-6.01zm-359.745-334.574c2.134 0 4.336.135 6.733.414 3.136.359 6.047-1.783 6.608-4.907 8.731-48.593 50.949-83.862 100.385-83.862 37.362 0 71.694 20.403 89.599 53.247 1.416 2.599 4.516 3.779 7.297 2.783 2.985-1.065 6.149-1.605 9.403-1.605 15.631 0 28.347 12.716 28.347 28.347 0 1.46-.111 2.957-.332 4.449-.392 2.644 1.01 5.228 3.438 6.342 20.517 9.412 33.772 30.066 33.772 52.62 0 31.87-25.929 57.798-57.799 57.798h-25.568v-7.965c0-5.696-3.699-10.522-9.212-12.012l-8.501-2.284c-1.089-3.266-2.407-6.452-3.942-9.531l4.38-7.608c2.827-4.893 2.003-11.07-1.975-14.993l-13.181-13.211c-4.058-4-10.081-4.783-14.997-1.944l-7.61 4.402c-3.099-1.551-6.282-2.875-9.519-3.96l-2.261-8.472c-1.476-5.514-6.303-9.219-12.014-9.219h-18.652c-5.693 0-10.51 3.705-11.982 9.208l-2.284 8.479c-3.238 1.085-6.425 2.411-9.527 3.963l-7.613-4.404c-4.937-2.852-10.961-2.057-14.994 1.976l-13.18 13.182c-3.971 3.971-4.782 10.137-1.974 14.996l4.401 7.609c-1.552 3.103-2.877 6.289-3.963 9.528l-8.468 2.281c-5.515 1.475-9.22 6.291-9.22 11.985v7.993h-25.597c-31.87 0-57.798-25.928-57.798-57.798s25.928-57.827 57.798-57.827zm279.496 248.314h-138.783v-20.919c0-1.398 1.194-2.579 2.607-2.579h133.597c1.422 0 2.579 1.157 2.579 2.579zm0 12.02v43.483h-138.783v-43.483zm12.02-6.01v-26.929c0-8.05-6.549-14.599-14.599-14.599h-133.597c-8.065 0-14.627 6.549-14.627 14.599v76.422h-29.934v-76.422c0-8.05-6.549-14.599-14.599-14.599h-133.595c-8.05 0-14.599 6.549-14.599 14.599v76.422h-16.753v-202.535h26.202c12.803 16.049 32.507 26.362 54.585 26.362h25.677c.538 5.104 4.07 9.297 9.143 10.652l8.465 2.261c1.094 3.276 2.418 6.464 3.957 9.53l-4.396 7.601c-2.839 4.911-2.057 10.938 1.975 15.023l13.151 13.125c3.952 4.005 10.131 4.829 15.016 2.008l7.616-4.385c3.066 1.529 6.253 2.853 9.528 3.956l2.288 8.495c1.464 5.419 6.392 9.204 11.981 9.204h18.652c5.696 0 10.522-3.699 12.016-9.226l2.261-8.49c3.261-1.089 6.445-2.406 9.521-3.939l7.609 4.381c4.947 2.857 10.974 2.074 14.992-1.947l13.182-13.182c4.039-4.038 4.833-10.075 1.979-15.014l-4.384-7.615c1.54-3.087 2.858-6.272 3.942-9.524l8.507-2.266c5.061-1.367 8.586-5.557 9.125-10.648h25.648c22.079 0 41.783-10.313 54.586-26.362h26.201v202.535h-16.724v-49.493zm-204.775-6.01h-138.755v-20.919c0-1.422 1.157-2.579 2.579-2.579h133.597c1.422 0 2.579 1.157 2.579 2.579zm0 12.02v43.483h-138.755v-43.483zm-27.424-179.636-6.066-10.487c-.074-.13-.125-.288.067-.481l13.181-13.182c.151-.153.295-.175.481-.067l10.487 6.066c1.833 1.061 4.091 1.077 5.94.044 4.265-2.384 8.738-4.243 13.298-5.528 2.036-.574 3.621-2.178 4.172-4.221l3.149-11.689c.067-.253.198-.305.374-.305h18.652c.269 0 .351.111.401.302l3.117 11.679c.548 2.05 2.135 3.659 4.176 4.234 4.562 1.285 9.035 3.146 13.298 5.528 1.85 1.033 4.107 1.018 5.94-.044l10.484-6.064c.084-.048.28-.164.504.057l13.19 13.22c.097.095.18.209.033.462l-6.038 10.488c-1.056 1.833-1.069 4.085-.037 5.931 2.345 4.194 4.195 8.667 5.499 13.296.574 2.038 2.179 3.624 4.225 4.174l11.7 3.145c.281.076.318.248.318.406v18.623c0 .158-.037.33-.299.401l-11.707 3.118c-2.054.547-3.666 2.139-4.24 4.186-1.287 4.597-3.137 9.067-5.496 13.287-1.032 1.846-1.019 4.098.037 5.931l6.043 10.496c.118.206.101.345-.066.512l-13.183 13.183c-.065.064-.201.2-.49.032l-10.488-6.038c-1.833-1.056-4.085-1.069-5.93-.038-4.195 2.345-8.669 4.195-13.298 5.5-2.042.576-3.63 2.187-4.176 4.238l-3.112 11.686c-.076.283-.257.319-.406.319h-18.652c-.08 0-.292 0-.377-.315l-3.146-11.679c-.548-2.032-2.119-3.631-4.143-4.212-4.672-1.343-9.155-3.206-13.327-5.537-.911-.509-1.922-.764-2.932-.764-1.035 0-2.071.268-2.998.802l-10.494 6.042c-.268.154-.381.039-.494-.074l-13.143-13.116c-.257-.26-.145-.455-.097-.537l6.066-10.488c1.065-1.843 1.077-4.113.029-5.967-2.348-4.151-4.203-8.616-5.514-13.27-.575-2.043-2.185-3.63-4.234-4.177l-11.676-3.118c-.226-.061-.306-.165-.306-.402v-18.651c0-.176.052-.307.316-.377l11.679-3.146c2.044-.551 3.647-2.136 4.221-4.173 1.285-4.561 3.145-9.034 5.527-13.296 1.034-1.85 1.018-4.107-.043-5.941zm-170.86 239.022v-234.34c0-8.19 6.663-14.854 14.854-14.854h28.051c1.222 6.618 3.377 12.909 6.329 18.736h-24.487c-3.319 0-6.01 2.69-6.01 6.01v214.555c0 3.319 2.69 6.01 6.01 6.01h401.046c3.319 0 6.01-2.69 6.01-6.01v-214.555c0-3.319-2.69-6.01-6.01-6.01h-24.486c2.952-5.827 5.107-12.118 6.329-18.736h28.051c8.189 0 14.853 6.663 14.853 14.854v234.34c0 8.19-6.663 14.854-14.853 14.854h-420.833c-8.19 0-14.854-6.663-14.854-14.854zm167.472 26.873h115.596v8.248c0 4.549-3.7 8.249-8.248 8.249h-99.071c-4.563 0-8.276-3.7-8.276-8.249v-8.248zm297.807 22.507c0 12.426-10.109 22.535-22.535 22.535h-434.949c-12.41 0-22.506-10.109-22.506-22.535v-22.507h170.163v8.248c0 11.176 9.104 20.269 20.296 20.269h99.071c11.176 0 20.268-9.093 20.268-20.269v-8.248h170.191v22.507zm-240.009-209.993c10.799 0 21.597-4.11 29.817-12.331 16.425-16.425 16.427-43.176 0-59.636-16.441-16.441-43.193-16.441-59.635 0-.002 0-.003.003-.005.004-16.423 16.456-16.421 43.207.005 59.632 8.221 8.221 19.019 12.331 29.817 12.331zm-21.315-63.472c5.691-5.69 13.261-8.824 21.315-8.824s15.627 3.136 21.314 8.823c11.746 11.77 11.747 30.899.005 42.644-5.692 5.691-13.264 8.827-21.319 8.827s-15.627-3.136-21.319-8.827c-11.743-11.744-11.741-30.874.004-42.643zm-86.43 140.946c0 3.319-2.69 6.01-6.01 6.01h-.255c-3.319 0-6.01-2.69-6.01-6.01s2.69-6.01 6.01-6.01h.255c3.319 0 6.01 2.69 6.01 6.01zm-19.219 0c0 3.319-2.69 6.01-6.01 6.01h-.255c-3.319 0-6.01-2.69-6.01-6.01s2.69-6.01 6.01-6.01h.255c3.319 0 6.01 2.69 6.01 6.01zm92.665 0c0 3.319-2.69 6.01-6.01 6.01h-52.838c-3.319 0-6.01-2.69-6.01-6.01s2.69-6.01 6.01-6.01h52.838c3.319 0 6.01 2.69 6.01 6.01zm-111.855 0c0 3.319-2.69 6.01-6.01 6.01h-.255c-3.319 0-6.01-2.69-6.01-6.01s2.69-6.01 6.01-6.01h.255c3.319 0 6.01 2.69 6.01 6.01zm211.946 0c0 3.319-2.69 6.01-6.01 6.01h-.255c-3.319 0-6.01-2.69-6.01-6.01s2.69-6.01 6.01-6.01h.255c3.319 0 6.01 2.69 6.01 6.01zm19.19 0c0 3.319-2.69 6.01-6.01 6.01h-.255c-3.319 0-6.01-2.69-6.01-6.01s2.69-6.01 6.01-6.01h.255c3.319 0 6.01 2.69 6.01 6.01zm-38.409 0c0 3.319-2.69 6.01-6.01 6.01h-.227c-3.319 0-6.01-2.69-6.01-6.01s2.69-6.01 6.01-6.01h.227c3.319 0 6.01 2.69 6.01 6.01zm111.884 0c0 3.319-2.69 6.01-6.01 6.01h-52.838c-3.319 0-6.01-2.69-6.01-6.01s2.69-6.01 6.01-6.01h52.838c3.319 0 6.01 2.69 6.01 6.01zm-11.99-66.558v27.609c0 3.319-2.69 6.01-6.01 6.01s-6.01-2.69-6.01-6.01v-27.609c0-3.704-3.026-6.718-6.747-6.718h-4.425c1.924 1.895 2.387 4.923.946 7.349-1.696 2.854-5.381 3.792-8.236 2.098l-17.223-10.232c-.329-.188-.639-.405-.925-.649-.229-.195-.441-.406-.637-.632-.914-1.051-1.469-2.422-1.474-3.924v-.017-.036c.009-1.492.562-2.855 1.47-3.901.195-.227.408-.438.639-.634.285-.244.594-.462.922-.649l17.223-10.262c2.853-1.698 6.539-.763 8.239 2.087 1.452 2.439.979 5.49-.973 7.385h4.455c10.348 0 18.767 8.405 18.767 18.737zm-243.66-16.662c.907 1.046 1.459 2.408 1.468 3.899v.035.018c-.005 1.496-.556 2.863-1.464 3.912-.203.236-.426.457-.667.66-.28.237-.584.45-.905.634l-17.225 10.232c-2.854 1.693-6.54.755-8.236-2.098-1.44-2.426-.978-5.454.946-7.349h-4.425c-3.704 0-6.718 3.014-6.718 6.718v27.609c0 3.319-2.69 6.01-6.01 6.01s-6.01-2.69-6.01-6.01v-27.609c0-10.332 8.405-18.737 18.737-18.737h4.455c-1.952-1.895-2.425-4.945-.973-7.384 1.699-2.852 5.387-3.786 8.238-2.088l17.226 10.262c.323.185.627.398.908.638.235.2.453.416.653.647z" fill="#009dc9" fill-opacity="1" data-original-color="#000000ff" stroke="none" stroke-opacity="1"/></g></svg>