<svg id="Layer_1" enable-background="new 0 0 24 24" viewBox="0 0 24 24" xmlns="http://www.w3.org/2000/svg" width="300" height="300" version="1.1" xmlns:xlink="http://www.w3.org/1999/xlink" xmlns:svgjs="http://svgjs.dev/svgjs"><g width="100%" height="100%" transform="matrix(1,0,0,1,0,0)"><g><path d="m22.1 4.833c-.06-.12-.12-.23-.19-.33-.12-.18-.26-.35-.41-.5-.56-.55-1.32-.89-2.16-.89-.22 0-.43.02-.64.07-.62-1.88-2.37-3.16-4.38-3.16-1.33 0-2.56.57-3.42 1.52-.61-.55-1.42-.86-2.27-.86-1.56 0-2.88 1.02-3.32 2.44-.007.02-.01.042-.016.063-.155-.033-.312-.057-.474-.063-.05-.01-.11-.01-.16-.01-.84 0-1.6.34-2.16.89-.15.15-.29.32-.41.5-.32.49-.51 1.07-.51 1.7 0 1.7 1.38 3.09 3.08 3.09h2.482v-.004l.375.163v.126h-.412c-.107 0-.207.042-.283.117-.075.076-.117.175-.117.282v1.493c0 .106.042.206.118.283.076.075.176.116.282.116h.724v4.966c0 .062.015.125.042.179l.71 1.423c.068.137.206.222.357.222.15 0 .291-.088.357-.222l.71-1.423c.027-.056.042-.117.042-.179v-4.966h.724c.104 0 .208-.043.283-.117.075-.076.117-.176.117-.282v-1.493c0-.22-.179-.399-.399-.399h-.413v-.127l.572-.248c.146-.063.241-.207.241-.366v-3.38c0-1.23-1.002-2.232-2.233-2.232-.596 0-1.156.232-1.578.655-.423.421-.656.982-.656 1.577v3.066h-2.045c-1.27 0-2.31-1.04-2.31-2.32 0-.52.17-.99.46-1.38.27-.38.66-.67 1.11-.82.23-.08.48-.12.74-.12h.02c.27 0 .53.05.77.14.32.12.62.31.87.56l.55-.54c-.245-.252-.532-.434-.836-.584.018-.065.032-.132.056-.196.36-1.05 1.36-1.81 2.54-1.81.68 0 1.32.25 1.8.7.11.1.21.2.3.32.04.04.15.21.22.31.02.03.03.05.04.07l.66-.41c-.07-.12-.14-.23-.23-.34.72-.82 1.77-1.31 2.9-1.31 1.78 0 3.32 1.22 3.74 2.95l.11.42.4-.14c.25-.09.51-.14.77-.14s.51.04.74.12c.44.15.82.43 1.1.8.3.39.47.88.47 1.4 0 1.28-1.04 2.32-2.31 2.32h-3.09c.096-.073.205-.13.291-.214.541-.542.839-1.261.839-2.024 0-1.037-.564-1.996-1.471-2.501-.119-.065-.265-.064-.384.004-.118.068-.192.196-.192.334v1.501l-.816.913-.817-.914v-1.501c0-.138-.074-.266-.192-.334s-.265-.068-.383-.004c-.907.506-1.471 1.464-1.472 2.501 0 1.063.602 2.046 1.543 2.537v8.587c0 .356.139.691.391.943s.587.392.944.392.692-.14.943-.392c.252-.252.392-.587.392-.943v-8.115h.106 3.368c1.7 0 3.08-1.39 3.08-3.09 0-.49-.11-.96-.32-1.37zm-12.851 9.055v2.854l-.311.622-.311-.622v-2.854zm0-2.019v1.22h-.621v-1.22zm-.71-7.79v3.122c0 .22.179.399.399.399s.4-.18.4-.399v-3.122c.23.066.441.19.615.364.271.271.419.631.419 1.014v3.118l-.571.249c-.147.063-.241.207-.241.366v.388h-1.243v-.388c0-.159-.095-.303-.241-.366l-.571-.249v-3.118c0-.383.149-.743.42-1.014.173-.173.383-.297.614-.364zm1.833 6.297v.694h-2.867v-.694zm4.556 7.429c-.213.213-.581.211-.793 0-.106-.105-.164-.246-.164-.396v-5.77h1.121v5.77c0 .149-.058.29-.164.396zm-.957-6.967v-1.744c.372.072.752.07 1.121-.005v1.749zm-.946-4.81 1.203 1.345c.148.166.438.162.577.001l1.204-1.346c.064-.07.099-.162.099-.258v-.838c.317.375.498.856.498 1.353 0 1.152-.937 2.089-2.089 2.089s-2.089-.937-2.089-2.089c0-.492.18-.977.498-1.353v.838c-.001.095.035.186.099.258z" fill="#009dc9" fill-opacity="1" data-original-color="#000000ff" stroke="none" stroke-opacity="1"/><path d="m20.909 13.478c-.221 0-.4.18-.4.4v2.232l-1.059.211c-.144.029-.26.134-.304.272l-.098.313c-.121.382-.284.771-.484 1.157l-.151.292c-.067.129-.058.284.022.405l.602.902-2.04 2.041-.902-.603c-.121-.079-.277-.087-.407-.022l-.291.151c-.387.2-.777.363-1.158.484l-.314.1c-.139.044-.243.16-.271.303l-.211 1.058h-2.886l-.212-1.058c-.028-.144-.132-.259-.271-.303l-.314-.1c-.381-.121-.771-.284-1.157-.483l-.291-.151c-.129-.067-.284-.058-.407.021l-.903.603-2.04-2.041.602-.902c.081-.121.09-.276.022-.406l-.151-.291c-.2-.387-.363-.775-.483-1.156l-.099-.314c-.044-.139-.16-.243-.304-.272l-1.059-.211v-2.232c0-.221-.179-.4-.4-.4s-.4.18-.4.4v2.561c0 .19.135.354.322.393l1.148.229.028.09c.135.425.316.856.537 1.283l.042.082-.652.979c-.106.158-.085.369.05.505l2.504 2.505c.134.135.346.154.505.05l.98-.655.082.043c.427.221.859.4 1.283.535l.089.028.23 1.148c.037.188.201.322.392.322h3.542c.191 0 .355-.135.392-.322l.229-1.148.089-.028c.424-.135.855-.314 1.284-.535l.082-.043.979.653c.159.104.371.086.505-.05l2.504-2.505c.135-.135.156-.347.05-.505l-.653-.979.042-.083c.221-.426.401-.857.537-1.283l.027-.089 1.148-.229c.187-.038.322-.202.322-.393v-2.561c0-.218-.179-.398-.4-.398z" fill="#009dc9" fill-opacity="1" data-original-color="#000000ff" stroke="none" stroke-opacity="1"/><path d="m5.79 13.225c.025-.22-.131-.419-.351-.444-.213-.024-.418.132-.444.351l-.021.175c-.028.22-.055.438-.055.661 0 3.905 3.177 7.082 7.082 7.082s7.082-3.177 7.082-7.082c0-.225-.027-.445-.056-.667l-.021-.169c-.026-.22-.223-.38-.444-.351-.219.026-.376.226-.35.444l.022.179c.024.187.05.373.05.563 0 3.464-2.818 6.281-6.282 6.281s-6.282-2.817-6.282-6.281c0-.188.025-.374.049-.559z" fill="#009dc9" fill-opacity="1" data-original-color="#000000ff" stroke="none" stroke-opacity="1"/><path d="m8.57 8.474c.01.021.021.044.035.065s.031.042.048.06c.019.019.039.036.065.054.021.014.044.025.063.033.029.013.058.02.076.023.026.006.053.009.08.009.026 0 .053-.003.08-.009.02-.004.049-.01.073-.022.024-.009.047-.022.071-.037.045-.03.082-.068.11-.11.014-.021.025-.044.038-.07.009-.024.017-.049.021-.07.005-.025.008-.051.008-.08 0-.028-.003-.055-.007-.076-.006-.028-.013-.053-.024-.079-.009-.023-.022-.046-.036-.068-.016-.023-.033-.044-.048-.06-.019-.02-.04-.036-.064-.053-.021-.012-.042-.024-.069-.035-.023-.01-.047-.017-.072-.021-.053-.012-.106-.012-.16 0-.024.004-.048.011-.077.022-.022.01-.043.022-.065.037s-.042.032-.06.05c-.019.018-.036.038-.05.06s-.026.044-.038.07c-.009.025-.017.049-.021.074-.005.025-.008.052-.008.078s.003.052.008.078c.005.025.012.049.023.077z" fill="#009dc9" fill-opacity="1" data-original-color="#000000ff" stroke="none" stroke-opacity="1"/></g></g></svg>