<svg width="600" height="416" viewBox="0 0 600 416" fill="none" xmlns="http://www.w3.org/2000/svg">
<path fill-rule="evenodd" clip-rule="evenodd" d="M106.092 381.457C62.5484 374.831 2.0387 293.423 42.0872 208.617C82.1115 123.836 155.971 162.913 232.743 51.3115C289.296 -30.9215 425.728 6.3358 483.349 109.588C524.757 183.763 564.612 314.855 448.932 381.918C401.699 380.219 342.184 379.151 277.524 379.054C212.84 378.981 153.325 379.879 106.092 381.457ZM176.626 92.8407C147.014 115.705 98.0581 133.399 81.8445 109.006C69.7086 90.8018 84.7086 56.6756 114.053 30.8261C143.349 5.00085 182.573 -10.6059 203.932 8.47173C229.247 31.1174 199.442 75.2193 176.626 92.8407Z" fill="#DAE9F7"/>
<path d="M156.359 22.6221C135.534 28.4959 117.621 42.4765 106.99 61.894C121.294 28.3827 142.71 11.716 171.238 11.894C184.417 19.928 160.68 21.4086 156.359 22.6221Z" fill="white"/>
<path d="M117.548 348.86C113.786 344.127 108.494 340.219 106.941 334.37C105.096 327.477 109.174 320.219 108.179 313.156C106.917 304.248 98.3729 298.472 93.737 290.802C89.1739 283.253 91.3098 280.729 90.9215 271.943C90.3147 258.714 79.4652 241.967 64.9992 246.433C50.3147 250.972 52.6933 264.637 55.2662 274.904C57.0865 282.234 55.8729 283.278 54.0768 290.608C51.9166 299.443 44.9263 308.01 47.839 316.651C49.6351 321.991 54.8535 325.583 56.7467 330.899C58.8827 336.918 56.2856 343.447 55.2662 349.758C53.1302 363.01 56.1399 374.078 65.7759 385.049C66.8115 386.036 67.8875 386.951 69.004 387.792C82.5234 387.064 97.7419 386.384 114.392 385.777L114.514 385.632C123.373 376.02 126.019 359.467 117.548 348.86Z" fill="#95C2E8"/>
<path d="M71.6512 258.399C71.4327 257.816 70.7531 257.501 70.1706 257.744C69.5638 257.962 69.2483 258.642 69.491 259.224C70.6318 262.234 71.5784 265.389 72.4036 268.642C72.08 268.35 71.7402 268.059 71.3842 267.768C69.8146 266.506 68.0266 265.397 66.0201 264.443C65.4376 264.176 64.758 264.418 64.4667 265.001C64.1997 265.583 64.4424 266.263 65.025 266.53C66.8696 267.404 68.5039 268.415 69.9279 269.564C71.2871 270.664 72.4683 271.886 73.4716 273.229C74.9279 280.316 75.8988 287.938 76.7483 295.972C75.4052 293.884 73.9732 292.007 72.4521 290.341C69.8146 287.46 66.8858 285.219 63.6657 283.617C63.0832 283.326 62.4036 283.569 62.1123 284.127C61.8211 284.71 62.0638 285.413 62.6221 285.68C65.5832 287.153 68.2936 289.232 70.7531 291.918C73.1965 294.588 75.3971 297.849 77.3551 301.7L77.5735 303.884C78.0589 308.666 78.5686 313.569 79.1512 318.593C79.1512 318.642 79.1593 318.69 79.1755 318.739C79.7822 323.981 80.5104 329.321 81.4327 334.782C78.9246 330.899 76.2305 327.468 73.3502 324.491C69.1269 320.122 64.4829 316.716 59.4182 314.273C58.8599 314.006 58.156 314.248 57.889 314.831C57.5978 315.389 57.8405 316.093 58.423 316.36C63.2289 318.69 67.6463 321.943 71.6754 326.117C75.7046 330.26 79.3534 335.333 82.6221 341.336C84.0541 348.545 85.8502 355.875 88.2531 363.302L88.2774 363.35C89.4424 366.991 90.7774 370.656 92.258 374.321C88.7466 371.295 85.025 368.682 81.0929 366.481C75.5913 363.423 69.6933 361.158 63.3988 359.685C62.7677 359.54 62.1366 359.928 61.991 360.559C61.8454 361.166 62.2337 361.797 62.8648 361.943C68.9651 363.367 74.6609 365.559 79.9522 368.52C85.1949 371.433 90.0411 375.106 94.491 379.54C95.5266 381.837 96.6269 384.135 97.792 386.433L100.341 386.311C96.2386 378.423 93.059 370.535 90.5104 362.744C90.0897 357.064 90.7693 351.401 92.5492 345.753C94.3615 340.025 97.3146 334.281 101.408 328.52C101.773 328.011 101.651 327.282 101.117 326.918C100.607 326.554 99.8793 326.651 99.5153 327.185C95.292 333.124 92.2337 339.078 90.3405 345.049C89.2725 348.447 88.5767 351.837 88.2531 355.219C84.8065 342.646 82.889 330.341 81.4813 318.617C82.8567 313.65 84.3858 309.443 86.0686 305.996C87.7515 302.582 89.5719 299.952 91.5298 298.108C91.991 297.646 92.0153 296.918 91.5784 296.457C91.1415 295.996 90.4133 295.972 89.9521 296.409C87.7677 298.464 85.7774 301.32 83.9813 304.977C82.8648 307.274 81.813 309.888 80.8259 312.816C80.4861 309.71 80.1949 306.651 79.8793 303.642L79.6366 301.312C79.6366 301.263 79.6366 301.223 79.6366 301.19C78.0104 285.244 76.3599 270.729 71.6512 258.399Z" fill="white"/>
<path d="M78.6886 355.025C74.6595 352.841 69.8051 351.7 66.9895 348.084C63.6886 343.812 64.3682 337.574 61.5769 332.938C58.0818 327.113 50.3876 325.632 44.8779 321.651C39.4895 317.744 40.242 315.341 37.3536 309.346C33.009 300.317 20.509 291.87 11.7468 299.273C2.83905 306.773 8.54294 315.584 13.3973 321.991C16.8439 326.53 16.3099 327.622 17.2323 333.253C18.3245 340.074 15.9944 348.084 20.5818 353.253C23.4216 356.433 28.1303 357.404 31.0187 360.535C34.2954 364.103 34.3925 369.418 35.5575 374.103C37.1109 380.341 39.8294 385.341 44.1012 389.394C55.6789 388.52 69.2954 387.719 84.6594 387.016C85.8245 385.317 86.7954 383.496 87.475 381.554C90.776 372.234 87.742 359.928 78.6886 355.025Z" fill="#C4DDF2"/>
<path d="M19.9265 305.632C19.5867 305.268 19.0285 305.268 18.6887 305.608C18.3246 305.947 18.3246 306.481 18.6644 306.845C20.3391 308.593 21.9411 310.511 23.4945 312.525C23.1709 312.412 22.8391 312.315 22.4993 312.234C21.0268 311.813 19.4573 311.57 17.7906 311.506C17.3052 311.481 16.8925 311.845 16.8683 312.331C16.844 312.816 17.2323 313.229 17.7178 313.253C19.255 313.318 20.6951 313.536 22.0382 313.909C23.3003 314.265 24.4815 314.766 25.5819 315.413C28.6887 319.928 31.6255 324.952 34.611 330.292C33.0576 329.224 31.5042 328.334 29.9508 327.622C27.2485 326.409 24.5382 325.721 21.8197 325.559C21.3343 325.535 20.9217 325.899 20.8974 326.384C20.8731 326.87 21.2372 327.282 21.7226 327.307C24.2145 327.452 26.7145 328.091 29.2226 329.224C31.7145 330.373 34.2145 331.999 36.7226 334.103L37.5236 335.559C39.2712 338.739 41.0916 342.015 42.9848 345.316C43.001 345.365 43.0171 345.397 43.0333 345.413C45.0236 348.884 47.111 352.404 49.344 355.923C46.4637 353.965 43.5754 352.379 40.6789 351.166C36.4395 349.37 32.2 348.367 27.9605 348.156C27.4751 348.156 27.0624 348.52 27.0382 349.006C27.0139 349.491 27.4022 349.904 27.8634 349.928C31.9087 350.122 35.954 351.069 39.9993 352.768C44.0285 354.483 48.0738 356.943 52.1353 360.146C55.242 364.734 58.6887 369.321 62.5721 373.787C64.4896 375.996 66.4799 378.132 68.6158 380.268C65.2825 379.2 61.9168 378.48 58.5188 378.108C53.7777 377.606 48.9961 377.776 44.1741 378.617C43.6887 378.714 43.3731 379.151 43.4459 379.637C43.543 380.122 43.9799 380.438 44.4654 380.365C49.1417 379.54 53.7615 379.37 58.3246 379.855C62.8391 380.341 67.3052 381.473 71.7226 383.253C73.2437 384.661 74.8294 386.045 76.4799 387.404L79.1013 387.282C73.3489 382.671 68.3731 377.768 63.9556 372.719C61.9815 368.884 60.7841 364.742 60.3634 360.292C59.9265 355.761 60.2744 350.883 61.4071 345.656C61.5285 345.195 61.2129 344.71 60.7518 344.612C60.2663 344.515 59.8052 344.807 59.7081 345.292C58.5268 350.68 58.1628 355.729 58.6158 360.438C58.8747 363.124 59.3925 365.697 60.1692 368.156C54.0285 360.413 49.0527 352.404 44.611 344.661C44.0932 340.794 43.9152 337.412 44.077 334.515C44.2226 331.635 44.7081 329.256 45.5333 327.379C45.7275 326.943 45.509 326.433 45.0722 326.214C44.6353 326.045 44.1013 326.239 43.9071 326.676C43.001 328.747 42.467 331.328 42.3052 334.418C42.2081 336.344 42.2485 338.472 42.4265 340.802C41.2857 338.739 40.1692 336.7 39.0527 334.71L38.2032 333.156C38.187 333.124 38.1709 333.091 38.1547 333.059C32.2809 322.428 26.844 312.816 19.9265 305.632Z" fill="white"/>
<path fill-rule="evenodd" clip-rule="evenodd" d="M365.776 308.35L366.625 309.807C367.644 311.554 368.64 311.481 369.076 311.36C370.29 310.972 371.431 310.705 372.693 310.389C373.154 310.268 373.931 309.928 373.931 307.841V306.287C373.931 304.782 375.169 303.569 376.649 303.569H381.091C382.596 303.569 383.81 304.782 383.81 306.287V307.841C383.81 309.928 384.61 310.268 385.072 310.389C386.334 310.705 387.475 310.972 388.688 311.36C389.101 311.481 390.12 311.554 391.115 309.807L391.965 308.35C392.717 307.064 394.392 306.627 395.678 307.38L399.538 309.613C400.824 310.365 401.261 312.04 400.509 313.326L399.659 314.782C398.664 316.506 399.101 317.282 399.416 317.549C400.266 318.326 401.067 319.151 401.843 319.977C402.086 320.219 402.814 321.045 404.78 319.928L406.115 319.151C407.402 318.399 409.076 318.836 409.829 320.122L412.062 323.957C412.814 325.268 412.377 326.943 411.091 327.695L409.756 328.447C407.936 329.515 407.984 330.074 408.203 330.85C408.518 331.894 408.858 332.962 409.101 334.079C409.319 335.049 409.222 335.753 411.698 335.753H413.227C414.732 335.753 415.945 336.967 415.945 338.472V342.914C415.945 344.418 414.732 345.632 413.227 345.632H411.698C409.222 345.632 409.319 346.336 409.101 347.331C408.858 348.423 408.518 349.491 408.203 350.559C407.984 351.336 407.936 351.87 409.756 352.938L411.091 353.715C412.377 354.467 412.814 356.142 412.062 357.428L409.829 361.263C409.076 362.574 407.402 363.011 406.115 362.258L404.78 361.481C402.814 360.341 402.086 361.166 401.843 361.409C401.067 362.234 400.266 363.083 399.416 363.836C399.101 364.127 398.664 364.904 399.659 366.603L400.509 368.059C401.261 369.37 400.824 371.045 399.538 371.797L395.678 374.03C394.392 374.782 392.717 374.321 391.965 373.035L391.115 371.579C390.12 369.831 389.101 369.904 388.688 370.049C387.475 370.438 386.334 370.681 385.072 371.02C384.61 371.142 383.81 371.457 383.81 373.545V375.098C383.81 376.603 382.596 377.816 381.091 377.816H376.649C375.169 377.816 373.931 376.603 373.931 375.098V373.545C373.931 371.457 373.154 371.142 372.693 371.02C371.431 370.681 370.29 370.438 369.076 370.049C368.64 369.904 367.644 369.831 366.625 371.579L365.776 373.035C365.023 374.321 363.348 374.782 362.062 374.03L358.227 371.797C356.941 371.045 356.479 369.37 357.232 368.059L358.081 366.603C359.101 364.904 358.664 364.127 358.348 363.836C357.499 363.083 356.698 362.234 355.897 361.409C355.678 361.166 354.926 360.341 352.984 361.481L351.649 362.258C350.339 363.011 348.664 362.574 347.911 361.263L345.678 357.428C344.926 356.142 345.363 354.467 346.674 353.715L347.984 352.938C349.829 351.87 349.78 351.336 349.538 350.559C349.222 349.491 348.882 348.423 348.664 347.331C348.445 346.336 348.542 345.632 346.042 345.632H344.513C343.033 345.632 341.795 344.418 341.795 342.914V338.472C341.795 336.967 343.033 335.753 344.513 335.753H346.042C348.542 335.753 348.445 335.049 348.664 334.079C348.882 332.962 349.222 331.894 349.538 330.85C349.78 330.074 349.829 329.515 347.984 328.447L346.674 327.695C345.363 326.943 344.926 325.268 345.678 323.957L347.911 320.122C348.664 318.836 350.339 318.399 351.649 319.151L352.984 319.928C354.926 321.045 355.678 320.219 355.897 319.977C356.698 319.151 357.499 318.326 358.348 317.549C358.664 317.282 359.101 316.506 358.081 314.782L357.232 313.326C356.479 312.04 356.941 310.365 358.227 309.613L362.062 307.38C363.348 306.627 365.023 307.064 365.776 308.35ZM357.11 340.705C357.11 352.719 366.843 362.477 378.882 362.477C390.897 362.477 400.654 352.719 400.654 340.705C400.654 328.666 390.897 318.909 378.882 318.909C366.843 318.909 357.11 328.666 357.11 340.705ZM360.509 340.705C360.509 340.001 361.067 339.443 361.746 339.443C362.45 339.443 363.009 340.001 363.009 340.705C363.009 345.074 364.78 349.054 367.644 351.918C370.533 354.782 374.489 356.579 378.882 356.579C379.562 356.579 380.12 357.137 380.12 357.816C380.12 358.52 379.562 359.079 378.882 359.079C373.809 359.079 369.198 357.015 365.873 353.69C362.547 350.365 360.509 345.778 360.509 340.705ZM397.013 337.744C397.11 338.423 396.649 339.054 395.97 339.176C395.29 339.273 394.659 338.812 394.538 338.132C394.004 334.807 392.426 331.821 390.169 329.54C387.887 327.234 384.926 325.632 381.601 325.049C380.921 324.952 380.46 324.297 380.581 323.617C380.703 322.938 381.334 322.477 382.013 322.598C385.873 323.253 389.295 325.122 391.941 327.768C394.562 330.414 396.382 333.884 397.013 337.744ZM378.882 334.831C382.11 334.831 384.732 337.452 384.732 340.705C384.732 343.933 382.11 346.554 378.882 346.554C375.63 346.554 373.009 343.933 373.009 340.705C373.009 337.452 375.63 334.831 378.882 334.831Z" fill="#6998D0"/>
<path fill-rule="evenodd" clip-rule="evenodd" d="M457.55 214.2L459.297 217.185C461.36 220.753 463.424 220.608 464.273 220.341C466.797 219.54 469.103 219.03 471.7 218.35C472.647 218.108 474.273 217.404 474.273 213.156V209.952C474.273 206.894 476.773 204.37 479.856 204.37H488.958C492.04 204.37 494.54 206.894 494.54 209.952V213.156C494.54 217.404 496.166 218.108 497.113 218.35C499.686 219.03 502.016 219.54 504.516 220.341C505.39 220.608 507.428 220.753 509.516 217.185L511.239 214.2C512.792 211.554 516.215 210.632 518.885 212.185L526.749 216.749C529.419 218.302 530.317 221.724 528.763 224.394L527.04 227.38C524.977 230.899 525.875 232.501 526.506 233.059C528.254 234.637 529.88 236.336 531.506 238.035C531.992 238.52 533.521 240.244 537.526 237.914L540.268 236.312C542.914 234.758 546.36 235.681 547.89 238.326L552.477 246.19C554.006 248.86 553.108 252.283 550.462 253.836L547.744 255.414C543.982 257.598 544.079 258.715 544.564 260.292C545.195 262.477 545.899 264.661 546.385 266.943C546.822 268.957 546.627 270.389 551.725 270.389H554.856C557.914 270.389 560.438 272.889 560.438 275.972V285.074C560.438 288.156 557.914 290.656 554.856 290.656H551.725C546.627 290.656 546.822 292.088 546.385 294.103C545.899 296.36 545.195 298.545 544.564 300.729C544.079 302.331 543.982 303.448 547.744 305.632L550.462 307.21C553.108 308.739 554.006 312.185 552.477 314.831L547.89 322.719C546.36 325.365 542.914 326.263 540.268 324.734L537.526 323.132C533.521 320.802 531.992 322.501 531.506 323.011C529.88 324.71 528.254 326.409 526.506 327.962C525.875 328.545 524.977 330.147 527.04 333.666L528.763 336.651C530.317 339.297 529.419 342.744 526.749 344.273L518.885 348.86C516.215 350.389 512.792 349.491 511.239 346.846L509.516 343.86C507.428 340.292 505.39 340.414 504.516 340.705C502.016 341.506 499.686 342.016 497.113 342.695C496.166 342.938 494.54 343.617 494.54 347.889V351.069C494.54 354.151 492.04 356.651 488.958 356.651H479.856C476.773 356.651 474.273 354.151 474.273 351.069V347.889C474.273 343.617 472.647 342.938 471.7 342.695C469.103 342.016 466.797 341.506 464.273 340.705C463.424 340.414 461.36 340.292 459.297 343.86L457.55 346.846C456.021 349.491 452.574 350.389 449.928 348.86L442.064 344.273C439.394 342.744 438.496 339.297 440.025 336.651L441.773 333.666C443.812 330.147 442.938 328.545 442.283 327.962C440.535 326.409 438.909 324.71 437.283 323.011C436.797 322.501 435.292 320.802 431.288 323.132L428.545 324.734C425.875 326.263 422.453 325.365 420.899 322.719L416.336 314.831C414.783 312.185 415.705 308.739 418.351 307.21L421.069 305.632C424.831 303.448 424.734 302.331 424.249 300.729C423.593 298.545 422.89 296.36 422.428 294.103C421.992 292.088 422.186 290.656 417.089 290.656H413.958C410.875 290.656 408.375 288.156 408.375 285.074V275.972C408.375 272.889 410.875 270.389 413.958 270.389H417.089C422.186 270.389 421.992 268.957 422.428 266.943C422.89 264.661 423.593 262.477 424.249 260.292C424.734 258.715 424.831 257.598 421.069 255.414L418.351 253.836C415.705 252.283 414.783 248.86 416.336 246.19L420.899 238.326C422.453 235.681 425.875 234.758 428.545 236.312L431.288 237.914C435.292 240.244 436.797 238.52 437.283 238.035C438.909 236.336 440.535 234.637 442.283 233.059C442.938 232.501 443.812 230.899 441.773 227.38L440.025 224.394C438.496 221.724 439.394 218.302 442.064 216.749L449.928 212.185C452.574 210.632 456.021 211.554 457.55 214.2ZM439.734 280.511C439.734 305.195 459.734 325.171 484.394 325.171C509.079 325.171 529.055 305.195 529.055 280.511C529.055 255.85 509.079 235.85 484.394 235.85C459.734 235.85 439.734 255.85 439.734 280.511ZM446.725 280.511C446.725 279.103 447.865 277.938 449.273 277.938C450.705 277.938 451.846 279.103 451.846 280.511C451.846 289.515 455.511 297.647 461.385 303.52C467.283 309.418 475.414 313.059 484.394 313.059C485.826 313.059 486.967 314.224 486.967 315.632C486.967 317.064 485.826 318.205 484.394 318.205C474.006 318.205 464.564 313.982 457.744 307.161C450.924 300.341 446.725 290.923 446.725 280.511ZM521.603 274.443C521.822 275.85 520.875 277.161 519.467 277.38C518.059 277.598 516.749 276.651 516.53 275.244C515.414 268.423 512.186 262.331 507.55 257.622C502.89 252.914 496.797 249.613 490.001 248.448C488.593 248.205 487.647 246.87 487.89 245.486C488.132 244.079 489.443 243.156 490.851 243.375C498.739 244.734 505.778 248.545 511.166 254.006C516.579 259.443 520.317 266.53 521.603 274.443ZM484.394 268.496C491.045 268.496 496.433 273.884 496.433 280.511C496.433 287.161 491.045 292.549 484.394 292.549C477.768 292.549 472.38 287.161 472.38 280.511C472.38 273.884 477.768 268.496 484.394 268.496Z" fill="#6998D0"/>
<path d="M273.01 377.865C423.786 378.18 546.019 386.845 545.995 397.185C545.995 407.549 423.762 415.68 272.985 415.341C122.209 415.025 0 406.384 0 396.02C0 385.68 122.233 377.549 273.01 377.865Z" fill="#CEE7F8"/>
<path d="M493.568 312.404L135 314.467C127.839 314.516 121.99 308.739 121.941 301.579L120.558 59.734C120.509 52.5738 126.286 46.7243 133.446 46.7L492.014 44.6126C499.174 44.5884 505.024 50.3651 505.072 57.5252L506.456 299.37C506.505 306.53 500.728 312.355 493.568 312.404Z" fill="#A5CDED"/>
<path d="M481.36 298.302L147.039 300.219C140.51 300.268 135.17 295.001 135.146 288.447L133.884 72.7193C133.86 66.1659 139.127 60.8504 145.656 60.8018L479.976 58.8844C486.505 58.8358 491.821 64.1028 491.869 70.6319L493.107 286.384C493.156 292.913 487.889 298.253 481.36 298.302Z" fill="#DAE9F7"/>
<path d="M84.7092 394.127C91.0037 390.972 99.1914 389.346 109.272 389.249C149.175 383.504 171.222 383.504 175.413 389.249C176.546 394.961 179.75 397.938 185.025 398.181C210.284 401.627 200.939 405.05 156.991 408.448C99.159 410.082 75.0652 405.309 84.7092 394.127Z" fill="#B7DFF6"/>
<path d="M491.869 71.5299L491.918 77.6464L133.495 79.7337L133.471 73.593C133.423 66.4328 138.325 60.5833 146.796 60.5347L478.398 58.6415C487.306 58.5687 491.821 63.0347 491.869 71.5299Z" fill="#6998D0"/>
<path d="M159.199 68.3502C159.224 70.3405 157.622 71.9667 155.607 71.991C153.617 71.991 151.991 70.389 151.991 68.3987C151.966 66.3842 153.592 64.758 155.583 64.758C157.573 64.7337 159.199 66.3599 159.199 68.3502ZM185.17 68.2046C185.17 70.1949 183.568 71.8211 181.578 71.8211C179.563 71.8453 177.937 70.2434 177.937 68.2288C177.913 66.2385 179.539 64.6123 181.529 64.6123C183.52 64.5881 185.146 66.19 185.17 68.2046ZM172.185 68.2774C172.209 70.2677 170.583 71.8939 168.592 71.9182C166.602 71.9182 164.976 70.3162 164.952 68.3017C164.952 66.3114 166.554 64.6851 168.544 64.6851C170.558 64.6609 172.185 66.2871 172.185 68.2774Z" fill="white"/>
<path d="M111.481 148.957C113.035 149.078 114.54 147.137 114.977 146.554C116.651 144.345 117.695 141.748 118.132 140.292C117.808 139.321 117.469 138.099 117.113 136.627C111.093 132.339 110.268 129.159 114.637 127.088C115.527 127.622 116.627 129.224 117.938 131.894C118.973 131.845 119.758 131.287 120.292 130.219C119.062 125.705 118.253 122.031 117.865 119.2C120.826 114.588 127.768 113.933 136.943 115.171C137.38 117.727 137.735 120.446 138.011 123.326C139.637 124.879 139.418 130.705 137.913 137.428C138.658 141.231 136.417 143.31 131.19 143.666C131.142 144.588 131.214 145.632 131.239 146.287C131.239 146.87 131.263 148.01 131.846 148.18L132.816 148.447C132.719 162.088 126.069 164.709 111.481 148.957Z" fill="#F4AE7C"/>
<path d="M136.942 115.171C127.767 113.933 120.825 114.588 117.864 119.2C118.252 122.031 119.061 125.705 120.291 130.219C119.757 131.287 118.972 131.845 117.937 131.894C116.626 129.224 115.526 127.622 114.636 127.088C110.267 129.159 111.092 132.339 117.111 136.627C117.467 138.099 117.807 139.321 118.131 140.292C112.718 139.006 108.179 133.933 107.548 131.748C101.238 118.666 108.276 113.156 112.039 111.142C113.713 98.2046 131.675 109.394 136.408 101.506C146.286 107.428 139.733 115.049 136.942 115.171Z" fill="#0F3970"/>
<path d="M125.145 142.331C126.617 143.092 128.632 143.537 131.188 143.666C131.14 144.564 131.164 145.608 131.237 146.263C128.664 145.745 126.633 144.435 125.145 142.331Z" fill="#ED7D5B"/>
<path d="M100.533 404.345C94.8295 402.234 94.3683 399.151 91.2858 397.646C88.3489 396.19 87.8878 393.666 90.4848 390.874C90.679 390.68 91.5528 390.122 91.5771 390.365C91.6256 390.68 91.4557 390.947 91.4557 390.972C93.5674 392.719 95.9945 394.564 97.3538 393.447C98.3246 392.622 101.65 392.695 102.305 393.86C105.218 400.947 109.247 398.69 110.048 401.918C110.121 406.19 103.155 405.292 100.533 404.345Z" fill="#142D4D"/>
<path d="M149.952 397.307C139.904 397.137 132.404 397.015 128.933 395.875C125.632 394.782 125.632 392.792 127.355 389.685C127.598 389.273 127.55 388.229 128.933 388.253C138.399 392.816 135.05 387.452 139.491 388.156C142.598 390.777 147.202 392.541 153.302 393.447C155.875 395.438 154.831 397.21 149.952 397.307Z" fill="#142D4D"/>
<path d="M144.927 150.511C139.911 148.99 135.412 148.067 131.432 147.744C130.703 159.297 124.959 159.216 114.199 147.501C103.81 148.399 101.796 148.545 96.019 150.511C83.5918 162.986 82.4267 177.404 75.9219 193.86C83.1306 194.2 86.3588 195.098 91.2617 196.943C92.3135 192.995 93.1953 189.815 93.9073 187.404C93.7131 209.119 93.6403 223.998 93.6889 232.04C117.5 241.943 137.135 238.569 145.169 230.826C145.283 211.538 145.428 196.263 145.606 185.001C148.47 188.528 151.116 191.263 153.543 193.205C159.393 186.166 163.349 183.351 166.674 179.2C159.32 166.554 148.81 154.807 144.927 150.511Z" fill="#6998D0"/>
<path d="M192.962 171.651C180.438 177.121 171.667 181.635 166.651 185.195L164.442 181.724C162.355 183.909 160.001 186.045 157.112 189.151C159.782 192.064 162.646 194.491 165.972 196.506C174.677 195.535 184.297 188.626 194.831 175.778C198.099 175.082 200.51 173.836 202.064 172.04C202.145 170.389 201.344 168.731 199.661 167.064C204.03 164.071 205.769 161.927 204.879 160.632C198.035 165.082 194.062 168.755 192.962 171.651Z" fill="#F4AE7C"/>
<path d="M145.17 230.826C144.685 232.719 146.651 243.739 146.966 249.491C150.122 270.001 147.403 296.724 145.704 331.093C142.646 343.205 138.156 359.321 138.447 382.04C133.131 383.739 131.214 383.909 126.408 382.647C123.059 358.933 125.34 339.952 128.374 331.19C126.432 317.647 123.52 302.477 119.321 280.608C114.563 304.443 108.204 322.137 105.437 333.69C104.903 346.554 102.427 363.909 101.117 385.778C97.1848 387.04 94.7091 387.38 90.6314 386.87C85.3158 366.773 86.2139 344.904 88.4469 321.263C90.8498 292.841 86.8935 260.753 90.8498 249.613C92.8887 243.011 93.1314 237.161 93.6896 232.04C113.56 238.982 130.72 238.577 145.17 230.826Z" fill="#406FB5"/>
<path d="M97.3544 209.977C96.0761 210.187 94.8625 210.365 93.7136 210.511C93.6651 220.09 93.657 227.266 93.6893 232.04C94.8058 232.574 96.3835 233.18 97.6214 233.326C97.6214 232.719 97.4272 231.287 97.4272 230.68C97.3463 223.367 97.322 216.465 97.3544 209.977ZM155.607 190.802C152.095 187.727 148.754 182.744 145.583 175.85C145.939 178.261 146.084 181.473 146.019 185.486C148.722 188.787 151.23 191.36 153.544 193.205C154.256 192.347 154.943 191.546 155.607 190.802ZM98.3495 172.137C96.7961 177.347 95.3156 182.436 93.9078 187.404C93.8754 191.611 93.8431 195.551 93.8107 199.224C94.8301 199.127 96.0194 199.054 97.4515 199.03C97.5971 188.836 97.8965 179.871 98.3495 172.137Z" fill="#406FB5"/>
<path d="M126.821 188.472H133.156C134.126 188.472 134.806 189.248 134.66 190.195L132.379 207.379C132.258 208.326 131.384 209.103 130.413 209.103H124.078C123.107 209.103 122.452 208.326 122.573 207.379L124.855 190.195C124.976 189.248 125.85 188.472 126.821 188.472Z" fill="#0F3970"/>
<path d="M128.787 383.205C129.014 385.26 129.046 387.112 128.884 388.763C136.797 392.379 135.947 388.423 138.981 388.108C138.18 386.627 137.307 384.758 137.064 382.477C133.617 383.496 131.651 383.739 128.787 383.205ZM91.8697 386.991C91.8697 388.496 91.7321 389.823 91.457 390.972C93.5687 392.719 95.9959 394.564 97.3551 393.447C97.9862 392.913 99.6609 392.744 100.899 393.035C100.381 391.223 99.9765 388.949 99.6852 386.214C96.9182 386.991 94.7823 387.258 91.8697 386.991Z" fill="#F4AE7C"/>
<path d="M146.966 249.491C132.986 263.164 114.28 263.205 90.8498 249.613C86.8935 260.753 90.8498 292.841 88.4469 321.263C86.2139 344.904 85.3158 366.773 90.6314 386.87C91.0521 386.918 91.4647 386.959 91.8692 386.991C94.7819 387.258 96.9178 386.991 99.6848 386.214C100.138 386.085 100.615 385.939 101.117 385.778C102.427 363.909 104.903 346.554 105.437 333.69C108.204 322.137 114.563 304.443 119.321 280.608C123.52 302.477 126.432 317.647 128.374 331.19C125.34 339.952 123.059 358.933 126.408 382.647C127.282 382.865 128.059 383.059 128.787 383.205C131.651 383.739 133.617 383.496 137.063 382.477C137.5 382.347 137.961 382.202 138.447 382.04C138.156 359.321 142.646 343.205 145.704 331.093C147.427 296.724 150.122 270.001 146.966 249.491Z" fill="#0F3970"/>
<path d="M124.878 366.36C129.992 367.816 134.668 368.253 138.908 367.671C139.005 366.49 139.11 365.333 139.223 364.2C134.563 364.847 129.749 364.524 124.781 363.229C124.814 364.248 124.846 365.292 124.878 366.36ZM87.5969 370.438C93.1471 371.134 98.0662 370.745 102.354 369.273C102.451 368.059 102.556 366.854 102.67 365.656C97.8639 367.307 92.7426 367.873 87.3057 367.355C87.3866 368.391 87.4837 369.418 87.5969 370.438ZM101.626 378.132C101.723 376.918 101.82 375.721 101.917 374.54C97.6293 375.769 93.0904 376.166 88.3008 375.729C88.4626 376.765 88.6406 377.8 88.8348 378.836C93.5597 379.386 97.8235 379.151 101.626 378.132ZM138.665 371.433C134.328 372.177 129.83 372.096 125.17 371.19C125.251 372.226 125.34 373.269 125.437 374.321C130.21 375.389 134.571 375.583 138.519 374.904C138.552 373.723 138.6 372.566 138.665 371.433Z" fill="#6998D0"/>
<path d="M127.403 119.637C124.49 119.176 119.757 122.549 121.359 122.768C121.893 122.841 123.301 121.87 123.859 121.7C124.975 121.312 127.16 121.36 127.718 120.583C127.961 120.268 127.767 119.71 127.403 119.637Z" fill="#0F3970"/>
<path d="M131.797 120.292C132.452 120.996 134.637 120.705 135.778 120.972C136.336 121.093 137.865 121.87 138.375 121.724C139.952 121.312 134.855 118.496 132.016 119.321C131.627 119.443 131.53 120.001 131.797 120.292Z" fill="#0F3970"/>
<path d="M125.219 126.651C124.394 126.7 123.568 123.569 125.583 123.472C126.651 123.399 126.578 126.578 125.219 126.651Z" fill="#0F3970"/>
<path d="M135.557 126.069C136.383 126.045 136.844 122.841 134.854 122.962C133.761 123.011 134.198 126.166 135.557 126.069Z" fill="#0F3970"/>
<path d="M132.476 131.603C132.258 131.311 132.792 131.044 133.107 130.826C134.248 130.001 134.564 130.583 131.675 125.559C131.093 124.588 130.68 124.103 131.044 123.909C131.384 123.739 131.457 124.176 132.112 125.292C135.268 130.753 134.952 130.049 132.84 131.651C132.719 131.724 132.573 131.724 132.476 131.603Z" fill="#ED7D5B"/>
<path d="M128.883 136.554C128.495 135.947 129.393 136.069 134.805 135.171C136.407 134.928 131.99 141.506 128.883 136.554Z" fill="#ED7D5B"/>
<path d="M78.3496 194.006C77.2088 198.836 76.7476 203.253 77.67 209.103C80.5098 213.423 91.9175 211.02 121.335 205.851C122.403 206.87 124.587 207.865 127.888 207.428C130.971 206.603 131.117 205.778 134.563 202.355C135.405 199.702 135.235 197.671 134.053 196.263C130.17 198.666 128.131 199.952 123.738 200.098C124.903 196.943 125.081 194.912 124.272 194.006C122.783 195.252 121.812 197.137 121.359 199.661C98.1554 198.617 92.0389 198.739 88.9564 200.462C89.2962 198.925 89.5955 197.574 89.8544 196.409C86.2379 195.122 83.301 194.37 78.3496 194.006Z" fill="#F4AE7C"/>
<path d="M560.535 85.5592L485.608 140.219C453.739 163.448 401.87 91.0689 433.108 68.2776L508.06 13.6175C519.88 4.97667 573.108 -0.605855 600.001 1.65143C594.589 23.2776 573.472 76.1175 560.535 85.5592Z" fill="#406FB5"/>
<path d="M525.898 7.25812C547.282 2.50084 580.534 0.0251143 600 1.65133C595.559 19.4426 580.486 58.3261 568.059 76.8212L494.733 130.316C462.864 153.569 415.34 87.1125 446.602 64.3212L521.529 9.66104C522.646 8.86007 524.127 8.03482 525.898 7.25812Z" fill="#A5CDED"/>
<path d="M561.021 2.25815C575.341 1.06883 589.637 0.777568 600.001 1.65135C597.792 10.462 592.987 24.4426 587.186 38.5688C578.982 37.8164 571.142 33.6902 565.899 26.53C560.608 19.2484 559.103 10.3892 561.021 2.25815Z" fill="#6998D0"/>
<path d="M571.359 71.3601C569.32 86.7242 562.913 99.6125 553.665 111.093C550.388 104.855 546.117 99.03 540.85 93.6174C549.879 85.4621 559.806 77.865 571.359 71.3601Z" fill="#6998D0"/>
<path d="M503.957 114.564L511.263 124.588C514.078 128.448 470.899 176.773 457.937 186.215C456.117 187.549 492.962 140.729 491.627 138.909L484.321 128.884C482.986 127.064 483.399 124.491 485.219 123.156L498.229 113.666C500.049 112.331 502.622 112.744 503.957 114.564Z" fill="#DDE9EF"/>
<path d="M503.957 114.564L511.263 124.588C513.739 127.962 481.142 165.195 464.2 180.899C473.205 168.86 495.22 140.268 494.2 138.836L486.87 128.812C485.559 126.991 485.948 124.418 487.768 123.083L500.802 113.593C501.126 113.367 501.457 113.189 501.797 113.059C502.647 113.302 503.399 113.812 503.957 114.564Z" fill="#6998D0"/>
<path d="M524.491 7.33095C509.224 4.58823 495 6.74843 481.238 12.0397C486.19 17.064 490.437 22.9135 493.981 29.5882C504.515 23.496 514.758 16.3358 524.491 7.33095Z" fill="#6998D0"/>
<path d="M463.156 58.6417L455.826 48.5931C453.011 44.7339 393.836 71.0931 380.875 80.5592C379.054 81.8698 434.88 61.0931 436.19 62.9135L443.52 72.9621C444.831 74.7825 447.428 75.1708 449.224 73.8601L462.258 64.3456C464.079 63.0349 464.467 60.4378 463.156 58.6417Z" fill="#DDE9EF"/>
<path d="M463.155 58.6417L455.825 48.5932C453.374 45.2194 407.961 64.8796 387.84 76.2145C402.063 71.3359 436.019 59.0786 437.039 60.5107L444.369 70.5349C445.68 72.3553 448.277 72.7679 450.097 71.433L463.107 61.9427C463.43 61.7 463.706 61.4249 463.932 61.1175C463.956 60.2679 463.689 59.3699 463.155 58.6417Z" fill="#6998D0"/>
<path d="M536.238 48.1561C542.767 57.1367 540.801 69.6853 531.845 76.2144C522.888 82.7678 510.315 80.8018 503.786 71.8454C497.257 62.8649 499.223 50.3163 508.179 43.7872C517.136 37.2338 529.684 39.1998 536.238 48.1561Z" fill="#406FB5"/>
<path d="M536.238 48.1561C537.694 50.1464 538.714 52.3308 539.345 54.5639C538.422 57.0881 536.772 59.3454 534.442 61.0444C528.155 65.6318 519.369 64.2483 514.781 57.9619C510.825 52.5493 511.311 45.2677 515.558 40.4134C523.131 38.6901 531.359 41.4813 536.238 48.1561Z" fill="#E9EFF8"/>
<path d="M333.545 196.652L377.428 177.38L370.559 198.278L417.793 161.02L411.773 185.147L436.409 158.957L418.618 134.588L400.851 110.219L368.375 125.681L393.181 127.283L343.278 160.899L365.293 160.753L333.545 196.652Z" fill="#6998D0"/>
<path d="M422.136 94.9767L456.262 141.773C458.398 144.685 457.743 148.787 454.855 150.899L444.151 158.715C441.238 160.826 437.136 160.171 435.024 157.282L400.874 110.462C398.762 107.574 399.393 103.472 402.306 101.36L413.01 93.5446C415.898 91.433 420 92.064 422.136 94.9767Z" fill="#6998D0"/>
<path d="M435.074 153.642C434.71 153.35 431.749 149.855 431.457 149.467L407.477 116.36C384.783 85.0252 479.71 148.763 435.074 153.642Z" fill="#DDE9EF"/>
<path d="M353.277 126.336C358.593 129.685 350.947 133.302 348.447 134.879C299.79 166.142 275.462 181.773 275.462 181.773C313.714 153.132 336.951 135.729 345.171 129.564C347.452 127.865 350.413 124.54 353.277 126.336Z" fill="#A5CDED"/>
<path d="M326.942 195.68C332.257 199.03 324.611 202.622 322.136 204.224C273.479 235.486 249.142 251.117 249.126 251.117C287.378 222.476 310.615 205.074 318.835 198.909C321.116 197.209 324.077 193.86 326.942 195.68Z" fill="#A5CDED"/>
<path d="M402.598 189.879C407.913 193.229 400.268 196.845 397.792 198.423C349.135 229.685 324.807 245.316 324.807 245.316C363.043 216.676 386.271 199.273 394.491 193.108C396.773 191.409 399.758 188.083 402.598 189.879Z" fill="#A5CDED"/>
<path d="M460.244 264.88H447.04C446.239 264.88 445.608 264.248 445.608 263.448C445.608 262.647 446.239 261.991 447.04 261.991H460.244C461.045 261.991 461.7 262.647 461.7 263.448C461.7 264.248 461.045 264.88 460.244 264.88ZM404.273 281.36H367.598C366.797 281.36 366.166 280.705 366.166 279.928C366.166 279.127 366.797 278.472 367.598 278.472H404.273C405.05 278.472 405.705 279.127 405.705 279.928C405.705 280.705 405.05 281.36 404.273 281.36ZM445.875 281.36H410.171C409.37 281.36 408.739 280.705 408.739 279.928C408.739 279.127 409.37 278.472 410.171 278.472H445.875C446.676 278.472 447.331 279.127 447.331 279.928C447.331 280.705 446.676 281.36 445.875 281.36ZM390.292 273.132H367.598C366.797 273.132 366.166 272.477 366.166 271.676C366.166 270.899 366.797 270.244 367.598 270.244H390.292C391.093 270.244 391.749 270.899 391.749 271.676C391.749 272.477 391.093 273.132 390.292 273.132ZM460.244 273.132H396.651C395.85 273.132 395.195 272.477 395.195 271.676C395.195 270.899 395.85 270.244 396.651 270.244H460.244C461.045 270.244 461.7 270.899 461.7 271.676C461.7 272.477 461.045 273.132 460.244 273.132ZM440.923 264.88H367.598C366.797 264.88 366.166 264.248 366.166 263.448C366.166 262.647 366.797 261.991 367.598 261.991H440.923C441.724 261.991 442.355 262.647 442.355 263.448C442.355 264.248 441.724 264.88 440.923 264.88Z" fill="#A5CDED"/>
<path d="M390.972 229.564L414.006 217.282L425.195 221.967L436.7 206.748L448.083 217.914L459.345 202.404L471.239 209.71L470.559 210.826L459.71 204.176L448.253 219.928L436.845 208.739L425.632 223.593L414.054 218.739L391.603 230.729L390.972 229.564Z" fill="#0F3D86"/>
<path d="M387.548 239.467L395.024 239.443V253.666H387.548V239.467Z" fill="#95C2E8"/>
<path d="M398.933 234.855H406.384V253.666H398.933V234.855Z" fill="#0F3D86"/>
<path d="M410.292 227.04H417.768V253.666H410.292V227.04Z" fill="#95C2E8"/>
<path d="M421.674 232.476L429.125 232.452V253.641H421.674V232.476Z" fill="#0F3D86"/>
<path d="M433.058 217.962H440.509V253.642H433.058V217.962Z" fill="#95C2E8"/>
<path d="M444.417 230.486H451.893V253.617L444.417 253.642V230.486Z" fill="#0F3D86"/>
<path d="M455.802 213.205H463.253V253.617H455.802V213.205Z" fill="#95C2E8"/>
<path d="M391.288 227.914C392.526 227.914 393.521 228.909 393.521 230.147C393.521 231.384 392.526 232.38 391.288 232.38C390.05 232.38 389.055 231.384 389.055 230.147C389.055 228.909 390.05 227.914 391.288 227.914Z" fill="#9BA8D2"/>
<path d="M414.028 215.777C415.266 215.777 416.261 216.772 416.261 218.01C416.261 219.248 415.266 220.243 414.028 220.243C412.79 220.243 411.795 219.248 411.795 218.01C411.795 216.772 412.79 215.777 414.028 215.777Z" fill="#9BA8D2"/>
<path d="M425.413 220.559C426.626 220.559 427.646 221.554 427.646 222.768C427.646 224.006 426.626 225.001 425.413 225.001C424.175 225.001 423.18 224.006 423.18 222.792C423.18 221.554 424.175 220.559 425.413 220.559Z" fill="#9BA8D2"/>
<path d="M436.772 205.51C438.01 205.51 439.005 206.506 439.005 207.744C439.005 208.957 438.01 209.977 436.772 209.977C435.558 209.977 434.539 208.981 434.539 207.744C434.539 206.506 435.558 205.51 436.772 205.51Z" fill="#9BA8D2"/>
<path d="M448.179 216.7C449.393 216.7 450.388 217.695 450.388 218.909C450.388 220.147 449.393 221.142 448.179 221.142C446.941 221.142 445.946 220.147 445.946 218.909C445.946 217.695 446.941 216.7 448.179 216.7Z" fill="#9BA8D2"/>
<path d="M459.513 201.069C460.751 201.069 461.746 202.064 461.746 203.278C461.746 204.515 460.751 205.511 459.513 205.511C458.3 205.511 457.305 204.515 457.305 203.302C457.305 202.064 458.3 201.069 459.513 201.069Z" fill="#9BA8D2"/>
<path d="M201.821 87.8406C218.083 90.5833 230.486 104.758 230.486 121.797C230.486 140.826 215.074 156.263 196.045 156.263C178.787 156.263 164.491 143.569 161.991 127.015H201.821V87.8406Z" fill="#95C2E8"/>
<path d="M196.045 87.3552C196.676 87.3552 197.299 87.3714 197.914 87.4038V123.156H161.628C161.612 122.719 161.604 122.266 161.604 121.797C161.604 102.792 177.016 87.3552 196.045 87.3552Z" fill="#0F3D86"/>
<path d="M263.494 264.2H248.955C248.081 264.2 247.353 263.496 247.353 262.622C247.353 261.748 248.081 261.044 248.955 261.044H263.494C264.368 261.044 265.072 261.748 265.072 262.622C265.072 263.496 264.368 264.2 263.494 264.2ZM201.892 282.331H161.577C160.679 282.331 159.975 281.627 159.975 280.753C159.975 279.879 160.679 279.151 161.577 279.151H201.892C202.766 279.151 203.47 279.879 203.47 280.753C203.47 281.627 202.766 282.331 201.892 282.331ZM247.669 282.331H208.397C207.523 282.331 206.819 281.627 206.819 280.753C206.819 279.879 207.523 279.151 208.397 279.151H247.669C248.567 279.151 249.271 279.879 249.271 280.753C249.271 281.627 248.567 282.331 247.669 282.331ZM186.528 273.277H161.577C160.679 273.277 159.975 272.549 159.975 271.676C159.975 270.802 160.679 270.098 161.577 270.098H186.528C187.426 270.098 188.13 270.802 188.13 271.676C188.13 272.549 187.402 273.277 186.528 273.277ZM263.494 273.277H193.518C192.645 273.277 191.941 272.549 191.941 271.676C191.941 270.802 192.645 270.098 193.518 270.098H263.494C264.368 270.098 265.072 270.802 265.072 271.676C265.072 272.549 264.368 273.277 263.494 273.277ZM242.232 264.2H161.577C160.679 264.2 159.975 263.496 159.975 262.622C159.975 261.748 160.679 261.044 161.577 261.044H242.232C243.106 261.044 243.81 261.748 243.81 262.622C243.81 263.496 243.106 264.2 242.232 264.2Z" fill="#A5CDED"/>
<path fill-rule="evenodd" clip-rule="evenodd" d="M329.443 354.807V351.142H336.749V354.807H329.443ZM185.001 321.749V327.671H181.36V321.749H185.001ZM181.336 345.923H185.001V352.986H183.423V354.807H181.336V345.923ZM201.676 354.783V351.142H208.982V354.783H201.676ZM227.21 354.783V351.142H234.516V354.783H227.21ZM252.768 354.783V351.142H260.074V354.783H252.768ZM278.302 354.783V351.142H285.608V354.783H278.302ZM303.86 354.783V351.142H311.166V354.783H303.86Z" fill="#95C2E8"/>
<path d="M159.637 255.777H263.569C263.569 255.777 246.991 245.899 241.845 246.408C236.676 246.918 228.666 250.923 223.957 251.093C219.248 251.239 216.845 237.209 211.53 237.865C206.19 238.52 201.894 250.947 199.418 249.734C196.943 248.52 188.957 247.986 183.981 249.709C178.981 251.457 173.569 244.2 169.443 244.418C165.292 244.637 159.637 255.777 159.637 255.777Z" fill="#5D9CD4"/>
<path d="M173.495 228.253H159.417L159.49 226.312H173.567L173.495 228.253Z" fill="#A5CDED"/>
<path d="M190.777 228.253H175.243L175.292 226.312H190.826L190.777 228.253Z" fill="#A5CDED"/>
<path d="M173.301 236.481H159.224L159.272 234.54H173.35L173.301 236.481Z" fill="#A5CDED"/>
<path d="M190.584 236.481H175.025L175.074 234.54H190.632L190.584 236.481Z" fill="#A5CDED"/>
<path d="M181.165 223.739H159.539L159.588 221.821H181.214L181.165 223.739Z" fill="#A5CDED"/>
<path d="M195.657 223.739H183.205L183.254 221.821H195.705L195.657 223.739Z" fill="#A5CDED"/>
<path d="M180.922 232.501H159.32L159.369 230.559H180.971L180.922 232.501Z" fill="#A5CDED"/>
<path d="M195.436 232.501H182.984L183.033 230.559H195.484L195.436 232.501Z" fill="#A5CDED"/>
</svg>
