<svg width="600" height="401" viewBox="0 0 600 401" fill="none" xmlns="http://www.w3.org/2000/svg">
<path fill-rule="evenodd" clip-rule="evenodd" d="M52.2786 330.851C70.2379 330.851 84.7898 332.542 84.7898 334.592C84.7898 336.667 70.2379 338.332 52.2786 338.332C34.3193 338.332 19.793 336.667 19.793 334.592C19.793 332.542 34.3193 330.851 52.2786 330.851Z" fill="#D0D9EE"/>
<path fill-rule="evenodd" clip-rule="evenodd" d="M325.486 6.40479C257.518 6.40479 228.901 51.5977 179.839 86.6965C114.919 133.196 49.9992 102.939 39.5976 259.987C30.349 399.768 145.791 275.129 308.578 325.189C471.364 375.275 637.174 395.438 587.985 233.42C538.769 71.4016 483.38 6.40479 325.486 6.40479Z" fill="#E9EFF8"/>
<path fill-rule="evenodd" clip-rule="evenodd" d="M35.114 335.745C35.114 335.745 25.5579 332.901 25.0455 321.577C24.5331 310.253 17.129 308.075 14.772 305.104C12.4406 302.157 15.2588 296.137 13.9522 291.602C12.62 287.042 7.03491 286.837 8.34151 279.996C9.62249 273.182 7.03491 271.158 2.44901 264.983C-2.16251 258.835 0.732496 247.485 3.06388 247.101C5.39526 246.717 3.03825 249.688 5.93327 253.839C8.8539 257.964 17.7183 257.682 21.1257 260.961C24.5331 264.215 20.767 270.133 24.8149 274.642C28.8628 279.177 37.7015 275.82 41.0833 280.329C44.4395 284.813 39.828 291.858 42.4924 296.726C45.1568 301.594 51.8948 303.361 55.3022 307.025C58.7096 310.689 65.1145 317.76 58.9658 328.827C52.8171 339.895 35.114 335.745 35.114 335.745Z" fill="#D0D9EE"/>
<path fill-rule="evenodd" clip-rule="evenodd" d="M25.7624 325.932C25.6428 325.505 25.5318 325.061 25.4293 324.6L51.6125 333.362L48.4869 328.34C48.4699 328.323 48.4528 328.298 48.4357 328.264L46.8473 325.676L24.6607 318.272C24.5753 317.811 24.4729 317.375 24.3533 316.965L45.8738 324.164L43.0556 319.604L22.5599 312.738C22.2013 312.174 21.8255 311.645 21.4327 311.15L42.0821 318.067L40.673 315.812C40.6559 315.778 40.6474 315.753 40.6474 315.736L34.4987 305.846L13.9774 298.98C14.0115 298.605 14.0542 298.212 14.1055 297.802L33.5251 304.309L30.4508 299.365L14.3104 293.985C14.2934 293.558 14.2507 293.139 14.1823 292.729L29.5028 297.827L27.1971 294.138C27.18 294.121 27.1715 294.096 27.1715 294.061L20.4591 283.276L8.44356 279.279C8.51188 278.869 8.56312 278.476 8.59728 278.1L19.4856 281.738L13.6187 272.336C13.6187 272.319 13.6102 272.302 13.5931 272.285L3.90889 256.734C3.75517 256.452 3.83203 256.093 4.11385 255.939C4.37005 255.76 4.72871 255.837 4.90805 256.119L13.6956 270.235L14.8485 258.143C15.2242 258.245 15.6 258.356 15.9757 258.476L14.6947 271.849L21.3046 282.481C21.3046 282.498 21.3131 282.516 21.3302 282.533L27.4277 292.345L31.245 277.281C31.6207 277.332 32.005 277.375 32.3979 277.409L28.2731 293.703L30.6045 297.443L35.6515 277.767C36.0444 277.819 36.4201 277.878 36.7788 277.947L31.5268 298.519L31.6805 298.57C31.9879 298.673 32.1417 299.006 32.0392 299.288C32.005 299.39 31.9623 299.467 31.9111 299.518L35.3441 305.027C35.3441 305.044 35.3527 305.061 35.3697 305.078L40.9292 314.019L44.644 299.442C44.9685 299.732 45.3016 300.005 45.6432 300.261L41.7746 315.377L43.2093 317.657L47.3341 301.491C47.6757 301.713 48.0173 301.935 48.3589 302.157L44.0548 319.015L47.6927 324.882C47.6927 324.899 47.7013 324.916 47.7184 324.933L48.7175 326.547L54.0208 305.846C54.3624 306.12 54.6869 306.402 54.9943 306.692L49.563 327.905L53.4315 334.105C53.4315 334.105 53.4401 334.113 53.4571 334.13V334.156C53.0472 334.378 52.6202 334.583 52.1762 334.771L25.7624 325.932Z" fill="white"/>
<path fill-rule="evenodd" clip-rule="evenodd" d="M35.6773 325.881C35.6773 325.881 26.3518 317.862 31.5013 304.847C36.6765 291.858 29.4518 285.633 28.3245 281.124C27.1973 276.615 33.4228 271.286 34.217 265.496C35.0368 259.706 28.8881 256.631 33.7815 249.612C38.7004 242.592 36.8302 239.005 34.7806 229.731C32.7311 220.482 41.7236 209.184 44.5417 209.927C47.3599 210.695 43.2095 212.822 44.3624 218.945C45.5409 225.068 55.6606 229.27 57.8383 234.675C60.0416 240.081 52.7912 244.821 55.0457 251.943C57.3259 259.065 68.9572 259.808 70.4687 266.572C71.9803 273.335 63.1928 278.895 63.7308 285.735C64.2688 292.576 70.9555 297.956 72.9282 303.823C74.9009 309.664 78.5133 320.86 65.9853 330.185C53.4573 339.536 35.6773 325.881 35.6773 325.881Z" fill="#BCC9E7"/>
<path fill-rule="evenodd" clip-rule="evenodd" d="M30.1182 310.125C30.1865 309.578 30.2804 309.023 30.4 308.46L55.4303 331.594L54.4568 324.344C54.4397 324.31 54.4311 324.275 54.4311 324.241L53.9444 320.526L32.757 300.928C32.8936 300.364 33.0046 299.817 33.09 299.288L53.6369 318.323L52.7659 311.765L33.1925 293.652C33.09 292.815 32.9363 292.029 32.7314 291.295L52.4584 309.536L52.0229 306.282C52.0229 306.248 52.0229 306.214 52.0229 306.18L50.1014 291.935L30.5281 273.822C30.7672 273.412 31.0063 272.994 31.2454 272.567L49.8196 289.732L48.8717 282.61L33.4231 268.339C33.628 267.861 33.7988 267.374 33.9355 266.879L48.5643 280.406L47.8469 275.052C47.8469 275.035 47.8469 275.009 47.8469 274.975L45.7461 259.449L34.2942 248.843C34.5845 248.433 34.8407 248.023 35.0627 247.613L45.4643 257.221L43.6453 243.668C43.6453 243.634 43.6453 243.608 43.6453 243.591L40.6222 221.199C40.571 220.789 40.8528 220.431 41.2371 220.38C41.6214 220.328 41.98 220.61 42.0313 220.994L44.7726 241.362L52.2022 228.322C52.578 228.629 52.9452 228.945 53.3039 229.27L45.08 243.668L47.1296 258.963C47.1296 258.98 47.1296 259.005 47.1296 259.04L49.0254 273.182L60.9385 258.168C61.3484 258.425 61.7583 258.672 62.1682 258.911L49.3072 275.129L50.0246 280.534L65.6525 260.935C66.0624 261.192 66.4553 261.456 66.831 261.73L50.5113 282.2L50.6394 282.328C50.9469 282.584 50.9469 283.045 50.6907 283.327C50.6053 283.412 50.5113 283.472 50.4089 283.506L51.4849 291.474C51.4849 291.491 51.4849 291.508 51.4849 291.525L53.227 304.386L64.8071 289.885C65.012 290.364 65.2341 290.842 65.4732 291.32L53.4832 306.359L53.9187 309.664L66.7542 293.575C67.0274 293.985 67.3007 294.403 67.574 294.83L54.1749 311.611L55.3022 320.04C55.3193 320.057 55.3278 320.082 55.3278 320.117L55.6353 322.448L72.083 301.824C72.3392 302.32 72.5613 302.815 72.7491 303.31L55.8915 324.395L57.0956 333.311C57.0956 333.345 57.0956 333.37 57.0956 333.388V333.413C56.5149 333.447 55.9342 333.456 55.3534 333.439L30.1182 310.125Z" fill="#E9EFF8"/>
<path fill-rule="evenodd" clip-rule="evenodd" d="M36.8818 321.705C36.8818 321.705 31.8091 312.738 39.5462 303.951C47.2833 295.163 43.3635 288.22 43.7478 284.352C44.1321 280.483 50.537 278.049 52.8171 273.72C55.0973 269.39 51.1006 265.214 56.9675 261.064C62.8344 256.913 62.3476 253.583 63.3724 245.692C64.3716 237.801 74.645 231.473 76.669 232.856C78.6673 234.24 74.7731 234.752 73.9789 239.902C73.1591 245.051 79.9483 251.226 80.1532 256.093C80.3326 260.961 73.2872 262.652 73.0566 268.929C72.826 275.18 81.7929 279.048 81.0755 284.813C80.3582 290.552 71.8525 292.473 70.3409 298.007C68.8294 303.541 72.5954 309.689 72.4674 314.865C72.3649 320.014 72.0574 329.852 59.5551 333.669C47.0271 337.487 36.8818 321.705 36.8818 321.705Z" fill="#AAB9DE"/>
<path fill-rule="evenodd" clip-rule="evenodd" d="M36.958 307.717C37.163 307.307 37.3935 306.897 37.6497 306.487L50.8438 331.774L52.1248 325.804C52.1248 325.77 52.1248 325.744 52.1248 325.727L52.7909 322.653L41.6464 301.209C41.9026 300.817 42.1417 300.424 42.3637 300.031L53.1752 320.808L54.3537 315.403L44.0546 295.599C44.1913 294.916 44.2852 294.249 44.3365 293.6L54.738 313.584L55.3272 310.894C55.3272 310.859 55.3272 310.834 55.3272 310.817L57.8636 299.032L47.5389 279.228C47.8463 278.972 48.1623 278.707 48.4868 278.434L58.2479 297.213L59.5032 291.346L51.3818 275.744C51.6722 275.419 51.9455 275.077 52.2017 274.719L59.9131 289.527L60.8611 285.095C60.8611 285.078 60.8611 285.061 60.8611 285.043L63.628 272.208L57.5818 260.628C57.9234 260.372 58.2393 260.116 58.5297 259.859L64.0123 270.389L66.4205 259.168C66.4205 259.151 66.4205 259.134 66.4205 259.116L70.3916 240.619C70.4684 240.286 70.7759 240.081 71.1089 240.158C71.4163 240.235 71.6213 240.542 71.5701 240.85L67.9577 257.656L77.4882 249.509C77.6931 249.868 77.8981 250.218 78.103 250.56L67.5478 259.578L64.8321 272.208C64.8321 272.225 64.8236 272.242 64.8065 272.259L62.3214 283.942L75.9254 275.487C76.1816 275.795 76.4378 276.102 76.694 276.41L61.9627 285.556L61.0148 290.014L78.8716 278.997C79.1278 279.322 79.3669 279.646 79.589 279.971L60.9123 291.474L60.9892 291.628C61.1429 291.91 61.0404 292.268 60.733 292.422C60.6476 292.473 60.5622 292.499 60.4768 292.499L59.0677 299.057C59.0677 299.074 59.0677 299.092 59.0677 299.109L56.7876 309.741L70.0073 301.568C70.0414 302.012 70.0841 302.456 70.1354 302.9L56.4289 311.355L55.8396 314.07L70.5197 305.027C70.6051 305.437 70.699 305.847 70.8015 306.256L55.5066 315.684L54.0206 322.653C54.0036 322.67 53.995 322.687 53.995 322.704L53.5851 324.651L72.3899 313.046C72.4411 313.507 72.4667 313.959 72.4667 314.403L53.2264 326.265L51.6636 333.618C51.6636 333.635 51.6551 333.652 51.638 333.669V333.695C51.1598 333.558 50.6986 333.405 50.2546 333.234L36.958 307.717Z" fill="#D0D9EE"/>
<path fill-rule="evenodd" clip-rule="evenodd" d="M195.313 133.171C193.879 130.967 192.649 128.636 191.598 126.228L197.978 119.976C196.902 116.62 196.261 113.11 196.133 109.498L188.012 105.809L189.113 98.0205L197.952 96.7139C199.054 93.2553 200.642 90.0528 202.615 87.1578L198.183 79.3951C199.848 77.3455 201.693 75.4497 203.665 73.7332L209.455 76.7563L211.607 77.8579C214.451 75.7827 217.602 74.0918 220.958 72.8877L221.958 63.9977L229.72 62.6399L233.691 70.6332L244.195 72.1191L250.242 65.5093C252.727 66.4828 255.084 67.6357 257.313 68.9679L255.827 77.7811L263.461 85.1595L272.223 83.3661C273.632 85.5694 274.888 87.9008 275.912 90.3346L269.533 96.5858C270.635 99.9164 271.25 103.426 271.378 107.039L279.499 110.728L278.398 118.542L269.559 119.848C268.457 123.281 266.894 126.484 264.922 129.379L269.328 137.167C267.663 139.191 265.818 141.087 263.846 142.829L256.672 139.063L255.929 138.679L248.115 143.06L246.552 143.675L245.553 152.565L244.836 152.744L244.605 152.795L237.791 153.922L233.82 145.904L225.288 144.93L223.316 144.418L217.269 151.027L210.198 147.569L211.684 138.756C208.789 136.655 206.227 134.17 204.05 131.377L195.313 133.171ZM251.241 110.267C252.317 100.634 245.4 91.9231 235.767 90.8214C226.134 89.7198 217.423 96.6371 216.321 106.296C215.22 115.929 222.163 124.639 231.796 125.715C241.429 126.817 250.139 119.9 251.241 110.267Z" fill="#AAB9DE"/>
<path fill-rule="evenodd" clip-rule="evenodd" d="M255.75 131.659C255.545 131.633 255.34 131.531 255.186 131.377C254.853 131.019 254.853 130.429 255.237 130.071C260.284 125.228 263.512 118.721 264.307 111.753C264.691 108.422 264.512 105.066 263.794 101.812C263.666 101.325 263.999 100.839 264.486 100.711C264.998 100.608 265.485 100.916 265.588 101.428C266.356 104.861 266.536 108.422 266.151 111.958C265.306 119.362 261.873 126.279 256.493 131.403C256.288 131.608 256.032 131.685 255.75 131.659Z" fill="white"/>
<path fill-rule="evenodd" clip-rule="evenodd" d="M257.979 89.2329C257.748 89.2073 257.544 89.1048 257.364 88.8999C254.7 85.7487 251.472 83.2123 247.808 81.3934C247.347 81.1628 247.168 80.5991 247.398 80.138C247.629 79.7025 248.167 79.4975 248.628 79.7281C252.548 81.6752 255.955 84.3652 258.799 87.7214C259.106 88.1057 259.081 88.6949 258.671 89.028C258.466 89.1817 258.235 89.2586 257.979 89.2329Z" fill="white"/>
<path fill-rule="evenodd" clip-rule="evenodd" d="M230.13 78.524C229.72 78.4727 229.387 78.1397 229.311 77.7298C229.259 77.2174 229.618 76.7562 230.105 76.6793C232.718 76.3207 235.382 76.2951 238.021 76.6025C238.534 76.6537 238.892 77.1149 238.841 77.6273C238.764 78.1397 238.329 78.4983 237.816 78.4471C235.331 78.1653 232.82 78.1909 230.361 78.524C230.293 78.524 230.216 78.524 230.13 78.524Z" fill="white"/>
<path fill-rule="evenodd" clip-rule="evenodd" d="M192.88 167.373L195.057 171.113C197.645 175.596 200.207 175.417 201.308 175.058C204.434 174.059 207.355 173.419 210.583 172.573C211.787 172.266 213.811 171.395 213.811 166.066V162.069C213.811 158.226 216.936 155.075 220.805 155.075H232.206C236.048 155.075 239.2 158.226 239.2 162.069V166.066C239.2 171.395 241.224 172.266 242.402 172.573C245.656 173.419 248.551 174.059 251.702 175.058C252.778 175.417 255.34 175.596 257.953 171.113L260.105 167.373C262.052 164.042 266.356 162.915 269.661 164.836L279.525 170.575C282.855 172.522 283.983 176.801 282.061 180.131L279.884 183.872C277.322 188.278 278.423 190.276 279.243 190.994C281.421 192.967 283.47 195.093 285.494 197.219C286.109 197.834 288.005 199.986 293.026 197.066L296.459 195.067C299.764 193.12 304.068 194.273 306.016 197.604L311.754 207.442C313.676 210.772 312.549 215.076 309.218 216.998L305.811 218.996C301.097 221.712 301.225 223.121 301.814 225.119C302.634 227.835 303.53 230.576 304.12 233.42C304.658 235.931 304.402 237.75 310.806 237.75H314.726C318.569 237.75 321.72 240.875 321.72 244.718V256.119C321.72 259.987 318.569 263.113 314.726 263.113H310.806C304.402 263.113 304.658 264.932 304.12 267.443C303.53 270.286 302.634 273.002 301.814 275.743C301.225 277.742 301.097 279.151 305.811 281.866L309.218 283.865C312.549 285.786 313.676 290.09 311.754 293.421L306.016 303.259C304.068 306.589 299.764 307.717 296.459 305.795L293.026 303.797C288.005 300.876 286.109 303.028 285.494 303.643C283.47 305.77 281.421 307.896 279.243 309.869C278.423 310.56 277.322 312.559 279.884 316.991L282.061 320.731C283.983 324.036 282.855 328.34 279.525 330.287L269.661 336.001C266.356 337.948 262.052 336.82 260.105 333.49L257.953 329.749C255.34 325.266 252.778 325.445 251.702 325.804C248.551 326.803 245.656 327.444 242.402 328.289C241.224 328.597 239.2 329.468 239.2 334.797V338.793C239.2 342.636 236.048 345.787 232.206 345.787H220.805C216.936 345.787 213.811 342.636 213.811 338.793V334.797C213.811 329.468 211.787 328.597 210.583 328.289C207.355 327.444 204.434 326.803 201.308 325.804C200.207 325.445 197.645 325.266 195.057 329.749L192.88 333.49C190.932 336.82 186.654 337.948 183.323 336.001L173.46 330.287C170.129 328.34 169.002 324.036 170.924 320.731L173.101 316.991C175.663 312.559 174.562 310.56 173.767 309.869C171.564 307.896 169.54 305.77 167.491 303.643C166.901 303.003 164.98 300.876 159.984 303.797L156.551 305.795C153.22 307.717 148.916 306.589 146.995 303.259L141.256 293.421C139.309 290.09 140.462 285.786 143.767 283.865L147.174 281.866C151.888 279.151 151.76 277.742 151.171 275.743C150.351 273.002 149.48 270.286 148.865 267.443C148.353 264.932 148.583 263.113 142.178 263.113H138.284C134.416 263.113 131.29 259.987 131.29 256.119V244.718C131.29 240.875 134.416 237.75 138.284 237.75H142.178C148.583 237.75 148.353 235.931 148.865 233.42C149.48 230.576 150.351 227.835 151.171 225.119C151.76 223.121 151.888 221.712 147.174 218.996L143.767 216.998C140.462 215.076 139.309 210.772 141.256 207.442L146.995 197.604C148.916 194.273 153.22 193.12 156.551 195.067L159.984 197.066C164.98 199.986 166.901 197.834 167.491 197.219C169.54 195.093 171.564 192.967 173.767 190.994C174.562 190.276 175.663 188.278 173.101 183.872L170.924 180.131C169.002 176.801 170.129 172.522 173.46 170.575L183.323 164.836C186.628 162.915 190.932 164.042 192.88 167.373ZM170.565 250.431C170.565 281.328 195.595 306.359 226.492 306.359C257.39 306.359 282.42 281.328 282.42 250.431C282.42 219.534 257.39 194.504 226.492 194.504C195.595 194.504 170.565 219.534 170.565 250.431ZM179.301 250.431C179.301 248.638 180.736 247.203 182.504 247.203C184.297 247.203 185.732 248.638 185.732 250.431C185.732 261.678 190.292 271.875 197.67 279.253C205.049 286.632 215.245 291.192 226.492 291.192C228.286 291.192 229.72 292.627 229.72 294.42C229.72 296.188 228.286 297.623 226.492 297.623C213.452 297.623 201.667 292.345 193.11 283.814C184.579 275.257 179.301 263.472 179.301 250.431ZM273.069 242.822C273.351 244.59 272.146 246.23 270.404 246.511C268.662 246.768 267.023 245.589 266.741 243.847C265.357 235.29 261.309 227.655 255.468 221.763C249.627 215.87 242.018 211.746 233.487 210.26C231.744 209.978 230.566 208.313 230.873 206.545C231.155 204.803 232.82 203.624 234.563 203.932C244.452 205.623 253.265 210.388 260.028 217.228C266.766 224.043 271.455 232.907 273.069 242.822ZM226.492 235.367C234.819 235.367 241.557 242.105 241.557 250.431C241.557 258.732 234.819 265.496 226.492 265.496C218.192 265.496 211.428 258.732 211.428 250.431C211.428 242.105 218.192 235.367 226.492 235.367Z" fill="#BCC9E7"/>
<path fill-rule="evenodd" clip-rule="evenodd" d="M361.277 245.845L362.968 248.74C364.992 252.25 366.99 252.097 367.836 251.84C370.295 251.046 372.55 250.559 375.086 249.893C376.008 249.663 377.597 248.971 377.597 244.821V241.695C377.597 238.698 380.03 236.238 383.028 236.238H391.918C394.941 236.238 397.375 238.698 397.375 241.695V244.821C397.375 248.971 398.963 249.663 399.886 249.893C402.422 250.559 404.676 251.046 407.136 251.84C407.981 252.097 409.98 252.25 412.004 248.74L413.695 245.845C415.206 243.258 418.562 242.361 421.15 243.873L428.836 248.33C431.423 249.842 432.32 253.198 430.808 255.786L429.118 258.706C427.119 262.165 427.99 263.702 428.605 264.266C430.322 265.803 431.91 267.468 433.498 269.108C433.96 269.595 435.446 271.26 439.365 268.98L442.03 267.443C444.643 265.931 447.974 266.802 449.485 269.415L453.969 277.101C455.48 279.689 454.583 283.045 451.996 284.557L449.331 286.094C445.668 288.22 445.77 289.322 446.231 290.859C446.872 293.011 447.564 295.137 448.025 297.341C448.435 299.313 448.255 300.723 453.226 300.723H456.274C459.297 300.723 461.731 303.156 461.731 306.154V315.069C461.731 318.067 459.297 320.501 456.274 320.501H453.226C448.255 320.501 448.435 321.91 448.025 323.883C447.564 326.086 446.872 328.212 446.231 330.364C445.77 331.902 445.668 333.003 449.331 335.13L451.996 336.667C454.583 338.178 455.48 341.534 453.969 344.122L449.485 351.808C447.974 354.396 444.643 355.292 442.03 353.781L439.365 352.243C435.446 349.963 433.96 351.629 433.498 352.115C431.91 353.755 430.322 355.42 428.605 356.957C427.99 357.521 427.119 359.058 429.118 362.517L430.808 365.438C432.32 368.025 431.423 371.381 428.836 372.867L421.15 377.351C418.562 378.862 415.206 377.966 413.695 375.378L412.004 372.457C409.98 368.973 407.981 369.127 407.136 369.383C404.676 370.152 402.422 370.664 399.886 371.33C398.963 371.561 397.375 372.252 397.375 376.403V379.528C397.375 382.526 394.941 384.985 391.918 384.985H383.028C380.03 384.985 377.597 382.526 377.597 379.528V376.403C377.597 372.252 376.008 371.561 375.086 371.33C372.55 370.664 370.295 370.152 367.836 369.383C366.99 369.127 364.992 368.973 362.968 372.457L361.277 375.378C359.765 377.966 356.409 378.862 353.822 377.351L346.136 372.867C343.523 371.381 342.651 368.025 344.163 365.438L345.854 362.517C347.852 359.058 346.981 357.521 346.366 356.957C344.65 355.42 343.061 353.755 341.473 352.115C341.012 351.629 339.526 349.963 335.606 352.243L332.916 353.781C330.328 355.292 326.972 354.396 325.486 351.808L321.003 344.122C319.491 341.534 320.388 338.178 322.976 336.667L325.64 335.13C329.304 333.003 329.201 331.902 328.74 330.364C328.1 328.212 327.408 326.086 326.947 323.883C326.537 321.91 326.716 320.501 321.746 320.501H318.672C315.674 320.501 313.24 318.067 313.24 315.069V306.154C313.24 303.156 315.674 300.723 318.672 300.723H321.746C326.716 300.723 326.537 299.313 326.947 297.341C327.408 295.137 328.1 293.011 328.74 290.859C329.201 289.322 329.304 288.22 325.64 286.094L322.976 284.557C320.388 283.045 319.491 279.689 321.003 277.101L325.486 269.415C326.972 266.802 330.328 265.931 332.916 267.443L335.606 268.98C339.526 271.26 341.012 269.595 341.473 269.108C343.061 267.468 344.65 265.803 346.366 264.266C346.981 263.702 347.852 262.165 345.854 258.706L344.163 255.786C342.651 253.198 343.523 249.842 346.136 248.33L353.822 243.873C356.409 242.361 359.765 243.258 361.277 245.845ZM343.856 310.612C343.856 334.694 363.403 354.216 387.486 354.216C411.568 354.216 431.09 334.694 431.09 310.612C431.09 286.529 411.568 267.007 387.486 267.007C363.403 267.007 343.856 286.529 343.856 310.612ZM350.67 310.612C350.67 309.228 351.798 308.101 353.181 308.101C354.565 308.101 355.692 309.228 355.692 310.612C355.692 319.399 359.253 327.341 365.017 333.08C370.756 338.844 378.698 342.406 387.486 342.406C388.869 342.406 389.996 343.507 389.996 344.916C389.996 346.3 388.869 347.427 387.486 347.427C377.315 347.427 368.117 343.302 361.456 336.641C354.795 329.98 350.67 320.783 350.67 310.612ZM423.814 304.694C424.019 306.051 423.097 307.332 421.739 307.537C420.356 307.768 419.075 306.82 418.87 305.462C417.794 298.801 414.617 292.832 410.082 288.246C405.522 283.66 399.578 280.432 392.943 279.279C391.585 279.048 390.663 277.767 390.893 276.384C391.124 275.026 392.405 274.104 393.788 274.334C401.474 275.667 408.366 279.407 413.643 284.71C418.895 290.039 422.559 296.956 423.814 304.694ZM387.486 298.878C393.967 298.878 399.22 304.13 399.22 310.612C399.22 317.093 393.967 322.345 387.486 322.345C381.004 322.345 375.752 317.093 375.752 310.612C375.752 304.13 381.004 298.878 387.486 298.878Z" fill="#D0D9EE"/>
<path fill-rule="evenodd" clip-rule="evenodd" d="M82.8941 50.4194L84.585 53.34C86.6346 56.8243 88.6329 56.6962 89.4784 56.4144C91.9122 55.6458 94.1924 55.1334 96.7287 54.4929C97.651 54.2367 99.2138 53.5706 99.2138 49.3946V46.2946C99.2138 43.2715 101.673 40.8376 104.671 40.8376H113.561C116.584 40.8376 119.018 43.2715 119.018 46.2946V49.3946C119.018 53.5706 120.606 54.2367 121.528 54.4929C124.065 55.1334 126.319 55.6458 128.779 56.4144C129.624 56.6962 131.623 56.8243 133.646 53.34L135.337 50.4194C136.849 47.8318 140.205 46.9607 142.793 48.4467L150.479 52.9301C153.066 54.4416 153.963 57.7978 152.451 60.3854L150.76 63.306C148.762 66.739 149.633 68.3018 150.248 68.8398C151.964 70.377 153.553 72.0423 155.141 73.7076C155.602 74.1943 157.088 75.8596 161.008 73.5795L163.673 72.0167C166.26 70.5051 169.616 71.4018 171.128 73.9894L175.611 81.6752C177.097 84.2628 176.226 87.619 173.639 89.1306L170.974 90.6677C167.311 92.7942 167.413 93.8958 167.874 95.4586C168.515 97.585 169.181 99.7114 169.668 101.94C170.078 103.887 169.873 105.296 174.868 105.296H177.917C180.915 105.296 183.374 107.756 183.374 110.753V119.643C183.374 122.641 180.915 125.1 177.917 125.1H174.868C169.873 125.1 170.078 126.51 169.668 128.457C169.181 130.686 168.515 132.812 167.874 134.938C167.413 136.501 167.311 137.577 170.974 139.729L173.639 141.266C176.226 142.778 177.097 146.134 175.611 148.722L171.128 156.408C169.616 158.995 166.26 159.892 163.673 158.38L161.008 156.817C157.088 154.537 155.602 156.203 155.141 156.689C153.553 158.355 151.964 160.02 150.248 161.531C149.633 162.095 148.762 163.658 150.76 167.091L152.451 170.012C153.963 172.599 153.066 175.955 150.479 177.467L142.793 181.95C140.205 183.436 136.849 182.565 135.337 179.978L133.646 177.057C131.623 173.573 129.624 173.701 128.779 173.957C126.319 174.751 124.065 175.264 121.528 175.904C120.606 176.16 119.018 176.826 119.018 180.977V184.102C119.018 187.1 116.558 189.559 113.561 189.559H104.671C101.673 189.559 99.2138 187.1 99.2138 184.102V180.977C99.2138 176.826 97.651 176.16 96.7287 175.904C94.1924 175.264 91.9122 174.751 89.4784 173.957C88.6329 173.701 86.6346 173.573 84.585 177.057L82.8941 179.978C81.3826 182.565 78.052 183.436 75.4388 181.95L67.7529 177.467C65.1654 175.955 64.2943 172.599 65.7803 170.012L67.4968 167.091C69.4951 163.658 68.624 162.095 67.9835 161.531C66.2926 160.02 64.7042 158.355 63.1158 156.689C62.629 156.203 61.1431 154.537 57.2489 156.817L54.5589 158.38C51.9713 159.892 48.6151 158.995 47.1036 156.408L42.6458 148.722C41.1342 146.134 42.0309 142.778 44.6185 141.266L47.2573 139.729C50.9465 137.577 50.844 136.501 50.3829 134.938C49.7424 132.812 49.0507 130.686 48.5895 128.457C48.1796 126.51 48.3589 125.1 43.3631 125.1H40.3144C37.3169 125.1 34.8574 122.641 34.8574 119.643V110.753C34.8574 107.756 37.3169 105.296 40.3144 105.296H43.3631C48.3589 105.296 48.1796 103.887 48.5895 101.94C49.0507 99.7114 49.7424 97.585 50.3829 95.4586C50.844 93.8958 50.9465 92.7942 47.2573 90.6677L44.6185 89.1306C42.0309 87.619 41.1342 84.2628 42.6458 81.6752L47.1036 73.9894C48.6151 71.4018 51.9713 70.5051 54.5589 72.0167L57.2489 73.5795C61.1431 75.8596 62.629 74.1943 63.1158 73.7076C64.7042 72.0423 66.2926 70.377 67.9835 68.8398C68.624 68.3018 69.4951 66.739 67.4968 63.306L65.7803 60.3854C64.2943 57.7978 65.1654 54.4416 67.7529 52.9301L75.4388 48.4467C78.052 46.9607 81.3826 47.8318 82.8941 50.4194ZM65.4984 115.186C65.4984 139.294 85.0462 158.816 109.129 158.816C133.211 158.816 152.733 139.294 152.733 115.186C152.733 91.1032 133.211 71.5811 109.129 71.5811C85.0462 71.5811 65.4984 91.1032 65.4984 115.186ZM72.3132 115.186C72.3132 113.802 73.4405 112.675 74.824 112.675C76.2074 112.675 77.3347 113.802 77.3347 115.186C77.3347 123.973 80.8958 131.915 86.6346 137.68C92.399 143.418 100.341 146.98 109.129 146.98C110.512 146.98 111.639 148.107 111.639 149.49C111.639 150.874 110.512 152.001 109.129 152.001C98.9576 152.001 89.7602 147.876 83.0991 141.215C76.438 134.554 72.3132 125.357 72.3132 115.186ZM145.457 109.268C145.662 110.625 144.74 111.906 143.356 112.137C141.998 112.342 140.717 111.42 140.513 110.062C139.411 103.401 136.26 97.4313 131.725 92.8454C127.165 88.2339 121.221 85.0314 114.586 83.8785C113.202 83.648 112.305 82.3414 112.536 80.9835C112.767 79.6257 114.048 78.7034 115.431 78.934C123.117 80.2662 130.009 83.981 135.261 89.3099C140.538 94.6131 144.202 101.53 145.457 109.268ZM109.129 103.452C115.61 103.452 120.862 108.704 120.862 115.186C120.862 121.693 115.61 126.945 109.129 126.945C102.647 126.945 97.3692 121.693 97.3692 115.186C97.3692 108.704 102.647 103.452 109.129 103.452Z" fill="#D0D9EE"/>
<path fill-rule="evenodd" clip-rule="evenodd" d="M87.4035 367C125.269 367 155.961 371.279 155.961 376.557C155.961 381.86 125.269 386.138 87.4035 386.138C49.5633 386.138 18.8711 381.86 18.8711 376.557C18.8711 371.279 49.5633 367 87.4035 367Z" fill="#D0D9EE"/>
<path fill-rule="evenodd" clip-rule="evenodd" d="M322.002 381.143C359.868 381.143 390.56 385.421 390.56 390.724C390.56 396.002 359.868 400.306 322.002 400.306C284.137 400.306 253.444 396.002 253.444 390.724C253.444 385.421 284.137 381.143 322.002 381.143Z" fill="#D0D9EE"/>
<path fill-rule="evenodd" clip-rule="evenodd" d="M215.655 137.526C215.655 137.526 212.094 140.754 211.889 140.421C211.735 140.165 213.785 138.525 215.527 136.322C215.988 135.784 216.423 135.22 216.833 134.708C217.884 133.324 217.346 132.3 216.014 133.529C215.527 133.99 214.758 134.733 214.297 135.348C213.785 136.014 213.119 136.45 212.606 136.962C211.581 137.936 210.864 138.628 210.838 138.576C210.813 138.499 210.48 138.551 210.941 137.936C211.479 137.193 213.016 135.886 213.733 134.708C214.143 134.067 215.091 132.761 215.091 132.761C215.091 132.761 216.398 130.481 216.27 130.378C215.655 129.789 214.246 131.172 213.81 132.12C213.221 132.607 212.273 134.016 212.273 134.016C212.273 134.016 209.686 136.424 209.327 136.066C209.045 135.784 214.092 128.79 213.426 128.277C212.888 127.842 211.274 129.866 211.274 129.866C211.274 129.866 210.403 131.147 210.07 131.557C209.711 132.043 208.456 133.401 208.456 133.401C208.456 133.401 203.844 137.91 203.537 137.552C203.229 137.193 202.819 135.937 203.024 135.553C203.204 135.169 203.921 134.656 204.1 134.272C204.28 133.914 204.203 133.273 203.742 132.991C203.281 132.735 201.667 134.195 201.667 134.195C201.667 134.195 200.386 135.425 200.027 136.578C198.823 140.651 199.54 140.703 199.361 141.215C199.156 141.83 192.367 147.184 192.367 147.184L175.073 160.686L149.377 167.27L149.146 180.823C149.146 180.823 176.918 172.907 178.276 172.24C178.276 172.24 200.847 149.695 202.538 148.107C202.538 148.107 206.124 146.57 208.328 145.545C210.557 144.494 212.196 142.522 212.76 142.137C212.862 142.086 214.707 140.677 216.526 138.371C218.089 136.347 215.655 137.526 215.655 137.526Z" fill="#F4AE7C"/>
<path fill-rule="evenodd" clip-rule="evenodd" d="M202.896 142.752C204.024 141.189 204.382 139.575 203.844 137.782C205.279 139.37 204.511 141.856 202.896 142.752Z" fill="#EF8857"/>
<path fill-rule="evenodd" clip-rule="evenodd" d="M162.264 163.069L164.723 179.081C164.723 179.081 138.898 193.402 131.469 187.51C124.039 181.592 132.494 167.142 135.337 165.861C138.181 164.555 162.264 163.069 162.264 163.069Z" fill="#406FB5"/>
<path fill-rule="evenodd" clip-rule="evenodd" d="M116.251 369.076C116.43 367.538 115.867 365.463 116.072 362.978C117.763 343.61 121.401 299.851 121.401 299.851C121.401 299.851 125.525 265.188 125.833 243.258C121.401 242.874 117.045 242.105 112.767 241.029C103.416 238.646 97.1644 234.829 88.2744 230.525C83.4067 248.407 74.4142 281.277 74.4142 281.277C74.4142 281.277 74.4399 288.271 65.1143 288.271C56.9417 288.271 22.9701 316.709 16.2578 320.936C17.1289 322.986 19.3322 325.01 20.3313 327.034C31.1172 318.221 86.7116 297.904 86.7116 297.904L101.802 259.654C101.802 259.654 106.336 306.538 102.673 310.202C99.009 313.865 109.154 366.411 109.154 369.076C109.154 369.409 113.433 369.024 116.251 369.076Z" fill="#F4AE7C"/>
<path fill-rule="evenodd" clip-rule="evenodd" d="M100.675 249.688C100.675 249.688 103.929 301.542 102.315 304.591C100.675 307.614 99.4708 312.713 100.675 325.497C101.905 338.306 105.568 360.672 105.568 360.672L117.558 361.082L122.426 299.903L126.602 243.181L126.704 241.977L110.436 229.782L100.675 249.688Z" fill="#142D4D"/>
<path fill-rule="evenodd" clip-rule="evenodd" d="M23.4316 312.713L28.7349 322.243C28.7349 322.243 76.6179 306.487 86.6608 299.083C90.5293 296.239 106.593 257.426 106.593 257.426L119.249 242.387L119.377 234.035L92.169 222.096C92.169 222.096 82.3054 233.215 80.3583 237.699C75.5162 248.92 72.2369 285.863 72.2369 285.863C72.2369 285.863 72.6212 284.454 63.5007 286.888C54.3288 289.322 23.4316 312.713 23.4316 312.713Z" fill="#0F3970"/>
<path fill-rule="evenodd" clip-rule="evenodd" d="M142.357 164.811L131.52 161.275C131.52 161.275 126.294 161.07 122.656 162.249C118.301 163.658 114.944 168.654 111.87 174.495C104.364 188.662 99.7521 210.132 97.0364 215.742C96.1141 217.638 86.8654 225.913 81.0498 228.578C89.9398 232.882 103.416 238.646 112.767 241.029C117.045 242.105 122.169 242.797 126.601 243.181C126.627 241.029 128.83 229.423 133.416 218.689C139.053 205.52 147.379 192.48 148.481 185.332C150.479 172.368 142.357 164.811 142.357 164.811Z" fill="#6998D0"/>
<path fill-rule="evenodd" clip-rule="evenodd" d="M143.561 159.226L142.485 165.733C142.485 165.733 141.409 170.806 138.975 170.626C136.029 170.37 131.366 161.378 131.366 161.378L135.158 148.184L143.561 159.226Z" fill="#F4AE7C"/>
<path fill-rule="evenodd" clip-rule="evenodd" d="M135.799 150.361C136.03 157.022 139.796 160.583 143.075 162.069L143.562 159.226L135.773 148.978C135.773 149.439 135.799 149.926 135.799 150.361Z" fill="#EC724C"/>
<path fill-rule="evenodd" clip-rule="evenodd" d="M148.353 135.451C150.812 135.809 152.708 136.809 153.195 139.371C153.605 141.523 152.862 144.571 152.938 148.132C153.041 154.665 149.787 161.122 146.559 161.122C143.306 161.122 136.106 157.868 135.799 148.594C135.671 144.597 135.517 139.371 139.104 137.193C141.896 135.476 145.509 135.015 148.353 135.451Z" fill="#F4AE7C"/>
<path fill-rule="evenodd" clip-rule="evenodd" d="M133.827 152.846C133.827 152.846 128.037 143.905 128.728 136.065C129.42 128.226 135.313 125.28 141.487 125.971C144.254 126.304 159.959 130.429 157.807 135.246C154.911 141.727 141.564 136.194 138.643 137.884C136.235 139.294 139.079 143.982 136.747 145.263C134.57 146.467 135.646 146.083 135.851 149.029C136.081 151.975 133.827 152.846 133.827 152.846Z" fill="#0F3970"/>
<path fill-rule="evenodd" clip-rule="evenodd" d="M132.853 145.98C132.853 147.902 133.775 149.439 134.928 149.439C136.081 149.439 137.029 147.902 137.029 146.006C137.029 144.11 136.106 142.547 134.953 142.547C133.8 142.547 132.853 144.085 132.853 145.98Z" fill="#F4AE7C"/>
<path fill-rule="evenodd" clip-rule="evenodd" d="M133.826 170.857C133.826 170.857 125.141 163.735 121.4 168.602C117.66 173.47 139.513 211.259 141.947 213.616C142.895 214.513 170.59 226.887 171.538 229.244C173.101 233.113 170.846 234.547 170.846 234.547C170.846 234.547 171.973 235.469 173.357 235.469C174.74 235.469 175.432 236.033 176.38 236.033C177.353 236.033 178.532 235.598 179.07 235.598C179.582 235.598 180.197 236.238 181.504 234.547C182.144 233.702 181.401 229.987 179.095 227.169C176.764 224.351 151.708 205.392 151.708 205.392L133.826 170.857Z" fill="#F4AE7C"/>
<path fill-rule="evenodd" clip-rule="evenodd" d="M126.499 162.633C122.861 162.531 116.481 163.555 116.481 173.163C116.481 182.77 131.238 201.934 131.238 201.934L145.073 190.687C145.073 190.687 136.977 162.915 126.499 162.633Z" fill="#406FB5"/>
<path fill-rule="evenodd" clip-rule="evenodd" d="M25.353 324.088C25.353 324.088 22.1505 322.013 21.7662 320.834C21.3819 319.63 22.3042 316.658 20.972 315.966C19.6398 315.275 11.1853 318.067 9.92998 319.015C8.36719 320.194 7.75232 322.038 8.13661 323.268C8.54652 324.472 19.7935 344.865 22.1761 347.453C24.5588 350.04 27.505 344.327 25.7373 340.74C23.9951 337.179 26.0447 329.698 25.353 324.088Z" fill="#142D4D"/>
<path fill-rule="evenodd" clip-rule="evenodd" d="M116.789 363.49C116.789 363.49 113.407 365.233 112.203 365.002C110.973 364.72 108.821 362.466 107.566 363.26C106.311 364.08 104.568 372.816 104.773 374.379C105.004 376.326 106.336 377.761 107.566 378.017C108.821 378.299 132.109 378.58 135.517 377.786C138.95 377.018 135.44 371.612 131.469 371.381C127.524 371.151 122.015 365.643 116.789 363.49Z" fill="#142D4D"/>
<path fill-rule="evenodd" clip-rule="evenodd" d="M501.236 266.111V253.531C501.236 252.788 501.543 252.122 502.03 251.636C502.517 251.149 503.183 250.841 503.926 250.841H519.375C520.092 250.841 520.784 251.149 521.27 251.636C521.757 252.122 522.065 252.788 522.065 253.531V266.111C522.065 266.751 522.475 267.315 523.115 267.494C526.394 268.442 529.494 269.774 532.364 271.439C535.284 273.13 537.974 275.154 540.408 277.486C540.844 277.947 541.561 278.049 542.15 277.716L553.039 271.414C553.705 271.055 554.422 270.978 555.114 271.158C555.78 271.337 556.369 271.773 556.754 272.413L564.414 285.71L564.465 285.786C564.824 286.427 564.901 287.17 564.721 287.836C564.542 288.502 564.106 289.091 563.466 289.476L552.654 295.701C552.065 296.009 551.732 296.675 551.911 297.341C552.304 298.946 552.603 300.603 552.808 302.311C553.013 303.951 553.116 305.642 553.116 307.358C553.116 309.083 553.013 310.766 552.808 312.405C552.603 314.096 552.304 315.753 551.911 317.375C551.758 317.99 552.014 318.631 552.578 318.964L563.466 325.241C564.106 325.625 564.542 326.214 564.721 326.88C564.901 327.572 564.824 328.289 564.465 328.93L556.779 342.226L556.754 342.303C556.369 342.944 555.78 343.379 555.114 343.559C554.422 343.738 553.705 343.661 553.039 343.302L542.227 337.051C541.689 336.693 540.921 336.744 540.434 337.205C538 339.536 535.31 341.586 532.364 343.302C529.52 344.942 526.42 346.274 523.166 347.197C522.526 347.35 522.065 347.939 522.065 348.606V361.185C522.065 361.928 521.757 362.594 521.27 363.081C520.784 363.567 520.092 363.875 519.375 363.875H503.926C503.183 363.875 502.517 363.567 502.03 363.081C501.543 362.594 501.236 361.928 501.236 361.185V348.606C501.236 347.991 500.826 347.402 500.186 347.222C496.906 346.274 493.806 344.942 490.937 343.302C487.991 341.586 485.275 339.536 482.867 337.205C482.406 336.769 481.714 336.667 481.15 337L470.313 343.251L470.236 343.302C469.596 343.661 468.853 343.738 468.187 343.559C467.521 343.379 466.931 342.944 466.547 342.303L458.836 328.955C458.477 328.315 458.4 327.572 458.579 326.88C458.759 326.214 459.194 325.625 459.835 325.241L470.621 319.015C471.235 318.708 471.543 318.041 471.389 317.375C470.996 315.753 470.697 314.096 470.493 312.405C470.288 310.766 470.185 309.075 470.185 307.358C470.185 305.642 470.288 303.951 470.493 302.311C470.697 300.603 470.996 298.946 471.389 297.341C471.543 296.752 471.287 296.085 470.723 295.752L459.886 289.527L459.835 289.476C459.194 289.091 458.759 288.502 458.579 287.836C458.4 287.144 458.477 286.427 458.836 285.761L466.496 272.49L466.547 272.413C466.931 271.773 467.521 271.337 468.187 271.158C468.853 270.978 469.57 271.055 470.185 271.388L470.236 271.414L481.15 277.716C481.688 278.024 482.38 277.972 482.867 277.511C485.275 275.18 487.991 273.13 490.937 271.439C493.781 269.774 496.881 268.442 500.134 267.52C500.775 267.366 501.236 266.802 501.236 266.111ZM488.196 307.358C488.196 313.84 490.809 319.707 495.062 323.96C499.315 328.187 505.181 330.826 511.638 330.826C518.119 330.826 523.986 328.187 528.239 323.96C532.466 319.707 535.105 313.84 535.105 307.358C535.105 300.876 532.466 295.009 528.239 290.757C523.986 286.529 518.119 283.891 511.638 283.891C505.181 283.891 499.315 286.529 495.062 290.757C490.809 295.009 488.196 300.876 488.196 307.358Z" fill="#AAB9DE"/>
<path fill-rule="evenodd" clip-rule="evenodd" d="M299.149 169.678C295.921 164.683 293.129 159.431 290.797 153.948L305.221 139.806C302.762 132.248 301.327 124.306 301.071 116.133L282.676 107.781L285.161 90.1296L305.144 87.1833C307.655 79.395 311.216 72.1446 315.674 65.586L305.708 48.011C309.474 43.3995 313.599 39.0954 318.082 35.2012L331.199 42.0672L336.016 44.578C342.472 39.864 349.594 36.0466 357.203 33.3053L359.458 13.194L377.007 10.1196L386 28.2327L409.774 31.5632L423.43 16.6526C429.04 18.8047 434.395 21.4179 439.442 24.441L436.06 44.3986L453.328 61.1026L473.132 57.0291C476.36 61.9993 479.152 67.2769 481.509 72.7595L467.06 86.9015C469.519 94.4337 470.98 102.376 471.21 110.548L489.631 118.926L487.146 136.578L467.162 139.524C464.652 147.287 461.065 154.537 456.633 161.096L466.599 178.696C462.833 183.308 458.682 187.586 454.199 191.481L438.007 183.026L436.291 182.129L418.613 192.044L415.078 193.402L412.823 213.513L411.209 213.923L410.671 214.051L395.274 216.588L386.281 198.475L367.015 196.297L362.506 195.119L348.851 210.055L332.865 202.266L336.221 182.309C329.688 177.569 323.872 171.933 318.979 165.605L299.149 169.678ZM425.607 117.876C428.092 96.0733 412.413 76.3718 390.611 73.8868C368.809 71.4017 349.133 87.0808 346.648 108.883C344.163 130.685 359.816 150.361 381.619 152.846C403.421 155.331 423.122 139.678 425.607 117.876Z" fill="#BCC9E7"/>
<path fill-rule="evenodd" clip-rule="evenodd" d="M435.907 166.245C435.446 166.194 434.985 165.989 434.626 165.63C433.832 164.785 433.857 163.453 434.703 162.659C446.155 151.693 453.431 136.988 455.224 121.232C456.095 113.674 455.711 106.116 454.071 98.7633C453.815 97.6361 454.532 96.5088 455.66 96.2782C456.787 96.0221 457.914 96.7394 458.17 97.8667C459.887 105.655 460.297 113.674 459.4 121.693C457.479 138.422 449.741 154.05 437.598 165.682C437.137 166.143 436.522 166.322 435.907 166.245Z" fill="white"/>
<path fill-rule="evenodd" clip-rule="evenodd" d="M440.928 70.2745C440.416 70.2233 439.929 69.9671 439.57 69.5572C433.524 62.4093 426.248 56.6961 417.922 52.5458C416.871 52.0334 416.461 50.778 416.974 49.7276C417.486 48.7028 418.742 48.2929 419.792 48.8053C428.631 53.1863 436.368 59.2581 442.773 66.8415C443.516 67.7126 443.388 69.0448 442.517 69.7877C442.055 70.172 441.492 70.3257 440.928 70.2745Z" fill="white"/>
<path fill-rule="evenodd" clip-rule="evenodd" d="M377.955 46.064C377.008 45.9359 376.239 45.2186 376.111 44.245C375.957 43.0921 376.751 42.0417 377.904 41.888C383.797 41.0938 389.817 41.0426 395.761 41.7087C396.94 41.8624 397.759 42.8872 397.631 44.0401C397.503 45.1929 396.453 46.0128 395.3 45.8847C389.689 45.2442 384.027 45.2954 378.468 46.0384C378.297 46.0726 378.126 46.0726 377.955 46.0384V46.064Z" fill="white"/>
<path fill-rule="evenodd" clip-rule="evenodd" d="M497.061 72.939L523.474 93.8958L512.202 102.043L497.061 72.939Z" fill="#D0D9EE"/>
<path fill-rule="evenodd" clip-rule="evenodd" d="M529.136 90.1809L497.957 73.272L538.538 88.285L529.136 90.1809Z" fill="#D0D9EE"/>
<path fill-rule="evenodd" clip-rule="evenodd" d="M529.136 90.1809L524.371 103.759L523.474 93.8958L497.061 72.939L497.957 73.272L529.136 90.1809Z" fill="#AAB9DE"/>
<path fill-rule="evenodd" clip-rule="evenodd" d="M524.371 103.759L518.479 97.5081L523.474 93.8958L524.371 103.759Z" fill="#8D9FCA"/>
<path fill-rule="evenodd" clip-rule="evenodd" d="M532.416 98.994C533.031 99.3527 532.518 100.454 531.75 99.9931C531.425 99.7882 531.092 99.5832 530.75 99.3783C530.11 98.994 530.648 97.918 531.391 98.3535C531.733 98.5585 532.074 98.772 532.416 98.994ZM496.728 159.533C496.548 158.816 497.701 158.457 497.906 159.277C497.975 159.653 498.06 160.037 498.162 160.43C498.367 161.198 497.189 161.48 497.01 160.712C496.907 160.319 496.813 159.926 496.728 159.533ZM496.164 154.614C496.164 153.82 497.368 153.82 497.368 154.614C497.368 155.007 497.385 155.4 497.419 155.793C497.419 156.664 496.215 156.561 496.215 155.844C496.181 155.434 496.164 155.024 496.164 154.614ZM496.779 149.695C496.984 148.952 498.137 149.208 497.957 150.003C497.855 150.387 497.752 150.771 497.701 151.13C497.496 151.898 496.42 151.719 496.523 150.899C496.6 150.515 496.676 150.105 496.779 149.695ZM498.675 145.109C499.059 144.418 500.109 145.007 499.7 145.698C499.52 146.006 499.315 146.416 499.162 146.749C498.726 147.492 497.727 146.826 498.086 146.211C498.265 145.852 498.47 145.442 498.675 145.109ZM501.647 141.138C502.21 140.575 503.056 141.446 502.518 141.984C502.244 142.274 501.98 142.564 501.723 142.855C501.237 143.444 500.289 142.701 500.801 142.06C501.074 141.753 501.356 141.446 501.647 141.138ZM505.387 137.936C506.028 137.5 506.719 138.448 506.079 138.935C505.754 139.157 505.438 139.388 505.131 139.627C504.567 140.088 503.747 139.217 504.388 138.679C504.712 138.423 505.046 138.175 505.387 137.936ZM509.614 135.451C510.204 135.092 510.895 136.091 510.127 136.527C509.785 136.697 509.435 136.877 509.076 137.065C508.436 137.449 507.795 136.424 508.513 136.014C508.871 135.809 509.239 135.621 509.614 135.451ZM514.123 133.58C514.815 133.324 515.302 134.426 514.508 134.733L513.406 135.118C512.663 135.399 512.227 134.272 512.97 133.99C513.363 133.854 513.748 133.717 514.123 133.58ZM518.837 132.274C519.555 132.094 519.913 133.247 519.094 133.452L517.941 133.734C517.172 133.913 516.865 132.761 517.659 132.556L518.837 132.274ZM523.654 131.505C524.397 131.403 524.576 132.607 523.756 132.709L522.578 132.837C521.784 132.94 521.656 131.736 522.424 131.659C522.834 131.591 523.244 131.539 523.654 131.505ZM528.47 131.172C529.188 131.095 529.418 132.274 528.547 132.376C528.154 132.41 527.753 132.436 527.343 132.453C526.549 132.453 526.472 131.352 527.266 131.249L528.47 131.172ZM533.21 130.66C534.055 130.557 534.158 131.761 533.389 131.838C532.996 131.907 532.595 131.966 532.185 132.018C531.391 132.12 531.263 130.916 532.031 130.813C532.424 130.762 532.817 130.711 533.21 130.66ZM537.847 129.686C538.667 129.481 538.898 130.66 538.18 130.839C537.787 130.959 537.394 131.061 537.002 131.147C536.233 131.352 535.951 130.173 536.72 129.968C537.079 129.891 537.488 129.789 537.847 129.686ZM542.202 127.995C542.869 127.611 543.509 128.636 542.792 129.046C542.416 129.234 542.04 129.413 541.664 129.584C540.921 129.917 540.486 128.79 541.178 128.508C541.511 128.354 541.895 128.175 542.202 127.995ZM545.738 125.152C546.302 124.485 547.173 125.331 546.711 125.869C546.438 126.211 546.156 126.535 545.866 126.842C545.277 127.406 544.457 126.535 544.995 125.997C545.251 125.741 545.507 125.459 545.738 125.152ZM547.275 121.052C547.275 120.335 548.479 120.233 548.479 121.104C548.454 121.539 548.402 121.949 548.325 122.385C548.121 123.23 546.968 122.846 547.147 122.154C547.224 121.77 547.249 121.411 547.275 121.052ZM546.507 116.569C546.225 115.826 547.352 115.391 547.634 116.159C547.787 116.543 547.916 116.928 548.018 117.338C548.223 118.157 547.045 118.388 546.865 117.671C546.763 117.295 546.643 116.928 546.507 116.569ZM544.38 112.393C543.945 111.624 545.046 111.138 545.405 111.753C545.61 112.06 545.866 112.47 546.045 112.803C546.455 113.495 545.379 114.084 544.995 113.418C544.867 113.136 544.559 112.675 544.38 112.393ZM541.536 108.627C541.024 107.986 541.972 107.243 542.459 107.833C542.715 108.14 542.971 108.456 543.227 108.781C543.74 109.37 542.817 110.164 542.305 109.524C542.049 109.216 541.792 108.917 541.536 108.627ZM538.257 105.194C537.668 104.605 538.564 103.785 539.077 104.297C539.384 104.579 539.666 104.886 539.948 105.168C540.537 105.732 539.666 106.577 539.102 106.014C538.829 105.74 538.547 105.467 538.257 105.194ZM534.645 102.094C534.004 101.53 534.824 100.659 535.388 101.146L536.336 101.889C536.95 102.401 536.182 103.324 535.567 102.837C535.285 102.581 534.952 102.299 534.645 102.094Z" fill="#8D9FCA"/>
<path fill-rule="evenodd" clip-rule="evenodd" d="M258.081 0L231.795 10.7858L239.02 20.0089L258.081 0Z" fill="#D0D9EE"/>
<path fill-rule="evenodd" clip-rule="evenodd" d="M228.08 6.43056L257.287 0.0769043L220.933 2.71572L228.08 6.43056Z" fill="#D0D9EE"/>
<path fill-rule="evenodd" clip-rule="evenodd" d="M228.08 6.43051L228.772 18.5486L231.795 10.7858L258.081 0L257.286 0.0768595L228.08 6.43051Z" fill="#AAB9DE"/>
<path fill-rule="evenodd" clip-rule="evenodd" d="M228.772 18.5486L234.998 14.8594L231.796 10.7859L228.772 18.5486Z" fill="#8D9FCA"/>
<path fill-rule="evenodd" clip-rule="evenodd" d="M220.754 17.78C219.96 17.8825 219.78 16.6271 220.626 16.5247L221.881 16.3966C222.675 16.2941 222.855 17.5494 222.009 17.6519L220.754 17.78ZM179.711 67.7638C180.557 67.7638 180.531 69.0192 179.711 69.0192H178.891C178.712 69.0192 178.533 68.9423 178.43 68.8398C178.072 68.4555 178.328 67.7638 178.891 67.7638H179.711ZM184.707 67.5845C185.476 67.482 185.706 68.7117 184.809 68.8398L183.528 68.9167C182.632 68.9167 182.734 67.6613 183.477 67.6613L184.707 67.5845ZM188.601 68.4299C187.73 68.5324 187.628 67.277 188.422 67.1746L188.601 68.4299ZM194.366 65.7142C195.134 65.4324 195.595 66.5597 194.827 66.8928C194.434 67.0465 194.033 67.1916 193.623 67.3283C192.752 67.5332 192.47 66.406 193.213 66.1242C193.606 66.0046 193.99 65.868 194.366 65.7142ZM198.337 63.1779C198.849 62.5887 199.848 63.3572 199.285 64.0234C198.977 64.3564 198.644 64.6638 198.285 64.9457C197.67 65.4837 196.825 64.5358 197.491 63.9721C197.799 63.7415 198.08 63.4853 198.337 63.1779ZM199.976 59.0019C199.976 58.2077 201.232 58.1565 201.232 59.0275C201.232 59.4887 201.18 59.9242 201.103 60.3598C201.001 61.1283 199.746 61.0515 199.848 60.1548C199.925 59.7705 199.976 59.3862 199.976 59.0019ZM199.156 54.2623C198.9 53.5449 200.053 53.0326 200.361 53.8524C200.489 54.2623 200.617 54.6978 200.719 55.1077C200.95 55.9532 199.694 56.2094 199.515 55.4408C199.413 55.048 199.293 54.6551 199.156 54.2623ZM197.235 49.702C196.876 49.0615 197.901 48.3442 198.362 49.1384C198.567 49.5227 198.746 49.907 198.926 50.2913C199.259 51.0855 198.08 51.5466 197.773 50.8293C197.602 50.4535 197.423 50.0778 197.235 49.702ZM194.929 45.2442C194.545 44.5525 195.621 43.8864 196.056 44.655L196.646 45.7566C197.03 46.4227 195.954 47.1144 195.518 46.3459C195.339 45.9872 195.134 45.6029 194.929 45.2442ZM192.623 40.7352C192.29 39.9666 193.315 39.4286 193.751 40.1715L194.314 41.2988C194.673 41.9393 193.623 42.6566 193.187 41.8624L192.623 40.7352ZM190.753 35.9187C190.548 35.1245 191.778 34.817 191.983 35.6113C192.085 36.0212 192.188 36.4055 192.316 36.7898C192.547 37.6352 191.419 37.917 191.137 37.174C190.984 36.7641 190.856 36.3542 190.753 35.9187ZM190.728 30.6154C190.933 29.8212 192.162 30.1287 191.957 30.9229C191.855 31.3157 191.787 31.7085 191.752 32.1014C191.65 32.9212 190.395 32.7675 190.497 31.9477C190.548 31.5036 190.625 31.0595 190.728 30.6154ZM193.264 25.9783C193.751 25.389 194.775 26.132 194.212 26.8237C193.939 27.1141 193.682 27.4215 193.443 27.746C192.982 28.4121 191.932 27.6948 192.444 27.0031C192.7 26.6444 192.982 26.2857 193.264 25.9783ZM197.337 22.7246C198.08 22.2891 198.67 23.3907 197.978 23.8006C197.636 24.0056 197.295 24.2191 196.953 24.4411C196.185 24.8766 195.595 23.8775 196.236 23.4163C196.594 23.1601 196.962 22.9296 197.337 22.7246ZM202 20.5213C202.769 20.2139 203.204 21.3924 202.436 21.6998C202.043 21.8365 201.659 21.9902 201.283 22.161C200.54 22.4684 200.027 21.3155 200.796 20.9825C201.189 20.8288 201.59 20.675 202 20.5213ZM206.868 18.9585C207.688 18.7536 207.97 19.9833 207.175 20.1883L205.971 20.5213C205.126 20.7263 204.87 19.4965 205.638 19.3172L206.868 18.9585ZM211.812 17.8313C212.658 17.7288 212.863 18.8817 212.069 19.061L210.839 19.3172C210.096 19.4965 209.712 18.2924 210.583 18.0875L211.812 17.8313ZM216.808 17.0114C217.654 16.8833 217.782 18.1387 216.988 18.2412L215.732 18.4205C214.887 18.5486 214.784 17.2933 215.553 17.1908L216.808 17.0114Z" fill="#8D9FCA"/>
<path fill-rule="evenodd" clip-rule="evenodd" d="M282.291 185.819C285.314 183 293.692 179.901 298.688 178.363C303.914 177.68 309.627 177.39 315.827 177.492C326.297 177.39 337.553 177.501 349.594 177.825C361.481 172.035 364.633 171.523 370.628 168.807C372.421 167.987 375.649 166.297 378.237 164.913C379.415 165.502 380.927 168.167 381.414 170.396C368.783 182.539 360.687 187.33 356.076 189.995C347.16 192.403 338.578 193.709 332.019 194.35C330.157 206.357 328.74 217.937 327.766 229.09C329.764 240.841 330.712 248.843 330.61 253.096C312.249 255.811 297.518 255.88 286.416 253.301C286.749 249.944 288.133 245.23 288.978 241.618C287.748 226.528 285.827 216.741 284.776 209.773C281.361 216.673 278.158 221.865 275.169 225.35C277.509 231.43 279.729 238.885 281.83 247.716C280.532 249.424 278.679 250.585 276.271 251.2C273.35 246.127 267.022 234.521 265.357 225.888C264.178 218.97 278.064 191.25 282.291 185.819Z" fill="#6998D0"/>
<path fill-rule="evenodd" clip-rule="evenodd" d="M313.471 175.545C312.344 175.033 306.221 175.136 300.098 176.391C300.764 175.4 301.276 174.111 301.635 172.522C312.574 170.883 311.498 168.167 311.088 166.937C308.885 161.07 307.553 157.381 309.141 155.613C309.961 155.998 311.678 156.894 312.344 159.456C313.036 159.046 313.907 158.508 314.035 157.714C314.291 155.357 314.214 150.49 316.878 150.08C317.408 152.215 317.886 154.495 318.313 156.92C319.85 158.15 320.004 163.094 319.056 168.859C319.944 172.036 318.074 173.94 313.445 174.572L313.471 175.545Z" fill="#F4AE7C"/>
<path fill-rule="evenodd" clip-rule="evenodd" d="M311.088 166.937C311.498 168.167 312.574 170.883 301.635 172.522C296.741 171.779 292.437 167.757 291.72 165.938C285.341 155.255 291.284 150.156 294.513 148.209C295.23 137.142 311.806 145.724 319.415 139.883C322.873 144.033 319.364 149.798 316.878 150.079C314.214 150.489 314.291 155.357 314.035 157.714C313.907 158.508 313.036 159.046 312.344 159.456C311.678 156.894 309.961 155.998 309.141 155.613C307.553 157.381 308.885 161.07 311.088 166.937Z" fill="#0F3970"/>
<path fill-rule="evenodd" clip-rule="evenodd" d="M300.097 176.391C299.482 176.98 298.893 177.672 298.329 178.466L298.688 178.363C303.778 177.697 309.32 177.407 315.315 177.492C314.726 176.698 314.06 176.032 313.47 175.545C312.343 175.033 306.22 175.135 300.097 176.391Z" fill="#406FB5"/>
<path fill-rule="evenodd" clip-rule="evenodd" d="M381.311 169.935C384.437 168.372 386.87 167.347 388.613 165.707C389.227 163.709 390.457 163.632 390.124 161.89C393.045 158.483 393.711 158.432 395.043 157.791C393.865 155.87 391.175 157.407 386.768 161.685C383.796 163.427 382.532 163.052 382.976 160.558C384.77 158.841 384.718 157.381 384.206 156.587C383.95 156.792 382.976 157.97 381.26 159.764C380.03 161.711 379.133 163.555 379.159 164.503C379.133 164.836 379.005 165.118 378.852 165.374C379.825 166.297 380.824 168.193 381.311 169.935Z" fill="#F4AE7C"/>
<path fill-rule="evenodd" clip-rule="evenodd" d="M281.267 248.382C282.522 249.945 284.059 250.764 286.442 253.07L286.416 253.301L286.8 253.403C287.338 253.916 287.902 254.531 288.517 255.222C287.27 256.23 285.673 255.538 283.726 253.147C283.641 255.794 284.332 257.776 285.801 259.091C286.536 259.911 287.125 260.551 287.569 261.012C286.186 263.369 283.299 262.438 278.91 258.22C278.039 256.554 278.115 254.94 277.603 253.429C277.398 252.686 277.142 251.917 276.783 251.046C278.611 250.517 280.097 249.637 281.241 248.407L281.267 248.382Z" fill="#F4AE7C"/>
<path fill-rule="evenodd" clip-rule="evenodd" d="M287.877 253.634C285.674 268.493 284.649 291.935 284.803 314.557C282.676 325.292 282.804 342.431 285.136 377.248C289.269 378.068 292.847 378.23 295.87 377.735C301.25 345.275 303.3 328.34 302.045 315.761C303.684 306.718 305.939 290.116 308.808 277.204C311.678 290.116 313.932 306.718 315.572 315.761C314.291 328.34 316.366 345.275 321.746 377.735C324.769 378.23 328.347 378.068 332.481 377.248C334.812 342.431 334.94 325.292 332.814 314.557C332.967 291.73 331.917 268.083 329.688 253.224C312.54 255.7 298.603 255.837 287.877 253.634Z" fill="#0F3970"/>
<path fill-rule="evenodd" clip-rule="evenodd" d="M323.539 383.986C322.514 384.78 322.284 388.495 323.104 391.313C326.486 392.825 329.765 392.415 332.967 390.878C334.607 390.237 336.554 389.161 336.503 388.008C336.452 385.779 336.4 385.728 331.84 383.397C331.908 383.841 331.985 384.251 332.071 384.627C331.866 385.139 331.456 385.549 330.713 385.062C329.867 384.498 330.149 382.756 327.792 382.705C325.845 382.679 325.819 384.55 324.871 385.165C323.821 385.908 323.591 384.806 323.539 383.986Z" fill="#142D4D"/>
<path fill-rule="evenodd" clip-rule="evenodd" d="M294.179 383.986C295.204 384.78 295.434 388.495 294.614 391.313C291.233 392.825 287.953 392.415 284.751 390.852C284.238 390.622 282.291 389.981 282.138 389.443C281.574 387.547 282.061 385.036 285.878 383.371C285.81 383.832 285.733 384.251 285.647 384.627C285.852 385.139 286.262 385.549 287.005 385.036C287.851 384.498 287.569 382.731 289.926 382.705C291.873 382.679 291.899 384.524 292.847 385.165C293.897 385.882 294.128 384.806 294.179 383.986Z" fill="#142D4D"/>
<path fill-rule="evenodd" clip-rule="evenodd" d="M323.462 377.94C323.821 380.707 323.915 383.072 323.744 385.037C323.923 385.421 324.256 385.575 324.871 385.165C325.819 384.55 325.845 382.68 327.792 382.705C330.149 382.756 329.867 384.498 330.712 385.062C331.455 385.549 331.865 385.139 332.07 384.627C331.711 382.936 331.489 380.545 331.404 377.453C328.466 377.966 325.819 378.128 323.462 377.94Z" fill="#F4AE7C"/>
<path fill-rule="evenodd" clip-rule="evenodd" d="M294.256 377.94C293.897 380.69 293.803 383.056 293.974 385.037C293.769 385.395 293.436 385.575 292.847 385.165C291.899 384.524 291.873 382.68 289.926 382.705C287.569 382.731 287.851 384.499 287.005 385.037C286.262 385.549 285.852 385.139 285.647 384.627C286.006 382.919 286.228 380.519 286.314 377.428C289.251 377.957 291.899 378.128 294.256 377.94Z" fill="#F4AE7C"/>
<path fill-rule="evenodd" clip-rule="evenodd" d="M327.766 229.09C329.764 240.841 330.712 248.843 330.61 253.096C329.295 242.096 327.646 234.129 325.665 229.193C323.718 230.354 318.517 233.317 310.063 238.083C312.471 236.118 316.664 233.061 322.642 228.911C324.23 220.781 327.356 209.261 332.019 194.35C330.157 206.357 328.74 217.937 327.766 229.09ZM352.361 176.493C354 177.33 355.281 178.278 356.204 179.337C354.205 178.551 352.002 178.047 349.594 177.825C350.567 177.347 351.49 176.903 352.361 176.493ZM292.232 241.644C293.683 242.873 295.144 244.137 296.613 245.435C293.265 244.445 291.232 243.702 290.515 243.207C288.773 247.596 287.646 251.021 287.133 253.48C286.894 253.429 286.655 253.369 286.416 253.301C286.749 249.944 288.132 245.23 288.978 241.618C287.748 226.528 285.827 216.742 284.776 209.773C284.264 207.16 283.974 205.255 283.905 204.06C286.877 214.444 289.653 226.972 292.232 241.644Z" fill="#406FB5"/>
<path fill-rule="evenodd" clip-rule="evenodd" d="M526.6 374.942C486.07 374.942 453.2 378.785 453.2 383.551C453.2 388.316 486.07 392.159 526.6 392.159C567.13 392.159 600 388.316 600 383.551C600 378.785 567.13 374.942 526.6 374.942Z" fill="#D0D9EE"/>
<path fill-rule="evenodd" clip-rule="evenodd" d="M572.818 386.727C577.455 385.113 577.813 382.731 580.298 381.578C582.809 380.399 583.117 378.298 580.657 376.044C578.838 377.504 576.584 379.272 575.405 378.324C574.611 377.709 571.921 377.735 571.383 378.657C569.026 384.114 565.772 382.398 565.132 384.883C565.055 388.188 570.717 387.496 572.818 386.727Z" fill="#142D4D"/>
<path fill-rule="evenodd" clip-rule="evenodd" d="M533.133 386.907C541.664 386.779 548.043 386.676 550.989 385.728C554.166 384.729 553.5 382.782 551.681 379.682C543.637 383.397 545.789 378.939 542.023 379.503C539.375 381.621 535.464 383.047 530.289 383.781C528.085 385.395 528.982 386.83 533.133 386.907Z" fill="#142D4D"/>
<path fill-rule="evenodd" clip-rule="evenodd" d="M562.621 179.849C561.263 179.952 559.111 179.696 558.727 179.209C557.267 177.364 556.267 175.443 555.909 174.239C556.182 173.436 556.472 172.42 556.78 171.19C562.04 167.62 562.758 164.982 558.932 163.274C558.163 163.701 557.215 165.024 556.088 167.245C555.166 167.21 554.474 166.749 554.013 165.861C555.089 162.104 555.789 159.055 556.114 156.715C553.526 152.872 547.48 152.308 539.487 153.359C539.111 155.494 538.803 157.748 538.564 160.122C537.155 161.429 537.335 166.271 538.641 171.856C537.992 175.016 539.948 176.741 544.508 177.031C544.585 178.159 544.457 179.542 544.406 179.696C544.277 179.952 543.867 180.183 543.304 180.387C543.15 185.614 549.589 185.435 562.621 179.849Z" fill="#F4AE7C"/>
<path fill-rule="evenodd" clip-rule="evenodd" d="M556.113 156.74C555.789 159.08 555.089 162.121 554.013 165.861C554.474 166.749 555.166 167.21 556.088 167.245C557.215 165.024 558.163 163.7 558.932 163.273C562.757 164.981 562.04 167.62 556.78 171.19C556.472 172.42 556.182 173.436 555.909 174.239C560.623 173.188 564.747 169.397 564.773 163.658C562.134 160.737 559.137 158.406 556.113 156.74Z" fill="#0F3970"/>
<path fill-rule="evenodd" clip-rule="evenodd" d="M496.343 195.221C503.491 202.676 509.178 211.08 514.584 219.662C518.29 201.933 522.782 191.062 528.06 187.048C534.396 183.855 539.478 181.634 543.303 180.387C543.15 185.614 549.589 185.434 562.621 179.849C570.494 183.009 575.49 186.229 577.608 189.508C581.827 201.071 584.551 216.861 585.781 236.879C581.22 246.178 573.509 255.555 562.083 264.291C560.725 262.191 557.855 260.782 556.6 261.038L551.732 267.058C539.691 270.953 530.032 271.175 522.757 267.725C522.005 255.564 521.706 243.343 521.86 231.063C519.076 234.872 515.89 237.323 512.304 238.416C502.338 229.039 498.93 217.92 491.757 198.5C493.217 196.681 494.908 195.631 496.343 195.221ZM572.023 236.136C569.7 227.391 567.531 218.509 565.516 209.491C557.539 227.784 555.447 243.155 559.239 255.606C565.063 243.907 569.324 237.417 572.023 236.136Z" fill="#6998D0"/>
<path fill-rule="evenodd" clip-rule="evenodd" d="M560.649 271.849C558.804 271.713 555.832 270.116 551.733 267.058C539.692 270.953 530.033 271.175 522.757 267.725C521.476 288.195 526.498 309.664 532.903 333.567C539.154 344.071 538.872 351.449 542.203 375.685C544.064 377.001 547.122 376.813 551.374 375.122C552.732 354.447 551.81 340.766 546.43 333.054C547.275 326.137 545.098 309.1 544.995 298.417C548.889 307.102 551.554 318.861 556.652 330.723C562.826 345.173 567.131 360.621 570.41 374.712C573.86 375.395 577.097 375.002 580.12 373.533C576.652 350.356 572.809 334.404 568.591 325.676C568.745 302.892 566.575 282.43 562.083 264.292C561.247 266.426 560.768 268.946 560.649 271.849Z" fill="#0F3970"/>
<path fill-rule="evenodd" clip-rule="evenodd" d="M521.86 231.063C522.253 219.141 523.209 209.363 524.729 201.729C520.869 217.92 517.129 228.672 513.508 233.984C511.228 233.907 508.614 232.421 505.104 229.808C507.231 232.984 509.485 235.905 512.304 238.416C515.89 237.323 519.076 234.872 521.86 231.063Z" fill="#406FB5"/>
<path fill-rule="evenodd" clip-rule="evenodd" d="M556.601 261.038C557.301 259.313 558.181 257.502 559.24 255.606C555.448 243.155 557.54 227.784 565.516 209.491C553.919 225.973 550.631 243.548 555.653 262.216L556.601 261.038Z" fill="#406FB5"/>
<path fill-rule="evenodd" clip-rule="evenodd" d="M549.76 175.93C548.479 176.562 546.729 176.929 544.508 177.031C544.559 177.8 544.508 178.671 544.457 179.209C546.712 178.765 548.479 177.672 549.76 175.93Z" fill="#ED7D5B"/>
<path fill-rule="evenodd" clip-rule="evenodd" d="M542.535 379.452C542.894 378.427 543.03 377.308 542.945 376.095C544.653 376.864 547.138 376.659 550.4 375.48C550.281 377.12 550.443 378.64 550.887 380.041C544.149 382.936 545.481 379.349 542.535 379.452ZM572.971 375.019C575.192 375.105 577.318 374.729 579.35 373.892C579.538 374.831 579.777 375.703 580.068 376.505C578.377 377.837 576.455 379.17 575.405 378.324C574.867 377.889 573.407 377.786 572.382 378.042C572.792 377.24 572.988 376.232 572.971 375.019Z" fill="#F4AE7C"/>
<path fill-rule="evenodd" clip-rule="evenodd" d="M486.454 155.331L572.997 267.853C575.892 271.593 575.969 276.486 572.203 279.407C568.411 282.302 562.979 281.636 560.11 277.895L474.515 166.578C466.445 168.551 457.939 165.63 452.867 159.046C448.947 153.922 448.588 148.414 449.254 142.675L450.561 140.344L461.398 154.409L473.823 152.769L478.998 140.754L468.418 126.996L469.904 125.459C476.898 126.689 480.971 128.713 485.224 133.145C490.297 139.729 488.324 146.979 486.454 155.331Z" fill="#9D7558"/>
<path fill-rule="evenodd" clip-rule="evenodd" d="M469.904 125.459C475.694 125.536 481.407 128.175 485.225 133.145C490.323 139.755 490.528 148.593 486.454 155.331L572.997 267.853C575.38 270.953 574.816 275.436 571.716 277.819C568.616 280.227 564.133 279.638 561.75 276.538L475.182 163.991C467.624 166.194 459.144 163.735 454.046 157.099C450.228 152.155 449.152 145.955 450.561 140.344L461.398 154.409L475.361 152.564L480.741 139.55L469.904 125.459Z" fill="#D1A383"/>
<path fill-rule="evenodd" clip-rule="evenodd" d="M581.631 244.052C577.019 250.969 570.589 257.81 562.083 264.291C561.058 262.626 558.522 258.578 557.139 258.655C558.573 257.374 558.189 257.502 559.239 255.606C563.475 247.101 566.883 241.345 569.462 238.339C572.536 240.064 576.592 241.968 581.631 244.052Z" fill="#6998D0"/>
<path fill-rule="evenodd" clip-rule="evenodd" d="M559.291 268.698C560.623 266.102 562.118 264.018 563.775 262.447C563.442 259.936 561.443 257.477 560.213 257.169L555.448 259.475C551.298 259.817 547.984 260.415 545.508 261.269C547.284 262.72 548.949 263.199 550.504 262.703C548.471 264.155 547.412 265.163 547.327 265.726C550.06 271.141 552.434 273.737 554.449 273.515C557.165 271.704 558.779 270.099 559.291 268.698Z" fill="#F4AE7C"/>
<path fill-rule="evenodd" clip-rule="evenodd" d="M491.757 198.5C491.501 197.886 490.63 195.477 489.682 193.12C487.299 191.916 484.942 188.124 485.25 185.921C486.121 183.154 485.557 181.72 488.299 181.028C489.093 181.335 490.374 183.103 491.168 185.947C490.22 187.74 491.911 189.226 492.859 190.456C493.96 192.249 493.218 190.917 494.498 192.915C494.985 193.966 495.933 194.862 496.164 195.426C494.678 195.913 493.243 196.681 491.757 198.5Z" fill="#F4AE7C"/>
<path fill-rule="evenodd" clip-rule="evenodd" d="M564.901 163.811C556.651 154.614 545.122 151.207 539.178 155.229C538.538 146.903 547.633 141.164 557.343 145.519C567.872 151.002 567.334 158.918 564.901 163.811Z" fill="#6998D0"/>
<path fill-rule="evenodd" clip-rule="evenodd" d="M539.179 155.229C544.012 152.445 550.059 153.179 557.318 157.432C552.271 148.414 545.661 143.879 535.131 145.596C528.931 146.928 532.979 152.027 539.179 155.229Z" fill="#142D4D"/>
</svg>
