<svg xmlns="http://www.w3.org/2000/svg" xmlns:xlink="http://www.w3.org/1999/xlink" version="1.1" id="Capa_1" x="0px" y="0px" viewBox="0 0 512 512" style="enable-background:new 0 0 512 512;" xml:space="preserve" width="300" height="300" xmlns:svgjs="http://svgjs.dev/svgjs"><g width="100%" height="100%" transform="matrix(1,0,0,1,0,0)"><g>
	<g>
		<path style="stroke-linecap: round; stroke-linejoin: round; stroke-miterlimit: 10;" d="&#10;&#9;&#9;&#9;M70.145,331.376l-18.815-9.784c-14.654-7.621-32.747-1.952-40.413,12.657c-7.665,14.611-2,32.633,12.653,40.254l105.531,54.88" fill="none" fill-opacity="1" stroke="#009dc9" stroke-opacity="1" data-original-stroke-color="#000000ff" stroke-width="15" data-original-stroke-width="15"/>
		<path style="stroke-linecap: round; stroke-linejoin: round; stroke-miterlimit: 10;" d="&#10;&#9;&#9;&#9;M223.815,294.1c-5.373,1.702-10.259,5.081-13.79,9.996l0,0c-8.71,12.121-5.884,28.99,6.312,37.678l56.771,40.441l10.707,7.627" fill="none" fill-opacity="1" stroke="#009dc9" stroke-opacity="1" data-original-stroke-color="#000000ff" stroke-width="15" data-original-stroke-width="15"/>
		<path style="stroke-linecap: round; stroke-linejoin: round; stroke-miterlimit: 10;" d="&#10;&#9;&#9;&#9;M387.876,482.456l22.003-3.232l90.292,24.12c2.184,0.584,4.328-1.063,4.328-3.324V389.429c0-1.55-1.037-2.909-2.532-3.318&#10;&#9;&#9;&#9;l-86.822-23.777l0,0c-24.845-42.465-78.683-30.481-95.769-24.549c-6.577,2.283-13.853,1.331-19.517-2.72l-16.047-11.479" fill="none" fill-opacity="1" stroke="#009dc9" stroke-opacity="1" data-original-stroke-color="#000000ff" stroke-width="15" data-original-stroke-width="15"/>
		<path style="stroke-linecap: round; stroke-linejoin: round; stroke-miterlimit: 10;" d="&#10;&#9;&#9;&#9;M434.151,432.133c-6.241-40.287-41.289-63.618-87.42-60.066c-50.972,3.925-124.83,53.951-124.83,53.951l-117.677-92.036&#10;&#9;&#9;&#9;c-13.011-10.175-31.842-7.924-42.064,5.028c-10.221,12.952-7.96,31.702,5.05,41.877l149.902,117.241&#10;&#9;&#9;&#9;c5.311,4.153,11.837,6.372,18.506,6.372c1.454,0,2.917-0.105,4.374-0.319l112.481-16.524" fill="none" fill-opacity="1" stroke="#009dc9" stroke-opacity="1" data-original-stroke-color="#000000ff" stroke-width="15" data-original-stroke-width="15"/>
		<path style="stroke-linecap: round; stroke-linejoin: round; stroke-miterlimit: 10;" d="&#10;&#9;&#9;&#9;M398.028,203.391v-23.97c0-8.066-6.539-14.605-14.605-14.605h-20.247c-2.244,0-4.203-1.488-4.838-3.64&#10;&#9;&#9;&#9;c-2.145-7.268-5.045-14.212-8.606-20.744c-1.075-1.972-0.743-4.412,0.845-6l14.327-14.327c5.703-5.703,5.703-14.951,0-20.654&#10;&#9;&#9;&#9;l-16.949-16.949c-5.703-5.703-14.951-5.703-20.654,0L312.973,96.83c-1.588,1.588-4.028,1.92-6,0.845&#10;&#9;&#9;&#9;c-6.532-3.561-13.476-6.462-20.744-8.606c-2.152-0.635-3.64-2.594-3.64-4.838V63.983c0-8.066-6.539-14.605-14.605-14.605h-23.97&#10;&#9;&#9;&#9;c-8.066,0-14.605,6.539-14.605,14.605V84.23c0,2.244-1.488,4.203-3.64,4.838c-7.268,2.145-14.212,5.045-20.744,8.606&#10;&#9;&#9;&#9;c-1.972,1.075-4.412,0.743-6-0.845L184.7,82.503c-5.703-5.703-14.951-5.703-20.654,0l-16.949,16.949&#10;&#9;&#9;&#9;c-5.703,5.703-5.703,14.951,0,20.654l14.327,14.327c1.588,1.588,1.92,4.028,0.845,6c-3.561,6.532-6.462,13.476-8.606,20.744&#10;&#9;&#9;&#9;c-0.635,2.152-2.594,3.64-4.838,3.64h-20.247c-8.066,0-14.605,6.539-14.605,14.605v23.97c0,8.066,6.539,14.605,14.605,14.605&#10;&#9;&#9;&#9;h20.247c2.244,0,4.203,1.488,4.838,3.64c2.145,7.268,5.045,14.212,8.606,20.744c1.075,1.972,0.743,4.412-0.845,6l-14.327,14.327&#10;&#9;&#9;&#9;c-5.703,5.703-5.703,14.951,0,20.654l16.949,16.949c5.703,5.703,14.951,5.703,20.654,0l14.327-14.327&#10;&#9;&#9;&#9;c1.588-1.588,4.028-1.92,6-0.845c6.532,3.561,13.476,6.462,20.744,8.606c2.152,0.635,3.64,2.594,3.64,4.838v20.247&#10;&#9;&#9;&#9;c0,8.066,6.539,14.605,14.605,14.605h23.97c8.066,0,14.605-6.539,14.605-14.605v-20.247c0-2.244,1.488-4.203,3.64-4.838&#10;&#9;&#9;&#9;c7.268-2.145,14.212-5.045,20.744-8.606c1.972-1.075,4.412-0.743,6,0.845l14.327,14.327c5.703,5.703,14.951,5.703,20.654,0&#10;&#9;&#9;&#9;l16.949-16.949c5.703-5.703,5.703-14.951,0-20.654l-14.327-14.327c-1.588-1.588-1.92-4.028-0.845-6&#10;&#9;&#9;&#9;c3.561-6.532,6.462-13.476,8.606-20.744c0.635-2.152,2.594-3.64,4.838-3.64h20.247&#10;&#9;&#9;&#9;C391.489,217.996,398.028,211.457,398.028,203.391z" fill="none" fill-opacity="1" stroke="#009dc9" stroke-opacity="1" data-original-stroke-color="#000000ff" stroke-width="15" data-original-stroke-width="15"/>
		<path style="stroke-linecap: round; stroke-linejoin: round; stroke-miterlimit: 10;" d="&#10;&#9;&#9;&#9;M223.752,129.178c9.653-5.012,20.619-7.845,32.248-7.845c38.7,0,70.073,31.373,70.073,70.073S294.7,261.479,256,261.479&#10;&#9;&#9;&#9;s-70.073-31.373-70.073-70.073c0-14.343,4.309-27.68,11.704-38.786" fill="none" fill-opacity="1" stroke="#009dc9" stroke-opacity="1" data-original-stroke-color="#000000ff" stroke-width="15" data-original-stroke-width="15"/>
		<path style="stroke-linecap: round; stroke-linejoin: round; stroke-miterlimit: 10;" d="&#10;&#9;&#9;&#9;M264.526,157.9l4.48,9.043c1.385,2.795,4.062,4.733,7.159,5.181l10.019,1.45c7.799,1.129,10.913,10.675,5.27,16.155l-7.25,7.039&#10;&#9;&#9;&#9;c-2.241,2.176-3.264,5.311-2.735,8.383l1.711,9.939c1.332,7.737-6.82,13.637-13.796,9.984l-8.961-4.693&#10;&#9;&#9;&#9;c-2.77-1.451-6.079-1.451-8.849,0l-8.961,4.693c-6.975,3.653-15.128-2.247-13.796-9.984l1.711-9.939&#10;&#9;&#9;&#9;c0.529-3.072-0.494-6.207-2.735-8.383l-7.25-7.039c-5.643-5.479-2.529-15.026,5.27-16.155l10.019-1.45&#10;&#9;&#9;&#9;c3.097-0.448,5.774-2.386,7.159-5.181l4.48-9.043C250.961,150.861,261.039,150.861,264.526,157.9z" fill="none" fill-opacity="1" stroke="#009dc9" stroke-opacity="1" data-original-stroke-color="#000000ff" stroke-width="15" data-original-stroke-width="15"/>
		<g>
			<g>
				
					<line style="stroke-linecap: round; stroke-linejoin: round; stroke-miterlimit: 10;" x1="256" y1="7.5" x2="256" y2="17.628" fill="none" fill-opacity="1" stroke="#009dc9" stroke-opacity="1" data-original-stroke-color="#000000ff" stroke-width="15" data-original-stroke-width="15"/>
			</g>
			<g>
				
					<line style="stroke-linecap: round; stroke-linejoin: round; stroke-miterlimit: 10;" x1="164.047" y1="32.139" x2="169.111" y2="40.91" fill="none" fill-opacity="1" stroke="#009dc9" stroke-opacity="1" data-original-stroke-color="#000000ff" stroke-width="15" data-original-stroke-width="15"/>
			</g>
			<g>
				
					<line style="stroke-linecap: round; stroke-linejoin: round; stroke-miterlimit: 10;" x1="96.733" y1="99.453" x2="105.504" y2="104.517" fill="none" fill-opacity="1" stroke="#009dc9" stroke-opacity="1" data-original-stroke-color="#000000ff" stroke-width="15" data-original-stroke-width="15"/>
				
					<line style="stroke-linecap: round; stroke-linejoin: round; stroke-miterlimit: 10;" x1="406.496" y1="278.295" x2="415.268" y2="283.359" fill="none" fill-opacity="1" stroke="#009dc9" stroke-opacity="1" data-original-stroke-color="#000000ff" stroke-width="15" data-original-stroke-width="15"/>
			</g>
			<g>
				
					<line style="stroke-linecap: round; stroke-linejoin: round; stroke-miterlimit: 10;" x1="72.094" y1="191.406" x2="82.222" y2="191.406" fill="none" fill-opacity="1" stroke="#009dc9" stroke-opacity="1" data-original-stroke-color="#000000ff" stroke-width="15" data-original-stroke-width="15"/>
				
					<line style="stroke-linecap: round; stroke-linejoin: round; stroke-miterlimit: 10;" x1="429.778" y1="191.406" x2="439.906" y2="191.406" fill="none" fill-opacity="1" stroke="#009dc9" stroke-opacity="1" data-original-stroke-color="#000000ff" stroke-width="15" data-original-stroke-width="15"/>
			</g>
			<g>
				
					<line style="stroke-linecap: round; stroke-linejoin: round; stroke-miterlimit: 10;" x1="96.733" y1="283.359" x2="105.504" y2="278.295" fill="none" fill-opacity="1" stroke="#009dc9" stroke-opacity="1" data-original-stroke-color="#000000ff" stroke-width="15" data-original-stroke-width="15"/>
				
					<line style="stroke-linecap: round; stroke-linejoin: round; stroke-miterlimit: 10;" x1="406.496" y1="104.517" x2="415.268" y2="99.453" fill="none" fill-opacity="1" stroke="#009dc9" stroke-opacity="1" data-original-stroke-color="#000000ff" stroke-width="15" data-original-stroke-width="15"/>
			</g>
			<g>
				
					<line style="stroke-linecap: round; stroke-linejoin: round; stroke-miterlimit: 10;" x1="342.889" y1="40.91" x2="347.953" y2="32.139" fill="none" fill-opacity="1" stroke="#009dc9" stroke-opacity="1" data-original-stroke-color="#000000ff" stroke-width="15" data-original-stroke-width="15"/>
			</g>
		</g>
	</g>
</g></g></svg>