<svg version="1.1" id="svg351" xml:space="preserve" width="300" height="300" viewBox="0 0 682.66669 682.66669" xmlns="http://www.w3.org/2000/svg" xmlns:svg="http://www.w3.org/2000/svg" xmlns:xlink="http://www.w3.org/1999/xlink" xmlns:svgjs="http://svgjs.dev/svgjs"><g width="100%" height="100%" transform="matrix(1,0,0,1,0,0)"><defs id="defs355"><clipPath clipPathUnits="userSpaceOnUse" id="clipPath365"><path d="M 0,512 H 512 V 0 H 0 Z" id="path363" fill="#009dc9" fill-opacity="1" data-original-color="#000000ff" stroke="none" stroke-opacity="1"/></clipPath></defs><g id="g357" transform="matrix(1.3333333,0,0,-1.3333333,0,682.66667)"><g id="g359"><g id="g361" clip-path="url(#clipPath365)"><g id="g367" transform="translate(466.501,139.2048)"><path d="m 0,0 c 14.82,-4.33 27.61,-15.1 33.97,-30.46 11.15,-26.95 -1.64,-57.83 -28.59,-69 l -5.47,-2.26 c -12,-4.97 -19.69,-16.71 -19.71,-29.69" style="stroke-linecap: round; stroke-linejoin: round; stroke-miterlimit: 10; stroke-dasharray: none;" id="path369" fill="none" fill-opacity="1" stroke="#009dc9" stroke-opacity="1" data-original-stroke-color="#000000ff" stroke-width="15" data-original-stroke-width="15"/></g><g id="g371" transform="translate(65.291,7.7947)"><path d="m 0,0 c -0.04,12.97 -7.71,24.72 -19.7,29.68 l -5.47,2.27 c -20.34,8.42 -32.62,28.08 -32.62,48.81 0,6.74 1.3,13.58 4.04,20.19 11.15,26.94 42.04,39.74 68.979,28.57 l 5.5,-2.28 c 12.031,-4.98 25.811,-2.06 35.011,7.17 0.1,0.1 0.199,0.2 0.3,0.3 9.2,9.19 12.07,22.95 7.09,34.97 l -2.27,5.47 c -2.73,6.62 -4.03,13.46 -4.03,20.2 0,20.72 12.28,40.39 32.62,48.81 26.94,11.15 57.83,-1.65 68.989,-28.59 l 2.281,-5.49 c 4.98,-12.02 16.75,-19.7 29.75,-19.69 h 0.43 c 13.02,-0.02 24.82,7.66 29.8,19.69 l 2.279,5.49 c 8.421,20.33 28.091,32.62 48.811,32.62 6.73,0 13.57,-1.3 20.18,-4.03 26.94,-11.17 39.74,-42.05 28.57,-69.01 l -2.26,-5.47 c -4.99,-12.04 -2.07,-25.81 7.15,-35.01 0.1,-0.1 0.2,-0.21 0.31,-0.31 9.18,-9.2 22.94,-12.08 34.949,-7.11 l 5.481,2.27 c 1.76,0.73 3.54,1.36 5.34,1.89" style="stroke-linecap: round; stroke-linejoin: round; stroke-miterlimit: 10; stroke-dasharray: none;" id="path373" fill="none" fill-opacity="1" stroke="#009dc9" stroke-opacity="1" data-original-stroke-color="#000000ff" stroke-width="15" data-original-stroke-width="15"/></g><g id="g375" transform="translate(128.6807,7.7947)"><path d="M 0,0 C 0.17,70.18 57.13,127 127.32,127 197.511,127 254.471,70.18 254.641,0" style="stroke-linecap: round; stroke-linejoin: round; stroke-miterlimit: 10; stroke-dasharray: none;" id="path377" fill="none" fill-opacity="1" stroke="#009dc9" stroke-opacity="1" data-original-stroke-color="#000000ff" stroke-width="15" data-original-stroke-width="15"/></g><g id="g379" transform="translate(158.9707,375.5447)"><path d="M 0,0 59.101,51.29 C 66.48,57.7 77.42,57.83 84.96,51.6 l 66.69,-55.18 92.491,76.17 -9.941,12.07 c -9.65,11.72 -2.99,29.5 11.981,32 l 70.299,11.72 c 14.98,2.5 27.041,-12.15 21.72,-26.37 L 313.21,35.26 c -5.319,-14.22 -24.04,-17.34 -33.7,-5.62 l -9.94,12.07 -105.24,-86.66 c -7.39,-6.09 -18.07,-6.08 -25.46,0.03 L 72.521,9.97 -33.39,-81.95 c -3.75,-3.24 -8.42,-4.89 -13.12,-4.89 -4.019,0 -8.05,1.21 -11.519,3.65 l -73.731,52 c -9.03,6.36 -11.19,18.84 -4.82,27.87 6.36,9.02 18.84,11.18 27.87,4.82 l 60.931,-42.97 25.439,22.08" style="stroke-linecap: round; stroke-linejoin: round; stroke-miterlimit: 10; stroke-dasharray: none;" id="path381" fill="none" fill-opacity="1" stroke="#009dc9" stroke-opacity="1" data-original-stroke-color="#000000ff" stroke-width="15" data-original-stroke-width="15"/></g><g id="g383" transform="translate(36.3301,304.052)"><path d="M 0,0 V -141.739" style="stroke-linecap: round; stroke-linejoin: round; stroke-miterlimit: 10; stroke-dasharray: none;" id="path385" fill="none" fill-opacity="1" stroke="#009dc9" stroke-opacity="1" data-original-stroke-color="#000000ff" stroke-width="15" data-original-stroke-width="15"/></g><g id="g387" transform="translate(91.2471,267.0479)"><path d="M 0,0 V -104.734" style="stroke-linecap: round; stroke-linejoin: round; stroke-miterlimit: 10; stroke-dasharray: none;" id="path389" fill="none" fill-opacity="1" stroke="#009dc9" stroke-opacity="1" data-original-stroke-color="#000000ff" stroke-width="15" data-original-stroke-width="15"/></g><g id="g391" transform="translate(146.165,275.0479)"><path d="M 0,0 V -5" style="stroke-linecap: round; stroke-linejoin: round; stroke-miterlimit: 10; stroke-dasharray: none;" id="path393" fill="none" fill-opacity="1" stroke="#009dc9" stroke-opacity="1" data-original-stroke-color="#000000ff" stroke-width="15" data-original-stroke-width="15"/></g><g id="g395" transform="translate(201.082,323.8191)"><path d="M 0,0 V -44.047" style="stroke-linecap: round; stroke-linejoin: round; stroke-miterlimit: 10; stroke-dasharray: none;" id="path397" fill="none" fill-opacity="1" stroke="#009dc9" stroke-opacity="1" data-original-stroke-color="#000000ff" stroke-width="15" data-original-stroke-width="15"/></g><g id="g399" transform="translate(256,330.5957)"><path d="M 0,0 V -99.224" style="stroke-linecap: round; stroke-linejoin: round; stroke-miterlimit: 10; stroke-dasharray: none;" id="path401" fill="none" fill-opacity="1" stroke="#009dc9" stroke-opacity="1" data-original-stroke-color="#000000ff" stroke-width="15" data-original-stroke-width="15"/></g><g id="g403" transform="translate(310.918,301.7957)"><path d="M 0,0 V -22.023" style="stroke-linecap: round; stroke-linejoin: round; stroke-miterlimit: 10; stroke-dasharray: none;" id="path405" fill="none" fill-opacity="1" stroke="#009dc9" stroke-opacity="1" data-original-stroke-color="#000000ff" stroke-width="15" data-original-stroke-width="15"/></g><g id="g407" transform="translate(365.835,330.5957)"><path d="M 0,0 V -55.548" style="stroke-linecap: round; stroke-linejoin: round; stroke-miterlimit: 10; stroke-dasharray: none;" id="path409" fill="none" fill-opacity="1" stroke="#009dc9" stroke-opacity="1" data-original-stroke-color="#000000ff" stroke-width="15" data-original-stroke-width="15"/></g><g id="g411" transform="translate(420.7529,372.3838)"><path d="M 0,0 V -210.07" style="stroke-linecap: round; stroke-linejoin: round; stroke-miterlimit: 10; stroke-dasharray: none;" id="path413" fill="none" fill-opacity="1" stroke="#009dc9" stroke-opacity="1" data-original-stroke-color="#000000ff" stroke-width="15" data-original-stroke-width="15"/></g><g id="g415" transform="translate(475.6699,372.3838)"><path d="M 0,0 V -210.07" style="stroke-linecap: round; stroke-linejoin: round; stroke-miterlimit: 10; stroke-dasharray: none;" id="path417" fill="none" fill-opacity="1" stroke="#009dc9" stroke-opacity="1" data-original-stroke-color="#000000ff" stroke-width="15" data-original-stroke-width="15"/></g></g></g></g></g></svg>