<svg version="1.1" id="Capa_1" xmlns="http://www.w3.org/2000/svg" xmlns:xlink="http://www.w3.org/1999/xlink" x="0px" y="0px" viewBox="0 0 512 512" style="enable-background:new 0 0 512 512;" xml:space="preserve" width="300" height="300" xmlns:svgjs="http://svgjs.dev/svgjs"><g width="100%" height="100%" transform="matrix(1,0,0,1,0,0)"><g>
	<path style="stroke-linecap: round; stroke-linejoin: round; stroke-miterlimit: 10;" d="&#10;&#9;&#9;M465.459,225.898l-1.728-0.46c-2.266-0.604-3.847-2.607-3.987-4.947c-0.202-3.36-0.65-6.677-1.329-9.93&#10;&#9;&#9;c-0.48-2.299,0.521-4.651,2.553-5.828l1.553-0.9c2.571-1.489,3.447-4.78,1.958-7.351l-12.677-21.883&#10;&#9;&#9;c-1.489-2.571-4.78-3.447-7.351-1.958l-1.553,0.9c-2.032,1.177-4.57,0.875-6.325-0.684c-2.484-2.208-5.139-4.247-7.953-6.093&#10;&#9;&#9;c-1.96-1.286-2.912-3.654-2.308-5.92l0.46-1.728c0.765-2.871-0.942-5.818-3.813-6.582l-24.437-6.51&#10;&#9;&#9;c-2.871-0.765-5.818,0.943-6.582,3.813l-0.46,1.728c-0.603,2.266-2.607,3.847-4.947,3.987c-3.36,0.202-6.677,0.65-9.93,1.329&#10;&#9;&#9;c-2.299,0.48-4.651-0.521-5.828-2.553l-0.9-1.553c-1.489-2.571-4.78-3.447-7.351-1.958l-21.883,12.677&#10;&#9;&#9;c-2.571,1.489-3.447,4.78-1.958,7.351l0.9,1.553c1.177,2.032,0.875,4.57-0.685,6.326c-2.208,2.484-4.247,5.139-6.093,7.953&#10;&#9;&#9;c-1.286,1.96-3.654,2.912-5.92,2.308l-1.728-0.46c-2.871-0.765-5.818,0.943-6.582,3.813l-6.51,24.437&#10;&#9;&#9;c-0.765,2.871,0.943,5.818,3.813,6.582l1.728,0.46c2.266,0.604,3.847,2.607,3.987,4.947c0.202,3.36,0.65,6.677,1.329,9.93&#10;&#9;&#9;c0.48,2.299-0.521,4.651-2.553,5.828l-1.553,0.9c-2.57,1.489-3.447,4.78-1.958,7.351l12.677,21.882&#10;&#9;&#9;c1.489,2.571,4.78,3.447,7.351,1.958l1.553-0.9c2.032-1.177,4.57-0.875,6.326,0.684c2.484,2.208,5.139,4.247,7.953,6.093&#10;&#9;&#9;c1.96,1.286,2.911,3.654,2.308,5.92l-0.46,1.728c-0.765,2.871,0.943,5.818,3.813,6.582l24.437,6.51&#10;&#9;&#9;c2.871,0.765,5.818-0.943,6.582-3.813l0.46-1.728c0.603-2.266,2.607-3.847,4.947-3.987c3.36-0.202,6.677-0.65,9.93-1.329&#10;&#9;&#9;c2.299-0.48,4.651,0.521,5.828,2.553l0.9,1.553c1.489,2.571,4.78,3.447,7.351,1.958l21.883-12.677&#10;&#9;&#9;c2.571-1.489,3.447-4.78,1.958-7.351l-0.9-1.553c-1.177-2.032-0.875-4.57,0.684-6.325c2.208-2.484,4.247-5.139,6.093-7.953&#10;&#9;&#9;c1.286-1.96,3.654-2.912,5.92-2.308l1.728,0.46c2.871,0.765,5.818-0.943,6.582-3.813l6.51-24.437&#10;&#9;&#9;C470.036,229.609,468.329,226.662,465.459,225.898z M383.315,252.233c-15.246-4.061-24.314-19.713-20.252-34.96&#10;&#9;&#9;c4.061-15.246,19.713-24.314,34.96-20.252c15.246,4.061,24.314,19.713,20.252,34.96&#10;&#9;&#9;C414.214,247.227,398.562,256.295,383.315,252.233z" fill="none" fill-opacity="1" stroke="#009dc9" stroke-opacity="1" data-original-stroke-color="#000000ff" stroke-width="15" data-original-stroke-width="15"/>
	
		<circle style="stroke-linecap: round; stroke-linejoin: round; stroke-miterlimit: 10;" cx="347.329" cy="347.777" r="14.764" fill="none" fill-opacity="1" stroke="#009dc9" stroke-opacity="1" data-original-stroke-color="#000000ff" stroke-width="15" data-original-stroke-width="15"/>
	
		<circle style="stroke-linecap: round; stroke-linejoin: round; stroke-miterlimit: 10;" cx="434.009" cy="390.015" r="14.764" fill="none" fill-opacity="1" stroke="#009dc9" stroke-opacity="1" data-original-stroke-color="#000000ff" stroke-width="15" data-original-stroke-width="15"/>
	
		<circle style="stroke-linecap: round; stroke-linejoin: round; stroke-miterlimit: 10;" cx="381.034" cy="432.253" r="14.764" fill="none" fill-opacity="1" stroke="#009dc9" stroke-opacity="1" data-original-stroke-color="#000000ff" stroke-width="15" data-original-stroke-width="15"/>
	
		<line style="stroke-linecap: round; stroke-linejoin: round; stroke-miterlimit: 10;" x1="366.674" y1="347.776" x2="469.454" y2="347.776" fill="none" fill-opacity="1" stroke="#009dc9" stroke-opacity="1" data-original-stroke-color="#000000ff" stroke-width="15" data-original-stroke-width="15"/>
	
		<line style="stroke-linecap: round; stroke-linejoin: round; stroke-miterlimit: 10;" x1="452.387" y1="390.015" x2="469.454" y2="390.015" fill="none" fill-opacity="1" stroke="#009dc9" stroke-opacity="1" data-original-stroke-color="#000000ff" stroke-width="15" data-original-stroke-width="15"/>
	
		<line style="stroke-linecap: round; stroke-linejoin: round; stroke-miterlimit: 10;" x1="311.884" y1="390.015" x2="417.073" y2="390.015" fill="none" fill-opacity="1" stroke="#009dc9" stroke-opacity="1" data-original-stroke-color="#000000ff" stroke-width="15" data-original-stroke-width="15"/>
	
		<line style="stroke-linecap: round; stroke-linejoin: round; stroke-miterlimit: 10;" x1="399.64" y1="432.253" x2="469.454" y2="432.253" fill="none" fill-opacity="1" stroke="#009dc9" stroke-opacity="1" data-original-stroke-color="#000000ff" stroke-width="15" data-original-stroke-width="15"/>
	
		<line style="stroke-linecap: round; stroke-linejoin: round; stroke-miterlimit: 10;" x1="311.884" y1="432.253" x2="362.093" y2="432.253" fill="none" fill-opacity="1" stroke="#009dc9" stroke-opacity="1" data-original-stroke-color="#000000ff" stroke-width="15" data-original-stroke-width="15"/>
	
		<line style="stroke-linecap: round; stroke-linejoin: round; stroke-miterlimit: 10;" x1="311.884" y1="347.776" x2="327.671" y2="347.776" fill="none" fill-opacity="1" stroke="#009dc9" stroke-opacity="1" data-original-stroke-color="#000000ff" stroke-width="15" data-original-stroke-width="15"/>
	<path style="stroke-linecap: round; stroke-linejoin: round; stroke-miterlimit: 10;" d="&#10;&#9;&#9;M504.5,103.855H7.5V66.996c0-22.091,17.909-40,40-40h417c22.091,0,40,17.909,40,40V103.855z" fill="none" fill-opacity="1" stroke="#009dc9" stroke-opacity="1" data-original-stroke-color="#000000ff" stroke-width="15" data-original-stroke-width="15"/>
	
		<polyline style="stroke-linecap: round; stroke-linejoin: round; stroke-miterlimit: 10;" points="&#10;&#9;&#9;504.5,307.527 504.5,103.855 7.5,103.855 7.5,186.207 &#9;" fill="none" fill-opacity="1" stroke="#009dc9" stroke-opacity="1" data-original-stroke-color="#000000ff" stroke-width="15" data-original-stroke-width="15"/>
	<path style="stroke-linecap: round; stroke-linejoin: round; stroke-miterlimit: 10;" d="&#10;&#9;&#9;M7.5,221.209v223.794c0,22.091,17.909,40,40,40h417c22.091,0,40-17.909,40-40V343.529" fill="none" fill-opacity="1" stroke="#009dc9" stroke-opacity="1" data-original-stroke-color="#000000ff" stroke-width="15" data-original-stroke-width="15"/>
	
		<line style="stroke-linecap: round; stroke-linejoin: round; stroke-miterlimit: 10;" x1="368.632" y1="65.426" x2="368.632" y2="65.426" fill="none" fill-opacity="1" stroke="#009dc9" stroke-opacity="1" data-original-stroke-color="#000000ff" stroke-width="15" data-original-stroke-width="15"/>
	
		<line style="stroke-linecap: round; stroke-linejoin: round; stroke-miterlimit: 10;" x1="409.306" y1="65.426" x2="409.306" y2="65.426" fill="none" fill-opacity="1" stroke="#009dc9" stroke-opacity="1" data-original-stroke-color="#000000ff" stroke-width="15" data-original-stroke-width="15"/>
	
		<line style="stroke-linecap: round; stroke-linejoin: round; stroke-miterlimit: 10;" x1="449.979" y1="65.426" x2="449.979" y2="65.426" fill="none" fill-opacity="1" stroke="#009dc9" stroke-opacity="1" data-original-stroke-color="#000000ff" stroke-width="15" data-original-stroke-width="15"/>
	<path style="stroke-linecap: round; stroke-linejoin: round; stroke-miterlimit: 10;" d="&#10;&#9;&#9;M105.607,283.025c-1.312-3.62-2.028-7.526-2.028-11.599c0-18.796,15.237-34.033,34.033-34.033s34.033,15.237,34.033,34.033&#10;&#9;&#9;c0,4.412-0.84,8.628-2.368,12.497" fill="none" fill-opacity="1" stroke="#009dc9" stroke-opacity="1" data-original-stroke-color="#000000ff" stroke-width="15" data-original-stroke-width="15"/>
	<path style="stroke-linecap: round; stroke-linejoin: round; stroke-miterlimit: 10;" d="&#10;&#9;&#9;M211.042,334.358H64.182c-7.658,0-13.867-6.208-13.867-13.866V218.303c0-7.658,6.208-13.867,13.867-13.867h146.86&#10;&#9;&#9;c7.658,0,13.867,6.208,13.867,13.867v102.188C224.909,328.15,218.701,334.358,211.042,334.358z" fill="none" fill-opacity="1" stroke="#009dc9" stroke-opacity="1" data-original-stroke-color="#000000ff" stroke-width="15" data-original-stroke-width="15"/>
	<path style="stroke-linecap: round; stroke-linejoin: round; stroke-miterlimit: 10;" d="&#10;&#9;&#9;M50.316,284.691v39.676c0,5.518,4.473,9.99,9.991,9.99h154.612c5.518,0,9.991-4.473,9.991-9.99v-39.676H50.316z" fill="none" fill-opacity="1" stroke="#009dc9" stroke-opacity="1" data-original-stroke-color="#000000ff" stroke-width="15" data-original-stroke-width="15"/>
	
		<line style="stroke-linecap: round; stroke-linejoin: round; stroke-miterlimit: 10;" x1="275.248" y1="103.855" x2="275.248" y2="485.004" fill="none" fill-opacity="1" stroke="#009dc9" stroke-opacity="1" data-original-stroke-color="#000000ff" stroke-width="15" data-original-stroke-width="15"/>
	
		<line style="stroke-linecap: round; stroke-linejoin: round; stroke-miterlimit: 10;" x1="55.282" y1="401.11" x2="219.943" y2="401.11" fill="none" fill-opacity="1" stroke="#009dc9" stroke-opacity="1" data-original-stroke-color="#000000ff" stroke-width="15" data-original-stroke-width="15"/>
	
		<line style="stroke-linecap: round; stroke-linejoin: round; stroke-miterlimit: 10;" x1="55.282" y1="432.764" x2="176.611" y2="432.764" fill="none" fill-opacity="1" stroke="#009dc9" stroke-opacity="1" data-original-stroke-color="#000000ff" stroke-width="15" data-original-stroke-width="15"/>
	
		<circle style="stroke-linecap: round; stroke-linejoin: round; stroke-miterlimit: 10;" cx="69.848" cy="156.646" r="14.566" fill="none" fill-opacity="1" stroke="#009dc9" stroke-opacity="1" data-original-stroke-color="#000000ff" stroke-width="15" data-original-stroke-width="15"/>
	
		<line style="stroke-linecap: round; stroke-linejoin: round; stroke-miterlimit: 10;" x1="114.546" y1="154.372" x2="203.01" y2="154.372" fill="none" fill-opacity="1" stroke="#009dc9" stroke-opacity="1" data-original-stroke-color="#000000ff" stroke-width="15" data-original-stroke-width="15"/>
	
		<line style="stroke-linecap: round; stroke-linejoin: round; stroke-miterlimit: 10;" x1="55.282" y1="367.26" x2="67.44" y2="367.26" fill="none" fill-opacity="1" stroke="#009dc9" stroke-opacity="1" data-original-stroke-color="#000000ff" stroke-width="15" data-original-stroke-width="15"/>
	
		<line style="stroke-linecap: round; stroke-linejoin: round; stroke-miterlimit: 10;" x1="106.204" y1="367.26" x2="118.362" y2="367.26" fill="none" fill-opacity="1" stroke="#009dc9" stroke-opacity="1" data-original-stroke-color="#000000ff" stroke-width="15" data-original-stroke-width="15"/>
	
		<line style="stroke-linecap: round; stroke-linejoin: round; stroke-miterlimit: 10;" x1="157.127" y1="367.26" x2="169.285" y2="367.26" fill="none" fill-opacity="1" stroke="#009dc9" stroke-opacity="1" data-original-stroke-color="#000000ff" stroke-width="15" data-original-stroke-width="15"/>
	
		<line style="stroke-linecap: round; stroke-linejoin: round; stroke-miterlimit: 10;" x1="208.05" y1="367.26" x2="220.208" y2="367.26" fill="none" fill-opacity="1" stroke="#009dc9" stroke-opacity="1" data-original-stroke-color="#000000ff" stroke-width="15" data-original-stroke-width="15"/>
</g><g>
</g><g>
</g><g>
</g><g>
</g><g>
</g><g>
</g><g>
</g><g>
</g><g>
</g><g>
</g><g>
</g><g>
</g><g>
</g><g>
</g><g>
</g></g></svg>