<svg width="48" height="48" viewBox="0 0 48 48" fill="none" xmlns="http://www.w3.org/2000/svg">
<path fill-rule="evenodd" clip-rule="evenodd" d="M24.0001 0C37.255 0 48.0002 10.7453 48.0002 24.0001C48.0002 37.255 37.255 48 24.0001 48C10.7453 48 0 37.255 0 24.0001C0 10.7453 10.7453 0 24.0001 0Z" fill="#C0392B"/>
<path d="M2.48633 24.0203C2.48633 35.902 12.1186 45.5345 24.0005 45.5345C35.8825 45.5345 45.5145 35.902 45.5145 24.0203C45.5145 12.1381 35.8825 2.50589 24.0005 2.50589C12.1186 2.50589 2.48633 12.1381 2.48633 24.0203Z" fill="#E74C3C"/>
<path fill-rule="evenodd" clip-rule="evenodd" d="M24.0006 8.87842C24.8513 8.87842 25.5476 9.57448 25.5476 10.4251V17.3868C25.5476 18.2375 24.8515 18.9333 24.0008 18.9333C23.1502 18.9333 22.4541 18.2375 22.4541 17.3868V10.4251C22.4541 9.57448 23.1499 8.87842 24.0006 8.87842Z" fill="#ECF0F1"/>
<path fill-rule="evenodd" clip-rule="evenodd" d="M23.9987 11.8031H24.0002C28.5322 11.8031 32.2403 15.5113 32.2403 20.0437C32.2403 21.8269 31.8951 28.3965 33.4354 30.9971H14.564C16.1043 28.3965 15.7591 21.8269 15.7591 20.0437C15.7591 15.511 19.4673 11.8031 23.9987 11.8031ZM34.6883 32.0312C34.7955 32.0544 34.9067 32.0677 35.0233 32.0677H35.1629C35.9985 32.0677 36.6823 32.7512 36.6823 33.5873C36.6823 34.4234 35.9985 35.1069 35.1629 35.1069H12.8367C12.0009 35.1069 11.3174 34.4234 11.3174 33.5873C11.3174 32.7512 12.0009 32.0677 12.8367 32.0677H12.9761C13.0927 32.0677 13.2039 32.0544 13.3111 32.0312H34.6883Z" fill="#ECF0F1"/>
<path fill-rule="evenodd" clip-rule="evenodd" d="M26.9821 36.141C26.9821 37.7807 25.6412 39.1218 24.0013 39.1218H24.0006C22.3606 39.1218 21.0195 37.7807 21.0195 36.141H26.9821Z" fill="#ECF0F1"/>
</svg>
