<svg width="48" height="47" viewBox="0 0 48 47" fill="none" xmlns="http://www.w3.org/2000/svg">
<g clip-path="url(#clip0_511_2594)">
<path d="M13.359 18.7986C13.359 19.3634 13.42 19.8213 13.5269 20.1571C13.649 20.4929 13.8016 20.8592 14.0153 21.2561C14.0916 21.3782 14.1222 21.5003 14.1222 21.6072C14.1222 21.7598 14.0306 21.9124 13.8322 22.0651L12.8705 22.7062C12.7332 22.7978 12.5958 22.8435 12.4737 22.8435C12.321 22.8435 12.1684 22.7672 12.0158 22.6298C11.8021 22.4009 11.6189 22.1567 11.4663 21.9124C11.3136 21.653 11.161 21.363 10.9931 21.0119C9.80251 22.4162 8.30666 23.1183 6.50553 23.1183C5.22337 23.1183 4.20069 22.752 3.45276 22.0193C2.70484 21.2866 2.32324 20.3097 2.32324 19.0886C2.32324 17.7912 2.78116 16.738 3.71225 15.9443C4.64334 15.1506 5.87971 14.7537 7.45188 14.7537C7.97085 14.7537 8.50509 14.7995 9.06985 14.8758C9.63461 14.9522 10.2146 15.0743 10.8252 15.2116V14.0974C10.8252 12.9373 10.581 12.1283 10.1078 11.6552C9.61935 11.182 8.7951 10.953 7.61979 10.953C7.08555 10.953 6.53606 11.0141 5.97129 11.1515C5.40653 11.2888 4.85704 11.4567 4.3228 11.6704C4.07858 11.7773 3.89542 11.8383 3.78857 11.8689C3.68172 11.8994 3.6054 11.9147 3.54435 11.9147C3.33065 11.9147 3.22381 11.762 3.22381 11.4415V10.6935C3.22381 10.4493 3.25433 10.2662 3.33065 10.1593C3.40697 10.0525 3.54435 9.94562 3.75804 9.83877C4.29227 9.56402 4.93335 9.33507 5.68128 9.1519C6.42921 8.95347 7.22293 8.86189 8.06244 8.86189C9.87883 8.86189 11.2068 9.27401 12.0616 10.0983C12.9011 10.9225 13.3285 12.1741 13.3285 13.8532V18.7986H13.359ZM7.16187 21.1187C7.66558 21.1187 8.18455 21.0271 8.73404 20.844C9.28354 20.6608 9.77198 20.325 10.1841 19.8671C10.4283 19.5771 10.6115 19.2565 10.7031 18.8902C10.7947 18.5239 10.8557 18.0812 10.8557 17.5623V16.9212C10.4131 16.8143 9.93989 16.7228 9.45144 16.6617C8.963 16.6006 8.48982 16.5701 8.01665 16.5701C6.99397 16.5701 6.24604 16.7685 5.74234 17.1807C5.23863 17.5928 4.99441 18.1728 4.99441 18.936C4.99441 19.6534 5.17758 20.1876 5.55917 20.554C5.9255 20.9356 6.45974 21.1187 7.16187 21.1187ZM19.4187 22.7672C19.144 22.7672 18.9608 22.7214 18.8387 22.6146C18.7166 22.523 18.6097 22.3093 18.5182 22.0193L14.9312 10.2204C14.8396 9.91509 14.7938 9.71666 14.7938 9.60981C14.7938 9.36559 14.9159 9.22822 15.1601 9.22822H16.656C16.946 9.22822 17.1444 9.27401 17.2513 9.38086C17.3734 9.47244 17.4649 9.68613 17.5565 9.97615L20.1208 20.0808L22.502 9.97615C22.5783 9.67087 22.6699 9.47244 22.792 9.38086C22.9141 9.28927 23.1278 9.22822 23.4026 9.22822H24.6237C24.9137 9.22822 25.1121 9.27401 25.2342 9.38086C25.3563 9.47244 25.4632 9.68613 25.5242 9.97615L27.9359 20.2029L30.5766 9.97615C30.6681 9.67087 30.775 9.47244 30.8818 9.38086C31.004 9.28927 31.2024 9.22822 31.4771 9.22822H32.8967C33.1409 9.22822 33.2783 9.35033 33.2783 9.60981C33.2783 9.68613 33.263 9.76245 33.2477 9.85404C33.2325 9.94562 33.2019 10.0677 33.1409 10.2356L29.4623 22.0346C29.3707 22.3398 29.2639 22.5383 29.1418 22.6298C29.0197 22.7214 28.8212 22.7825 28.5617 22.7825H27.2491C26.959 22.7825 26.7606 22.7367 26.6385 22.6298C26.5164 22.523 26.4095 22.3246 26.3485 22.0193L23.9826 12.1741L21.632 22.004C21.5557 22.3093 21.4641 22.5077 21.342 22.6146C21.2198 22.7214 21.0062 22.7672 20.7314 22.7672H19.4187ZM39.0327 23.1793C38.239 23.1793 37.4453 23.0878 36.6821 22.9046C35.9189 22.7214 35.3236 22.523 34.9268 22.294C34.6825 22.1567 34.5146 22.004 34.4536 21.8667C34.3925 21.7293 34.362 21.5766 34.362 21.4393V20.6608C34.362 20.3403 34.4841 20.1876 34.7131 20.1876C34.8046 20.1876 34.8962 20.2029 34.9878 20.2334C35.0794 20.264 35.2168 20.325 35.3694 20.3861C35.8884 20.615 36.4531 20.7982 37.0484 20.9203C37.659 21.0424 38.2543 21.1035 38.8648 21.1035C39.8264 21.1035 40.5744 20.9356 41.0933 20.5998C41.6123 20.264 41.887 19.7755 41.887 19.1497C41.887 18.7223 41.7497 18.3712 41.4749 18.0812C41.2002 17.7912 40.6812 17.5317 39.9333 17.2875L37.72 16.6006C36.6058 16.2496 35.7815 15.7306 35.2778 15.0437C34.7741 14.3721 34.5146 13.6242 34.5146 12.8305C34.5146 12.1894 34.652 11.6246 34.9268 11.1362C35.2015 10.6478 35.5678 10.2204 36.0257 9.88456C36.4837 9.5335 37.0026 9.27401 37.6132 9.09084C38.2237 8.90768 38.8648 8.83136 39.5364 8.83136C39.8722 8.83136 40.2233 8.84662 40.5591 8.89242C40.9102 8.93821 41.2307 8.99926 41.5512 9.06032C41.8565 9.13664 42.1465 9.21296 42.4213 9.30454C42.696 9.39612 42.9097 9.4877 43.0624 9.57929C43.2761 9.7014 43.4287 9.82351 43.5203 9.96088C43.6119 10.083 43.6577 10.2509 43.6577 10.4646V11.182C43.6577 11.5025 43.5355 11.6704 43.3066 11.6704C43.1845 11.6704 42.986 11.6094 42.7266 11.4873C41.8565 11.0904 40.8796 10.892 39.7959 10.892C38.9259 10.892 38.239 11.0293 37.7658 11.3194C37.2926 11.6094 37.0484 12.052 37.0484 12.6778C37.0484 13.1052 37.2011 13.4716 37.5063 13.7616C37.8116 14.0516 38.3764 14.3416 39.1854 14.6011L41.3528 15.288C42.4518 15.639 43.2455 16.1275 43.7187 16.7533C44.1919 17.3791 44.4208 18.0965 44.4208 18.8902C44.4208 19.5466 44.2835 20.1418 44.024 20.6608C43.7492 21.1798 43.3829 21.6377 42.9097 22.004C42.4365 22.3856 41.8718 22.6604 41.2154 22.8588C40.5286 23.0725 39.8112 23.1793 39.0327 23.1793Z" fill="#252F3E"/>
<path fill-rule="evenodd" clip-rule="evenodd" d="M41.9246 30.5952C36.9028 34.3043 29.6067 36.2733 23.3332 36.2733C14.5413 36.2733 6.61935 33.0222 0.635934 27.6188C0.162756 27.1914 0.590142 26.6113 1.1549 26.9472C7.62676 30.7021 15.6097 32.9764 23.8675 32.9764C29.4387 32.9764 35.5595 31.8163 41.1919 29.4352C42.0314 29.0536 42.7488 29.9847 41.9246 30.5952Z" fill="#FF9900"/>
<path fill-rule="evenodd" clip-rule="evenodd" d="M44.0202 28.2162C43.3791 27.392 39.7769 27.8194 38.1437 28.0178C37.6552 28.0789 37.5789 27.6515 38.0215 27.3309C40.8911 25.3161 45.6077 25.8961 46.1572 26.5677C46.7067 27.2546 46.0045 31.9711 43.3181 34.2302C42.906 34.5812 42.5091 34.3981 42.6923 33.9402C43.3028 32.429 44.6613 29.0252 44.0202 28.2162Z" fill="#FF9900"/>
</g>
<defs>
<clipPath id="clip0_511_2594">
<rect width="46.8333" height="27.4443" fill="white" transform="translate(0.00292969 8.83136)"/>
</clipPath>
</defs>
</svg>
