<svg width="47" height="29" viewBox="0 0 47 29" fill="none" xmlns="http://www.w3.org/2000/svg">
<g clip-path="url(#clip0_511_2595)">
<path d="M13.359 10.7986C13.359 11.3634 13.42 11.8213 13.5269 12.1571C13.649 12.4929 13.8016 12.8592 14.0153 13.2561C14.0916 13.3782 14.1222 13.5003 14.1222 13.6072C14.1222 13.7598 14.0306 13.9124 13.8322 14.0651L12.8705 14.7062C12.7332 14.7978 12.5958 14.8435 12.4737 14.8435C12.321 14.8435 12.1684 14.7672 12.0158 14.6298C11.8021 14.4009 11.6189 14.1567 11.4663 13.9124C11.3136 13.653 11.161 13.363 10.9931 13.0119C9.80251 14.4162 8.30666 15.1183 6.50553 15.1183C5.22337 15.1183 4.20069 14.752 3.45276 14.0193C2.70484 13.2866 2.32324 12.3097 2.32324 11.0886C2.32324 9.79122 2.78116 8.73802 3.71225 7.9443C4.64334 7.15058 5.87971 6.75372 7.45188 6.75372C7.97085 6.75372 8.50509 6.79951 9.06985 6.87583C9.63461 6.95215 10.2146 7.07426 10.8252 7.21164V6.09738C10.8252 4.93733 10.581 4.12834 10.1078 3.65517C9.61935 3.18199 8.7951 2.95303 7.61979 2.95303C7.08555 2.95303 6.53606 3.01409 5.97129 3.15146C5.40653 3.28883 4.85704 3.45674 4.3228 3.67043C4.07858 3.77728 3.89542 3.83833 3.78857 3.86886C3.68172 3.89939 3.6054 3.91465 3.54435 3.91465C3.33065 3.91465 3.22381 3.76201 3.22381 3.44147V2.69355C3.22381 2.44932 3.25433 2.26616 3.33065 2.15931C3.40697 2.05247 3.54435 1.94562 3.75804 1.83877C4.29227 1.56402 4.93335 1.33507 5.68128 1.1519C6.42921 0.95347 7.22293 0.861887 8.06244 0.861887C9.87883 0.861887 11.2068 1.27401 12.0616 2.09826C12.9011 2.9225 13.3285 4.17414 13.3285 5.85316V10.7986H13.359ZM7.16187 13.1187C7.66558 13.1187 8.18455 13.0271 8.73404 12.844C9.28354 12.6608 9.77198 12.325 10.1841 11.8671C10.4283 11.5771 10.6115 11.2565 10.7031 10.8902C10.7947 10.5239 10.8557 10.0812 10.8557 9.56226V8.92118C10.4131 8.81434 9.93989 8.72275 9.45144 8.6617C8.963 8.60064 8.48982 8.57011 8.01665 8.57011C6.99397 8.57011 6.24604 8.76854 5.74234 9.18067C5.23863 9.59279 4.99441 10.1728 4.99441 10.936C4.99441 11.6534 5.17758 12.1876 5.55917 12.554C5.9255 12.9356 6.45974 13.1187 7.16187 13.1187ZM19.4187 14.7672C19.144 14.7672 18.9608 14.7214 18.8387 14.6146C18.7166 14.523 18.6097 14.3093 18.5182 14.0193L14.9312 2.22037C14.8396 1.91509 14.7938 1.71666 14.7938 1.60981C14.7938 1.36559 14.9159 1.22822 15.1601 1.22822H16.656C16.946 1.22822 17.1444 1.27401 17.2513 1.38086C17.3734 1.47244 17.4649 1.68613 17.5565 1.97615L20.1208 12.0808L22.502 1.97615C22.5783 1.67087 22.6699 1.47244 22.792 1.38086C22.9141 1.28927 23.1278 1.22822 23.4026 1.22822H24.6237C24.9137 1.22822 25.1121 1.27401 25.2342 1.38086C25.3563 1.47244 25.4632 1.68613 25.5242 1.97615L27.9359 12.2029L30.5766 1.97615C30.6681 1.67087 30.775 1.47244 30.8818 1.38086C31.004 1.28927 31.2024 1.22822 31.4771 1.22822H32.8967C33.1409 1.22822 33.2783 1.35033 33.2783 1.60981C33.2783 1.68613 33.263 1.76245 33.2477 1.85404C33.2325 1.94562 33.2019 2.06773 33.1409 2.23563L29.4623 14.0346C29.3707 14.3398 29.2639 14.5383 29.1418 14.6298C29.0197 14.7214 28.8212 14.7825 28.5617 14.7825H27.2491C26.959 14.7825 26.7606 14.7367 26.6385 14.6298C26.5164 14.523 26.4095 14.3246 26.3485 14.0193L23.9826 4.17414L21.632 14.004C21.5557 14.3093 21.4641 14.5077 21.342 14.6146C21.2198 14.7214 21.0062 14.7672 20.7314 14.7672H19.4187ZM39.0327 15.1793C38.239 15.1793 37.4453 15.0878 36.6821 14.9046C35.9189 14.7214 35.3236 14.523 34.9268 14.294C34.6825 14.1567 34.5146 14.004 34.4536 13.8667C34.3925 13.7293 34.362 13.5766 34.362 13.4393V12.6608C34.362 12.3403 34.4841 12.1876 34.7131 12.1876C34.8046 12.1876 34.8962 12.2029 34.9878 12.2334C35.0794 12.264 35.2168 12.325 35.3694 12.3861C35.8884 12.615 36.4531 12.7982 37.0484 12.9203C37.659 13.0424 38.2543 13.1035 38.8648 13.1035C39.8264 13.1035 40.5744 12.9356 41.0933 12.5998C41.6123 12.264 41.887 11.7755 41.887 11.1497C41.887 10.7223 41.7497 10.3712 41.4749 10.0812C41.2002 9.79122 40.6812 9.53173 39.9333 9.28751L37.72 8.60064C36.6058 8.24957 35.7815 7.7306 35.2778 7.04373C34.7741 6.37212 34.5146 5.6242 34.5146 4.83048C34.5146 4.1894 34.652 3.62464 34.9268 3.1362C35.2015 2.64775 35.5678 2.22037 36.0257 1.88456C36.4837 1.5335 37.0026 1.27401 37.6132 1.09084C38.2237 0.907679 38.8648 0.83136 39.5364 0.83136C39.8722 0.83136 40.2233 0.846624 40.5591 0.892415C40.9102 0.938207 41.2307 0.999262 41.5512 1.06032C41.8565 1.13664 42.1465 1.21296 42.4213 1.30454C42.696 1.39612 42.9097 1.4877 43.0624 1.57929C43.2761 1.7014 43.4287 1.82351 43.5203 1.96088C43.6119 2.08299 43.6577 2.25089 43.6577 2.46459V3.18199C43.6577 3.50253 43.5355 3.67043 43.3066 3.67043C43.1845 3.67043 42.986 3.60937 42.7266 3.48726C41.8565 3.0904 40.8796 2.89197 39.7959 2.89197C38.9259 2.89197 38.239 3.02935 37.7658 3.31936C37.2926 3.60937 37.0484 4.05202 37.0484 4.67784C37.0484 5.10523 37.2011 5.47156 37.5063 5.76157C37.8116 6.05159 38.3764 6.3416 39.1854 6.60108L41.3528 7.28795C42.4518 7.63902 43.2455 8.12746 43.7187 8.75328C44.1919 9.3791 44.4208 10.0965 44.4208 10.8902C44.4208 11.5466 44.2835 12.1418 44.024 12.6608C43.7492 13.1798 43.3829 13.6377 42.9097 14.004C42.4365 14.3856 41.8718 14.6604 41.2154 14.8588C40.5286 15.0725 39.8112 15.1793 39.0327 15.1793Z" fill="#252F3E"/>
<path fill-rule="evenodd" clip-rule="evenodd" d="M41.9246 22.5952C36.9028 26.3043 29.6067 28.2733 23.3332 28.2733C14.5413 28.2733 6.61935 25.0222 0.635934 19.6188C0.162756 19.1914 0.590142 18.6113 1.1549 18.9472C7.62676 22.7021 15.6097 24.9764 23.8675 24.9764C29.4387 24.9764 35.5595 23.8163 41.1919 21.4352C42.0314 21.0536 42.7488 21.9847 41.9246 22.5952Z" fill="#FF9900"/>
<path fill-rule="evenodd" clip-rule="evenodd" d="M44.0202 20.2162C43.3791 19.392 39.7769 19.8194 38.1437 20.0178C37.6552 20.0789 37.5789 19.6515 38.0215 19.3309C40.8911 17.3161 45.6077 17.8961 46.1572 18.5677C46.7067 19.2546 46.0045 23.9711 43.3181 26.2302C42.906 26.5812 42.5091 26.3981 42.6923 25.9402C43.3028 24.429 44.6613 21.0252 44.0202 20.2162Z" fill="#FF9900"/>
</g>
<defs>
<clipPath id="clip0_511_2595">
<rect width="46.8333" height="27.4443" fill="white" transform="translate(0.00292969 0.83136)"/>
</clipPath>
</defs>
</svg>
