<svg width="48" height="48" viewBox="0 0 48 48" fill="none" xmlns="http://www.w3.org/2000/svg">
<path d="M17.0929 4.13477L29.7891 4.13477L16.6097 43.0939C16.4742 43.4943 16.2163 43.8423 15.8721 44.0887C15.528 44.3352 15.1151 44.4678 14.6915 44.4678H4.81088C4.48995 44.4678 4.17362 44.3916 3.88807 44.2454C3.60253 44.0993 3.35597 43.8874 3.16879 43.6273C2.98162 43.3672 2.85921 43.0664 2.8117 42.7497C2.76419 42.4331 2.79294 42.1097 2.89557 41.8063L15.1746 5.50867C15.3101 5.10822 15.568 4.76025 15.9122 4.51378C16.2563 4.26731 16.6693 4.13474 17.0929 4.13477Z" fill="url(#paint0_linear_511_2640)"/>
<path d="M35.5344 30.2637L15.4014 30.2637C15.2142 30.2636 15.0314 30.3198 14.8767 30.4248C14.7221 30.5299 14.6026 30.6789 14.534 30.8526C14.4654 31.0263 14.4508 31.2166 14.4921 31.3987C14.5333 31.5807 14.6286 31.7462 14.7654 31.8736L27.7026 43.9198C28.0792 44.2704 28.5751 44.4655 29.0902 44.4655H40.4898L35.5344 30.2637Z" fill="#0078D4"/>
<path d="M17.0901 4.13478C16.6619 4.13319 16.2444 4.2682 15.8986 4.52011C15.5528 4.77203 15.2967 5.12764 15.1678 5.53502L2.90803 41.7734C2.79854 42.0779 2.76416 42.4042 2.8078 42.7247C2.85145 43.0453 2.97184 43.3506 3.15878 43.6149C3.34573 43.8792 3.59373 44.0947 3.88181 44.2432C4.16989 44.3916 4.48957 44.4687 4.8138 44.4678H14.9495C15.3271 44.4005 15.68 44.2344 15.9722 43.9865C16.2643 43.7385 16.4853 43.4176 16.6124 43.0566L19.0568 35.8688L27.7898 43.9947C28.1557 44.2968 28.6148 44.4638 29.0897 44.4678H40.4472L35.4657 30.266L20.9446 30.2692L29.8326 4.13478L17.0901 4.13478Z" fill="url(#paint1_linear_511_2640)"/>
<path d="M33.2995 5.50647C33.1643 5.10668 32.9067 4.75929 32.5632 4.51321C32.2196 4.26713 31.8073 4.13477 31.3844 4.13477L17.2347 4.13477C17.6577 4.13476 18.07 4.26712 18.4136 4.51319C18.7572 4.75927 19.0148 5.10667 19.1501 5.50647L31.4299 41.8061C31.5325 42.1095 31.5612 42.4329 31.5137 42.7496C31.4662 43.0662 31.3438 43.3671 31.1566 43.6272C30.9695 43.8873 30.7229 44.0992 30.4374 44.2454C30.1518 44.3915 29.8355 44.4678 29.5145 44.4678H43.6642C43.9851 44.4677 44.3014 44.3915 44.5869 44.2453C44.8725 44.0991 45.119 43.8872 45.3061 43.6271C45.4933 43.367 45.6157 43.0662 45.6632 42.7495C45.7107 42.4329 45.6819 42.1095 45.5793 41.8061L33.2995 5.50647Z" fill="url(#paint2_linear_511_2640)"/>
<defs>
<linearGradient id="paint0_linear_511_2640" x1="21.7204" y1="7.1235" x2="8.59036" y2="46.0038" gradientUnits="userSpaceOnUse">
<stop stop-color="#114A8B"/>
<stop offset="1" stop-color="#0669BC"/>
</linearGradient>
<linearGradient id="paint1_linear_511_2640" x1="25.8366" y1="25.2339" x2="22.7878" y2="26.2671" gradientUnits="userSpaceOnUse">
<stop stop-opacity="0.3"/>
<stop offset="0.071" stop-opacity="0.2"/>
<stop offset="0.321" stop-opacity="0.1"/>
<stop offset="0.623" stop-opacity="0.05"/>
<stop offset="1" stop-opacity="0"/>
</linearGradient>
<linearGradient id="paint2_linear_511_2640" x1="24.1522" y1="5.9898" x2="38.5663" y2="44.4823" gradientUnits="userSpaceOnUse">
<stop stop-color="#3CCBF4"/>
<stop offset="1" stop-color="#2892DF"/>
</linearGradient>
</defs>
</svg>
