<svg width="48" height="48" viewBox="0 0 48 48" fill="none" xmlns="http://www.w3.org/2000/svg">
<path d="M23.9152 29.7565C27.0265 29.7565 29.5487 27.2703 29.5487 24.2034C29.5487 21.1366 27.0265 18.6504 23.9152 18.6504C20.8039 18.6504 18.2817 21.1366 18.2817 24.2034C18.2817 27.2703 20.8039 29.7565 23.9152 29.7565Z" fill="#343434"/>
<path d="M0.912187 18.3201C0.912187 18.3869 0.844238 18.5207 0.844238 18.5877C0.844238 19.1897 1.31933 19.725 1.99808 19.725H11.5684C12.0435 19.725 12.3828 19.4575 12.5865 19.056C14.555 14.7741 18.8989 11.8971 23.8535 11.8971C30.7088 11.8971 36.2745 17.3833 36.2745 24.1407C36.2745 30.8981 30.7088 36.3843 23.8535 36.3843C18.8308 36.3843 14.5548 33.4405 12.5865 29.2924C12.3828 28.8241 12.0435 28.5564 11.5682 28.5564H1.99845C1.38746 28.5564 0.844422 29.0247 0.844422 29.6939C0.844422 29.7607 0.844422 29.8945 0.912371 29.9615C3.55943 40.1309 12.8581 47.6243 23.9216 47.6243C37.0214 47.6243 47.6776 37.1202 47.6776 24.2077C47.6774 11.295 37.021 0.791016 23.9214 0.791016C12.8581 0.791016 3.55925 8.28443 0.912187 18.3201Z" fill="#343434"/>
</svg>
