<svg width="49" height="48" viewBox="0 0 49 48" fill="none" xmlns="http://www.w3.org/2000/svg">
<path d="M0.5 44.697V3.384C1.1765 1.191 2.828 0 5.4545 0L44.0795 0.0269995C46.733 0.0269995 48.4655 1.752 48.4655 4.386V43.6148C48.4655 43.9395 48.4655 44.2913 48.4115 44.6168C48.059 46.458 46.841 47.4863 45.1355 48.0008H3.83C2.105 47.5403 1.0145 46.4303 0.5 44.6978V44.697ZM21.617 12.5348C19.9925 12.7785 18.557 13.4348 17.231 14.3483C14.5775 16.1895 12.9538 18.7343 12.1955 21.8745C12.0328 22.524 11.4102 22.8765 10.652 22.7145C10.0025 22.5795 10.2995 22.0095 10.2185 21.6045C10.2185 21.5235 10.2185 21.4147 10.2455 21.3345C10.895 15.9195 13.6565 11.9595 18.4752 9.42225C20.0187 8.61 21.6965 8.13 23.429 7.87875C23.204 7.82475 22.9685 7.82475 22.7525 7.82475C18.827 8.1495 15.443 9.63825 12.6545 12.3998C9.8045 15.1883 8.2145 18.6262 7.83575 22.5998C7.78175 23.1143 7.592 23.412 7.08575 23.547C6.43625 23.7097 5.813 23.9257 5.1635 24.1425C4.541 24.3675 3.9185 24.63 3.485 25.1715C2.9705 25.821 3.0515 26.4713 3.72875 26.958C4.27025 27.363 4.91975 27.5535 5.57 27.663C8.1425 28.0965 10.7413 28.4752 13.394 28.2045C15.9387 27.9607 18.3755 27.4193 20.7575 26.499C21.353 26.2553 21.5975 25.9305 21.4625 25.281C21.3815 24.9285 21.3815 24.531 21.4085 24.144C21.4355 23.6295 21.1835 23.394 20.7035 23.2777C18.917 22.8442 17.1035 22.5465 15.2345 22.4655C14.2055 22.4385 14.0705 22.3028 14.2595 21.2745C14.855 18.1343 16.4795 15.6705 19.16 13.884C19.9722 13.3695 20.8115 12.984 21.6237 12.5303L21.617 12.5348ZM37.997 27.0728C38.105 26.6392 38.2407 26.2328 38.3495 25.8C38.4035 25.6103 38.4575 25.4212 38.4845 25.2045C39.053 20.9272 37.835 17.2725 34.7495 14.2395C33.8832 13.3995 33.8832 13.3193 34.4247 12.2633C34.5875 11.9385 34.7772 11.8298 35.1012 12.0195L35.6697 12.3442C40.6242 15.837 42.6545 20.6557 42.14 26.6115C42.059 27.6675 41.6795 28.6688 41.5175 29.724C41.6802 29.4802 41.8153 29.2095 41.9225 28.974C44.4673 22.233 42.491 14.814 36.779 10.4295C35.5062 9.4545 35.3165 8.58825 35.777 7.26225C36.047 6.477 36.1295 5.66475 35.9397 4.82475C35.7147 3.9045 35.0397 3.552 34.1802 3.92475C33.6943 4.14684 33.2677 4.48067 32.9352 4.899C31.2102 6.984 29.5782 9.14925 28.4682 11.64C27.3852 14.1038 26.6548 16.6485 26.3293 19.3013C26.2752 19.7887 26.4102 20.0325 26.8977 20.1675C27.3312 20.3025 27.7378 20.4653 28.0888 20.736C28.5492 21.0607 28.82 20.961 29.1718 20.5732C30.4715 19.1655 31.6618 17.6768 32.6097 15.9983C32.8797 15.5108 33.1242 15.4298 33.5847 15.7733C35.8587 17.3978 37.2125 19.6177 37.835 22.3245C38.1597 23.922 38.1875 25.4918 37.9977 27.0623L37.997 27.0728ZM13.142 35.8988C13.169 35.9528 13.196 36.0067 13.25 36.0615C17.744 42.234 26.2452 44.1562 33.0125 40.989C33.689 40.6642 34.1495 40.6642 34.718 41.2327C35.4492 41.9378 36.1805 42.6675 37.1277 43.1077C38.2917 43.6222 39.023 43.1618 39.023 41.9168C39.023 41.4833 39.023 41.0768 38.888 40.6717C37.1285 35.3918 34.178 30.9517 29.6833 27.6217C29.3585 27.378 29.0877 27.324 28.736 27.6217C28.4112 27.9195 28.031 28.1902 27.653 28.3717C27.0845 28.6417 27.0575 29.0212 27.2195 29.5627C27.788 31.3762 28.5192 33.1103 29.4395 34.7603C29.873 35.5725 29.873 35.6603 29.006 36.0052C25.595 37.359 22.319 37.0343 19.151 35.274C18.5285 34.9215 17.987 34.524 17.3915 34.11C17.825 34.6515 18.2915 35.139 18.8263 35.5725C22.2102 38.1172 25.9468 38.8755 30.0072 37.6575C30.9072 37.3875 31.3347 37.6035 31.8485 38.28C32.201 38.7405 32.1185 38.9295 31.6587 39.18C26.6502 41.7248 21.7227 41.5627 16.85 38.8012C15.4422 37.989 14.3052 36.9262 13.1412 35.9047L13.142 35.8988ZM28.3842 24.474C28.4112 22.9305 27.1933 21.6855 25.6842 21.6855C24.1955 21.6585 22.8957 22.9305 22.8957 24.42C22.891 24.783 22.9581 25.1433 23.0932 25.4802C23.2282 25.8172 23.4286 26.1241 23.6828 26.3832C23.9369 26.6424 24.2398 26.8488 24.5741 26.9904C24.9083 27.132 25.2673 27.2062 25.6303 27.2085C27.1453 27.2355 28.3918 26.0175 28.3918 24.474H28.3842Z" fill="#38C4E3"/>
</svg>
