<svg width="48" height="48" viewBox="0 0 48 48" fill="none" xmlns="http://www.w3.org/2000/svg">
<path d="M27.0749 20.5193H31.723H27.0749ZM21.5415 20.5193H26.1896H21.5415ZM16.1188 20.5193H20.7668H16.1188ZM10.696 20.5193H15.2334H10.696ZM5.1626 20.5193H9.81067H5.1626ZM10.696 15.4285H15.2334H10.696ZM16.1188 15.4285H20.7668H16.1188ZM21.5415 15.4285H26.1896H21.5415ZM21.5415 10.3378H26.1896H21.5415Z" fill="black"/>
<path d="M27.0749 20.5193H31.723M21.5415 20.5193H26.1896M16.1188 20.5193H20.7668M10.696 20.5193H15.2334M5.1626 20.5193H9.81067M10.696 15.4285H15.2334M16.1188 15.4285H20.7668M21.5415 15.4285H26.1896M21.5415 10.3378H26.1896" stroke="#066DA5" stroke-width="6.37031"/>
<path d="M46.5525 20.7406C46.5525 20.7406 44.5605 18.8592 40.4658 19.5232C40.0231 16.3139 36.5924 14.4325 36.5924 14.4325C36.5924 14.4325 33.383 18.3059 35.707 22.622C35.043 22.954 33.9363 23.3966 32.2763 23.3966H1.84251C1.28916 25.4993 1.28917 39.4435 16.5614 39.4435C27.5176 39.4435 35.707 34.3528 39.5804 25.0567C45.3352 25.4993 46.5525 20.7406 46.5525 20.7406Z" fill="#066DA5"/>
</svg>
