<svg width="48" height="48" viewBox="0 0 48 48" fill="none" xmlns="http://www.w3.org/2000/svg">
<path d="M30.9398 16.1264L36.6008 11.6264L35.6048 10.3844C33.3448 8.41404 30.6239 7.04634 27.6944 6.40809C24.7648 5.76984 21.7216 5.88173 18.8468 6.73336C15.9831 7.5984 13.3859 9.17632 11.2986 11.3192C9.21132 13.4622 7.70224 16.0999 6.91279 18.9854C6.82279 19.3244 7.84879 18.6914 8.30179 18.8174L16.1258 17.5334C16.1258 17.5334 16.5068 17.1614 16.7288 16.9184C20.2088 13.1204 26.1068 12.6224 30.1238 15.8564L30.9398 16.1264Z" fill="#EA4335"/>
<path d="M40.9113 18.8984C40.0101 15.603 38.1642 12.6434 35.6013 10.3844L30.1113 15.8444C31.2529 16.7705 32.1685 17.9445 32.7886 19.2773C33.4087 20.6101 33.7171 22.0667 33.6903 23.5364V24.5054C36.3903 24.5054 38.5803 26.6804 38.5803 29.3654C38.5803 32.0444 36.3903 34.2224 33.6903 34.2224L23.9193 34.2134L22.9443 34.3184V41.8394L23.9193 41.9984H33.6903C36.4136 42.0251 39.0733 41.1758 41.2772 39.5759C43.481 37.9759 45.1123 35.71 45.9303 33.1124C46.7379 30.5184 46.6853 27.7329 45.7803 25.1713C44.8752 22.6096 43.1662 20.4093 40.9083 18.8984H40.9113Z" fill="#4285F4"/>
<path d="M14.133 41.9953H23.91V34.2133H14.13C13.434 34.2133 12.747 34.0153 12.114 33.7303L10.74 34.1503L6.80098 38.0413L6.45898 39.3823C8.66457 41.0625 11.3574 41.9787 14.13 41.9923L14.133 41.9953Z" fill="#34A853"/>
<path d="M14.1334 16.7144C11.4911 16.7254 8.91805 17.5601 6.77252 19.1023C4.627 20.6445 3.01582 22.8174 2.16337 25.3184C1.31991 27.8178 1.28101 30.5187 2.05213 33.0414C2.82325 35.5641 4.36561 37.7817 6.46237 39.3824L12.1324 33.7304C11.169 33.3008 10.3718 32.5689 9.86178 31.6456C9.35171 30.7223 9.1565 29.6579 9.30572 28.6136C9.45495 27.5694 9.94047 26.6023 10.6887 25.8588C11.437 25.1153 12.4072 24.6359 13.4524 24.4934C14.4977 24.3434 15.5636 24.5359 16.4905 25.0421C17.4173 25.5482 18.1554 26.3408 18.5944 27.3014L24.2644 21.6674C23.0698 20.1181 21.534 18.8652 19.7764 18.0062C18.0188 17.1471 16.0897 16.7051 14.1334 16.7144Z" fill="#FBBC05"/>
</svg>
