<svg width="48" height="48" viewBox="0 0 48 48" fill="none" xmlns="http://www.w3.org/2000/svg">
<path d="M47.2214 19.3079L47.1598 19.123L40.6256 2.07875C40.5024 1.73972 40.2558 1.46232 39.9476 1.27739C39.6394 1.09246 39.3003 1 38.9305 1C38.5606 1 38.2216 1.15411 37.9442 1.36986C37.6668 1.58561 37.451 1.89382 37.3586 2.26368L32.9511 15.7635H15.1055L10.698 2.26368C10.6055 1.92464 10.3898 1.61643 10.1124 1.36986C9.835 1.15411 9.49597 1 9.12611 1C8.75625 1 8.41722 1.06164 8.109 1.27739C7.80079 1.46232 7.55422 1.73972 7.43093 2.07875L0.896783 19.123L0.835141 19.3079C-1.10661 24.3627 0.557747 30.0646 4.87275 33.3317H4.9344C4.9344 33.3625 14.8897 40.8213 14.8897 40.8213L19.8212 44.5507L22.8108 46.8007C23.5197 47.3555 24.5368 47.3555 25.2457 46.8007L28.2354 44.5507L33.1668 40.8213L43.1838 33.3317C47.4988 30.0646 49.1324 24.3627 47.1906 19.3079H47.2214Z" fill="#E24329"/>
<path d="M47.2213 19.3079L47.1596 19.123C43.9234 19.8011 40.9337 21.1572 38.3755 23.0681C38.3447 23.0681 30.6085 28.955 24.0127 33.9173C28.8825 37.6159 33.1358 40.8213 33.1358 40.8213L43.1528 33.3317C47.4678 30.0646 49.1014 24.3626 47.1596 19.3079H47.2213Z" fill="#FC6D26"/>
<path d="M14.8584 40.8214L19.7898 44.5508L22.7795 46.8007C23.4884 47.3555 24.5055 47.3555 25.2144 46.8007L28.2041 44.5508L33.1355 40.8214C33.1355 40.8214 28.8822 37.6159 24.0124 33.9174C19.1118 37.6159 14.8584 40.8214 14.8584 40.8214Z" fill="#FCA326"/>
<path d="M9.64965 23.0681C7.09147 21.1572 4.10179 19.7702 0.865534 19.123L0.80389 19.3079C-1.13786 24.3626 0.526499 30.0646 4.8415 33.3317H4.90314C4.90314 33.3625 14.8585 40.8213 14.8585 40.8213C14.8585 40.8213 19.1118 37.6159 24.0124 33.9173C17.4475 28.955 9.71129 23.099 9.64965 23.0681Z" fill="#FC6D26"/>
</svg>
