<svg width="49" height="48" viewBox="0 0 49 48" fill="none" xmlns="http://www.w3.org/2000/svg">
<path d="M4.12278 20.4299C4.0293 20.4299 4.00593 20.3831 4.05267 20.313L4.54344 19.682C4.59018 19.6119 4.70703 19.5652 4.80051 19.5652H13.1436C13.2371 19.5652 13.2605 19.6353 13.2137 19.7054L12.8165 20.313C12.7697 20.3831 12.6529 20.4533 12.5828 20.4533L4.12278 20.4299Z" fill="#00ACD7"/>
<path d="M0.593481 22.58C0.5 22.58 0.47663 22.5333 0.52337 22.4632L1.01414 21.8322C1.06088 21.7621 1.17773 21.7153 1.27121 21.7153H11.928C12.0215 21.7153 12.0682 21.7854 12.0448 21.8556L11.8579 22.4164C11.8345 22.5099 11.741 22.5567 11.6475 22.5567L0.593481 22.58Z" fill="#00ACD7"/>
<path d="M6.24875 24.7302C6.15527 24.7302 6.1319 24.6601 6.17864 24.59L6.50583 24.0057C6.55257 23.9356 6.64605 23.8655 6.73953 23.8655H11.4135C11.507 23.8655 11.5538 23.9356 11.5538 24.0291L11.507 24.59C11.507 24.6834 11.4135 24.7536 11.3434 24.7536L6.24875 24.7302Z" fill="#00ACD7"/>
<path d="M30.5073 20.0093C29.0349 20.3832 28.03 20.6636 26.5811 21.0376C26.2305 21.131 26.2072 21.1544 25.9033 20.8039C25.5528 20.4066 25.2957 20.1495 24.8049 19.9158C23.3326 19.1913 21.9071 19.4016 20.575 20.2663C18.9858 21.2946 18.1678 22.8137 18.1912 24.7067C18.2146 26.5763 19.4999 28.1188 21.3462 28.3759C22.9353 28.5862 24.2674 28.0253 25.3191 26.8334C25.5294 26.5763 25.7164 26.2959 25.9501 25.9687C25.1088 25.9687 24.0571 25.9687 21.4397 25.9687C20.9489 25.9687 20.832 25.6649 20.9956 25.2676C21.2994 24.5431 21.8603 23.3279 22.1875 22.7202C22.2576 22.58 22.4212 22.3463 22.7718 22.3463C23.9636 22.3463 28.3572 22.3463 31.2785 22.3463C31.2317 22.9773 31.2317 23.6083 31.1383 24.2393C30.8812 25.922 30.2502 27.4644 29.2219 28.8199C27.5393 31.0401 25.3425 32.4189 22.5614 32.7928C20.2711 33.0967 18.1445 32.6526 16.2749 31.2504C14.5455 29.9417 13.5639 28.2123 13.3069 26.0622C13.003 23.5148 13.7509 21.2245 15.2933 19.2147C16.9526 17.0412 19.1494 15.6624 21.8369 15.1716C24.0337 14.7743 26.137 15.0314 28.03 16.3168C29.2686 17.1347 30.1567 18.2565 30.741 19.612C30.8812 19.8223 30.7877 19.9392 30.5073 20.0093Z" fill="#00ACD7"/>
<path d="M38.2434 32.9331C36.1167 32.8864 34.177 32.2787 32.5411 30.8765C31.1622 29.6846 30.2976 28.1655 30.0171 26.366C29.5964 23.7252 30.3209 21.3881 31.9101 19.3082C33.6161 17.0646 35.6727 15.8961 38.4537 15.4053C40.8375 14.9847 43.081 15.2184 45.1142 16.5972C46.9604 17.8592 48.1056 19.5653 48.4094 21.8088C48.8067 24.9638 47.8952 27.5345 45.7218 29.7314C44.1794 31.2972 42.2864 32.2787 40.113 32.7228C39.482 32.8396 38.851 32.863 38.2434 32.9331ZM43.8055 23.4915C43.7821 23.1877 43.7821 22.954 43.7354 22.7203C43.3147 20.4066 41.188 19.0979 38.9679 19.612C36.7944 20.1028 35.3922 21.4816 34.8781 23.6784C34.4574 25.5013 35.3455 27.3476 37.0281 28.0954C38.3135 28.6563 39.5989 28.5862 40.8375 27.9552C42.6837 26.997 43.6886 25.5013 43.8055 23.4915Z" fill="#00ACD7"/>
</svg>
