<svg width="49" height="48" viewBox="0 0 49 48" fill="none" xmlns="http://www.w3.org/2000/svg">
<path d="M45.8 21.3375C45.725 20.55 45.575 19.65 45.35 18.6375C45.125 17.625 44.675 16.575 44.15 15.4125C43.5875 14.2875 42.875 13.0875 41.9375 12C41.5625 11.55 41.15 11.1375 40.7375 10.6875C41.4125 8.1 39.95 5.8125 39.95 5.8125C37.4375 5.6625 35.8625 6.6 35.3 7.0125C35.225 6.975 35.075 6.9375 35 6.9C34.5875 6.75 34.1375 6.5625 33.6875 6.4125C33.2375 6.3 32.7875 6.1125 32.3375 6.0375C31.8875 5.925 31.4 5.8125 30.875 5.7375C30.8 5.7375 30.725 5.7 30.6125 5.7C29.5625 2.25 26.4125 0.75 26.4125 0.75C22.8125 3.075 22.1375 6.15 22.1375 6.15C22.1375 6.15 22.1375 6.225 22.1 6.3C21.875 6.3375 21.725 6.4125 21.5375 6.45C21.275 6.525 21.0125 6.6 20.75 6.75L19.9625 7.0875C19.4375 7.35 18.9125 7.575 18.3875 7.875C17.9 8.175 17.4125 8.4375 16.925 8.775C16.85 8.7375 16.8125 8.7 16.8125 8.7C11.975 6.825 7.7 9.075 7.7 9.075C7.325 14.25 9.65 17.4375 10.1 18.0375C9.9875 18.375 9.875 18.675 9.7625 18.975C9.3875 20.1375 9.125 21.3375 8.975 22.575C8.9375 22.725 8.9375 22.95 8.9 23.1C4.4375 25.3125 3.125 29.85 3.125 29.85C6.8375 34.125 11.1875 34.3875 11.1875 34.3875C11.7125 35.3625 12.3875 36.3375 13.1 37.2C13.4 37.575 13.7375 37.9125 14.0375 38.2875C12.6875 42.15 14.2625 45.4125 14.2625 45.4125C18.425 45.5625 21.1625 43.6125 21.725 43.125C22.1375 43.2375 22.55 43.3875 22.9625 43.5C24.2375 43.8375 25.55 44.025 26.825 44.0625H28.5125C30.4625 46.875 33.9125 47.25 33.9125 47.25C36.35 44.6625 36.5 42.15 36.5 41.55V41.325C36.9875 40.95 37.475 40.575 38 40.1625C38.975 39.3 39.8 38.25 40.55 37.2C40.625 37.125 40.6625 36.975 40.775 36.9C43.55 37.05 45.4625 35.175 45.4625 35.175C45.0125 32.2875 43.3625 30.9 43.025 30.6375L42.9875 30.6L42.95 30.5625L42.9125 30.525C42.9125 30.375 42.95 30.1875 42.95 30C42.9875 29.6625 42.9875 29.3625 42.9875 29.0625V27.825C42.9875 27.75 42.9875 27.675 42.95 27.5625L42.9125 27.3L42.875 27.0375C42.8375 26.7 42.7625 26.4 42.725 26.1C42.425 24.8625 41.9375 23.6625 41.3375 22.65C40.6625 21.5625 39.875 20.6625 38.975 19.8375C38.075 19.05 37.0625 18.375 36.0125 17.925C34.925 17.4375 33.875 17.1375 32.75 17.025C32.225 16.95 31.625 16.95 31.1 16.95H30.2375C29.9375 16.9875 29.675 17.025 29.4125 17.0625C28.2875 17.2875 27.275 17.7 26.375 18.225C25.475 18.75 24.6875 19.4625 24.0125 20.25C23.3375 21.0375 22.85 21.8625 22.5125 22.7625C22.175 23.625 21.9875 24.5625 21.95 25.4625V26.4375C21.95 26.55 21.95 26.6625 21.9875 26.775C22.025 27.225 22.1 27.6375 22.25 28.05C22.5125 28.875 22.8875 29.625 23.375 30.2625C23.8625 30.9 24.425 31.425 25.025 31.8375C25.6625 32.25 26.2625 32.55 26.9375 32.7375C27.6125 32.925 28.2125 33.0375 28.8125 33H29.675C29.75 33 29.825 32.9625 29.9 32.9625C29.975 32.9625 30.0125 32.925 30.125 32.925C30.2375 32.8875 30.425 32.85 30.5375 32.8125C30.8 32.7375 31.025 32.5875 31.2875 32.5125C31.55 32.4 31.7375 32.25 31.925 32.1375C31.9625 32.1 32.0375 32.0625 32.075 32.025C32.3 31.875 32.3375 31.575 32.15 31.35C32 31.2 31.7375 31.125 31.5125 31.2375C31.475 31.275 31.4375 31.275 31.3625 31.3125C31.2125 31.3875 30.9875 31.4625 30.8375 31.5375C30.6125 31.575 30.425 31.65 30.2 31.6875C30.0875 31.6875 29.975 31.725 29.8625 31.725H29.1875H28.925C28.8875 31.725 28.8125 31.725 28.775 31.6875C28.325 31.6125 27.8375 31.4625 27.3875 31.275C26.9375 31.05 26.4875 30.7875 26.1125 30.4125C25.7 30.0375 25.3625 29.625 25.0625 29.1375C24.7625 28.65 24.6125 28.0875 24.5375 27.5625C24.5 27.2625 24.4625 27 24.5 26.7V26.4375V26.25C24.5 26.1 24.5375 25.95 24.575 25.8C24.8 24.5625 25.4 23.3625 26.3375 22.4625C26.6 22.2 26.825 22.0125 27.125 21.825C27.425 21.6 27.6875 21.45 27.9875 21.3375C28.2875 21.225 28.625 21.075 28.925 21C29.2625 20.925 29.6 20.85 29.9 20.85C30.05 20.85 30.2375 20.8125 30.3875 20.8125H30.6875H30.8375C31.2125 20.85 31.5875 20.8875 31.925 20.9625C32.6375 21.1125 33.3125 21.375 33.9875 21.75C35.3 22.5 36.425 23.625 37.1 24.975C37.4375 25.65 37.6625 26.3625 37.8125 27.15C37.85 27.375 37.85 27.525 37.8875 27.7125V28.725C37.8875 28.95 37.85 29.1375 37.85 29.3625C37.8125 29.5875 37.8125 29.775 37.775 30C37.7375 30.225 37.7 30.4125 37.6625 30.6375C37.5875 31.05 37.4 31.425 37.2875 31.8375C36.9875 32.625 36.575 33.375 36.0875 34.0125C35.1125 35.3625 33.725 36.4875 32.225 37.2C31.4375 37.5375 30.65 37.8375 29.825 37.95C29.4125 38.025 29 38.0625 28.5875 38.0625H27.9875H27.95C27.725 38.0625 27.5 38.0625 27.275 38.025C26.375 37.95 25.5125 37.7625 24.65 37.5375C23.7875 37.275 22.9625 36.975 22.175 36.5625C20.6 35.7375 19.2125 34.5375 18.0875 33.1875C17.5625 32.475 17.0375 31.725 16.625 30.975C16.2125 30.225 15.9125 29.3625 15.6875 28.5375C15.425 27.7125 15.3125 26.85 15.275 25.9875V24.675C15.275 24.2625 15.3125 23.8125 15.3875 23.3625C15.425 22.9125 15.5 22.5 15.6125 22.05C15.6875 21.6 15.8375 21.1875 15.95 20.7375C16.2125 19.875 16.475 19.05 16.85 18.2625C17.6 16.6875 18.5375 15.3 19.6625 14.175C19.9625 13.875 20.225 13.65 20.5625 13.3875C20.675 13.275 20.975 13.0125 21.3125 12.825C21.65 12.6375 21.9875 12.4125 22.3625 12.2625C22.5125 12.1875 22.7 12.1125 22.8875 12C22.9625 11.9625 23.0375 11.925 23.1875 11.8875C23.2625 11.85 23.3375 11.8125 23.4875 11.775C23.8625 11.625 24.2375 11.475 24.6125 11.3625C24.6875 11.325 24.8375 11.325 24.9125 11.2875C24.9875 11.25 25.1375 11.25 25.2125 11.2125C25.4375 11.175 25.5875 11.1375 25.775 11.0625C25.85 11.025 26 11.025 26.075 10.9875C26.15 10.9875 26.3 10.95 26.375 10.95C26.45 10.95 26.6 10.9125 26.675 10.9125L26.825 10.875L26.975 10.8375C27.05 10.8375 27.2 10.8 27.275 10.8C27.3875 10.8 27.5 10.7625 27.6125 10.7625C27.6875 10.7625 27.875 10.725 27.95 10.725C28.025 10.725 28.0625 10.725 28.175 10.6875H28.4375C28.55 10.6875 28.6625 10.6875 28.775 10.65H28.925H30.4625C31.2125 10.6875 31.9625 10.7625 32.6375 10.9125C34.025 11.175 35.4125 11.625 36.6125 12.225C37.8125 12.7875 38.9375 13.5375 39.8375 14.325C39.875 14.3625 39.95 14.4 39.9875 14.475C40.025 14.5125 40.1 14.55 40.1375 14.625C40.25 14.7 40.3625 14.85 40.475 14.925C40.5875 15 40.7 15.15 40.8125 15.225C40.8875 15.3375 41.0375 15.45 41.1125 15.5625C41.525 15.975 41.9 16.425 42.2375 16.8375C42.9125 17.7 43.4375 18.5625 43.85 19.3875C43.8875 19.425 43.8875 19.4625 43.925 19.5375C43.9625 19.575 43.9625 19.6125 44 19.6875C44.0375 19.7625 44.075 19.9125 44.15 19.9875C44.1875 20.0625 44.225 20.2125 44.2625 20.2875C44.3 20.3625 44.3375 20.5125 44.375 20.5875C44.525 20.9625 44.675 21.3375 44.7875 21.7125C45.0125 22.275 45.125 22.8 45.2375 23.2125C45.275 23.3625 45.4625 23.5125 45.6125 23.5125C45.8375 23.5125 45.95 23.3625 45.95 23.1375C45.8375 22.5 45.8375 21.975 45.8 21.3375Z" fill="url(#paint0_linear_1233_31)"/>
<defs>
<linearGradient id="paint0_linear_1233_31" x1="24.4997" y1="57.7344" x2="24.4997" y2="15.2979" gradientUnits="userSpaceOnUse">
<stop stop-color="#FCEE1F"/>
<stop offset="1" stop-color="#F15B2A"/>
</linearGradient>
</defs>
</svg>
