<svg width="48" height="48" viewBox="0 0 48 48" fill="none" xmlns="http://www.w3.org/2000/svg">
<path d="M13.3615 11.6603C13.288 11.6236 13.2513 11.5502 13.1779 11.5135C12.0031 10.3754 11.0853 9.01709 10.5347 7.43849C10.3878 6.99795 10.2777 6.55741 10.2777 6.08016V5.93331C10.3144 5.30922 10.7182 5.01552 11.3056 5.16237C11.4892 5.19908 11.6727 5.2725 11.8196 5.38264C12.4804 5.71304 12.9943 6.19029 13.4716 6.74097C14.316 7.65876 15.0135 8.7601 15.4907 9.93487C15.4907 9.97159 15.5274 10.0083 15.5274 10.0083C15.5274 10.0083 15.5641 10.045 15.6009 10.045C17.877 8.64997 20.4835 7.8056 23.1634 7.65876C23.1267 7.58533 23.1267 7.51191 23.1267 7.43849C22.8697 6.30043 22.7596 5.08895 22.8698 3.91418C22.9065 3.21666 23.0533 2.51914 23.2736 1.82162C23.3837 1.4545 23.5673 1.16081 23.7875 0.867116C23.861 0.756981 23.9711 0.683558 24.0812 0.610135C24.3015 0.463288 24.5952 0.463288 24.8155 0.610135C25.0357 0.756981 25.2193 0.97725 25.3661 1.23423C25.5864 1.67477 25.77 2.15202 25.8434 2.62927C26.0637 3.6572 26.1371 4.72183 26.0269 5.78647C25.9902 6.41056 25.8801 7.07137 25.6965 7.69547C26.3573 7.8056 27.0182 7.91574 27.679 8.06258C28.3398 8.20943 28.9639 8.39299 29.588 8.64997C30.2121 8.87024 30.8362 9.16393 31.4235 9.45762C32.0109 9.75132 32.5616 10.1184 33.149 10.4488C33.1857 10.4121 33.1857 10.3754 33.2224 10.302C33.8465 8.57655 34.9111 7.03466 36.3062 5.82318C36.6366 5.52949 37.0037 5.30922 37.4075 5.16237C37.5177 5.12566 37.6278 5.08895 37.7379 5.08895C38.3253 5.01552 38.5823 5.38264 38.619 5.85989C38.6557 6.19029 38.619 6.5207 38.5456 6.8511C38.3253 7.69547 37.9949 8.46641 37.5544 9.20064C36.9303 10.2653 36.1593 11.1831 35.2048 11.954C35.1681 11.9907 35.1314 11.9907 35.0947 12.0641C36.0125 12.9452 36.8569 13.9364 37.5911 15.0011C37.5177 15.0011 37.481 15.0378 37.4442 15.0378H34.4706C34.3605 15.0378 34.2503 14.9644 34.1769 14.8909C32.0109 12.468 29.1107 10.9261 25.9535 10.4488C25.0357 10.302 24.0812 10.2653 23.1267 10.3387C20.3367 10.5223 17.62 11.5869 15.454 13.3858C14.9033 13.8263 14.3527 14.3403 13.8754 14.8909C13.802 15.0011 13.6551 15.0745 13.5083 15.0745H10.4612C10.5347 14.8542 11.0853 14.0466 11.7461 13.3123C12.2968 12.725 12.8108 12.211 13.3615 11.6603ZM37.3708 33.2834C36.71 34.2379 35.9758 35.0823 35.1314 35.89C35.2048 35.9634 35.2416 36.0001 35.315 36.0368C36.7467 37.2483 37.8481 38.8269 38.4722 40.6258C38.619 41.0663 38.6924 41.5435 38.6924 41.9841C38.6924 42.0942 38.6557 42.2043 38.619 42.3512C38.5089 42.6816 38.1785 42.9019 37.8481 42.8284C37.6278 42.7917 37.4075 42.7183 37.224 42.6449C36.9303 42.498 36.6366 42.3145 36.3796 42.0942C34.9846 40.9194 33.9199 39.3776 33.2958 37.6521C33.2591 37.6154 33.2591 37.542 33.2224 37.4686C32.4882 37.9825 31.7172 38.4231 30.9096 38.7902C30.1019 39.1573 29.2576 39.4877 28.4132 39.708C27.5321 39.9282 26.6878 40.1118 25.77 40.2219C25.8067 40.2953 25.8067 40.3688 25.8067 40.4422C26.1004 41.5803 26.1738 42.755 26.1004 43.9298C26.0637 44.664 25.9168 45.3615 25.6965 46.0591C25.5864 46.3528 25.4396 46.6097 25.2927 46.9034C25.2193 47.0136 25.1459 47.087 25.0724 47.1971C24.7053 47.601 24.2648 47.601 23.8977 47.1971C23.7508 47.0503 23.6407 46.8667 23.5306 46.6465C23.2369 46.0958 23.09 45.5084 22.9799 44.8843C22.833 44.0399 22.7963 43.1956 22.833 42.3512C22.8698 41.7271 22.9432 41.103 23.09 40.5156C23.09 40.4789 23.1267 40.4055 23.1267 40.3688C23.1267 40.3688 23.1267 40.3321 23.09 40.2953C20.4101 40.1485 17.8403 39.3408 15.5274 37.9091L15.4173 38.1294C14.7565 39.6713 13.802 41.0296 12.5538 42.0942C12.2234 42.3879 11.8563 42.6082 11.4524 42.755C11.2689 42.8284 11.0486 42.8652 10.8651 42.8284C10.6448 42.7917 10.4612 42.6449 10.3511 42.3879C10.2043 42.0575 10.241 41.7271 10.2777 41.3967C10.3511 40.9194 10.4979 40.4789 10.6815 40.0384C11.2322 38.68 12.1133 37.4686 13.1412 36.4406C13.1779 36.4039 13.2146 36.3672 13.288 36.3305C13.288 36.2938 13.3247 36.2938 13.3247 36.2571C12.3335 35.376 11.4157 34.3848 10.6815 33.2834C10.7916 33.2834 10.8284 33.2467 10.9018 33.2467H13.8387C13.9855 33.2467 14.0957 33.3201 14.1691 33.3936C15.2337 34.5316 16.4819 35.4494 17.8403 36.1469C19.272 36.9179 20.8506 37.3951 22.4659 37.542C26.8713 37.9825 30.6526 36.6242 33.8098 33.467C33.9566 33.3202 34.1402 33.21 34.3605 33.2467H37.3341L37.3708 33.2834ZM33.2958 18.9659C33.5528 18.9659 33.8098 19.0026 34.0668 18.9659C34.3605 18.9292 34.544 19.0393 34.7643 19.2229C35.9391 20.3243 37.1138 21.4256 38.3253 22.5269L38.5089 22.7105C38.5823 22.6371 38.6557 22.6004 38.7292 22.5269C39.9406 21.3889 41.1888 20.2508 42.3636 19.1128C42.4737 19.0026 42.6206 18.9659 42.7674 18.9659H43.6852V29.0249C43.5384 29.0616 41.3724 29.0983 41.1154 29.0249V23.922L41.0787 23.8853C40.2343 24.6562 39.39 25.4639 38.5456 26.2348C37.7012 25.4272 36.8569 24.6562 35.9758 23.8853L35.9391 23.922V29.0616H33.3693C33.2958 28.878 33.2591 19.5533 33.2958 18.9659ZM9.72701 18.9659H12.2601C12.3335 19.1495 12.3335 28.8046 12.2601 29.0249H9.72701C9.69029 28.4008 9.72701 27.74 9.72701 27.1159V25.2069H6.56981V28.9882C6.38625 29.0616 4.22027 29.0616 4 28.9882V18.9659H6.56981V22.5269C6.75337 22.6004 9.43331 22.6004 9.72701 22.5269V18.9659ZM15.3072 29.0249V19.0026C15.454 18.9659 21.0342 18.9292 21.4013 18.9659V21.0952C21.3279 21.0952 21.2177 21.1319 21.1443 21.1319H17.877V22.7839H20.9975V24.9866H17.9137C17.8403 25.1702 17.8403 26.4918 17.877 26.8589C17.9504 26.8589 18.0605 26.8956 18.134 26.8956H21.4013V29.0249H15.3072ZM24.3382 29.0249C24.3015 28.7679 24.3015 19.1495 24.3382 18.9659H26.8713V26.3817C26.9814 26.3817 27.0549 26.3817 27.165 26.4184H30.4323V29.0616L24.3382 29.0249Z" fill="#0F1689"/>
</svg>
