<svg width="48" height="48" viewBox="0 0 48 48" fill="none" xmlns="http://www.w3.org/2000/svg">
<path d="M32.2904 26.4782C30.4719 26.4782 28.8424 27.2724 27.7266 28.5212L24.8666 26.5261C25.1813 25.6829 25.343 24.7917 25.3446 23.8932C25.3446 22.9828 25.177 22.1127 24.8819 21.3024L27.7368 19.3284C28.8523 20.5718 30.4773 21.3614 32.2904 21.3614C35.6443 21.3614 38.375 18.6709 38.375 15.3647C38.375 12.0574 35.6443 9.36805 32.2904 9.36805C28.935 9.36805 26.2043 12.0574 26.2043 15.3647C26.2043 15.9564 26.2954 16.5265 26.4589 17.0678L23.6029 19.0418C22.3843 17.552 20.6509 16.5597 18.7361 16.2556V12.8638C21.4926 12.2934 23.5701 9.88096 23.5701 6.99665C23.5701 3.68864 20.8395 1 17.4855 1C14.1305 1 11.3994 3.689 11.3994 6.99665C11.3994 9.84175 13.423 12.2261 16.1238 12.8372V16.2711C12.4384 16.9088 9.625 20.0802 9.625 23.8932C9.625 27.7245 12.4653 30.907 16.1792 31.5224V35.1502C13.45 35.7401 11.3998 38.1388 11.3998 41.0033C11.3998 44.311 14.1301 47 17.4855 47C20.8395 47 23.5701 44.311 23.5701 41.0033C23.5701 38.1388 21.5196 35.7404 18.7918 35.1502V31.5224C20.6703 31.2104 22.3702 30.2359 23.576 28.7798L26.4545 30.789C26.2891 31.3362 26.2049 31.9042 26.2043 32.4752C26.2043 35.7825 28.935 38.4715 32.2904 38.4715C35.6443 38.4715 38.375 35.7825 38.375 32.4752C38.375 29.1676 35.6443 26.4782 32.2904 26.4782ZM32.2904 12.4563C33.9169 12.4563 35.24 13.762 35.24 15.3647C35.24 16.9664 33.9169 18.2717 32.2904 18.2717C30.6624 18.2717 29.3389 16.9664 29.3389 15.3647C29.3389 13.7616 30.6624 12.4563 32.2904 12.4563ZM14.5345 6.99629C14.5345 5.39354 15.8575 4.08969 17.4855 4.08969C19.112 4.08969 20.4355 5.39354 20.4355 6.99665C20.4355 8.59976 19.112 9.90362 17.4855 9.90362C15.8575 9.90362 14.5345 8.59941 14.5345 6.99629ZM20.4355 41.0033C20.4355 42.6065 19.112 43.9103 17.4855 43.9103C15.8575 43.9103 14.5345 42.6065 14.5345 41.0033C14.5345 39.4002 15.8575 38.0964 17.4855 38.0964C19.112 38.0964 20.4355 39.4002 20.4355 41.0033ZM17.4841 27.9483C15.216 27.9483 13.3702 26.1286 13.3702 23.8932C13.3702 21.6563 15.216 19.837 17.4841 19.837C19.7535 19.837 21.5994 21.6563 21.5994 23.8932C21.5994 26.1286 19.7539 27.9483 17.4841 27.9483ZM32.2904 35.3822C30.6624 35.3822 29.3389 34.0784 29.3389 32.4752C29.3389 30.8718 30.6624 29.5679 32.2904 29.5679C33.9169 29.5679 35.24 30.8718 35.24 32.4749C35.24 34.0783 33.9169 35.3822 32.2904 35.3822Z" fill="#231F20"/>
</svg>
