<svg width="48" height="48" viewBox="0 0 48 48" fill="none" xmlns="http://www.w3.org/2000/svg">
<path d="M7.02909 13.4831L12.9757 3.17288L36.9225 3.1687L42.8379 13.5835L42.8452 34.4151L36.9246 44.8215L12.984 44.8299L6.96875 34.4151L7.02909 13.4831Z" fill="#4D4D4D"/>
<path d="M6.96848 34.412H17.7621L11.8331 23.9178L16.6541 13.4852L7.02882 13.4832L1 24.0025" fill="#EDEDED"/>
<path d="M21.0349 34.412H28.9229L35.8994 24.1979L29.0446 13.5835H19.7636L14.1738 23.8405L21.0349 34.412Z" fill="#E0E0E0"/>
<path d="M1 24.0015L6.96952 34.4153H17.7621L11.8987 24.0371L1 24.0015Z" fill="#ACACAC"/>
<path d="M14.2891 24.0036L21.0347 34.4163H28.9226L35.79 24.0078L14.2891 24.0036Z" fill="#9E9E9E"/>
<path d="M16.9609 24.0109L14.9239 24.6056L12.9712 24.0078L20.9475 10.12L22.9429 13.5857" fill="#00B8E3"/>
<path d="M22.9354 34.4131L20.9494 37.8955L15.6509 32.1609L12.9668 24.0119V24.0078H16.9597" fill="#33C6E9"/>
<path d="M12.9709 24.0078H12.9678V24.0109L10.9724 27.4828L8.96973 24.0266L11.0005 20.4877L16.9596 10.12H20.9483" fill="#008AAA"/>
<path d="M34.9205 34.4121H47L46.9927 13.5825H34.9194L34.9205 34.4121Z" fill="#D4D4D4"/>
<path d="M34.9204 24.037V34.4152H46.9781V24.037H34.9204Z" fill="#919191"/>
<path d="M20.9506 37.8986H16.9599L10.9727 27.4828L12.968 24.0119L20.9506 37.8986Z" fill="#00B8E3"/>
<path d="M36.9105 24.0078L28.9321 37.8966C28.1986 36.8138 26.9419 34.4152 26.9419 34.4152L32.927 24.0067L36.9105 24.0078Z" fill="#008AAA"/>
<path d="M32.9177 37.8966L28.9321 37.8956L36.9116 24.0078L38.906 20.5411L40.9045 24.0319M36.9116 24.0078H32.9281L26.9409 13.5847L28.9228 10.1211L33.7687 16.3104L36.9116 24.0078Z" fill="#00B8E3"/>
<path d="M38.9049 20.5368V20.54L36.9106 24.0077L28.9238 10.1221L32.9198 10.1242L38.9049 20.5368Z" fill="#33C6E9"/>
</svg>
