<svg width="48" height="48" viewBox="0 0 48 48" fill="none" xmlns="http://www.w3.org/2000/svg">
<path d="M13.9316 46.4505L13.3842 42.7611L9.70898 43.3107L10.3346 47.0001L13.9316 46.4505Z" fill="url(#paint0_linear_1233_124)"/>
<path d="M42.7076 36.0889L42.082 32.478L26.0518 34.9899L26.5209 38.6008L42.7076 36.0889Z" fill="url(#paint1_linear_1233_124)"/>
<path d="M20.812 39.5428L24.4872 38.9148L23.9399 35.3038L20.2646 35.8533L20.812 39.5428Z" fill="url(#paint2_linear_1233_124)"/>
<path d="M19.7178 45.5085L19.0922 41.8976L15.4951 42.4471L15.9643 46.1365L19.7178 45.5085Z" fill="url(#paint3_linear_1233_124)"/>
<path d="M8.84766 37.5802L9.39504 41.2697L13.0703 40.7202L12.5229 37.0308L8.84766 37.5802Z" fill="url(#paint4_linear_1233_124)"/>
<path d="M26.833 40.6416L27.4586 44.4096L43.567 41.8976L43.0197 38.2082L26.833 40.6416Z" fill="url(#paint5_linear_1233_124)"/>
<path d="M21.7496 45.1945L25.3466 44.7235L24.7993 40.9556L21.124 41.5836L21.7496 45.1945Z" fill="url(#paint6_linear_1233_124)"/>
<path d="M14.5566 36.7168L15.1821 40.4062L18.7792 39.8568L18.2318 36.1673L14.5566 36.7168Z" fill="url(#paint7_linear_1233_124)"/>
<path d="M10.0993 35.3038L5.6421 5.94537L4 6.18086L8.53539 35.5393L10.0993 35.3038Z" fill="url(#paint8_linear_1233_124)"/>
<path d="M12.211 34.9898L7.36276 3.43341L5.79883 3.74742L10.647 35.2253L12.211 34.9898Z" fill="url(#paint9_linear_1233_124)"/>
<path d="M15.8079 34.4403L10.7251 1L9.16113 1.31396L14.2439 34.5973L15.8079 34.4403Z" fill="url(#paint10_linear_1233_124)"/>
<path d="M17.9187 34.1262L13.227 3.66876L11.7412 3.90424L16.433 34.2831L17.9187 34.1262Z" fill="url(#paint11_linear_1233_124)"/>
<path d="M21.516 33.4984L17.3716 6.495L15.8076 6.73048L19.9521 33.8125L21.516 33.4984Z" fill="url(#paint12_linear_1233_124)"/>
<path d="M23.6274 33.1845L19.3266 5.16052L17.7627 5.39601L22.1417 33.42L23.6274 33.1845Z" fill="url(#paint13_linear_1233_124)"/>
<defs>
<linearGradient id="paint0_linear_1233_124" x1="13.6011" y1="56.3412" x2="4.95099" y2="0.346036" gradientUnits="userSpaceOnUse">
<stop stop-color="#FAED1E"/>
<stop offset="1" stop-color="#F15B2B"/>
</linearGradient>
<linearGradient id="paint1_linear_1233_124" x1="36.9658" y1="52.7318" x2="28.3158" y2="-3.26304" gradientUnits="userSpaceOnUse">
<stop stop-color="#FAED1E"/>
<stop offset="1" stop-color="#F15B2B"/>
</linearGradient>
<linearGradient id="paint2_linear_1233_124" x1="25.0253" y1="54.5763" x2="16.3752" y2="-1.41881" gradientUnits="userSpaceOnUse">
<stop stop-color="#FAED1E"/>
<stop offset="1" stop-color="#F15B2B"/>
</linearGradient>
<linearGradient id="paint3_linear_1233_124" x1="19.315" y1="55.4584" x2="10.6649" y2="-0.536696" gradientUnits="userSpaceOnUse">
<stop stop-color="#FAED1E"/>
<stop offset="1" stop-color="#F15B2B"/>
</linearGradient>
<linearGradient id="paint4_linear_1233_124" x1="13.5941" y1="56.3421" x2="4.94402" y2="0.346991" gradientUnits="userSpaceOnUse">
<stop stop-color="#FAED1E"/>
<stop offset="1" stop-color="#F15B2B"/>
</linearGradient>
<linearGradient id="paint5_linear_1233_124" x1="36.9709" y1="52.7308" x2="28.3208" y2="-3.26424" gradientUnits="userSpaceOnUse">
<stop stop-color="#FAED1E"/>
<stop offset="1" stop-color="#F15B2B"/>
</linearGradient>
<linearGradient id="paint6_linear_1233_124" x1="25.0244" y1="54.5762" x2="16.3742" y2="-1.41894" gradientUnits="userSpaceOnUse">
<stop stop-color="#FAED1E"/>
<stop offset="1" stop-color="#F15B2B"/>
</linearGradient>
<linearGradient id="paint7_linear_1233_124" x1="19.3151" y1="55.4583" x2="10.6652" y2="-0.536218" gradientUnits="userSpaceOnUse">
<stop stop-color="#FAED1E"/>
<stop offset="1" stop-color="#F15B2B"/>
</linearGradient>
<linearGradient id="paint8_linear_1233_124" x1="12.377" y1="55.4163" x2="4.17315" y2="2.31001" gradientUnits="userSpaceOnUse">
<stop stop-color="#FAED1E"/>
<stop offset="1" stop-color="#F15B2B"/>
</linearGradient>
<linearGradient id="paint9_linear_1233_124" x1="14.7273" y1="56.5611" x2="5.91924" y2="-0.456489" gradientUnits="userSpaceOnUse">
<stop stop-color="#FAED1E"/>
<stop offset="1" stop-color="#F15B2B"/>
</linearGradient>
<linearGradient id="paint10_linear_1233_124" x1="18.5358" y1="57.2976" x2="9.19677" y2="-3.15706" gradientUnits="userSpaceOnUse">
<stop stop-color="#FAED1E"/>
<stop offset="1" stop-color="#F15B2B"/>
</linearGradient>
<linearGradient id="paint11_linear_1233_124" x1="20.3466" y1="54.9598" x2="11.8324" y2="-0.155543" gradientUnits="userSpaceOnUse">
<stop stop-color="#FAED1E"/>
<stop offset="1" stop-color="#F15B2B"/>
</linearGradient>
<linearGradient id="paint12_linear_1233_124" x1="23.5654" y1="52.0895" x2="16.0021" y2="3.12927" gradientUnits="userSpaceOnUse">
<stop stop-color="#FAED1E"/>
<stop offset="1" stop-color="#F15B2B"/>
</linearGradient>
<linearGradient id="paint13_linear_1233_124" x1="25.8004" y1="52.4679" x2="17.9472" y2="1.63124" gradientUnits="userSpaceOnUse">
<stop stop-color="#FAED1E"/>
<stop offset="1" stop-color="#F15B2B"/>
</linearGradient>
</defs>
</svg>
