<svg width="48" height="49" viewBox="0 0 48 49" fill="none" xmlns="http://www.w3.org/2000/svg">
<g clip-path="url(#clip0_1233_63)">
<path d="M44.2131 36.9424C41.6014 36.8773 39.5773 37.1386 37.8797 37.8567C37.39 38.0525 36.6064 38.0527 36.5411 38.6728C36.8024 38.9342 36.835 39.3585 37.0635 39.7176C37.4555 40.3703 38.1408 41.252 38.7612 41.7091C39.4467 42.2314 40.1324 42.7536 40.8504 43.2107C42.1237 43.9943 43.5602 44.4513 44.8007 45.2348C45.5192 45.6916 46.237 46.2796 46.9553 46.7692C47.3145 47.0302 47.5429 47.4547 48 47.618V47.5201C47.7714 47.2262 47.7061 46.8018 47.4777 46.4753C47.1515 46.1489 46.8248 45.855 46.4984 45.5285C45.5515 44.2555 44.3764 43.1454 43.1031 42.2314C42.0586 41.5131 39.7731 40.5337 39.3488 39.3258C39.3488 39.3258 39.316 39.2932 39.2834 39.2606C40.0017 39.1953 40.8504 38.9342 41.5361 38.7382C42.6462 38.4443 43.6581 38.5096 44.8007 38.2159C45.323 38.0853 45.8454 37.922 46.3677 37.7588V37.4651C45.7803 36.8773 45.3557 36.0939 44.7354 35.5389C43.0705 34.1022 41.2422 32.6986 39.3488 31.5234C38.3366 30.8705 37.0308 30.446 35.9535 29.8911C35.5619 29.6949 34.9088 29.5972 34.6804 29.2708C34.0926 28.5525 33.7662 27.6059 33.3418 26.757C32.3954 24.9612 31.4809 22.9701 30.6648 21.0767C30.0774 19.8034 29.7182 18.5301 28.9999 17.3549C25.6374 11.8051 21.981 8.44257 16.3658 5.14519C15.1579 4.4597 13.7216 4.1658 12.1871 3.80678C11.3712 3.77401 10.5548 3.70888 9.73867 3.67611C9.21642 3.44754 8.69395 2.82739 8.23682 2.53349C6.37637 1.35811 1.57713 -1.18805 0.205953 2.17447C-0.675535 4.29648 1.5118 6.3857 2.26261 7.46318C2.81784 8.214 3.53589 9.06272 3.92769 9.91165C4.15626 10.4663 4.22138 11.0543 4.44995 11.6419C4.97241 13.078 5.46189 14.6779 6.14759 16.0165C6.50682 16.702 6.89841 17.4203 7.35554 18.0404C7.61666 18.3994 8.07359 18.5629 8.17169 19.1505C7.71477 19.8034 7.682 20.7828 7.42066 21.5989C6.24548 25.2879 6.70261 29.8584 8.36748 32.568C8.88974 33.3839 10.1305 35.1799 11.7953 34.4942C13.2644 33.9066 12.938 32.0457 13.3623 30.4134C13.4604 30.0214 13.3951 29.7605 13.5909 29.4993C13.591 29.5319 13.5909 29.5647 13.5909 29.5647C14.048 30.4787 14.5049 31.3602 14.9293 32.2743C15.9414 33.8738 17.7042 35.5389 19.1733 36.6489C19.9571 37.2363 20.5772 38.2485 21.5566 38.6077V38.5096H21.4913C21.2953 38.2157 21.0016 38.0852 20.7405 37.8567C20.1529 37.2691 19.4997 36.5508 19.0428 35.8979C17.6718 34.0696 16.4637 32.0457 15.3864 29.9563C14.8642 28.9443 14.407 27.8343 13.9827 26.8223C13.7867 26.4303 13.7867 25.8429 13.4602 25.6471C12.9705 26.3652 12.2525 26.9856 11.8932 27.867C11.2733 29.2708 11.2077 31.001 10.9792 32.7965C10.8487 32.8293 10.9138 32.7965 10.8485 32.8619C9.804 32.6005 9.44477 31.5234 9.05297 30.6092C8.07358 28.2914 7.91035 24.5696 8.75928 21.8928C8.98784 21.2071 9.96723 19.0526 9.57543 18.3997C9.37963 17.7793 8.7265 17.4203 8.36748 16.9306C7.94312 16.3102 7.48599 15.5268 7.1923 14.8411C6.40871 13.013 6.01692 10.9889 5.1682 9.16062C4.77641 8.3117 4.09092 7.43042 3.53589 6.64703C2.91574 5.76555 2.23005 5.14519 1.74035 4.10046C1.57732 3.74144 1.34855 3.15385 1.60968 2.76205C1.67502 2.50093 1.80548 2.40303 2.06681 2.33769C2.49117 1.97846 3.69912 2.43559 4.12347 2.63139C5.33142 3.12087 6.34337 3.57821 7.35552 4.26369C7.81244 4.59016 8.30213 5.21052 8.88972 5.37375H9.57542C10.6201 5.60211 11.7953 5.43908 12.7747 5.73277C14.5051 6.28759 16.0719 7.10395 17.4758 7.98544C21.7526 10.695 25.2781 14.5474 27.6615 19.1505C28.0533 19.9011 28.2163 20.587 28.5755 21.3704C29.2612 22.9701 30.1099 24.6024 30.7954 26.1694C31.4809 27.7036 32.1338 29.2708 33.1132 30.5441C33.6031 31.2294 35.5617 31.5886 36.4432 31.9478C37.0961 32.2415 38.1082 32.5028 38.6958 32.8619C39.8057 33.5471 40.9157 34.3309 41.9605 35.0818C42.4829 35.4734 44.115 36.2897 44.2131 36.9424Z" fill="#00546B"/>
<path d="M10.9136 8.57288C10.3586 8.57288 9.96699 8.63842 9.5752 8.73632C9.5752 8.73632 9.5752 8.76909 9.5752 8.80165H9.64053C9.90187 9.32391 10.3586 9.68314 10.685 10.1401C10.9464 10.6623 11.1747 11.1848 11.4361 11.7072C11.4686 11.6745 11.5012 11.6419 11.5012 11.6419C11.9585 11.3152 12.1869 10.793 12.1869 10.0096C11.9909 9.78103 11.9583 9.55247 11.7951 9.3239C11.5993 8.99723 11.1747 8.83421 10.9136 8.57288Z" fill="#00546B"/>
</g>
<defs>
<clipPath id="clip0_1233_63">
<rect width="48" height="48" fill="white" transform="translate(0 0.5)"/>
</clipPath>
</defs>
</svg>
