<svg width="49" height="48" viewBox="0 0 49 48" fill="none" xmlns="http://www.w3.org/2000/svg">
<path d="M24.5468 5.39049e-07C37.7109 0.00277527 48.5169 10.8198 48.5 23.9816C48.4831 37.3411 37.7216 48.0095 24.2719 48C11.1219 47.9909 0.490569 37.1615 0.500006 23.7861C0.508657 10.7069 11.3366 -0.00277419 24.5468 5.39049e-07ZM17.2705 8.42328C17.5717 9.92044 17.2799 11.3169 16.8328 12.6904C16.5241 13.6413 16.0971 14.5578 15.8419 15.5226C15.4211 17.1113 14.9453 18.7092 14.7699 20.3332C14.5183 22.6699 15.429 24.7276 16.9877 26.7745L9.8223 25.2544C9.83449 25.4819 9.8223 25.5683 9.84668 25.6412C10.5258 27.6525 11.7208 29.3467 13.0602 30.9445C13.2017 31.1134 13.5242 31.1998 13.764 31.1998C20.9078 31.2141 28.052 31.2125 35.1962 31.203C35.4176 31.203 35.7141 31.1614 35.849 31.0175C37.3806 29.3947 38.5509 27.5459 39.2839 25.2183L31.6985 26.7159C32.1994 25.7265 32.7692 24.8576 33.0984 23.9023C34.221 20.6352 33.7554 17.4768 32.144 14.4975C30.8507 12.1069 29.6572 9.727 30.3025 6.84525C28.9368 8.20645 28.4115 9.93709 28.0784 11.7208C27.7512 13.4784 27.5574 15.2606 27.3037 17.0444C27.2672 16.9904 27.2211 16.95 27.2133 16.9036C27.1812 16.7171 27.1592 16.5289 27.1472 16.34C26.9923 13.4198 26.4268 10.6062 25.2322 7.91828C24.5299 6.33747 23.7544 4.71941 24.4792 2.83181C23.9892 3.09342 23.5452 3.35227 23.2275 3.7221C22.2798 4.82604 21.8878 6.15197 21.7867 7.60394C21.7002 8.84464 21.5822 10.0909 21.3534 11.311C21.1135 12.5929 20.7344 13.8487 19.8788 15.0271C19.5347 12.5108 19.4961 10.0207 17.2705 8.42328ZM35.6909 33.4049H13.2831V37.3284H35.6909V33.4049ZM17.7266 39.3571C17.7085 42.6242 21.0093 45.058 25.0891 44.8816C28.4716 44.7345 31.4637 42.0526 31.2073 39.3571H17.7266Z" fill="#E75225"/>
</svg>
