<svg width="48" height="48" viewBox="0 0 48 48" fill="none" xmlns="http://www.w3.org/2000/svg">
<path d="M44.9329 27.9842C44.6717 27.2715 43.9874 26.7751 43.1025 26.656C42.6852 26.5999 42.2073 26.6238 41.6418 26.7288C40.6561 26.912 39.9249 26.9818 39.3912 26.9953C41.4056 23.9317 43.0436 20.4382 43.9865 17.1496C45.5113 11.832 44.6965 9.40956 43.7444 8.31383C41.2245 5.41353 37.5481 3.85547 33.1129 3.80779C30.7469 3.78174 28.6699 4.20252 27.5864 4.50512C26.5775 4.34478 25.4928 4.25526 24.3547 4.2387C22.2211 4.20804 20.3361 4.62699 18.7253 5.48803C17.8336 5.2164 16.4024 4.83347 14.7496 4.58913C10.8623 4.01428 7.72934 4.4622 5.43771 5.92047C2.66277 7.68609 1.37638 10.7538 1.61429 15.0383C1.68985 16.3986 2.53462 20.5375 3.86474 24.4627C4.62919 26.7189 5.44435 28.5924 6.28758 30.0318C7.48343 32.0729 8.76301 33.2749 10.1995 33.7066C11.0046 33.9481 12.4675 34.1174 14.0061 32.9631C14.2011 33.1759 14.4613 33.3872 14.8066 33.5836C15.2451 33.8327 15.7814 34.0363 16.3169 34.1569C18.2469 34.5915 20.0547 34.4828 21.5971 33.8736C21.6066 34.1208 21.6139 34.3568 21.6201 34.5607C21.6303 34.8914 21.6405 35.2156 21.6539 35.5188C21.7453 37.5689 21.9002 39.163 22.359 40.2784C22.3842 40.3397 22.418 40.4332 22.4538 40.5324C22.6827 41.1636 23.0654 42.2204 24.0392 43.048C25.0475 43.9054 26.2671 44.1683 27.3842 44.1683C27.9444 44.1683 28.479 44.1021 28.9478 44.0116C30.619 43.689 32.517 43.1975 33.89 41.4365C35.1881 39.7717 35.8191 37.2643 35.9333 33.3135C35.9481 33.2018 35.9617 33.0951 35.9748 32.9934L36.0021 32.7847L36.3079 32.8089L36.3867 32.8136C38.0888 32.8835 40.1701 32.5584 41.4483 32.0236C42.4583 31.6014 45.695 30.0622 44.9329 27.9842Z" fill="black"/>
<path d="M42.009 28.3929C36.9478 29.3334 36.5998 27.7899 36.5998 27.7899C41.9434 20.6475 44.1774 11.5814 42.2498 9.36245C36.9905 3.3097 27.8868 6.17228 27.7348 6.24647L27.686 6.25444C26.686 6.06743 25.5671 5.95614 24.3093 5.93759C22.0194 5.90386 20.2822 6.4784 18.964 7.37884C18.964 7.37884 2.72375 1.3523 3.47917 14.9582C3.63982 17.8527 8.08491 36.8596 13.3867 31.1186C15.3245 29.0193 17.197 27.2443 17.197 27.2443C18.1268 27.8008 19.2402 28.0847 20.4072 27.9827L20.498 27.9134C20.4697 28.174 20.4826 28.429 20.5342 28.7308C19.1683 30.1054 19.5698 30.3467 16.8394 30.853C14.0766 31.3659 15.6996 32.2789 16.7593 32.5177C18.044 32.807 21.016 33.2169 23.0241 30.6847L22.9441 30.9736C23.4792 31.3598 23.8549 33.485 23.7919 35.4117C23.729 37.3383 23.6869 38.6611 24.1085 39.6943C24.5304 40.7275 24.9505 43.0521 28.5399 42.3594C31.539 41.7804 33.0933 40.2802 33.3096 37.7775C33.4629 35.9984 33.8102 36.2614 33.832 34.6707L34.1106 33.9178C34.4317 31.506 34.1616 30.7279 36.0093 31.0898L36.4586 31.1254C37.8183 31.181 39.5984 30.9282 40.6431 30.4909C42.8925 29.5506 44.2267 27.9804 42.0086 28.3929H42.009Z" fill="#336791"/>
<path d="M19.9254 16.2524C19.4693 16.1953 19.0563 16.2481 18.8473 16.3907C18.7299 16.4709 18.6934 16.5638 18.6836 16.6277C18.6574 16.7971 18.7891 16.9844 18.8701 17.081C19.0991 17.3545 19.4337 17.5424 19.7649 17.5838C19.8129 17.5899 19.8607 17.5927 19.9082 17.5927C20.4604 17.5927 20.9626 17.2053 21.0069 16.9194C21.0622 16.5613 20.4851 16.3225 19.9254 16.2524ZM35.0346 16.2638C34.991 15.9831 34.4366 15.9031 33.9104 15.969C33.3848 16.0349 32.8753 16.2486 32.9179 16.5299C32.9519 16.7486 33.3905 17.1221 33.9095 17.1221C33.9534 17.1221 33.9977 17.1195 34.0423 17.1138C34.3887 17.0706 34.643 16.8724 34.7638 16.7582C34.9476 16.584 35.0541 16.3899 35.0346 16.2638Z" fill="white"/>
<path d="M43.7154 28.2783C43.5224 27.7526 42.9012 27.5835 41.8693 27.7755C38.8052 28.3451 37.7079 27.9505 37.3476 27.7115C39.7293 24.4433 41.6885 20.4927 42.7455 16.8068C43.2462 15.0608 43.5227 13.4392 43.5454 12.1175C43.5704 10.6669 43.2961 9.60095 42.7304 8.94976C40.4496 6.32463 37.1022 4.91648 33.0502 4.87785C30.2646 4.84965 27.911 5.49179 27.4548 5.67237C26.4939 5.45715 25.4465 5.32501 24.3061 5.30815C22.2149 5.27764 20.4073 5.72863 18.9107 6.64792C18.2606 6.42994 16.5806 5.91043 14.5261 5.61228C10.9741 5.09722 8.15148 5.4875 6.13724 6.77286C3.7338 8.3067 2.62423 11.0485 2.83916 14.9219C2.91149 16.225 3.73584 20.2339 5.03669 24.0731C6.74903 29.1263 8.61046 31.9869 10.5689 32.5753C10.7981 32.6442 11.0624 32.6923 11.3539 32.6923C12.0683 32.6923 12.9442 32.4023 13.8556 31.4154C14.9671 30.2143 16.1169 29.0423 17.3036 27.901C18.0734 28.2732 18.9192 28.4811 19.7843 28.5019C19.786 28.5223 19.7882 28.5427 19.7902 28.5629C19.6413 28.7229 19.4955 28.8851 19.3529 29.0496C18.7535 29.735 18.6287 29.8777 16.6994 30.2355C16.1506 30.3376 14.693 30.6081 14.6716 31.5285C14.6484 32.5341 16.3946 32.9564 16.5936 33.0012C17.2869 33.1576 17.9548 33.2347 18.5918 33.2347C20.141 33.2347 21.5043 32.776 22.5937 31.8886C22.5602 35.4735 22.7261 39.006 23.204 40.0822C23.5954 40.9634 24.5515 43.1167 27.5715 43.1165C28.0146 43.1165 28.5024 43.0701 29.0389 42.9664C32.1908 42.3579 33.5596 41.103 34.089 38.3365C34.3724 36.858 34.8586 33.3276 35.0873 31.4338C35.5699 31.5694 36.1912 31.6315 36.8629 31.6314C38.2639 31.6314 39.8804 31.3633 40.8941 30.9394C42.033 30.463 44.0881 29.294 43.7154 28.2783ZM36.2095 15.4814C36.1991 16.0405 36.1136 16.548 36.0231 17.0778C35.9256 17.6476 35.8248 18.2367 35.7995 18.9518C35.7745 19.6477 35.871 20.3713 35.9642 21.0711C36.1528 22.4844 36.3463 23.9395 35.5973 25.3752C35.4729 25.1766 35.3621 24.9714 35.2655 24.7607C35.1724 24.5574 34.9702 24.2309 34.6903 23.779C33.6013 22.0198 31.0511 17.9002 32.3566 16.2192C32.7455 15.7188 33.7323 15.2044 36.2095 15.4814ZM33.2068 6.00992C36.8374 6.08212 39.7094 7.30555 41.7427 9.64602C43.3022 11.4412 41.5849 19.6097 36.6135 26.6567C36.5635 26.5995 36.5132 26.5424 36.4627 26.4855L36.3997 26.4147C37.6844 24.5036 37.4332 22.6127 37.2096 20.9363C37.1177 20.2483 37.0309 19.5985 37.053 18.9881C37.0758 18.3412 37.1708 17.7863 37.2627 17.2498C37.3755 16.5886 37.4904 15.9045 37.4587 15.098C37.4824 15.0134 37.4919 14.9135 37.4795 14.7948C37.3987 14.0214 36.4184 11.7069 34.4205 9.61198C33.3276 8.46612 31.7339 7.18383 29.5578 6.31896C30.4938 6.1442 31.7737 5.98125 33.2068 6.00992ZM12.8911 30.6931C11.8871 31.7805 11.1938 31.572 10.9657 31.5037C9.48007 31.0573 7.75616 28.2287 6.23628 23.7434C4.92114 19.8623 4.15261 15.9597 4.09168 14.8653C3.89972 11.4043 4.83111 8.99222 6.86016 7.69598C10.1623 5.58668 15.5914 6.84919 17.7729 7.4895C17.7416 7.5174 17.7089 7.54346 17.6779 7.57182C14.0981 10.8284 14.183 16.3923 14.1918 16.7324C14.1915 16.8636 14.2037 17.0494 14.2204 17.305C14.282 18.2408 14.3967 19.9825 14.0904 21.9549C13.8059 23.7879 14.4331 25.5818 15.8111 26.877C15.9525 27.0097 16.1011 27.1359 16.2564 27.2553C15.6431 27.847 14.3101 29.1555 12.8911 30.6931ZM16.7166 26.0954C15.606 25.0514 15.1016 23.5995 15.3325 22.1113C15.6559 20.0277 15.5366 18.2131 15.4724 17.2381C15.4634 17.1017 15.4554 16.9821 15.4508 16.8879C15.9738 16.4701 18.3973 15.3005 20.1256 15.6572C20.9142 15.8199 21.3948 16.3037 21.5946 17.1357C22.6286 21.4437 21.7315 23.2392 21.0106 24.6822C20.862 24.9794 20.7216 25.2604 20.6018 25.551L20.5089 25.7758C20.2737 26.3439 20.0548 26.8721 19.9192 27.3737C18.7385 27.3706 17.59 26.9162 16.7166 26.0952V26.0954ZM16.8978 31.9052C16.5531 31.8276 16.243 31.6928 16.0611 31.5811C16.213 31.5167 16.4835 31.429 16.9525 31.342C19.2222 30.9212 19.5727 30.6241 20.3382 29.7486C20.5136 29.5478 20.7126 29.3203 20.9881 29.0432L20.9884 29.0429C21.3987 28.629 21.5865 28.6992 21.9268 28.8264C22.2027 28.9291 22.4714 29.2406 22.5803 29.5834C22.6319 29.7453 22.6897 30.0525 22.5003 30.2916C20.9013 32.3083 18.5712 32.2824 16.8978 31.9052ZM28.7762 41.8618C25.9995 42.3977 25.0164 41.1216 24.3685 39.6627C23.9504 38.7208 23.7448 34.4737 23.8907 29.7834C23.8926 29.721 23.8827 29.6608 23.8636 29.6041C23.8466 29.4921 23.8206 29.3813 23.786 29.2727C23.5692 28.5902 23.0408 28.0193 22.4069 27.7827C22.155 27.6887 21.6928 27.5162 21.1374 27.6442C21.2558 27.2046 21.4612 26.7081 21.684 26.1705L21.7774 25.9444C21.8826 25.6894 22.0146 25.4253 22.1542 25.1457C22.9086 23.6361 23.9417 21.5683 22.8204 16.8971C22.4004 15.1474 20.9978 14.2929 18.8716 14.4914C17.5969 14.6102 16.4307 15.0735 15.849 15.3391C15.724 15.3962 15.6096 15.4514 15.5027 15.505C15.6651 13.7421 16.2784 10.4476 18.5728 8.36311C20.0174 7.05093 21.9413 6.40281 24.2853 6.43776C28.904 6.50582 31.8658 8.64088 33.5373 10.4201C34.9777 11.9532 35.7576 13.4976 36.0689 14.3306C33.7281 14.1162 32.136 14.5324 31.3291 15.5717C29.5733 17.8324 32.2895 22.2203 33.595 24.3291C33.8344 24.7156 34.041 25.0496 34.106 25.1916C34.5311 26.1196 35.0815 26.7392 35.4833 27.1914C35.6065 27.33 35.726 27.4644 35.8169 27.5818C35.1079 27.7659 33.8344 28.1913 33.9505 30.3177C33.8569 31.3846 33.1913 36.3798 32.8532 38.1446C32.4068 40.4762 31.4543 41.3446 28.7762 41.862V41.8618ZM40.3661 29.9148C39.6411 30.2179 38.4279 30.4452 37.2755 30.4941C36.0025 30.5477 35.3545 30.3656 35.202 30.2536C35.1305 28.9285 35.678 28.7901 36.2574 28.6435C36.3485 28.6206 36.4373 28.598 36.5231 28.571C36.5764 28.6101 36.6347 28.6489 36.6987 28.6869C37.7218 29.2952 39.5467 29.3608 42.123 28.8818L42.1513 28.8767C41.8038 29.1693 41.2092 29.5621 40.3661 29.9148Z" fill="white"/>
</svg>
