<svg width="49" height="48" viewBox="0 0 49 48" fill="none" xmlns="http://www.w3.org/2000/svg">
<path d="M48.9741 17.85H37.2421C34.0701 11.768 30.7181 7.04596 26.1541 7.04596C20.2141 7.04596 17.4201 12.232 14.7201 17.276L14.4841 17.716H0.974121V20.716H8.84212C11.6221 20.716 12.1881 21.652 12.1881 21.652C10.0081 25.034 7.38812 28.378 3.02012 28.378H0.974121V31.526H3.03412C11.5021 31.526 15.2001 24.658 18.1681 19.14C20.8901 14.058 22.7881 10.98 26.1541 10.98C29.6481 10.98 33.3221 18.582 36.5561 25.294C37.0301 26.27 37.5101 27.27 37.9961 28.26C25.5961 28.654 19.6861 31.558 14.8781 33.926C11.3601 35.658 8.58412 37.806 4.01212 37.806H0.974121V40.954H3.98812C9.49612 40.954 12.9281 39.254 16.5781 37.452C21.6381 34.966 27.3741 32.148 40.8921 32.148H48.7061V29H44.2941C43.9314 29.0276 43.5673 28.9711 43.23 28.8347C42.8928 28.6984 42.5917 28.4859 42.3501 28.214C41.5666 26.6805 40.8112 25.1329 40.0841 23.572L39.0621 21.478C39.0621 21.478 39.7941 20.692 41.8221 20.692H48.9741V17.85Z" fill="#3F8DF7"/>
</svg>
