<?xml version="1.0" encoding="UTF-8" standalone="no"?>
<svg
   version="1.1"
   width="544"
   height="182"
   id="svg1326"
   viewBox="0 0 544 182"
   sodipodi:docname="keydb.svg"
   inkscape:version="1.1.1 (3bf5ae0d25, 2021-09-20)"
   xmlns:inkscape="http://www.inkscape.org/namespaces/inkscape"
   xmlns:sodipodi="http://sodipodi.sourceforge.net/DTD/sodipodi-0.dtd"
   xmlns="http://www.w3.org/2000/svg"
   xmlns:svg="http://www.w3.org/2000/svg">
  <defs
     id="defs1330" />
  <sodipodi:namedview
     id="namedview1328"
     pagecolor="#ffffff"
     bordercolor="#666666"
     borderopacity="1.0"
     inkscape:pageshadow="2"
     inkscape:pageopacity="0.00784314"
     inkscape:pagecheckerboard="true"
     showgrid="false"
     inkscape:zoom="1.5064209"
     inkscape:cx="374.06544"
     inkscape:cy="123.80338"
     inkscape:window-width="1536"
     inkscape:window-height="889"
     inkscape:window-x="-8"
     inkscape:window-y="-8"
     inkscape:window-maximized="1"
     inkscape:current-layer="svg1326"
     width="791px" />
  <path
     d="M 78.589334,169.85617 12.63903,131.77977 c -1.0281,-0.591 -1.6035,-1.6659 -1.6046,-2.7722 h -0.0134 V 52.833267 c 0,-1.2966 0.7688,-2.4135 1.8749,-2.9206 l 65.739904,-37.9545 c 1.0386,-0.5966 2.2717,-0.5456 3.2321,0.0264 l 65.951096,38.0761 c 1.0282,0.591 1.6042,1.6659 1.6047,2.7726 h 0.0134 v 76.174303 c 0,1.2962 -0.7685,2.4137 -1.8743,2.9202 l -65.740496,37.9554 c -1.0389,0.5964 -2.2717,0.5453 -3.233,-0.027 z M 17.44353,127.16987 v 0 l 62.785704,36.2488 62.785996,-36.2488 V 54.671267 l -62.785996,-36.2489 -62.785704,36.2489 z"
     style="fill:#ffffff;fill-rule:evenodd"
     id="path1290" />
  <path
     d="M 80.229234,14.730167 14.23273,129.00757 h 131.9933 z"
     style="opacity:0.88;fill:#ffff00;fill-opacity:1;fill-rule:evenodd"
     id="path1292" />
  <path
     d="M 80.229234,21.136467 19.78603,125.79677 h 120.8861 z M 11.45983,127.40197 v 0 L 77.433934,13.163767 c 0.2713,-0.4856 0.6733,-0.9068 1.1895,-1.2056 1.531,-0.8864 3.4908,-0.3645 4.3778,1.1671 L 148.88863,127.21177 c 0.3464,0.5125 0.5485,1.1308 0.5485,1.7958 0,1.7733 -1.4378,3.2111 -3.2108,3.2111 H 14.23213 v -0.007 c -0.5459,5e-4 -1.099,-0.1386 -1.6052,-0.4318 -1.531,-0.8863 -2.0537,-2.8465 -1.1671,-4.3778 z"
     style="fill:#ffffff;fill-rule:evenodd"
     id="path1294" />
  <path
     d="m 12.63903,55.605567 c -1.5309,-0.8799 -2.059,-2.8347 -1.1792,-4.3657 0.8802,-1.531 2.8347,-2.0591 4.3657,-1.1792 L 80.229234,87.229065 144.63323,50.060667 c 1.531,-0.8799 3.4855,-0.3518 4.3651,1.1792 0.8796,1.531 0.3517,3.4858 -1.1793,4.3657 L 81.867334,93.666065 c -0.9603,0.5723 -2.1931,0.6227 -3.2315,0.026 z"
     style="opacity:1;fill:#ffffff;fill-rule:evenodd"
     id="path1296" />
  <path
     d="m 83.440034,167.11087 c 0,1.773 -1.4377,3.2111 -3.2108,3.2111 -1.7736,0 -3.2114,-1.4381 -3.2114,-3.2111 V 90.920065 c 0,-1.773 1.4378,-3.2111 3.2114,-3.2111 1.7731,0 3.2108,1.4381 3.2108,3.2111 z"
     style="fill:#ffffff;fill-rule:evenodd"
     id="path1298" />
  <path
     d="m 146.22633,137.25697 c 4.5555,0 8.2491,-3.693 8.2491,-8.2494 0,-4.5564 -3.6936,-8.2491 -8.2491,-8.2491 -4.5564,0 -8.2503,3.6927 -8.2503,8.2491 0,4.5564 3.6939,8.2494 8.2503,8.2494 z"
     style="fill:#ffffff;fill-rule:evenodd"
     id="path1300" />
  <path
     d="m 146.22633,61.082867 c 4.5555,0 8.2491,-3.6938 8.2491,-8.2496 0,-4.5562 -3.6936,-8.2494 -8.2491,-8.2494 -4.5564,0 -8.2503,3.6932 -8.2503,8.2494 0,4.5558 3.6939,8.2496 8.2503,8.2496 z"
     style="fill:#ffffff;fill-rule:evenodd"
     id="path1302" />
  <path
     d="m 14.23213,61.082867 c 4.5561,0 8.25,-3.6938 8.25,-8.2496 0,-4.5562 -3.6939,-8.2494 -8.25,-8.2494 -4.5555003,0 -8.2494003,3.6932 -8.2494003,8.2494 0,4.5558 3.6939,8.2496 8.2494003,8.2496 z"
     style="fill:#ffffff;fill-rule:evenodd"
     id="path1304" />
  <path
     d="m 14.23213,137.25697 c 4.5561,0 8.25,-3.693 8.25,-8.2494 0,-4.5564 -3.6939,-8.2491 -8.25,-8.2491 -4.5555003,0 -8.2494003,3.6927 -8.2494003,8.2491 0,4.5564 3.6939,8.2494 8.2494003,8.2494 z"
     style="fill:#ffffff;fill-rule:evenodd"
     id="path1306" />
  <path
     d="m 80.229234,175.36027 c 4.5558,0 8.2497,-3.6933 8.2497,-8.2494 0,-4.5562 -3.6939,-8.2494 -8.2497,-8.2494 -4.5564,0 -8.2497,3.6932 -8.2497,8.2494 0,4.5561 3.6933,8.2494 8.2497,8.2494 z"
     style="fill:#ffffff;fill-rule:evenodd"
     id="path1308" />
  <path
     d="m 80.229234,99.170065 c 4.5558,0 8.2497,-3.6938 8.2497,-8.25 0,-4.5561 -3.6939,-8.2494 -8.2497,-8.2494 -4.5564,0 -8.2497,3.6933 -8.2497,8.2494 0,4.5562 3.6933,8.25 8.2497,8.25 z"
     style="fill:#ffffff;fill-rule:evenodd"
     id="path1310" />
  <path
     d="m 80.229234,22.979567 c 4.5558,0 8.2497,-3.6932 8.2497,-8.2494 0,-4.5561 -3.6939,-8.2492996 -8.2497,-8.2492996 -4.5564,0 -8.2497,3.6931996 -8.2497,8.2492996 0,4.5562 3.6933,8.2494 8.2497,8.2494 z"
     style="fill:#ffffff;fill-rule:evenodd"
     id="path1312" />
  <path
     id="text1316"
     style="fill:#ffff00"
     d="m 397.08112,50.098811 v 85.474619 h 27.19336 c 10.65267,0 18.92253,-1.54948 24.81055,-4.64844 5.92676,-3.09896 10.73014,-7.90235 14.41015,-14.41016 3.71875,-6.50781 5.57813,-14.04264 5.57813,-22.603515 0,-9.91667 -2.34408,-18.45866 -7.03125,-25.625004 -4.64844,-7.166342 -11.11654,-12.202149 -19.40625,-15.107422 -5.77181,-2.05306 -15.04883,-3.080078 -27.83203,-3.080078 z m 81.17969,0 v 85.472659 h 23.47461 c 8.44466,0 15.16504,-2.36198 20.16211,-7.08789 5.0358,-4.76465 7.55273,-10.57519 7.55273,-17.43164 0,-3.37012 -0.67741,-6.48893 -2.0332,-9.35547 -1.31706,-2.905275 -3.17643,-5.364585 -5.57813,-7.378905 -2.40169,-2.05306 -5.8304,-3.83497 -10.28515,-5.34571 3.60254,-1.93685 6.33398,-4.45573 8.19336,-7.55469 1.85937,-3.13769 2.78906,-6.60416 2.78906,-10.40039 0,-4.067378 -1.06478,-7.766272 -3.19531,-11.097652 -2.0918,-3.33138 -4.95834,-5.79069 -8.59961,-7.378906 -3.64128,-1.626953 -8.85189,-2.441406 -15.63086,-2.441406 z m -72.98633,8.310546 h 6.04297 c 12.27962,0 21.0918,0.8125 26.4375,2.439454 7.1276,2.16927 12.68587,6.17806 16.67578,12.027344 3.98991,5.84928 5.98438,12.89941 5.98438,21.15039 0,7.863615 -1.83952,14.526375 -5.51954,19.988285 -3.68001,5.42318 -8.73567,9.18164 -15.16601,11.27344 -4.57096,1.472 -12.76335,2.20703 -24.57813,2.20703 h -9.87695 z m 81.35352,0.05664 h 9.87695 c 5.96549,0 10.30404,1.124349 13.01562,3.371094 2.75033,2.208008 4.125,5.267252 4.125,9.179683 0,2.90528 -0.8125,5.55925 -2.43945,7.96094 -1.62695,2.36296 -3.83594,4.10515 -6.625,5.22852 -2.78906,1.08463 -7.14551,1.62695 -13.07226,1.62695 H 486.628 Z m 0,35.966797 h 4.82226 c 7.20508,0 12.26074,0.34961 15.16602,1.04687 4.33854,1.0459 7.74739,2.98275 10.22656,5.810556 2.47917,2.8278 3.71875,6.13932 3.71875,9.93555 0,3.02148 -0.89193,5.8304 -2.67383,8.42578 -1.74316,2.59538 -4.06738,4.51237 -6.97265,5.75195 -2.90528,1.20085 -7.47624,1.80078 -13.71289,1.80078 H 486.628 Z" />
  <g
     aria-label="Key"
     id="text1324"
     transform="translate(-41.157156,-30.535955)">
    <path
       id="path92202"
       style="font-size:119px;font-family:'Century Gothic';fill:#ffffff"
       d="m 361.6684,101.99117 h 8.59961 l 21.73144,48.69238 21.09229,-48.69238 h 8.65771 L 384.039,188.33589 h -8.59961 l 12.20215,-27.89062 z m -17.31543,42.24267 6.85644,3.60254 q -3.37012,6.62402 -7.78613,10.69141 -4.41602,4.06738 -9.93604,6.21728 -5.52002,2.0918 -12.49267,2.0918 -15.45606,0 -24.17188,-10.11035 -8.71582,-10.16846 -8.71582,-22.95166 0,-12.02784 7.3794,-21.44092 9.35498,-11.96973 25.04345,-11.96973 16.15332,0 25.79883,12.26026 6.85645,8.65771 6.97266,21.61523 h -56.82715 q 0.23242,11.04004 7.03076,18.12891 6.79834,7.03076 16.79248,7.03076 4.82276,0 9.35498,-1.68506 4.59033,-1.68506 7.78614,-4.47412 3.1958,-2.78906 6.91455,-9.00635 z m 0,-17.0249 q -1.62696,-6.50781 -4.76465,-10.40088 -3.07959,-3.89307 -8.19287,-6.27539 -5.11328,-2.38233 -10.74951,-2.38233 -9.29688,0 -15.97901,5.98487 -4.88086,4.35791 -7.37939,13.07373 z M 222.15717,79.736771 h 8.71582 V 111.81099 L 264.9809,79.736771 h 11.56298 l -41.08056,38.349609 44.27637,47.12354 h -11.33057 l -37.53613,-39.86036 v 39.86036 h -8.71582 z" />
  </g>
</svg>
