<svg width="86" height="86" viewBox="0 0 86 86" fill="none" xmlns="http://www.w3.org/2000/svg">
<g filter="url(#filter0_d_527_16248)">
<rect x="15" y="6.62695" width="52" height="52" rx="4" transform="rotate(-4 15 6.62695)" fill="white"/>
<rect x="15.5337" y="7.09086" width="51" height="51" rx="3.5" transform="rotate(-4 15.5337 7.09086)" stroke="#F7F7F7"/>
<path d="M48.0752 28.3745C48.0827 28.374 48.0901 28.3734 48.0976 28.3729C50.5768 28.1995 52.7272 30.0688 52.9005 32.548C53.0739 35.0273 51.2046 37.1776 48.7254 37.351L38.251 38.0834C35.4963 38.2761 33.107 36.1991 32.9144 33.4444C32.733 30.8511 34.5631 28.5816 37.0766 28.1639M48.0752 28.3745C48.0785 28.2092 48.0745 28.0423 48.0627 27.8741C47.8508 24.844 45.2226 22.5593 42.1924 22.7712C39.3227 22.9719 37.1216 25.3398 37.0766 28.1639M48.0752 28.3745C48.0524 29.5133 47.6789 30.5771 47.0527 31.4533M37.0766 28.1639C37.233 28.1379 37.392 28.1191 37.5534 28.1078C38.6765 28.0293 39.7388 28.328 40.6163 28.896" stroke="#066086" stroke-width="1.5" stroke-linecap="round" stroke-linejoin="round"/>
</g>
<defs>
<filter id="filter0_d_527_16248" x="0" y="0" width="85.501" height="85.5" filterUnits="userSpaceOnUse" color-interpolation-filters="sRGB">
<feFlood flood-opacity="0" result="BackgroundImageFix"/>
<feColorMatrix in="SourceAlpha" type="matrix" values="0 0 0 0 0 0 0 0 0 0 0 0 0 0 0 0 0 0 127 0" result="hardAlpha"/>
<feMorphology radius="9" operator="erode" in="SourceAlpha" result="effect1_dropShadow_527_16248"/>
<feOffset dy="12"/>
<feGaussianBlur stdDeviation="12"/>
<feColorMatrix type="matrix" values="0 0 0 0 0.45098 0 0 0 0 0.45098 0 0 0 0 0.45098 0 0 0 0.2 0"/>
<feBlend mode="normal" in2="BackgroundImageFix" result="effect1_dropShadow_527_16248"/>
<feBlend mode="normal" in="SourceGraphic" in2="effect1_dropShadow_527_16248" result="shape"/>
</filter>
</defs>
</svg>
