<svg width="82" height="82" viewBox="0 0 82 82" fill="none" xmlns="http://www.w3.org/2000/svg">
<g filter="url(#filter0_d_527_16304)">
<rect x="15" y="3" width="52" height="52" rx="4" fill="white"/>
<rect x="15.5" y="3.5" width="51" height="51" rx="3.5" stroke="#F7F7F7"/>
<path d="M38 24H45.75C47.8567 24 48.91 24 49.6667 24.5056C49.9943 24.7245 50.2755 25.0057 50.4944 25.3333C51 26.09 51 27.1433 51 29.25C51 32.7612 51 34.5167 50.1573 35.7779C49.7926 36.3238 49.3238 36.7926 48.7779 37.1573C47.5167 38 45.7612 38 42.25 38H41C36.286 38 33.9289 38 32.4645 36.5355C31 35.0711 31 32.714 31 28V24.9443C31 23.1278 31 22.2196 31.3803 21.5381C31.6514 21.0523 32.0523 20.6514 32.5381 20.3803C33.2196 20 34.1278 20 35.9443 20C37.108 20 37.6899 20 38.1993 20.191C39.3622 20.6271 39.8418 21.6836 40.3666 22.7331L41 24" stroke="#066086" stroke-width="1.5" stroke-linecap="round"/>
<path d="M44.5 29L45.4199 29.7929C45.8066 30.1262 46 30.2929 46 30.5C46 30.7071 45.8066 30.8738 45.4199 31.2071L44.5 32" stroke="#066086" stroke-width="1.5" stroke-linecap="round" stroke-linejoin="round"/>
<path d="M37.5 29L36.5801 29.7929C36.1934 30.1262 36 30.2929 36 30.5C36 30.7071 36.1934 30.8738 36.5801 31.2071L37.5 32" stroke="#066086" stroke-width="1.5" stroke-linecap="round" stroke-linejoin="round"/>
<path d="M42 28L40 33" stroke="#066086" stroke-width="1.5" stroke-linecap="round" stroke-linejoin="round"/>
</g>
<defs>
<filter id="filter0_d_527_16304" x="0" y="0" width="82" height="82" filterUnits="userSpaceOnUse" color-interpolation-filters="sRGB">
<feFlood flood-opacity="0" result="BackgroundImageFix"/>
<feColorMatrix in="SourceAlpha" type="matrix" values="0 0 0 0 0 0 0 0 0 0 0 0 0 0 0 0 0 0 127 0" result="hardAlpha"/>
<feMorphology radius="9" operator="erode" in="SourceAlpha" result="effect1_dropShadow_527_16304"/>
<feOffset dy="12"/>
<feGaussianBlur stdDeviation="12"/>
<feColorMatrix type="matrix" values="0 0 0 0 0.45098 0 0 0 0 0.45098 0 0 0 0 0.45098 0 0 0 0.2 0"/>
<feBlend mode="normal" in2="BackgroundImageFix" result="effect1_dropShadow_527_16304"/>
<feBlend mode="normal" in="SourceGraphic" in2="effect1_dropShadow_527_16304" result="shape"/>
</filter>
</defs>
</svg>
