<svg width="94" height="94" viewBox="0 0 94 94" fill="none" xmlns="http://www.w3.org/2000/svg">
<g filter="url(#filter0_d_527_16252)">
<rect x="15" y="17.334" width="52" height="52" rx="4" transform="rotate(-16 15 17.334)" fill="white"/>
<rect x="15.6184" y="17.6768" width="51" height="51" rx="3.5" transform="rotate(-16 15.6184 17.6768)" stroke="#F7F7F7"/>
<g clip-path="url(#clip0_527_16252)">
<path d="M52.8299 33.702C52.5858 34.2406 51.9063 34.4389 51.3539 34.1327L45.8081 31.0586C45.2556 30.7524 45.0637 30.071 45.3912 29.5786L46.2859 28.2333C46.9292 27.2662 47.8289 26.4893 48.8987 25.9773L49.5619 25.6598C50.1881 25.3601 50.9461 25.3915 51.5813 25.7437L52.8018 26.4202C53.4371 26.7723 53.8654 27.3984 53.943 28.0884L54.0253 28.819C54.1579 29.9975 53.9759 31.1723 53.4966 32.2302L52.8299 33.702Z" stroke="#066086" stroke-width="1.5"/>
<path d="M52.3013 25.8854L53.6725 23.4116" stroke="#066086" stroke-width="1.5" stroke-linecap="round" stroke-linejoin="round"/>
<path d="M40.645 46.9128L42.0163 44.439" stroke="#066086" stroke-width="1.5" stroke-linecap="round" stroke-linejoin="round"/>
<path d="M41.4878 36.621C41.7318 36.0823 42.4113 35.884 42.9638 36.1903L48.5096 39.2644C49.062 39.5706 49.254 40.2519 48.9265 40.7443L48.0317 42.0897C47.3885 43.0568 46.4887 43.8337 45.4189 44.3457L44.7558 44.6631C44.1295 44.9629 43.3716 44.9314 42.7363 44.5793L41.5158 43.9028C40.8806 43.5506 40.4523 42.9245 40.3746 42.2346L40.2924 41.504C40.1597 40.3254 40.3417 39.1507 40.821 38.0927L41.4878 36.621Z" stroke="#066086" stroke-width="1.5"/>
<path d="M43.9321 36.6081L45.3034 34.1343M47.6428 38.6649L49.0141 36.1911" stroke="#066086" stroke-width="1.5" stroke-linecap="round" stroke-linejoin="round"/>
</g>
</g>
<defs>
<filter id="filter0_d_527_16252" x="0" y="0" width="94.3184" height="94.3203" filterUnits="userSpaceOnUse" color-interpolation-filters="sRGB">
<feFlood flood-opacity="0" result="BackgroundImageFix"/>
<feColorMatrix in="SourceAlpha" type="matrix" values="0 0 0 0 0 0 0 0 0 0 0 0 0 0 0 0 0 0 127 0" result="hardAlpha"/>
<feMorphology radius="9" operator="erode" in="SourceAlpha" result="effect1_dropShadow_527_16252"/>
<feOffset dy="12"/>
<feGaussianBlur stdDeviation="12"/>
<feColorMatrix type="matrix" values="0 0 0 0 0.45098 0 0 0 0 0.45098 0 0 0 0 0.45098 0 0 0 0.2 0"/>
<feBlend mode="normal" in2="BackgroundImageFix" result="effect1_dropShadow_527_16252"/>
<feBlend mode="normal" in="SourceGraphic" in2="effect1_dropShadow_527_16252" result="shape"/>
</filter>
<clipPath id="clip0_527_16252">
<rect width="24" height="24" fill="white" transform="translate(32.3164 26.9336) rotate(-16)"/>
</clipPath>
</defs>
</svg>
